<svg xmlns="http://www.w3.org/2000/svg" width="139.756mm" height="84.375mm" viewBox="-40.000 -167.166 495.200 298.967"><rect x="-40.0" y="-167.2" width="495.2" height="299.0" fill="#ffffff"/><g transform="matrix(3.543300 0.000000 0.000000 3.543300 27.437500 0.000000)">
<path class='other' fill='none' d='M0.127,2.66347 A1.27,1.27 0 0 1 1.397,3.93347' stroke-width='0.254' stroke='#000000' />
<path class='other' fill='none' d='M0.127,5.20347 A1.27,1.27 0 0 0 1.397,3.93347' stroke-width='0.254' stroke='#000000' />
<path class='other' fill='none' d='M0.127,5.20347 A1.27,1.27 0 0 1 1.397,6.47347' stroke-width='0.254' stroke='#000000' />
<path class='other' fill='none' d='M0.127,7.74347 A1.27,1.27 0 0 0 1.397,6.47347' stroke-width='0.254' stroke='#000000' />
<path class='other' fill='none' d='M0.127,7.74347 A1.27,1.27 0 0 1 1.397,9.01347' stroke-width='0.254' stroke='#000000' />
<path class='other' fill='none' d='M0.127,10.2835 A1.27,1.27 0 0 0 1.397,9.01347' stroke-width='0.254' stroke='#000000' />
<path class='other' fill='none' d='M0.127,10.2835 A1.27,1.27 0 0 1 1.397,11.5535' stroke-width='0.254' stroke='#000000' />
<path class='other' fill='none' d='M0.127,12.8235 A1.27,1.27 0 0 0 1.397,11.5535' stroke-width='0.254' stroke='#000000' />
<line class='pin' id='connector0pin' connectorname='1' x1='0.127' y1='0.123472' x2='0.127' y2='2.66347' stroke='#787878' stroke-width='0.246944' stroke-linecap='round'/>
<rect class='terminal' id='connector0terminal' x='0.127' y='0.123472' width='0.0001' height='0.0001' stroke='none' stroke-width='0' fill='none'/>
<line class='pin' id='connector1pin' connectorname='2' x1='0.127' y1='15.3635' x2='0.127' y2='12.8235' stroke='#787878' stroke-width='0.246944' stroke-linecap='round'/>
<rect class='terminal' id='connector1terminal' x='0.127' y='15.3635' width='0.0001' height='0.0001' stroke='none' stroke-width='0' fill='none'/>
</g><g transform="matrix(-3.543300 0.000000 0.000000 -3.543300 193.713000 -24.500000)">
<line class='other' x1='2.032' y1='2.66347' x2='2.032' y2='3.17147' stroke='#000000' stroke-width='0.1524' stroke-linecap='round'/>
<line class='other' x1='2.032' y1='5.20347' x2='2.032' y2='4.69547' stroke='#000000' stroke-width='0.1524' stroke-linecap='round'/>
<rect class='other' x='0' y='4.18747' width='4.064' height='0.508' stroke='none' stroke-width='0' fill='#000000' stroke-linecap='round'/>
<rect class='other' x='0' y='3.17147' width='4.064' height='0.508' stroke='none' stroke-width='0' fill='#000000' stroke-linecap='round'/>
<line class='pin' id='connector1pin' connectorname='1' x1='2.032' y1='0.123472' x2='2.032' y2='2.66347' stroke='#787878' stroke-width='0.246944' stroke-linecap='round'/>
<rect class='terminal' id='connector1terminal' x='2.032' y='0.123472' width='0.0001' height='0.0001' stroke='none' stroke-width='0' fill='none'/>
<g transform='translate(1.66158,1.39347)'><g transform='rotate(270)'>
<text class='text' font-family="'Droid Sans'" stroke='none' stroke-width='0' fill='#8c8c8c' font-size='0.881944' x='0' y='0' text-anchor='middle'>1</text>
</g></g>
<line class='pin' id='connector0pin' connectorname='2' x1='2.032' y1='7.74347' x2='2.032' y2='5.20347' stroke='#787878' stroke-width='0.246944' stroke-linecap='round'/>
<rect class='terminal' id='connector0terminal' x='2.032' y='7.74347' width='0.0001' height='0.0001' stroke='none' stroke-width='0' fill='none'/>
<g transform='translate(1.66158,6.47347)'><g transform='rotate(270)'>
<text class='text' font-family="'Droid Sans'" stroke='none' stroke-width='0' fill='#8c8c8c' font-size='0.881944' x='0' y='0' text-anchor='middle'>2</text>
</g></g>
</g><g transform="matrix(-3.543300 0.000000 0.000000 -3.543300 193.713000 23.375000)">
<line class='other' x1='2.032' y1='2.66347' x2='2.032' y2='3.17147' stroke='#000000' stroke-width='0.1524' stroke-linecap='round'/>
<line class='other' x1='2.032' y1='5.20347' x2='2.032' y2='4.69547' stroke='#000000' stroke-width='0.1524' stroke-linecap='round'/>
<rect class='other' x='0' y='4.18747' width='4.064' height='0.508' stroke='none' stroke-width='0' fill='#000000' stroke-linecap='round'/>
<rect class='other' x='0' y='3.17147' width='4.064' height='0.508' stroke='none' stroke-width='0' fill='#000000' stroke-linecap='round'/>
<line class='pin' id='connector1pin' connectorname='1' x1='2.032' y1='0.123472' x2='2.032' y2='2.66347' stroke='#787878' stroke-width='0.246944' stroke-linecap='round'/>
<rect class='terminal' id='connector1terminal' x='2.032' y='0.123472' width='0.0001' height='0.0001' stroke='none' stroke-width='0' fill='none'/>
<g transform='translate(1.66158,1.39347)'><g transform='rotate(270)'>
<text class='text' font-family="'Droid Sans'" stroke='none' stroke-width='0' fill='#8c8c8c' font-size='0.881944' x='0' y='0' text-anchor='middle'>1</text>
</g></g>
<line class='pin' id='connector0pin' connectorname='2' x1='2.032' y1='7.74347' x2='2.032' y2='5.20347' stroke='#787878' stroke-width='0.246944' stroke-linecap='round'/>
<rect class='terminal' id='connector0terminal' x='2.032' y='7.74347' width='0.0001' height='0.0001' stroke='none' stroke-width='0' fill='none'/>
<g transform='translate(1.66158,6.47347)'><g transform='rotate(270)'>
<text class='text' font-family="'Droid Sans'" stroke='none' stroke-width='0' fill='#8c8c8c' font-size='0.881944' x='0' y='0' text-anchor='middle'>2</text>
</g></g>
</g><g transform="matrix(3.543313 0.000000 0.000000 3.543313 179.313000 47.875000)">
<line class='other' x1='2.66347' y1='1.0922' x2='3.04447' y2='0.0762' stroke='#000000' stroke-width='0.1524' stroke-linecap='round'/>
<line class='other' x1='3.04447' y1='0.0762' x2='3.67947' y2='2.1082' stroke='#000000' stroke-width='0.1524' stroke-linecap='round'/>
<line class='other' x1='3.67947' y1='2.1082' x2='4.31447' y2='0.0762' stroke='#000000' stroke-width='0.1524' stroke-linecap='round'/>
<line class='other' x1='4.31447' y1='0.0762' x2='4.94947' y2='2.1082' stroke='#000000' stroke-width='0.1524' stroke-linecap='round'/>
<line class='other' x1='4.94947' y1='2.1082' x2='5.58447' y2='0.0762' stroke='#000000' stroke-width='0.1524' stroke-linecap='round'/>
<line class='other' x1='5.58447' y1='0.0762' x2='6.21947' y2='2.1082' stroke='#000000' stroke-width='0.1524' stroke-linecap='round'/>
<line class='other' x1='6.21947' y1='2.1082' x2='6.85447' y2='0.0762' stroke='#000000' stroke-width='0.1524' stroke-linecap='round'/>
<line class='other' x1='6.85447' y1='0.0762' x2='7.48947' y2='2.1082' stroke='#000000' stroke-width='0.1524' stroke-linecap='round'/>
<line class='other' x1='7.48947' y1='2.1082' x2='7.74347' y2='1.0922' stroke='#000000' stroke-width='0.1524' stroke-linecap='round'/>
<line class='pin' id='connector1pin' connectorname='2' x1='10.2835' y1='1.0922' x2='7.74347' y2='1.0922' stroke='#787878' stroke-width='0.246944' stroke-linecap='round'/>
<rect class='terminal' id='connector1terminal' x='10.2835' y='1.0922' width='0.0001' height='0.0001' stroke='none' stroke-width='0' fill='none'/>
<text class='text' font-family="'Droid Sans'" stroke='none' stroke-width='0' fill='#8c8c8c' font-size='0.881944' x='9.01347' y='0.721784' text-anchor='middle'>2</text>
<line class='pin' id='connector0pin' connectorname='1' x1='0.123472' y1='1.0922' x2='2.66347' y2='1.0922' stroke='#787878' stroke-width='0.246944' stroke-linecap='round'/>
<rect class='terminal' id='connector0terminal' x='0.123472' y='1.0922' width='0.0001' height='0.0001' stroke='none' stroke-width='0' fill='none'/>
<text class='text' font-family="'Droid Sans'" stroke='none' stroke-width='0' fill='#8c8c8c' font-size='0.881944' x='1.39347' y='0.721784' text-anchor='middle'>1</text>
</g><g transform="matrix(1.249997 0.000000 0.000000 1.249997 358.950000 0.000000)">
  <rect x="14" y="8" width="20" height="16" fill="#FFFFFF" stroke="#000000" stroke-width="0.9"/>
  <line class="pin" id="connector2pin" connectorname="4" x1="3" y1="13" x2="14" y2="13" stroke="#787878" stroke-width="0.75"/>
  <rect class="terminal" id="connector2terminal" x="3" y="13" width="0.0001" height="0.0001" fill="none"/>
  <text transform="matrix(1 0 0 1 4.5 11.9)" fill="#8C8C8C" font-family="DroidSans" font-size="2.6">DI</text>
  <line class="pin" id="connector0pin" connectorname="1" x1="34" y1="13" x2="45" y2="13" stroke="#787878" stroke-width="0.75"/>
  <rect class="terminal" id="connector0terminal" x="45" y="13" width="0.0001" height="0.0001" fill="none"/>
  <text transform="matrix(1 0 0 1 40.5 11.9)" fill="#8C8C8C" font-family="DroidSans" font-size="2.6">DO</text>
  <line class="pin" id="connector3pin" connectorname="2" x1="24" y1="8" x2="24" y2="2" stroke="#787878" stroke-width="0.75"/>
  <rect class="terminal" id="connector3terminal" x="24" y="2" width="0.0001" height="0.0001" fill="none"/>
  <text transform="matrix(1 0 0 1 25.5 5.5)" fill="#8C8C8C" font-family="DroidSans" font-size="2.6">VDD</text>
  <line class="pin" id="connector1pin" connectorname="3" x1="24" y1="24" x2="24" y2="30" stroke="#787878" stroke-width="0.75"/>
  <rect class="terminal" id="connector1terminal" x="24" y="30" width="0.0001" height="0.0001" fill="none"/>
  <text transform="matrix(1 0 0 1 25.5 28.8)" fill="#8C8C8C" font-family="DroidSans" font-size="2.6">GND</text>
  <text transform="matrix(1 0 0 1 24 16.6)" fill="#000000" font-family="DroidSans" font-size="4.2" text-anchor="middle">WS2812B</text>
  <text transform="matrix(1 0 0 1 24 21.0)" fill="#000000" font-family="DroidSans" font-size="3.4" text-anchor="middle">1010</text>
 </g><g transform="matrix(0.090000 0.000000 0.000000 0.090000 283.449966 17.099966)">
  <rect x="0" y="0" width="700" height="700" fill="#FFFFFF" stroke="#000000" stroke-width="5"/>
  <line class="pin" id="connector0pin" connectorname="PD7" x1="0" y1="150" x2="-130" y2="150" stroke="#000000" stroke-width="5"/>
  <rect class="terminal" id="connector0terminal" x="-130" y="150" width="0.0001" height="0.0001" fill="none"/>
  <text x="-65" y="126" font-size="35" fill="#000000" text-anchor="middle" font-family="DroidSans">1</text>
  <text x="35" y="162" font-size="35" fill="#000000" text-anchor="start" font-family="DroidSans">PD7</text>
  <line class="pin" id="connector1pin" connectorname="PA1" x1="0" y1="250" x2="-130" y2="250" stroke="#000000" stroke-width="5"/>
  <rect class="terminal" id="connector1terminal" x="-130" y="250" width="0.0001" height="0.0001" fill="none"/>
  <text x="-65" y="226" font-size="35" fill="#000000" text-anchor="middle" font-family="DroidSans">2</text>
  <text x="35" y="262" font-size="35" fill="#000000" text-anchor="start" font-family="DroidSans">PA1</text>
  <line class="pin" id="connector2pin" connectorname="PA2" x1="0" y1="350" x2="-130" y2="350" stroke="#000000" stroke-width="5"/>
  <rect class="terminal" id="connector2terminal" x="-130" y="350" width="0.0001" height="0.0001" fill="none"/>
  <text x="-65" y="326" font-size="35" fill="#000000" text-anchor="middle" font-family="DroidSans">3</text>
  <text x="35" y="362" font-size="35" fill="#000000" text-anchor="start" font-family="DroidSans">PA2</text>
  <line class="pin" id="connector3pin" connectorname="VSS" x1="0" y1="450" x2="-130" y2="450" stroke="#000000" stroke-width="5"/>
  <rect class="terminal" id="connector3terminal" x="-130" y="450" width="0.0001" height="0.0001" fill="none"/>
  <text x="-65" y="426" font-size="35" fill="#000000" text-anchor="middle" font-family="DroidSans">4</text>
  <text x="35" y="462" font-size="35" fill="#000000" text-anchor="start" font-family="DroidSans">VSS</text>
  <line class="pin" id="connector4pin" connectorname="PD0" x1="0" y1="550" x2="-130" y2="550" stroke="#000000" stroke-width="5"/>
  <rect class="terminal" id="connector4terminal" x="-130" y="550" width="0.0001" height="0.0001" fill="none"/>
  <text x="-65" y="526" font-size="35" fill="#000000" text-anchor="middle" font-family="DroidSans">5</text>
  <text x="35" y="562" font-size="35" fill="#000000" text-anchor="start" font-family="DroidSans">PD0</text>
  <line class="pin" id="connector5pin" connectorname="VDD" x1="150" y1="700" x2="150" y2="830" stroke="#000000" stroke-width="5"/>
  <rect class="terminal" id="connector5terminal" x="150" y="830" width="0.0001" height="0.0001" fill="none"/>
  <text x="126" y="755" font-size="35" fill="#000000" text-anchor="middle" font-family="DroidSans" transform="rotate(270 126 755)">6</text>
  <text x="162" y="635" font-size="35" fill="#000000" text-anchor="middle" font-family="DroidSans" transform="rotate(270 162 635)">VDD</text>
  <line class="pin" id="connector6pin" connectorname="PC0" x1="250" y1="700" x2="250" y2="830" stroke="#000000" stroke-width="5"/>
  <rect class="terminal" id="connector6terminal" x="250" y="830" width="0.0001" height="0.0001" fill="none"/>
  <text x="226" y="755" font-size="35" fill="#000000" text-anchor="middle" font-family="DroidSans" transform="rotate(270 226 755)">7</text>
  <text x="262" y="635" font-size="35" fill="#000000" text-anchor="middle" font-family="DroidSans" transform="rotate(270 262 635)">PC0</text>
  <line class="pin" id="connector7pin" connectorname="PC1" x1="350" y1="700" x2="350" y2="830" stroke="#000000" stroke-width="5"/>
  <rect class="terminal" id="connector7terminal" x="350" y="830" width="0.0001" height="0.0001" fill="none"/>
  <text x="326" y="755" font-size="35" fill="#000000" text-anchor="middle" font-family="DroidSans" transform="rotate(270 326 755)">8</text>
  <text x="362" y="635" font-size="35" fill="#000000" text-anchor="middle" font-family="DroidSans" transform="rotate(270 362 635)">PC1</text>
  <line class="pin" id="connector8pin" connectorname="PC2" x1="450" y1="700" x2="450" y2="830" stroke="#000000" stroke-width="5"/>
  <rect class="terminal" id="connector8terminal" x="450" y="830" width="0.0001" height="0.0001" fill="none"/>
  <text x="426" y="755" font-size="35" fill="#000000" text-anchor="middle" font-family="DroidSans" transform="rotate(270 426 755)">9</text>
  <text x="462" y="635" font-size="35" fill="#000000" text-anchor="middle" font-family="DroidSans" transform="rotate(270 462 635)">PC2</text>
  <line class="pin" id="connector9pin" connectorname="PC3" x1="550" y1="700" x2="550" y2="830" stroke="#000000" stroke-width="5"/>
  <rect class="terminal" id="connector9terminal" x="550" y="830" width="0.0001" height="0.0001" fill="none"/>
  <text x="526" y="755" font-size="35" fill="#000000" text-anchor="middle" font-family="DroidSans" transform="rotate(270 526 755)">10</text>
  <text x="562" y="635" font-size="35" fill="#000000" text-anchor="middle" font-family="DroidSans" transform="rotate(270 562 635)">PC3</text>
  <line class="pin" id="connector10pin" connectorname="PC4" x1="700" y1="550" x2="830" y2="550" stroke="#000000" stroke-width="5"/>
  <rect class="terminal" id="connector10terminal" x="830" y="550" width="0.0001" height="0.0001" fill="none"/>
  <text x="765" y="526" font-size="35" fill="#000000" text-anchor="middle" font-family="DroidSans">11</text>
  <text x="665" y="562" font-size="35" fill="#000000" text-anchor="end" font-family="DroidSans">PC4</text>
  <line class="pin" id="connector11pin" connectorname="PC5" x1="700" y1="450" x2="830" y2="450" stroke="#000000" stroke-width="5"/>
  <rect class="terminal" id="connector11terminal" x="830" y="450" width="0.0001" height="0.0001" fill="none"/>
  <text x="765" y="426" font-size="35" fill="#000000" text-anchor="middle" font-family="DroidSans">12</text>
  <text x="665" y="462" font-size="35" fill="#000000" text-anchor="end" font-family="DroidSans">PC5</text>
  <line class="pin" id="connector12pin" connectorname="PC6" x1="700" y1="350" x2="830" y2="350" stroke="#000000" stroke-width="5"/>
  <rect class="terminal" id="connector12terminal" x="830" y="350" width="0.0001" height="0.0001" fill="none"/>
  <text x="765" y="326" font-size="35" fill="#000000" text-anchor="middle" font-family="DroidSans">13</text>
  <text x="665" y="362" font-size="35" fill="#000000" text-anchor="end" font-family="DroidSans">PC6</text>
  <line class="pin" id="connector13pin" connectorname="PC7" x1="700" y1="250" x2="830" y2="250" stroke="#000000" stroke-width="5"/>
  <rect class="terminal" id="connector13terminal" x="830" y="250" width="0.0001" height="0.0001" fill="none"/>
  <text x="765" y="226" font-size="35" fill="#000000" text-anchor="middle" font-family="DroidSans">14</text>
  <text x="665" y="262" font-size="35" fill="#000000" text-anchor="end" font-family="DroidSans">PC7</text>
  <line class="pin" id="connector14pin" connectorname="PD1" x1="700" y1="150" x2="830" y2="150" stroke="#000000" stroke-width="5"/>
  <rect class="terminal" id="connector14terminal" x="830" y="150" width="0.0001" height="0.0001" fill="none"/>
  <text x="765" y="126" font-size="35" fill="#000000" text-anchor="middle" font-family="DroidSans">15</text>
  <text x="665" y="162" font-size="35" fill="#000000" text-anchor="end" font-family="DroidSans">PD1</text>
  <line class="pin" id="connector15pin" connectorname="PD2" x1="550" y1="0" x2="550" y2="-130" stroke="#000000" stroke-width="5"/>
  <rect class="terminal" id="connector15terminal" x="550" y="-130" width="0.0001" height="0.0001" fill="none"/>
  <text x="526" y="-50" font-size="35" fill="#000000" text-anchor="middle" font-family="DroidSans" transform="rotate(270 526 -50)">16</text>
  <text x="562" y="65" font-size="35" fill="#000000" text-anchor="middle" font-family="DroidSans" transform="rotate(270 562 65)">PD2</text>
  <line class="pin" id="connector16pin" connectorname="PD3" x1="450" y1="0" x2="450" y2="-130" stroke="#000000" stroke-width="5"/>
  <rect class="terminal" id="connector16terminal" x="450" y="-130" width="0.0001" height="0.0001" fill="none"/>
  <text x="426" y="-50" font-size="35" fill="#000000" text-anchor="middle" font-family="DroidSans" transform="rotate(270 426 -50)">17</text>
  <text x="462" y="65" font-size="35" fill="#000000" text-anchor="middle" font-family="DroidSans" transform="rotate(270 462 65)">PD3</text>
  <line class="pin" id="connector17pin" connectorname="PD4" x1="350" y1="0" x2="350" y2="-130" stroke="#000000" stroke-width="5"/>
  <rect class="terminal" id="connector17terminal" x="350" y="-130" width="0.0001" height="0.0001" fill="none"/>
  <text x="326" y="-50" font-size="35" fill="#000000" text-anchor="middle" font-family="DroidSans" transform="rotate(270 326 -50)">18</text>
  <text x="362" y="65" font-size="35" fill="#000000" text-anchor="middle" font-family="DroidSans" transform="rotate(270 362 65)">PD4</text>
  <line class="pin" id="connector18pin" connectorname="PD5" x1="250" y1="0" x2="250" y2="-130" stroke="#000000" stroke-width="5"/>
  <rect class="terminal" id="connector18terminal" x="250" y="-130" width="0.0001" height="0.0001" fill="none"/>
  <text x="226" y="-50" font-size="35" fill="#000000" text-anchor="middle" font-family="DroidSans" transform="rotate(270 226 -50)">19</text>
  <text x="262" y="65" font-size="35" fill="#000000" text-anchor="middle" font-family="DroidSans" transform="rotate(270 262 65)">PD5</text>
  <line class="pin" id="connector19pin" connectorname="PD6" x1="150" y1="0" x2="150" y2="-130" stroke="#000000" stroke-width="5"/>
  <rect class="terminal" id="connector19terminal" x="150" y="-130" width="0.0001" height="0.0001" fill="none"/>
  <text x="126" y="-50" font-size="35" fill="#000000" text-anchor="middle" font-family="DroidSans" transform="rotate(270 126 -50)">20</text>
  <text x="162" y="65" font-size="35" fill="#000000" text-anchor="middle" font-family="DroidSans" transform="rotate(270 162 65)">PD6</text>
  <line class="pin" id="connector20pin" connectorname="EPAD" x1="50" y1="0" x2="50" y2="-130" stroke="#000000" stroke-width="5"/>
  <rect class="terminal" id="connector20terminal" x="50" y="-130" width="0.0001" height="0.0001" fill="none"/>
  <text x="26" y="-50" font-size="35" fill="#000000" text-anchor="middle" font-family="DroidSans" transform="rotate(270 26 -50)">0</text>
  <text x="62" y="65" font-size="35" fill="#000000" text-anchor="middle" font-family="DroidSans" transform="rotate(270 62 65)">EPAD</text>
  <text x="350" y="362" font-size="35" fill="#000000" text-anchor="middle" font-family="DroidSans">CH32V003</text>
 </g><g transform="matrix(1.249997 0.000000 0.000000 1.249997 107.875000 0.000000)">
  <rect x="5" y="3" width="56" height="32" fill="none" stroke="#000000" stroke-width="0.9"/>
    <line fill="none" stroke="#000000" stroke-width="0.5" stroke-linecap="round" x1="5.00" y1="12.00" x2="9.00" y2="12.00"/>
    <line fill="none" stroke="#000000" stroke-width="0.5" stroke-linecap="round" x1="9.00" y1="9.12" x2="14.04" y2="12.00"/>
    <line fill="none" stroke="#000000" stroke-width="0.5" stroke-linecap="round" x1="9.00" y1="14.88" x2="14.04" y2="12.00"/>
    <line fill="none" stroke="#000000" stroke-width="0.5" stroke-linecap="round" x1="9.00" y1="9.12" x2="9.00" y2="14.88"/>
    <line fill="none" stroke="#000000" stroke-width="0.5" stroke-linecap="round" x1="14.04" y1="9.12" x2="14.04" y2="14.88"/>
    <line fill="none" stroke="#000000" stroke-width="0.5" stroke-linecap="round" x1="14.04" y1="12.00" x2="41.00" y2="12.00"/>
    <circle cx="33.00" cy="12.00" r="0.7" fill="#000000" stroke="none"/>
    <line fill="none" stroke="#000000" stroke-width="0.5" stroke-linecap="round" x1="41.00" y1="9.12" x2="46.04" y2="12.00"/>
    <line fill="none" stroke="#000000" stroke-width="0.5" stroke-linecap="round" x1="41.00" y1="14.88" x2="46.04" y2="12.00"/>
    <line fill="none" stroke="#000000" stroke-width="0.5" stroke-linecap="round" x1="41.00" y1="9.12" x2="41.00" y2="14.88"/>
    <line fill="none" stroke="#000000" stroke-width="0.5" stroke-linecap="round" x1="46.04" y1="9.12" x2="46.04" y2="14.88"/>
    <line fill="none" stroke="#000000" stroke-width="0.5" stroke-linecap="round" x1="46.04" y1="12.00" x2="61.00" y2="12.00"/>
    <line fill="none" stroke="#000000" stroke-width="0.5" stroke-linecap="round" x1="33.00" y1="12.00" x2="33.00" y2="3.00"/>
  <line class="pin" id="connector5pin" connectorname="6" fill="none" stroke="#787878" stroke-width="0.75" stroke-linecap="round" x1="33.00" y1="3.00" x2="33.00" y2="0.00"/>
  <rect class="terminal" id="connector5terminal" x="33.00" y="0.00" width="0.0001" height="0.0001" stroke="none" fill="none"/>
  <text transform="matrix(1 0 0 1 29.80 2.20)" fill="#8C8C8C" font-family="DroidSans" font-size="2.6">6</text>
  <line class="pin" id="connector0pin" connectorname="1" fill="none" stroke="#787878" stroke-width="0.75" stroke-linecap="round" x1="0.00" y1="12.00" x2="5.00" y2="12.00"/>
  <rect class="terminal" id="connector0terminal" x="0.00" y="12.00" width="0.0001" height="0.0001" stroke="none" fill="none"/>
  <text transform="matrix(1 0 0 1 2.00 10.80)" fill="#8C8C8C" font-family="DroidSans" font-size="2.6">1</text>
  <line class="pin" id="connector4pin" connectorname="5" fill="none" stroke="#787878" stroke-width="0.75" stroke-linecap="round" x1="66.00" y1="12.00" x2="61.00" y2="12.00"/>
  <rect class="terminal" id="connector4terminal" x="66.00" y="12.00" width="0.0001" height="0.0001" stroke="none" fill="none"/>
  <text transform="matrix(1 0 0 1 62.50 10.80)" fill="#8C8C8C" font-family="DroidSans" font-size="2.6">5</text>
  <text transform="matrix(1 0 0 1 6.00 9.40)" fill="#000000" font-family="DroidSans" font-size="3.0">A1</text>
  <text transform="matrix(1 0 0 1 55.50 9.40)" fill="#000000" font-family="DroidSans" font-size="3.0">C1</text>
  <text transform="matrix(1 0 0 1 34.50 5.50)" fill="#000000" font-family="DroidSans" font-size="3.0">AC1</text>
    <line fill="none" stroke="#000000" stroke-width="0.5" stroke-linecap="round" x1="5.00" y1="26.00" x2="9.00" y2="26.00"/>
    <line fill="none" stroke="#000000" stroke-width="0.5" stroke-linecap="round" x1="9.00" y1="23.12" x2="14.04" y2="26.00"/>
    <line fill="none" stroke="#000000" stroke-width="0.5" stroke-linecap="round" x1="9.00" y1="28.88" x2="14.04" y2="26.00"/>
    <line fill="none" stroke="#000000" stroke-width="0.5" stroke-linecap="round" x1="9.00" y1="23.12" x2="9.00" y2="28.88"/>
    <line fill="none" stroke="#000000" stroke-width="0.5" stroke-linecap="round" x1="14.04" y1="23.12" x2="14.04" y2="28.88"/>
    <line fill="none" stroke="#000000" stroke-width="0.5" stroke-linecap="round" x1="14.04" y1="26.00" x2="41.00" y2="26.00"/>
    <circle cx="33.00" cy="26.00" r="0.7" fill="#000000" stroke="none"/>
    <line fill="none" stroke="#000000" stroke-width="0.5" stroke-linecap="round" x1="41.00" y1="23.12" x2="46.04" y2="26.00"/>
    <line fill="none" stroke="#000000" stroke-width="0.5" stroke-linecap="round" x1="41.00" y1="28.88" x2="46.04" y2="26.00"/>
    <line fill="none" stroke="#000000" stroke-width="0.5" stroke-linecap="round" x1="41.00" y1="23.12" x2="41.00" y2="28.88"/>
    <line fill="none" stroke="#000000" stroke-width="0.5" stroke-linecap="round" x1="46.04" y1="23.12" x2="46.04" y2="28.88"/>
    <line fill="none" stroke="#000000" stroke-width="0.5" stroke-linecap="round" x1="46.04" y1="26.00" x2="61.00" y2="26.00"/>
    <line fill="none" stroke="#000000" stroke-width="0.5" stroke-linecap="round" x1="33.00" y1="26.00" x2="33.00" y2="35.00"/>
  <line class="pin" id="connector2pin" connectorname="3" fill="none" stroke="#787878" stroke-width="0.75" stroke-linecap="round" x1="33.00" y1="35.00" x2="33.00" y2="38.00"/>
  <rect class="terminal" id="connector2terminal" x="33.00" y="38.00" width="0.0001" height="0.0001" stroke="none" fill="none"/>
  <text transform="matrix(1 0 0 1 29.80 37.40)" fill="#8C8C8C" font-family="DroidSans" font-size="2.6">3</text>
  <line class="pin" id="connector1pin" connectorname="2" fill="none" stroke="#787878" stroke-width="0.75" stroke-linecap="round" x1="0.00" y1="26.00" x2="5.00" y2="26.00"/>
  <rect class="terminal" id="connector1terminal" x="0.00" y="26.00" width="0.0001" height="0.0001" stroke="none" fill="none"/>
  <text transform="matrix(1 0 0 1 2.00 24.80)" fill="#8C8C8C" font-family="DroidSans" font-size="2.6">2</text>
  <line class="pin" id="connector3pin" connectorname="4" fill="none" stroke="#787878" stroke-width="0.75" stroke-linecap="round" x1="66.00" y1="26.00" x2="61.00" y2="26.00"/>
  <rect class="terminal" id="connector3terminal" x="66.00" y="26.00" width="0.0001" height="0.0001" stroke="none" fill="none"/>
  <text transform="matrix(1 0 0 1 62.50 24.80)" fill="#8C8C8C" font-family="DroidSans" font-size="2.6">4</text>
  <text transform="matrix(1 0 0 1 6.00 23.40)" fill="#000000" font-family="DroidSans" font-size="3.0">A2</text>
  <text transform="matrix(1 0 0 1 55.50 23.40)" fill="#000000" font-family="DroidSans" font-size="3.0">C2</text>
  <text transform="matrix(1 0 0 1 34.50 32.50)" fill="#000000" font-family="DroidSans" font-size="3.0">AC2</text>
 </g><g transform="matrix(3.543300 0.000000 0.000000 3.543300 0.000000 -130.603350)">
  <polyline points="2.54,0.97 4.34,0.97 4.34,8.25 2.54,8.25 2.54,0.97" fill="none" stroke="#000000" stroke-width="0.30" stroke-linejoin="round"/>
  <line class="pin" id="connector0pin" connectorname="1" x1="0" y1="2.07" x2="2.54" y2="2.07" stroke="#787878" stroke-width="0.246944" stroke-linecap="round" stroke-linejoin="round"/>
  <rect id="connector0terminal" x="0" y="2.0700" width="0.0001" height="0.0001" stroke="none" fill="none"/>
  <text x="1.27" y="1.79" font-size="1.30" fill="#8C8C8C" text-anchor="middle" font-family="DroidSans">1</text>
  <line class="pin" id="connector1pin" connectorname="2" x1="0" y1="4.61" x2="2.54" y2="4.61" stroke="#787878" stroke-width="0.246944" stroke-linecap="round" stroke-linejoin="round"/>
  <rect id="connector1terminal" x="0" y="4.6100" width="0.0001" height="0.0001" stroke="none" fill="none"/>
  <text x="1.27" y="4.33" font-size="1.30" fill="#8C8C8C" text-anchor="middle" font-family="DroidSans">2</text>
  <line class="pin" id="connector2pin" connectorname="3" x1="0" y1="7.15" x2="2.54" y2="7.15" stroke="#787878" stroke-width="0.246944" stroke-linecap="round" stroke-linejoin="round"/>
  <rect id="connector2terminal" x="0" y="7.1500" width="0.0001" height="0.0001" stroke="none" fill="none"/>
  <text x="1.27" y="6.87" font-size="1.30" fill="#8C8C8C" text-anchor="middle" font-family="DroidSans">3</text>
  <text x="3.44" y="9.40" font-size="1.00" fill="#8C8C8C" text-anchor="middle" font-family="DroidSans">SH1.0</text>
 </g><g transform="matrix(3.543300 0.000000 0.000000 3.543300 60.000000 -130.603350)">
  <polyline points="2.54,0.97 4.34,0.97 4.34,8.25 2.54,8.25 2.54,0.97" fill="none" stroke="#000000" stroke-width="0.30" stroke-linejoin="round"/>
  <line class="pin" id="connector0pin" connectorname="1" x1="0" y1="2.07" x2="2.54" y2="2.07" stroke="#787878" stroke-width="0.246944" stroke-linecap="round" stroke-linejoin="round"/>
  <rect id="connector0terminal" x="0" y="2.0700" width="0.0001" height="0.0001" stroke="none" fill="none"/>
  <text x="1.27" y="1.79" font-size="1.30" fill="#8C8C8C" text-anchor="middle" font-family="DroidSans">1</text>
  <line class="pin" id="connector1pin" connectorname="2" x1="0" y1="4.61" x2="2.54" y2="4.61" stroke="#787878" stroke-width="0.246944" stroke-linecap="round" stroke-linejoin="round"/>
  <rect id="connector1terminal" x="0" y="4.6100" width="0.0001" height="0.0001" stroke="none" fill="none"/>
  <text x="1.27" y="4.33" font-size="1.30" fill="#8C8C8C" text-anchor="middle" font-family="DroidSans">2</text>
  <line class="pin" id="connector2pin" connectorname="3" x1="0" y1="7.15" x2="2.54" y2="7.15" stroke="#787878" stroke-width="0.246944" stroke-linecap="round" stroke-linejoin="round"/>
  <rect id="connector2terminal" x="0" y="7.1500" width="0.0001" height="0.0001" stroke="none" fill="none"/>
  <text x="1.27" y="6.87" font-size="1.30" fill="#8C8C8C" text-anchor="middle" font-family="DroidSans">3</text>
  <text x="3.44" y="9.40" font-size="1.00" fill="#8C8C8C" text-anchor="middle" font-family="DroidSans">SH1.0</text>
 </g><line x1="0.0000" y1="-123.2690" x2="60.0000" y2="-123.2690" stroke="#404040" stroke-width="0.8750" stroke-linecap="round"/><line x1="60.0000" y1="-123.2690" x2="186.5130" y2="-123.2690" stroke="#404040" stroke-width="0.8750" stroke-linecap="round"/><line x1="186.5120" y1="-123.2690" x2="186.5120" y2="-51.9378" stroke="#404040" stroke-width="0.8750" stroke-linecap="round"/><line x1="186.5120" y1="-51.9375" x2="296.9500" y2="-51.9375" stroke="#404040" stroke-width="0.8750" stroke-linecap="round"/><line x1="296.9500" y1="-51.9375" x2="296.9500" y2="91.8005" stroke="#404040" stroke-width="0.8750" stroke-linecap="round"/><line x1="296.9500" y1="91.8000" x2="305.9500" y2="91.8000" stroke="#404040" stroke-width="0.8750" stroke-linecap="round"/><line x1="305.9500" y1="91.8000" x2="305.9500" y2="2.0000" stroke="#404040" stroke-width="0.8750" stroke-linecap="round"/><line x1="305.9500" y1="2.0000" x2="382.9500" y2="2.0000" stroke="#404040" stroke-width="0.8750" stroke-linecap="round"/><line x1="173.8750" y1="12.0000" x2="173.8750" y2="26.0000" stroke="#404040" stroke-width="0.8750" stroke-linecap="round"/><line x1="173.8750" y1="26.0000" x2="173.8750" y2="51.7450" stroke="#404040" stroke-width="0.8750" stroke-linecap="round"/><line x1="173.8750" y1="51.7450" x2="179.7500" y2="51.7450" stroke="#404040" stroke-width="0.8750" stroke-linecap="round"/><line x1="27.8875" y1="0.4375" x2="140.8745" y2="0.4375" stroke="#404040" stroke-width="0.8750" stroke-linecap="round"/><line x1="140.8750" y1="0.4375" x2="140.8750" y2="0.0000" stroke="#404040" stroke-width="0.8750" stroke-linecap="round"/><line x1="27.8875" y1="54.4378" x2="140.8745" y2="54.4378" stroke="#404040" stroke-width="0.8750" stroke-linecap="round"/><line x1="140.8750" y1="54.4378" x2="140.8750" y2="38.0000" stroke="#404040" stroke-width="0.8750" stroke-linecap="round"/><line x1="0.0000" y1="-105.2690" x2="0.0000" y2="-92.8128" stroke="#404040" stroke-width="0.8750" stroke-linecap="round"/><line x1="0.0000" y1="-92.8125" x2="271.7500" y2="-92.8125" stroke="#404040" stroke-width="0.8750" stroke-linecap="round"/><line x1="271.7500" y1="-92.8125" x2="271.7500" y2="48.5995" stroke="#404040" stroke-width="0.8750" stroke-linecap="round"/><line x1="60.0000" y1="-105.2690" x2="60.0000" y2="66.6000" stroke="#404040" stroke-width="0.8750" stroke-linecap="round"/><line x1="60.0000" y1="66.6000" x2="271.7500" y2="66.6000" stroke="#404040" stroke-width="0.8750" stroke-linecap="round"/><line x1="0.0000" y1="-114.2690" x2="60.0000" y2="-114.2690" stroke="#404040" stroke-width="0.8750" stroke-linecap="round"/><line x1="60.0000" y1="-114.2690" x2="107.8750" y2="-114.2690" stroke="#404040" stroke-width="0.8750" stroke-linecap="round"/><line x1="107.8750" y1="-114.2690" x2="107.8750" y2="12.0000" stroke="#404040" stroke-width="0.8750" stroke-linecap="round"/><line x1="107.8750" y1="12.0000" x2="107.8750" y2="26.0000" stroke="#404040" stroke-width="0.8750" stroke-linecap="round"/><line x1="107.8750" y1="26.0000" x2="186.5125" y2="26.0000" stroke="#404040" stroke-width="0.8750" stroke-linecap="round"/><line x1="186.5120" y1="26.0000" x2="186.5120" y2="-24.9375" stroke="#404040" stroke-width="0.8750" stroke-linecap="round"/><line x1="186.5120" y1="-24.9375" x2="185.3120" y2="-24.9375" stroke="#404040" stroke-width="0.8750" stroke-linecap="round"/><line x1="185.3130" y1="-24.9375" x2="185.3130" y2="22.9375" stroke="#404040" stroke-width="0.8750" stroke-linecap="round"/><line x1="185.3130" y1="22.9375" x2="186.5130" y2="22.9375" stroke="#404040" stroke-width="0.8750" stroke-linecap="round"/><line x1="186.5120" y1="22.9375" x2="271.7495" y2="22.9375" stroke="#404040" stroke-width="0.8750" stroke-linecap="round"/><line x1="271.7500" y1="22.9375" x2="271.7500" y2="57.6000" stroke="#404040" stroke-width="0.8750" stroke-linecap="round"/><line x1="271.7500" y1="57.6000" x2="382.9500" y2="57.6000" stroke="#404040" stroke-width="0.8750" stroke-linecap="round"/><line x1="382.9500" y1="57.6000" x2="382.9500" y2="30.0000" stroke="#404040" stroke-width="0.8750" stroke-linecap="round"/><line x1="358.1500" y1="48.6000" x2="361.9500" y2="48.6000" stroke="#404040" stroke-width="0.8750" stroke-linecap="round"/><line x1="361.9500" y1="48.6000" x2="361.9500" y2="13.0000" stroke="#404040" stroke-width="0.8750" stroke-linecap="round"/><line x1="186.5120" y1="-4.0625" x2="215.7498" y2="-4.0625" stroke="#404040" stroke-width="0.8750" stroke-linecap="round"/><line x1="215.7500" y1="-4.0625" x2="215.7500" y2="51.7450" stroke="#404040" stroke-width="0.8750" stroke-linecap="round"/><line x1="215.7500" y1="51.7450" x2="218.7499" y2="51.7450" stroke="#404040" stroke-width="0.8750" stroke-linecap="round"/><line x1="218.7500" y1="51.7450" x2="218.7500" y2="39.6000" stroke="#404040" stroke-width="0.8750" stroke-linecap="round"/><line x1="218.7500" y1="39.6000" x2="271.7499" y2="39.6000" stroke="#404040" stroke-width="0.8750" stroke-linecap="round"/><line x1="287.9500" y1="5.3999" x2="271.7500" y2="57.6000" stroke="#404040" stroke-width="0.8750" stroke-linecap="round"/><circle cx="0.0000" cy="-92.8130" r="0.9000" fill="#000000" stroke="none"/><circle cx="60.0000" cy="-123.2690" r="0.9000" fill="#000000" stroke="none"/><circle cx="60.0000" cy="-114.2690" r="0.9000" fill="#000000" stroke="none"/><circle cx="60.0000" cy="66.6000" r="0.9000" fill="#000000" stroke="none"/><circle cx="107.8750" cy="-114.2690" r="0.9000" fill="#000000" stroke="none"/><circle cx="107.8750" cy="12.0000" r="0.9000" fill="#000000" stroke="none"/><circle cx="107.8750" cy="26.0000" r="0.9000" fill="#000000" stroke="none"/><circle cx="140.8740" cy="0.4380" r="0.9000" fill="#000000" stroke="none"/><circle cx="140.8740" cy="54.4380" r="0.9000" fill="#000000" stroke="none"/><circle cx="173.8750" cy="26.0000" r="0.9000" fill="#000000" stroke="none"/><circle cx="173.8750" cy="51.7450" r="0.9000" fill="#000000" stroke="none"/><circle cx="185.3120" cy="-24.9380" r="0.9000" fill="#000000" stroke="none"/><circle cx="185.3130" cy="22.9380" r="0.9000" fill="#000000" stroke="none"/><circle cx="186.5120" cy="-51.9380" r="0.9000" fill="#000000" stroke="none"/><circle cx="186.5120" cy="-24.9380" r="0.9000" fill="#000000" stroke="none"/><circle cx="186.5120" cy="-4.0620" r="0.9000" fill="#000000" stroke="none"/><circle cx="186.5120" cy="22.9380" r="0.9000" fill="#000000" stroke="none"/><circle cx="186.5120" cy="26.0000" r="0.9000" fill="#000000" stroke="none"/><circle cx="186.5130" cy="-123.2690" r="0.9000" fill="#000000" stroke="none"/><circle cx="186.5130" cy="22.9380" r="0.9000" fill="#000000" stroke="none"/><circle cx="215.7500" cy="-4.0620" r="0.9000" fill="#000000" stroke="none"/><circle cx="215.7500" cy="51.7450" r="0.9000" fill="#000000" stroke="none"/><circle cx="218.7500" cy="39.6000" r="0.9000" fill="#000000" stroke="none"/><circle cx="218.7500" cy="51.7450" r="0.9000" fill="#000000" stroke="none"/><circle cx="271.7500" cy="-92.8120" r="0.9000" fill="#000000" stroke="none"/><circle cx="271.7500" cy="22.9380" r="0.9000" fill="#000000" stroke="none"/><circle cx="271.7500" cy="39.6000" r="0.9000" fill="#000000" stroke="none"/><circle cx="271.7500" cy="48.6000" r="0.9000" fill="#000000" stroke="none"/><circle cx="271.7500" cy="57.6000" r="0.9000" fill="#000000" stroke="none"/><circle cx="296.9500" cy="-51.9380" r="0.9000" fill="#000000" stroke="none"/><circle cx="296.9500" cy="91.8000" r="0.9000" fill="#000000" stroke="none"/><circle cx="305.9500" cy="2.0000" r="0.9000" fill="#000000" stroke="none"/><circle cx="305.9500" cy="91.8000" r="0.9000" fill="#000000" stroke="none"/><circle cx="361.9500" cy="48.6000" r="0.9000" fill="#000000" stroke="none"/><circle cx="382.9500" cy="57.6000" r="0.9000" fill="#000000" stroke="none"/><g font-family="DroidSans" font-size="5.000" fill="#000000"><text x="32.8375" y="-14.0000">L1</text><text x="32.8375" y="-9.0000">NFC-Coil-20-6T</text></g><g font-family="DroidSans" font-size="5.000" fill="#000000"><text x="193.7130" y="-66.3747">C2</text><text x="193.7130" y="-61.3747">16V</text><text x="193.7130" y="-56.3747">100 nF</text></g><g font-family="DroidSans" font-size="5.000" fill="#000000"><text x="165.9870" y="0.4192">C1</text><text x="165.9870" y="5.4192">16V</text><text x="165.9870" y="10.4192">100 nF</text></g><g font-family="DroidSans" font-size="5.000" fill="#000000"><text x="190.4180" y="26.5703">R1</text><text x="190.4180" y="31.5703">±5%</text><text x="190.4180" y="36.5703">220</text></g><g font-family="DroidSans" font-size="5.000" fill="#000000"><text x="406.9500" y="-14.0001">LED2</text><text x="406.9500" y="-9.0001">WS2812B-1010</text></g><g font-family="DroidSans" font-size="5.000" fill="#000000"><text x="363.5500" y="-14.0000">U1</text><text x="363.5500" y="-9.0000">CH32V003F4U6</text></g><g font-family="DroidSans" font-size="5.000" fill="#000000"><text x="173.8750" y="-14.0000">D3</text><text x="173.8750" y="-9.0000">BAS70BRW</text></g><g font-family="DroidSans" font-size="5.000" fill="#000000"><text x="19.8420" y="-146.3750">J1</text><text x="19.8420" y="-141.3750">SH1.0-3P-LT</text></g><g font-family="DroidSans" font-size="5.000" fill="#000000"><text x="79.8420" y="-146.3750">J2</text><text x="79.8420" y="-141.3750">SH1.0-3P-LT</text></g></svg>