G04 MADE WITH FRITZING*
G04 WWW.FRITZING.ORG*
G04 DOUBLE SIDED*
G04 HOLES PLATED*
G04 CONTOUR ON CENTER OF CONTOUR VECTOR*
%ASAXBY*%
%FSLAX23Y23*%
%MOIN*%
%OFA0B0*%
%SFA1.0B1.0*%
%ADD10C,0.072992*%
%ADD11C,0.049370*%
%ADD12C,0.088031*%
%ADD13C,0.096614*%
%ADD14R,0.041496X0.045433*%
%ADD15R,0.053307X0.057244*%
%ADD16R,0.069055X0.027717*%
%ADD17R,0.104488X0.027717*%
%LNMASK0*%
G90*
G70*
G54D10*
X483Y336D03*
X483Y45D03*
G54D11*
X1507Y163D03*
G54D12*
X1637Y505D03*
X1637Y605D03*
X1637Y405D03*
X1637Y105D03*
X1637Y305D03*
X1637Y705D03*
X1637Y205D03*
X1637Y805D03*
G54D11*
X1066Y163D03*
X1271Y163D03*
X1365Y595D03*
G54D13*
X1074Y68D03*
X1074Y872D03*
G54D11*
X995Y202D03*
X995Y438D03*
X1034Y675D03*
X916Y438D03*
X1113Y202D03*
X1113Y798D03*
G54D14*
X839Y163D03*
X914Y163D03*
X877Y84D03*
X877Y824D03*
X802Y824D03*
X839Y903D03*
G54D15*
X956Y647D03*
X956Y714D03*
G54D16*
X1420Y307D03*
X1420Y281D03*
X1420Y255D03*
X1420Y230D03*
X1420Y204D03*
X1420Y179D03*
X1420Y153D03*
X1420Y127D03*
X1192Y307D03*
X1192Y281D03*
X1192Y255D03*
X1192Y230D03*
X1192Y204D03*
X1192Y179D03*
X1192Y153D03*
X1192Y127D03*
G54D15*
X956Y293D03*
X956Y360D03*
G54D17*
X1463Y799D03*
X1463Y774D03*
X1463Y748D03*
X1463Y723D03*
X1463Y697D03*
X1463Y671D03*
X1463Y646D03*
X1463Y620D03*
X1463Y595D03*
X1463Y569D03*
X1463Y543D03*
X1463Y518D03*
X1234Y799D03*
X1234Y774D03*
X1234Y748D03*
X1234Y723D03*
X1234Y697D03*
X1234Y671D03*
X1234Y646D03*
X1234Y620D03*
X1234Y595D03*
X1234Y569D03*
X1234Y543D03*
X1234Y518D03*
G04 End of Mask0*
M02*