G04 MADE WITH FRITZING*
G04 WWW.FRITZING.ORG*
G04 DOUBLE SIDED*
G04 HOLES PLATED*
G04 CONTOUR ON CENTER OF CONTOUR VECTOR*
%ASAXBY*%
%FSLAX23Y23*%
%MOIN*%
%OFA0B0*%
%SFA1.0B1.0*%
%ADD10C,0.049370*%
%ADD11C,0.088031*%
%ADD12C,0.096614*%
%ADD13C,0.072992*%
%ADD14R,0.001000X0.001000*%
%LNMASK1*%
G90*
G70*
G54D10*
X1507Y163D03*
G54D11*
X1637Y505D03*
X1637Y605D03*
X1637Y405D03*
X1637Y105D03*
X1637Y305D03*
X1637Y705D03*
X1637Y205D03*
X1637Y805D03*
G54D10*
X1066Y163D03*
X1271Y163D03*
X1507Y699D03*
G54D12*
X1074Y68D03*
X1074Y872D03*
G54D10*
X995Y202D03*
X995Y438D03*
X1034Y675D03*
X916Y438D03*
X1113Y202D03*
X1113Y798D03*
G54D13*
X444Y348D03*
X444Y57D03*
G54D14*
X444Y861D02*
X444Y861D01*
X423Y860D02*
X477Y860D01*
X412Y859D02*
X488Y859D01*
X403Y858D02*
X497Y858D01*
X396Y857D02*
X505Y857D01*
X389Y856D02*
X511Y856D01*
X383Y855D02*
X517Y855D01*
X378Y854D02*
X523Y854D01*
X373Y853D02*
X528Y853D01*
X368Y852D02*
X532Y852D01*
X364Y851D02*
X537Y851D01*
X360Y850D02*
X541Y850D01*
X356Y849D02*
X545Y849D01*
X352Y848D02*
X549Y848D01*
X348Y847D02*
X552Y847D01*
X345Y846D02*
X556Y846D01*
X342Y845D02*
X559Y845D01*
X338Y844D02*
X563Y844D01*
X335Y843D02*
X441Y843D01*
X458Y843D02*
X566Y843D01*
X332Y842D02*
X421Y842D01*
X479Y842D02*
X569Y842D01*
X329Y841D02*
X411Y841D01*
X490Y841D02*
X572Y841D01*
X326Y840D02*
X402Y840D01*
X498Y840D02*
X575Y840D01*
X323Y839D02*
X396Y839D01*
X506Y839D02*
X578Y839D01*
X320Y838D02*
X389Y838D01*
X511Y838D02*
X581Y838D01*
X318Y837D02*
X383Y837D01*
X517Y837D02*
X583Y837D01*
X315Y836D02*
X378Y836D01*
X523Y836D02*
X586Y836D01*
X312Y835D02*
X374Y835D01*
X527Y835D02*
X588Y835D01*
X310Y834D02*
X369Y834D01*
X532Y834D02*
X591Y834D01*
X307Y833D02*
X365Y833D01*
X536Y833D02*
X593Y833D01*
X305Y832D02*
X361Y832D01*
X540Y832D02*
X596Y832D01*
X303Y831D02*
X357Y831D01*
X544Y831D02*
X599Y831D01*
X300Y830D02*
X353Y830D01*
X548Y830D02*
X601Y830D01*
X298Y829D02*
X350Y829D01*
X551Y829D02*
X603Y829D01*
X296Y828D02*
X346Y828D01*
X555Y828D02*
X605Y828D01*
X293Y827D02*
X343Y827D01*
X558Y827D02*
X608Y827D01*
X291Y826D02*
X340Y826D01*
X561Y826D02*
X610Y826D01*
X289Y825D02*
X337Y825D01*
X564Y825D02*
X612Y825D01*
X287Y824D02*
X333Y824D01*
X567Y824D02*
X614Y824D01*
X285Y823D02*
X330Y823D01*
X570Y823D02*
X616Y823D01*
X283Y822D02*
X328Y822D01*
X573Y822D02*
X618Y822D01*
X281Y821D02*
X325Y821D01*
X430Y821D02*
X470Y821D01*
X576Y821D02*
X620Y821D01*
X279Y820D02*
X322Y820D01*
X418Y820D02*
X483Y820D01*
X579Y820D02*
X622Y820D01*
X277Y819D02*
X320Y819D01*
X408Y819D02*
X492Y819D01*
X581Y819D02*
X624Y819D01*
X275Y818D02*
X317Y818D01*
X401Y818D02*
X500Y818D01*
X584Y818D02*
X626Y818D01*
X273Y817D02*
X314Y817D01*
X395Y817D02*
X506Y817D01*
X586Y817D02*
X628Y817D01*
X271Y816D02*
X312Y816D01*
X389Y816D02*
X512Y816D01*
X589Y816D02*
X630Y816D01*
X269Y815D02*
X310Y815D01*
X384Y815D02*
X517Y815D01*
X591Y815D02*
X632Y815D01*
X267Y814D02*
X307Y814D01*
X379Y814D02*
X522Y814D01*
X594Y814D02*
X634Y814D01*
X266Y813D02*
X305Y813D01*
X374Y813D02*
X526Y813D01*
X596Y813D02*
X636Y813D01*
X264Y812D02*
X303Y812D01*
X370Y812D02*
X531Y812D01*
X598Y812D02*
X638Y812D01*
X262Y811D02*
X300Y811D01*
X366Y811D02*
X535Y811D01*
X601Y811D02*
X639Y811D01*
X260Y810D02*
X298Y810D01*
X362Y810D02*
X538Y810D01*
X603Y810D02*
X641Y810D01*
X259Y809D02*
X296Y809D01*
X359Y809D02*
X542Y809D01*
X605Y809D02*
X643Y809D01*
X257Y808D02*
X294Y808D01*
X355Y808D02*
X546Y808D01*
X607Y808D02*
X644Y808D01*
X255Y807D02*
X292Y807D01*
X352Y807D02*
X549Y807D01*
X609Y807D02*
X646Y807D01*
X253Y806D02*
X290Y806D01*
X349Y806D02*
X552Y806D01*
X611Y806D02*
X648Y806D01*
X252Y805D02*
X288Y805D01*
X345Y805D02*
X555Y805D01*
X613Y805D02*
X649Y805D01*
X250Y804D02*
X286Y804D01*
X342Y804D02*
X558Y804D01*
X615Y804D02*
X651Y804D01*
X249Y803D02*
X284Y803D01*
X339Y803D02*
X427Y803D01*
X473Y803D02*
X561Y803D01*
X617Y803D02*
X653Y803D01*
X247Y802D02*
X282Y802D01*
X336Y802D02*
X416Y802D01*
X484Y802D02*
X564Y802D01*
X619Y802D02*
X654Y802D01*
X246Y801D02*
X280Y801D01*
X334Y801D02*
X407Y801D01*
X493Y801D02*
X567Y801D01*
X621Y801D02*
X656Y801D01*
X244Y800D02*
X278Y800D01*
X331Y800D02*
X401Y800D01*
X500Y800D02*
X570Y800D01*
X623Y800D02*
X657Y800D01*
X242Y799D02*
X276Y799D01*
X328Y799D02*
X394Y799D01*
X506Y799D02*
X572Y799D01*
X625Y799D02*
X659Y799D01*
X241Y798D02*
X274Y798D01*
X326Y798D02*
X389Y798D01*
X512Y798D02*
X575Y798D01*
X627Y798D02*
X660Y798D01*
X239Y797D02*
X273Y797D01*
X323Y797D02*
X384Y797D01*
X517Y797D02*
X578Y797D01*
X629Y797D02*
X662Y797D01*
X238Y796D02*
X271Y796D01*
X321Y796D02*
X379Y796D01*
X521Y796D02*
X580Y796D01*
X630Y796D02*
X663Y796D01*
X236Y795D02*
X269Y795D01*
X318Y795D02*
X375Y795D01*
X526Y795D02*
X583Y795D01*
X632Y795D02*
X665Y795D01*
X235Y794D02*
X267Y794D01*
X316Y794D02*
X371Y794D01*
X530Y794D02*
X585Y794D01*
X634Y794D02*
X666Y794D01*
X234Y793D02*
X266Y793D01*
X314Y793D02*
X367Y793D01*
X534Y793D02*
X587Y793D01*
X636Y793D02*
X668Y793D01*
X232Y792D02*
X264Y792D01*
X312Y792D02*
X363Y792D01*
X537Y792D02*
X589Y792D01*
X637Y792D02*
X669Y792D01*
X231Y791D02*
X262Y791D01*
X309Y791D02*
X360Y791D01*
X541Y791D02*
X592Y791D01*
X639Y791D02*
X671Y791D01*
X229Y790D02*
X261Y790D01*
X307Y790D02*
X356Y790D01*
X545Y790D02*
X594Y790D01*
X641Y790D02*
X672Y790D01*
X228Y789D02*
X259Y789D01*
X305Y789D02*
X353Y789D01*
X548Y789D02*
X596Y789D01*
X642Y789D02*
X674Y789D01*
X227Y788D02*
X257Y788D01*
X303Y788D02*
X350Y788D01*
X551Y788D02*
X598Y788D01*
X644Y788D02*
X675Y788D01*
X225Y787D02*
X256Y787D01*
X301Y787D02*
X347Y787D01*
X554Y787D02*
X600Y787D01*
X645Y787D02*
X676Y787D01*
X224Y786D02*
X254Y786D01*
X299Y786D02*
X344Y786D01*
X557Y786D02*
X602Y786D01*
X647Y786D02*
X678Y786D01*
X222Y785D02*
X253Y785D01*
X297Y785D02*
X341Y785D01*
X560Y785D02*
X604Y785D01*
X649Y785D02*
X679Y785D01*
X221Y784D02*
X251Y784D01*
X295Y784D02*
X338Y784D01*
X563Y784D02*
X606Y784D01*
X650Y784D02*
X680Y784D01*
X220Y783D02*
X250Y783D01*
X293Y783D02*
X336Y783D01*
X565Y783D02*
X608Y783D01*
X652Y783D02*
X682Y783D01*
X218Y782D02*
X248Y782D01*
X291Y782D02*
X333Y782D01*
X438Y782D02*
X463Y782D01*
X568Y782D02*
X610Y782D01*
X653Y782D02*
X683Y782D01*
X217Y781D02*
X247Y781D01*
X289Y781D02*
X330Y781D01*
X423Y781D02*
X478Y781D01*
X570Y781D02*
X612Y781D01*
X655Y781D02*
X684Y781D01*
X216Y780D02*
X245Y780D01*
X287Y780D02*
X328Y780D01*
X413Y780D02*
X487Y780D01*
X573Y780D02*
X614Y780D01*
X656Y780D02*
X686Y780D01*
X215Y779D02*
X244Y779D01*
X285Y779D02*
X325Y779D01*
X406Y779D02*
X494Y779D01*
X575Y779D02*
X616Y779D01*
X658Y779D02*
X687Y779D01*
X213Y778D02*
X242Y778D01*
X284Y778D02*
X323Y778D01*
X400Y778D02*
X500Y778D01*
X578Y778D02*
X618Y778D01*
X659Y778D02*
X688Y778D01*
X212Y777D02*
X241Y777D01*
X282Y777D02*
X321Y777D01*
X394Y777D02*
X507Y777D01*
X580Y777D02*
X619Y777D01*
X661Y777D02*
X690Y777D01*
X211Y776D02*
X239Y776D01*
X280Y776D02*
X319Y776D01*
X390Y776D02*
X511Y776D01*
X582Y776D02*
X621Y776D01*
X662Y776D02*
X691Y776D01*
X210Y775D02*
X238Y775D01*
X278Y775D02*
X316Y775D01*
X385Y775D02*
X516Y775D01*
X585Y775D02*
X623Y775D01*
X664Y775D02*
X692Y775D01*
X208Y774D02*
X237Y774D01*
X277Y774D02*
X314Y774D01*
X380Y774D02*
X521Y774D01*
X587Y774D02*
X624Y774D01*
X665Y774D02*
X693Y774D01*
X207Y773D02*
X235Y773D01*
X275Y773D02*
X312Y773D01*
X376Y773D02*
X525Y773D01*
X589Y773D02*
X626Y773D01*
X666Y773D02*
X694Y773D01*
X206Y772D02*
X234Y772D01*
X273Y772D02*
X310Y772D01*
X373Y772D02*
X528Y772D01*
X591Y772D02*
X628Y772D01*
X668Y772D02*
X696Y772D01*
X205Y771D02*
X232Y771D01*
X272Y771D02*
X308Y771D01*
X369Y771D02*
X532Y771D01*
X593Y771D02*
X630Y771D01*
X669Y771D02*
X697Y771D01*
X204Y770D02*
X231Y770D01*
X270Y770D02*
X306Y770D01*
X365Y770D02*
X536Y770D01*
X595Y770D02*
X631Y770D01*
X670Y770D02*
X698Y770D01*
X203Y769D02*
X230Y769D01*
X269Y769D02*
X304Y769D01*
X362Y769D02*
X539Y769D01*
X597Y769D02*
X633Y769D01*
X672Y769D02*
X699Y769D01*
X201Y768D02*
X229Y768D01*
X267Y768D02*
X302Y768D01*
X359Y768D02*
X542Y768D01*
X599Y768D02*
X634Y768D01*
X673Y768D02*
X700Y768D01*
X200Y767D02*
X227Y767D01*
X265Y767D02*
X300Y767D01*
X356Y767D02*
X545Y767D01*
X601Y767D02*
X636Y767D01*
X674Y767D02*
X702Y767D01*
X199Y766D02*
X226Y766D01*
X264Y766D02*
X298Y766D01*
X353Y766D02*
X548Y766D01*
X603Y766D02*
X637Y766D01*
X676Y766D02*
X703Y766D01*
X198Y765D02*
X225Y765D01*
X262Y765D02*
X296Y765D01*
X350Y765D02*
X551Y765D01*
X605Y765D02*
X639Y765D01*
X677Y765D02*
X704Y765D01*
X197Y764D02*
X224Y764D01*
X261Y764D02*
X294Y764D01*
X347Y764D02*
X435Y764D01*
X466Y764D02*
X554Y764D01*
X607Y764D02*
X641Y764D01*
X678Y764D02*
X705Y764D01*
X196Y763D02*
X222Y763D01*
X259Y763D02*
X292Y763D01*
X344Y763D02*
X422Y763D01*
X479Y763D02*
X556Y763D01*
X609Y763D02*
X642Y763D01*
X679Y763D02*
X706Y763D01*
X195Y762D02*
X221Y762D01*
X258Y762D02*
X291Y762D01*
X342Y762D02*
X412Y762D01*
X488Y762D02*
X559Y762D01*
X611Y762D02*
X644Y762D01*
X681Y762D02*
X707Y762D01*
X194Y761D02*
X220Y761D01*
X256Y761D02*
X289Y761D01*
X339Y761D02*
X406Y761D01*
X495Y761D02*
X562Y761D01*
X612Y761D02*
X645Y761D01*
X682Y761D02*
X708Y761D01*
X192Y760D02*
X219Y760D01*
X255Y760D02*
X287Y760D01*
X337Y760D02*
X400Y760D01*
X501Y760D02*
X564Y760D01*
X614Y760D02*
X647Y760D01*
X683Y760D02*
X709Y760D01*
X191Y759D02*
X217Y759D01*
X254Y759D02*
X285Y759D01*
X334Y759D02*
X394Y759D01*
X506Y759D02*
X567Y759D01*
X616Y759D02*
X648Y759D01*
X684Y759D02*
X710Y759D01*
X190Y758D02*
X216Y758D01*
X252Y758D02*
X284Y758D01*
X332Y758D02*
X390Y758D01*
X511Y758D02*
X569Y758D01*
X617Y758D02*
X649Y758D01*
X685Y758D02*
X712Y758D01*
X189Y757D02*
X215Y757D01*
X251Y757D02*
X282Y757D01*
X330Y757D02*
X385Y757D01*
X516Y757D02*
X571Y757D01*
X619Y757D02*
X651Y757D01*
X687Y757D02*
X713Y757D01*
X188Y756D02*
X214Y756D01*
X249Y756D02*
X280Y756D01*
X327Y756D02*
X381Y756D01*
X520Y756D02*
X574Y756D01*
X621Y756D02*
X652Y756D01*
X688Y756D02*
X714Y756D01*
X187Y755D02*
X213Y755D01*
X248Y755D02*
X279Y755D01*
X325Y755D02*
X377Y755D01*
X524Y755D02*
X576Y755D01*
X623Y755D02*
X653Y755D01*
X689Y755D02*
X715Y755D01*
X186Y754D02*
X212Y754D01*
X247Y754D02*
X277Y754D01*
X323Y754D02*
X373Y754D01*
X527Y754D02*
X578Y754D01*
X624Y754D02*
X655Y754D01*
X690Y754D02*
X716Y754D01*
X185Y753D02*
X210Y753D01*
X245Y753D02*
X276Y753D01*
X321Y753D02*
X370Y753D01*
X531Y753D02*
X580Y753D01*
X626Y753D02*
X656Y753D01*
X691Y753D02*
X717Y753D01*
X184Y752D02*
X209Y752D01*
X244Y752D02*
X274Y752D01*
X319Y752D02*
X367Y752D01*
X534Y752D02*
X582Y752D01*
X627Y752D02*
X658Y752D01*
X693Y752D02*
X718Y752D01*
X183Y751D02*
X208Y751D01*
X243Y751D02*
X273Y751D01*
X317Y751D02*
X363Y751D01*
X537Y751D02*
X584Y751D01*
X629Y751D02*
X659Y751D01*
X694Y751D02*
X719Y751D01*
X182Y750D02*
X207Y750D01*
X241Y750D02*
X271Y750D01*
X315Y750D02*
X360Y750D01*
X541Y750D02*
X586Y750D01*
X630Y750D02*
X660Y750D01*
X695Y750D02*
X720Y750D01*
X181Y749D02*
X206Y749D01*
X240Y749D02*
X269Y749D01*
X313Y749D02*
X357Y749D01*
X544Y749D02*
X588Y749D01*
X632Y749D02*
X662Y749D01*
X696Y749D02*
X721Y749D01*
X180Y748D02*
X205Y748D01*
X239Y748D02*
X268Y748D01*
X311Y748D02*
X354Y748D01*
X547Y748D02*
X590Y748D01*
X633Y748D02*
X663Y748D01*
X697Y748D02*
X722Y748D01*
X179Y747D02*
X204Y747D01*
X238Y747D02*
X267Y747D01*
X309Y747D02*
X352Y747D01*
X549Y747D02*
X592Y747D01*
X635Y747D02*
X664Y747D01*
X698Y747D02*
X723Y747D01*
X178Y746D02*
X203Y746D01*
X236Y746D02*
X265Y746D01*
X307Y746D02*
X349Y746D01*
X552Y746D02*
X594Y746D01*
X636Y746D02*
X665Y746D01*
X699Y746D02*
X724Y746D01*
X177Y745D02*
X201Y745D01*
X235Y745D02*
X264Y745D01*
X305Y745D02*
X346Y745D01*
X554Y745D02*
X596Y745D01*
X638Y745D02*
X667Y745D01*
X700Y745D02*
X725Y745D01*
X176Y744D02*
X200Y744D01*
X234Y744D02*
X262Y744D01*
X303Y744D02*
X344Y744D01*
X557Y744D02*
X598Y744D01*
X639Y744D02*
X668Y744D01*
X701Y744D02*
X726Y744D01*
X175Y743D02*
X199Y743D01*
X233Y743D02*
X261Y743D01*
X302Y743D02*
X341Y743D01*
X560Y743D02*
X600Y743D01*
X641Y743D02*
X669Y743D01*
X702Y743D02*
X727Y743D01*
X174Y742D02*
X198Y742D01*
X231Y742D02*
X260Y742D01*
X300Y742D02*
X339Y742D01*
X429Y742D02*
X473Y742D01*
X562Y742D02*
X601Y742D01*
X642Y742D02*
X670Y742D01*
X704Y742D02*
X728Y742D01*
X173Y741D02*
X197Y741D01*
X230Y741D02*
X258Y741D01*
X298Y741D02*
X337Y741D01*
X419Y741D02*
X482Y741D01*
X564Y741D02*
X603Y741D01*
X643Y741D02*
X671Y741D01*
X705Y741D02*
X729Y741D01*
X172Y740D02*
X196Y740D01*
X229Y740D02*
X257Y740D01*
X296Y740D02*
X334Y740D01*
X412Y740D02*
X489Y740D01*
X567Y740D02*
X605Y740D01*
X645Y740D02*
X673Y740D01*
X706Y740D02*
X730Y740D01*
X172Y739D02*
X195Y739D01*
X228Y739D02*
X255Y739D01*
X295Y739D02*
X332Y739D01*
X405Y739D02*
X495Y739D01*
X569Y739D02*
X606Y739D01*
X646Y739D02*
X674Y739D01*
X707Y739D02*
X731Y739D01*
X171Y738D02*
X194Y738D01*
X227Y738D02*
X254Y738D01*
X293Y738D02*
X330Y738D01*
X400Y738D02*
X501Y738D01*
X571Y738D02*
X608Y738D01*
X647Y738D02*
X675Y738D01*
X708Y738D02*
X732Y738D01*
X170Y737D02*
X193Y737D01*
X226Y737D02*
X253Y737D01*
X291Y737D02*
X328Y737D01*
X395Y737D02*
X506Y737D01*
X573Y737D02*
X610Y737D01*
X649Y737D02*
X676Y737D01*
X709Y737D02*
X733Y737D01*
X169Y736D02*
X192Y736D01*
X225Y736D02*
X252Y736D01*
X290Y736D02*
X326Y736D01*
X390Y736D02*
X510Y736D01*
X575Y736D02*
X611Y736D01*
X650Y736D02*
X677Y736D01*
X710Y736D02*
X734Y736D01*
X168Y735D02*
X191Y735D01*
X223Y735D02*
X250Y735D01*
X288Y735D02*
X324Y735D01*
X386Y735D02*
X514Y735D01*
X577Y735D02*
X613Y735D01*
X651Y735D02*
X678Y735D01*
X711Y735D02*
X734Y735D01*
X167Y734D02*
X190Y734D01*
X222Y734D02*
X249Y734D01*
X287Y734D02*
X322Y734D01*
X383Y734D02*
X518Y734D01*
X579Y734D02*
X615Y734D01*
X653Y734D02*
X680Y734D01*
X712Y734D02*
X735Y734D01*
X166Y733D02*
X189Y733D01*
X221Y733D02*
X248Y733D01*
X285Y733D02*
X320Y733D01*
X379Y733D02*
X522Y733D01*
X581Y733D02*
X616Y733D01*
X654Y733D02*
X681Y733D01*
X713Y733D02*
X736Y733D01*
X165Y732D02*
X188Y732D01*
X220Y732D02*
X247Y732D01*
X284Y732D02*
X318Y732D01*
X375Y732D02*
X525Y732D01*
X583Y732D02*
X618Y732D01*
X655Y732D02*
X682Y732D01*
X714Y732D02*
X737Y732D01*
X164Y731D02*
X187Y731D01*
X219Y731D02*
X245Y731D01*
X282Y731D02*
X316Y731D01*
X372Y731D02*
X529Y731D01*
X585Y731D02*
X619Y731D01*
X656Y731D02*
X683Y731D01*
X715Y731D02*
X738Y731D01*
X163Y730D02*
X187Y730D01*
X218Y730D02*
X244Y730D01*
X281Y730D02*
X314Y730D01*
X369Y730D02*
X532Y730D01*
X587Y730D02*
X621Y730D01*
X658Y730D02*
X684Y730D01*
X716Y730D02*
X739Y730D01*
X163Y729D02*
X186Y729D01*
X217Y729D02*
X243Y729D01*
X279Y729D02*
X312Y729D01*
X366Y729D02*
X535Y729D01*
X589Y729D02*
X622Y729D01*
X659Y729D02*
X685Y729D01*
X717Y729D02*
X740Y729D01*
X162Y728D02*
X185Y728D01*
X216Y728D02*
X242Y728D01*
X278Y728D02*
X310Y728D01*
X363Y728D02*
X538Y728D01*
X591Y728D02*
X624Y728D01*
X660Y728D02*
X686Y728D01*
X718Y728D02*
X741Y728D01*
X161Y727D02*
X184Y727D01*
X215Y727D02*
X240Y727D01*
X276Y727D02*
X309Y727D01*
X360Y727D02*
X541Y727D01*
X593Y727D02*
X625Y727D01*
X661Y727D02*
X687Y727D01*
X719Y727D02*
X741Y727D01*
X160Y726D02*
X183Y726D01*
X214Y726D02*
X239Y726D01*
X275Y726D02*
X307Y726D01*
X358Y726D02*
X543Y726D01*
X594Y726D02*
X626Y726D01*
X662Y726D02*
X688Y726D01*
X719Y726D02*
X742Y726D01*
X159Y725D02*
X182Y725D01*
X213Y725D02*
X238Y725D01*
X274Y725D02*
X305Y725D01*
X355Y725D02*
X444Y725D01*
X457Y725D02*
X546Y725D01*
X596Y725D02*
X628Y725D01*
X664Y725D02*
X689Y725D01*
X720Y725D02*
X743Y725D01*
X158Y724D02*
X181Y724D01*
X212Y724D02*
X237Y724D01*
X272Y724D02*
X303Y724D01*
X353Y724D02*
X427Y724D01*
X474Y724D02*
X548Y724D01*
X598Y724D02*
X629Y724D01*
X665Y724D02*
X690Y724D01*
X721Y724D02*
X744Y724D01*
X158Y723D02*
X180Y723D01*
X211Y723D02*
X236Y723D01*
X271Y723D02*
X302Y723D01*
X350Y723D02*
X418Y723D01*
X483Y723D02*
X551Y723D01*
X599Y723D02*
X631Y723D01*
X666Y723D02*
X691Y723D01*
X722Y723D02*
X745Y723D01*
X157Y722D02*
X179Y722D01*
X210Y722D02*
X235Y722D01*
X270Y722D02*
X300Y722D01*
X348Y722D02*
X411Y722D01*
X490Y722D02*
X553Y722D01*
X601Y722D02*
X632Y722D01*
X667Y722D02*
X692Y722D01*
X723Y722D02*
X746Y722D01*
X156Y721D02*
X178Y721D01*
X209Y721D02*
X234Y721D01*
X268Y721D02*
X299Y721D01*
X346Y721D02*
X406Y721D01*
X496Y721D02*
X555Y721D01*
X603Y721D02*
X633Y721D01*
X668Y721D02*
X693Y721D01*
X724Y721D02*
X747Y721D01*
X155Y720D02*
X177Y720D01*
X208Y720D02*
X232Y720D01*
X267Y720D02*
X297Y720D01*
X343Y720D02*
X400Y720D01*
X501Y720D02*
X558Y720D01*
X604Y720D02*
X635Y720D01*
X669Y720D02*
X694Y720D01*
X725Y720D02*
X747Y720D01*
X154Y719D02*
X177Y719D01*
X207Y719D02*
X231Y719D01*
X266Y719D02*
X296Y719D01*
X341Y719D02*
X396Y719D01*
X505Y719D02*
X560Y719D01*
X606Y719D02*
X636Y719D01*
X670Y719D02*
X695Y719D01*
X726Y719D02*
X748Y719D01*
X153Y718D02*
X176Y718D01*
X206Y718D02*
X230Y718D01*
X264Y718D02*
X294Y718D01*
X339Y718D02*
X391Y718D01*
X510Y718D02*
X562Y718D01*
X607Y718D02*
X637Y718D01*
X672Y718D02*
X696Y718D01*
X727Y718D02*
X749Y718D01*
X153Y717D02*
X175Y717D01*
X205Y717D02*
X229Y717D01*
X263Y717D02*
X292Y717D01*
X337Y717D02*
X387Y717D01*
X514Y717D02*
X564Y717D01*
X609Y717D02*
X639Y717D01*
X673Y717D02*
X697Y717D01*
X727Y717D02*
X750Y717D01*
X152Y716D02*
X174Y716D01*
X204Y716D02*
X228Y716D01*
X262Y716D02*
X291Y716D01*
X335Y716D02*
X384Y716D01*
X517Y716D02*
X566Y716D01*
X610Y716D02*
X640Y716D01*
X674Y716D02*
X698Y716D01*
X728Y716D02*
X751Y716D01*
X151Y715D02*
X173Y715D01*
X203Y715D02*
X227Y715D01*
X261Y715D02*
X289Y715D01*
X333Y715D02*
X380Y715D01*
X521Y715D02*
X568Y715D01*
X612Y715D02*
X641Y715D01*
X675Y715D02*
X699Y715D01*
X729Y715D02*
X751Y715D01*
X150Y714D02*
X172Y714D01*
X202Y714D02*
X226Y714D01*
X259Y714D02*
X288Y714D01*
X331Y714D02*
X377Y714D01*
X524Y714D02*
X570Y714D01*
X613Y714D02*
X642Y714D01*
X676Y714D02*
X700Y714D01*
X730Y714D02*
X752Y714D01*
X150Y713D02*
X171Y713D01*
X201Y713D02*
X225Y713D01*
X258Y713D02*
X287Y713D01*
X329Y713D02*
X374Y713D01*
X527Y713D02*
X572Y713D01*
X615Y713D02*
X643Y713D01*
X677Y713D02*
X701Y713D01*
X731Y713D02*
X753Y713D01*
X149Y712D02*
X171Y712D01*
X200Y712D02*
X224Y712D01*
X257Y712D02*
X285Y712D01*
X327Y712D02*
X371Y712D01*
X530Y712D02*
X574Y712D01*
X616Y712D02*
X645Y712D01*
X678Y712D02*
X702Y712D01*
X732Y712D02*
X754Y712D01*
X148Y711D02*
X170Y711D01*
X199Y711D02*
X223Y711D01*
X256Y711D02*
X284Y711D01*
X325Y711D02*
X368Y711D01*
X533Y711D02*
X576Y711D01*
X618Y711D02*
X646Y711D01*
X679Y711D02*
X703Y711D01*
X733Y711D02*
X755Y711D01*
X147Y710D02*
X169Y710D01*
X198Y710D02*
X222Y710D01*
X255Y710D02*
X282Y710D01*
X323Y710D02*
X365Y710D01*
X536Y710D02*
X578Y710D01*
X619Y710D02*
X647Y710D01*
X680Y710D02*
X704Y710D01*
X734Y710D02*
X755Y710D01*
X147Y709D02*
X168Y709D01*
X197Y709D02*
X221Y709D01*
X253Y709D02*
X281Y709D01*
X321Y709D02*
X362Y709D01*
X539Y709D02*
X580Y709D01*
X620Y709D02*
X648Y709D01*
X681Y709D02*
X705Y709D01*
X734Y709D02*
X756Y709D01*
X146Y708D02*
X167Y708D01*
X196Y708D02*
X220Y708D01*
X252Y708D02*
X280Y708D01*
X320Y708D02*
X360Y708D01*
X541Y708D02*
X582Y708D01*
X622Y708D02*
X650Y708D01*
X682Y708D02*
X706Y708D01*
X735Y708D02*
X757Y708D01*
X145Y707D02*
X167Y707D01*
X196Y707D02*
X219Y707D01*
X251Y707D02*
X278Y707D01*
X318Y707D02*
X357Y707D01*
X544Y707D02*
X583Y707D01*
X623Y707D02*
X651Y707D01*
X683Y707D02*
X707Y707D01*
X736Y707D02*
X758Y707D01*
X144Y706D02*
X166Y706D01*
X195Y706D02*
X218Y706D01*
X250Y706D02*
X277Y706D01*
X316Y706D02*
X355Y706D01*
X546Y706D02*
X585Y706D01*
X625Y706D02*
X652Y706D01*
X684Y706D02*
X708Y706D01*
X737Y706D02*
X758Y706D01*
X144Y705D02*
X165Y705D01*
X194Y705D02*
X217Y705D01*
X249Y705D02*
X276Y705D01*
X315Y705D02*
X353Y705D01*
X549Y705D02*
X587Y705D01*
X626Y705D02*
X653Y705D01*
X685Y705D02*
X708Y705D01*
X737Y705D02*
X759Y705D01*
X143Y704D02*
X164Y704D01*
X193Y704D02*
X216Y704D01*
X248Y704D02*
X274Y704D01*
X313Y704D02*
X350Y704D01*
X551Y704D02*
X588Y704D01*
X627Y704D02*
X654Y704D01*
X686Y704D02*
X709Y704D01*
X738Y704D02*
X760Y704D01*
X142Y703D02*
X163Y703D01*
X192Y703D02*
X215Y703D01*
X247Y703D02*
X273Y703D01*
X311Y703D02*
X348Y703D01*
X434Y703D02*
X467Y703D01*
X553Y703D02*
X590Y703D01*
X629Y703D02*
X655Y703D01*
X687Y703D02*
X710Y703D01*
X739Y703D02*
X761Y703D01*
X141Y702D02*
X163Y702D01*
X191Y702D02*
X214Y702D01*
X246Y702D02*
X272Y702D01*
X310Y702D02*
X346Y702D01*
X424Y702D02*
X477Y702D01*
X555Y702D02*
X592Y702D01*
X630Y702D02*
X656Y702D01*
X688Y702D02*
X711Y702D01*
X740Y702D02*
X761Y702D01*
X141Y701D02*
X162Y701D01*
X190Y701D02*
X213Y701D01*
X244Y701D02*
X271Y701D01*
X308Y701D02*
X344Y701D01*
X417Y701D02*
X484Y701D01*
X557Y701D02*
X593Y701D01*
X631Y701D02*
X657Y701D01*
X689Y701D02*
X712Y701D01*
X741Y701D02*
X762Y701D01*
X140Y700D02*
X161Y700D01*
X190Y700D02*
X212Y700D01*
X243Y700D02*
X270Y700D01*
X307Y700D02*
X342Y700D01*
X410Y700D02*
X490Y700D01*
X559Y700D02*
X595Y700D01*
X632Y700D02*
X658Y700D01*
X690Y700D02*
X713Y700D01*
X741Y700D02*
X763Y700D01*
X139Y699D02*
X160Y699D01*
X189Y699D02*
X211Y699D01*
X242Y699D02*
X268Y699D01*
X305Y699D02*
X340Y699D01*
X406Y699D02*
X495Y699D01*
X561Y699D02*
X596Y699D01*
X633Y699D02*
X660Y699D01*
X691Y699D02*
X714Y699D01*
X742Y699D02*
X763Y699D01*
X139Y698D02*
X160Y698D01*
X188Y698D02*
X211Y698D01*
X241Y698D02*
X267Y698D01*
X304Y698D02*
X338Y698D01*
X401Y698D02*
X500Y698D01*
X563Y698D02*
X598Y698D01*
X635Y698D02*
X661Y698D01*
X692Y698D02*
X715Y698D01*
X743Y698D02*
X764Y698D01*
X138Y697D02*
X159Y697D01*
X187Y697D02*
X210Y697D01*
X240Y697D02*
X266Y697D01*
X302Y697D02*
X336Y697D01*
X397Y697D02*
X504Y697D01*
X565Y697D02*
X599Y697D01*
X636Y697D02*
X662Y697D01*
X693Y697D02*
X715Y697D01*
X744Y697D02*
X765Y697D01*
X137Y696D02*
X158Y696D01*
X186Y696D02*
X209Y696D01*
X239Y696D02*
X265Y696D01*
X301Y696D02*
X334Y696D01*
X393Y696D02*
X508Y696D01*
X567Y696D02*
X601Y696D01*
X637Y696D02*
X663Y696D01*
X694Y696D02*
X716Y696D01*
X744Y696D02*
X766Y696D01*
X137Y695D02*
X157Y695D01*
X185Y695D02*
X208Y695D01*
X238Y695D02*
X264Y695D01*
X299Y695D02*
X332Y695D01*
X389Y695D02*
X512Y695D01*
X569Y695D02*
X602Y695D01*
X638Y695D02*
X664Y695D01*
X694Y695D02*
X717Y695D01*
X745Y695D02*
X766Y695D01*
X136Y694D02*
X157Y694D01*
X185Y694D02*
X207Y694D01*
X237Y694D02*
X262Y694D01*
X298Y694D02*
X330Y694D01*
X386Y694D02*
X515Y694D01*
X571Y694D02*
X604Y694D01*
X639Y694D02*
X665Y694D01*
X695Y694D02*
X718Y694D01*
X746Y694D02*
X767Y694D01*
X135Y693D02*
X156Y693D01*
X184Y693D02*
X206Y693D01*
X236Y693D02*
X261Y693D01*
X297Y693D02*
X328Y693D01*
X383Y693D02*
X518Y693D01*
X573Y693D02*
X605Y693D01*
X641Y693D02*
X666Y693D01*
X696Y693D02*
X719Y693D01*
X747Y693D02*
X768Y693D01*
X135Y692D02*
X155Y692D01*
X183Y692D02*
X205Y692D01*
X235Y692D02*
X260Y692D01*
X295Y692D02*
X327Y692D01*
X380Y692D02*
X521Y692D01*
X575Y692D02*
X606Y692D01*
X642Y692D02*
X667Y692D01*
X697Y692D02*
X719Y692D01*
X747Y692D02*
X768Y692D01*
X134Y691D02*
X155Y691D01*
X182Y691D02*
X204Y691D01*
X234Y691D02*
X259Y691D01*
X294Y691D02*
X325Y691D01*
X377Y691D02*
X524Y691D01*
X576Y691D02*
X608Y691D01*
X643Y691D02*
X668Y691D01*
X698Y691D02*
X720Y691D01*
X748Y691D02*
X769Y691D01*
X133Y690D02*
X154Y690D01*
X181Y690D02*
X203Y690D01*
X233Y690D02*
X258Y690D01*
X292Y690D02*
X323Y690D01*
X374Y690D02*
X527Y690D01*
X578Y690D02*
X609Y690D01*
X644Y690D02*
X669Y690D01*
X699Y690D02*
X721Y690D01*
X749Y690D02*
X770Y690D01*
X133Y689D02*
X153Y689D01*
X181Y689D02*
X203Y689D01*
X232Y689D02*
X257Y689D01*
X291Y689D02*
X322Y689D01*
X371Y689D02*
X530Y689D01*
X580Y689D02*
X610Y689D01*
X645Y689D02*
X670Y689D01*
X700Y689D02*
X722Y689D01*
X750Y689D02*
X770Y689D01*
X132Y688D02*
X152Y688D01*
X180Y688D02*
X202Y688D01*
X231Y688D02*
X256Y688D01*
X290Y688D02*
X320Y688D01*
X369Y688D02*
X532Y688D01*
X581Y688D02*
X612Y688D01*
X646Y688D02*
X671Y688D01*
X701Y688D02*
X723Y688D01*
X750Y688D02*
X771Y688D01*
X131Y687D02*
X152Y687D01*
X179Y687D02*
X201Y687D01*
X231Y687D02*
X255Y687D01*
X289Y687D02*
X318Y687D01*
X366Y687D02*
X535Y687D01*
X583Y687D02*
X613Y687D01*
X647Y687D02*
X672Y687D01*
X701Y687D02*
X723Y687D01*
X751Y687D02*
X772Y687D01*
X131Y686D02*
X151Y686D01*
X178Y686D02*
X200Y686D01*
X230Y686D02*
X254Y686D01*
X287Y686D02*
X317Y686D01*
X364Y686D02*
X537Y686D01*
X584Y686D02*
X614Y686D01*
X648Y686D02*
X673Y686D01*
X702Y686D02*
X724Y686D01*
X752Y686D02*
X772Y686D01*
X130Y685D02*
X150Y685D01*
X178Y685D02*
X199Y685D01*
X229Y685D02*
X253Y685D01*
X286Y685D02*
X315Y685D01*
X361Y685D02*
X433Y685D01*
X469Y685D02*
X540Y685D01*
X586Y685D02*
X616Y685D01*
X649Y685D02*
X674Y685D01*
X703Y685D02*
X725Y685D01*
X752Y685D02*
X773Y685D01*
X129Y684D02*
X150Y684D01*
X177Y684D02*
X199Y684D01*
X228Y684D02*
X252Y684D01*
X285Y684D02*
X314Y684D01*
X359Y684D02*
X423Y684D01*
X477Y684D02*
X542Y684D01*
X587Y684D02*
X617Y684D01*
X650Y684D02*
X674Y684D01*
X704Y684D02*
X726Y684D01*
X753Y684D02*
X774Y684D01*
X129Y683D02*
X149Y683D01*
X176Y683D02*
X198Y683D01*
X227Y683D02*
X251Y683D01*
X284Y683D02*
X312Y683D01*
X357Y683D02*
X416Y683D01*
X484Y683D02*
X544Y683D01*
X589Y683D02*
X618Y683D01*
X651Y683D02*
X675Y683D01*
X705Y683D02*
X727Y683D01*
X754Y683D02*
X774Y683D01*
X128Y682D02*
X148Y682D01*
X176Y682D02*
X197Y682D01*
X226Y682D02*
X250Y682D01*
X282Y682D02*
X311Y682D01*
X355Y682D02*
X411Y682D01*
X490Y682D02*
X546Y682D01*
X591Y682D02*
X619Y682D01*
X652Y682D02*
X676Y682D01*
X706Y682D02*
X727Y682D01*
X755Y682D02*
X775Y682D01*
X127Y681D02*
X148Y681D01*
X175Y681D02*
X196Y681D01*
X225Y681D02*
X249Y681D01*
X281Y681D02*
X309Y681D01*
X353Y681D02*
X406Y681D01*
X495Y681D02*
X548Y681D01*
X592Y681D02*
X621Y681D01*
X653Y681D02*
X677Y681D01*
X706Y681D02*
X728Y681D01*
X755Y681D02*
X776Y681D01*
X127Y680D02*
X147Y680D01*
X174Y680D02*
X195Y680D01*
X224Y680D02*
X248Y680D01*
X280Y680D02*
X308Y680D01*
X351Y680D02*
X401Y680D01*
X499Y680D02*
X550Y680D01*
X593Y680D02*
X622Y680D01*
X654Y680D02*
X678Y680D01*
X707Y680D02*
X729Y680D01*
X756Y680D02*
X776Y680D01*
X126Y679D02*
X146Y679D01*
X173Y679D02*
X194Y679D01*
X223Y679D02*
X247Y679D01*
X279Y679D02*
X307Y679D01*
X349Y679D02*
X397Y679D01*
X503Y679D02*
X552Y679D01*
X595Y679D02*
X623Y679D01*
X655Y679D02*
X679Y679D01*
X708Y679D02*
X729Y679D01*
X757Y679D02*
X777Y679D01*
X126Y678D02*
X146Y678D01*
X173Y678D02*
X194Y678D01*
X222Y678D02*
X246Y678D01*
X278Y678D02*
X305Y678D01*
X347Y678D02*
X394Y678D01*
X507Y678D02*
X554Y678D01*
X596Y678D02*
X624Y678D01*
X656Y678D02*
X680Y678D01*
X709Y678D02*
X730Y678D01*
X757Y678D02*
X777Y678D01*
X125Y677D02*
X145Y677D01*
X172Y677D02*
X193Y677D01*
X222Y677D02*
X245Y677D01*
X277Y677D02*
X304Y677D01*
X345Y677D02*
X390Y677D01*
X511Y677D02*
X556Y677D01*
X598Y677D02*
X625Y677D01*
X657Y677D02*
X681Y677D01*
X709Y677D02*
X731Y677D01*
X758Y677D02*
X778Y677D01*
X125Y676D02*
X144Y676D01*
X171Y676D02*
X192Y676D01*
X221Y676D02*
X244Y676D01*
X276Y676D02*
X303Y676D01*
X343Y676D02*
X387Y676D01*
X514Y676D02*
X558Y676D01*
X599Y676D02*
X626Y676D01*
X658Y676D02*
X682Y676D01*
X710Y676D02*
X732Y676D01*
X759Y676D02*
X779Y676D01*
X124Y675D02*
X144Y675D01*
X170Y675D02*
X192Y675D01*
X220Y675D02*
X243Y675D01*
X274Y675D02*
X301Y675D01*
X341Y675D02*
X384Y675D01*
X517Y675D02*
X560Y675D01*
X600Y675D02*
X627Y675D01*
X659Y675D02*
X682Y675D01*
X711Y675D02*
X732Y675D01*
X759Y675D02*
X779Y675D01*
X123Y674D02*
X143Y674D01*
X170Y674D02*
X191Y674D01*
X219Y674D02*
X242Y674D01*
X273Y674D02*
X300Y674D01*
X339Y674D02*
X381Y674D01*
X520Y674D02*
X562Y674D01*
X602Y674D02*
X629Y674D01*
X660Y674D02*
X683Y674D01*
X712Y674D02*
X733Y674D01*
X760Y674D02*
X780Y674D01*
X123Y673D02*
X142Y673D01*
X169Y673D02*
X190Y673D01*
X218Y673D02*
X241Y673D01*
X272Y673D02*
X299Y673D01*
X338Y673D02*
X378Y673D01*
X523Y673D02*
X563Y673D01*
X603Y673D02*
X630Y673D01*
X661Y673D02*
X684Y673D01*
X713Y673D02*
X734Y673D01*
X760Y673D02*
X781Y673D01*
X122Y672D02*
X142Y672D01*
X169Y672D02*
X189Y672D01*
X217Y672D02*
X240Y672D01*
X271Y672D02*
X297Y672D01*
X336Y672D02*
X376Y672D01*
X525Y672D02*
X565Y672D01*
X604Y672D02*
X631Y672D01*
X662Y672D02*
X685Y672D01*
X713Y672D02*
X734Y672D01*
X761Y672D02*
X781Y672D01*
X122Y671D02*
X141Y671D01*
X168Y671D02*
X189Y671D01*
X217Y671D02*
X239Y671D01*
X270Y671D02*
X296Y671D01*
X334Y671D02*
X373Y671D01*
X528Y671D02*
X567Y671D01*
X605Y671D02*
X632Y671D01*
X663Y671D02*
X686Y671D01*
X714Y671D02*
X735Y671D01*
X762Y671D02*
X782Y671D01*
X121Y670D02*
X141Y670D01*
X167Y670D02*
X188Y670D01*
X216Y670D02*
X238Y670D01*
X269Y670D02*
X295Y670D01*
X333Y670D02*
X371Y670D01*
X530Y670D02*
X569Y670D01*
X607Y670D02*
X633Y670D01*
X664Y670D02*
X687Y670D01*
X715Y670D02*
X736Y670D01*
X762Y670D02*
X782Y670D01*
X120Y669D02*
X140Y669D01*
X167Y669D02*
X187Y669D01*
X215Y669D02*
X237Y669D01*
X268Y669D02*
X294Y669D01*
X331Y669D02*
X368Y669D01*
X533Y669D02*
X570Y669D01*
X608Y669D02*
X634Y669D01*
X665Y669D02*
X687Y669D01*
X716Y669D02*
X737Y669D01*
X763Y669D02*
X783Y669D01*
X120Y668D02*
X140Y668D01*
X166Y668D02*
X186Y668D01*
X214Y668D02*
X236Y668D01*
X267Y668D02*
X292Y668D01*
X330Y668D02*
X366Y668D01*
X535Y668D02*
X572Y668D01*
X609Y668D02*
X635Y668D01*
X666Y668D02*
X688Y668D01*
X716Y668D02*
X737Y668D01*
X764Y668D02*
X783Y668D01*
X119Y667D02*
X139Y667D01*
X165Y667D02*
X186Y667D01*
X213Y667D02*
X236Y667D01*
X266Y667D02*
X291Y667D01*
X328Y667D02*
X364Y667D01*
X537Y667D02*
X573Y667D01*
X610Y667D02*
X636Y667D01*
X667Y667D02*
X689Y667D01*
X717Y667D02*
X738Y667D01*
X764Y667D02*
X784Y667D01*
X119Y666D02*
X138Y666D01*
X165Y666D02*
X185Y666D01*
X213Y666D02*
X235Y666D01*
X265Y666D02*
X290Y666D01*
X327Y666D02*
X362Y666D01*
X539Y666D02*
X575Y666D01*
X612Y666D02*
X637Y666D01*
X668Y666D02*
X690Y666D01*
X718Y666D02*
X738Y666D01*
X765Y666D02*
X785Y666D01*
X118Y665D02*
X138Y665D01*
X164Y665D02*
X184Y665D01*
X212Y665D02*
X234Y665D01*
X264Y665D02*
X289Y665D01*
X325Y665D02*
X360Y665D01*
X541Y665D02*
X576Y665D01*
X613Y665D02*
X638Y665D01*
X668Y665D02*
X691Y665D01*
X718Y665D02*
X739Y665D01*
X766Y665D02*
X785Y665D01*
X118Y664D02*
X137Y664D01*
X163Y664D02*
X184Y664D01*
X211Y664D02*
X233Y664D01*
X263Y664D02*
X288Y664D01*
X324Y664D02*
X358Y664D01*
X441Y664D02*
X460Y664D01*
X543Y664D02*
X578Y664D01*
X614Y664D02*
X639Y664D01*
X669Y664D02*
X691Y664D01*
X719Y664D02*
X740Y664D01*
X766Y664D02*
X786Y664D01*
X117Y663D02*
X137Y663D01*
X163Y663D02*
X183Y663D01*
X210Y663D02*
X232Y663D01*
X262Y663D02*
X287Y663D01*
X322Y663D02*
X356Y663D01*
X429Y663D02*
X472Y663D01*
X545Y663D02*
X579Y663D01*
X615Y663D02*
X640Y663D01*
X670Y663D02*
X692Y663D01*
X720Y663D02*
X740Y663D01*
X767Y663D02*
X786Y663D01*
X117Y662D02*
X136Y662D01*
X162Y662D02*
X182Y662D01*
X210Y662D02*
X231Y662D01*
X261Y662D02*
X286Y662D01*
X321Y662D02*
X354Y662D01*
X422Y662D02*
X479Y662D01*
X547Y662D02*
X581Y662D01*
X616Y662D02*
X641Y662D01*
X671Y662D02*
X693Y662D01*
X721Y662D02*
X741Y662D01*
X767Y662D02*
X787Y662D01*
X116Y661D02*
X135Y661D01*
X161Y661D02*
X182Y661D01*
X209Y661D02*
X231Y661D01*
X260Y661D02*
X285Y661D01*
X319Y661D02*
X352Y661D01*
X416Y661D02*
X485Y661D01*
X549Y661D02*
X582Y661D01*
X617Y661D02*
X642Y661D01*
X672Y661D02*
X694Y661D01*
X721Y661D02*
X742Y661D01*
X768Y661D02*
X787Y661D01*
X116Y660D02*
X135Y660D01*
X161Y660D02*
X181Y660D01*
X208Y660D02*
X230Y660D01*
X259Y660D02*
X283Y660D01*
X318Y660D02*
X350Y660D01*
X411Y660D02*
X490Y660D01*
X551Y660D02*
X583Y660D01*
X618Y660D02*
X643Y660D01*
X673Y660D02*
X695Y660D01*
X722Y660D02*
X742Y660D01*
X768Y660D02*
X788Y660D01*
X115Y659D02*
X134Y659D01*
X160Y659D02*
X180Y659D01*
X207Y659D02*
X229Y659D01*
X258Y659D02*
X282Y659D01*
X317Y659D02*
X348Y659D01*
X407Y659D02*
X494Y659D01*
X553Y659D02*
X585Y659D01*
X619Y659D02*
X644Y659D01*
X674Y659D02*
X695Y659D01*
X723Y659D02*
X743Y659D01*
X769Y659D02*
X789Y659D01*
X114Y658D02*
X134Y658D01*
X160Y658D02*
X180Y658D01*
X207Y658D02*
X228Y658D01*
X257Y658D02*
X281Y658D01*
X315Y658D02*
X347Y658D01*
X403Y658D02*
X498Y658D01*
X555Y658D02*
X586Y658D01*
X621Y658D02*
X645Y658D01*
X674Y658D02*
X696Y658D01*
X723Y658D02*
X744Y658D01*
X770Y658D02*
X789Y658D01*
X114Y657D02*
X133Y657D01*
X159Y657D02*
X179Y657D01*
X206Y657D02*
X227Y657D01*
X256Y657D02*
X280Y657D01*
X314Y657D02*
X345Y657D01*
X399Y657D02*
X502Y657D01*
X556Y657D02*
X588Y657D01*
X622Y657D02*
X646Y657D01*
X675Y657D02*
X697Y657D01*
X724Y657D02*
X744Y657D01*
X770Y657D02*
X790Y657D01*
X113Y656D02*
X133Y656D01*
X158Y656D02*
X178Y656D01*
X205Y656D02*
X226Y656D01*
X256Y656D02*
X279Y656D01*
X313Y656D02*
X343Y656D01*
X396Y656D02*
X505Y656D01*
X558Y656D02*
X589Y656D01*
X623Y656D02*
X647Y656D01*
X676Y656D02*
X697Y656D01*
X725Y656D02*
X745Y656D01*
X771Y656D02*
X790Y656D01*
X113Y655D02*
X132Y655D01*
X158Y655D02*
X178Y655D01*
X205Y655D02*
X226Y655D01*
X255Y655D02*
X278Y655D01*
X312Y655D02*
X342Y655D01*
X393Y655D02*
X508Y655D01*
X560Y655D02*
X590Y655D01*
X624Y655D02*
X648Y655D01*
X677Y655D02*
X698Y655D01*
X725Y655D02*
X745Y655D01*
X771Y655D02*
X791Y655D01*
X112Y654D02*
X132Y654D01*
X157Y654D02*
X177Y654D01*
X204Y654D02*
X225Y654D01*
X254Y654D02*
X277Y654D01*
X310Y654D02*
X340Y654D01*
X390Y654D02*
X511Y654D01*
X561Y654D02*
X591Y654D01*
X625Y654D02*
X649Y654D01*
X678Y654D02*
X699Y654D01*
X726Y654D02*
X746Y654D01*
X772Y654D02*
X791Y654D01*
X112Y653D02*
X131Y653D01*
X157Y653D02*
X176Y653D01*
X203Y653D02*
X224Y653D01*
X253Y653D02*
X276Y653D01*
X309Y653D02*
X338Y653D01*
X387Y653D02*
X514Y653D01*
X563Y653D02*
X593Y653D01*
X626Y653D02*
X649Y653D01*
X678Y653D02*
X700Y653D01*
X727Y653D02*
X747Y653D01*
X772Y653D02*
X792Y653D01*
X111Y652D02*
X130Y652D01*
X156Y652D02*
X176Y652D01*
X202Y652D02*
X223Y652D01*
X252Y652D02*
X275Y652D01*
X308Y652D02*
X337Y652D01*
X385Y652D02*
X516Y652D01*
X565Y652D02*
X594Y652D01*
X627Y652D02*
X650Y652D01*
X679Y652D02*
X700Y652D01*
X727Y652D02*
X747Y652D01*
X773Y652D02*
X792Y652D01*
X111Y651D02*
X130Y651D01*
X155Y651D02*
X175Y651D01*
X202Y651D02*
X223Y651D01*
X251Y651D02*
X274Y651D01*
X307Y651D02*
X335Y651D01*
X382Y651D02*
X519Y651D01*
X566Y651D02*
X595Y651D01*
X628Y651D02*
X651Y651D01*
X680Y651D02*
X701Y651D01*
X728Y651D02*
X748Y651D01*
X774Y651D02*
X793Y651D01*
X110Y650D02*
X129Y650D01*
X155Y650D02*
X175Y650D01*
X201Y650D02*
X222Y650D01*
X250Y650D02*
X273Y650D01*
X305Y650D02*
X334Y650D01*
X379Y650D02*
X522Y650D01*
X568Y650D02*
X596Y650D01*
X629Y650D02*
X652Y650D01*
X681Y650D02*
X702Y650D01*
X728Y650D02*
X748Y650D01*
X774Y650D02*
X793Y650D01*
X110Y649D02*
X129Y649D01*
X154Y649D02*
X174Y649D01*
X200Y649D02*
X221Y649D01*
X249Y649D02*
X272Y649D01*
X304Y649D02*
X332Y649D01*
X377Y649D02*
X524Y649D01*
X569Y649D02*
X598Y649D01*
X630Y649D02*
X653Y649D01*
X681Y649D02*
X703Y649D01*
X729Y649D02*
X749Y649D01*
X775Y649D02*
X794Y649D01*
X109Y648D02*
X128Y648D01*
X154Y648D02*
X173Y648D01*
X200Y648D02*
X221Y648D01*
X249Y648D02*
X271Y648D01*
X303Y648D02*
X331Y648D01*
X375Y648D02*
X526Y648D01*
X571Y648D02*
X599Y648D01*
X631Y648D02*
X654Y648D01*
X682Y648D02*
X703Y648D01*
X730Y648D02*
X750Y648D01*
X775Y648D02*
X794Y648D01*
X109Y647D02*
X128Y647D01*
X153Y647D02*
X173Y647D01*
X199Y647D02*
X220Y647D01*
X248Y647D02*
X270Y647D01*
X302Y647D02*
X330Y647D01*
X373Y647D02*
X528Y647D01*
X572Y647D02*
X600Y647D01*
X632Y647D02*
X655Y647D01*
X683Y647D02*
X704Y647D01*
X730Y647D02*
X750Y647D01*
X776Y647D02*
X795Y647D01*
X108Y646D02*
X127Y646D01*
X153Y646D02*
X172Y646D01*
X198Y646D02*
X219Y646D01*
X247Y646D02*
X270Y646D01*
X301Y646D02*
X328Y646D01*
X371Y646D02*
X438Y646D01*
X462Y646D02*
X530Y646D01*
X573Y646D02*
X601Y646D01*
X633Y646D02*
X655Y646D01*
X684Y646D02*
X705Y646D01*
X731Y646D02*
X751Y646D01*
X776Y646D02*
X795Y646D01*
X108Y645D02*
X127Y645D01*
X152Y645D02*
X172Y645D01*
X198Y645D02*
X218Y645D01*
X246Y645D02*
X269Y645D01*
X300Y645D02*
X327Y645D01*
X369Y645D02*
X428Y645D01*
X473Y645D02*
X533Y645D01*
X575Y645D02*
X602Y645D01*
X634Y645D02*
X656Y645D01*
X684Y645D02*
X705Y645D01*
X732Y645D02*
X751Y645D01*
X777Y645D02*
X796Y645D01*
X107Y644D02*
X126Y644D01*
X151Y644D02*
X171Y644D01*
X197Y644D02*
X218Y644D01*
X245Y644D02*
X268Y644D01*
X299Y644D02*
X325Y644D01*
X367Y644D02*
X421Y644D01*
X479Y644D02*
X535Y644D01*
X576Y644D02*
X603Y644D01*
X634Y644D02*
X657Y644D01*
X685Y644D02*
X706Y644D01*
X732Y644D02*
X752Y644D01*
X777Y644D02*
X796Y644D01*
X107Y643D02*
X126Y643D01*
X151Y643D02*
X170Y643D01*
X197Y643D02*
X217Y643D01*
X245Y643D02*
X267Y643D01*
X298Y643D02*
X324Y643D01*
X365Y643D02*
X416Y643D01*
X484Y643D02*
X537Y643D01*
X577Y643D02*
X604Y643D01*
X635Y643D02*
X658Y643D01*
X686Y643D02*
X706Y643D01*
X733Y643D02*
X752Y643D01*
X778Y643D02*
X797Y643D01*
X107Y642D02*
X125Y642D01*
X150Y642D02*
X170Y642D01*
X196Y642D02*
X216Y642D01*
X244Y642D02*
X266Y642D01*
X297Y642D02*
X323Y642D01*
X363Y642D02*
X412Y642D01*
X489Y642D02*
X538Y642D01*
X579Y642D02*
X605Y642D01*
X636Y642D02*
X659Y642D01*
X687Y642D02*
X707Y642D01*
X733Y642D02*
X753Y642D01*
X778Y642D02*
X797Y642D01*
X106Y641D02*
X125Y641D01*
X150Y641D02*
X169Y641D01*
X195Y641D02*
X216Y641D01*
X243Y641D02*
X265Y641D01*
X296Y641D02*
X322Y641D01*
X361Y641D02*
X408Y641D01*
X493Y641D02*
X540Y641D01*
X580Y641D02*
X606Y641D01*
X637Y641D02*
X659Y641D01*
X687Y641D02*
X708Y641D01*
X734Y641D02*
X754Y641D01*
X779Y641D02*
X798Y641D01*
X106Y640D02*
X124Y640D01*
X149Y640D02*
X169Y640D01*
X195Y640D02*
X215Y640D01*
X242Y640D02*
X264Y640D01*
X295Y640D02*
X320Y640D01*
X359Y640D02*
X404Y640D01*
X497Y640D02*
X542Y640D01*
X581Y640D02*
X607Y640D01*
X638Y640D02*
X660Y640D01*
X688Y640D02*
X708Y640D01*
X735Y640D02*
X754Y640D01*
X779Y640D02*
X798Y640D01*
X105Y639D02*
X124Y639D01*
X149Y639D02*
X168Y639D01*
X194Y639D02*
X214Y639D01*
X242Y639D02*
X263Y639D01*
X294Y639D02*
X319Y639D01*
X358Y639D02*
X401Y639D01*
X500Y639D02*
X544Y639D01*
X583Y639D02*
X608Y639D01*
X639Y639D02*
X661Y639D01*
X689Y639D02*
X709Y639D01*
X735Y639D02*
X755Y639D01*
X780Y639D02*
X799Y639D01*
X105Y638D02*
X123Y638D01*
X148Y638D02*
X168Y638D01*
X193Y638D02*
X214Y638D01*
X241Y638D02*
X263Y638D01*
X293Y638D02*
X318Y638D01*
X356Y638D02*
X397Y638D01*
X503Y638D02*
X546Y638D01*
X584Y638D02*
X609Y638D01*
X640Y638D02*
X662Y638D01*
X689Y638D02*
X710Y638D01*
X736Y638D02*
X755Y638D01*
X780Y638D02*
X799Y638D01*
X104Y637D02*
X123Y637D01*
X148Y637D02*
X167Y637D01*
X193Y637D02*
X213Y637D01*
X240Y637D02*
X262Y637D01*
X292Y637D02*
X317Y637D01*
X354Y637D02*
X394Y637D01*
X506Y637D02*
X547Y637D01*
X585Y637D02*
X610Y637D01*
X641Y637D02*
X663Y637D01*
X690Y637D02*
X710Y637D01*
X736Y637D02*
X756Y637D01*
X781Y637D02*
X800Y637D01*
X104Y636D02*
X122Y636D01*
X147Y636D02*
X166Y636D01*
X192Y636D02*
X212Y636D01*
X239Y636D02*
X261Y636D01*
X291Y636D02*
X316Y636D01*
X352Y636D02*
X392Y636D01*
X509Y636D02*
X549Y636D01*
X586Y636D02*
X611Y636D01*
X642Y636D02*
X663Y636D01*
X691Y636D02*
X711Y636D01*
X737Y636D02*
X756Y636D01*
X781Y636D02*
X800Y636D01*
X103Y635D02*
X122Y635D01*
X147Y635D02*
X166Y635D01*
X192Y635D02*
X212Y635D01*
X239Y635D02*
X260Y635D01*
X290Y635D02*
X314Y635D01*
X351Y635D02*
X389Y635D01*
X512Y635D02*
X550Y635D01*
X587Y635D02*
X612Y635D01*
X642Y635D02*
X664Y635D01*
X691Y635D02*
X712Y635D01*
X737Y635D02*
X757Y635D01*
X782Y635D02*
X801Y635D01*
X103Y634D02*
X122Y634D01*
X146Y634D02*
X165Y634D01*
X191Y634D02*
X211Y634D01*
X238Y634D02*
X259Y634D01*
X289Y634D02*
X313Y634D01*
X349Y634D02*
X387Y634D01*
X514Y634D02*
X552Y634D01*
X589Y634D02*
X613Y634D01*
X643Y634D02*
X665Y634D01*
X692Y634D02*
X712Y634D01*
X738Y634D02*
X757Y634D01*
X782Y634D02*
X801Y634D01*
X102Y633D02*
X121Y633D01*
X146Y633D02*
X165Y633D01*
X190Y633D02*
X210Y633D01*
X237Y633D02*
X258Y633D01*
X288Y633D02*
X312Y633D01*
X348Y633D02*
X384Y633D01*
X517Y633D02*
X553Y633D01*
X590Y633D02*
X614Y633D01*
X644Y633D02*
X666Y633D01*
X693Y633D02*
X713Y633D01*
X739Y633D02*
X758Y633D01*
X783Y633D02*
X801Y633D01*
X102Y632D02*
X121Y632D01*
X145Y632D02*
X164Y632D01*
X190Y632D02*
X210Y632D01*
X236Y632D02*
X258Y632D01*
X287Y632D02*
X311Y632D01*
X346Y632D02*
X382Y632D01*
X519Y632D02*
X555Y632D01*
X591Y632D02*
X615Y632D01*
X645Y632D02*
X666Y632D01*
X693Y632D02*
X713Y632D01*
X739Y632D02*
X758Y632D01*
X783Y632D02*
X802Y632D01*
X102Y631D02*
X120Y631D01*
X145Y631D02*
X164Y631D01*
X189Y631D02*
X209Y631D01*
X236Y631D02*
X257Y631D01*
X286Y631D02*
X310Y631D01*
X345Y631D02*
X380Y631D01*
X521Y631D02*
X556Y631D01*
X592Y631D02*
X616Y631D01*
X646Y631D02*
X667Y631D01*
X694Y631D02*
X714Y631D01*
X740Y631D02*
X759Y631D01*
X784Y631D02*
X802Y631D01*
X101Y630D02*
X120Y630D01*
X144Y630D02*
X163Y630D01*
X189Y630D02*
X208Y630D01*
X235Y630D02*
X256Y630D01*
X285Y630D02*
X309Y630D01*
X344Y630D02*
X378Y630D01*
X524Y630D02*
X558Y630D01*
X593Y630D02*
X617Y630D01*
X646Y630D02*
X668Y630D01*
X695Y630D02*
X715Y630D01*
X740Y630D02*
X759Y630D01*
X784Y630D02*
X803Y630D01*
X101Y629D02*
X119Y629D01*
X144Y629D02*
X163Y629D01*
X188Y629D02*
X208Y629D01*
X234Y629D02*
X255Y629D01*
X284Y629D02*
X308Y629D01*
X342Y629D02*
X376Y629D01*
X526Y629D02*
X559Y629D01*
X594Y629D02*
X618Y629D01*
X647Y629D02*
X668Y629D01*
X695Y629D02*
X715Y629D01*
X741Y629D02*
X760Y629D01*
X785Y629D02*
X803Y629D01*
X100Y628D02*
X119Y628D01*
X143Y628D02*
X162Y628D01*
X188Y628D02*
X207Y628D01*
X234Y628D02*
X255Y628D01*
X283Y628D02*
X307Y628D01*
X341Y628D02*
X374Y628D01*
X528Y628D02*
X561Y628D01*
X595Y628D02*
X619Y628D01*
X648Y628D02*
X669Y628D01*
X696Y628D02*
X716Y628D01*
X741Y628D02*
X760Y628D01*
X785Y628D02*
X804Y628D01*
X100Y627D02*
X118Y627D01*
X143Y627D02*
X162Y627D01*
X187Y627D02*
X207Y627D01*
X233Y627D02*
X254Y627D01*
X282Y627D02*
X306Y627D01*
X340Y627D02*
X372Y627D01*
X530Y627D02*
X562Y627D01*
X596Y627D02*
X620Y627D01*
X649Y627D02*
X670Y627D01*
X697Y627D02*
X716Y627D01*
X742Y627D02*
X761Y627D01*
X786Y627D02*
X804Y627D01*
X100Y626D02*
X118Y626D01*
X142Y626D02*
X161Y626D01*
X186Y626D02*
X206Y626D01*
X232Y626D02*
X253Y626D01*
X281Y626D02*
X305Y626D01*
X338Y626D02*
X370Y626D01*
X531Y626D02*
X563Y626D01*
X597Y626D02*
X621Y626D01*
X650Y626D02*
X671Y626D01*
X697Y626D02*
X717Y626D01*
X742Y626D02*
X761Y626D01*
X786Y626D02*
X805Y626D01*
X99Y625D02*
X117Y625D01*
X142Y625D02*
X161Y625D01*
X186Y625D02*
X205Y625D01*
X232Y625D02*
X252Y625D01*
X281Y625D02*
X304Y625D01*
X337Y625D02*
X368Y625D01*
X533Y625D02*
X565Y625D01*
X598Y625D02*
X622Y625D01*
X650Y625D02*
X671Y625D01*
X698Y625D02*
X717Y625D01*
X743Y625D02*
X762Y625D01*
X786Y625D02*
X805Y625D01*
X99Y624D02*
X117Y624D01*
X142Y624D02*
X160Y624D01*
X185Y624D02*
X205Y624D01*
X231Y624D02*
X252Y624D01*
X280Y624D02*
X303Y624D01*
X336Y624D02*
X366Y624D01*
X535Y624D02*
X566Y624D01*
X599Y624D02*
X623Y624D01*
X651Y624D02*
X672Y624D01*
X698Y624D02*
X718Y624D01*
X743Y624D02*
X762Y624D01*
X787Y624D02*
X805Y624D01*
X98Y623D02*
X117Y623D01*
X141Y623D02*
X160Y623D01*
X185Y623D02*
X204Y623D01*
X230Y623D02*
X251Y623D01*
X279Y623D02*
X302Y623D01*
X335Y623D02*
X365Y623D01*
X537Y623D02*
X567Y623D01*
X600Y623D02*
X623Y623D01*
X652Y623D02*
X673Y623D01*
X699Y623D02*
X719Y623D01*
X744Y623D02*
X763Y623D01*
X787Y623D02*
X806Y623D01*
X98Y622D02*
X116Y622D01*
X141Y622D02*
X159Y622D01*
X184Y622D02*
X204Y622D01*
X230Y622D02*
X250Y622D01*
X278Y622D02*
X301Y622D01*
X333Y622D02*
X363Y622D01*
X538Y622D02*
X568Y622D01*
X601Y622D02*
X624Y622D01*
X652Y622D02*
X673Y622D01*
X700Y622D02*
X719Y622D01*
X744Y622D02*
X763Y622D01*
X788Y622D02*
X806Y622D01*
X98Y621D02*
X116Y621D01*
X140Y621D02*
X159Y621D01*
X184Y621D02*
X203Y621D01*
X229Y621D02*
X250Y621D01*
X277Y621D02*
X300Y621D01*
X332Y621D02*
X361Y621D01*
X540Y621D02*
X570Y621D01*
X602Y621D02*
X625Y621D01*
X653Y621D02*
X674Y621D01*
X700Y621D02*
X720Y621D01*
X745Y621D02*
X764Y621D01*
X788Y621D02*
X807Y621D01*
X97Y620D02*
X115Y620D01*
X140Y620D02*
X158Y620D01*
X183Y620D02*
X203Y620D01*
X228Y620D02*
X249Y620D01*
X277Y620D02*
X299Y620D01*
X331Y620D02*
X360Y620D01*
X542Y620D02*
X571Y620D01*
X603Y620D02*
X626Y620D01*
X654Y620D02*
X674Y620D01*
X701Y620D02*
X720Y620D01*
X745Y620D02*
X764Y620D01*
X789Y620D02*
X807Y620D01*
X97Y619D02*
X115Y619D01*
X139Y619D02*
X158Y619D01*
X183Y619D02*
X202Y619D01*
X228Y619D02*
X248Y619D01*
X276Y619D02*
X298Y619D01*
X330Y619D02*
X358Y619D01*
X543Y619D02*
X572Y619D01*
X604Y619D02*
X627Y619D01*
X655Y619D02*
X675Y619D01*
X701Y619D02*
X721Y619D01*
X746Y619D02*
X765Y619D01*
X789Y619D02*
X808Y619D01*
X96Y618D02*
X115Y618D01*
X139Y618D02*
X157Y618D01*
X182Y618D02*
X202Y618D01*
X227Y618D02*
X247Y618D01*
X275Y618D02*
X297Y618D01*
X329Y618D02*
X357Y618D01*
X545Y618D02*
X573Y618D01*
X605Y618D02*
X628Y618D01*
X655Y618D02*
X676Y618D01*
X702Y618D02*
X721Y618D01*
X746Y618D02*
X765Y618D01*
X789Y618D02*
X808Y618D01*
X96Y617D02*
X114Y617D01*
X138Y617D02*
X157Y617D01*
X182Y617D02*
X201Y617D01*
X227Y617D02*
X247Y617D01*
X274Y617D02*
X296Y617D01*
X328Y617D02*
X355Y617D01*
X546Y617D02*
X574Y617D01*
X606Y617D02*
X628Y617D01*
X656Y617D02*
X676Y617D01*
X702Y617D02*
X722Y617D01*
X747Y617D02*
X765Y617D01*
X790Y617D02*
X808Y617D01*
X96Y616D02*
X114Y616D01*
X138Y616D02*
X157Y616D01*
X181Y616D02*
X200Y616D01*
X226Y616D02*
X246Y616D01*
X273Y616D02*
X295Y616D01*
X326Y616D02*
X354Y616D01*
X548Y616D02*
X575Y616D01*
X607Y616D02*
X629Y616D01*
X657Y616D02*
X677Y616D01*
X703Y616D02*
X722Y616D01*
X747Y616D02*
X766Y616D01*
X790Y616D02*
X809Y616D01*
X95Y615D02*
X113Y615D01*
X137Y615D02*
X156Y615D01*
X181Y615D02*
X200Y615D01*
X225Y615D02*
X246Y615D01*
X273Y615D02*
X295Y615D01*
X325Y615D02*
X352Y615D01*
X549Y615D02*
X577Y615D01*
X608Y615D02*
X630Y615D01*
X657Y615D02*
X678Y615D01*
X704Y615D02*
X723Y615D01*
X748Y615D02*
X766Y615D01*
X791Y615D02*
X809Y615D01*
X95Y614D02*
X113Y614D01*
X137Y614D02*
X156Y614D01*
X180Y614D02*
X199Y614D01*
X225Y614D02*
X245Y614D01*
X272Y614D02*
X294Y614D01*
X324Y614D02*
X351Y614D01*
X550Y614D02*
X578Y614D01*
X609Y614D02*
X631Y614D01*
X658Y614D02*
X678Y614D01*
X704Y614D02*
X723Y614D01*
X748Y614D02*
X767Y614D01*
X791Y614D02*
X809Y614D01*
X94Y613D02*
X113Y613D01*
X137Y613D02*
X155Y613D01*
X180Y613D02*
X199Y613D01*
X224Y613D02*
X244Y613D01*
X271Y613D02*
X293Y613D01*
X323Y613D02*
X350Y613D01*
X552Y613D02*
X579Y613D01*
X609Y613D02*
X631Y613D01*
X659Y613D02*
X679Y613D01*
X705Y613D02*
X724Y613D01*
X749Y613D02*
X767Y613D01*
X792Y613D02*
X810Y613D01*
X94Y612D02*
X112Y612D01*
X136Y612D02*
X155Y612D01*
X179Y612D02*
X198Y612D01*
X224Y612D02*
X244Y612D01*
X270Y612D02*
X292Y612D01*
X322Y612D02*
X348Y612D01*
X553Y612D02*
X580Y612D01*
X610Y612D02*
X632Y612D01*
X659Y612D02*
X680Y612D01*
X705Y612D02*
X724Y612D01*
X749Y612D02*
X768Y612D01*
X792Y612D02*
X810Y612D01*
X94Y611D02*
X112Y611D01*
X136Y611D02*
X154Y611D01*
X179Y611D02*
X198Y611D01*
X223Y611D02*
X243Y611D01*
X270Y611D02*
X291Y611D01*
X321Y611D02*
X347Y611D01*
X555Y611D02*
X581Y611D01*
X611Y611D02*
X633Y611D01*
X660Y611D02*
X680Y611D01*
X706Y611D02*
X725Y611D01*
X750Y611D02*
X768Y611D01*
X792Y611D02*
X811Y611D01*
X93Y610D02*
X111Y610D01*
X135Y610D02*
X154Y610D01*
X178Y610D02*
X197Y610D01*
X223Y610D02*
X242Y610D01*
X269Y610D02*
X290Y610D01*
X320Y610D02*
X346Y610D01*
X556Y610D02*
X582Y610D01*
X612Y610D02*
X634Y610D01*
X661Y610D02*
X681Y610D01*
X706Y610D02*
X725Y610D01*
X750Y610D02*
X769Y610D01*
X793Y610D02*
X811Y610D01*
X93Y609D02*
X111Y609D01*
X135Y609D02*
X153Y609D01*
X178Y609D02*
X197Y609D01*
X222Y609D02*
X242Y609D01*
X268Y609D02*
X290Y609D01*
X319Y609D02*
X345Y609D01*
X557Y609D02*
X583Y609D01*
X613Y609D02*
X634Y609D01*
X661Y609D02*
X681Y609D01*
X707Y609D02*
X726Y609D01*
X750Y609D02*
X769Y609D01*
X793Y609D02*
X811Y609D01*
X93Y608D02*
X111Y608D01*
X135Y608D02*
X153Y608D01*
X177Y608D02*
X196Y608D01*
X221Y608D02*
X241Y608D01*
X268Y608D02*
X289Y608D01*
X318Y608D02*
X343Y608D01*
X558Y608D02*
X584Y608D01*
X614Y608D02*
X635Y608D01*
X662Y608D02*
X682Y608D01*
X707Y608D02*
X726Y608D01*
X751Y608D02*
X769Y608D01*
X794Y608D02*
X812Y608D01*
X92Y607D02*
X110Y607D01*
X134Y607D02*
X152Y607D01*
X177Y607D02*
X196Y607D01*
X221Y607D02*
X241Y607D01*
X267Y607D02*
X288Y607D01*
X317Y607D02*
X342Y607D01*
X560Y607D02*
X585Y607D01*
X614Y607D02*
X636Y607D01*
X663Y607D02*
X682Y607D01*
X708Y607D02*
X727Y607D01*
X751Y607D02*
X770Y607D01*
X794Y607D02*
X812Y607D01*
X92Y606D02*
X110Y606D01*
X134Y606D02*
X152Y606D01*
X177Y606D02*
X195Y606D01*
X220Y606D02*
X240Y606D01*
X266Y606D02*
X287Y606D01*
X316Y606D02*
X341Y606D01*
X561Y606D02*
X586Y606D01*
X615Y606D02*
X637Y606D01*
X663Y606D02*
X683Y606D01*
X708Y606D02*
X727Y606D01*
X752Y606D02*
X770Y606D01*
X794Y606D02*
X812Y606D01*
X92Y605D02*
X110Y605D01*
X134Y605D02*
X152Y605D01*
X176Y605D02*
X195Y605D01*
X220Y605D02*
X239Y605D01*
X266Y605D02*
X286Y605D01*
X315Y605D02*
X340Y605D01*
X562Y605D02*
X587Y605D01*
X616Y605D02*
X637Y605D01*
X664Y605D02*
X684Y605D01*
X709Y605D02*
X728Y605D01*
X752Y605D02*
X771Y605D01*
X795Y605D02*
X813Y605D01*
X91Y604D02*
X109Y604D01*
X133Y604D02*
X151Y604D01*
X176Y604D02*
X194Y604D01*
X219Y604D02*
X239Y604D01*
X265Y604D02*
X286Y604D01*
X315Y604D02*
X339Y604D01*
X563Y604D02*
X588Y604D01*
X617Y604D02*
X638Y604D01*
X664Y604D02*
X684Y604D01*
X709Y604D02*
X728Y604D01*
X753Y604D02*
X771Y604D01*
X795Y604D02*
X813Y604D01*
X91Y603D02*
X109Y603D01*
X133Y603D02*
X151Y603D01*
X175Y603D02*
X194Y603D01*
X219Y603D02*
X238Y603D01*
X264Y603D02*
X285Y603D01*
X314Y603D02*
X338Y603D01*
X564Y603D02*
X589Y603D01*
X618Y603D02*
X639Y603D01*
X665Y603D02*
X685Y603D01*
X710Y603D02*
X729Y603D01*
X753Y603D02*
X772Y603D01*
X795Y603D02*
X814Y603D01*
X91Y602D02*
X109Y602D01*
X132Y602D02*
X151Y602D01*
X175Y602D02*
X193Y602D01*
X218Y602D02*
X238Y602D01*
X264Y602D02*
X284Y602D01*
X313Y602D02*
X337Y602D01*
X565Y602D02*
X590Y602D01*
X618Y602D02*
X639Y602D01*
X666Y602D02*
X685Y602D01*
X710Y602D02*
X729Y602D01*
X754Y602D02*
X772Y602D01*
X796Y602D02*
X814Y602D01*
X90Y601D02*
X108Y601D01*
X132Y601D02*
X150Y601D01*
X174Y601D02*
X193Y601D01*
X218Y601D02*
X237Y601D01*
X263Y601D02*
X284Y601D01*
X312Y601D02*
X336Y601D01*
X566Y601D02*
X590Y601D01*
X619Y601D02*
X640Y601D01*
X666Y601D02*
X686Y601D01*
X711Y601D02*
X730Y601D01*
X754Y601D02*
X772Y601D01*
X796Y601D02*
X814Y601D01*
X90Y600D02*
X108Y600D01*
X132Y600D02*
X150Y600D01*
X174Y600D02*
X192Y600D01*
X217Y600D02*
X236Y600D01*
X262Y600D02*
X283Y600D01*
X311Y600D02*
X335Y600D01*
X567Y600D02*
X591Y600D01*
X620Y600D02*
X641Y600D01*
X667Y600D02*
X686Y600D01*
X711Y600D02*
X730Y600D01*
X754Y600D02*
X773Y600D01*
X797Y600D02*
X815Y600D01*
X90Y599D02*
X108Y599D01*
X131Y599D02*
X149Y599D01*
X173Y599D02*
X192Y599D01*
X217Y599D02*
X236Y599D01*
X262Y599D02*
X282Y599D01*
X310Y599D02*
X333Y599D01*
X568Y599D02*
X592Y599D01*
X621Y599D02*
X641Y599D01*
X667Y599D02*
X687Y599D01*
X712Y599D02*
X730Y599D01*
X755Y599D02*
X773Y599D01*
X797Y599D02*
X815Y599D01*
X89Y598D02*
X107Y598D01*
X131Y598D02*
X149Y598D01*
X173Y598D02*
X192Y598D01*
X216Y598D02*
X235Y598D01*
X261Y598D02*
X281Y598D01*
X309Y598D02*
X332Y598D01*
X570Y598D02*
X593Y598D01*
X621Y598D02*
X642Y598D01*
X668Y598D02*
X687Y598D01*
X712Y598D02*
X731Y598D01*
X755Y598D02*
X773Y598D01*
X797Y598D02*
X815Y598D01*
X89Y597D02*
X107Y597D01*
X130Y597D02*
X149Y597D01*
X173Y597D02*
X191Y597D01*
X216Y597D02*
X235Y597D01*
X260Y597D02*
X281Y597D01*
X309Y597D02*
X331Y597D01*
X571Y597D02*
X594Y597D01*
X622Y597D02*
X643Y597D01*
X669Y597D02*
X688Y597D01*
X713Y597D02*
X731Y597D01*
X756Y597D02*
X774Y597D01*
X798Y597D02*
X816Y597D01*
X89Y596D02*
X107Y596D01*
X130Y596D02*
X148Y596D01*
X172Y596D02*
X191Y596D01*
X215Y596D02*
X234Y596D01*
X260Y596D02*
X280Y596D01*
X308Y596D02*
X331Y596D01*
X572Y596D02*
X595Y596D01*
X623Y596D02*
X643Y596D01*
X669Y596D02*
X688Y596D01*
X713Y596D02*
X732Y596D01*
X756Y596D02*
X774Y596D01*
X798Y596D02*
X816Y596D01*
X88Y595D02*
X106Y595D01*
X130Y595D02*
X148Y595D01*
X172Y595D02*
X190Y595D01*
X215Y595D02*
X234Y595D01*
X259Y595D02*
X279Y595D01*
X307Y595D02*
X330Y595D01*
X573Y595D02*
X596Y595D01*
X623Y595D02*
X644Y595D01*
X670Y595D02*
X689Y595D01*
X714Y595D02*
X732Y595D01*
X756Y595D02*
X775Y595D01*
X798Y595D02*
X816Y595D01*
X88Y594D02*
X106Y594D01*
X129Y594D02*
X147Y594D01*
X171Y594D02*
X190Y594D01*
X214Y594D02*
X233Y594D01*
X259Y594D02*
X279Y594D01*
X306Y594D02*
X329Y594D01*
X573Y594D02*
X596Y594D01*
X624Y594D02*
X645Y594D01*
X670Y594D02*
X689Y594D01*
X714Y594D02*
X733Y594D01*
X757Y594D02*
X775Y594D01*
X799Y594D02*
X817Y594D01*
X88Y593D02*
X106Y593D01*
X129Y593D02*
X147Y593D01*
X171Y593D02*
X189Y593D01*
X214Y593D02*
X233Y593D01*
X258Y593D02*
X278Y593D01*
X305Y593D02*
X328Y593D01*
X575Y593D02*
X597Y593D01*
X625Y593D02*
X645Y593D01*
X671Y593D02*
X690Y593D01*
X715Y593D02*
X733Y593D01*
X757Y593D02*
X775Y593D01*
X799Y593D02*
X817Y593D01*
X87Y592D02*
X105Y592D01*
X129Y592D02*
X147Y592D01*
X171Y592D02*
X189Y592D01*
X213Y592D02*
X232Y592D01*
X258Y592D02*
X277Y592D01*
X305Y592D02*
X327Y592D01*
X575Y592D02*
X598Y592D01*
X625Y592D02*
X646Y592D01*
X671Y592D02*
X690Y592D01*
X715Y592D02*
X733Y592D01*
X758Y592D02*
X776Y592D01*
X800Y592D02*
X817Y592D01*
X87Y591D02*
X105Y591D01*
X129Y591D02*
X146Y591D01*
X170Y591D02*
X188Y591D01*
X213Y591D02*
X232Y591D01*
X257Y591D02*
X277Y591D01*
X304Y591D02*
X326Y591D01*
X576Y591D02*
X599Y591D01*
X626Y591D02*
X646Y591D01*
X672Y591D02*
X691Y591D01*
X715Y591D02*
X734Y591D01*
X758Y591D02*
X776Y591D01*
X800Y591D02*
X818Y591D01*
X87Y590D02*
X105Y590D01*
X128Y590D02*
X146Y590D01*
X170Y590D02*
X188Y590D01*
X212Y590D02*
X231Y590D01*
X256Y590D02*
X276Y590D01*
X303Y590D02*
X325Y590D01*
X577Y590D02*
X600Y590D01*
X627Y590D02*
X647Y590D01*
X672Y590D02*
X691Y590D01*
X716Y590D02*
X734Y590D01*
X758Y590D02*
X776Y590D01*
X800Y590D02*
X818Y590D01*
X87Y589D02*
X104Y589D01*
X128Y589D02*
X146Y589D01*
X170Y589D02*
X188Y589D01*
X212Y589D02*
X231Y589D01*
X256Y589D02*
X276Y589D01*
X302Y589D02*
X324Y589D01*
X578Y589D02*
X600Y589D01*
X627Y589D02*
X647Y589D01*
X673Y589D02*
X692Y589D01*
X716Y589D02*
X735Y589D01*
X759Y589D02*
X777Y589D01*
X800Y589D02*
X818Y589D01*
X86Y588D02*
X104Y588D01*
X128Y588D02*
X145Y588D01*
X169Y588D02*
X187Y588D01*
X212Y588D02*
X230Y588D01*
X255Y588D02*
X275Y588D01*
X302Y588D02*
X323Y588D01*
X579Y588D02*
X601Y588D01*
X628Y588D02*
X648Y588D01*
X673Y588D02*
X692Y588D01*
X717Y588D02*
X735Y588D01*
X759Y588D02*
X777Y588D01*
X801Y588D02*
X818Y588D01*
X86Y587D02*
X104Y587D01*
X127Y587D02*
X145Y587D01*
X169Y587D02*
X187Y587D01*
X211Y587D02*
X230Y587D01*
X255Y587D02*
X274Y587D01*
X301Y587D02*
X322Y587D01*
X580Y587D02*
X602Y587D01*
X629Y587D02*
X649Y587D01*
X674Y587D02*
X693Y587D01*
X717Y587D02*
X736Y587D01*
X759Y587D02*
X778Y587D01*
X801Y587D02*
X819Y587D01*
X86Y586D02*
X103Y586D01*
X127Y586D02*
X145Y586D01*
X168Y586D02*
X187Y586D01*
X211Y586D02*
X229Y586D01*
X254Y586D02*
X274Y586D01*
X300Y586D02*
X322Y586D01*
X581Y586D02*
X603Y586D01*
X629Y586D02*
X649Y586D01*
X674Y586D02*
X693Y586D01*
X718Y586D02*
X736Y586D01*
X760Y586D02*
X778Y586D01*
X801Y586D02*
X819Y586D01*
X86Y585D02*
X103Y585D01*
X127Y585D02*
X144Y585D01*
X168Y585D02*
X186Y585D01*
X210Y585D02*
X229Y585D01*
X254Y585D02*
X273Y585D01*
X300Y585D02*
X321Y585D01*
X582Y585D02*
X603Y585D01*
X630Y585D02*
X650Y585D01*
X675Y585D02*
X694Y585D01*
X718Y585D02*
X736Y585D01*
X760Y585D02*
X778Y585D01*
X802Y585D02*
X819Y585D01*
X85Y584D02*
X103Y584D01*
X126Y584D02*
X144Y584D01*
X168Y584D02*
X186Y584D01*
X210Y584D02*
X228Y584D01*
X253Y584D02*
X273Y584D01*
X299Y584D02*
X320Y584D01*
X582Y584D02*
X604Y584D01*
X631Y584D02*
X650Y584D01*
X675Y584D02*
X694Y584D01*
X719Y584D02*
X737Y584D01*
X761Y584D02*
X779Y584D01*
X802Y584D02*
X820Y584D01*
X85Y583D02*
X103Y583D01*
X126Y583D02*
X144Y583D01*
X167Y583D02*
X185Y583D01*
X209Y583D02*
X228Y583D01*
X253Y583D02*
X272Y583D01*
X298Y583D02*
X319Y583D01*
X583Y583D02*
X605Y583D01*
X631Y583D02*
X651Y583D01*
X676Y583D02*
X695Y583D01*
X719Y583D02*
X737Y583D01*
X761Y583D02*
X779Y583D01*
X802Y583D02*
X820Y583D01*
X85Y582D02*
X102Y582D01*
X126Y582D02*
X143Y582D01*
X167Y582D02*
X185Y582D01*
X209Y582D02*
X228Y582D01*
X252Y582D02*
X271Y582D01*
X298Y582D02*
X318Y582D01*
X584Y582D02*
X605Y582D01*
X632Y582D02*
X651Y582D01*
X676Y582D02*
X695Y582D01*
X719Y582D02*
X737Y582D01*
X761Y582D02*
X779Y582D01*
X803Y582D02*
X820Y582D01*
X84Y581D02*
X102Y581D01*
X125Y581D02*
X143Y581D01*
X167Y581D02*
X185Y581D01*
X209Y581D02*
X227Y581D01*
X252Y581D02*
X271Y581D01*
X297Y581D02*
X318Y581D01*
X585Y581D02*
X606Y581D01*
X632Y581D02*
X652Y581D01*
X677Y581D02*
X695Y581D01*
X720Y581D02*
X738Y581D01*
X762Y581D02*
X779Y581D01*
X803Y581D02*
X821Y581D01*
X84Y580D02*
X102Y580D01*
X125Y580D02*
X143Y580D01*
X166Y580D02*
X184Y580D01*
X208Y580D02*
X227Y580D01*
X251Y580D02*
X270Y580D01*
X296Y580D02*
X317Y580D01*
X586Y580D02*
X607Y580D01*
X633Y580D02*
X652Y580D01*
X677Y580D02*
X696Y580D01*
X720Y580D02*
X738Y580D01*
X762Y580D02*
X780Y580D01*
X803Y580D02*
X821Y580D01*
X84Y579D02*
X101Y579D01*
X125Y579D02*
X142Y579D01*
X166Y579D02*
X184Y579D01*
X208Y579D02*
X226Y579D01*
X251Y579D02*
X270Y579D01*
X296Y579D02*
X316Y579D01*
X586Y579D02*
X607Y579D01*
X634Y579D02*
X653Y579D01*
X678Y579D02*
X696Y579D01*
X720Y579D02*
X739Y579D01*
X762Y579D02*
X780Y579D01*
X804Y579D02*
X821Y579D01*
X84Y578D02*
X101Y578D01*
X124Y578D02*
X142Y578D01*
X166Y578D02*
X184Y578D01*
X207Y578D02*
X226Y578D01*
X250Y578D02*
X269Y578D01*
X295Y578D02*
X315Y578D01*
X587Y578D02*
X608Y578D01*
X634Y578D02*
X653Y578D01*
X678Y578D02*
X697Y578D01*
X721Y578D02*
X739Y578D01*
X763Y578D02*
X780Y578D01*
X804Y578D02*
X822Y578D01*
X83Y577D02*
X101Y577D01*
X124Y577D02*
X142Y577D01*
X165Y577D02*
X183Y577D01*
X207Y577D02*
X225Y577D01*
X250Y577D02*
X269Y577D01*
X294Y577D02*
X315Y577D01*
X588Y577D02*
X609Y577D01*
X635Y577D02*
X654Y577D01*
X679Y577D02*
X697Y577D01*
X721Y577D02*
X739Y577D01*
X763Y577D02*
X781Y577D01*
X804Y577D02*
X822Y577D01*
X83Y576D02*
X101Y576D01*
X124Y576D02*
X141Y576D01*
X165Y576D02*
X183Y576D01*
X207Y576D02*
X225Y576D01*
X249Y576D02*
X268Y576D01*
X294Y576D02*
X314Y576D01*
X589Y576D02*
X609Y576D01*
X635Y576D02*
X654Y576D01*
X679Y576D02*
X698Y576D01*
X722Y576D02*
X740Y576D01*
X763Y576D02*
X781Y576D01*
X805Y576D02*
X822Y576D01*
X83Y575D02*
X100Y575D01*
X124Y575D02*
X141Y575D01*
X165Y575D02*
X182Y575D01*
X206Y575D02*
X224Y575D01*
X249Y575D02*
X268Y575D01*
X293Y575D02*
X313Y575D01*
X589Y575D02*
X610Y575D01*
X636Y575D02*
X655Y575D01*
X680Y575D02*
X698Y575D01*
X722Y575D02*
X740Y575D01*
X764Y575D02*
X781Y575D01*
X805Y575D02*
X822Y575D01*
X83Y574D02*
X100Y574D01*
X123Y574D02*
X141Y574D01*
X164Y574D02*
X182Y574D01*
X206Y574D02*
X224Y574D01*
X248Y574D02*
X267Y574D01*
X293Y574D02*
X313Y574D01*
X590Y574D02*
X611Y574D01*
X636Y574D02*
X655Y574D01*
X680Y574D02*
X698Y574D01*
X722Y574D02*
X740Y574D01*
X764Y574D02*
X782Y574D01*
X805Y574D02*
X823Y574D01*
X82Y573D02*
X100Y573D01*
X123Y573D02*
X141Y573D01*
X164Y573D02*
X182Y573D01*
X205Y573D02*
X224Y573D01*
X248Y573D02*
X267Y573D01*
X292Y573D02*
X312Y573D01*
X591Y573D02*
X611Y573D01*
X637Y573D02*
X656Y573D01*
X680Y573D02*
X699Y573D01*
X723Y573D02*
X741Y573D01*
X764Y573D02*
X782Y573D01*
X805Y573D02*
X823Y573D01*
X82Y572D02*
X99Y572D01*
X123Y572D02*
X140Y572D01*
X164Y572D02*
X181Y572D01*
X205Y572D02*
X223Y572D01*
X248Y572D02*
X266Y572D01*
X291Y572D02*
X311Y572D01*
X592Y572D02*
X612Y572D01*
X637Y572D02*
X656Y572D01*
X681Y572D02*
X699Y572D01*
X723Y572D02*
X741Y572D01*
X765Y572D02*
X782Y572D01*
X806Y572D02*
X823Y572D01*
X82Y571D02*
X99Y571D01*
X122Y571D02*
X140Y571D01*
X163Y571D02*
X181Y571D01*
X205Y571D02*
X223Y571D01*
X247Y571D02*
X266Y571D01*
X291Y571D02*
X311Y571D01*
X592Y571D02*
X612Y571D01*
X638Y571D02*
X657Y571D01*
X681Y571D02*
X700Y571D01*
X723Y571D02*
X741Y571D01*
X765Y571D02*
X783Y571D01*
X806Y571D02*
X823Y571D01*
X82Y570D02*
X99Y570D01*
X122Y570D02*
X140Y570D01*
X163Y570D02*
X181Y570D01*
X204Y570D02*
X223Y570D01*
X247Y570D02*
X265Y570D01*
X290Y570D02*
X310Y570D01*
X593Y570D02*
X613Y570D01*
X638Y570D02*
X657Y570D01*
X682Y570D02*
X700Y570D01*
X724Y570D02*
X742Y570D01*
X765Y570D02*
X783Y570D01*
X806Y570D02*
X824Y570D01*
X81Y569D02*
X99Y569D01*
X122Y569D02*
X139Y569D01*
X163Y569D02*
X180Y569D01*
X204Y569D02*
X222Y569D01*
X246Y569D02*
X265Y569D01*
X290Y569D02*
X309Y569D01*
X594Y569D02*
X614Y569D01*
X639Y569D02*
X658Y569D01*
X682Y569D02*
X700Y569D01*
X724Y569D02*
X742Y569D01*
X766Y569D02*
X783Y569D01*
X806Y569D02*
X824Y569D01*
X81Y568D02*
X98Y568D01*
X122Y568D02*
X139Y568D01*
X162Y568D02*
X180Y568D01*
X204Y568D02*
X222Y568D01*
X246Y568D02*
X264Y568D01*
X289Y568D02*
X309Y568D01*
X594Y568D02*
X614Y568D01*
X639Y568D02*
X658Y568D01*
X683Y568D02*
X701Y568D01*
X725Y568D02*
X742Y568D01*
X766Y568D02*
X783Y568D01*
X807Y568D02*
X824Y568D01*
X81Y567D02*
X98Y567D01*
X121Y567D02*
X139Y567D01*
X162Y567D02*
X180Y567D01*
X203Y567D02*
X221Y567D01*
X245Y567D02*
X264Y567D01*
X289Y567D02*
X308Y567D01*
X595Y567D02*
X615Y567D01*
X640Y567D02*
X659Y567D01*
X683Y567D02*
X701Y567D01*
X725Y567D02*
X743Y567D01*
X766Y567D02*
X784Y567D01*
X807Y567D02*
X824Y567D01*
X81Y566D02*
X98Y566D01*
X121Y566D02*
X139Y566D01*
X162Y566D02*
X179Y566D01*
X203Y566D02*
X221Y566D01*
X245Y566D02*
X263Y566D01*
X288Y566D02*
X308Y566D01*
X596Y566D02*
X615Y566D01*
X640Y566D02*
X659Y566D01*
X683Y566D02*
X701Y566D01*
X725Y566D02*
X743Y566D01*
X766Y566D02*
X784Y566D01*
X807Y566D02*
X825Y566D01*
X81Y565D02*
X98Y565D01*
X121Y565D02*
X138Y565D01*
X162Y565D02*
X179Y565D01*
X203Y565D02*
X221Y565D01*
X245Y565D02*
X263Y565D01*
X288Y565D02*
X307Y565D01*
X596Y565D02*
X616Y565D01*
X641Y565D02*
X659Y565D01*
X684Y565D02*
X702Y565D01*
X726Y565D02*
X743Y565D01*
X767Y565D02*
X784Y565D01*
X807Y565D02*
X825Y565D01*
X80Y564D02*
X98Y564D01*
X121Y564D02*
X138Y564D01*
X161Y564D02*
X179Y564D01*
X202Y564D02*
X220Y564D01*
X244Y564D02*
X263Y564D01*
X287Y564D02*
X306Y564D01*
X597Y564D02*
X616Y564D01*
X641Y564D02*
X660Y564D01*
X684Y564D02*
X702Y564D01*
X726Y564D02*
X744Y564D01*
X767Y564D02*
X785Y564D01*
X808Y564D02*
X825Y564D01*
X80Y563D02*
X97Y563D01*
X120Y563D02*
X138Y563D01*
X161Y563D02*
X179Y563D01*
X202Y563D02*
X220Y563D01*
X244Y563D02*
X262Y563D01*
X287Y563D02*
X306Y563D01*
X597Y563D02*
X617Y563D01*
X642Y563D02*
X660Y563D01*
X684Y563D02*
X703Y563D01*
X726Y563D02*
X744Y563D01*
X767Y563D02*
X785Y563D01*
X808Y563D02*
X825Y563D01*
X80Y562D02*
X97Y562D01*
X120Y562D02*
X138Y562D01*
X161Y562D02*
X178Y562D01*
X202Y562D02*
X220Y562D01*
X243Y562D02*
X262Y562D01*
X286Y562D02*
X305Y562D01*
X598Y562D02*
X617Y562D01*
X642Y562D02*
X661Y562D01*
X685Y562D02*
X703Y562D01*
X726Y562D02*
X744Y562D01*
X768Y562D02*
X785Y562D01*
X808Y562D02*
X826Y562D01*
X80Y561D02*
X97Y561D01*
X120Y561D02*
X137Y561D01*
X161Y561D02*
X178Y561D01*
X201Y561D02*
X219Y561D01*
X243Y561D02*
X261Y561D01*
X286Y561D02*
X305Y561D01*
X599Y561D02*
X618Y561D01*
X643Y561D02*
X661Y561D01*
X685Y561D02*
X703Y561D01*
X727Y561D02*
X745Y561D01*
X768Y561D02*
X785Y561D01*
X808Y561D02*
X826Y561D01*
X79Y560D02*
X97Y560D01*
X120Y560D02*
X137Y560D01*
X160Y560D02*
X178Y560D01*
X201Y560D02*
X219Y560D01*
X243Y560D02*
X261Y560D01*
X285Y560D02*
X304Y560D01*
X599Y560D02*
X618Y560D01*
X643Y560D02*
X662Y560D01*
X686Y560D02*
X704Y560D01*
X727Y560D02*
X745Y560D01*
X768Y560D02*
X786Y560D01*
X809Y560D02*
X826Y560D01*
X79Y559D02*
X97Y559D01*
X119Y559D02*
X137Y559D01*
X160Y559D02*
X177Y559D01*
X201Y559D02*
X219Y559D01*
X242Y559D02*
X260Y559D01*
X285Y559D02*
X304Y559D01*
X600Y559D02*
X619Y559D01*
X644Y559D02*
X662Y559D01*
X686Y559D02*
X704Y559D01*
X727Y559D02*
X745Y559D01*
X768Y559D02*
X786Y559D01*
X809Y559D02*
X826Y559D01*
X79Y558D02*
X96Y558D01*
X119Y558D02*
X137Y558D01*
X160Y558D02*
X177Y558D01*
X200Y558D02*
X218Y558D01*
X242Y558D02*
X260Y558D01*
X284Y558D02*
X303Y558D01*
X600Y558D02*
X619Y558D01*
X644Y558D02*
X662Y558D01*
X686Y558D02*
X704Y558D01*
X728Y558D02*
X745Y558D01*
X769Y558D02*
X786Y558D01*
X809Y558D02*
X827Y558D01*
X79Y557D02*
X96Y557D01*
X119Y557D02*
X136Y557D01*
X159Y557D02*
X177Y557D01*
X200Y557D02*
X218Y557D01*
X242Y557D02*
X260Y557D01*
X284Y557D02*
X303Y557D01*
X601Y557D02*
X620Y557D01*
X644Y557D02*
X663Y557D01*
X687Y557D02*
X705Y557D01*
X728Y557D02*
X746Y557D01*
X769Y557D02*
X786Y557D01*
X809Y557D02*
X827Y557D01*
X79Y556D02*
X96Y556D01*
X119Y556D02*
X136Y556D01*
X159Y556D02*
X177Y556D01*
X200Y556D02*
X218Y556D01*
X241Y556D02*
X259Y556D01*
X283Y556D02*
X302Y556D01*
X601Y556D02*
X620Y556D01*
X645Y556D02*
X663Y556D01*
X687Y556D02*
X705Y556D01*
X728Y556D02*
X746Y556D01*
X769Y556D02*
X787Y556D01*
X810Y556D02*
X827Y556D01*
X78Y555D02*
X96Y555D01*
X119Y555D02*
X136Y555D01*
X159Y555D02*
X176Y555D01*
X200Y555D02*
X217Y555D01*
X241Y555D02*
X259Y555D01*
X283Y555D02*
X302Y555D01*
X602Y555D02*
X621Y555D01*
X645Y555D02*
X664Y555D01*
X687Y555D02*
X705Y555D01*
X729Y555D02*
X746Y555D01*
X769Y555D02*
X787Y555D01*
X810Y555D02*
X827Y555D01*
X78Y554D02*
X95Y554D01*
X118Y554D02*
X136Y554D01*
X159Y554D02*
X176Y554D01*
X199Y554D02*
X217Y554D01*
X240Y554D02*
X259Y554D01*
X283Y554D02*
X301Y554D01*
X602Y554D02*
X621Y554D01*
X646Y554D02*
X664Y554D01*
X688Y554D02*
X705Y554D01*
X729Y554D02*
X746Y554D01*
X770Y554D02*
X787Y554D01*
X810Y554D02*
X827Y554D01*
X78Y553D02*
X95Y553D01*
X118Y553D02*
X135Y553D01*
X158Y553D02*
X176Y553D01*
X199Y553D02*
X217Y553D01*
X240Y553D02*
X258Y553D01*
X282Y553D02*
X301Y553D01*
X603Y553D02*
X622Y553D01*
X646Y553D02*
X664Y553D01*
X688Y553D02*
X706Y553D01*
X729Y553D02*
X747Y553D01*
X770Y553D02*
X787Y553D01*
X810Y553D02*
X828Y553D01*
X78Y552D02*
X95Y552D01*
X118Y552D02*
X135Y552D01*
X158Y552D02*
X176Y552D01*
X199Y552D02*
X216Y552D01*
X240Y552D02*
X258Y552D01*
X282Y552D02*
X300Y552D01*
X603Y552D02*
X622Y552D01*
X647Y552D02*
X665Y552D01*
X688Y552D02*
X706Y552D01*
X730Y552D02*
X747Y552D01*
X770Y552D02*
X788Y552D01*
X811Y552D02*
X828Y552D01*
X78Y551D02*
X95Y551D01*
X118Y551D02*
X135Y551D01*
X158Y551D02*
X175Y551D01*
X199Y551D02*
X216Y551D01*
X240Y551D02*
X257Y551D01*
X281Y551D02*
X300Y551D01*
X604Y551D02*
X623Y551D01*
X647Y551D02*
X665Y551D01*
X689Y551D02*
X706Y551D01*
X730Y551D02*
X747Y551D01*
X770Y551D02*
X788Y551D01*
X811Y551D02*
X828Y551D01*
X78Y550D02*
X95Y550D01*
X117Y550D02*
X135Y550D01*
X158Y550D02*
X175Y550D01*
X198Y550D02*
X216Y550D01*
X239Y550D02*
X257Y550D01*
X281Y550D02*
X299Y550D01*
X604Y550D02*
X623Y550D01*
X647Y550D02*
X665Y550D01*
X689Y550D02*
X707Y550D01*
X730Y550D02*
X748Y550D01*
X771Y550D02*
X788Y550D01*
X811Y550D02*
X828Y550D01*
X77Y549D02*
X94Y549D01*
X117Y549D02*
X135Y549D01*
X158Y549D02*
X175Y549D01*
X198Y549D02*
X215Y549D01*
X239Y549D02*
X257Y549D01*
X281Y549D02*
X299Y549D01*
X605Y549D02*
X624Y549D01*
X648Y549D02*
X666Y549D01*
X689Y549D02*
X707Y549D01*
X730Y549D02*
X748Y549D01*
X771Y549D02*
X788Y549D01*
X811Y549D02*
X828Y549D01*
X77Y548D02*
X94Y548D01*
X117Y548D02*
X134Y548D01*
X157Y548D02*
X175Y548D01*
X198Y548D02*
X215Y548D01*
X239Y548D02*
X256Y548D01*
X280Y548D02*
X298Y548D01*
X605Y548D02*
X624Y548D01*
X648Y548D02*
X666Y548D01*
X690Y548D02*
X707Y548D01*
X731Y548D02*
X748Y548D01*
X771Y548D02*
X788Y548D01*
X811Y548D02*
X829Y548D01*
X77Y547D02*
X94Y547D01*
X117Y547D02*
X134Y547D01*
X157Y547D02*
X174Y547D01*
X197Y547D02*
X215Y547D01*
X238Y547D02*
X256Y547D01*
X280Y547D02*
X298Y547D01*
X606Y547D02*
X624Y547D01*
X648Y547D02*
X666Y547D01*
X690Y547D02*
X708Y547D01*
X731Y547D02*
X748Y547D01*
X771Y547D02*
X789Y547D01*
X812Y547D02*
X829Y547D01*
X77Y546D02*
X94Y546D01*
X117Y546D02*
X134Y546D01*
X157Y546D02*
X174Y546D01*
X197Y546D02*
X215Y546D01*
X238Y546D02*
X256Y546D01*
X279Y546D02*
X298Y546D01*
X606Y546D02*
X625Y546D01*
X649Y546D02*
X667Y546D01*
X690Y546D02*
X708Y546D01*
X731Y546D02*
X749Y546D01*
X772Y546D02*
X789Y546D01*
X812Y546D02*
X829Y546D01*
X77Y545D02*
X94Y545D01*
X117Y545D02*
X134Y545D01*
X157Y545D02*
X174Y545D01*
X197Y545D02*
X214Y545D01*
X238Y545D02*
X255Y545D01*
X279Y545D02*
X297Y545D01*
X607Y545D02*
X625Y545D01*
X649Y545D02*
X667Y545D01*
X691Y545D02*
X708Y545D01*
X731Y545D02*
X749Y545D01*
X772Y545D02*
X789Y545D01*
X812Y545D02*
X829Y545D01*
X77Y544D02*
X94Y544D01*
X116Y544D02*
X134Y544D01*
X156Y544D02*
X174Y544D01*
X197Y544D02*
X214Y544D01*
X237Y544D02*
X255Y544D01*
X279Y544D02*
X297Y544D01*
X607Y544D02*
X626Y544D01*
X650Y544D02*
X667Y544D01*
X691Y544D02*
X708Y544D01*
X732Y544D02*
X749Y544D01*
X772Y544D02*
X789Y544D01*
X812Y544D02*
X829Y544D01*
X76Y543D02*
X93Y543D01*
X116Y543D02*
X133Y543D01*
X156Y543D02*
X174Y543D01*
X196Y543D02*
X214Y543D01*
X237Y543D02*
X255Y543D01*
X278Y543D02*
X296Y543D01*
X608Y543D02*
X626Y543D01*
X650Y543D02*
X668Y543D01*
X691Y543D02*
X709Y543D01*
X732Y543D02*
X749Y543D01*
X772Y543D02*
X789Y543D01*
X812Y543D02*
X830Y543D01*
X76Y542D02*
X93Y542D01*
X116Y542D02*
X133Y542D01*
X156Y542D02*
X173Y542D01*
X196Y542D02*
X214Y542D01*
X237Y542D02*
X254Y542D01*
X278Y542D02*
X296Y542D01*
X608Y542D02*
X626Y542D01*
X650Y542D02*
X668Y542D01*
X691Y542D02*
X709Y542D01*
X732Y542D02*
X750Y542D01*
X772Y542D02*
X790Y542D01*
X813Y542D02*
X830Y542D01*
X76Y541D02*
X93Y541D01*
X116Y541D02*
X133Y541D01*
X156Y541D02*
X173Y541D01*
X196Y541D02*
X213Y541D01*
X237Y541D02*
X254Y541D01*
X278Y541D02*
X296Y541D01*
X609Y541D02*
X627Y541D01*
X651Y541D02*
X668Y541D01*
X692Y541D02*
X709Y541D01*
X732Y541D02*
X750Y541D01*
X773Y541D02*
X790Y541D01*
X813Y541D02*
X830Y541D01*
X76Y540D02*
X93Y540D01*
X116Y540D02*
X133Y540D01*
X156Y540D02*
X173Y540D01*
X196Y540D02*
X213Y540D01*
X236Y540D02*
X254Y540D01*
X277Y540D02*
X295Y540D01*
X609Y540D02*
X627Y540D01*
X651Y540D02*
X669Y540D01*
X692Y540D02*
X709Y540D01*
X733Y540D02*
X750Y540D01*
X773Y540D02*
X790Y540D01*
X813Y540D02*
X830Y540D01*
X76Y539D02*
X93Y539D01*
X116Y539D02*
X133Y539D01*
X155Y539D02*
X173Y539D01*
X196Y539D02*
X213Y539D01*
X236Y539D02*
X253Y539D01*
X277Y539D02*
X295Y539D01*
X609Y539D02*
X628Y539D01*
X651Y539D02*
X669Y539D01*
X692Y539D02*
X710Y539D01*
X733Y539D02*
X750Y539D01*
X773Y539D02*
X790Y539D01*
X813Y539D02*
X830Y539D01*
X76Y538D02*
X93Y538D01*
X115Y538D02*
X132Y538D01*
X155Y538D02*
X172Y538D01*
X195Y538D02*
X213Y538D01*
X236Y538D02*
X253Y538D01*
X277Y538D02*
X294Y538D01*
X610Y538D02*
X628Y538D01*
X652Y538D02*
X669Y538D01*
X693Y538D02*
X710Y538D01*
X733Y538D02*
X750Y538D01*
X773Y538D02*
X791Y538D01*
X813Y538D02*
X831Y538D01*
X75Y537D02*
X92Y537D01*
X115Y537D02*
X132Y537D01*
X155Y537D02*
X172Y537D01*
X195Y537D02*
X212Y537D01*
X235Y537D02*
X253Y537D01*
X276Y537D02*
X294Y537D01*
X610Y537D02*
X628Y537D01*
X652Y537D02*
X670Y537D01*
X693Y537D02*
X710Y537D01*
X733Y537D02*
X751Y537D01*
X773Y537D02*
X791Y537D01*
X814Y537D02*
X831Y537D01*
X75Y536D02*
X92Y536D01*
X115Y536D02*
X132Y536D01*
X155Y536D02*
X172Y536D01*
X195Y536D02*
X212Y536D01*
X235Y536D02*
X253Y536D01*
X276Y536D02*
X294Y536D01*
X611Y536D02*
X629Y536D01*
X652Y536D02*
X670Y536D01*
X693Y536D02*
X711Y536D01*
X734Y536D02*
X751Y536D01*
X774Y536D02*
X791Y536D01*
X814Y536D02*
X831Y536D01*
X75Y535D02*
X92Y535D01*
X115Y535D02*
X132Y535D01*
X155Y535D02*
X172Y535D01*
X195Y535D02*
X212Y535D01*
X235Y535D02*
X252Y535D01*
X276Y535D02*
X293Y535D01*
X611Y535D02*
X629Y535D01*
X653Y535D02*
X670Y535D01*
X693Y535D02*
X711Y535D01*
X734Y535D02*
X751Y535D01*
X774Y535D02*
X791Y535D01*
X814Y535D02*
X831Y535D01*
X75Y534D02*
X92Y534D01*
X115Y534D02*
X132Y534D01*
X155Y534D02*
X172Y534D01*
X195Y534D02*
X212Y534D01*
X235Y534D02*
X252Y534D01*
X275Y534D02*
X293Y534D01*
X611Y534D02*
X629Y534D01*
X653Y534D02*
X670Y534D01*
X694Y534D02*
X711Y534D01*
X734Y534D02*
X751Y534D01*
X774Y534D02*
X791Y534D01*
X814Y534D02*
X831Y534D01*
X75Y533D02*
X92Y533D01*
X115Y533D02*
X132Y533D01*
X154Y533D02*
X172Y533D01*
X194Y533D02*
X212Y533D01*
X234Y533D02*
X252Y533D01*
X275Y533D02*
X293Y533D01*
X612Y533D02*
X630Y533D01*
X653Y533D02*
X671Y533D01*
X694Y533D02*
X711Y533D01*
X734Y533D02*
X751Y533D01*
X774Y533D02*
X792Y533D01*
X814Y533D02*
X831Y533D01*
X75Y532D02*
X92Y532D01*
X114Y532D02*
X131Y532D01*
X154Y532D02*
X171Y532D01*
X194Y532D02*
X211Y532D01*
X234Y532D02*
X252Y532D01*
X275Y532D02*
X292Y532D01*
X612Y532D02*
X630Y532D01*
X653Y532D02*
X671Y532D01*
X694Y532D02*
X711Y532D01*
X734Y532D02*
X752Y532D01*
X774Y532D02*
X792Y532D01*
X814Y532D02*
X831Y532D01*
X75Y531D02*
X92Y531D01*
X114Y531D02*
X131Y531D01*
X154Y531D02*
X171Y531D01*
X194Y531D02*
X211Y531D01*
X234Y531D02*
X251Y531D01*
X275Y531D02*
X292Y531D01*
X612Y531D02*
X630Y531D01*
X654Y531D02*
X671Y531D01*
X694Y531D02*
X712Y531D01*
X735Y531D02*
X752Y531D01*
X775Y531D02*
X792Y531D01*
X815Y531D02*
X832Y531D01*
X74Y530D02*
X91Y530D01*
X114Y530D02*
X131Y530D01*
X154Y530D02*
X171Y530D01*
X194Y530D02*
X211Y530D01*
X234Y530D02*
X251Y530D01*
X274Y530D02*
X292Y530D01*
X613Y530D02*
X631Y530D01*
X654Y530D02*
X671Y530D01*
X695Y530D02*
X712Y530D01*
X735Y530D02*
X752Y530D01*
X775Y530D02*
X792Y530D01*
X815Y530D02*
X832Y530D01*
X74Y529D02*
X91Y529D01*
X114Y529D02*
X131Y529D01*
X154Y529D02*
X171Y529D01*
X194Y529D02*
X211Y529D01*
X234Y529D02*
X251Y529D01*
X274Y529D02*
X292Y529D01*
X613Y529D02*
X631Y529D01*
X654Y529D02*
X672Y529D01*
X695Y529D02*
X712Y529D01*
X735Y529D02*
X752Y529D01*
X775Y529D02*
X792Y529D01*
X815Y529D02*
X832Y529D01*
X74Y528D02*
X91Y528D01*
X114Y528D02*
X131Y528D01*
X154Y528D02*
X171Y528D01*
X193Y528D02*
X211Y528D01*
X233Y528D02*
X251Y528D01*
X274Y528D02*
X291Y528D01*
X613Y528D02*
X631Y528D01*
X655Y528D02*
X672Y528D01*
X695Y528D02*
X712Y528D01*
X735Y528D02*
X752Y528D01*
X775Y528D02*
X792Y528D01*
X815Y528D02*
X832Y528D01*
X74Y527D02*
X91Y527D01*
X114Y527D02*
X131Y527D01*
X153Y527D02*
X171Y527D01*
X193Y527D02*
X210Y527D01*
X233Y527D02*
X251Y527D01*
X274Y527D02*
X291Y527D01*
X614Y527D02*
X632Y527D01*
X655Y527D02*
X672Y527D01*
X695Y527D02*
X712Y527D01*
X735Y527D02*
X753Y527D01*
X775Y527D02*
X792Y527D01*
X815Y527D02*
X832Y527D01*
X74Y526D02*
X91Y526D01*
X114Y526D02*
X131Y526D01*
X153Y526D02*
X170Y526D01*
X193Y526D02*
X210Y526D01*
X233Y526D02*
X250Y526D01*
X273Y526D02*
X291Y526D01*
X614Y526D02*
X632Y526D01*
X655Y526D02*
X672Y526D01*
X695Y526D02*
X713Y526D01*
X736Y526D02*
X753Y526D01*
X775Y526D02*
X793Y526D01*
X815Y526D02*
X832Y526D01*
X74Y525D02*
X91Y525D01*
X114Y525D02*
X130Y525D01*
X153Y525D02*
X170Y525D01*
X193Y525D02*
X210Y525D01*
X233Y525D02*
X250Y525D01*
X273Y525D02*
X290Y525D01*
X614Y525D02*
X632Y525D01*
X655Y525D02*
X673Y525D01*
X696Y525D02*
X713Y525D01*
X736Y525D02*
X753Y525D01*
X776Y525D02*
X793Y525D01*
X815Y525D02*
X832Y525D01*
X74Y524D02*
X91Y524D01*
X113Y524D02*
X130Y524D01*
X153Y524D02*
X170Y524D01*
X193Y524D02*
X210Y524D01*
X233Y524D02*
X250Y524D01*
X273Y524D02*
X290Y524D01*
X615Y524D02*
X632Y524D01*
X656Y524D02*
X673Y524D01*
X696Y524D02*
X713Y524D01*
X736Y524D02*
X753Y524D01*
X776Y524D02*
X793Y524D01*
X816Y524D02*
X833Y524D01*
X74Y523D02*
X91Y523D01*
X113Y523D02*
X130Y523D01*
X153Y523D02*
X170Y523D01*
X193Y523D02*
X210Y523D01*
X232Y523D02*
X250Y523D01*
X273Y523D02*
X290Y523D01*
X615Y523D02*
X633Y523D01*
X656Y523D02*
X673Y523D01*
X696Y523D02*
X713Y523D01*
X736Y523D02*
X753Y523D01*
X776Y523D02*
X793Y523D01*
X816Y523D02*
X833Y523D01*
X74Y522D02*
X91Y522D01*
X113Y522D02*
X130Y522D01*
X153Y522D02*
X170Y522D01*
X192Y522D02*
X210Y522D01*
X232Y522D02*
X249Y522D01*
X272Y522D02*
X290Y522D01*
X615Y522D02*
X633Y522D01*
X656Y522D02*
X673Y522D01*
X696Y522D02*
X714Y522D01*
X736Y522D02*
X753Y522D01*
X776Y522D02*
X793Y522D01*
X816Y522D02*
X833Y522D01*
X73Y521D02*
X90Y521D01*
X113Y521D02*
X130Y521D01*
X153Y521D02*
X170Y521D01*
X192Y521D02*
X209Y521D01*
X232Y521D02*
X249Y521D01*
X272Y521D02*
X289Y521D01*
X616Y521D02*
X633Y521D01*
X656Y521D02*
X674Y521D01*
X696Y521D02*
X714Y521D01*
X736Y521D02*
X754Y521D01*
X776Y521D02*
X793Y521D01*
X816Y521D02*
X833Y521D01*
X73Y520D02*
X90Y520D01*
X113Y520D02*
X130Y520D01*
X153Y520D02*
X170Y520D01*
X192Y520D02*
X209Y520D01*
X232Y520D02*
X249Y520D01*
X272Y520D02*
X289Y520D01*
X616Y520D02*
X633Y520D01*
X657Y520D02*
X674Y520D01*
X697Y520D02*
X714Y520D01*
X737Y520D02*
X754Y520D01*
X776Y520D02*
X793Y520D01*
X816Y520D02*
X833Y520D01*
X73Y519D02*
X90Y519D01*
X113Y519D02*
X130Y519D01*
X152Y519D02*
X169Y519D01*
X192Y519D02*
X209Y519D01*
X232Y519D02*
X249Y519D01*
X272Y519D02*
X289Y519D01*
X616Y519D02*
X634Y519D01*
X657Y519D02*
X674Y519D01*
X697Y519D02*
X714Y519D01*
X737Y519D02*
X754Y519D01*
X777Y519D02*
X794Y519D01*
X816Y519D02*
X833Y519D01*
X73Y518D02*
X90Y518D01*
X113Y518D02*
X130Y518D01*
X152Y518D02*
X169Y518D01*
X192Y518D02*
X209Y518D01*
X232Y518D02*
X249Y518D01*
X272Y518D02*
X289Y518D01*
X616Y518D02*
X634Y518D01*
X657Y518D02*
X674Y518D01*
X697Y518D02*
X714Y518D01*
X737Y518D02*
X754Y518D01*
X777Y518D02*
X794Y518D01*
X816Y518D02*
X833Y518D01*
X73Y517D02*
X90Y517D01*
X113Y517D02*
X130Y517D01*
X152Y517D02*
X169Y517D01*
X192Y517D02*
X209Y517D01*
X232Y517D02*
X249Y517D01*
X271Y517D02*
X289Y517D01*
X617Y517D02*
X634Y517D01*
X657Y517D02*
X674Y517D01*
X697Y517D02*
X714Y517D01*
X737Y517D02*
X754Y517D01*
X777Y517D02*
X794Y517D01*
X816Y517D02*
X834Y517D01*
X73Y516D02*
X90Y516D01*
X113Y516D02*
X129Y516D01*
X152Y516D02*
X169Y516D01*
X192Y516D02*
X209Y516D01*
X231Y516D02*
X248Y516D01*
X271Y516D02*
X288Y516D01*
X617Y516D02*
X634Y516D01*
X657Y516D02*
X675Y516D01*
X697Y516D02*
X715Y516D01*
X737Y516D02*
X754Y516D01*
X777Y516D02*
X794Y516D01*
X817Y516D02*
X834Y516D01*
X73Y515D02*
X90Y515D01*
X112Y515D02*
X129Y515D01*
X152Y515D02*
X169Y515D01*
X192Y515D02*
X208Y515D01*
X231Y515D02*
X248Y515D01*
X271Y515D02*
X288Y515D01*
X617Y515D02*
X635Y515D01*
X658Y515D02*
X675Y515D01*
X698Y515D02*
X715Y515D01*
X737Y515D02*
X754Y515D01*
X777Y515D02*
X794Y515D01*
X817Y515D02*
X834Y515D01*
X73Y514D02*
X90Y514D01*
X112Y514D02*
X129Y514D01*
X152Y514D02*
X169Y514D01*
X191Y514D02*
X208Y514D01*
X231Y514D02*
X248Y514D01*
X271Y514D02*
X288Y514D01*
X618Y514D02*
X635Y514D01*
X658Y514D02*
X675Y514D01*
X698Y514D02*
X715Y514D01*
X738Y514D02*
X755Y514D01*
X777Y514D02*
X794Y514D01*
X817Y514D02*
X834Y514D01*
X73Y513D02*
X90Y513D01*
X112Y513D02*
X129Y513D01*
X152Y513D02*
X169Y513D01*
X191Y513D02*
X208Y513D01*
X231Y513D02*
X248Y513D01*
X271Y513D02*
X288Y513D01*
X618Y513D02*
X635Y513D01*
X658Y513D02*
X675Y513D01*
X698Y513D02*
X715Y513D01*
X738Y513D02*
X755Y513D01*
X777Y513D02*
X794Y513D01*
X817Y513D02*
X834Y513D01*
X73Y512D02*
X90Y512D01*
X112Y512D02*
X129Y512D01*
X152Y512D02*
X169Y512D01*
X191Y512D02*
X208Y512D01*
X231Y512D02*
X248Y512D01*
X270Y512D02*
X288Y512D01*
X618Y512D02*
X635Y512D01*
X658Y512D02*
X675Y512D01*
X698Y512D02*
X715Y512D01*
X738Y512D02*
X755Y512D01*
X778Y512D02*
X794Y512D01*
X817Y512D02*
X834Y512D01*
X73Y511D02*
X90Y511D01*
X112Y511D02*
X129Y511D01*
X152Y511D02*
X169Y511D01*
X191Y511D02*
X208Y511D01*
X231Y511D02*
X248Y511D01*
X270Y511D02*
X287Y511D01*
X618Y511D02*
X636Y511D01*
X658Y511D02*
X675Y511D01*
X698Y511D02*
X715Y511D01*
X738Y511D02*
X755Y511D01*
X778Y511D02*
X795Y511D01*
X817Y511D02*
X834Y511D01*
X73Y510D02*
X90Y510D01*
X112Y510D02*
X129Y510D01*
X151Y510D02*
X168Y510D01*
X191Y510D02*
X208Y510D01*
X231Y510D02*
X248Y510D01*
X270Y510D02*
X287Y510D01*
X618Y510D02*
X636Y510D01*
X659Y510D02*
X676Y510D01*
X698Y510D02*
X715Y510D01*
X738Y510D02*
X755Y510D01*
X778Y510D02*
X795Y510D01*
X817Y510D02*
X834Y510D01*
X73Y509D02*
X89Y509D01*
X112Y509D02*
X129Y509D01*
X151Y509D02*
X168Y509D01*
X191Y509D02*
X208Y509D01*
X230Y509D02*
X247Y509D01*
X270Y509D02*
X287Y509D01*
X619Y509D02*
X636Y509D01*
X659Y509D02*
X676Y509D01*
X699Y509D02*
X716Y509D01*
X738Y509D02*
X755Y509D01*
X778Y509D02*
X795Y509D01*
X817Y509D02*
X834Y509D01*
X72Y508D02*
X89Y508D01*
X112Y508D02*
X129Y508D01*
X151Y508D02*
X168Y508D01*
X191Y508D02*
X208Y508D01*
X230Y508D02*
X247Y508D01*
X270Y508D02*
X287Y508D01*
X619Y508D02*
X636Y508D01*
X659Y508D02*
X676Y508D01*
X699Y508D02*
X716Y508D01*
X738Y508D02*
X755Y508D01*
X778Y508D02*
X795Y508D01*
X817Y508D02*
X834Y508D01*
X72Y507D02*
X89Y507D01*
X112Y507D02*
X129Y507D01*
X151Y507D02*
X168Y507D01*
X191Y507D02*
X208Y507D01*
X230Y507D02*
X247Y507D01*
X270Y507D02*
X287Y507D01*
X619Y507D02*
X636Y507D01*
X659Y507D02*
X676Y507D01*
X699Y507D02*
X716Y507D01*
X739Y507D02*
X755Y507D01*
X778Y507D02*
X795Y507D01*
X818Y507D02*
X834Y507D01*
X72Y506D02*
X89Y506D01*
X112Y506D02*
X129Y506D01*
X151Y506D02*
X168Y506D01*
X191Y506D02*
X208Y506D01*
X230Y506D02*
X247Y506D01*
X270Y506D02*
X287Y506D01*
X619Y506D02*
X636Y506D01*
X659Y506D02*
X676Y506D01*
X699Y506D02*
X716Y506D01*
X739Y506D02*
X756Y506D01*
X778Y506D02*
X795Y506D01*
X818Y506D02*
X835Y506D01*
X72Y505D02*
X89Y505D01*
X112Y505D02*
X129Y505D01*
X151Y505D02*
X168Y505D01*
X190Y505D02*
X207Y505D01*
X230Y505D02*
X247Y505D01*
X269Y505D02*
X287Y505D01*
X620Y505D02*
X637Y505D01*
X659Y505D02*
X676Y505D01*
X699Y505D02*
X716Y505D01*
X739Y505D02*
X756Y505D01*
X778Y505D02*
X795Y505D01*
X818Y505D02*
X835Y505D01*
X72Y504D02*
X89Y504D01*
X112Y504D02*
X129Y504D01*
X151Y504D02*
X168Y504D01*
X190Y504D02*
X207Y504D01*
X230Y504D02*
X247Y504D01*
X269Y504D02*
X286Y504D01*
X620Y504D02*
X637Y504D01*
X660Y504D02*
X677Y504D01*
X699Y504D02*
X716Y504D01*
X739Y504D02*
X756Y504D01*
X778Y504D02*
X795Y504D01*
X818Y504D02*
X835Y504D01*
X72Y503D02*
X89Y503D01*
X112Y503D02*
X128Y503D01*
X151Y503D02*
X168Y503D01*
X190Y503D02*
X207Y503D01*
X230Y503D02*
X247Y503D01*
X269Y503D02*
X286Y503D01*
X620Y503D02*
X637Y503D01*
X660Y503D02*
X677Y503D01*
X699Y503D02*
X716Y503D01*
X739Y503D02*
X756Y503D01*
X778Y503D02*
X795Y503D01*
X818Y503D02*
X835Y503D01*
X72Y502D02*
X89Y502D01*
X112Y502D02*
X128Y502D01*
X151Y502D02*
X168Y502D01*
X190Y502D02*
X207Y502D01*
X230Y502D02*
X247Y502D01*
X269Y502D02*
X286Y502D01*
X620Y502D02*
X637Y502D01*
X660Y502D02*
X677Y502D01*
X699Y502D02*
X716Y502D01*
X739Y502D02*
X756Y502D01*
X779Y502D02*
X795Y502D01*
X818Y502D02*
X835Y502D01*
X72Y501D02*
X89Y501D01*
X111Y501D02*
X128Y501D01*
X151Y501D02*
X168Y501D01*
X190Y501D02*
X207Y501D01*
X230Y501D02*
X247Y501D01*
X269Y501D02*
X286Y501D01*
X620Y501D02*
X637Y501D01*
X660Y501D02*
X677Y501D01*
X700Y501D02*
X717Y501D01*
X739Y501D02*
X756Y501D01*
X779Y501D02*
X796Y501D01*
X818Y501D02*
X835Y501D01*
X72Y500D02*
X89Y500D01*
X111Y500D02*
X128Y500D01*
X151Y500D02*
X168Y500D01*
X190Y500D02*
X207Y500D01*
X230Y500D02*
X246Y500D01*
X269Y500D02*
X286Y500D01*
X620Y500D02*
X637Y500D01*
X660Y500D02*
X677Y500D01*
X700Y500D02*
X717Y500D01*
X739Y500D02*
X756Y500D01*
X779Y500D02*
X796Y500D01*
X818Y500D02*
X835Y500D01*
X72Y499D02*
X89Y499D01*
X111Y499D02*
X128Y499D01*
X151Y499D02*
X168Y499D01*
X190Y499D02*
X207Y499D01*
X229Y499D02*
X246Y499D01*
X269Y499D02*
X286Y499D01*
X620Y499D02*
X638Y499D01*
X660Y499D02*
X677Y499D01*
X700Y499D02*
X717Y499D01*
X739Y499D02*
X756Y499D01*
X779Y499D02*
X796Y499D01*
X818Y499D02*
X835Y499D01*
X72Y498D02*
X89Y498D01*
X111Y498D02*
X128Y498D01*
X151Y498D02*
X168Y498D01*
X190Y498D02*
X207Y498D01*
X229Y498D02*
X246Y498D01*
X269Y498D02*
X286Y498D01*
X621Y498D02*
X638Y498D01*
X660Y498D02*
X677Y498D01*
X700Y498D02*
X717Y498D01*
X739Y498D02*
X756Y498D01*
X779Y498D02*
X796Y498D01*
X818Y498D02*
X835Y498D01*
X72Y497D02*
X89Y497D01*
X111Y497D02*
X128Y497D01*
X151Y497D02*
X168Y497D01*
X190Y497D02*
X207Y497D01*
X229Y497D02*
X246Y497D01*
X269Y497D02*
X286Y497D01*
X621Y497D02*
X638Y497D01*
X660Y497D02*
X677Y497D01*
X700Y497D02*
X717Y497D01*
X739Y497D02*
X756Y497D01*
X779Y497D02*
X796Y497D01*
X818Y497D02*
X835Y497D01*
X72Y496D02*
X89Y496D01*
X111Y496D02*
X128Y496D01*
X151Y496D02*
X167Y496D01*
X190Y496D02*
X207Y496D01*
X229Y496D02*
X246Y496D01*
X269Y496D02*
X286Y496D01*
X621Y496D02*
X638Y496D01*
X661Y496D02*
X678Y496D01*
X700Y496D02*
X717Y496D01*
X740Y496D02*
X757Y496D01*
X779Y496D02*
X796Y496D01*
X819Y496D02*
X835Y496D01*
X72Y495D02*
X89Y495D01*
X111Y495D02*
X128Y495D01*
X151Y495D02*
X167Y495D01*
X190Y495D02*
X207Y495D01*
X229Y495D02*
X246Y495D01*
X269Y495D02*
X286Y495D01*
X621Y495D02*
X638Y495D01*
X661Y495D02*
X678Y495D01*
X700Y495D02*
X717Y495D01*
X740Y495D02*
X757Y495D01*
X779Y495D02*
X796Y495D01*
X819Y495D02*
X835Y495D01*
X72Y494D02*
X89Y494D01*
X111Y494D02*
X128Y494D01*
X150Y494D02*
X167Y494D01*
X190Y494D02*
X207Y494D01*
X229Y494D02*
X246Y494D01*
X269Y494D02*
X285Y494D01*
X621Y494D02*
X638Y494D01*
X661Y494D02*
X678Y494D01*
X700Y494D02*
X717Y494D01*
X740Y494D02*
X757Y494D01*
X779Y494D02*
X796Y494D01*
X819Y494D02*
X835Y494D01*
X72Y493D02*
X89Y493D01*
X111Y493D02*
X128Y493D01*
X150Y493D02*
X167Y493D01*
X190Y493D02*
X207Y493D01*
X229Y493D02*
X246Y493D01*
X269Y493D02*
X285Y493D01*
X621Y493D02*
X638Y493D01*
X661Y493D02*
X678Y493D01*
X700Y493D02*
X717Y493D01*
X740Y493D02*
X757Y493D01*
X779Y493D02*
X796Y493D01*
X819Y493D02*
X836Y493D01*
X72Y492D02*
X89Y492D01*
X111Y492D02*
X128Y492D01*
X150Y492D02*
X167Y492D01*
X190Y492D02*
X207Y492D01*
X229Y492D02*
X246Y492D01*
X269Y492D02*
X285Y492D01*
X621Y492D02*
X638Y492D01*
X661Y492D02*
X678Y492D01*
X700Y492D02*
X717Y492D01*
X740Y492D02*
X757Y492D01*
X779Y492D02*
X796Y492D01*
X819Y492D02*
X836Y492D01*
X72Y491D02*
X89Y491D01*
X111Y491D02*
X128Y491D01*
X150Y491D02*
X167Y491D01*
X190Y491D02*
X207Y491D01*
X229Y491D02*
X246Y491D01*
X268Y491D02*
X285Y491D01*
X622Y491D02*
X639Y491D01*
X661Y491D02*
X678Y491D01*
X700Y491D02*
X717Y491D01*
X740Y491D02*
X757Y491D01*
X779Y491D02*
X796Y491D01*
X819Y491D02*
X836Y491D01*
X72Y490D02*
X89Y490D01*
X111Y490D02*
X128Y490D01*
X150Y490D02*
X167Y490D01*
X190Y490D02*
X207Y490D01*
X229Y490D02*
X246Y490D01*
X268Y490D02*
X285Y490D01*
X622Y490D02*
X639Y490D01*
X661Y490D02*
X678Y490D01*
X701Y490D02*
X718Y490D01*
X740Y490D02*
X757Y490D01*
X779Y490D02*
X796Y490D01*
X819Y490D02*
X836Y490D01*
X72Y489D02*
X89Y489D01*
X111Y489D02*
X128Y489D01*
X150Y489D02*
X167Y489D01*
X190Y489D02*
X207Y489D01*
X229Y489D02*
X246Y489D01*
X268Y489D02*
X285Y489D01*
X622Y489D02*
X639Y489D01*
X661Y489D02*
X678Y489D01*
X701Y489D02*
X718Y489D01*
X740Y489D02*
X757Y489D01*
X779Y489D02*
X796Y489D01*
X819Y489D02*
X836Y489D01*
X72Y488D02*
X89Y488D01*
X111Y488D02*
X128Y488D01*
X150Y488D02*
X167Y488D01*
X190Y488D02*
X207Y488D01*
X229Y488D02*
X246Y488D01*
X268Y488D02*
X285Y488D01*
X622Y488D02*
X639Y488D01*
X661Y488D02*
X678Y488D01*
X701Y488D02*
X718Y488D01*
X740Y488D02*
X757Y488D01*
X779Y488D02*
X796Y488D01*
X819Y488D02*
X836Y488D01*
X72Y487D02*
X89Y487D01*
X111Y487D02*
X128Y487D01*
X150Y487D02*
X167Y487D01*
X190Y487D02*
X207Y487D01*
X229Y487D02*
X246Y487D01*
X268Y487D02*
X285Y487D01*
X622Y487D02*
X639Y487D01*
X661Y487D02*
X678Y487D01*
X701Y487D02*
X718Y487D01*
X740Y487D02*
X757Y487D01*
X780Y487D02*
X796Y487D01*
X819Y487D02*
X836Y487D01*
X72Y486D02*
X89Y486D01*
X111Y486D02*
X128Y486D01*
X150Y486D02*
X167Y486D01*
X190Y486D02*
X207Y486D01*
X229Y486D02*
X246Y486D01*
X268Y486D02*
X285Y486D01*
X622Y486D02*
X639Y486D01*
X661Y486D02*
X678Y486D01*
X701Y486D02*
X718Y486D01*
X740Y486D02*
X757Y486D01*
X780Y486D02*
X796Y486D01*
X819Y486D02*
X836Y486D01*
X72Y485D02*
X89Y485D01*
X111Y485D02*
X128Y485D01*
X150Y485D02*
X167Y485D01*
X190Y485D02*
X207Y485D01*
X229Y485D02*
X246Y485D01*
X268Y485D02*
X285Y485D01*
X622Y485D02*
X639Y485D01*
X661Y485D02*
X678Y485D01*
X701Y485D02*
X718Y485D01*
X740Y485D02*
X757Y485D01*
X780Y485D02*
X796Y485D01*
X819Y485D02*
X836Y485D01*
X72Y484D02*
X89Y484D01*
X111Y484D02*
X128Y484D01*
X150Y484D02*
X167Y484D01*
X190Y484D02*
X207Y484D01*
X229Y484D02*
X246Y484D01*
X268Y484D02*
X285Y484D01*
X622Y484D02*
X639Y484D01*
X662Y484D02*
X678Y484D01*
X701Y484D02*
X718Y484D01*
X740Y484D02*
X757Y484D01*
X780Y484D02*
X797Y484D01*
X819Y484D02*
X836Y484D01*
X72Y483D02*
X89Y483D01*
X111Y483D02*
X128Y483D01*
X150Y483D02*
X167Y483D01*
X190Y483D02*
X207Y483D01*
X229Y483D02*
X246Y483D01*
X268Y483D02*
X285Y483D01*
X622Y483D02*
X639Y483D01*
X662Y483D02*
X678Y483D01*
X701Y483D02*
X718Y483D01*
X740Y483D02*
X757Y483D01*
X780Y483D02*
X797Y483D01*
X819Y483D02*
X836Y483D01*
X72Y482D02*
X89Y482D01*
X111Y482D02*
X128Y482D01*
X150Y482D02*
X167Y482D01*
X190Y482D02*
X207Y482D01*
X229Y482D02*
X246Y482D01*
X268Y482D02*
X285Y482D01*
X622Y482D02*
X639Y482D01*
X662Y482D02*
X679Y482D01*
X701Y482D02*
X718Y482D01*
X740Y482D02*
X757Y482D01*
X780Y482D02*
X797Y482D01*
X819Y482D02*
X836Y482D01*
X72Y481D02*
X89Y481D01*
X111Y481D02*
X128Y481D01*
X150Y481D02*
X167Y481D01*
X190Y481D02*
X207Y481D01*
X229Y481D02*
X246Y481D01*
X268Y481D02*
X285Y481D01*
X622Y481D02*
X639Y481D01*
X662Y481D02*
X679Y481D01*
X701Y481D02*
X718Y481D01*
X740Y481D02*
X757Y481D01*
X780Y481D02*
X797Y481D01*
X819Y481D02*
X836Y481D01*
X72Y480D02*
X89Y480D01*
X111Y480D02*
X128Y480D01*
X150Y480D02*
X167Y480D01*
X190Y480D02*
X207Y480D01*
X229Y480D02*
X246Y480D01*
X268Y480D02*
X285Y480D01*
X622Y480D02*
X639Y480D01*
X662Y480D02*
X679Y480D01*
X701Y480D02*
X718Y480D01*
X740Y480D02*
X757Y480D01*
X780Y480D02*
X797Y480D01*
X819Y480D02*
X836Y480D01*
X72Y479D02*
X89Y479D01*
X111Y479D02*
X128Y479D01*
X150Y479D02*
X167Y479D01*
X190Y479D02*
X207Y479D01*
X229Y479D02*
X246Y479D01*
X268Y479D02*
X285Y479D01*
X622Y479D02*
X639Y479D01*
X662Y479D02*
X679Y479D01*
X701Y479D02*
X718Y479D01*
X741Y479D02*
X757Y479D01*
X780Y479D02*
X797Y479D01*
X819Y479D02*
X836Y479D01*
X72Y478D02*
X89Y478D01*
X111Y478D02*
X128Y478D01*
X150Y478D02*
X167Y478D01*
X190Y478D02*
X207Y478D01*
X229Y478D02*
X246Y478D01*
X268Y478D02*
X285Y478D01*
X622Y478D02*
X639Y478D01*
X662Y478D02*
X679Y478D01*
X701Y478D02*
X718Y478D01*
X740Y478D02*
X757Y478D01*
X780Y478D02*
X797Y478D01*
X819Y478D02*
X836Y478D01*
X72Y477D02*
X89Y477D01*
X111Y477D02*
X128Y477D01*
X150Y477D02*
X167Y477D01*
X190Y477D02*
X207Y477D01*
X229Y477D02*
X246Y477D01*
X268Y477D02*
X285Y477D01*
X623Y477D02*
X639Y477D01*
X662Y477D02*
X679Y477D01*
X701Y477D02*
X718Y477D01*
X741Y477D02*
X757Y477D01*
X780Y477D02*
X797Y477D01*
X819Y477D02*
X836Y477D01*
X72Y476D02*
X89Y476D01*
X111Y476D02*
X128Y476D01*
X150Y476D02*
X167Y476D01*
X190Y476D02*
X207Y476D01*
X229Y476D02*
X246Y476D01*
X269Y476D02*
X285Y476D01*
X623Y476D02*
X639Y476D01*
X662Y476D02*
X679Y476D01*
X701Y476D02*
X718Y476D01*
X741Y476D02*
X757Y476D01*
X780Y476D02*
X797Y476D01*
X819Y476D02*
X836Y476D01*
X72Y475D02*
X89Y475D01*
X111Y475D02*
X128Y475D01*
X150Y475D02*
X167Y475D01*
X190Y475D02*
X207Y475D01*
X229Y475D02*
X246Y475D01*
X269Y475D02*
X285Y475D01*
X623Y475D02*
X639Y475D01*
X662Y475D02*
X679Y475D01*
X701Y475D02*
X718Y475D01*
X741Y475D02*
X757Y475D01*
X780Y475D02*
X797Y475D01*
X819Y475D02*
X836Y475D01*
X72Y474D02*
X89Y474D01*
X111Y474D02*
X128Y474D01*
X151Y474D02*
X167Y474D01*
X190Y474D02*
X207Y474D01*
X229Y474D02*
X246Y474D01*
X269Y474D02*
X286Y474D01*
X623Y474D02*
X639Y474D01*
X662Y474D02*
X679Y474D01*
X701Y474D02*
X718Y474D01*
X741Y474D02*
X757Y474D01*
X780Y474D02*
X797Y474D01*
X819Y474D02*
X836Y474D01*
X72Y473D02*
X89Y473D01*
X111Y473D02*
X128Y473D01*
X151Y473D02*
X167Y473D01*
X190Y473D02*
X207Y473D01*
X229Y473D02*
X246Y473D01*
X269Y473D02*
X286Y473D01*
X623Y473D02*
X639Y473D01*
X662Y473D02*
X679Y473D01*
X701Y473D02*
X718Y473D01*
X741Y473D02*
X757Y473D01*
X780Y473D02*
X797Y473D01*
X819Y473D02*
X836Y473D01*
X72Y472D02*
X89Y472D01*
X111Y472D02*
X128Y472D01*
X151Y472D02*
X168Y472D01*
X190Y472D02*
X207Y472D01*
X229Y472D02*
X246Y472D01*
X269Y472D02*
X286Y472D01*
X623Y472D02*
X639Y472D01*
X662Y472D02*
X679Y472D01*
X701Y472D02*
X718Y472D01*
X741Y472D02*
X757Y472D01*
X780Y472D02*
X797Y472D01*
X819Y472D02*
X836Y472D01*
X72Y471D02*
X89Y471D01*
X111Y471D02*
X128Y471D01*
X151Y471D02*
X168Y471D01*
X190Y471D02*
X207Y471D01*
X229Y471D02*
X246Y471D01*
X269Y471D02*
X286Y471D01*
X623Y471D02*
X639Y471D01*
X662Y471D02*
X679Y471D01*
X701Y471D02*
X718Y471D01*
X741Y471D02*
X757Y471D01*
X780Y471D02*
X797Y471D01*
X819Y471D02*
X836Y471D01*
X72Y470D02*
X89Y470D01*
X111Y470D02*
X128Y470D01*
X151Y470D02*
X168Y470D01*
X190Y470D02*
X207Y470D01*
X229Y470D02*
X246Y470D01*
X269Y470D02*
X286Y470D01*
X623Y470D02*
X639Y470D01*
X662Y470D02*
X679Y470D01*
X701Y470D02*
X718Y470D01*
X741Y470D02*
X757Y470D01*
X780Y470D02*
X797Y470D01*
X819Y470D02*
X836Y470D01*
X72Y469D02*
X89Y469D01*
X111Y469D02*
X128Y469D01*
X151Y469D02*
X168Y469D01*
X190Y469D02*
X207Y469D01*
X230Y469D02*
X246Y469D01*
X269Y469D02*
X286Y469D01*
X623Y469D02*
X639Y469D01*
X662Y469D02*
X679Y469D01*
X701Y469D02*
X718Y469D01*
X741Y469D02*
X757Y469D01*
X780Y469D02*
X797Y469D01*
X819Y469D02*
X836Y469D01*
X72Y468D02*
X89Y468D01*
X111Y468D02*
X128Y468D01*
X151Y468D02*
X168Y468D01*
X190Y468D02*
X207Y468D01*
X230Y468D02*
X247Y468D01*
X269Y468D02*
X286Y468D01*
X623Y468D02*
X639Y468D01*
X662Y468D02*
X679Y468D01*
X701Y468D02*
X718Y468D01*
X741Y468D02*
X757Y468D01*
X780Y468D02*
X797Y468D01*
X819Y468D02*
X836Y468D01*
X72Y467D02*
X89Y467D01*
X112Y467D02*
X128Y467D01*
X151Y467D02*
X168Y467D01*
X190Y467D02*
X207Y467D01*
X230Y467D02*
X247Y467D01*
X269Y467D02*
X286Y467D01*
X623Y467D02*
X639Y467D01*
X662Y467D02*
X679Y467D01*
X701Y467D02*
X718Y467D01*
X741Y467D02*
X757Y467D01*
X780Y467D02*
X797Y467D01*
X819Y467D02*
X836Y467D01*
X72Y466D02*
X89Y466D01*
X112Y466D02*
X128Y466D01*
X151Y466D02*
X168Y466D01*
X190Y466D02*
X207Y466D01*
X230Y466D02*
X247Y466D01*
X269Y466D02*
X286Y466D01*
X622Y466D02*
X639Y466D01*
X662Y466D02*
X679Y466D01*
X701Y466D02*
X718Y466D01*
X741Y466D02*
X757Y466D01*
X780Y466D02*
X797Y466D01*
X819Y466D02*
X836Y466D01*
X72Y465D02*
X89Y465D01*
X112Y465D02*
X128Y465D01*
X151Y465D02*
X168Y465D01*
X190Y465D02*
X207Y465D01*
X230Y465D02*
X247Y465D01*
X269Y465D02*
X286Y465D01*
X622Y465D02*
X639Y465D01*
X662Y465D02*
X679Y465D01*
X701Y465D02*
X718Y465D01*
X741Y465D02*
X757Y465D01*
X780Y465D02*
X797Y465D01*
X819Y465D02*
X836Y465D01*
X72Y464D02*
X89Y464D01*
X112Y464D02*
X129Y464D01*
X151Y464D02*
X168Y464D01*
X190Y464D02*
X207Y464D01*
X230Y464D02*
X247Y464D01*
X270Y464D02*
X287Y464D01*
X622Y464D02*
X639Y464D01*
X662Y464D02*
X679Y464D01*
X701Y464D02*
X718Y464D01*
X741Y464D02*
X757Y464D01*
X780Y464D02*
X797Y464D01*
X819Y464D02*
X836Y464D01*
X72Y463D02*
X89Y463D01*
X112Y463D02*
X129Y463D01*
X151Y463D02*
X168Y463D01*
X191Y463D02*
X208Y463D01*
X230Y463D02*
X247Y463D01*
X270Y463D02*
X287Y463D01*
X622Y463D02*
X639Y463D01*
X662Y463D02*
X679Y463D01*
X701Y463D02*
X718Y463D01*
X740Y463D02*
X757Y463D01*
X780Y463D02*
X797Y463D01*
X819Y463D02*
X836Y463D01*
X72Y462D02*
X89Y462D01*
X112Y462D02*
X129Y462D01*
X151Y462D02*
X168Y462D01*
X191Y462D02*
X208Y462D01*
X230Y462D02*
X247Y462D01*
X270Y462D02*
X287Y462D01*
X622Y462D02*
X639Y462D01*
X662Y462D02*
X679Y462D01*
X701Y462D02*
X718Y462D01*
X740Y462D02*
X757Y462D01*
X780Y462D02*
X797Y462D01*
X819Y462D02*
X836Y462D01*
X72Y461D02*
X89Y461D01*
X112Y461D02*
X129Y461D01*
X151Y461D02*
X168Y461D01*
X191Y461D02*
X208Y461D01*
X230Y461D02*
X247Y461D01*
X270Y461D02*
X287Y461D01*
X622Y461D02*
X639Y461D01*
X662Y461D02*
X678Y461D01*
X701Y461D02*
X718Y461D01*
X740Y461D02*
X757Y461D01*
X780Y461D02*
X797Y461D01*
X819Y461D02*
X836Y461D01*
X72Y460D02*
X89Y460D01*
X112Y460D02*
X129Y460D01*
X151Y460D02*
X168Y460D01*
X191Y460D02*
X208Y460D01*
X230Y460D02*
X247Y460D01*
X270Y460D02*
X287Y460D01*
X622Y460D02*
X639Y460D01*
X662Y460D02*
X678Y460D01*
X701Y460D02*
X718Y460D01*
X740Y460D02*
X757Y460D01*
X780Y460D02*
X797Y460D01*
X819Y460D02*
X836Y460D01*
X72Y459D02*
X89Y459D01*
X112Y459D02*
X129Y459D01*
X151Y459D02*
X168Y459D01*
X191Y459D02*
X208Y459D01*
X231Y459D02*
X247Y459D01*
X270Y459D02*
X287Y459D01*
X622Y459D02*
X639Y459D01*
X661Y459D02*
X678Y459D01*
X701Y459D02*
X718Y459D01*
X740Y459D02*
X757Y459D01*
X780Y459D02*
X797Y459D01*
X819Y459D02*
X836Y459D01*
X73Y458D02*
X90Y458D01*
X112Y458D02*
X129Y458D01*
X152Y458D02*
X169Y458D01*
X191Y458D02*
X208Y458D01*
X231Y458D02*
X248Y458D01*
X270Y458D02*
X287Y458D01*
X622Y458D02*
X639Y458D01*
X661Y458D02*
X678Y458D01*
X701Y458D02*
X718Y458D01*
X740Y458D02*
X757Y458D01*
X780Y458D02*
X797Y458D01*
X819Y458D02*
X836Y458D01*
X73Y457D02*
X90Y457D01*
X112Y457D02*
X129Y457D01*
X152Y457D02*
X169Y457D01*
X191Y457D02*
X208Y457D01*
X231Y457D02*
X248Y457D01*
X270Y457D02*
X288Y457D01*
X622Y457D02*
X639Y457D01*
X661Y457D02*
X678Y457D01*
X701Y457D02*
X718Y457D01*
X740Y457D02*
X757Y457D01*
X780Y457D02*
X796Y457D01*
X819Y457D02*
X836Y457D01*
X73Y456D02*
X90Y456D01*
X112Y456D02*
X129Y456D01*
X152Y456D02*
X169Y456D01*
X191Y456D02*
X208Y456D01*
X231Y456D02*
X248Y456D01*
X271Y456D02*
X288Y456D01*
X622Y456D02*
X639Y456D01*
X661Y456D02*
X678Y456D01*
X701Y456D02*
X718Y456D01*
X740Y456D02*
X757Y456D01*
X779Y456D02*
X796Y456D01*
X819Y456D02*
X836Y456D01*
X73Y455D02*
X90Y455D01*
X112Y455D02*
X129Y455D01*
X152Y455D02*
X169Y455D01*
X191Y455D02*
X208Y455D01*
X231Y455D02*
X248Y455D01*
X271Y455D02*
X288Y455D01*
X622Y455D02*
X639Y455D01*
X661Y455D02*
X678Y455D01*
X701Y455D02*
X718Y455D01*
X740Y455D02*
X757Y455D01*
X779Y455D02*
X796Y455D01*
X819Y455D02*
X836Y455D01*
X73Y454D02*
X90Y454D01*
X112Y454D02*
X129Y454D01*
X152Y454D02*
X169Y454D01*
X192Y454D02*
X209Y454D01*
X231Y454D02*
X248Y454D01*
X271Y454D02*
X288Y454D01*
X622Y454D02*
X639Y454D01*
X661Y454D02*
X678Y454D01*
X701Y454D02*
X717Y454D01*
X740Y454D02*
X757Y454D01*
X779Y454D02*
X796Y454D01*
X819Y454D02*
X836Y454D01*
X73Y453D02*
X90Y453D01*
X113Y453D02*
X129Y453D01*
X152Y453D02*
X169Y453D01*
X192Y453D02*
X209Y453D01*
X231Y453D02*
X248Y453D01*
X271Y453D02*
X288Y453D01*
X622Y453D02*
X639Y453D01*
X661Y453D02*
X678Y453D01*
X701Y453D02*
X717Y453D01*
X740Y453D02*
X757Y453D01*
X779Y453D02*
X796Y453D01*
X819Y453D02*
X836Y453D01*
X73Y452D02*
X90Y452D01*
X113Y452D02*
X130Y452D01*
X152Y452D02*
X169Y452D01*
X192Y452D02*
X209Y452D01*
X231Y452D02*
X249Y452D01*
X271Y452D02*
X289Y452D01*
X621Y452D02*
X638Y452D01*
X661Y452D02*
X678Y452D01*
X701Y452D02*
X717Y452D01*
X740Y452D02*
X757Y452D01*
X779Y452D02*
X796Y452D01*
X819Y452D02*
X836Y452D01*
X73Y451D02*
X90Y451D01*
X113Y451D02*
X130Y451D01*
X152Y451D02*
X169Y451D01*
X192Y451D02*
X209Y451D01*
X232Y451D02*
X249Y451D01*
X271Y451D02*
X289Y451D01*
X621Y451D02*
X638Y451D01*
X661Y451D02*
X678Y451D01*
X700Y451D02*
X717Y451D01*
X740Y451D02*
X757Y451D01*
X779Y451D02*
X796Y451D01*
X819Y451D02*
X836Y451D01*
X73Y450D02*
X90Y450D01*
X113Y450D02*
X130Y450D01*
X152Y450D02*
X169Y450D01*
X192Y450D02*
X209Y450D01*
X232Y450D02*
X249Y450D01*
X272Y450D02*
X289Y450D01*
X621Y450D02*
X638Y450D01*
X661Y450D02*
X678Y450D01*
X700Y450D02*
X717Y450D01*
X740Y450D02*
X757Y450D01*
X779Y450D02*
X796Y450D01*
X819Y450D02*
X835Y450D01*
X73Y449D02*
X90Y449D01*
X113Y449D02*
X130Y449D01*
X152Y449D02*
X169Y449D01*
X192Y449D02*
X209Y449D01*
X232Y449D02*
X249Y449D01*
X272Y449D02*
X289Y449D01*
X621Y449D02*
X638Y449D01*
X661Y449D02*
X678Y449D01*
X700Y449D02*
X717Y449D01*
X740Y449D02*
X757Y449D01*
X779Y449D02*
X796Y449D01*
X818Y449D02*
X835Y449D01*
X74Y448D02*
X90Y448D01*
X113Y448D02*
X130Y448D01*
X153Y448D02*
X170Y448D01*
X192Y448D02*
X209Y448D01*
X232Y448D02*
X249Y448D01*
X272Y448D02*
X289Y448D01*
X621Y448D02*
X638Y448D01*
X661Y448D02*
X678Y448D01*
X700Y448D02*
X717Y448D01*
X740Y448D02*
X757Y448D01*
X779Y448D02*
X796Y448D01*
X818Y448D02*
X835Y448D01*
X74Y447D02*
X91Y447D01*
X113Y447D02*
X130Y447D01*
X153Y447D02*
X170Y447D01*
X192Y447D02*
X210Y447D01*
X232Y447D02*
X249Y447D01*
X272Y447D02*
X290Y447D01*
X621Y447D02*
X638Y447D01*
X660Y447D02*
X677Y447D01*
X700Y447D02*
X717Y447D01*
X739Y447D02*
X756Y447D01*
X779Y447D02*
X796Y447D01*
X818Y447D02*
X835Y447D01*
X74Y446D02*
X91Y446D01*
X113Y446D02*
X130Y446D01*
X153Y446D02*
X170Y446D01*
X193Y446D02*
X210Y446D01*
X232Y446D02*
X250Y446D01*
X273Y446D02*
X290Y446D01*
X621Y446D02*
X638Y446D01*
X660Y446D02*
X677Y446D01*
X700Y446D02*
X717Y446D01*
X739Y446D02*
X756Y446D01*
X779Y446D02*
X796Y446D01*
X818Y446D02*
X835Y446D01*
X74Y445D02*
X91Y445D01*
X113Y445D02*
X130Y445D01*
X153Y445D02*
X170Y445D01*
X193Y445D02*
X210Y445D01*
X233Y445D02*
X250Y445D01*
X273Y445D02*
X290Y445D01*
X621Y445D02*
X638Y445D01*
X660Y445D02*
X677Y445D01*
X700Y445D02*
X717Y445D01*
X739Y445D02*
X756Y445D01*
X779Y445D02*
X796Y445D01*
X818Y445D02*
X835Y445D01*
X74Y444D02*
X91Y444D01*
X113Y444D02*
X130Y444D01*
X153Y444D02*
X170Y444D01*
X193Y444D02*
X210Y444D01*
X233Y444D02*
X250Y444D01*
X273Y444D02*
X290Y444D01*
X620Y444D02*
X637Y444D01*
X660Y444D02*
X677Y444D01*
X700Y444D02*
X717Y444D01*
X739Y444D02*
X756Y444D01*
X779Y444D02*
X796Y444D01*
X818Y444D02*
X835Y444D01*
X74Y443D02*
X91Y443D01*
X114Y443D02*
X131Y443D01*
X153Y443D02*
X170Y443D01*
X193Y443D02*
X210Y443D01*
X233Y443D02*
X250Y443D01*
X273Y443D02*
X291Y443D01*
X620Y443D02*
X637Y443D01*
X660Y443D02*
X677Y443D01*
X700Y443D02*
X717Y443D01*
X739Y443D02*
X756Y443D01*
X779Y443D02*
X796Y443D01*
X818Y443D02*
X835Y443D01*
X74Y442D02*
X91Y442D01*
X114Y442D02*
X131Y442D01*
X153Y442D02*
X171Y442D01*
X193Y442D02*
X210Y442D01*
X233Y442D02*
X250Y442D01*
X274Y442D02*
X291Y442D01*
X620Y442D02*
X637Y442D01*
X660Y442D02*
X677Y442D01*
X699Y442D02*
X716Y442D01*
X739Y442D02*
X756Y442D01*
X779Y442D02*
X796Y442D01*
X818Y442D02*
X835Y442D01*
X74Y441D02*
X91Y441D01*
X114Y441D02*
X131Y441D01*
X154Y441D02*
X171Y441D01*
X193Y441D02*
X211Y441D01*
X233Y441D02*
X251Y441D01*
X274Y441D02*
X291Y441D01*
X620Y441D02*
X637Y441D01*
X660Y441D02*
X677Y441D01*
X699Y441D02*
X716Y441D01*
X739Y441D02*
X756Y441D01*
X779Y441D02*
X795Y441D01*
X818Y441D02*
X835Y441D01*
X74Y440D02*
X91Y440D01*
X114Y440D02*
X131Y440D01*
X154Y440D02*
X171Y440D01*
X194Y440D02*
X211Y440D01*
X234Y440D02*
X251Y440D01*
X274Y440D02*
X292Y440D01*
X620Y440D02*
X637Y440D01*
X660Y440D02*
X677Y440D01*
X699Y440D02*
X716Y440D01*
X739Y440D02*
X756Y440D01*
X778Y440D02*
X795Y440D01*
X818Y440D02*
X835Y440D01*
X74Y439D02*
X91Y439D01*
X114Y439D02*
X131Y439D01*
X154Y439D02*
X171Y439D01*
X194Y439D02*
X211Y439D01*
X234Y439D02*
X251Y439D01*
X274Y439D02*
X292Y439D01*
X620Y439D02*
X637Y439D01*
X659Y439D02*
X676Y439D01*
X699Y439D02*
X716Y439D01*
X739Y439D02*
X756Y439D01*
X778Y439D02*
X795Y439D01*
X818Y439D02*
X835Y439D01*
X75Y438D02*
X92Y438D01*
X114Y438D02*
X131Y438D01*
X154Y438D02*
X171Y438D01*
X194Y438D02*
X211Y438D01*
X234Y438D02*
X251Y438D01*
X275Y438D02*
X292Y438D01*
X619Y438D02*
X637Y438D01*
X659Y438D02*
X676Y438D01*
X699Y438D02*
X716Y438D01*
X739Y438D02*
X756Y438D01*
X778Y438D02*
X795Y438D01*
X818Y438D02*
X835Y438D01*
X75Y437D02*
X92Y437D01*
X114Y437D02*
X132Y437D01*
X154Y437D02*
X171Y437D01*
X194Y437D02*
X211Y437D01*
X234Y437D02*
X252Y437D01*
X275Y437D02*
X292Y437D01*
X619Y437D02*
X636Y437D01*
X659Y437D02*
X676Y437D01*
X699Y437D02*
X716Y437D01*
X738Y437D02*
X755Y437D01*
X778Y437D02*
X795Y437D01*
X818Y437D02*
X835Y437D01*
X75Y436D02*
X92Y436D01*
X115Y436D02*
X132Y436D01*
X154Y436D02*
X171Y436D01*
X194Y436D02*
X212Y436D01*
X235Y436D02*
X252Y436D01*
X275Y436D02*
X293Y436D01*
X619Y436D02*
X636Y436D01*
X659Y436D02*
X676Y436D01*
X699Y436D02*
X716Y436D01*
X738Y436D02*
X755Y436D01*
X778Y436D02*
X795Y436D01*
X818Y436D02*
X835Y436D01*
X75Y435D02*
X92Y435D01*
X115Y435D02*
X132Y435D01*
X155Y435D02*
X172Y435D01*
X195Y435D02*
X212Y435D01*
X235Y435D02*
X252Y435D01*
X275Y435D02*
X293Y435D01*
X619Y435D02*
X636Y435D01*
X659Y435D02*
X676Y435D01*
X699Y435D02*
X716Y435D01*
X738Y435D02*
X755Y435D01*
X778Y435D02*
X795Y435D01*
X817Y435D02*
X834Y435D01*
X75Y434D02*
X92Y434D01*
X115Y434D02*
X132Y434D01*
X155Y434D02*
X172Y434D01*
X195Y434D02*
X212Y434D01*
X235Y434D02*
X252Y434D01*
X276Y434D02*
X293Y434D01*
X619Y434D02*
X636Y434D01*
X659Y434D02*
X676Y434D01*
X698Y434D02*
X716Y434D01*
X738Y434D02*
X755Y434D01*
X778Y434D02*
X795Y434D01*
X817Y434D02*
X834Y434D01*
X75Y433D02*
X92Y433D01*
X115Y433D02*
X132Y433D01*
X155Y433D02*
X172Y433D01*
X195Y433D02*
X212Y433D01*
X235Y433D02*
X253Y433D01*
X276Y433D02*
X294Y433D01*
X618Y433D02*
X636Y433D01*
X658Y433D02*
X676Y433D01*
X698Y433D02*
X715Y433D01*
X738Y433D02*
X755Y433D01*
X778Y433D02*
X795Y433D01*
X817Y433D02*
X834Y433D01*
X75Y432D02*
X92Y432D01*
X115Y432D02*
X132Y432D01*
X155Y432D02*
X172Y432D01*
X195Y432D02*
X212Y432D01*
X235Y432D02*
X253Y432D01*
X276Y432D02*
X294Y432D01*
X618Y432D02*
X635Y432D01*
X658Y432D02*
X675Y432D01*
X698Y432D02*
X715Y432D01*
X738Y432D02*
X755Y432D01*
X777Y432D02*
X794Y432D01*
X817Y432D02*
X834Y432D01*
X76Y431D02*
X93Y431D01*
X115Y431D02*
X132Y431D01*
X155Y431D02*
X172Y431D01*
X195Y431D02*
X213Y431D01*
X236Y431D02*
X253Y431D01*
X277Y431D02*
X294Y431D01*
X618Y431D02*
X635Y431D01*
X658Y431D02*
X675Y431D01*
X698Y431D02*
X715Y431D01*
X738Y431D02*
X755Y431D01*
X777Y431D02*
X794Y431D01*
X817Y431D02*
X834Y431D01*
X76Y430D02*
X93Y430D01*
X116Y430D02*
X133Y430D01*
X155Y430D02*
X173Y430D01*
X196Y430D02*
X213Y430D01*
X236Y430D02*
X254Y430D01*
X277Y430D02*
X295Y430D01*
X618Y430D02*
X635Y430D01*
X658Y430D02*
X675Y430D01*
X698Y430D02*
X715Y430D01*
X738Y430D02*
X755Y430D01*
X777Y430D02*
X794Y430D01*
X817Y430D02*
X834Y430D01*
X76Y429D02*
X93Y429D01*
X116Y429D02*
X133Y429D01*
X156Y429D02*
X173Y429D01*
X196Y429D02*
X213Y429D01*
X236Y429D02*
X254Y429D01*
X277Y429D02*
X295Y429D01*
X617Y429D02*
X635Y429D01*
X658Y429D02*
X675Y429D01*
X698Y429D02*
X715Y429D01*
X737Y429D02*
X755Y429D01*
X777Y429D02*
X794Y429D01*
X817Y429D02*
X834Y429D01*
X76Y428D02*
X93Y428D01*
X116Y428D02*
X133Y428D01*
X156Y428D02*
X173Y428D01*
X196Y428D02*
X213Y428D01*
X237Y428D02*
X254Y428D01*
X278Y428D02*
X296Y428D01*
X617Y428D02*
X635Y428D01*
X657Y428D02*
X675Y428D01*
X697Y428D02*
X715Y428D01*
X737Y428D02*
X754Y428D01*
X777Y428D02*
X794Y428D01*
X817Y428D02*
X834Y428D01*
X76Y427D02*
X93Y427D01*
X116Y427D02*
X133Y427D01*
X156Y427D02*
X173Y427D01*
X196Y427D02*
X214Y427D01*
X237Y427D02*
X254Y427D01*
X278Y427D02*
X296Y427D01*
X617Y427D02*
X634Y427D01*
X657Y427D02*
X674Y427D01*
X697Y427D02*
X714Y427D01*
X737Y427D02*
X754Y427D01*
X777Y427D02*
X794Y427D01*
X817Y427D02*
X833Y427D01*
X76Y426D02*
X93Y426D01*
X116Y426D02*
X133Y426D01*
X156Y426D02*
X173Y426D01*
X196Y426D02*
X214Y426D01*
X237Y426D02*
X255Y426D01*
X278Y426D02*
X296Y426D01*
X617Y426D02*
X634Y426D01*
X657Y426D02*
X674Y426D01*
X697Y426D02*
X714Y426D01*
X737Y426D02*
X754Y426D01*
X777Y426D02*
X794Y426D01*
X816Y426D02*
X833Y426D01*
X76Y425D02*
X94Y425D01*
X116Y425D02*
X134Y425D01*
X156Y425D02*
X174Y425D01*
X197Y425D02*
X214Y425D01*
X237Y425D02*
X255Y425D01*
X279Y425D02*
X297Y425D01*
X616Y425D02*
X634Y425D01*
X657Y425D02*
X674Y425D01*
X697Y425D02*
X714Y425D01*
X737Y425D02*
X754Y425D01*
X777Y425D02*
X794Y425D01*
X816Y425D02*
X833Y425D01*
X77Y424D02*
X94Y424D01*
X117Y424D02*
X134Y424D01*
X157Y424D02*
X174Y424D01*
X197Y424D02*
X214Y424D01*
X238Y424D02*
X255Y424D01*
X279Y424D02*
X297Y424D01*
X616Y424D02*
X634Y424D01*
X657Y424D02*
X674Y424D01*
X697Y424D02*
X714Y424D01*
X737Y424D02*
X754Y424D01*
X777Y424D02*
X794Y424D01*
X816Y424D02*
X833Y424D01*
X77Y423D02*
X94Y423D01*
X117Y423D02*
X134Y423D01*
X157Y423D02*
X174Y423D01*
X197Y423D02*
X215Y423D01*
X238Y423D02*
X256Y423D01*
X279Y423D02*
X298Y423D01*
X616Y423D02*
X633Y423D01*
X656Y423D02*
X674Y423D01*
X697Y423D02*
X714Y423D01*
X736Y423D02*
X754Y423D01*
X776Y423D02*
X793Y423D01*
X816Y423D02*
X833Y423D01*
X77Y422D02*
X94Y422D01*
X117Y422D02*
X134Y422D01*
X157Y422D02*
X174Y422D01*
X197Y422D02*
X215Y422D01*
X238Y422D02*
X256Y422D01*
X280Y422D02*
X298Y422D01*
X615Y422D02*
X633Y422D01*
X656Y422D02*
X673Y422D01*
X696Y422D02*
X714Y422D01*
X736Y422D02*
X753Y422D01*
X776Y422D02*
X793Y422D01*
X816Y422D02*
X833Y422D01*
X77Y421D02*
X94Y421D01*
X117Y421D02*
X134Y421D01*
X157Y421D02*
X175Y421D01*
X198Y421D02*
X215Y421D01*
X239Y421D02*
X256Y421D01*
X280Y421D02*
X299Y421D01*
X615Y421D02*
X633Y421D01*
X656Y421D02*
X673Y421D01*
X696Y421D02*
X713Y421D01*
X736Y421D02*
X753Y421D01*
X776Y421D02*
X793Y421D01*
X816Y421D02*
X833Y421D01*
X77Y420D02*
X94Y420D01*
X117Y420D02*
X135Y420D01*
X158Y420D02*
X175Y420D01*
X198Y420D02*
X215Y420D01*
X239Y420D02*
X257Y420D01*
X281Y420D02*
X299Y420D01*
X615Y420D02*
X632Y420D01*
X656Y420D02*
X673Y420D01*
X696Y420D02*
X713Y420D01*
X736Y420D02*
X753Y420D01*
X776Y420D02*
X793Y420D01*
X816Y420D02*
X833Y420D01*
X77Y419D02*
X95Y419D01*
X118Y419D02*
X135Y419D01*
X158Y419D02*
X175Y419D01*
X198Y419D02*
X216Y419D01*
X239Y419D02*
X257Y419D01*
X281Y419D02*
X299Y419D01*
X615Y419D02*
X632Y419D01*
X655Y419D02*
X673Y419D01*
X696Y419D02*
X713Y419D01*
X736Y419D02*
X753Y419D01*
X776Y419D02*
X793Y419D01*
X815Y419D02*
X833Y419D01*
X78Y418D02*
X95Y418D01*
X118Y418D02*
X135Y418D01*
X158Y418D02*
X175Y418D01*
X199Y418D02*
X216Y418D01*
X240Y418D02*
X257Y418D01*
X281Y418D02*
X300Y418D01*
X614Y418D02*
X632Y418D01*
X655Y418D02*
X673Y418D01*
X695Y418D02*
X713Y418D01*
X736Y418D02*
X753Y418D01*
X776Y418D02*
X793Y418D01*
X815Y418D02*
X832Y418D01*
X78Y417D02*
X95Y417D01*
X118Y417D02*
X135Y417D01*
X158Y417D02*
X176Y417D01*
X199Y417D02*
X216Y417D01*
X240Y417D02*
X258Y417D01*
X282Y417D02*
X300Y417D01*
X614Y417D02*
X632Y417D01*
X655Y417D02*
X672Y417D01*
X695Y417D02*
X713Y417D01*
X735Y417D02*
X753Y417D01*
X775Y417D02*
X792Y417D01*
X815Y417D02*
X832Y417D01*
X78Y416D02*
X95Y416D01*
X118Y416D02*
X135Y416D01*
X158Y416D02*
X176Y416D01*
X199Y416D02*
X217Y416D01*
X240Y416D02*
X258Y416D01*
X282Y416D02*
X301Y416D01*
X614Y416D02*
X631Y416D01*
X655Y416D02*
X672Y416D01*
X695Y416D02*
X712Y416D01*
X735Y416D02*
X752Y416D01*
X775Y416D02*
X792Y416D01*
X815Y416D02*
X832Y416D01*
X78Y415D02*
X95Y415D01*
X118Y415D02*
X136Y415D01*
X159Y415D02*
X176Y415D01*
X199Y415D02*
X217Y415D01*
X241Y415D02*
X259Y415D01*
X283Y415D02*
X301Y415D01*
X613Y415D02*
X631Y415D01*
X654Y415D02*
X672Y415D01*
X695Y415D02*
X712Y415D01*
X735Y415D02*
X752Y415D01*
X775Y415D02*
X792Y415D01*
X815Y415D02*
X832Y415D01*
X78Y414D02*
X96Y414D01*
X119Y414D02*
X136Y414D01*
X159Y414D02*
X176Y414D01*
X200Y414D02*
X217Y414D01*
X241Y414D02*
X259Y414D01*
X283Y414D02*
X302Y414D01*
X613Y414D02*
X631Y414D01*
X654Y414D02*
X672Y414D01*
X695Y414D02*
X712Y414D01*
X735Y414D02*
X752Y414D01*
X775Y414D02*
X792Y414D01*
X815Y414D02*
X832Y414D01*
X79Y413D02*
X96Y413D01*
X119Y413D02*
X136Y413D01*
X159Y413D02*
X177Y413D01*
X200Y413D02*
X218Y413D01*
X241Y413D02*
X259Y413D01*
X284Y413D02*
X302Y413D01*
X613Y413D02*
X630Y413D01*
X654Y413D02*
X671Y413D01*
X694Y413D02*
X712Y413D01*
X735Y413D02*
X752Y413D01*
X775Y413D02*
X792Y413D01*
X815Y413D02*
X832Y413D01*
X79Y412D02*
X96Y412D01*
X119Y412D02*
X136Y412D01*
X159Y412D02*
X177Y412D01*
X200Y412D02*
X218Y412D01*
X242Y412D02*
X260Y412D01*
X284Y412D02*
X303Y412D01*
X612Y412D02*
X630Y412D01*
X654Y412D02*
X671Y412D01*
X694Y412D02*
X711Y412D01*
X734Y412D02*
X752Y412D01*
X774Y412D02*
X792Y412D01*
X814Y412D02*
X832Y412D01*
X79Y411D02*
X96Y411D01*
X119Y411D02*
X137Y411D01*
X160Y411D02*
X177Y411D01*
X200Y411D02*
X218Y411D01*
X242Y411D02*
X260Y411D01*
X284Y411D02*
X303Y411D01*
X612Y411D02*
X630Y411D01*
X653Y411D02*
X671Y411D01*
X694Y411D02*
X711Y411D01*
X734Y411D02*
X751Y411D01*
X774Y411D02*
X791Y411D01*
X814Y411D02*
X831Y411D01*
X79Y410D02*
X96Y410D01*
X119Y410D02*
X137Y410D01*
X160Y410D02*
X177Y410D01*
X201Y410D02*
X219Y410D01*
X242Y410D02*
X260Y410D01*
X285Y410D02*
X304Y410D01*
X612Y410D02*
X629Y410D01*
X653Y410D02*
X670Y410D01*
X694Y410D02*
X711Y410D01*
X734Y410D02*
X751Y410D01*
X774Y410D02*
X791Y410D01*
X814Y410D02*
X831Y410D01*
X79Y409D02*
X97Y409D01*
X120Y409D02*
X137Y409D01*
X160Y409D02*
X178Y409D01*
X201Y409D02*
X219Y409D01*
X243Y409D02*
X261Y409D01*
X285Y409D02*
X304Y409D01*
X611Y409D02*
X629Y409D01*
X653Y409D02*
X670Y409D01*
X693Y409D02*
X711Y409D01*
X734Y409D02*
X751Y409D01*
X774Y409D02*
X791Y409D01*
X814Y409D02*
X831Y409D01*
X80Y408D02*
X97Y408D01*
X120Y408D02*
X137Y408D01*
X160Y408D02*
X178Y408D01*
X201Y408D02*
X219Y408D01*
X243Y408D02*
X261Y408D01*
X286Y408D02*
X305Y408D01*
X611Y408D02*
X629Y408D01*
X652Y408D02*
X670Y408D01*
X693Y408D02*
X711Y408D01*
X734Y408D02*
X751Y408D01*
X774Y408D02*
X791Y408D01*
X814Y408D02*
X831Y408D01*
X80Y407D02*
X97Y407D01*
X120Y407D02*
X138Y407D01*
X161Y407D02*
X178Y407D01*
X202Y407D02*
X220Y407D01*
X243Y407D02*
X262Y407D01*
X286Y407D02*
X306Y407D01*
X610Y407D02*
X628Y407D01*
X652Y407D02*
X670Y407D01*
X693Y407D02*
X710Y407D01*
X733Y407D02*
X751Y407D01*
X774Y407D02*
X791Y407D01*
X814Y407D02*
X831Y407D01*
X80Y406D02*
X97Y406D01*
X120Y406D02*
X138Y406D01*
X161Y406D02*
X179Y406D01*
X202Y406D02*
X220Y406D01*
X244Y406D02*
X262Y406D01*
X287Y406D02*
X306Y406D01*
X610Y406D02*
X628Y406D01*
X652Y406D02*
X669Y406D01*
X693Y406D02*
X710Y406D01*
X733Y406D02*
X750Y406D01*
X773Y406D02*
X791Y406D01*
X813Y406D02*
X830Y406D01*
X80Y405D02*
X98Y405D01*
X121Y405D02*
X138Y405D01*
X161Y405D02*
X179Y405D01*
X202Y405D02*
X220Y405D01*
X244Y405D02*
X263Y405D01*
X287Y405D02*
X307Y405D01*
X610Y405D02*
X628Y405D01*
X651Y405D02*
X669Y405D01*
X692Y405D02*
X710Y405D01*
X733Y405D02*
X750Y405D01*
X773Y405D02*
X790Y405D01*
X813Y405D02*
X830Y405D01*
X80Y404D02*
X98Y404D01*
X121Y404D02*
X138Y404D01*
X162Y404D02*
X179Y404D01*
X203Y404D02*
X221Y404D01*
X245Y404D02*
X263Y404D01*
X288Y404D02*
X307Y404D01*
X609Y404D02*
X627Y404D01*
X651Y404D02*
X669Y404D01*
X692Y404D02*
X710Y404D01*
X733Y404D02*
X750Y404D01*
X773Y404D02*
X790Y404D01*
X813Y404D02*
X830Y404D01*
X81Y403D02*
X98Y403D01*
X121Y403D02*
X139Y403D01*
X162Y403D02*
X180Y403D01*
X203Y403D02*
X221Y403D01*
X245Y403D02*
X264Y403D01*
X288Y403D02*
X308Y403D01*
X609Y403D02*
X627Y403D01*
X651Y403D02*
X669Y403D01*
X692Y403D02*
X709Y403D01*
X732Y403D02*
X750Y403D01*
X773Y403D02*
X790Y403D01*
X813Y403D02*
X830Y403D01*
X81Y402D02*
X98Y402D01*
X121Y402D02*
X139Y402D01*
X162Y402D02*
X180Y402D01*
X203Y402D02*
X221Y402D01*
X245Y402D02*
X264Y402D01*
X289Y402D02*
X308Y402D01*
X608Y402D02*
X627Y402D01*
X650Y402D02*
X668Y402D01*
X692Y402D02*
X709Y402D01*
X732Y402D02*
X750Y402D01*
X773Y402D02*
X790Y402D01*
X813Y402D02*
X830Y402D01*
X81Y401D02*
X99Y401D01*
X122Y401D02*
X139Y401D01*
X162Y401D02*
X180Y401D01*
X204Y401D02*
X222Y401D01*
X246Y401D02*
X264Y401D01*
X289Y401D02*
X309Y401D01*
X608Y401D02*
X626Y401D01*
X650Y401D02*
X668Y401D01*
X691Y401D02*
X709Y401D01*
X732Y401D02*
X749Y401D01*
X772Y401D02*
X790Y401D01*
X813Y401D02*
X830Y401D01*
X81Y400D02*
X99Y400D01*
X122Y400D02*
X139Y400D01*
X163Y400D02*
X180Y400D01*
X204Y400D02*
X222Y400D01*
X246Y400D02*
X265Y400D01*
X290Y400D02*
X310Y400D01*
X607Y400D02*
X626Y400D01*
X650Y400D02*
X668Y400D01*
X691Y400D02*
X709Y400D01*
X732Y400D02*
X749Y400D01*
X772Y400D02*
X789Y400D01*
X812Y400D02*
X829Y400D01*
X82Y399D02*
X99Y399D01*
X122Y399D02*
X140Y399D01*
X163Y399D02*
X181Y399D01*
X204Y399D02*
X223Y399D01*
X247Y399D02*
X265Y399D01*
X291Y399D02*
X310Y399D01*
X607Y399D02*
X625Y399D01*
X649Y399D02*
X667Y399D01*
X691Y399D02*
X708Y399D01*
X731Y399D02*
X749Y399D01*
X772Y399D02*
X789Y399D01*
X812Y399D02*
X829Y399D01*
X82Y398D02*
X99Y398D01*
X122Y398D02*
X140Y398D01*
X163Y398D02*
X181Y398D01*
X205Y398D02*
X223Y398D01*
X247Y398D02*
X266Y398D01*
X291Y398D02*
X311Y398D01*
X607Y398D02*
X625Y398D01*
X649Y398D02*
X667Y398D01*
X690Y398D02*
X708Y398D01*
X731Y398D02*
X749Y398D01*
X772Y398D02*
X789Y398D01*
X812Y398D02*
X829Y398D01*
X82Y397D02*
X100Y397D01*
X123Y397D02*
X140Y397D01*
X164Y397D02*
X181Y397D01*
X205Y397D02*
X223Y397D01*
X248Y397D02*
X266Y397D01*
X292Y397D02*
X312Y397D01*
X606Y397D02*
X625Y397D01*
X649Y397D02*
X667Y397D01*
X690Y397D02*
X708Y397D01*
X731Y397D02*
X748Y397D01*
X771Y397D02*
X789Y397D01*
X812Y397D02*
X829Y397D01*
X82Y396D02*
X100Y396D01*
X123Y396D02*
X140Y396D01*
X164Y396D02*
X182Y396D01*
X206Y396D02*
X224Y396D01*
X248Y396D02*
X267Y396D01*
X292Y396D02*
X312Y396D01*
X606Y396D02*
X624Y396D01*
X648Y396D02*
X666Y396D01*
X690Y396D02*
X707Y396D01*
X731Y396D02*
X748Y396D01*
X771Y396D02*
X788Y396D01*
X811Y396D02*
X829Y396D01*
X83Y395D02*
X100Y395D01*
X123Y395D02*
X141Y395D01*
X164Y395D02*
X182Y395D01*
X206Y395D02*
X224Y395D01*
X249Y395D02*
X267Y395D01*
X293Y395D02*
X313Y395D01*
X605Y395D02*
X624Y395D01*
X648Y395D02*
X666Y395D01*
X689Y395D02*
X707Y395D01*
X730Y395D02*
X748Y395D01*
X771Y395D02*
X788Y395D01*
X811Y395D02*
X829Y395D01*
X83Y394D02*
X100Y394D01*
X123Y394D02*
X141Y394D01*
X165Y394D02*
X182Y394D01*
X206Y394D02*
X225Y394D01*
X249Y394D02*
X268Y394D01*
X293Y394D02*
X314Y394D01*
X605Y394D02*
X623Y394D01*
X647Y394D02*
X666Y394D01*
X689Y394D02*
X707Y394D01*
X730Y394D02*
X748Y394D01*
X771Y394D02*
X788Y394D01*
X811Y394D02*
X828Y394D01*
X83Y393D02*
X101Y393D01*
X124Y393D02*
X141Y393D01*
X165Y393D02*
X183Y393D01*
X207Y393D02*
X225Y393D01*
X249Y393D02*
X268Y393D01*
X294Y393D02*
X315Y393D01*
X604Y393D02*
X623Y393D01*
X647Y393D02*
X665Y393D01*
X689Y393D02*
X707Y393D01*
X730Y393D02*
X747Y393D01*
X771Y393D02*
X788Y393D01*
X811Y393D02*
X828Y393D01*
X83Y392D02*
X101Y392D01*
X124Y392D02*
X142Y392D01*
X165Y392D02*
X183Y392D01*
X207Y392D02*
X225Y392D01*
X250Y392D02*
X269Y392D01*
X295Y392D02*
X315Y392D01*
X604Y392D02*
X623Y392D01*
X647Y392D02*
X665Y392D01*
X688Y392D02*
X706Y392D01*
X730Y392D02*
X747Y392D01*
X770Y392D02*
X788Y392D01*
X811Y392D02*
X828Y392D01*
X84Y391D02*
X101Y391D01*
X124Y391D02*
X142Y391D01*
X166Y391D02*
X184Y391D01*
X207Y391D02*
X226Y391D01*
X250Y391D02*
X269Y391D01*
X295Y391D02*
X316Y391D01*
X603Y391D02*
X622Y391D01*
X646Y391D02*
X664Y391D01*
X688Y391D02*
X706Y391D01*
X729Y391D02*
X747Y391D01*
X770Y391D02*
X787Y391D01*
X810Y391D02*
X828Y391D01*
X84Y390D02*
X101Y390D01*
X125Y390D02*
X142Y390D01*
X166Y390D02*
X184Y390D01*
X208Y390D02*
X226Y390D01*
X251Y390D02*
X270Y390D01*
X296Y390D02*
X317Y390D01*
X603Y390D02*
X622Y390D01*
X646Y390D02*
X664Y390D01*
X688Y390D02*
X706Y390D01*
X729Y390D02*
X747Y390D01*
X770Y390D02*
X787Y390D01*
X810Y390D02*
X827Y390D01*
X84Y389D02*
X102Y389D01*
X125Y389D02*
X143Y389D01*
X166Y389D02*
X184Y389D01*
X208Y389D02*
X227Y389D01*
X251Y389D02*
X271Y389D01*
X297Y389D02*
X318Y389D01*
X602Y389D02*
X621Y389D01*
X646Y389D02*
X664Y389D01*
X688Y389D02*
X705Y389D01*
X729Y389D02*
X746Y389D01*
X770Y389D02*
X787Y389D01*
X810Y389D02*
X827Y389D01*
X84Y388D02*
X102Y388D01*
X125Y388D02*
X143Y388D01*
X167Y388D02*
X185Y388D01*
X209Y388D02*
X227Y388D01*
X252Y388D02*
X271Y388D01*
X297Y388D02*
X318Y388D01*
X602Y388D02*
X621Y388D01*
X645Y388D02*
X663Y388D01*
X687Y388D02*
X705Y388D01*
X728Y388D02*
X746Y388D01*
X769Y388D02*
X787Y388D01*
X810Y388D02*
X827Y388D01*
X85Y387D02*
X102Y387D01*
X126Y387D02*
X143Y387D01*
X167Y387D02*
X185Y387D01*
X209Y387D02*
X228Y387D01*
X252Y387D02*
X272Y387D01*
X298Y387D02*
X319Y387D01*
X601Y387D02*
X620Y387D01*
X645Y387D02*
X663Y387D01*
X687Y387D02*
X705Y387D01*
X728Y387D02*
X746Y387D01*
X769Y387D02*
X786Y387D01*
X809Y387D02*
X827Y387D01*
X85Y386D02*
X102Y386D01*
X126Y386D02*
X144Y386D01*
X167Y386D02*
X185Y386D01*
X209Y386D02*
X228Y386D01*
X253Y386D02*
X272Y386D01*
X299Y386D02*
X320Y386D01*
X601Y386D02*
X620Y386D01*
X644Y386D02*
X663Y386D01*
X687Y386D02*
X704Y386D01*
X728Y386D02*
X745Y386D01*
X769Y386D02*
X786Y386D01*
X809Y386D02*
X827Y386D01*
X85Y385D02*
X103Y385D01*
X126Y385D02*
X144Y385D01*
X168Y385D02*
X186Y385D01*
X210Y385D02*
X229Y385D01*
X253Y385D02*
X273Y385D01*
X299Y385D02*
X321Y385D01*
X600Y385D02*
X619Y385D01*
X644Y385D02*
X662Y385D01*
X686Y385D02*
X704Y385D01*
X728Y385D02*
X745Y385D01*
X768Y385D02*
X786Y385D01*
X809Y385D02*
X826Y385D01*
X85Y384D02*
X103Y384D01*
X127Y384D02*
X144Y384D01*
X168Y384D02*
X186Y384D01*
X210Y384D02*
X229Y384D01*
X254Y384D02*
X273Y384D01*
X300Y384D02*
X322Y384D01*
X600Y384D02*
X619Y384D01*
X643Y384D02*
X662Y384D01*
X686Y384D02*
X704Y384D01*
X727Y384D02*
X745Y384D01*
X768Y384D02*
X786Y384D01*
X809Y384D02*
X826Y384D01*
X86Y383D02*
X103Y383D01*
X127Y383D02*
X145Y383D01*
X168Y383D02*
X187Y383D01*
X211Y383D02*
X230Y383D01*
X254Y383D02*
X274Y383D01*
X301Y383D02*
X322Y383D01*
X599Y383D02*
X618Y383D01*
X643Y383D02*
X661Y383D01*
X685Y383D02*
X703Y383D01*
X727Y383D02*
X745Y383D01*
X768Y383D02*
X785Y383D01*
X809Y383D02*
X826Y383D01*
X86Y382D02*
X104Y382D01*
X127Y382D02*
X145Y382D01*
X169Y382D02*
X187Y382D01*
X211Y382D02*
X230Y382D01*
X255Y382D02*
X275Y382D01*
X301Y382D02*
X323Y382D01*
X598Y382D02*
X618Y382D01*
X643Y382D02*
X661Y382D01*
X685Y382D02*
X703Y382D01*
X727Y382D02*
X744Y382D01*
X768Y382D02*
X785Y382D01*
X808Y382D02*
X826Y382D01*
X86Y381D02*
X104Y381D01*
X128Y381D02*
X145Y381D01*
X169Y381D02*
X187Y381D01*
X212Y381D02*
X230Y381D01*
X256Y381D02*
X275Y381D01*
X302Y381D02*
X324Y381D01*
X598Y381D02*
X617Y381D01*
X642Y381D02*
X661Y381D01*
X685Y381D02*
X703Y381D01*
X726Y381D02*
X744Y381D01*
X767Y381D02*
X785Y381D01*
X808Y381D02*
X825Y381D01*
X87Y380D02*
X104Y380D01*
X128Y380D02*
X146Y380D01*
X170Y380D02*
X188Y380D01*
X212Y380D02*
X231Y380D01*
X256Y380D02*
X276Y380D01*
X303Y380D02*
X325Y380D01*
X597Y380D02*
X617Y380D01*
X642Y380D02*
X660Y380D01*
X684Y380D02*
X702Y380D01*
X726Y380D02*
X744Y380D01*
X767Y380D02*
X785Y380D01*
X808Y380D02*
X825Y380D01*
X87Y379D02*
X105Y379D01*
X128Y379D02*
X146Y379D01*
X170Y379D02*
X188Y379D01*
X213Y379D02*
X231Y379D01*
X257Y379D02*
X277Y379D01*
X304Y379D02*
X326Y379D01*
X597Y379D02*
X616Y379D01*
X641Y379D02*
X660Y379D01*
X684Y379D02*
X702Y379D01*
X726Y379D02*
X743Y379D01*
X767Y379D02*
X784Y379D01*
X808Y379D02*
X825Y379D01*
X87Y378D02*
X105Y378D01*
X128Y378D02*
X146Y378D01*
X170Y378D02*
X189Y378D01*
X213Y378D02*
X232Y378D01*
X257Y378D02*
X277Y378D01*
X304Y378D02*
X327Y378D01*
X596Y378D02*
X616Y378D01*
X641Y378D02*
X659Y378D01*
X683Y378D02*
X702Y378D01*
X725Y378D02*
X743Y378D01*
X767Y378D02*
X784Y378D01*
X807Y378D02*
X825Y378D01*
X88Y377D02*
X105Y377D01*
X129Y377D02*
X147Y377D01*
X171Y377D02*
X189Y377D01*
X213Y377D02*
X232Y377D01*
X258Y377D02*
X278Y377D01*
X305Y377D02*
X328Y377D01*
X595Y377D02*
X615Y377D01*
X640Y377D02*
X659Y377D01*
X683Y377D02*
X701Y377D01*
X725Y377D02*
X743Y377D01*
X766Y377D02*
X784Y377D01*
X807Y377D02*
X825Y377D01*
X88Y376D02*
X106Y376D01*
X129Y376D02*
X147Y376D01*
X171Y376D02*
X189Y376D01*
X214Y376D02*
X233Y376D01*
X258Y376D02*
X279Y376D01*
X306Y376D02*
X329Y376D01*
X595Y376D02*
X615Y376D01*
X640Y376D02*
X658Y376D01*
X683Y376D02*
X701Y376D01*
X725Y376D02*
X742Y376D01*
X766Y376D02*
X783Y376D01*
X807Y376D02*
X824Y376D01*
X88Y375D02*
X106Y375D01*
X129Y375D02*
X148Y375D01*
X171Y375D02*
X190Y375D01*
X214Y375D02*
X233Y375D01*
X259Y375D02*
X279Y375D01*
X307Y375D02*
X330Y375D01*
X594Y375D02*
X614Y375D01*
X639Y375D02*
X658Y375D01*
X682Y375D02*
X700Y375D01*
X724Y375D02*
X742Y375D01*
X766Y375D02*
X783Y375D01*
X806Y375D02*
X824Y375D01*
X88Y374D02*
X106Y374D01*
X130Y374D02*
X148Y374D01*
X172Y374D02*
X190Y374D01*
X215Y374D02*
X234Y374D01*
X260Y374D02*
X280Y374D01*
X308Y374D02*
X331Y374D01*
X593Y374D02*
X613Y374D01*
X639Y374D02*
X657Y374D01*
X682Y374D02*
X700Y374D01*
X724Y374D02*
X742Y374D01*
X765Y374D02*
X783Y374D01*
X806Y374D02*
X824Y374D01*
X89Y373D02*
X107Y373D01*
X130Y373D02*
X148Y373D01*
X172Y373D02*
X191Y373D01*
X215Y373D02*
X234Y373D01*
X260Y373D02*
X281Y373D01*
X308Y373D02*
X332Y373D01*
X593Y373D02*
X613Y373D01*
X638Y373D02*
X657Y373D01*
X682Y373D02*
X700Y373D01*
X724Y373D02*
X741Y373D01*
X765Y373D02*
X783Y373D01*
X806Y373D02*
X823Y373D01*
X89Y372D02*
X107Y372D01*
X131Y372D02*
X149Y372D01*
X173Y372D02*
X191Y372D01*
X216Y372D02*
X235Y372D01*
X261Y372D02*
X281Y372D01*
X309Y372D02*
X333Y372D01*
X592Y372D02*
X612Y372D01*
X638Y372D02*
X657Y372D01*
X681Y372D02*
X699Y372D01*
X723Y372D02*
X741Y372D01*
X765Y372D02*
X782Y372D01*
X806Y372D02*
X823Y372D01*
X89Y371D02*
X107Y371D01*
X131Y371D02*
X149Y371D01*
X173Y371D02*
X192Y371D01*
X216Y371D02*
X236Y371D01*
X261Y371D02*
X282Y371D01*
X310Y371D02*
X334Y371D01*
X591Y371D02*
X612Y371D01*
X637Y371D02*
X656Y371D01*
X681Y371D02*
X699Y371D01*
X723Y371D02*
X741Y371D01*
X764Y371D02*
X782Y371D01*
X805Y371D02*
X823Y371D01*
X90Y370D02*
X107Y370D01*
X131Y370D02*
X149Y370D01*
X174Y370D02*
X192Y370D01*
X217Y370D02*
X236Y370D01*
X262Y370D02*
X283Y370D01*
X311Y370D02*
X335Y370D01*
X591Y370D02*
X611Y370D01*
X637Y370D02*
X656Y370D01*
X680Y370D02*
X699Y370D01*
X723Y370D02*
X740Y370D01*
X764Y370D02*
X782Y370D01*
X805Y370D02*
X823Y370D01*
X90Y369D02*
X108Y369D01*
X132Y369D02*
X150Y369D01*
X174Y369D02*
X193Y369D01*
X217Y369D02*
X237Y369D01*
X263Y369D02*
X283Y369D01*
X312Y369D02*
X336Y369D01*
X590Y369D02*
X610Y369D01*
X636Y369D02*
X655Y369D01*
X680Y369D02*
X698Y369D01*
X722Y369D02*
X740Y369D01*
X764Y369D02*
X782Y369D01*
X805Y369D02*
X822Y369D01*
X90Y368D02*
X108Y368D01*
X132Y368D02*
X150Y368D01*
X174Y368D02*
X193Y368D01*
X218Y368D02*
X237Y368D01*
X263Y368D02*
X284Y368D01*
X313Y368D02*
X337Y368D01*
X589Y368D02*
X610Y368D01*
X636Y368D02*
X655Y368D01*
X679Y368D02*
X698Y368D01*
X722Y368D02*
X740Y368D01*
X763Y368D02*
X781Y368D01*
X805Y368D02*
X822Y368D01*
X91Y367D02*
X109Y367D01*
X132Y367D02*
X151Y367D01*
X175Y367D02*
X194Y367D01*
X218Y367D02*
X238Y367D01*
X264Y367D02*
X285Y367D01*
X314Y367D02*
X338Y367D01*
X589Y367D02*
X609Y367D01*
X635Y367D02*
X654Y367D01*
X679Y367D02*
X697Y367D01*
X721Y367D02*
X739Y367D01*
X763Y367D02*
X781Y367D01*
X804Y367D02*
X822Y367D01*
X91Y366D02*
X109Y366D01*
X133Y366D02*
X151Y366D01*
X175Y366D02*
X194Y366D01*
X219Y366D02*
X238Y366D01*
X265Y366D02*
X286Y366D01*
X315Y366D02*
X339Y366D01*
X588Y366D02*
X609Y366D01*
X635Y366D02*
X654Y366D01*
X678Y366D02*
X697Y366D01*
X721Y366D02*
X739Y366D01*
X763Y366D02*
X781Y366D01*
X804Y366D02*
X822Y366D01*
X91Y365D02*
X109Y365D01*
X133Y365D02*
X151Y365D01*
X176Y365D02*
X194Y365D01*
X219Y365D02*
X239Y365D01*
X265Y365D02*
X286Y365D01*
X316Y365D02*
X341Y365D01*
X587Y365D02*
X608Y365D01*
X634Y365D02*
X653Y365D01*
X678Y365D02*
X697Y365D01*
X721Y365D02*
X739Y365D01*
X762Y365D02*
X780Y365D01*
X804Y365D02*
X821Y365D01*
X92Y364D02*
X110Y364D01*
X134Y364D02*
X152Y364D01*
X176Y364D02*
X195Y364D01*
X220Y364D02*
X240Y364D01*
X266Y364D02*
X287Y364D01*
X316Y364D02*
X342Y364D01*
X587Y364D02*
X607Y364D01*
X633Y364D02*
X653Y364D01*
X678Y364D02*
X696Y364D01*
X720Y364D02*
X738Y364D01*
X762Y364D02*
X780Y364D01*
X803Y364D02*
X821Y364D01*
X92Y363D02*
X110Y363D01*
X134Y363D02*
X152Y363D01*
X177Y363D02*
X195Y363D01*
X221Y363D02*
X240Y363D01*
X267Y363D02*
X288Y363D01*
X317Y363D02*
X343Y363D01*
X586Y363D02*
X607Y363D01*
X633Y363D02*
X652Y363D01*
X677Y363D02*
X696Y363D01*
X720Y363D02*
X738Y363D01*
X762Y363D02*
X780Y363D01*
X803Y363D02*
X821Y363D01*
X92Y362D02*
X110Y362D01*
X134Y362D02*
X153Y362D01*
X177Y362D02*
X196Y362D01*
X221Y362D02*
X241Y362D01*
X267Y362D02*
X289Y362D01*
X318Y362D02*
X344Y362D01*
X585Y362D02*
X606Y362D01*
X632Y362D02*
X652Y362D01*
X677Y362D02*
X695Y362D01*
X719Y362D02*
X738Y362D01*
X761Y362D02*
X779Y362D01*
X803Y362D02*
X820Y362D01*
X93Y361D02*
X111Y361D01*
X135Y361D02*
X153Y361D01*
X178Y361D02*
X196Y361D01*
X222Y361D02*
X241Y361D01*
X268Y361D02*
X290Y361D01*
X319Y361D02*
X345Y361D01*
X584Y361D02*
X605Y361D01*
X632Y361D02*
X651Y361D01*
X676Y361D02*
X695Y361D01*
X719Y361D02*
X737Y361D01*
X761Y361D02*
X779Y361D01*
X803Y361D02*
X820Y361D01*
X93Y360D02*
X111Y360D01*
X135Y360D02*
X154Y360D01*
X178Y360D02*
X197Y360D01*
X222Y360D02*
X242Y360D01*
X269Y360D02*
X290Y360D01*
X320Y360D02*
X347Y360D01*
X583Y360D02*
X605Y360D01*
X631Y360D02*
X651Y360D01*
X676Y360D02*
X694Y360D01*
X719Y360D02*
X737Y360D01*
X761Y360D02*
X779Y360D01*
X802Y360D02*
X820Y360D01*
X93Y359D02*
X112Y359D01*
X136Y359D02*
X154Y359D01*
X178Y359D02*
X197Y359D01*
X223Y359D02*
X243Y359D01*
X270Y359D02*
X291Y359D01*
X321Y359D02*
X348Y359D01*
X583Y359D02*
X604Y359D01*
X631Y359D02*
X650Y359D01*
X675Y359D02*
X694Y359D01*
X718Y359D02*
X736Y359D01*
X760Y359D02*
X778Y359D01*
X802Y359D02*
X820Y359D01*
X94Y358D02*
X112Y358D01*
X136Y358D02*
X154Y358D01*
X179Y358D02*
X198Y358D01*
X223Y358D02*
X243Y358D01*
X270Y358D02*
X292Y358D01*
X323Y358D02*
X350Y358D01*
X582Y358D02*
X603Y358D01*
X630Y358D02*
X650Y358D01*
X675Y358D02*
X693Y358D01*
X718Y358D02*
X736Y358D01*
X760Y358D02*
X778Y358D01*
X802Y358D02*
X819Y358D01*
X94Y357D02*
X112Y357D01*
X136Y357D02*
X155Y357D01*
X179Y357D02*
X198Y357D01*
X224Y357D02*
X244Y357D01*
X271Y357D02*
X293Y357D01*
X324Y357D02*
X351Y357D01*
X581Y357D02*
X603Y357D01*
X629Y357D02*
X649Y357D01*
X674Y357D02*
X693Y357D01*
X717Y357D02*
X736Y357D01*
X760Y357D02*
X778Y357D01*
X801Y357D02*
X819Y357D01*
X95Y356D02*
X113Y356D01*
X137Y356D02*
X155Y356D01*
X180Y356D02*
X199Y356D01*
X225Y356D02*
X245Y356D01*
X272Y356D02*
X294Y356D01*
X325Y356D02*
X352Y356D01*
X580Y356D02*
X602Y356D01*
X629Y356D02*
X648Y356D01*
X674Y356D02*
X693Y356D01*
X717Y356D02*
X735Y356D01*
X759Y356D02*
X777Y356D01*
X801Y356D02*
X819Y356D01*
X95Y355D02*
X113Y355D01*
X137Y355D02*
X156Y355D01*
X180Y355D02*
X199Y355D01*
X225Y355D02*
X245Y355D01*
X273Y355D02*
X295Y355D01*
X326Y355D02*
X354Y355D01*
X579Y355D02*
X601Y355D01*
X628Y355D02*
X648Y355D01*
X673Y355D02*
X692Y355D01*
X717Y355D02*
X735Y355D01*
X759Y355D02*
X777Y355D01*
X801Y355D02*
X818Y355D01*
X95Y354D02*
X113Y354D01*
X138Y354D02*
X156Y354D01*
X181Y354D02*
X200Y354D01*
X226Y354D02*
X246Y354D01*
X273Y354D02*
X296Y354D01*
X327Y354D02*
X355Y354D01*
X578Y354D02*
X600Y354D01*
X627Y354D02*
X647Y354D01*
X673Y354D02*
X692Y354D01*
X716Y354D02*
X735Y354D01*
X759Y354D02*
X777Y354D01*
X800Y354D02*
X818Y354D01*
X96Y353D02*
X114Y353D01*
X138Y353D02*
X157Y353D01*
X181Y353D02*
X201Y353D01*
X226Y353D02*
X247Y353D01*
X274Y353D02*
X296Y353D01*
X328Y353D02*
X357Y353D01*
X578Y353D02*
X600Y353D01*
X627Y353D02*
X647Y353D01*
X672Y353D02*
X691Y353D01*
X716Y353D02*
X734Y353D01*
X758Y353D02*
X776Y353D01*
X800Y353D02*
X818Y353D01*
X96Y352D02*
X114Y352D01*
X139Y352D02*
X157Y352D01*
X182Y352D02*
X201Y352D01*
X227Y352D02*
X247Y352D01*
X275Y352D02*
X297Y352D01*
X329Y352D02*
X359Y352D01*
X577Y352D02*
X599Y352D01*
X626Y352D02*
X646Y352D01*
X672Y352D02*
X691Y352D01*
X715Y352D02*
X734Y352D01*
X758Y352D02*
X776Y352D01*
X800Y352D02*
X817Y352D01*
X96Y351D02*
X115Y351D01*
X139Y351D02*
X158Y351D01*
X182Y351D02*
X202Y351D01*
X228Y351D02*
X248Y351D01*
X276Y351D02*
X298Y351D01*
X330Y351D02*
X360Y351D01*
X576Y351D02*
X598Y351D01*
X625Y351D02*
X646Y351D01*
X671Y351D02*
X690Y351D01*
X715Y351D02*
X733Y351D01*
X757Y351D02*
X776Y351D01*
X799Y351D02*
X817Y351D01*
X97Y350D02*
X115Y350D01*
X139Y350D02*
X158Y350D01*
X183Y350D02*
X202Y350D01*
X228Y350D02*
X249Y350D01*
X276Y350D02*
X299Y350D01*
X332Y350D02*
X362Y350D01*
X575Y350D02*
X597Y350D01*
X625Y350D02*
X645Y350D01*
X671Y350D02*
X690Y350D01*
X714Y350D02*
X733Y350D01*
X757Y350D02*
X775Y350D01*
X799Y350D02*
X817Y350D01*
X97Y349D02*
X115Y349D01*
X140Y349D02*
X158Y349D01*
X183Y349D02*
X203Y349D01*
X229Y349D02*
X249Y349D01*
X277Y349D02*
X300Y349D01*
X333Y349D02*
X364Y349D01*
X574Y349D02*
X596Y349D01*
X624Y349D02*
X644Y349D01*
X670Y349D02*
X689Y349D01*
X714Y349D02*
X733Y349D01*
X757Y349D02*
X775Y349D01*
X799Y349D02*
X816Y349D01*
X98Y348D02*
X116Y348D01*
X140Y348D02*
X159Y348D01*
X184Y348D02*
X203Y348D01*
X229Y348D02*
X250Y348D01*
X278Y348D02*
X301Y348D01*
X334Y348D02*
X365Y348D01*
X432Y348D02*
X456Y348D01*
X573Y348D02*
X596Y348D01*
X623Y348D02*
X644Y348D01*
X669Y348D02*
X689Y348D01*
X713Y348D02*
X732Y348D01*
X756Y348D02*
X774Y348D01*
X798Y348D02*
X816Y348D01*
X98Y347D02*
X116Y347D01*
X141Y347D02*
X159Y347D01*
X185Y347D02*
X204Y347D01*
X230Y347D02*
X251Y347D01*
X279Y347D02*
X302Y347D01*
X335Y347D02*
X367Y347D01*
X432Y347D02*
X456Y347D01*
X572Y347D02*
X595Y347D01*
X623Y347D02*
X643Y347D01*
X669Y347D02*
X688Y347D01*
X713Y347D02*
X732Y347D01*
X756Y347D02*
X774Y347D01*
X798Y347D02*
X816Y347D01*
X98Y346D02*
X117Y346D01*
X141Y346D02*
X160Y346D01*
X185Y346D02*
X205Y346D01*
X231Y346D02*
X252Y346D01*
X280Y346D02*
X303Y346D01*
X337Y346D02*
X369Y346D01*
X432Y346D02*
X456Y346D01*
X571Y346D02*
X594Y346D01*
X622Y346D02*
X642Y346D01*
X668Y346D02*
X688Y346D01*
X713Y346D02*
X731Y346D01*
X755Y346D02*
X774Y346D01*
X798Y346D02*
X815Y346D01*
X99Y345D02*
X117Y345D01*
X142Y345D02*
X160Y345D01*
X186Y345D02*
X205Y345D01*
X231Y345D02*
X252Y345D01*
X281Y345D02*
X304Y345D01*
X338Y345D02*
X371Y345D01*
X432Y345D02*
X456Y345D01*
X570Y345D02*
X593Y345D01*
X621Y345D02*
X642Y345D01*
X668Y345D02*
X687Y345D01*
X712Y345D02*
X731Y345D01*
X755Y345D02*
X773Y345D01*
X797Y345D02*
X815Y345D01*
X99Y344D02*
X118Y344D01*
X142Y344D02*
X161Y344D01*
X186Y344D02*
X206Y344D01*
X232Y344D02*
X253Y344D01*
X281Y344D02*
X305Y344D01*
X339Y344D02*
X373Y344D01*
X432Y344D02*
X456Y344D01*
X569Y344D02*
X592Y344D01*
X621Y344D02*
X641Y344D01*
X667Y344D02*
X687Y344D01*
X712Y344D02*
X730Y344D01*
X755Y344D02*
X773Y344D01*
X797Y344D02*
X815Y344D01*
X100Y343D02*
X118Y343D01*
X143Y343D02*
X161Y343D01*
X187Y343D02*
X206Y343D01*
X233Y343D02*
X254Y343D01*
X282Y343D02*
X306Y343D01*
X341Y343D02*
X375Y343D01*
X432Y343D02*
X456Y343D01*
X568Y343D02*
X592Y343D01*
X620Y343D02*
X641Y343D01*
X667Y343D02*
X686Y343D01*
X711Y343D02*
X730Y343D01*
X754Y343D02*
X772Y343D01*
X796Y343D02*
X814Y343D01*
X100Y342D02*
X118Y342D01*
X143Y342D02*
X162Y342D01*
X187Y342D02*
X207Y342D01*
X233Y342D02*
X254Y342D01*
X283Y342D02*
X307Y342D01*
X342Y342D02*
X378Y342D01*
X432Y342D02*
X456Y342D01*
X567Y342D02*
X591Y342D01*
X619Y342D02*
X640Y342D01*
X666Y342D02*
X686Y342D01*
X711Y342D02*
X729Y342D01*
X754Y342D02*
X772Y342D01*
X796Y342D02*
X814Y342D01*
X100Y341D02*
X119Y341D01*
X144Y341D02*
X162Y341D01*
X188Y341D02*
X207Y341D01*
X234Y341D02*
X255Y341D01*
X284Y341D02*
X308Y341D01*
X344Y341D02*
X380Y341D01*
X432Y341D02*
X456Y341D01*
X566Y341D02*
X590Y341D01*
X618Y341D02*
X639Y341D01*
X666Y341D02*
X685Y341D01*
X710Y341D02*
X729Y341D01*
X753Y341D02*
X772Y341D01*
X796Y341D02*
X814Y341D01*
X101Y340D02*
X119Y340D01*
X144Y340D02*
X163Y340D01*
X188Y340D02*
X208Y340D01*
X235Y340D02*
X256Y340D01*
X285Y340D02*
X309Y340D01*
X345Y340D02*
X382Y340D01*
X432Y340D02*
X456Y340D01*
X565Y340D02*
X589Y340D01*
X618Y340D02*
X639Y340D01*
X665Y340D02*
X685Y340D01*
X710Y340D02*
X728Y340D01*
X753Y340D02*
X771Y340D01*
X795Y340D02*
X813Y340D01*
X101Y339D02*
X120Y339D01*
X145Y339D02*
X163Y339D01*
X189Y339D02*
X209Y339D01*
X235Y339D02*
X257Y339D01*
X286Y339D02*
X311Y339D01*
X347Y339D02*
X385Y339D01*
X432Y339D02*
X456Y339D01*
X564Y339D02*
X588Y339D01*
X617Y339D02*
X638Y339D01*
X664Y339D02*
X684Y339D01*
X709Y339D02*
X728Y339D01*
X753Y339D02*
X771Y339D01*
X795Y339D02*
X813Y339D01*
X102Y338D02*
X120Y338D01*
X145Y338D02*
X164Y338D01*
X190Y338D02*
X209Y338D01*
X236Y338D02*
X258Y338D01*
X287Y338D02*
X312Y338D01*
X348Y338D02*
X388Y338D01*
X432Y338D02*
X456Y338D01*
X563Y338D02*
X587Y338D01*
X616Y338D02*
X637Y338D01*
X664Y338D02*
X683Y338D01*
X709Y338D02*
X728Y338D01*
X752Y338D02*
X770Y338D01*
X795Y338D02*
X813Y338D01*
X102Y337D02*
X121Y337D01*
X146Y337D02*
X164Y337D01*
X190Y337D02*
X210Y337D01*
X237Y337D02*
X258Y337D01*
X288Y337D02*
X313Y337D01*
X350Y337D02*
X391Y337D01*
X432Y337D02*
X456Y337D01*
X562Y337D02*
X586Y337D01*
X615Y337D02*
X637Y337D01*
X663Y337D02*
X683Y337D01*
X708Y337D02*
X727Y337D01*
X752Y337D02*
X770Y337D01*
X794Y337D02*
X812Y337D01*
X103Y336D02*
X121Y336D01*
X146Y336D02*
X165Y336D01*
X191Y336D02*
X211Y336D01*
X238Y336D02*
X259Y336D01*
X289Y336D02*
X314Y336D01*
X351Y336D02*
X394Y336D01*
X432Y336D02*
X456Y336D01*
X561Y336D02*
X585Y336D01*
X615Y336D02*
X636Y336D01*
X663Y336D02*
X682Y336D01*
X708Y336D02*
X727Y336D01*
X751Y336D02*
X770Y336D01*
X794Y336D02*
X812Y336D01*
X103Y335D02*
X122Y335D01*
X147Y335D02*
X166Y335D01*
X191Y335D02*
X211Y335D01*
X238Y335D02*
X260Y335D01*
X290Y335D02*
X315Y335D01*
X353Y335D02*
X397Y335D01*
X432Y335D02*
X456Y335D01*
X559Y335D02*
X584Y335D01*
X614Y335D02*
X635Y335D01*
X662Y335D02*
X682Y335D01*
X707Y335D02*
X726Y335D01*
X751Y335D02*
X769Y335D01*
X793Y335D02*
X812Y335D01*
X103Y334D02*
X122Y334D01*
X147Y334D02*
X166Y334D01*
X192Y334D02*
X212Y334D01*
X239Y334D02*
X261Y334D01*
X291Y334D02*
X316Y334D01*
X355Y334D02*
X401Y334D01*
X432Y334D02*
X456Y334D01*
X558Y334D02*
X583Y334D01*
X613Y334D02*
X634Y334D01*
X661Y334D02*
X681Y334D01*
X707Y334D02*
X726Y334D01*
X750Y334D02*
X769Y334D01*
X793Y334D02*
X811Y334D01*
X104Y333D02*
X123Y333D01*
X148Y333D02*
X167Y333D01*
X192Y333D02*
X213Y333D01*
X240Y333D02*
X262Y333D01*
X292Y333D02*
X318Y333D01*
X357Y333D02*
X406Y333D01*
X432Y333D02*
X456Y333D01*
X557Y333D02*
X582Y333D01*
X612Y333D02*
X634Y333D01*
X661Y333D02*
X681Y333D01*
X706Y333D02*
X725Y333D01*
X750Y333D02*
X768Y333D01*
X793Y333D02*
X811Y333D01*
X104Y332D02*
X123Y332D01*
X148Y332D02*
X167Y332D01*
X193Y332D02*
X213Y332D01*
X241Y332D02*
X263Y332D01*
X293Y332D02*
X319Y332D01*
X358Y332D02*
X411Y332D01*
X432Y332D02*
X456Y332D01*
X556Y332D02*
X581Y332D01*
X611Y332D02*
X633Y332D01*
X660Y332D02*
X680Y332D01*
X706Y332D02*
X725Y332D01*
X749Y332D02*
X768Y332D01*
X792Y332D02*
X810Y332D01*
X105Y331D02*
X124Y331D01*
X149Y331D02*
X168Y331D01*
X194Y331D02*
X214Y331D01*
X241Y331D02*
X263Y331D01*
X294Y331D02*
X320Y331D01*
X360Y331D02*
X417Y331D01*
X432Y331D02*
X456Y331D01*
X555Y331D02*
X580Y331D01*
X611Y331D02*
X632Y331D01*
X659Y331D02*
X679Y331D01*
X705Y331D02*
X724Y331D01*
X749Y331D02*
X768Y331D01*
X792Y331D02*
X810Y331D01*
X105Y330D02*
X124Y330D01*
X149Y330D02*
X168Y330D01*
X194Y330D02*
X215Y330D01*
X242Y330D02*
X264Y330D01*
X295Y330D02*
X321Y330D01*
X362Y330D02*
X426Y330D01*
X432Y330D02*
X456Y330D01*
X553Y330D02*
X579Y330D01*
X610Y330D02*
X632Y330D01*
X659Y330D02*
X679Y330D01*
X705Y330D02*
X724Y330D01*
X748Y330D02*
X767Y330D01*
X791Y330D02*
X810Y330D01*
X106Y329D02*
X125Y329D01*
X150Y329D02*
X169Y329D01*
X195Y329D02*
X215Y329D01*
X243Y329D02*
X265Y329D01*
X296Y329D02*
X323Y329D01*
X364Y329D02*
X456Y329D01*
X552Y329D02*
X578Y329D01*
X609Y329D02*
X631Y329D01*
X658Y329D02*
X678Y329D01*
X704Y329D02*
X723Y329D01*
X748Y329D02*
X767Y329D01*
X791Y329D02*
X809Y329D01*
X106Y328D02*
X125Y328D01*
X150Y328D02*
X170Y328D01*
X196Y328D02*
X216Y328D01*
X244Y328D02*
X266Y328D01*
X297Y328D02*
X324Y328D01*
X366Y328D02*
X456Y328D01*
X551Y328D02*
X577Y328D01*
X608Y328D02*
X630Y328D01*
X657Y328D02*
X678Y328D01*
X703Y328D02*
X723Y328D01*
X748Y328D02*
X766Y328D01*
X791Y328D02*
X809Y328D01*
X107Y327D02*
X126Y327D01*
X151Y327D02*
X170Y327D01*
X196Y327D02*
X217Y327D01*
X244Y327D02*
X267Y327D01*
X298Y327D02*
X325Y327D01*
X368Y327D02*
X456Y327D01*
X549Y327D02*
X576Y327D01*
X607Y327D02*
X629Y327D01*
X657Y327D02*
X677Y327D01*
X703Y327D02*
X722Y327D01*
X747Y327D02*
X766Y327D01*
X790Y327D02*
X808Y327D01*
X107Y326D02*
X126Y326D01*
X151Y326D02*
X171Y326D01*
X197Y326D02*
X217Y326D01*
X245Y326D02*
X268Y326D01*
X299Y326D02*
X327Y326D01*
X371Y326D02*
X456Y326D01*
X548Y326D02*
X575Y326D01*
X606Y326D02*
X628Y326D01*
X656Y326D02*
X676Y326D01*
X702Y326D02*
X722Y326D01*
X747Y326D02*
X765Y326D01*
X790Y326D02*
X808Y326D01*
X108Y325D02*
X126Y325D01*
X152Y325D02*
X171Y325D01*
X198Y325D02*
X218Y325D01*
X246Y325D02*
X269Y325D01*
X300Y325D02*
X328Y325D01*
X373Y325D02*
X456Y325D01*
X547Y325D02*
X574Y325D01*
X605Y325D02*
X628Y325D01*
X655Y325D02*
X676Y325D01*
X702Y325D02*
X721Y325D01*
X746Y325D02*
X765Y325D01*
X789Y325D02*
X808Y325D01*
X108Y324D02*
X127Y324D01*
X152Y324D02*
X172Y324D01*
X198Y324D02*
X219Y324D01*
X247Y324D02*
X270Y324D01*
X301Y324D02*
X330Y324D01*
X375Y324D02*
X456Y324D01*
X545Y324D02*
X573Y324D01*
X604Y324D02*
X627Y324D01*
X655Y324D02*
X675Y324D01*
X701Y324D02*
X721Y324D01*
X746Y324D02*
X764Y324D01*
X789Y324D02*
X807Y324D01*
X109Y323D02*
X127Y323D01*
X153Y323D02*
X172Y323D01*
X199Y323D02*
X220Y323D01*
X248Y323D02*
X271Y323D01*
X303Y323D02*
X331Y323D01*
X378Y323D02*
X456Y323D01*
X544Y323D02*
X572Y323D01*
X604Y323D02*
X626Y323D01*
X654Y323D02*
X674Y323D01*
X701Y323D02*
X720Y323D01*
X745Y323D02*
X764Y323D01*
X789Y323D02*
X807Y323D01*
X109Y322D02*
X128Y322D01*
X153Y322D02*
X173Y322D01*
X199Y322D02*
X220Y322D01*
X249Y322D02*
X272Y322D01*
X304Y322D02*
X332Y322D01*
X381Y322D02*
X456Y322D01*
X542Y322D02*
X571Y322D01*
X603Y322D02*
X625Y322D01*
X653Y322D02*
X674Y322D01*
X700Y322D02*
X719Y322D01*
X745Y322D02*
X763Y322D01*
X788Y322D02*
X806Y322D01*
X110Y321D02*
X128Y321D01*
X154Y321D02*
X174Y321D01*
X200Y321D02*
X221Y321D01*
X249Y321D02*
X273Y321D01*
X305Y321D02*
X334Y321D01*
X383Y321D02*
X456Y321D01*
X541Y321D02*
X570Y321D01*
X602Y321D02*
X624Y321D01*
X653Y321D02*
X673Y321D01*
X699Y321D02*
X719Y321D01*
X744Y321D02*
X763Y321D01*
X788Y321D02*
X806Y321D01*
X110Y320D02*
X129Y320D01*
X155Y320D02*
X174Y320D01*
X201Y320D02*
X222Y320D01*
X250Y320D02*
X274Y320D01*
X306Y320D02*
X336Y320D01*
X386Y320D02*
X449Y320D01*
X539Y320D02*
X568Y320D01*
X601Y320D02*
X624Y320D01*
X652Y320D02*
X672Y320D01*
X699Y320D02*
X718Y320D01*
X744Y320D02*
X763Y320D01*
X787Y320D02*
X806Y320D01*
X111Y319D02*
X129Y319D01*
X155Y319D02*
X175Y319D01*
X201Y319D02*
X222Y319D01*
X251Y319D02*
X274Y319D01*
X307Y319D02*
X337Y319D01*
X390Y319D02*
X449Y319D01*
X538Y319D02*
X567Y319D01*
X600Y319D02*
X623Y319D01*
X651Y319D02*
X672Y319D01*
X698Y319D02*
X718Y319D01*
X743Y319D02*
X762Y319D01*
X787Y319D02*
X805Y319D01*
X111Y318D02*
X130Y318D01*
X156Y318D02*
X176Y318D01*
X202Y318D02*
X223Y318D01*
X252Y318D02*
X275Y318D01*
X309Y318D02*
X339Y318D01*
X393Y318D02*
X449Y318D01*
X536Y318D02*
X566Y318D01*
X599Y318D02*
X622Y318D01*
X650Y318D02*
X671Y318D01*
X698Y318D02*
X717Y318D01*
X743Y318D02*
X762Y318D01*
X786Y318D02*
X805Y318D01*
X112Y317D02*
X131Y317D01*
X156Y317D02*
X176Y317D01*
X203Y317D02*
X224Y317D01*
X253Y317D02*
X276Y317D01*
X310Y317D02*
X340Y317D01*
X397Y317D02*
X449Y317D01*
X535Y317D02*
X565Y317D01*
X598Y317D02*
X621Y317D01*
X650Y317D02*
X671Y317D01*
X697Y317D02*
X717Y317D01*
X742Y317D02*
X761Y317D01*
X786Y317D02*
X804Y317D01*
X112Y316D02*
X131Y316D01*
X157Y316D02*
X177Y316D01*
X204Y316D02*
X225Y316D01*
X254Y316D02*
X277Y316D01*
X311Y316D02*
X342Y316D01*
X401Y316D02*
X449Y316D01*
X533Y316D02*
X563Y316D01*
X597Y316D02*
X620Y316D01*
X649Y316D02*
X670Y316D01*
X696Y316D02*
X716Y316D01*
X742Y316D02*
X761Y316D01*
X785Y316D02*
X804Y316D01*
X113Y315D02*
X132Y315D01*
X157Y315D02*
X177Y315D01*
X204Y315D02*
X226Y315D01*
X255Y315D02*
X278Y315D01*
X312Y315D02*
X344Y315D01*
X406Y315D02*
X449Y315D01*
X531Y315D02*
X562Y315D01*
X596Y315D02*
X619Y315D01*
X648Y315D02*
X669Y315D01*
X696Y315D02*
X716Y315D01*
X741Y315D02*
X760Y315D01*
X785Y315D02*
X804Y315D01*
X113Y314D02*
X132Y314D01*
X158Y314D02*
X178Y314D01*
X205Y314D02*
X226Y314D01*
X256Y314D02*
X280Y314D01*
X314Y314D02*
X346Y314D01*
X411Y314D02*
X449Y314D01*
X529Y314D02*
X561Y314D01*
X595Y314D02*
X618Y314D01*
X647Y314D02*
X669Y314D01*
X695Y314D02*
X715Y314D01*
X741Y314D02*
X760Y314D01*
X784Y314D02*
X803Y314D01*
X114Y313D02*
X133Y313D01*
X159Y313D02*
X179Y313D01*
X206Y313D02*
X227Y313D01*
X256Y313D02*
X281Y313D01*
X315Y313D02*
X348Y313D01*
X417Y313D02*
X449Y313D01*
X528Y313D02*
X560Y313D01*
X594Y313D02*
X618Y313D01*
X647Y313D02*
X668Y313D01*
X695Y313D02*
X714Y313D01*
X740Y313D02*
X759Y313D01*
X784Y313D02*
X803Y313D01*
X114Y312D02*
X133Y312D01*
X159Y312D02*
X179Y312D01*
X207Y312D02*
X228Y312D01*
X257Y312D02*
X282Y312D01*
X317Y312D02*
X349Y312D01*
X429Y312D02*
X448Y312D01*
X526Y312D02*
X558Y312D01*
X593Y312D02*
X617Y312D01*
X646Y312D02*
X667Y312D01*
X694Y312D02*
X714Y312D01*
X739Y312D02*
X759Y312D01*
X783Y312D02*
X802Y312D01*
X115Y311D02*
X134Y311D01*
X160Y311D02*
X180Y311D01*
X207Y311D02*
X229Y311D01*
X258Y311D02*
X283Y311D01*
X318Y311D02*
X351Y311D01*
X524Y311D02*
X557Y311D01*
X592Y311D02*
X616Y311D01*
X645Y311D02*
X666Y311D01*
X693Y311D02*
X713Y311D01*
X739Y311D02*
X758Y311D01*
X783Y311D02*
X802Y311D01*
X115Y310D02*
X135Y310D01*
X160Y310D02*
X181Y310D01*
X208Y310D02*
X230Y310D01*
X259Y310D02*
X284Y310D01*
X319Y310D02*
X353Y310D01*
X522Y310D02*
X555Y310D01*
X590Y310D02*
X615Y310D01*
X644Y310D02*
X666Y310D01*
X693Y310D02*
X713Y310D01*
X738Y310D02*
X758Y310D01*
X783Y310D02*
X801Y310D01*
X116Y309D02*
X135Y309D01*
X161Y309D02*
X181Y309D01*
X209Y309D02*
X230Y309D01*
X260Y309D02*
X285Y309D01*
X321Y309D02*
X355Y309D01*
X520Y309D02*
X554Y309D01*
X589Y309D02*
X614Y309D01*
X643Y309D02*
X665Y309D01*
X692Y309D02*
X712Y309D01*
X738Y309D02*
X757Y309D01*
X782Y309D02*
X801Y309D01*
X116Y308D02*
X136Y308D01*
X162Y308D02*
X182Y308D01*
X209Y308D02*
X231Y308D01*
X261Y308D02*
X286Y308D01*
X322Y308D02*
X357Y308D01*
X518Y308D02*
X553Y308D01*
X588Y308D02*
X613Y308D01*
X643Y308D02*
X664Y308D01*
X691Y308D02*
X711Y308D01*
X737Y308D02*
X757Y308D01*
X782Y308D02*
X800Y308D01*
X117Y307D02*
X136Y307D01*
X162Y307D02*
X183Y307D01*
X210Y307D02*
X232Y307D01*
X262Y307D02*
X287Y307D01*
X324Y307D02*
X360Y307D01*
X516Y307D02*
X551Y307D01*
X587Y307D02*
X612Y307D01*
X642Y307D02*
X663Y307D01*
X691Y307D02*
X711Y307D01*
X737Y307D02*
X756Y307D01*
X781Y307D02*
X800Y307D01*
X117Y306D02*
X137Y306D01*
X163Y306D02*
X183Y306D01*
X211Y306D02*
X233Y306D01*
X263Y306D02*
X289Y306D01*
X325Y306D02*
X362Y306D01*
X513Y306D02*
X550Y306D01*
X586Y306D02*
X611Y306D01*
X641Y306D02*
X663Y306D01*
X690Y306D02*
X710Y306D01*
X736Y306D02*
X755Y306D01*
X781Y306D02*
X799Y306D01*
X118Y305D02*
X137Y305D01*
X164Y305D02*
X184Y305D01*
X212Y305D02*
X234Y305D01*
X264Y305D02*
X290Y305D01*
X327Y305D02*
X364Y305D01*
X511Y305D02*
X548Y305D01*
X585Y305D02*
X610Y305D01*
X640Y305D02*
X662Y305D01*
X689Y305D02*
X710Y305D01*
X736Y305D02*
X755Y305D01*
X780Y305D02*
X799Y305D01*
X118Y304D02*
X138Y304D01*
X164Y304D02*
X185Y304D01*
X213Y304D02*
X235Y304D01*
X265Y304D02*
X291Y304D01*
X328Y304D02*
X367Y304D01*
X509Y304D02*
X547Y304D01*
X584Y304D02*
X609Y304D01*
X639Y304D02*
X661Y304D01*
X689Y304D02*
X709Y304D01*
X735Y304D02*
X754Y304D01*
X780Y304D02*
X798Y304D01*
X119Y303D02*
X138Y303D01*
X165Y303D02*
X186Y303D01*
X213Y303D02*
X236Y303D01*
X266Y303D02*
X292Y303D01*
X330Y303D02*
X369Y303D01*
X506Y303D02*
X545Y303D01*
X582Y303D02*
X608Y303D01*
X638Y303D02*
X660Y303D01*
X688Y303D02*
X708Y303D01*
X734Y303D02*
X754Y303D01*
X779Y303D02*
X798Y303D01*
X120Y302D02*
X139Y302D01*
X166Y302D02*
X186Y302D01*
X214Y302D02*
X236Y302D01*
X267Y302D02*
X293Y302D01*
X332Y302D02*
X372Y302D01*
X504Y302D02*
X543Y302D01*
X581Y302D02*
X607Y302D01*
X638Y302D02*
X660Y302D01*
X687Y302D02*
X708Y302D01*
X734Y302D02*
X753Y302D01*
X779Y302D02*
X798Y302D01*
X120Y301D02*
X140Y301D01*
X166Y301D02*
X187Y301D01*
X215Y301D02*
X237Y301D01*
X268Y301D02*
X295Y301D01*
X333Y301D02*
X374Y301D01*
X501Y301D02*
X542Y301D01*
X580Y301D02*
X606Y301D01*
X637Y301D02*
X659Y301D01*
X687Y301D02*
X707Y301D01*
X733Y301D02*
X753Y301D01*
X778Y301D02*
X797Y301D01*
X121Y300D02*
X140Y300D01*
X167Y300D02*
X188Y300D01*
X216Y300D02*
X238Y300D01*
X269Y300D02*
X296Y300D01*
X335Y300D02*
X378Y300D01*
X498Y300D02*
X540Y300D01*
X579Y300D02*
X605Y300D01*
X636Y300D02*
X658Y300D01*
X686Y300D02*
X706Y300D01*
X733Y300D02*
X752Y300D01*
X778Y300D02*
X797Y300D01*
X121Y299D02*
X141Y299D01*
X167Y299D02*
X188Y299D01*
X217Y299D02*
X239Y299D01*
X270Y299D02*
X297Y299D01*
X337Y299D02*
X381Y299D01*
X495Y299D02*
X538Y299D01*
X578Y299D02*
X604Y299D01*
X635Y299D02*
X657Y299D01*
X685Y299D02*
X706Y299D01*
X732Y299D02*
X752Y299D01*
X777Y299D02*
X796Y299D01*
X122Y298D02*
X142Y298D01*
X168Y298D02*
X189Y298D01*
X217Y298D02*
X240Y298D01*
X272Y298D02*
X298Y298D01*
X339Y298D02*
X384Y298D01*
X492Y298D02*
X536Y298D01*
X576Y298D02*
X603Y298D01*
X634Y298D02*
X656Y298D01*
X684Y298D02*
X705Y298D01*
X731Y298D02*
X751Y298D01*
X777Y298D02*
X796Y298D01*
X122Y297D02*
X142Y297D01*
X169Y297D02*
X190Y297D01*
X218Y297D02*
X241Y297D01*
X273Y297D02*
X300Y297D01*
X340Y297D02*
X387Y297D01*
X488Y297D02*
X535Y297D01*
X575Y297D02*
X602Y297D01*
X633Y297D02*
X656Y297D01*
X684Y297D02*
X704Y297D01*
X731Y297D02*
X751Y297D01*
X776Y297D02*
X795Y297D01*
X123Y296D02*
X143Y296D01*
X170Y296D02*
X191Y296D01*
X219Y296D02*
X242Y296D01*
X274Y296D02*
X301Y296D01*
X342Y296D02*
X391Y296D01*
X484Y296D02*
X533Y296D01*
X574Y296D02*
X601Y296D01*
X632Y296D02*
X655Y296D01*
X683Y296D02*
X704Y296D01*
X730Y296D02*
X750Y296D01*
X775Y296D02*
X795Y296D01*
X124Y295D02*
X144Y295D01*
X170Y295D02*
X191Y295D01*
X220Y295D02*
X243Y295D01*
X275Y295D02*
X302Y295D01*
X344Y295D02*
X395Y295D01*
X480Y295D02*
X531Y295D01*
X572Y295D02*
X600Y295D01*
X631Y295D02*
X654Y295D01*
X682Y295D02*
X703Y295D01*
X730Y295D02*
X749Y295D01*
X775Y295D02*
X794Y295D01*
X124Y294D02*
X144Y294D01*
X171Y294D02*
X192Y294D01*
X221Y294D02*
X244Y294D01*
X276Y294D02*
X304Y294D01*
X346Y294D02*
X400Y294D01*
X476Y294D02*
X529Y294D01*
X571Y294D02*
X598Y294D01*
X630Y294D02*
X653Y294D01*
X681Y294D02*
X702Y294D01*
X729Y294D02*
X749Y294D01*
X774Y294D02*
X794Y294D01*
X125Y293D02*
X145Y293D01*
X172Y293D02*
X193Y293D01*
X222Y293D02*
X245Y293D01*
X277Y293D02*
X305Y293D01*
X348Y293D02*
X405Y293D01*
X470Y293D02*
X527Y293D01*
X570Y293D02*
X597Y293D01*
X629Y293D02*
X652Y293D01*
X681Y293D02*
X702Y293D01*
X728Y293D02*
X748Y293D01*
X774Y293D02*
X793Y293D01*
X125Y292D02*
X145Y292D01*
X172Y292D02*
X194Y292D01*
X222Y292D02*
X246Y292D01*
X278Y292D02*
X307Y292D01*
X350Y292D02*
X412Y292D01*
X463Y292D02*
X525Y292D01*
X568Y292D02*
X596Y292D01*
X628Y292D02*
X652Y292D01*
X680Y292D02*
X701Y292D01*
X728Y292D02*
X748Y292D01*
X773Y292D02*
X793Y292D01*
X126Y291D02*
X146Y291D01*
X173Y291D02*
X194Y291D01*
X223Y291D02*
X247Y291D01*
X279Y291D02*
X308Y291D01*
X353Y291D02*
X421Y291D01*
X454Y291D02*
X523Y291D01*
X567Y291D02*
X595Y291D01*
X627Y291D02*
X651Y291D01*
X679Y291D02*
X700Y291D01*
X727Y291D02*
X747Y291D01*
X773Y291D02*
X792Y291D01*
X127Y290D02*
X147Y290D01*
X174Y290D02*
X195Y290D01*
X224Y290D02*
X248Y290D01*
X281Y290D02*
X310Y290D01*
X355Y290D02*
X520Y290D01*
X565Y290D02*
X594Y290D01*
X626Y290D02*
X650Y290D01*
X679Y290D02*
X700Y290D01*
X727Y290D02*
X746Y290D01*
X772Y290D02*
X791Y290D01*
X127Y289D02*
X147Y289D01*
X175Y289D02*
X196Y289D01*
X225Y289D02*
X249Y289D01*
X282Y289D02*
X311Y289D01*
X357Y289D02*
X518Y289D01*
X564Y289D02*
X593Y289D01*
X625Y289D02*
X649Y289D01*
X678Y289D02*
X699Y289D01*
X726Y289D02*
X746Y289D01*
X772Y289D02*
X791Y289D01*
X128Y288D02*
X148Y288D01*
X175Y288D02*
X197Y288D01*
X226Y288D02*
X250Y288D01*
X283Y288D02*
X313Y288D01*
X359Y288D02*
X516Y288D01*
X562Y288D02*
X591Y288D01*
X624Y288D02*
X648Y288D01*
X677Y288D02*
X698Y288D01*
X725Y288D02*
X745Y288D01*
X771Y288D02*
X790Y288D01*
X128Y287D02*
X149Y287D01*
X176Y287D02*
X198Y287D01*
X227Y287D02*
X251Y287D01*
X284Y287D02*
X314Y287D01*
X362Y287D02*
X513Y287D01*
X561Y287D02*
X590Y287D01*
X623Y287D02*
X647Y287D01*
X676Y287D02*
X697Y287D01*
X725Y287D02*
X745Y287D01*
X771Y287D02*
X790Y287D01*
X129Y286D02*
X149Y286D01*
X177Y286D02*
X198Y286D01*
X228Y286D02*
X252Y286D01*
X286Y286D02*
X316Y286D01*
X365Y286D02*
X511Y286D01*
X559Y286D02*
X589Y286D01*
X622Y286D02*
X646Y286D01*
X675Y286D02*
X697Y286D01*
X724Y286D02*
X744Y286D01*
X770Y286D02*
X789Y286D01*
X130Y285D02*
X150Y285D01*
X177Y285D02*
X199Y285D01*
X229Y285D02*
X253Y285D01*
X287Y285D02*
X317Y285D01*
X367Y285D02*
X508Y285D01*
X558Y285D02*
X588Y285D01*
X621Y285D02*
X645Y285D01*
X675Y285D02*
X696Y285D01*
X723Y285D02*
X744Y285D01*
X769Y285D02*
X789Y285D01*
X130Y284D02*
X151Y284D01*
X178Y284D02*
X200Y284D01*
X230Y284D02*
X254Y284D01*
X288Y284D02*
X319Y284D01*
X370Y284D02*
X505Y284D01*
X556Y284D02*
X586Y284D01*
X620Y284D02*
X644Y284D01*
X674Y284D02*
X695Y284D01*
X723Y284D02*
X743Y284D01*
X769Y284D02*
X788Y284D01*
X131Y283D02*
X151Y283D01*
X179Y283D02*
X201Y283D01*
X231Y283D02*
X255Y283D01*
X290Y283D02*
X321Y283D01*
X373Y283D02*
X502Y283D01*
X554Y283D02*
X585Y283D01*
X619Y283D02*
X643Y283D01*
X673Y283D02*
X695Y283D01*
X722Y283D02*
X742Y283D01*
X768Y283D02*
X788Y283D01*
X132Y282D02*
X152Y282D01*
X180Y282D02*
X202Y282D01*
X232Y282D02*
X256Y282D01*
X291Y282D02*
X322Y282D01*
X376Y282D02*
X499Y282D01*
X553Y282D02*
X584Y282D01*
X618Y282D02*
X643Y282D01*
X672Y282D02*
X694Y282D01*
X721Y282D02*
X742Y282D01*
X768Y282D02*
X787Y282D01*
X132Y281D02*
X153Y281D01*
X181Y281D02*
X203Y281D01*
X233Y281D02*
X257Y281D01*
X292Y281D02*
X324Y281D01*
X379Y281D02*
X496Y281D01*
X551Y281D02*
X582Y281D01*
X617Y281D02*
X642Y281D01*
X671Y281D02*
X693Y281D01*
X721Y281D02*
X741Y281D01*
X767Y281D02*
X787Y281D01*
X133Y280D02*
X154Y280D01*
X181Y280D02*
X203Y280D01*
X234Y280D02*
X258Y280D01*
X294Y280D02*
X326Y280D01*
X383Y280D02*
X493Y280D01*
X549Y280D02*
X581Y280D01*
X616Y280D02*
X641Y280D01*
X670Y280D02*
X692Y280D01*
X720Y280D02*
X740Y280D01*
X767Y280D02*
X786Y280D01*
X134Y279D02*
X154Y279D01*
X182Y279D02*
X204Y279D01*
X235Y279D02*
X260Y279D01*
X295Y279D02*
X328Y279D01*
X387Y279D02*
X489Y279D01*
X547Y279D02*
X580Y279D01*
X615Y279D02*
X640Y279D01*
X670Y279D02*
X692Y279D01*
X719Y279D02*
X740Y279D01*
X766Y279D02*
X786Y279D01*
X134Y278D02*
X155Y278D01*
X183Y278D02*
X205Y278D01*
X236Y278D02*
X261Y278D01*
X296Y278D02*
X329Y278D01*
X390Y278D02*
X485Y278D01*
X546Y278D02*
X578Y278D01*
X614Y278D02*
X639Y278D01*
X669Y278D02*
X691Y278D01*
X719Y278D02*
X739Y278D01*
X765Y278D02*
X785Y278D01*
X135Y277D02*
X156Y277D01*
X184Y277D02*
X206Y277D01*
X237Y277D02*
X262Y277D01*
X298Y277D02*
X331Y277D01*
X395Y277D02*
X480Y277D01*
X544Y277D02*
X577Y277D01*
X613Y277D02*
X638Y277D01*
X668Y277D02*
X690Y277D01*
X718Y277D02*
X738Y277D01*
X765Y277D02*
X784Y277D01*
X136Y276D02*
X156Y276D01*
X185Y276D02*
X207Y276D01*
X238Y276D02*
X263Y276D01*
X299Y276D02*
X333Y276D01*
X400Y276D02*
X476Y276D01*
X542Y276D02*
X576Y276D01*
X611Y276D02*
X637Y276D01*
X667Y276D02*
X689Y276D01*
X717Y276D02*
X738Y276D01*
X764Y276D02*
X784Y276D01*
X136Y275D02*
X157Y275D01*
X185Y275D02*
X208Y275D01*
X239Y275D02*
X264Y275D01*
X301Y275D02*
X335Y275D01*
X406Y275D02*
X470Y275D01*
X540Y275D02*
X574Y275D01*
X610Y275D02*
X636Y275D01*
X666Y275D02*
X688Y275D01*
X716Y275D02*
X737Y275D01*
X764Y275D02*
X783Y275D01*
X137Y274D02*
X158Y274D01*
X186Y274D02*
X209Y274D01*
X240Y274D02*
X265Y274D01*
X302Y274D02*
X337Y274D01*
X412Y274D02*
X463Y274D01*
X538Y274D02*
X573Y274D01*
X609Y274D02*
X635Y274D01*
X665Y274D02*
X688Y274D01*
X716Y274D02*
X736Y274D01*
X763Y274D02*
X783Y274D01*
X138Y273D02*
X159Y273D01*
X187Y273D02*
X210Y273D01*
X241Y273D02*
X267Y273D01*
X304Y273D02*
X339Y273D01*
X422Y273D02*
X453Y273D01*
X536Y273D02*
X571Y273D01*
X608Y273D02*
X634Y273D01*
X664Y273D02*
X687Y273D01*
X715Y273D02*
X736Y273D01*
X762Y273D02*
X782Y273D01*
X138Y272D02*
X159Y272D01*
X188Y272D02*
X211Y272D01*
X242Y272D02*
X268Y272D01*
X305Y272D02*
X342Y272D01*
X534Y272D02*
X569Y272D01*
X607Y272D02*
X633Y272D01*
X663Y272D02*
X686Y272D01*
X714Y272D02*
X735Y272D01*
X762Y272D02*
X782Y272D01*
X139Y271D02*
X160Y271D01*
X189Y271D02*
X211Y271D01*
X243Y271D02*
X269Y271D01*
X307Y271D02*
X344Y271D01*
X531Y271D02*
X568Y271D01*
X605Y271D02*
X632Y271D01*
X662Y271D02*
X685Y271D01*
X713Y271D02*
X734Y271D01*
X761Y271D02*
X781Y271D01*
X140Y270D02*
X161Y270D01*
X189Y270D02*
X212Y270D01*
X244Y270D02*
X270Y270D01*
X309Y270D02*
X346Y270D01*
X529Y270D02*
X566Y270D01*
X604Y270D02*
X631Y270D01*
X662Y270D02*
X684Y270D01*
X713Y270D02*
X734Y270D01*
X760Y270D02*
X780Y270D01*
X141Y269D02*
X162Y269D01*
X190Y269D02*
X213Y269D01*
X245Y269D02*
X272Y269D01*
X310Y269D02*
X348Y269D01*
X527Y269D02*
X565Y269D01*
X603Y269D02*
X629Y269D01*
X661Y269D02*
X683Y269D01*
X712Y269D02*
X733Y269D01*
X760Y269D02*
X780Y269D01*
X141Y268D02*
X162Y268D01*
X191Y268D02*
X214Y268D01*
X246Y268D02*
X273Y268D01*
X312Y268D02*
X351Y268D01*
X525Y268D02*
X563Y268D01*
X602Y268D02*
X628Y268D01*
X660Y268D02*
X683Y268D01*
X711Y268D02*
X732Y268D01*
X759Y268D02*
X779Y268D01*
X142Y267D02*
X163Y267D01*
X192Y267D02*
X215Y267D01*
X247Y267D02*
X274Y267D01*
X314Y267D02*
X353Y267D01*
X522Y267D02*
X561Y267D01*
X601Y267D02*
X627Y267D01*
X659Y267D02*
X682Y267D01*
X710Y267D02*
X732Y267D01*
X758Y267D02*
X779Y267D01*
X143Y266D02*
X164Y266D01*
X193Y266D02*
X216Y266D01*
X248Y266D02*
X276Y266D01*
X315Y266D02*
X356Y266D01*
X519Y266D02*
X560Y266D01*
X599Y266D02*
X626Y266D01*
X658Y266D02*
X681Y266D01*
X710Y266D02*
X731Y266D01*
X758Y266D02*
X778Y266D01*
X143Y265D02*
X165Y265D01*
X194Y265D02*
X217Y265D01*
X249Y265D02*
X277Y265D01*
X317Y265D02*
X358Y265D01*
X517Y265D02*
X558Y265D01*
X598Y265D02*
X625Y265D01*
X657Y265D02*
X680Y265D01*
X709Y265D02*
X730Y265D01*
X757Y265D02*
X777Y265D01*
X144Y264D02*
X166Y264D01*
X195Y264D02*
X218Y264D01*
X251Y264D02*
X278Y264D01*
X319Y264D02*
X361Y264D01*
X514Y264D02*
X556Y264D01*
X597Y264D02*
X624Y264D01*
X656Y264D02*
X679Y264D01*
X708Y264D02*
X729Y264D01*
X756Y264D02*
X777Y264D01*
X145Y263D02*
X166Y263D01*
X196Y263D02*
X219Y263D01*
X252Y263D02*
X280Y263D01*
X321Y263D02*
X364Y263D01*
X511Y263D02*
X554Y263D01*
X595Y263D02*
X623Y263D01*
X655Y263D02*
X678Y263D01*
X707Y263D02*
X729Y263D01*
X756Y263D02*
X776Y263D01*
X146Y262D02*
X167Y262D01*
X197Y262D02*
X220Y262D01*
X253Y262D02*
X281Y262D01*
X323Y262D02*
X367Y262D01*
X508Y262D02*
X553Y262D01*
X594Y262D02*
X622Y262D01*
X654Y262D02*
X677Y262D01*
X707Y262D02*
X728Y262D01*
X755Y262D02*
X776Y262D01*
X146Y261D02*
X168Y261D01*
X197Y261D02*
X221Y261D01*
X254Y261D02*
X282Y261D01*
X324Y261D02*
X370Y261D01*
X505Y261D02*
X551Y261D01*
X592Y261D02*
X620Y261D01*
X653Y261D02*
X677Y261D01*
X706Y261D02*
X727Y261D01*
X754Y261D02*
X775Y261D01*
X147Y260D02*
X169Y260D01*
X198Y260D02*
X222Y260D01*
X255Y260D02*
X284Y260D01*
X326Y260D02*
X374Y260D01*
X502Y260D02*
X549Y260D01*
X591Y260D02*
X619Y260D01*
X652Y260D02*
X676Y260D01*
X705Y260D02*
X726Y260D01*
X754Y260D02*
X774Y260D01*
X148Y259D02*
X170Y259D01*
X199Y259D02*
X223Y259D01*
X257Y259D02*
X285Y259D01*
X328Y259D02*
X377Y259D01*
X498Y259D02*
X547Y259D01*
X590Y259D02*
X618Y259D01*
X651Y259D02*
X675Y259D01*
X704Y259D02*
X726Y259D01*
X753Y259D02*
X774Y259D01*
X149Y258D02*
X170Y258D01*
X200Y258D02*
X224Y258D01*
X258Y258D02*
X287Y258D01*
X330Y258D02*
X381Y258D01*
X494Y258D02*
X545Y258D01*
X588Y258D02*
X617Y258D01*
X650Y258D02*
X674Y258D01*
X703Y258D02*
X725Y258D01*
X753Y258D02*
X773Y258D01*
X149Y257D02*
X171Y257D01*
X201Y257D02*
X225Y257D01*
X259Y257D02*
X288Y257D01*
X332Y257D02*
X385Y257D01*
X491Y257D02*
X543Y257D01*
X587Y257D02*
X616Y257D01*
X649Y257D02*
X673Y257D01*
X702Y257D02*
X724Y257D01*
X752Y257D02*
X772Y257D01*
X150Y256D02*
X172Y256D01*
X202Y256D02*
X226Y256D01*
X260Y256D02*
X290Y256D01*
X335Y256D02*
X390Y256D01*
X486Y256D02*
X541Y256D01*
X585Y256D02*
X614Y256D01*
X648Y256D02*
X672Y256D01*
X702Y256D02*
X724Y256D01*
X751Y256D02*
X772Y256D01*
X151Y255D02*
X173Y255D01*
X203Y255D02*
X228Y255D01*
X261Y255D02*
X291Y255D01*
X337Y255D02*
X394Y255D01*
X481Y255D02*
X538Y255D01*
X584Y255D02*
X613Y255D01*
X647Y255D02*
X671Y255D01*
X701Y255D02*
X723Y255D01*
X750Y255D02*
X771Y255D01*
X152Y254D02*
X174Y254D01*
X204Y254D02*
X229Y254D01*
X263Y254D02*
X293Y254D01*
X339Y254D02*
X400Y254D01*
X475Y254D02*
X536Y254D01*
X582Y254D02*
X612Y254D01*
X646Y254D02*
X670Y254D01*
X700Y254D02*
X722Y254D01*
X750Y254D02*
X770Y254D01*
X153Y253D02*
X175Y253D01*
X205Y253D02*
X230Y253D01*
X264Y253D02*
X294Y253D01*
X341Y253D02*
X406Y253D01*
X469Y253D02*
X534Y253D01*
X581Y253D02*
X611Y253D01*
X645Y253D02*
X669Y253D01*
X699Y253D02*
X721Y253D01*
X749Y253D02*
X770Y253D01*
X153Y252D02*
X176Y252D01*
X206Y252D02*
X231Y252D01*
X265Y252D02*
X296Y252D01*
X344Y252D02*
X415Y252D01*
X460Y252D02*
X532Y252D01*
X579Y252D02*
X609Y252D01*
X644Y252D02*
X668Y252D01*
X698Y252D02*
X720Y252D01*
X748Y252D02*
X769Y252D01*
X154Y251D02*
X177Y251D01*
X207Y251D02*
X232Y251D01*
X267Y251D02*
X297Y251D01*
X346Y251D02*
X432Y251D01*
X444Y251D02*
X529Y251D01*
X577Y251D02*
X608Y251D01*
X643Y251D02*
X667Y251D01*
X697Y251D02*
X720Y251D01*
X748Y251D02*
X768Y251D01*
X155Y250D02*
X177Y250D01*
X208Y250D02*
X233Y250D01*
X268Y250D02*
X299Y250D01*
X349Y250D02*
X527Y250D01*
X576Y250D02*
X607Y250D01*
X641Y250D02*
X666Y250D01*
X697Y250D02*
X719Y250D01*
X747Y250D02*
X768Y250D01*
X156Y249D02*
X178Y249D01*
X209Y249D02*
X234Y249D01*
X269Y249D02*
X301Y249D01*
X351Y249D02*
X524Y249D01*
X574Y249D02*
X605Y249D01*
X640Y249D02*
X665Y249D01*
X696Y249D02*
X718Y249D01*
X746Y249D02*
X767Y249D01*
X157Y248D02*
X179Y248D01*
X210Y248D02*
X235Y248D01*
X271Y248D02*
X303Y248D01*
X354Y248D02*
X521Y248D01*
X572Y248D02*
X604Y248D01*
X639Y248D02*
X664Y248D01*
X695Y248D02*
X717Y248D01*
X745Y248D02*
X766Y248D01*
X157Y247D02*
X180Y247D01*
X211Y247D02*
X236Y247D01*
X272Y247D02*
X304Y247D01*
X357Y247D02*
X519Y247D01*
X571Y247D02*
X603Y247D01*
X638Y247D02*
X663Y247D01*
X694Y247D02*
X716Y247D01*
X745Y247D02*
X766Y247D01*
X158Y246D02*
X181Y246D01*
X212Y246D02*
X238Y246D01*
X274Y246D02*
X306Y246D01*
X360Y246D02*
X516Y246D01*
X569Y246D02*
X601Y246D01*
X637Y246D02*
X662Y246D01*
X693Y246D02*
X716Y246D01*
X744Y246D02*
X765Y246D01*
X159Y245D02*
X182Y245D01*
X213Y245D02*
X239Y245D01*
X275Y245D02*
X308Y245D01*
X363Y245D02*
X513Y245D01*
X567Y245D02*
X600Y245D01*
X636Y245D02*
X661Y245D01*
X692Y245D02*
X715Y245D01*
X743Y245D02*
X764Y245D01*
X160Y244D02*
X183Y244D01*
X214Y244D02*
X240Y244D01*
X276Y244D02*
X310Y244D01*
X366Y244D02*
X510Y244D01*
X565Y244D02*
X598Y244D01*
X635Y244D02*
X660Y244D01*
X691Y244D02*
X714Y244D01*
X742Y244D02*
X764Y244D01*
X161Y243D02*
X184Y243D01*
X215Y243D02*
X241Y243D01*
X278Y243D02*
X312Y243D01*
X369Y243D02*
X506Y243D01*
X564Y243D02*
X597Y243D01*
X633Y243D02*
X659Y243D01*
X690Y243D02*
X713Y243D01*
X742Y243D02*
X763Y243D01*
X162Y242D02*
X185Y242D01*
X216Y242D02*
X242Y242D01*
X279Y242D02*
X313Y242D01*
X373Y242D02*
X503Y242D01*
X562Y242D02*
X595Y242D01*
X632Y242D02*
X658Y242D01*
X689Y242D02*
X712Y242D01*
X741Y242D02*
X762Y242D01*
X163Y241D02*
X186Y241D01*
X217Y241D02*
X244Y241D01*
X281Y241D02*
X315Y241D01*
X376Y241D02*
X499Y241D01*
X560Y241D02*
X594Y241D01*
X631Y241D02*
X657Y241D01*
X688Y241D02*
X711Y241D01*
X740Y241D02*
X761Y241D01*
X163Y240D02*
X187Y240D01*
X218Y240D02*
X245Y240D01*
X283Y240D02*
X317Y240D01*
X380Y240D02*
X495Y240D01*
X558Y240D02*
X592Y240D01*
X630Y240D02*
X656Y240D01*
X687Y240D02*
X711Y240D01*
X739Y240D02*
X761Y240D01*
X164Y239D02*
X188Y239D01*
X220Y239D02*
X246Y239D01*
X284Y239D02*
X319Y239D01*
X385Y239D02*
X491Y239D01*
X556Y239D02*
X591Y239D01*
X628Y239D02*
X655Y239D01*
X687Y239D02*
X710Y239D01*
X739Y239D02*
X760Y239D01*
X165Y238D02*
X189Y238D01*
X221Y238D02*
X247Y238D01*
X286Y238D02*
X321Y238D01*
X389Y238D02*
X486Y238D01*
X554Y238D02*
X589Y238D01*
X627Y238D02*
X654Y238D01*
X686Y238D02*
X709Y238D01*
X738Y238D02*
X759Y238D01*
X166Y237D02*
X190Y237D01*
X222Y237D02*
X249Y237D01*
X287Y237D02*
X324Y237D01*
X394Y237D02*
X481Y237D01*
X552Y237D02*
X588Y237D01*
X626Y237D02*
X653Y237D01*
X685Y237D02*
X708Y237D01*
X737Y237D02*
X758Y237D01*
X167Y236D02*
X191Y236D01*
X223Y236D02*
X250Y236D01*
X289Y236D02*
X326Y236D01*
X401Y236D02*
X475Y236D01*
X550Y236D02*
X586Y236D01*
X625Y236D02*
X652Y236D01*
X684Y236D02*
X707Y236D01*
X736Y236D02*
X758Y236D01*
X168Y235D02*
X192Y235D01*
X224Y235D02*
X251Y235D01*
X290Y235D02*
X328Y235D01*
X407Y235D02*
X468Y235D01*
X547Y235D02*
X585Y235D01*
X623Y235D02*
X650Y235D01*
X683Y235D02*
X706Y235D01*
X735Y235D02*
X757Y235D01*
X169Y234D02*
X193Y234D01*
X225Y234D02*
X253Y234D01*
X292Y234D02*
X330Y234D01*
X417Y234D02*
X459Y234D01*
X545Y234D02*
X583Y234D01*
X622Y234D02*
X649Y234D01*
X682Y234D02*
X705Y234D01*
X734Y234D02*
X756Y234D01*
X170Y233D02*
X194Y233D01*
X226Y233D02*
X254Y233D01*
X294Y233D02*
X332Y233D01*
X543Y233D02*
X581Y233D01*
X621Y233D02*
X648Y233D01*
X681Y233D02*
X704Y233D01*
X734Y233D02*
X755Y233D01*
X171Y232D02*
X195Y232D01*
X227Y232D02*
X255Y232D01*
X296Y232D02*
X335Y232D01*
X540Y232D02*
X579Y232D01*
X619Y232D02*
X647Y232D01*
X680Y232D02*
X703Y232D01*
X733Y232D02*
X755Y232D01*
X171Y231D02*
X196Y231D01*
X229Y231D02*
X257Y231D01*
X297Y231D02*
X337Y231D01*
X538Y231D02*
X578Y231D01*
X618Y231D02*
X646Y231D01*
X679Y231D02*
X702Y231D01*
X732Y231D02*
X754Y231D01*
X172Y230D02*
X197Y230D01*
X230Y230D02*
X258Y230D01*
X299Y230D02*
X340Y230D01*
X535Y230D02*
X576Y230D01*
X617Y230D02*
X645Y230D01*
X678Y230D02*
X702Y230D01*
X731Y230D02*
X753Y230D01*
X173Y229D02*
X198Y229D01*
X231Y229D02*
X259Y229D01*
X301Y229D02*
X343Y229D01*
X533Y229D02*
X574Y229D01*
X615Y229D02*
X644Y229D01*
X677Y229D02*
X701Y229D01*
X730Y229D02*
X752Y229D01*
X174Y228D02*
X199Y228D01*
X232Y228D02*
X261Y228D01*
X303Y228D02*
X345Y228D01*
X530Y228D02*
X572Y228D01*
X614Y228D02*
X642Y228D01*
X676Y228D02*
X700Y228D01*
X729Y228D02*
X752Y228D01*
X175Y227D02*
X200Y227D01*
X234Y227D02*
X262Y227D01*
X305Y227D02*
X348Y227D01*
X528Y227D02*
X571Y227D01*
X612Y227D02*
X641Y227D01*
X674Y227D02*
X699Y227D01*
X729Y227D02*
X751Y227D01*
X176Y226D02*
X201Y226D01*
X235Y226D02*
X264Y226D01*
X307Y226D02*
X351Y226D01*
X525Y226D02*
X569Y226D01*
X611Y226D02*
X640Y226D01*
X673Y226D02*
X698Y226D01*
X728Y226D02*
X750Y226D01*
X177Y225D02*
X202Y225D01*
X236Y225D02*
X265Y225D01*
X308Y225D02*
X354Y225D01*
X522Y225D02*
X567Y225D01*
X610Y225D02*
X639Y225D01*
X672Y225D02*
X697Y225D01*
X727Y225D02*
X749Y225D01*
X178Y224D02*
X203Y224D01*
X237Y224D02*
X267Y224D01*
X310Y224D02*
X357Y224D01*
X518Y224D02*
X565Y224D01*
X608Y224D02*
X637Y224D01*
X671Y224D02*
X696Y224D01*
X726Y224D02*
X748Y224D01*
X179Y223D02*
X204Y223D01*
X238Y223D02*
X268Y223D01*
X312Y223D02*
X360Y223D01*
X515Y223D02*
X563Y223D01*
X607Y223D02*
X636Y223D01*
X670Y223D02*
X695Y223D01*
X725Y223D02*
X748Y223D01*
X180Y222D02*
X205Y222D01*
X240Y222D02*
X270Y222D01*
X314Y222D02*
X363Y222D01*
X512Y222D02*
X561Y222D01*
X605Y222D02*
X635Y222D01*
X669Y222D02*
X694Y222D01*
X724Y222D02*
X747Y222D01*
X181Y221D02*
X206Y221D01*
X241Y221D02*
X271Y221D01*
X317Y221D02*
X367Y221D01*
X508Y221D02*
X559Y221D01*
X604Y221D02*
X634Y221D01*
X668Y221D02*
X693Y221D01*
X723Y221D02*
X746Y221D01*
X182Y220D02*
X207Y220D01*
X243Y220D02*
X273Y220D01*
X319Y220D02*
X371Y220D01*
X505Y220D02*
X557Y220D01*
X602Y220D02*
X632Y220D01*
X667Y220D02*
X692Y220D01*
X722Y220D02*
X745Y220D01*
X183Y219D02*
X209Y219D01*
X244Y219D02*
X274Y219D01*
X321Y219D02*
X375Y219D01*
X501Y219D02*
X554Y219D01*
X600Y219D02*
X631Y219D01*
X666Y219D02*
X691Y219D01*
X722Y219D02*
X744Y219D01*
X184Y218D02*
X210Y218D01*
X245Y218D02*
X276Y218D01*
X323Y218D02*
X379Y218D01*
X496Y218D02*
X552Y218D01*
X599Y218D02*
X630Y218D01*
X665Y218D02*
X690Y218D01*
X721Y218D02*
X743Y218D01*
X185Y217D02*
X211Y217D01*
X247Y217D02*
X278Y217D01*
X325Y217D02*
X384Y217D01*
X492Y217D02*
X550Y217D01*
X597Y217D02*
X628Y217D01*
X663Y217D02*
X689Y217D01*
X720Y217D02*
X743Y217D01*
X186Y216D02*
X212Y216D01*
X248Y216D02*
X279Y216D01*
X328Y216D02*
X389Y216D01*
X487Y216D02*
X547Y216D01*
X595Y216D02*
X627Y216D01*
X662Y216D02*
X688Y216D01*
X719Y216D02*
X742Y216D01*
X188Y215D02*
X213Y215D01*
X249Y215D02*
X281Y215D01*
X330Y215D02*
X395Y215D01*
X481Y215D02*
X545Y215D01*
X594Y215D02*
X625Y215D01*
X661Y215D02*
X687Y215D01*
X718Y215D02*
X741Y215D01*
X189Y214D02*
X215Y214D01*
X251Y214D02*
X283Y214D01*
X333Y214D02*
X402Y214D01*
X474Y214D02*
X543Y214D01*
X592Y214D02*
X624Y214D01*
X660Y214D02*
X686Y214D01*
X717Y214D02*
X740Y214D01*
X190Y213D02*
X216Y213D01*
X252Y213D02*
X285Y213D01*
X335Y213D02*
X410Y213D01*
X465Y213D02*
X540Y213D01*
X590Y213D02*
X623Y213D01*
X659Y213D02*
X685Y213D01*
X716Y213D02*
X739Y213D01*
X191Y212D02*
X217Y212D01*
X254Y212D02*
X286Y212D01*
X338Y212D02*
X423Y212D01*
X452Y212D02*
X537Y212D01*
X589Y212D02*
X621Y212D01*
X658Y212D02*
X684Y212D01*
X715Y212D02*
X738Y212D01*
X192Y211D02*
X218Y211D01*
X255Y211D02*
X288Y211D01*
X340Y211D02*
X535Y211D01*
X587Y211D02*
X620Y211D01*
X656Y211D02*
X683Y211D01*
X714Y211D02*
X738Y211D01*
X193Y210D02*
X219Y210D01*
X257Y210D02*
X290Y210D01*
X343Y210D02*
X532Y210D01*
X585Y210D02*
X618Y210D01*
X655Y210D02*
X681Y210D01*
X713Y210D02*
X737Y210D01*
X194Y209D02*
X221Y209D01*
X258Y209D02*
X292Y209D01*
X346Y209D02*
X529Y209D01*
X583Y209D02*
X617Y209D01*
X654Y209D02*
X680Y209D01*
X712Y209D02*
X736Y209D01*
X195Y208D02*
X222Y208D01*
X260Y208D02*
X294Y208D01*
X349Y208D02*
X526Y208D01*
X582Y208D02*
X615Y208D01*
X653Y208D02*
X679Y208D01*
X711Y208D02*
X735Y208D01*
X196Y207D02*
X223Y207D01*
X261Y207D02*
X296Y207D01*
X352Y207D02*
X523Y207D01*
X580Y207D02*
X614Y207D01*
X651Y207D02*
X678Y207D01*
X710Y207D02*
X734Y207D01*
X197Y206D02*
X224Y206D01*
X263Y206D02*
X298Y206D01*
X355Y206D02*
X520Y206D01*
X578Y206D02*
X612Y206D01*
X650Y206D02*
X677Y206D01*
X709Y206D02*
X733Y206D01*
X198Y205D02*
X226Y205D01*
X264Y205D02*
X299Y205D01*
X359Y205D02*
X517Y205D01*
X576Y205D02*
X611Y205D01*
X649Y205D02*
X676Y205D01*
X708Y205D02*
X732Y205D01*
X200Y204D02*
X227Y204D01*
X266Y204D02*
X301Y204D01*
X363Y204D02*
X513Y204D01*
X574Y204D02*
X609Y204D01*
X648Y204D02*
X675Y204D01*
X707Y204D02*
X731Y204D01*
X201Y203D02*
X228Y203D01*
X267Y203D02*
X304Y203D01*
X366Y203D02*
X509Y203D01*
X572Y203D02*
X608Y203D01*
X646Y203D02*
X674Y203D01*
X706Y203D02*
X730Y203D01*
X202Y202D02*
X230Y202D01*
X269Y202D02*
X305Y202D01*
X370Y202D02*
X505Y202D01*
X570Y202D02*
X606Y202D01*
X645Y202D02*
X672Y202D01*
X705Y202D02*
X729Y202D01*
X203Y201D02*
X231Y201D01*
X271Y201D02*
X308Y201D01*
X374Y201D02*
X501Y201D01*
X567Y201D02*
X604Y201D01*
X644Y201D02*
X671Y201D01*
X704Y201D02*
X728Y201D01*
X204Y200D02*
X232Y200D01*
X272Y200D02*
X310Y200D01*
X379Y200D02*
X497Y200D01*
X565Y200D02*
X603Y200D01*
X642Y200D02*
X670Y200D01*
X703Y200D02*
X727Y200D01*
X206Y199D02*
X234Y199D01*
X274Y199D02*
X312Y199D01*
X384Y199D02*
X492Y199D01*
X563Y199D02*
X601Y199D01*
X641Y199D02*
X669Y199D01*
X702Y199D02*
X726Y199D01*
X207Y198D02*
X235Y198D01*
X276Y198D02*
X314Y198D01*
X389Y198D02*
X487Y198D01*
X561Y198D02*
X599Y198D01*
X640Y198D02*
X668Y198D01*
X701Y198D02*
X726Y198D01*
X208Y197D02*
X237Y197D01*
X278Y197D02*
X317Y197D01*
X395Y197D02*
X480Y197D01*
X559Y197D02*
X597Y197D01*
X638Y197D02*
X667Y197D01*
X700Y197D02*
X725Y197D01*
X209Y196D02*
X238Y196D01*
X279Y196D02*
X319Y196D01*
X402Y196D02*
X474Y196D01*
X556Y196D02*
X596Y196D01*
X637Y196D02*
X665Y196D01*
X699Y196D02*
X724Y196D01*
X211Y195D02*
X239Y195D01*
X281Y195D02*
X321Y195D01*
X411Y195D02*
X464Y195D01*
X554Y195D02*
X594Y195D01*
X635Y195D02*
X664Y195D01*
X698Y195D02*
X723Y195D01*
X212Y194D02*
X241Y194D01*
X283Y194D02*
X324Y194D01*
X426Y194D02*
X449Y194D01*
X551Y194D02*
X592Y194D01*
X634Y194D02*
X663Y194D01*
X697Y194D02*
X722Y194D01*
X213Y193D02*
X242Y193D01*
X285Y193D02*
X327Y193D01*
X549Y193D02*
X590Y193D01*
X633Y193D02*
X662Y193D01*
X696Y193D02*
X721Y193D01*
X214Y192D02*
X244Y192D01*
X287Y192D02*
X329Y192D01*
X546Y192D02*
X589Y192D01*
X631Y192D02*
X660Y192D01*
X695Y192D02*
X719Y192D01*
X216Y191D02*
X245Y191D01*
X289Y191D02*
X332Y191D01*
X544Y191D02*
X587Y191D01*
X630Y191D02*
X659Y191D01*
X693Y191D02*
X718Y191D01*
X217Y190D02*
X247Y190D01*
X290Y190D02*
X334Y190D01*
X541Y190D02*
X585Y190D01*
X628Y190D02*
X658Y190D01*
X692Y190D02*
X717Y190D01*
X218Y189D02*
X248Y189D01*
X292Y189D02*
X337Y189D01*
X538Y189D02*
X583Y189D01*
X626Y189D02*
X656Y189D01*
X691Y189D02*
X716Y189D01*
X220Y188D02*
X250Y188D01*
X294Y188D02*
X340Y188D01*
X535Y188D02*
X581Y188D01*
X625Y188D02*
X655Y188D01*
X690Y188D02*
X715Y188D01*
X221Y187D02*
X251Y187D01*
X296Y187D02*
X343Y187D01*
X532Y187D02*
X579Y187D01*
X623Y187D02*
X654Y187D01*
X689Y187D02*
X714Y187D01*
X222Y186D02*
X253Y186D01*
X298Y186D02*
X346Y186D01*
X529Y186D02*
X577Y186D01*
X622Y186D02*
X652Y186D01*
X688Y186D02*
X713Y186D01*
X224Y185D02*
X255Y185D01*
X301Y185D02*
X350Y185D01*
X526Y185D02*
X575Y185D01*
X620Y185D02*
X651Y185D01*
X687Y185D02*
X712Y185D01*
X225Y184D02*
X256Y184D01*
X303Y184D02*
X353Y184D01*
X522Y184D02*
X572Y184D01*
X619Y184D02*
X650Y184D01*
X686Y184D02*
X711Y184D01*
X226Y183D02*
X258Y183D01*
X305Y183D02*
X357Y183D01*
X519Y183D02*
X570Y183D01*
X617Y183D02*
X648Y183D01*
X684Y183D02*
X710Y183D01*
X228Y182D02*
X260Y182D01*
X307Y182D02*
X361Y182D01*
X515Y182D02*
X568Y182D01*
X615Y182D02*
X647Y182D01*
X683Y182D02*
X709Y182D01*
X229Y181D02*
X261Y181D01*
X310Y181D02*
X364Y181D01*
X511Y181D02*
X566Y181D01*
X614Y181D02*
X645Y181D01*
X682Y181D02*
X708Y181D01*
X231Y180D02*
X263Y180D01*
X312Y180D02*
X369Y180D01*
X507Y180D02*
X563Y180D01*
X612Y180D02*
X644Y180D01*
X681Y180D02*
X707Y180D01*
X232Y179D02*
X265Y179D01*
X314Y179D02*
X373Y179D01*
X502Y179D02*
X561Y179D01*
X610Y179D02*
X643Y179D01*
X679Y179D02*
X706Y179D01*
X234Y178D02*
X266Y178D01*
X317Y178D02*
X378Y178D01*
X497Y178D02*
X559Y178D01*
X608Y178D02*
X641Y178D01*
X678Y178D02*
X705Y178D01*
X235Y177D02*
X268Y177D01*
X319Y177D02*
X384Y177D01*
X492Y177D02*
X556Y177D01*
X607Y177D02*
X640Y177D01*
X677Y177D02*
X704Y177D01*
X237Y176D02*
X270Y176D01*
X322Y176D02*
X390Y176D01*
X486Y176D02*
X553Y176D01*
X605Y176D02*
X638Y176D01*
X676Y176D02*
X702Y176D01*
X238Y175D02*
X272Y175D01*
X324Y175D02*
X396Y175D01*
X479Y175D02*
X551Y175D01*
X603Y175D02*
X637Y175D01*
X674Y175D02*
X701Y175D01*
X240Y174D02*
X274Y174D01*
X327Y174D02*
X405Y174D01*
X471Y174D02*
X548Y174D01*
X601Y174D02*
X635Y174D01*
X673Y174D02*
X700Y174D01*
X241Y173D02*
X276Y173D01*
X330Y173D02*
X416Y173D01*
X460Y173D02*
X545Y173D01*
X599Y173D02*
X634Y173D01*
X672Y173D02*
X699Y173D01*
X243Y172D02*
X278Y172D01*
X333Y172D02*
X543Y172D01*
X598Y172D02*
X632Y172D01*
X671Y172D02*
X698Y172D01*
X244Y171D02*
X280Y171D01*
X336Y171D02*
X539Y171D01*
X596Y171D02*
X631Y171D01*
X669Y171D02*
X697Y171D01*
X246Y170D02*
X281Y170D01*
X339Y170D02*
X536Y170D01*
X594Y170D02*
X629Y170D01*
X668Y170D02*
X696Y170D01*
X247Y169D02*
X283Y169D01*
X342Y169D02*
X533Y169D01*
X592Y169D02*
X627Y169D01*
X667Y169D02*
X695Y169D01*
X249Y168D02*
X286Y168D01*
X345Y168D02*
X530Y168D01*
X590Y168D02*
X626Y168D01*
X665Y168D02*
X693Y168D01*
X251Y167D02*
X287Y167D01*
X349Y167D02*
X527Y167D01*
X588Y167D02*
X624Y167D01*
X664Y167D02*
X692Y167D01*
X253Y166D02*
X290Y166D01*
X352Y166D02*
X523Y166D01*
X586Y166D02*
X623Y166D01*
X662Y166D02*
X691Y166D01*
X254Y165D02*
X292Y165D01*
X356Y165D02*
X519Y165D01*
X583Y165D02*
X621Y165D01*
X661Y165D02*
X689Y165D01*
X256Y164D02*
X294Y164D01*
X360Y164D02*
X516Y164D01*
X581Y164D02*
X619Y164D01*
X660Y164D02*
X688Y164D01*
X258Y163D02*
X296Y163D01*
X364Y163D02*
X512Y163D01*
X579Y163D02*
X617Y163D01*
X658Y163D02*
X687Y163D01*
X259Y162D02*
X298Y162D01*
X369Y162D02*
X507Y162D01*
X577Y162D02*
X616Y162D01*
X657Y162D02*
X686Y162D01*
X261Y161D02*
X301Y161D01*
X373Y161D02*
X502Y161D01*
X574Y161D02*
X614Y161D01*
X655Y161D02*
X684Y161D01*
X263Y160D02*
X303Y160D01*
X378Y160D02*
X497Y160D01*
X572Y160D02*
X612Y160D01*
X654Y160D02*
X683Y160D01*
X265Y159D02*
X305Y159D01*
X384Y159D02*
X492Y159D01*
X570Y159D02*
X610Y159D01*
X653Y159D02*
X682Y159D01*
X267Y158D02*
X308Y158D01*
X390Y158D02*
X485Y158D01*
X567Y158D02*
X608Y158D01*
X651Y158D02*
X681Y158D01*
X269Y157D02*
X311Y157D01*
X397Y157D02*
X479Y157D01*
X565Y157D02*
X607Y157D01*
X650Y157D02*
X679Y157D01*
X271Y156D02*
X313Y156D01*
X406Y156D02*
X469Y156D01*
X562Y156D02*
X605Y156D01*
X648Y156D02*
X678Y156D01*
X273Y155D02*
X316Y155D01*
X419Y155D02*
X457Y155D01*
X559Y155D02*
X603Y155D01*
X646Y155D02*
X677Y155D01*
X274Y154D02*
X318Y154D01*
X557Y154D02*
X601Y154D01*
X645Y154D02*
X675Y154D01*
X276Y153D02*
X321Y153D01*
X554Y153D02*
X599Y153D01*
X643Y153D02*
X674Y153D01*
X278Y152D02*
X324Y152D01*
X551Y152D02*
X597Y152D01*
X642Y152D02*
X673Y152D01*
X280Y151D02*
X327Y151D01*
X549Y151D02*
X595Y151D01*
X640Y151D02*
X671Y151D01*
X283Y150D02*
X330Y150D01*
X545Y150D02*
X593Y150D01*
X638Y150D02*
X670Y150D01*
X285Y149D02*
X333Y149D01*
X542Y149D02*
X591Y149D01*
X637Y149D02*
X668Y149D01*
X287Y148D02*
X336Y148D01*
X539Y148D02*
X588Y148D01*
X635Y148D02*
X667Y148D01*
X289Y147D02*
X340Y147D01*
X536Y147D02*
X586Y147D01*
X634Y147D02*
X666Y147D01*
X291Y146D02*
X343Y146D01*
X533Y146D02*
X584Y146D01*
X632Y146D02*
X664Y146D01*
X294Y145D02*
X347Y145D01*
X529Y145D02*
X581Y145D01*
X630Y145D02*
X663Y145D01*
X296Y144D02*
X350Y144D01*
X525Y144D02*
X579Y144D01*
X628Y144D02*
X661Y144D01*
X298Y143D02*
X354Y143D01*
X521Y143D02*
X577Y143D01*
X627Y143D02*
X660Y143D01*
X301Y142D02*
X359Y142D01*
X517Y142D02*
X574Y142D01*
X625Y142D02*
X658Y142D01*
X303Y141D02*
X363Y141D01*
X513Y141D02*
X572Y141D01*
X623Y141D02*
X657Y141D01*
X306Y140D02*
X368Y140D01*
X508Y140D02*
X569Y140D01*
X621Y140D02*
X655Y140D01*
X309Y139D02*
X372Y139D01*
X503Y139D02*
X567Y139D01*
X619Y139D02*
X654Y139D01*
X311Y138D02*
X378Y138D01*
X498Y138D02*
X564Y138D01*
X617Y138D02*
X652Y138D01*
X314Y137D02*
X384Y137D01*
X491Y137D02*
X561Y137D01*
X616Y137D02*
X650Y137D01*
X317Y136D02*
X391Y136D01*
X484Y136D02*
X559Y136D01*
X614Y136D02*
X649Y136D01*
X320Y135D02*
X400Y135D01*
X476Y135D02*
X556Y135D01*
X612Y135D02*
X647Y135D01*
X322Y134D02*
X409Y134D01*
X466Y134D02*
X553Y134D01*
X610Y134D02*
X646Y134D01*
X325Y133D02*
X429Y133D01*
X447Y133D02*
X550Y133D01*
X608Y133D02*
X644Y133D01*
X328Y132D02*
X547Y132D01*
X606Y132D02*
X642Y132D01*
X331Y131D02*
X544Y131D01*
X604Y131D02*
X641Y131D01*
X335Y130D02*
X540Y130D01*
X602Y130D02*
X639Y130D01*
X339Y129D02*
X537Y129D01*
X599Y129D02*
X637Y129D01*
X342Y128D02*
X533Y128D01*
X597Y128D02*
X635Y128D01*
X346Y127D02*
X529Y127D01*
X595Y127D02*
X634Y127D01*
X349Y126D02*
X526Y126D01*
X593Y126D02*
X632Y126D01*
X354Y125D02*
X522Y125D01*
X590Y125D02*
X630Y125D01*
X358Y124D02*
X518Y124D01*
X588Y124D02*
X628Y124D01*
X363Y123D02*
X513Y123D01*
X586Y123D02*
X626Y123D01*
X367Y122D02*
X508Y122D01*
X583Y122D02*
X625Y122D01*
X373Y121D02*
X503Y121D01*
X581Y121D02*
X623Y121D01*
X379Y120D02*
X497Y120D01*
X578Y120D02*
X621Y120D01*
X385Y119D02*
X490Y119D01*
X576Y119D02*
X619Y119D01*
X392Y118D02*
X484Y118D01*
X573Y118D02*
X617Y118D01*
X401Y117D02*
X475Y117D01*
X570Y117D02*
X615Y117D01*
X412Y116D02*
X464Y116D01*
X568Y116D02*
X613Y116D01*
X565Y115D02*
X610Y115D01*
X562Y114D02*
X608Y114D01*
X559Y113D02*
X606Y113D01*
X556Y112D02*
X604Y112D01*
X552Y111D02*
X602Y111D01*
X549Y110D02*
X600Y110D01*
X546Y109D02*
X597Y109D01*
X543Y108D02*
X595Y108D01*
X539Y107D02*
X593Y107D01*
X535Y106D02*
X590Y106D01*
X531Y105D02*
X588Y105D01*
X527Y104D02*
X585Y104D01*
X523Y103D02*
X583Y103D01*
X518Y102D02*
X580Y102D01*
X513Y101D02*
X577Y101D01*
X508Y100D02*
X575Y100D01*
X503Y99D02*
X572Y99D01*
X496Y98D02*
X569Y98D01*
X489Y97D02*
X567Y97D01*
X482Y96D02*
X563Y96D01*
X471Y95D02*
X560Y95D01*
X456Y94D02*
X557Y94D01*
X439Y93D02*
X554Y93D01*
X439Y92D02*
X551Y92D01*
X439Y91D02*
X547Y91D01*
X439Y90D02*
X544Y90D01*
X439Y89D02*
X540Y89D01*
X439Y88D02*
X536Y88D01*
X439Y87D02*
X532Y87D01*
X439Y86D02*
X528Y86D01*
X440Y85D02*
X523Y85D01*
X432Y84D02*
X518Y84D01*
X432Y83D02*
X513Y83D01*
X432Y82D02*
X509Y82D01*
X432Y81D02*
X503Y81D01*
X432Y80D02*
X496Y80D01*
X432Y79D02*
X489Y79D01*
X432Y78D02*
X480Y78D01*
X432Y77D02*
X470Y77D01*
X432Y76D02*
X456Y76D01*
X432Y75D02*
X456Y75D01*
X432Y74D02*
X456Y74D01*
X432Y73D02*
X456Y73D01*
X432Y72D02*
X456Y72D01*
X432Y71D02*
X456Y71D01*
X432Y70D02*
X456Y70D01*
X432Y69D02*
X456Y69D01*
X432Y68D02*
X456Y68D01*
X432Y67D02*
X456Y67D01*
X432Y66D02*
X456Y66D01*
X432Y65D02*
X456Y65D01*
X432Y64D02*
X456Y64D01*
X432Y63D02*
X456Y63D01*
X432Y62D02*
X456Y62D01*
X432Y61D02*
X456Y61D01*
X432Y60D02*
X456Y60D01*
X432Y59D02*
X456Y59D01*
X432Y58D02*
X456Y58D01*
D02*
G04 End of Mask1*
M02*