G04 MADE WITH FRITZING*
G04 WWW.FRITZING.ORG*
G04 DOUBLE SIDED*
G04 HOLES PLATED*
G04 CONTOUR ON CENTER OF CONTOUR VECTOR*
%ASAXBY*%
%FSLAX23Y23*%
%MOIN*%
%OFA0B0*%
%SFA1.0B1.0*%
%ADD10R,0.031496X0.035433*%
%ADD11R,0.043307X0.047244*%
%ADD12R,0.059055X0.017716*%
%ADD13R,0.094488X0.017716*%
%LNPASTEMASK0*%
G90*
G70*
G54D10*
X839Y163D03*
X914Y163D03*
X877Y84D03*
X877Y824D03*
X802Y824D03*
X839Y903D03*
G54D11*
X956Y647D03*
X956Y714D03*
G54D12*
X1420Y307D03*
X1420Y281D03*
X1420Y255D03*
X1420Y230D03*
X1420Y204D03*
X1420Y179D03*
X1420Y153D03*
X1420Y127D03*
X1192Y307D03*
X1192Y281D03*
X1192Y255D03*
X1192Y230D03*
X1192Y204D03*
X1192Y179D03*
X1192Y153D03*
X1192Y127D03*
G54D11*
X956Y293D03*
X956Y360D03*
G54D13*
X1463Y799D03*
X1463Y774D03*
X1463Y748D03*
X1463Y723D03*
X1463Y697D03*
X1463Y671D03*
X1463Y646D03*
X1463Y620D03*
X1463Y595D03*
X1463Y569D03*
X1463Y543D03*
X1463Y518D03*
X1234Y799D03*
X1234Y774D03*
X1234Y748D03*
X1234Y723D03*
X1234Y697D03*
X1234Y671D03*
X1234Y646D03*
X1234Y620D03*
X1234Y595D03*
X1234Y569D03*
X1234Y543D03*
X1234Y518D03*
G04 End of PasteMask0*
M02*