G04 MADE WITH FRITZING*
G04 WWW.FRITZING.ORG*
G04 DOUBLE SIDED*
G04 HOLES PLATED*
G04 CONTOUR ON CENTER OF CONTOUR VECTOR*
%ASAXBY*%
%FSLAX23Y23*%
%MOIN*%
%OFA0B0*%
%SFA1.0B1.0*%
%ADD10C,0.062992*%
%ADD11C,0.039370*%
%ADD12C,0.078031*%
%ADD13R,0.031496X0.035433*%
%ADD14R,0.043307X0.047244*%
%ADD15R,0.059055X0.017716*%
%ADD16R,0.094488X0.017716*%
%ADD17C,0.012000*%
%LNCOPPER0*%
G90*
G70*
G54D10*
X483Y336D03*
X483Y45D03*
G54D11*
X1507Y163D03*
G54D12*
X1637Y505D03*
X1637Y605D03*
X1637Y405D03*
X1637Y105D03*
X1637Y305D03*
X1637Y705D03*
X1637Y205D03*
X1637Y805D03*
G54D11*
X1066Y163D03*
X1271Y163D03*
X1365Y595D03*
X995Y202D03*
X995Y438D03*
X1034Y675D03*
X916Y438D03*
X1113Y202D03*
X1113Y798D03*
G54D13*
X839Y163D03*
X914Y163D03*
X877Y84D03*
X877Y824D03*
X802Y824D03*
X839Y903D03*
G54D14*
X956Y647D03*
X956Y714D03*
G54D15*
X1420Y307D03*
X1420Y281D03*
X1420Y255D03*
X1420Y230D03*
X1420Y204D03*
X1420Y179D03*
X1420Y153D03*
X1420Y127D03*
X1192Y307D03*
X1192Y281D03*
X1192Y255D03*
X1192Y230D03*
X1192Y204D03*
X1192Y179D03*
X1192Y153D03*
X1192Y127D03*
G54D14*
X956Y293D03*
X956Y360D03*
G54D16*
X1463Y799D03*
X1463Y774D03*
X1463Y748D03*
X1463Y723D03*
X1463Y697D03*
X1463Y671D03*
X1463Y646D03*
X1463Y620D03*
X1463Y595D03*
X1463Y569D03*
X1463Y543D03*
X1463Y518D03*
X1234Y799D03*
X1234Y774D03*
X1234Y748D03*
X1234Y723D03*
X1234Y697D03*
X1234Y671D03*
X1234Y646D03*
X1234Y620D03*
X1234Y595D03*
X1234Y569D03*
X1234Y543D03*
X1234Y518D03*
G54D17*
X829Y903D02*
X677Y901D01*
D02*
X677Y901D02*
X487Y347D01*
D02*
X867Y79D02*
X799Y45D01*
D02*
X799Y45D02*
X495Y45D01*
D02*
X1471Y128D02*
X1501Y157D01*
D02*
X1444Y128D02*
X1471Y128D01*
D02*
X1230Y833D02*
X1204Y803D01*
D02*
X1545Y833D02*
X1230Y833D01*
D02*
X1619Y811D02*
X1545Y833D01*
D02*
X1536Y799D02*
X1623Y718D01*
D02*
X1504Y799D02*
X1536Y799D01*
D02*
X1563Y570D02*
X1622Y518D01*
D02*
X1504Y569D02*
X1563Y570D01*
D02*
X1547Y539D02*
X1504Y541D01*
D02*
X1546Y478D02*
X1547Y539D01*
D02*
X1622Y417D02*
X1546Y478D01*
D02*
X1066Y171D02*
X1067Y252D01*
D02*
X1067Y252D02*
X1168Y255D01*
D02*
X1301Y543D02*
X1520Y403D01*
D02*
X1520Y403D02*
X1622Y318D01*
D02*
X1276Y543D02*
X1301Y543D01*
D02*
X1201Y515D02*
X1202Y484D01*
D02*
X1508Y361D02*
X1625Y220D01*
D02*
X1202Y484D02*
X1508Y361D01*
D02*
X1396Y128D02*
X1352Y129D01*
D02*
X1352Y129D02*
X1255Y305D01*
D02*
X1255Y305D02*
X1216Y306D01*
D02*
X1444Y230D02*
X1528Y229D01*
D02*
X1528Y229D02*
X1624Y120D01*
D02*
X1030Y298D02*
X1113Y360D01*
D02*
X972Y294D02*
X1030Y298D01*
D02*
X1262Y229D02*
X1270Y171D01*
D02*
X1216Y230D02*
X1262Y229D01*
D02*
X1373Y595D02*
X1421Y595D01*
D02*
X1113Y568D02*
X1113Y360D01*
D02*
X1113Y713D02*
X1113Y568D01*
D02*
X876Y242D02*
X940Y282D01*
D02*
X887Y819D02*
X1113Y713D01*
D02*
X1294Y356D02*
X1359Y231D01*
D02*
X1359Y231D02*
X1396Y230D01*
D02*
X1113Y360D02*
X1294Y356D01*
D02*
X972Y706D02*
X1027Y678D01*
D02*
X850Y691D02*
X806Y812D01*
D02*
X940Y654D02*
X850Y691D01*
D02*
X959Y629D02*
X994Y446D01*
D02*
X988Y199D02*
X924Y168D01*
D02*
X845Y175D02*
X876Y242D01*
D02*
X1399Y520D02*
X1315Y570D01*
D02*
X1421Y519D02*
X1399Y520D01*
D02*
X1315Y570D02*
X1276Y569D01*
D02*
X1113Y568D02*
X1193Y569D01*
D02*
X947Y378D02*
X920Y431D01*
D02*
X1113Y280D02*
X1113Y360D01*
D02*
X1168Y281D02*
X1113Y280D01*
D02*
X1193Y799D02*
X1121Y798D01*
D02*
X1168Y204D02*
X1121Y202D01*
G04 End of Copper0*
M02*