G04 MADE WITH FRITZING*
G04 WWW.FRITZING.ORG*
G04 DOUBLE SIDED*
G04 HOLES PLATED*
G04 CONTOUR ON CENTER OF CONTOUR VECTOR*
%ASAXBY*%
%FSLAX23Y23*%
%MOIN*%
%OFA0B0*%
%SFA1.0B1.0*%
%ADD10C,0.062992*%
%ADD11C,0.039370*%
%ADD12C,0.078031*%
%ADD13C,0.007874*%
%ADD14C,0.012000*%
%LNCOPPER1*%
G90*
G70*
G54D10*
X444Y348D03*
X444Y56D03*
G54D11*
X1507Y163D03*
G54D12*
X1637Y505D03*
X1637Y505D03*
X1637Y605D03*
X1637Y605D03*
X1637Y405D03*
X1637Y405D03*
X1637Y105D03*
X1637Y105D03*
X1637Y305D03*
X1637Y305D03*
X1637Y705D03*
X1637Y705D03*
X1637Y205D03*
X1637Y205D03*
X1637Y805D03*
X1637Y805D03*
G54D11*
X1066Y163D03*
X1271Y163D03*
X1365Y595D03*
X995Y202D03*
X995Y438D03*
X1034Y675D03*
X916Y438D03*
X1113Y202D03*
X1113Y798D03*
G54D13*
X444Y320D02*
X436Y320D01*
D02*
X436Y320D02*
X428Y320D01*
D02*
X428Y320D02*
X419Y321D01*
D02*
X419Y321D02*
X411Y322D01*
D02*
X411Y322D02*
X403Y324D01*
D02*
X403Y324D02*
X395Y326D01*
D02*
X395Y326D02*
X387Y329D01*
D02*
X387Y329D02*
X379Y331D01*
D02*
X379Y331D02*
X371Y335D01*
D02*
X371Y335D02*
X364Y339D01*
D02*
X364Y339D02*
X357Y343D01*
D02*
X357Y343D02*
X349Y347D01*
D02*
X349Y347D02*
X343Y352D01*
D02*
X343Y352D02*
X336Y357D01*
D02*
X336Y357D02*
X329Y363D01*
D02*
X329Y363D02*
X323Y369D01*
D02*
X323Y369D02*
X318Y375D01*
D02*
X318Y375D02*
X312Y382D01*
D02*
X312Y382D02*
X307Y389D01*
D02*
X307Y389D02*
X302Y396D01*
D02*
X302Y396D02*
X298Y403D01*
D02*
X298Y403D02*
X294Y411D01*
D02*
X294Y411D02*
X290Y419D01*
D02*
X290Y419D02*
X287Y427D01*
D02*
X287Y427D02*
X284Y435D01*
D02*
X284Y435D02*
X282Y443D01*
D02*
X282Y443D02*
X280Y452D01*
D02*
X280Y452D02*
X279Y460D01*
D02*
X279Y460D02*
X278Y469D01*
D02*
X278Y469D02*
X277Y478D01*
D02*
X277Y478D02*
X277Y487D01*
D02*
X277Y487D02*
X277Y495D01*
D02*
X277Y495D02*
X278Y504D01*
D02*
X278Y504D02*
X279Y513D01*
D02*
X279Y513D02*
X281Y521D01*
D02*
X281Y521D02*
X283Y530D01*
D02*
X283Y530D02*
X286Y539D01*
D02*
X286Y539D02*
X289Y547D01*
D02*
X289Y547D02*
X293Y555D01*
D02*
X293Y555D02*
X297Y563D01*
D02*
X297Y563D02*
X301Y571D01*
D02*
X301Y571D02*
X306Y578D01*
D02*
X306Y578D02*
X311Y586D01*
D02*
X311Y586D02*
X317Y593D01*
D02*
X317Y593D02*
X322Y600D01*
D02*
X322Y600D02*
X329Y606D01*
D02*
X329Y606D02*
X335Y612D01*
D02*
X335Y612D02*
X342Y618D01*
D02*
X342Y618D02*
X350Y623D01*
D02*
X350Y623D02*
X357Y628D01*
D02*
X357Y628D02*
X365Y633D01*
D02*
X365Y633D02*
X373Y637D01*
D02*
X373Y637D02*
X382Y641D01*
D02*
X382Y641D02*
X390Y644D01*
D02*
X390Y644D02*
X399Y647D01*
D02*
X399Y647D02*
X408Y650D01*
D02*
X408Y650D02*
X417Y652D01*
D02*
X417Y652D02*
X426Y653D01*
D02*
X426Y653D02*
X435Y654D01*
D02*
X435Y654D02*
X444Y655D01*
D02*
X444Y655D02*
X454Y655D01*
D02*
X454Y655D02*
X463Y655D01*
D02*
X463Y655D02*
X472Y654D01*
D02*
X472Y654D02*
X481Y652D01*
D02*
X481Y652D02*
X491Y650D01*
D02*
X491Y650D02*
X500Y648D01*
D02*
X500Y648D02*
X509Y645D01*
D02*
X509Y645D02*
X517Y642D01*
D02*
X517Y642D02*
X526Y638D01*
D02*
X526Y638D02*
X535Y634D01*
D02*
X535Y634D02*
X543Y629D01*
D02*
X543Y629D02*
X551Y624D01*
D02*
X551Y624D02*
X558Y619D01*
D02*
X558Y619D02*
X566Y613D01*
D02*
X566Y613D02*
X573Y606D01*
D02*
X573Y606D02*
X580Y600D01*
D02*
X580Y600D02*
X586Y593D01*
D02*
X586Y593D02*
X592Y585D01*
D02*
X592Y585D02*
X598Y578D01*
D02*
X598Y578D02*
X603Y570D01*
D02*
X603Y570D02*
X608Y561D01*
D02*
X608Y561D02*
X613Y553D01*
D02*
X613Y553D02*
X617Y544D01*
D02*
X617Y544D02*
X620Y535D01*
D02*
X620Y535D02*
X623Y526D01*
D02*
X623Y526D02*
X626Y516D01*
D02*
X626Y516D02*
X628Y507D01*
D02*
X628Y507D02*
X630Y497D01*
D02*
X630Y497D02*
X631Y487D01*
D02*
X631Y487D02*
X631Y478D01*
D02*
X631Y478D02*
X631Y468D01*
D02*
X631Y468D02*
X631Y458D01*
D02*
X631Y458D02*
X630Y448D01*
D02*
X630Y448D02*
X629Y439D01*
D02*
X629Y439D02*
X626Y429D01*
D02*
X626Y429D02*
X624Y419D01*
D02*
X624Y419D02*
X621Y410D01*
D02*
X621Y410D02*
X618Y401D01*
D02*
X618Y401D02*
X614Y391D01*
D02*
X614Y391D02*
X609Y383D01*
D02*
X609Y383D02*
X604Y374D01*
D02*
X604Y374D02*
X599Y365D01*
D02*
X599Y365D02*
X593Y357D01*
D02*
X593Y357D02*
X587Y350D01*
D02*
X587Y350D02*
X580Y342D01*
D02*
X580Y342D02*
X573Y335D01*
D02*
X573Y335D02*
X565Y328D01*
D02*
X565Y328D02*
X558Y322D01*
D02*
X558Y322D02*
X550Y316D01*
D02*
X550Y316D02*
X541Y310D01*
D02*
X541Y310D02*
X532Y305D01*
D02*
X532Y305D02*
X523Y300D01*
D02*
X523Y300D02*
X514Y296D01*
D02*
X514Y296D02*
X505Y292D01*
D02*
X505Y292D02*
X495Y289D01*
D02*
X495Y289D02*
X485Y286D01*
D02*
X485Y286D02*
X475Y284D01*
D02*
X475Y284D02*
X465Y283D01*
D02*
X465Y283D02*
X455Y281D01*
D02*
X455Y281D02*
X444Y281D01*
D02*
X444Y281D02*
X434Y281D01*
D02*
X434Y281D02*
X424Y281D01*
D02*
X424Y281D02*
X413Y282D01*
D02*
X413Y282D02*
X403Y284D01*
D02*
X403Y284D02*
X393Y286D01*
D02*
X393Y286D02*
X383Y289D01*
D02*
X383Y289D02*
X373Y292D01*
D02*
X373Y292D02*
X363Y295D01*
D02*
X363Y295D02*
X354Y300D01*
D02*
X354Y300D02*
X344Y304D01*
D02*
X344Y304D02*
X335Y310D01*
D02*
X335Y310D02*
X326Y315D01*
D02*
X326Y315D02*
X318Y321D01*
D02*
X318Y321D02*
X309Y328D01*
D02*
X309Y328D02*
X302Y335D01*
D02*
X302Y335D02*
X294Y342D01*
D02*
X294Y342D02*
X287Y350D01*
D02*
X287Y350D02*
X280Y359D01*
D02*
X280Y359D02*
X274Y367D01*
D02*
X274Y367D02*
X268Y376D01*
D02*
X268Y376D02*
X263Y385D01*
D02*
X263Y385D02*
X258Y395D01*
D02*
X258Y395D02*
X253Y404D01*
D02*
X253Y404D02*
X250Y414D01*
D02*
X250Y414D02*
X246Y425D01*
D02*
X246Y425D02*
X243Y435D01*
D02*
X243Y435D02*
X241Y446D01*
D02*
X241Y446D02*
X239Y456D01*
D02*
X239Y456D02*
X238Y467D01*
D02*
X238Y467D02*
X238Y478D01*
D02*
X238Y478D02*
X238Y489D01*
D02*
X238Y489D02*
X238Y499D01*
D02*
X238Y499D02*
X239Y510D01*
D02*
X239Y510D02*
X241Y521D01*
D02*
X241Y521D02*
X243Y532D01*
D02*
X243Y532D02*
X246Y542D01*
D02*
X246Y542D02*
X249Y553D01*
D02*
X249Y553D02*
X253Y563D01*
D02*
X253Y563D02*
X257Y573D01*
D02*
X257Y573D02*
X262Y583D01*
D02*
X262Y583D02*
X268Y592D01*
D02*
X268Y592D02*
X274Y602D01*
D02*
X274Y602D02*
X280Y610D01*
D02*
X280Y610D02*
X287Y619D01*
D02*
X287Y619D02*
X295Y627D01*
D02*
X295Y627D02*
X302Y635D01*
D02*
X302Y635D02*
X311Y643D01*
D02*
X311Y643D02*
X319Y650D01*
D02*
X319Y650D02*
X328Y656D01*
D02*
X328Y656D02*
X338Y662D01*
D02*
X338Y662D02*
X347Y668D01*
D02*
X347Y668D02*
X357Y673D01*
D02*
X357Y673D02*
X368Y678D01*
D02*
X368Y678D02*
X378Y682D01*
D02*
X378Y682D02*
X389Y685D01*
D02*
X389Y685D02*
X400Y688D01*
D02*
X400Y688D02*
X411Y691D01*
D02*
X411Y691D02*
X422Y692D01*
D02*
X422Y692D02*
X433Y694D01*
D02*
X433Y694D02*
X444Y694D01*
D02*
X444Y694D02*
X456Y694D01*
D02*
X456Y694D02*
X467Y694D01*
D02*
X467Y694D02*
X478Y693D01*
D02*
X478Y693D02*
X490Y691D01*
D02*
X490Y691D02*
X501Y688D01*
D02*
X501Y688D02*
X512Y686D01*
D02*
X512Y686D02*
X523Y682D01*
D02*
X523Y682D02*
X533Y678D01*
D02*
X533Y678D02*
X544Y673D01*
D02*
X544Y673D02*
X554Y668D01*
D02*
X554Y668D02*
X564Y662D01*
D02*
X564Y662D02*
X574Y656D01*
D02*
X574Y656D02*
X583Y649D01*
D02*
X583Y649D02*
X592Y642D01*
D02*
X592Y642D02*
X601Y634D01*
D02*
X601Y634D02*
X609Y626D01*
D02*
X609Y626D02*
X617Y617D01*
D02*
X617Y617D02*
X624Y608D01*
D02*
X624Y608D02*
X631Y599D01*
D02*
X631Y599D02*
X637Y589D01*
D02*
X637Y589D02*
X643Y579D01*
D02*
X643Y579D02*
X649Y569D01*
D02*
X649Y569D02*
X654Y558D01*
D02*
X654Y558D02*
X658Y547D01*
D02*
X658Y547D02*
X661Y536D01*
D02*
X661Y536D02*
X664Y525D01*
D02*
X664Y525D02*
X667Y513D01*
D02*
X667Y513D02*
X669Y501D01*
D02*
X669Y501D02*
X670Y490D01*
D02*
X670Y490D02*
X671Y478D01*
D02*
X671Y478D02*
X671Y466D01*
D02*
X671Y466D02*
X670Y454D01*
D02*
X670Y454D02*
X669Y442D01*
D02*
X669Y442D02*
X667Y430D01*
D02*
X667Y430D02*
X665Y419D01*
D02*
X665Y419D02*
X661Y407D01*
D02*
X661Y407D02*
X658Y396D01*
D02*
X658Y396D02*
X654Y385D01*
D02*
X654Y385D02*
X649Y374D01*
D02*
X649Y374D02*
X643Y363D01*
D02*
X643Y363D02*
X637Y352D01*
D02*
X637Y352D02*
X631Y342D01*
D02*
X631Y342D02*
X624Y333D01*
D02*
X624Y333D02*
X616Y323D01*
D02*
X616Y323D02*
X608Y314D01*
D02*
X608Y314D02*
X599Y306D01*
D02*
X599Y306D02*
X590Y297D01*
D02*
X590Y297D02*
X581Y290D01*
D02*
X581Y290D02*
X571Y283D01*
D02*
X571Y283D02*
X561Y276D01*
D02*
X561Y276D02*
X550Y270D01*
D02*
X550Y270D02*
X539Y264D01*
D02*
X539Y264D02*
X528Y259D01*
D02*
X528Y259D02*
X517Y255D01*
D02*
X517Y255D02*
X505Y251D01*
D02*
X505Y251D02*
X493Y248D01*
D02*
X493Y248D02*
X481Y245D01*
D02*
X481Y245D02*
X469Y243D01*
D02*
X469Y243D02*
X457Y242D01*
D02*
X457Y242D02*
X444Y242D01*
D02*
X444Y242D02*
X432Y242D01*
D02*
X432Y242D02*
X420Y242D01*
D02*
X420Y242D02*
X407Y243D01*
D02*
X407Y243D02*
X395Y245D01*
D02*
X395Y245D02*
X383Y248D01*
D02*
X383Y248D02*
X371Y251D01*
D02*
X371Y251D02*
X359Y255D01*
D02*
X359Y255D02*
X347Y260D01*
D02*
X347Y260D02*
X336Y265D01*
D02*
X336Y265D02*
X325Y270D01*
D02*
X325Y270D02*
X314Y277D01*
D02*
X314Y277D02*
X303Y283D01*
D02*
X303Y283D02*
X293Y291D01*
D02*
X293Y291D02*
X283Y299D01*
D02*
X283Y299D02*
X274Y307D01*
D02*
X274Y307D02*
X265Y316D01*
D02*
X265Y316D02*
X256Y326D01*
D02*
X256Y326D02*
X248Y335D01*
D02*
X248Y335D02*
X241Y346D01*
D02*
X241Y346D02*
X234Y356D01*
D02*
X234Y356D02*
X228Y367D01*
D02*
X228Y367D02*
X222Y379D01*
D02*
X222Y379D02*
X217Y390D01*
D02*
X217Y390D02*
X212Y402D01*
D02*
X212Y402D02*
X208Y414D01*
D02*
X208Y414D02*
X205Y427D01*
D02*
X205Y427D02*
X202Y439D01*
D02*
X202Y439D02*
X200Y452D01*
D02*
X200Y452D02*
X199Y465D01*
D02*
X199Y465D02*
X198Y478D01*
D02*
X198Y478D02*
X198Y491D01*
D02*
X198Y491D02*
X199Y504D01*
D02*
X199Y504D02*
X200Y516D01*
D02*
X200Y516D02*
X202Y529D01*
D02*
X202Y529D02*
X205Y542D01*
D02*
X205Y542D02*
X208Y554D01*
D02*
X208Y554D02*
X212Y567D01*
D02*
X212Y567D02*
X217Y579D01*
D02*
X217Y579D02*
X222Y591D01*
D02*
X222Y591D02*
X228Y602D01*
D02*
X228Y602D02*
X235Y614D01*
D02*
X235Y614D02*
X242Y625D01*
D02*
X242Y625D02*
X250Y635D01*
D02*
X250Y635D02*
X258Y645D01*
D02*
X258Y645D02*
X267Y655D01*
D02*
X267Y655D02*
X276Y665D01*
D02*
X276Y665D02*
X286Y673D01*
D02*
X286Y673D02*
X296Y682D01*
D02*
X296Y682D02*
X307Y689D01*
D02*
X307Y689D02*
X318Y697D01*
D02*
X318Y697D02*
X329Y703D01*
D02*
X329Y703D02*
X341Y709D01*
D02*
X341Y709D02*
X353Y715D01*
D02*
X353Y715D02*
X366Y719D01*
D02*
X366Y719D02*
X378Y723D01*
D02*
X378Y723D02*
X391Y727D01*
D02*
X391Y727D02*
X404Y730D01*
D02*
X404Y730D02*
X418Y732D01*
D02*
X418Y732D02*
X431Y733D01*
D02*
X431Y733D02*
X444Y734D01*
D02*
X444Y734D02*
X458Y734D01*
D02*
X458Y734D02*
X471Y733D01*
D02*
X471Y733D02*
X484Y731D01*
D02*
X484Y731D02*
X498Y729D01*
D02*
X498Y729D02*
X511Y727D01*
D02*
X511Y727D02*
X524Y723D01*
D02*
X524Y723D02*
X537Y719D01*
D02*
X537Y719D02*
X549Y714D01*
D02*
X549Y714D02*
X562Y708D01*
D02*
X562Y708D02*
X574Y702D01*
D02*
X574Y702D02*
X586Y695D01*
D02*
X586Y695D02*
X597Y688D01*
D02*
X597Y688D02*
X608Y680D01*
D02*
X608Y680D02*
X619Y671D01*
D02*
X619Y671D02*
X629Y662D01*
D02*
X629Y662D02*
X638Y652D01*
D02*
X638Y652D02*
X648Y642D01*
D02*
X648Y642D02*
X656Y632D01*
D02*
X656Y632D02*
X664Y620D01*
D02*
X664Y620D02*
X672Y609D01*
D02*
X672Y609D02*
X678Y597D01*
D02*
X678Y597D02*
X685Y585D01*
D02*
X685Y585D02*
X690Y572D01*
D02*
X690Y572D02*
X695Y559D01*
D02*
X695Y559D02*
X699Y546D01*
D02*
X699Y546D02*
X703Y533D01*
D02*
X703Y533D02*
X706Y519D01*
D02*
X706Y519D02*
X708Y505D01*
D02*
X708Y505D02*
X709Y492D01*
D02*
X709Y492D02*
X710Y478D01*
D02*
X710Y478D02*
X710Y464D01*
D02*
X710Y464D02*
X709Y450D01*
D02*
X709Y450D02*
X708Y436D01*
D02*
X708Y436D02*
X706Y422D01*
D02*
X706Y422D02*
X703Y409D01*
D02*
X703Y409D02*
X699Y395D01*
D02*
X699Y395D02*
X695Y382D01*
D02*
X695Y382D02*
X689Y369D01*
D02*
X689Y369D02*
X684Y356D01*
D02*
X684Y356D02*
X677Y343D01*
D02*
X677Y343D02*
X670Y331D01*
D02*
X670Y331D02*
X662Y319D01*
D02*
X662Y319D02*
X654Y308D01*
D02*
X654Y308D02*
X645Y297D01*
D02*
X645Y297D02*
X636Y286D01*
D02*
X636Y286D02*
X626Y276D01*
D02*
X626Y276D02*
X615Y267D01*
D02*
X615Y267D02*
X604Y258D01*
D02*
X604Y258D02*
X592Y250D01*
D02*
X592Y250D02*
X580Y242D01*
D02*
X580Y242D02*
X568Y235D01*
D02*
X568Y235D02*
X555Y228D01*
D02*
X555Y228D02*
X542Y223D01*
D02*
X542Y223D02*
X529Y217D01*
D02*
X529Y217D02*
X515Y213D01*
D02*
X515Y213D02*
X501Y209D01*
D02*
X501Y209D02*
X487Y207D01*
D02*
X487Y207D02*
X473Y204D01*
D02*
X473Y204D02*
X459Y203D01*
D02*
X459Y203D02*
X444Y202D01*
D02*
X444Y202D02*
X430Y202D01*
D02*
X430Y202D02*
X415Y203D01*
D02*
X415Y203D02*
X401Y205D01*
D02*
X401Y205D02*
X387Y207D01*
D02*
X387Y207D02*
X373Y210D01*
D02*
X373Y210D02*
X359Y214D01*
D02*
X359Y214D02*
X345Y218D01*
D02*
X345Y218D02*
X331Y224D01*
D02*
X331Y224D02*
X318Y230D01*
D02*
X318Y230D02*
X305Y236D01*
D02*
X305Y236D02*
X292Y244D01*
D02*
X292Y244D02*
X280Y252D01*
D02*
X280Y252D02*
X268Y260D01*
D02*
X268Y260D02*
X257Y270D01*
D02*
X257Y270D02*
X246Y279D01*
D02*
X246Y279D02*
X236Y290D01*
D02*
X236Y290D02*
X226Y301D01*
D02*
X226Y301D02*
X217Y312D01*
D02*
X217Y312D02*
X208Y324D01*
D02*
X208Y324D02*
X200Y337D01*
D02*
X200Y337D02*
X193Y350D01*
D02*
X193Y350D02*
X186Y363D01*
D02*
X186Y363D02*
X180Y376D01*
D02*
X180Y376D02*
X175Y390D01*
D02*
X175Y390D02*
X170Y404D01*
D02*
X170Y404D02*
X166Y419D01*
D02*
X166Y419D02*
X163Y433D01*
D02*
X163Y433D02*
X161Y448D01*
D02*
X161Y448D02*
X160Y463D01*
D02*
X160Y463D02*
X159Y478D01*
D02*
X159Y478D02*
X159Y493D01*
D02*
X159Y493D02*
X160Y508D01*
D02*
X160Y508D02*
X161Y523D01*
D02*
X161Y523D02*
X164Y537D01*
D02*
X164Y537D02*
X167Y552D01*
D02*
X167Y552D02*
X171Y567D01*
D02*
X171Y567D02*
X176Y581D01*
D02*
X176Y581D02*
X181Y595D01*
D02*
X181Y595D02*
X187Y609D01*
D02*
X187Y609D02*
X194Y622D01*
D02*
X194Y622D02*
X202Y635D01*
D02*
X202Y635D02*
X210Y648D01*
D02*
X210Y648D02*
X219Y660D01*
D02*
X219Y660D02*
X229Y672D01*
D02*
X229Y672D02*
X239Y683D01*
D02*
X239Y683D02*
X250Y694D01*
D02*
X250Y694D02*
X261Y704D01*
D02*
X261Y704D02*
X273Y713D01*
D02*
X273Y713D02*
X285Y722D01*
D02*
X285Y722D02*
X298Y731D01*
D02*
X298Y731D02*
X312Y738D01*
D02*
X312Y738D02*
X325Y745D01*
D02*
X325Y745D02*
X339Y751D01*
D02*
X339Y751D02*
X354Y757D01*
D02*
X354Y757D02*
X368Y761D01*
D02*
X368Y761D02*
X383Y765D01*
D02*
X383Y765D02*
X398Y768D01*
D02*
X398Y768D02*
X414Y771D01*
D02*
X414Y771D02*
X429Y772D01*
D02*
X429Y772D02*
X444Y773D01*
D02*
X444Y773D02*
X460Y773D01*
D02*
X460Y773D02*
X475Y772D01*
D02*
X475Y772D02*
X491Y770D01*
D02*
X491Y770D02*
X506Y768D01*
D02*
X506Y768D02*
X521Y765D01*
D02*
X521Y765D02*
X536Y760D01*
D02*
X536Y760D02*
X551Y756D01*
D02*
X551Y756D02*
X565Y750D01*
D02*
X565Y750D02*
X580Y743D01*
D02*
X580Y743D02*
X594Y736D01*
D02*
X594Y736D02*
X607Y728D01*
D02*
X607Y728D02*
X620Y720D01*
D02*
X620Y720D02*
X633Y711D01*
D02*
X633Y711D02*
X645Y701D01*
D02*
X645Y701D02*
X657Y690D01*
D02*
X657Y690D02*
X668Y679D01*
D02*
X668Y679D02*
X678Y667D01*
D02*
X678Y667D02*
X688Y655D01*
D02*
X688Y655D02*
X697Y642D01*
D02*
X697Y642D02*
X706Y629D01*
D02*
X706Y629D02*
X714Y615D01*
D02*
X714Y615D02*
X721Y601D01*
D02*
X721Y601D02*
X727Y586D01*
D02*
X727Y586D02*
X733Y571D01*
D02*
X733Y571D02*
X737Y556D01*
D02*
X737Y556D02*
X741Y541D01*
D02*
X741Y541D02*
X745Y525D01*
D02*
X745Y525D02*
X747Y510D01*
D02*
X747Y510D02*
X749Y494D01*
D02*
X749Y494D02*
X749Y478D01*
D02*
X749Y478D02*
X749Y462D01*
D02*
X749Y462D02*
X748Y446D01*
D02*
X748Y446D02*
X747Y430D01*
D02*
X747Y430D02*
X744Y414D01*
D02*
X744Y414D02*
X741Y398D01*
D02*
X741Y398D02*
X736Y383D01*
D02*
X736Y383D02*
X731Y368D01*
D02*
X731Y368D02*
X725Y353D01*
D02*
X725Y353D02*
X719Y338D01*
D02*
X719Y338D02*
X711Y324D01*
D02*
X711Y324D02*
X703Y310D01*
D02*
X703Y310D02*
X694Y296D01*
D02*
X694Y296D02*
X685Y283D01*
D02*
X685Y283D02*
X674Y270D01*
D02*
X674Y270D02*
X664Y259D01*
D02*
X664Y259D02*
X652Y247D01*
D02*
X652Y247D02*
X640Y236D01*
D02*
X640Y236D02*
X627Y226D01*
D02*
X627Y226D02*
X614Y217D01*
D02*
X614Y217D02*
X600Y208D01*
D02*
X600Y208D02*
X586Y200D01*
D02*
X586Y200D02*
X571Y192D01*
D02*
X571Y192D02*
X556Y186D01*
D02*
X556Y186D02*
X541Y180D01*
D02*
X541Y180D02*
X525Y175D01*
D02*
X525Y175D02*
X509Y171D01*
D02*
X509Y171D02*
X493Y168D01*
D02*
X493Y168D02*
X477Y165D01*
D02*
X477Y165D02*
X461Y164D01*
D02*
X461Y164D02*
X444Y163D01*
D02*
X444Y163D02*
X428Y163D01*
D02*
X428Y163D02*
X411Y164D01*
D02*
X411Y164D02*
X395Y166D01*
D02*
X395Y166D02*
X379Y168D01*
D02*
X379Y168D02*
X362Y172D01*
D02*
X362Y172D02*
X346Y176D01*
D02*
X346Y176D02*
X331Y182D01*
D02*
X331Y182D02*
X315Y188D01*
D02*
X315Y188D02*
X300Y194D01*
D02*
X300Y194D02*
X285Y202D01*
D02*
X285Y202D02*
X271Y211D01*
D02*
X271Y211D02*
X257Y220D01*
D02*
X257Y220D02*
X243Y230D01*
D02*
X243Y230D02*
X230Y240D01*
D02*
X230Y240D02*
X218Y252D01*
D02*
X218Y252D02*
X206Y263D01*
D02*
X206Y263D02*
X195Y276D01*
D02*
X195Y276D02*
X185Y289D01*
D02*
X185Y289D02*
X175Y303D01*
D02*
X175Y303D02*
X166Y317D01*
D02*
X166Y317D02*
X158Y332D01*
D02*
X158Y332D02*
X150Y347D01*
D02*
X150Y347D02*
X143Y362D01*
D02*
X143Y362D02*
X137Y378D01*
D02*
X137Y378D02*
X132Y394D01*
D02*
X132Y394D02*
X128Y410D01*
D02*
X128Y410D02*
X124Y427D01*
D02*
X124Y427D02*
X122Y444D01*
D02*
X122Y444D02*
X120Y461D01*
D02*
X120Y461D02*
X119Y478D01*
D02*
X119Y478D02*
X120Y495D01*
D02*
X120Y495D02*
X121Y512D01*
D02*
X121Y512D02*
X123Y529D01*
D02*
X123Y529D02*
X125Y546D01*
D02*
X125Y546D02*
X129Y562D01*
D02*
X129Y562D02*
X134Y579D01*
D02*
X134Y579D02*
X139Y595D01*
D02*
X139Y595D02*
X145Y611D01*
D02*
X145Y611D02*
X152Y627D01*
D02*
X152Y627D02*
X160Y642D01*
D02*
X160Y642D02*
X169Y657D01*
D02*
X169Y657D02*
X178Y671D01*
D02*
X178Y671D02*
X189Y685D01*
D02*
X189Y685D02*
X199Y698D01*
D02*
X199Y698D02*
X211Y711D01*
D02*
X211Y711D02*
X223Y723D01*
D02*
X223Y723D02*
X236Y735D01*
D02*
X236Y735D02*
X250Y745D01*
D02*
X250Y745D02*
X264Y755D01*
D02*
X264Y755D02*
X279Y765D01*
D02*
X279Y765D02*
X294Y773D01*
D02*
X294Y773D02*
X309Y781D01*
D02*
X309Y781D02*
X325Y788D01*
D02*
X325Y788D02*
X341Y794D01*
D02*
X341Y794D02*
X358Y799D01*
D02*
X358Y799D02*
X375Y804D01*
D02*
X375Y804D02*
X392Y807D01*
D02*
X392Y807D02*
X409Y810D01*
D02*
X409Y810D02*
X427Y812D01*
D02*
X427Y812D02*
X444Y812D01*
D02*
X444Y812D02*
X462Y812D01*
D02*
X462Y812D02*
X479Y811D01*
D02*
X479Y811D02*
X497Y809D01*
D02*
X497Y809D02*
X514Y806D01*
D02*
X514Y806D02*
X531Y803D01*
D02*
X531Y803D02*
X548Y798D01*
D02*
X548Y798D02*
X565Y792D01*
D02*
X565Y792D02*
X581Y786D01*
D02*
X581Y786D02*
X598Y779D01*
D02*
X598Y779D02*
X613Y770D01*
D02*
X613Y770D02*
X629Y761D01*
D02*
X629Y761D02*
X643Y752D01*
D02*
X643Y752D02*
X658Y741D01*
D02*
X658Y741D02*
X671Y730D01*
D02*
X671Y730D02*
X684Y718D01*
D02*
X684Y718D02*
X697Y705D01*
D02*
X697Y705D02*
X709Y692D01*
D02*
X709Y692D02*
X720Y678D01*
D02*
X720Y678D02*
X730Y663D01*
D02*
X730Y663D02*
X740Y648D01*
D02*
X740Y648D02*
X749Y633D01*
D02*
X749Y633D02*
X757Y617D01*
D02*
X757Y617D02*
X764Y600D01*
D02*
X764Y600D02*
X770Y584D01*
D02*
X770Y584D02*
X775Y566D01*
D02*
X775Y566D02*
X780Y549D01*
D02*
X780Y549D02*
X784Y531D01*
D02*
X784Y531D02*
X786Y514D01*
D02*
X786Y514D02*
X788Y496D01*
D02*
X788Y496D02*
X789Y478D01*
D02*
X789Y478D02*
X789Y460D01*
D02*
X789Y460D02*
X788Y442D01*
D02*
X788Y442D02*
X786Y424D01*
D02*
X786Y424D02*
X783Y406D01*
D02*
X783Y406D02*
X779Y388D01*
D02*
X779Y388D02*
X774Y371D01*
D02*
X774Y371D02*
X768Y353D01*
D02*
X768Y353D02*
X761Y337D01*
D02*
X761Y337D02*
X754Y320D01*
D02*
X754Y320D02*
X745Y304D01*
D02*
X745Y304D02*
X736Y288D01*
D02*
X736Y288D02*
X726Y273D01*
D02*
X726Y273D02*
X715Y258D01*
D02*
X715Y258D02*
X704Y244D01*
D02*
X704Y244D02*
X691Y231D01*
D02*
X691Y231D02*
X678Y218D01*
D02*
X678Y218D02*
X665Y206D01*
D02*
X665Y206D02*
X650Y194D01*
D02*
X650Y194D02*
X635Y184D01*
D02*
X635Y184D02*
X620Y174D01*
D02*
X620Y174D02*
X604Y165D01*
D02*
X604Y165D02*
X587Y156D01*
D02*
X587Y156D02*
X570Y149D01*
D02*
X570Y149D02*
X553Y143D01*
D02*
X553Y143D02*
X536Y137D01*
D02*
X536Y137D02*
X518Y132D01*
D02*
X518Y132D02*
X500Y129D01*
D02*
X500Y129D02*
X481Y126D01*
D02*
X481Y126D02*
X463Y124D01*
D02*
X463Y124D02*
X444Y123D01*
D02*
X444Y123D02*
X426Y124D01*
D02*
X426Y124D02*
X407Y125D01*
D02*
X407Y125D02*
X389Y127D01*
D02*
X389Y127D02*
X370Y130D01*
D02*
X370Y130D02*
X352Y134D01*
D02*
X352Y134D02*
X334Y139D01*
D02*
X334Y139D02*
X316Y145D01*
D02*
X316Y145D02*
X299Y152D01*
D02*
X299Y152D02*
X282Y159D01*
D02*
X282Y159D02*
X265Y168D01*
D02*
X265Y168D02*
X249Y178D01*
D02*
X249Y178D02*
X234Y188D01*
D02*
X234Y188D02*
X219Y199D01*
D02*
X219Y199D02*
X204Y211D01*
D02*
X204Y211D02*
X190Y224D01*
D02*
X190Y224D02*
X177Y237D01*
D02*
X177Y237D02*
X165Y251D01*
D02*
X165Y251D02*
X153Y266D01*
D02*
X153Y266D02*
X142Y281D01*
D02*
X142Y281D02*
X132Y297D01*
D02*
X132Y297D02*
X122Y314D01*
D02*
X122Y314D02*
X114Y331D01*
D02*
X114Y331D02*
X106Y348D01*
D02*
X106Y348D02*
X100Y366D01*
D02*
X100Y366D02*
X94Y384D01*
D02*
X94Y384D02*
X89Y402D01*
D02*
X89Y402D02*
X86Y421D01*
D02*
X86Y421D02*
X83Y440D01*
D02*
X83Y440D02*
X81Y459D01*
D02*
X81Y459D02*
X80Y478D01*
D02*
X80Y478D02*
X80Y497D01*
D02*
X80Y497D02*
X81Y516D01*
D02*
X81Y516D02*
X84Y535D01*
D02*
X84Y535D02*
X87Y554D01*
D02*
X87Y554D02*
X91Y572D01*
D02*
X91Y572D02*
X96Y591D01*
D02*
X96Y591D02*
X102Y609D01*
D02*
X102Y609D02*
X109Y627D01*
D02*
X109Y627D02*
X117Y644D01*
D02*
X117Y644D02*
X126Y661D01*
D02*
X126Y661D02*
X136Y678D01*
D02*
X136Y678D02*
X146Y694D01*
D02*
X146Y694D02*
X158Y710D01*
D02*
X158Y710D02*
X170Y725D01*
D02*
X170Y725D02*
X183Y739D01*
D02*
X183Y739D02*
X197Y752D01*
D02*
X197Y752D02*
X212Y765D01*
D02*
X212Y765D02*
X227Y777D01*
D02*
X227Y777D02*
X243Y788D01*
D02*
X243Y788D02*
X259Y799D01*
D02*
X259Y799D02*
X276Y808D01*
D02*
X276Y808D02*
X293Y817D01*
D02*
X293Y817D02*
X311Y825D01*
D02*
X311Y825D02*
X329Y832D01*
D02*
X329Y832D02*
X348Y837D01*
D02*
X348Y837D02*
X367Y842D01*
D02*
X367Y842D02*
X386Y846D01*
D02*
X386Y846D02*
X405Y849D01*
D02*
X405Y849D02*
X425Y851D01*
D02*
X425Y851D02*
X444Y852D01*
D02*
X444Y852D02*
X464Y852D01*
D02*
X464Y852D02*
X483Y850D01*
D02*
X483Y850D02*
X503Y848D01*
D02*
X503Y848D02*
X522Y845D01*
D02*
X522Y845D02*
X542Y841D01*
D02*
X542Y841D02*
X560Y835D01*
D02*
X560Y835D02*
X579Y829D01*
D02*
X579Y829D02*
X597Y822D01*
D02*
X597Y822D02*
X615Y814D01*
D02*
X615Y814D02*
X633Y804D01*
D02*
X633Y804D02*
X650Y794D01*
D02*
X650Y794D02*
X666Y784D01*
D02*
X666Y784D02*
X682Y772D01*
D02*
X682Y772D02*
X698Y759D01*
D02*
X698Y759D02*
X712Y746D01*
D02*
X712Y746D02*
X726Y732D01*
D02*
X726Y732D02*
X739Y717D01*
D02*
X739Y717D02*
X752Y701D01*
D02*
X752Y701D02*
X763Y685D01*
D02*
X763Y685D02*
X774Y668D01*
D02*
X774Y668D02*
X784Y651D01*
D02*
X784Y651D02*
X793Y633D01*
D02*
X793Y633D02*
X801Y614D01*
D02*
X801Y614D02*
X807Y596D01*
D02*
X807Y596D02*
X814Y577D01*
D02*
X814Y577D02*
X818Y557D01*
D02*
X818Y557D02*
X822Y538D01*
D02*
X822Y538D02*
X825Y518D01*
D02*
X825Y518D02*
X827Y498D01*
D02*
X827Y498D02*
X828Y478D01*
D02*
X828Y478D02*
X828Y458D01*
D02*
X828Y458D02*
X827Y438D01*
D02*
X827Y438D02*
X824Y418D01*
D02*
X824Y418D02*
X821Y398D01*
D02*
X821Y398D02*
X817Y378D01*
D02*
X817Y378D02*
X811Y359D01*
D02*
X811Y359D02*
X805Y339D01*
D02*
X805Y339D02*
X797Y321D01*
D02*
X797Y321D02*
X789Y302D01*
D02*
X789Y302D02*
X780Y284D01*
D02*
X780Y284D02*
X769Y267D01*
D02*
X769Y267D02*
X758Y250D01*
D02*
X758Y250D02*
X746Y233D01*
D02*
X746Y233D02*
X733Y218D01*
D02*
X733Y218D02*
X719Y203D01*
D02*
X719Y203D02*
X705Y189D01*
D02*
X705Y189D02*
X689Y175D01*
D02*
X689Y175D02*
X673Y162D01*
D02*
X673Y162D02*
X657Y151D01*
D02*
X657Y151D02*
X639Y140D01*
D02*
X639Y140D02*
X622Y130D01*
D02*
X622Y130D02*
X603Y120D01*
D02*
X603Y120D02*
X585Y112D01*
D02*
X585Y112D02*
X565Y105D01*
D02*
X565Y105D02*
X546Y99D01*
D02*
X546Y99D02*
X526Y94D01*
D02*
X526Y94D02*
X506Y90D01*
D02*
X506Y90D02*
X485Y87D01*
D02*
X485Y87D02*
X465Y85D01*
D02*
X465Y85D02*
X444Y84D01*
D02*
X444Y348D02*
X444Y320D01*
D02*
X444Y84D02*
X444Y56D01*
G54D14*
D02*
X1546Y595D02*
X1508Y171D01*
D02*
X1618Y603D02*
X1546Y595D01*
D02*
X995Y124D02*
X1059Y159D01*
D02*
X917Y163D02*
X995Y124D01*
D02*
X916Y431D02*
X917Y163D01*
D02*
X1363Y588D02*
X1272Y171D01*
D02*
X995Y431D02*
X995Y210D01*
D02*
X920Y445D02*
X1031Y668D01*
D02*
X1113Y210D02*
X1113Y790D01*
G04 End of Copper1*
M02*