; NON-PLATED HOLES START AT T1
; THROUGH (PLATED) HOLES START AT T100
M48
INCH
T1C0.086614
T100C0.015748
T101C0.023622
T102C0.038031
%
T1
X010737Y008715
X010737Y000683
T100
X015068Y001628
X009949Y002022
X009949Y004384
X013649Y005954
X011131Y007981
X010343Y006746
X011131Y002022
X010658Y001628
X012705Y001628
X009162Y004384
T101
X004438Y003478
X004438Y000565
T102
X016367Y007053
X016367Y008053
X016367Y002053
X016367Y003053
X016367Y004053
X016367Y001053
X016367Y006053
X016367Y005053
T00
M30
