; NON-PLATED HOLES START AT T1
; THROUGH (PLATED) HOLES START AT T100
M48
INCH
T1C0.086614
T100C0.038031
T101C0.015748
T102C0.023622
%
T1
X010737Y000683
X010737Y008715
T100
X016367Y006053
X016367Y002053
X016367Y003053
X016367Y004053
X016367Y001053
X016367Y005053
X016367Y008053
X016367Y007053
T101
X012705Y001628
X009949Y004384
X011131Y002022
X009162Y004384
X009949Y002022
X015068Y001628
X010343Y006746
X010658Y001628
X011131Y007981
X015068Y006990
T102
X004438Y000565
X004438Y003478
T00
M30
