G04 MADE WITH FRITZING*
G04 WWW.FRITZING.ORG*
G04 DOUBLE SIDED*
G04 HOLES PLATED*
G04 CONTOUR ON CENTER OF CONTOUR VECTOR*
%ASAXBY*%
%FSLAX23Y23*%
%MOIN*%
%OFA0B0*%
%SFA1.0B1.0*%
%ADD10C,0.039370*%
%ADD11C,0.062992*%
%ADD12C,0.012000*%
%ADD13C,0.024000*%
%ADD14R,0.001000X0.001000*%
%LNCOPPER1*%
G90*
G70*
G54D10*
X1066Y163D03*
X1271Y163D03*
X1507Y635D03*
X1192Y438D03*
X995Y202D03*
X995Y438D03*
X1034Y675D03*
X916Y438D03*
X1113Y202D03*
X1113Y798D03*
G54D11*
X444Y348D03*
X444Y57D03*
G54D12*
X948Y145D02*
X1058Y162D01*
D02*
X924Y409D02*
X948Y145D01*
D02*
X918Y431D02*
X924Y409D01*
D02*
X1503Y628D02*
X1274Y170D01*
G54D13*
D02*
X1193Y84D02*
X1545Y84D01*
D02*
X1545Y84D02*
X1614Y186D01*
D02*
X1192Y431D02*
X1193Y84D01*
G54D12*
D02*
X995Y431D02*
X995Y210D01*
D02*
X920Y445D02*
X1031Y668D01*
D02*
X1113Y210D02*
X1113Y790D01*
G54D14*
X423Y855D02*
X477Y855D01*
X413Y854D02*
X488Y854D01*
X403Y853D02*
X497Y853D01*
X396Y852D02*
X505Y852D01*
X390Y851D02*
X511Y851D01*
X384Y850D02*
X517Y850D01*
X379Y849D02*
X522Y849D01*
X374Y848D02*
X441Y848D01*
X458Y848D02*
X527Y848D01*
X369Y847D02*
X421Y847D01*
X479Y847D02*
X532Y847D01*
X365Y846D02*
X411Y846D01*
X490Y846D02*
X536Y846D01*
X361Y845D02*
X402Y845D01*
X499Y845D02*
X541Y845D01*
X357Y844D02*
X395Y844D01*
X506Y844D02*
X544Y844D01*
X353Y843D02*
X388Y843D01*
X512Y843D02*
X548Y843D01*
X349Y842D02*
X383Y842D01*
X518Y842D02*
X552Y842D01*
X346Y841D02*
X378Y841D01*
X523Y841D02*
X555Y841D01*
X342Y840D02*
X373Y840D01*
X528Y840D02*
X559Y840D01*
X339Y839D02*
X368Y839D01*
X532Y839D02*
X562Y839D01*
X336Y838D02*
X364Y838D01*
X537Y838D02*
X565Y838D01*
X333Y837D02*
X360Y837D01*
X541Y837D02*
X568Y837D01*
X330Y836D02*
X356Y836D01*
X545Y836D02*
X571Y836D01*
X327Y835D02*
X352Y835D01*
X548Y835D02*
X574Y835D01*
X324Y834D02*
X348Y834D01*
X552Y834D02*
X577Y834D01*
X321Y833D02*
X345Y833D01*
X556Y833D02*
X580Y833D01*
X319Y832D02*
X342Y832D01*
X559Y832D02*
X582Y832D01*
X316Y831D02*
X339Y831D01*
X562Y831D02*
X585Y831D01*
X313Y830D02*
X336Y830D01*
X565Y830D02*
X587Y830D01*
X311Y829D02*
X333Y829D01*
X568Y829D02*
X590Y829D01*
X308Y828D02*
X329Y828D01*
X571Y828D02*
X593Y828D01*
X306Y827D02*
X327Y827D01*
X574Y827D02*
X595Y827D01*
X304Y826D02*
X324Y826D01*
X577Y826D02*
X598Y826D01*
X301Y825D02*
X321Y825D01*
X580Y825D02*
X600Y825D01*
X299Y824D02*
X319Y824D01*
X582Y824D02*
X602Y824D01*
X297Y823D02*
X316Y823D01*
X585Y823D02*
X604Y823D01*
X294Y822D02*
X313Y822D01*
X587Y822D02*
X606Y822D01*
X292Y821D02*
X311Y821D01*
X590Y821D02*
X609Y821D01*
X290Y820D02*
X309Y820D01*
X592Y820D02*
X611Y820D01*
X288Y819D02*
X306Y819D01*
X595Y819D02*
X613Y819D01*
X286Y818D02*
X304Y818D01*
X597Y818D02*
X615Y818D01*
X284Y817D02*
X302Y817D01*
X599Y817D02*
X617Y817D01*
X282Y816D02*
X299Y816D01*
X430Y816D02*
X470Y816D01*
X602Y816D02*
X619Y816D01*
X280Y815D02*
X297Y815D01*
X418Y815D02*
X483Y815D01*
X604Y815D02*
X621Y815D01*
X278Y814D02*
X295Y814D01*
X408Y814D02*
X492Y814D01*
X606Y814D02*
X623Y814D01*
X276Y813D02*
X293Y813D01*
X402Y813D02*
X499Y813D01*
X608Y813D02*
X625Y813D01*
X274Y812D02*
X291Y812D01*
X395Y812D02*
X505Y812D01*
X610Y812D02*
X627Y812D01*
X272Y811D02*
X289Y811D01*
X389Y811D02*
X511Y811D01*
X613Y811D02*
X629Y811D01*
X271Y810D02*
X287Y810D01*
X384Y810D02*
X517Y810D01*
X615Y810D02*
X631Y810D01*
X269Y809D02*
X285Y809D01*
X380Y809D02*
X521Y809D01*
X617Y809D02*
X633Y809D01*
X267Y808D02*
X283Y808D01*
X375Y808D02*
X427Y808D01*
X473Y808D02*
X526Y808D01*
X619Y808D02*
X634Y808D01*
X265Y807D02*
X281Y807D01*
X371Y807D02*
X416Y807D01*
X485Y807D02*
X530Y807D01*
X620Y807D02*
X636Y807D01*
X263Y806D02*
X279Y806D01*
X367Y806D02*
X407Y806D01*
X494Y806D02*
X534Y806D01*
X622Y806D02*
X638Y806D01*
X262Y805D02*
X277Y805D01*
X363Y805D02*
X400Y805D01*
X501Y805D02*
X538Y805D01*
X624Y805D02*
X640Y805D01*
X260Y804D02*
X275Y804D01*
X359Y804D02*
X394Y804D01*
X507Y804D02*
X541Y804D01*
X626Y804D02*
X641Y804D01*
X258Y803D02*
X273Y803D01*
X356Y803D02*
X389Y803D01*
X513Y803D02*
X545Y803D01*
X628Y803D02*
X643Y803D01*
X256Y802D02*
X271Y802D01*
X353Y802D02*
X384Y802D01*
X517Y802D02*
X549Y802D01*
X630Y802D02*
X645Y802D01*
X255Y801D02*
X270Y801D01*
X349Y801D02*
X379Y801D01*
X522Y801D02*
X552Y801D01*
X632Y801D02*
X646Y801D01*
X253Y800D02*
X268Y800D01*
X346Y800D02*
X374Y800D01*
X526Y800D02*
X555Y800D01*
X634Y800D02*
X648Y800D01*
X252Y799D02*
X266Y799D01*
X343Y799D02*
X370Y799D01*
X531Y799D02*
X558Y799D01*
X635Y799D02*
X650Y799D01*
X250Y798D02*
X264Y798D01*
X340Y798D02*
X366Y798D01*
X535Y798D02*
X561Y798D01*
X637Y798D02*
X651Y798D01*
X249Y797D02*
X263Y797D01*
X337Y797D02*
X363Y797D01*
X538Y797D02*
X564Y797D01*
X639Y797D02*
X653Y797D01*
X247Y796D02*
X261Y796D01*
X335Y796D02*
X359Y796D01*
X542Y796D02*
X566Y796D01*
X640Y796D02*
X654Y796D01*
X245Y795D02*
X259Y795D01*
X332Y795D02*
X356Y795D01*
X545Y795D02*
X569Y795D01*
X642Y795D02*
X656Y795D01*
X244Y794D02*
X258Y794D01*
X329Y794D02*
X352Y794D01*
X549Y794D02*
X572Y794D01*
X644Y794D02*
X657Y794D01*
X242Y793D02*
X256Y793D01*
X327Y793D02*
X349Y793D01*
X552Y793D02*
X574Y793D01*
X645Y793D02*
X659Y793D01*
X241Y792D02*
X254Y792D01*
X324Y792D02*
X346Y792D01*
X555Y792D02*
X577Y792D01*
X647Y792D02*
X660Y792D01*
X239Y791D02*
X253Y791D01*
X322Y791D02*
X343Y791D01*
X558Y791D02*
X579Y791D01*
X649Y791D02*
X662Y791D01*
X238Y790D02*
X251Y790D01*
X319Y790D02*
X340Y790D01*
X561Y790D02*
X582Y790D01*
X650Y790D02*
X663Y790D01*
X237Y789D02*
X250Y789D01*
X317Y789D02*
X337Y789D01*
X564Y789D02*
X584Y789D01*
X652Y789D02*
X665Y789D01*
X235Y788D02*
X248Y788D01*
X315Y788D02*
X335Y788D01*
X566Y788D02*
X586Y788D01*
X653Y788D02*
X666Y788D01*
X234Y787D02*
X247Y787D01*
X313Y787D02*
X332Y787D01*
X569Y787D02*
X588Y787D01*
X655Y787D02*
X668Y787D01*
X232Y786D02*
X245Y786D01*
X310Y786D02*
X329Y786D01*
X571Y786D02*
X591Y786D01*
X656Y786D02*
X669Y786D01*
X231Y785D02*
X243Y785D01*
X308Y785D02*
X327Y785D01*
X574Y785D02*
X593Y785D01*
X658Y785D02*
X671Y785D01*
X230Y784D02*
X242Y784D01*
X306Y784D02*
X324Y784D01*
X576Y784D02*
X595Y784D01*
X659Y784D02*
X672Y784D01*
X228Y783D02*
X241Y783D01*
X304Y783D02*
X322Y783D01*
X579Y783D02*
X597Y783D01*
X661Y783D02*
X673Y783D01*
X227Y782D02*
X239Y782D01*
X302Y782D02*
X320Y782D01*
X581Y782D02*
X599Y782D01*
X662Y782D02*
X675Y782D01*
X225Y781D02*
X238Y781D01*
X300Y781D02*
X318Y781D01*
X584Y781D02*
X601Y781D01*
X664Y781D02*
X676Y781D01*
X224Y780D02*
X236Y780D01*
X298Y780D02*
X315Y780D01*
X586Y780D02*
X603Y780D01*
X665Y780D02*
X677Y780D01*
X223Y779D02*
X235Y779D01*
X296Y779D02*
X313Y779D01*
X588Y779D02*
X605Y779D01*
X667Y779D02*
X679Y779D01*
X221Y778D02*
X234Y778D01*
X294Y778D02*
X311Y778D01*
X590Y778D02*
X607Y778D01*
X668Y778D02*
X680Y778D01*
X220Y777D02*
X232Y777D01*
X292Y777D02*
X309Y777D01*
X438Y777D02*
X463Y777D01*
X592Y777D02*
X609Y777D01*
X669Y777D02*
X681Y777D01*
X1620Y777D02*
X1629Y777D01*
X219Y776D02*
X231Y776D01*
X290Y776D02*
X307Y776D01*
X423Y776D02*
X478Y776D01*
X595Y776D02*
X611Y776D01*
X671Y776D02*
X683Y776D01*
X1617Y776D02*
X1632Y776D01*
X218Y775D02*
X229Y775D01*
X289Y775D02*
X305Y775D01*
X413Y775D02*
X487Y775D01*
X597Y775D02*
X613Y775D01*
X672Y775D02*
X684Y775D01*
X1615Y775D02*
X1634Y775D01*
X216Y774D02*
X228Y774D01*
X287Y774D02*
X303Y774D01*
X407Y774D02*
X494Y774D01*
X599Y774D02*
X615Y774D01*
X673Y774D02*
X685Y774D01*
X1613Y774D02*
X1636Y774D01*
X215Y773D02*
X227Y773D01*
X285Y773D02*
X301Y773D01*
X400Y773D02*
X500Y773D01*
X600Y773D02*
X616Y773D01*
X675Y773D02*
X687Y773D01*
X1611Y773D02*
X1638Y773D01*
X214Y772D02*
X226Y772D01*
X283Y772D02*
X299Y772D01*
X395Y772D02*
X506Y772D01*
X602Y772D02*
X618Y772D01*
X676Y772D02*
X688Y772D01*
X1610Y772D02*
X1639Y772D01*
X213Y771D02*
X224Y771D01*
X281Y771D02*
X297Y771D01*
X390Y771D02*
X511Y771D01*
X604Y771D02*
X620Y771D01*
X677Y771D02*
X689Y771D01*
X1609Y771D02*
X1640Y771D01*
X211Y770D02*
X223Y770D01*
X280Y770D02*
X295Y770D01*
X385Y770D02*
X515Y770D01*
X606Y770D02*
X621Y770D01*
X679Y770D02*
X690Y770D01*
X1608Y770D02*
X1641Y770D01*
X210Y769D02*
X222Y769D01*
X278Y769D02*
X293Y769D01*
X381Y769D02*
X435Y769D01*
X466Y769D02*
X520Y769D01*
X608Y769D02*
X623Y769D01*
X680Y769D02*
X691Y769D01*
X1607Y769D02*
X1642Y769D01*
X209Y768D02*
X221Y768D01*
X276Y768D02*
X291Y768D01*
X377Y768D02*
X421Y768D01*
X479Y768D02*
X524Y768D01*
X610Y768D02*
X625Y768D01*
X681Y768D02*
X693Y768D01*
X1606Y768D02*
X1643Y768D01*
X208Y767D02*
X219Y767D01*
X275Y767D02*
X289Y767D01*
X373Y767D02*
X412Y767D01*
X488Y767D02*
X528Y767D01*
X612Y767D02*
X627Y767D01*
X682Y767D02*
X694Y767D01*
X1605Y767D02*
X1644Y767D01*
X207Y766D02*
X218Y766D01*
X273Y766D02*
X288Y766D01*
X369Y766D02*
X406Y766D01*
X495Y766D02*
X531Y766D01*
X614Y766D02*
X628Y766D01*
X684Y766D02*
X695Y766D01*
X1605Y766D02*
X1644Y766D01*
X206Y765D02*
X217Y765D01*
X272Y765D02*
X286Y765D01*
X366Y765D02*
X399Y765D01*
X501Y765D02*
X535Y765D01*
X615Y765D02*
X630Y765D01*
X685Y765D02*
X696Y765D01*
X1604Y765D02*
X1645Y765D01*
X204Y764D02*
X216Y764D01*
X270Y764D02*
X284Y764D01*
X363Y764D02*
X394Y764D01*
X507Y764D02*
X538Y764D01*
X617Y764D02*
X631Y764D01*
X686Y764D02*
X697Y764D01*
X1604Y764D02*
X1619Y764D01*
X1630Y764D02*
X1645Y764D01*
X203Y763D02*
X214Y763D01*
X268Y763D02*
X282Y763D01*
X360Y763D02*
X389Y763D01*
X511Y763D02*
X541Y763D01*
X619Y763D02*
X633Y763D01*
X687Y763D02*
X699Y763D01*
X1603Y763D02*
X1618Y763D01*
X1631Y763D02*
X1646Y763D01*
X202Y762D02*
X213Y762D01*
X267Y762D02*
X281Y762D01*
X357Y762D02*
X384Y762D01*
X516Y762D02*
X544Y762D01*
X621Y762D02*
X634Y762D01*
X688Y762D02*
X700Y762D01*
X1603Y762D02*
X1617Y762D01*
X1632Y762D02*
X1646Y762D01*
X201Y761D02*
X212Y761D01*
X265Y761D02*
X279Y761D01*
X353Y761D02*
X380Y761D01*
X521Y761D02*
X547Y761D01*
X622Y761D02*
X636Y761D01*
X690Y761D02*
X701Y761D01*
X1602Y761D02*
X1616Y761D01*
X1633Y761D02*
X1647Y761D01*
X200Y760D02*
X211Y760D01*
X264Y760D02*
X277Y760D01*
X351Y760D02*
X377Y760D01*
X524Y760D02*
X550Y760D01*
X624Y760D02*
X637Y760D01*
X691Y760D02*
X702Y760D01*
X1602Y760D02*
X1615Y760D01*
X1634Y760D02*
X1647Y760D01*
X199Y759D02*
X210Y759D01*
X262Y759D02*
X276Y759D01*
X348Y759D02*
X373Y759D01*
X528Y759D02*
X553Y759D01*
X626Y759D02*
X639Y759D01*
X692Y759D02*
X703Y759D01*
X1602Y759D02*
X1614Y759D01*
X1635Y759D02*
X1647Y759D01*
X198Y758D02*
X209Y758D01*
X261Y758D02*
X274Y758D01*
X345Y758D02*
X369Y758D01*
X532Y758D02*
X556Y758D01*
X627Y758D02*
X641Y758D01*
X693Y758D02*
X704Y758D01*
X1602Y758D02*
X1614Y758D01*
X1635Y758D02*
X1647Y758D01*
X197Y757D02*
X207Y757D01*
X259Y757D02*
X273Y757D01*
X343Y757D02*
X366Y757D01*
X535Y757D02*
X558Y757D01*
X629Y757D02*
X642Y757D01*
X695Y757D02*
X705Y757D01*
X1601Y757D02*
X1613Y757D01*
X1636Y757D02*
X1648Y757D01*
X195Y756D02*
X206Y756D01*
X258Y756D02*
X271Y756D01*
X340Y756D02*
X363Y756D01*
X538Y756D02*
X561Y756D01*
X630Y756D02*
X644Y756D01*
X696Y756D02*
X706Y756D01*
X1601Y756D02*
X1613Y756D01*
X1636Y756D02*
X1648Y756D01*
X194Y755D02*
X205Y755D01*
X257Y755D02*
X270Y755D01*
X338Y755D02*
X360Y755D01*
X541Y755D02*
X563Y755D01*
X632Y755D02*
X645Y755D01*
X697Y755D02*
X707Y755D01*
X1601Y755D02*
X1613Y755D01*
X1636Y755D02*
X1648Y755D01*
X193Y754D02*
X204Y754D01*
X255Y754D02*
X268Y754D01*
X335Y754D02*
X356Y754D01*
X544Y754D02*
X566Y754D01*
X633Y754D02*
X646Y754D01*
X698Y754D02*
X708Y754D01*
X1601Y754D02*
X1613Y754D01*
X1636Y754D02*
X1648Y754D01*
X192Y753D02*
X203Y753D01*
X254Y753D02*
X266Y753D01*
X333Y753D02*
X353Y753D01*
X547Y753D02*
X568Y753D01*
X635Y753D02*
X648Y753D01*
X699Y753D02*
X710Y753D01*
X1601Y753D02*
X1613Y753D01*
X1636Y753D02*
X1648Y753D01*
X191Y752D02*
X202Y752D01*
X252Y752D02*
X265Y752D01*
X331Y752D02*
X351Y752D01*
X550Y752D02*
X570Y752D01*
X636Y752D02*
X649Y752D01*
X700Y752D02*
X711Y752D01*
X1601Y752D02*
X1613Y752D01*
X1636Y752D02*
X1648Y752D01*
X190Y751D02*
X201Y751D01*
X251Y751D02*
X264Y751D01*
X328Y751D02*
X348Y751D01*
X553Y751D02*
X573Y751D01*
X638Y751D02*
X650Y751D01*
X701Y751D02*
X712Y751D01*
X1601Y751D02*
X1613Y751D01*
X1636Y751D02*
X1648Y751D01*
X189Y750D02*
X199Y750D01*
X250Y750D02*
X262Y750D01*
X326Y750D02*
X345Y750D01*
X555Y750D02*
X575Y750D01*
X639Y750D02*
X652Y750D01*
X702Y750D02*
X713Y750D01*
X1601Y750D02*
X1613Y750D01*
X1636Y750D02*
X1648Y750D01*
X188Y749D02*
X198Y749D01*
X248Y749D02*
X261Y749D01*
X324Y749D02*
X343Y749D01*
X558Y749D02*
X577Y749D01*
X641Y749D02*
X653Y749D01*
X703Y749D02*
X714Y749D01*
X1602Y749D02*
X1614Y749D01*
X1635Y749D02*
X1647Y749D01*
X187Y748D02*
X197Y748D01*
X247Y748D02*
X259Y748D01*
X322Y748D02*
X340Y748D01*
X561Y748D02*
X579Y748D01*
X642Y748D02*
X655Y748D01*
X704Y748D02*
X715Y748D01*
X1602Y748D02*
X1614Y748D01*
X1635Y748D02*
X1647Y748D01*
X186Y747D02*
X196Y747D01*
X246Y747D02*
X258Y747D01*
X320Y747D02*
X338Y747D01*
X563Y747D02*
X581Y747D01*
X644Y747D02*
X656Y747D01*
X705Y747D02*
X716Y747D01*
X1602Y747D02*
X1615Y747D01*
X1634Y747D02*
X1647Y747D01*
X185Y746D02*
X195Y746D01*
X244Y746D02*
X257Y746D01*
X318Y746D02*
X336Y746D01*
X565Y746D02*
X583Y746D01*
X645Y746D02*
X657Y746D01*
X707Y746D02*
X717Y746D01*
X1603Y746D02*
X1616Y746D01*
X1633Y746D02*
X1646Y746D01*
X184Y745D02*
X194Y745D01*
X243Y745D02*
X255Y745D01*
X316Y745D02*
X333Y745D01*
X568Y745D02*
X585Y745D01*
X646Y745D02*
X659Y745D01*
X708Y745D02*
X718Y745D01*
X1603Y745D02*
X1617Y745D01*
X1632Y745D02*
X1646Y745D01*
X183Y744D02*
X193Y744D01*
X242Y744D02*
X254Y744D01*
X314Y744D02*
X331Y744D01*
X570Y744D02*
X587Y744D01*
X648Y744D02*
X660Y744D01*
X709Y744D02*
X719Y744D01*
X1603Y744D02*
X1618Y744D01*
X1631Y744D02*
X1646Y744D01*
X182Y743D02*
X192Y743D01*
X241Y743D02*
X252Y743D01*
X312Y743D02*
X329Y743D01*
X572Y743D02*
X589Y743D01*
X649Y743D02*
X661Y743D01*
X710Y743D02*
X720Y743D01*
X1604Y743D02*
X1620Y743D01*
X1628Y743D02*
X1645Y743D01*
X181Y742D02*
X191Y742D01*
X239Y742D02*
X251Y742D01*
X310Y742D02*
X327Y742D01*
X574Y742D02*
X591Y742D01*
X650Y742D02*
X662Y742D01*
X711Y742D02*
X721Y742D01*
X1604Y742D02*
X1645Y742D01*
X180Y741D02*
X190Y741D01*
X238Y741D02*
X250Y741D01*
X308Y741D02*
X325Y741D01*
X576Y741D02*
X593Y741D01*
X652Y741D02*
X663Y741D01*
X712Y741D02*
X722Y741D01*
X1605Y741D02*
X1644Y741D01*
X179Y740D02*
X189Y740D01*
X237Y740D02*
X249Y740D01*
X307Y740D02*
X323Y740D01*
X579Y740D02*
X595Y740D01*
X653Y740D02*
X665Y740D01*
X713Y740D02*
X723Y740D01*
X1605Y740D02*
X1644Y740D01*
X178Y739D02*
X188Y739D01*
X236Y739D02*
X247Y739D01*
X305Y739D02*
X321Y739D01*
X581Y739D02*
X597Y739D01*
X654Y739D02*
X666Y739D01*
X714Y739D02*
X724Y739D01*
X1606Y739D02*
X1643Y739D01*
X177Y738D02*
X187Y738D01*
X234Y738D02*
X246Y738D01*
X303Y738D02*
X319Y738D01*
X583Y738D02*
X598Y738D01*
X656Y738D02*
X667Y738D01*
X715Y738D02*
X725Y738D01*
X1607Y738D02*
X1642Y738D01*
X176Y737D02*
X186Y737D01*
X233Y737D02*
X245Y737D01*
X301Y737D02*
X317Y737D01*
X429Y737D02*
X472Y737D01*
X584Y737D02*
X600Y737D01*
X657Y737D02*
X668Y737D01*
X716Y737D02*
X726Y737D01*
X1608Y737D02*
X1641Y737D01*
X176Y736D02*
X185Y736D01*
X232Y736D02*
X244Y736D01*
X300Y736D02*
X315Y736D01*
X419Y736D02*
X482Y736D01*
X586Y736D02*
X602Y736D01*
X658Y736D02*
X670Y736D01*
X717Y736D02*
X727Y736D01*
X1609Y736D02*
X1640Y736D01*
X175Y735D02*
X184Y735D01*
X231Y735D02*
X242Y735D01*
X298Y735D02*
X313Y735D01*
X412Y735D02*
X489Y735D01*
X588Y735D02*
X603Y735D01*
X659Y735D02*
X671Y735D01*
X718Y735D02*
X728Y735D01*
X1610Y735D02*
X1639Y735D01*
X174Y734D02*
X183Y734D01*
X230Y734D02*
X241Y734D01*
X296Y734D02*
X311Y734D01*
X406Y734D02*
X495Y734D01*
X590Y734D02*
X605Y734D01*
X661Y734D02*
X672Y734D01*
X719Y734D02*
X729Y734D01*
X1612Y734D02*
X1637Y734D01*
X173Y733D02*
X182Y733D01*
X229Y733D02*
X240Y733D01*
X295Y733D02*
X309Y733D01*
X400Y733D02*
X500Y733D01*
X592Y733D02*
X607Y733D01*
X662Y733D02*
X673Y733D01*
X720Y733D02*
X729Y733D01*
X1613Y733D02*
X1636Y733D01*
X172Y732D02*
X182Y732D01*
X228Y732D02*
X238Y732D01*
X293Y732D02*
X307Y732D01*
X396Y732D02*
X505Y732D01*
X594Y732D02*
X608Y732D01*
X663Y732D02*
X674Y732D01*
X721Y732D02*
X730Y732D01*
X1615Y732D02*
X1634Y732D01*
X171Y731D02*
X181Y731D01*
X227Y731D02*
X237Y731D01*
X291Y731D02*
X306Y731D01*
X391Y731D02*
X510Y731D01*
X596Y731D02*
X610Y731D01*
X664Y731D02*
X675Y731D01*
X722Y731D02*
X731Y731D01*
X1618Y731D02*
X1631Y731D01*
X170Y730D02*
X180Y730D01*
X225Y730D02*
X236Y730D01*
X290Y730D02*
X304Y730D01*
X387Y730D02*
X442Y730D01*
X458Y730D02*
X514Y730D01*
X597Y730D02*
X612Y730D01*
X665Y730D02*
X676Y730D01*
X723Y730D02*
X732Y730D01*
X1622Y730D02*
X1627Y730D01*
X169Y729D02*
X179Y729D01*
X224Y729D02*
X235Y729D01*
X288Y729D02*
X302Y729D01*
X383Y729D02*
X427Y729D01*
X474Y729D02*
X517Y729D01*
X599Y729D02*
X613Y729D01*
X667Y729D02*
X678Y729D01*
X724Y729D02*
X733Y729D01*
X168Y728D02*
X178Y728D01*
X223Y728D02*
X234Y728D01*
X287Y728D02*
X300Y728D01*
X380Y728D02*
X417Y728D01*
X484Y728D02*
X521Y728D01*
X601Y728D02*
X615Y728D01*
X668Y728D02*
X679Y728D01*
X724Y728D02*
X734Y728D01*
X167Y727D02*
X177Y727D01*
X222Y727D02*
X233Y727D01*
X285Y727D02*
X299Y727D01*
X376Y727D02*
X411Y727D01*
X490Y727D02*
X525Y727D01*
X602Y727D02*
X616Y727D01*
X669Y727D02*
X680Y727D01*
X725Y727D02*
X735Y727D01*
X167Y726D02*
X176Y726D01*
X221Y726D02*
X232Y726D01*
X284Y726D02*
X297Y726D01*
X373Y726D02*
X404Y726D01*
X496Y726D02*
X528Y726D01*
X604Y726D02*
X618Y726D01*
X670Y726D02*
X681Y726D01*
X726Y726D02*
X736Y726D01*
X166Y725D02*
X175Y725D01*
X220Y725D02*
X231Y725D01*
X282Y725D02*
X296Y725D01*
X370Y725D02*
X400Y725D01*
X501Y725D02*
X531Y725D01*
X606Y725D02*
X619Y725D01*
X671Y725D02*
X682Y725D01*
X727Y725D02*
X737Y725D01*
X165Y724D02*
X174Y724D01*
X219Y724D02*
X229Y724D01*
X281Y724D02*
X294Y724D01*
X367Y724D02*
X395Y724D01*
X506Y724D02*
X534Y724D01*
X607Y724D02*
X621Y724D01*
X672Y724D02*
X683Y724D01*
X728Y724D02*
X737Y724D01*
X164Y723D02*
X173Y723D01*
X218Y723D02*
X228Y723D01*
X279Y723D02*
X293Y723D01*
X364Y723D02*
X391Y723D01*
X510Y723D02*
X537Y723D01*
X609Y723D02*
X622Y723D01*
X673Y723D02*
X684Y723D01*
X729Y723D02*
X738Y723D01*
X163Y722D02*
X172Y722D01*
X217Y722D02*
X227Y722D01*
X278Y722D02*
X291Y722D01*
X361Y722D02*
X387Y722D01*
X514Y722D02*
X540Y722D01*
X610Y722D02*
X623Y722D01*
X675Y722D02*
X685Y722D01*
X730Y722D02*
X739Y722D01*
X162Y721D02*
X172Y721D01*
X216Y721D02*
X226Y721D01*
X277Y721D02*
X289Y721D01*
X359Y721D02*
X383Y721D01*
X518Y721D02*
X542Y721D01*
X612Y721D02*
X625Y721D01*
X676Y721D02*
X686Y721D01*
X731Y721D02*
X740Y721D01*
X162Y720D02*
X171Y720D01*
X215Y720D02*
X225Y720D01*
X275Y720D02*
X288Y720D01*
X356Y720D02*
X379Y720D01*
X522Y720D02*
X545Y720D01*
X613Y720D02*
X626Y720D01*
X677Y720D02*
X687Y720D01*
X731Y720D02*
X741Y720D01*
X161Y719D02*
X170Y719D01*
X214Y719D02*
X224Y719D01*
X274Y719D02*
X286Y719D01*
X354Y719D02*
X376Y719D01*
X525Y719D02*
X547Y719D01*
X615Y719D02*
X628Y719D01*
X678Y719D02*
X688Y719D01*
X732Y719D02*
X742Y719D01*
X160Y718D02*
X169Y718D01*
X213Y718D02*
X223Y718D01*
X273Y718D02*
X285Y718D01*
X351Y718D02*
X373Y718D01*
X528Y718D02*
X550Y718D01*
X616Y718D02*
X629Y718D01*
X679Y718D02*
X689Y718D01*
X733Y718D02*
X743Y718D01*
X159Y717D02*
X168Y717D01*
X212Y717D02*
X222Y717D01*
X271Y717D02*
X284Y717D01*
X349Y717D02*
X370Y717D01*
X531Y717D02*
X552Y717D01*
X618Y717D02*
X630Y717D01*
X680Y717D02*
X690Y717D01*
X734Y717D02*
X743Y717D01*
X158Y716D02*
X167Y716D01*
X211Y716D02*
X221Y716D01*
X270Y716D02*
X282Y716D01*
X347Y716D02*
X367Y716D01*
X534Y716D02*
X554Y716D01*
X619Y716D02*
X632Y716D01*
X681Y716D02*
X691Y716D01*
X735Y716D02*
X744Y716D01*
X157Y715D02*
X167Y715D01*
X210Y715D02*
X220Y715D01*
X269Y715D02*
X281Y715D01*
X344Y715D02*
X364Y715D01*
X537Y715D02*
X557Y715D01*
X621Y715D02*
X633Y715D01*
X682Y715D02*
X692Y715D01*
X736Y715D02*
X745Y715D01*
X157Y714D02*
X166Y714D01*
X209Y714D02*
X219Y714D01*
X267Y714D02*
X279Y714D01*
X342Y714D02*
X362Y714D01*
X539Y714D02*
X559Y714D01*
X622Y714D02*
X634Y714D01*
X683Y714D02*
X693Y714D01*
X737Y714D02*
X746Y714D01*
X156Y713D02*
X165Y713D01*
X208Y713D02*
X218Y713D01*
X266Y713D02*
X278Y713D01*
X340Y713D02*
X359Y713D01*
X542Y713D02*
X561Y713D01*
X623Y713D02*
X636Y713D01*
X684Y713D02*
X694Y713D01*
X737Y713D02*
X747Y713D01*
X155Y712D02*
X164Y712D01*
X207Y712D02*
X217Y712D01*
X265Y712D02*
X277Y712D01*
X338Y712D02*
X356Y712D01*
X545Y712D02*
X563Y712D01*
X625Y712D02*
X637Y712D01*
X685Y712D02*
X695Y712D01*
X738Y712D02*
X747Y712D01*
X154Y711D02*
X163Y711D01*
X206Y711D02*
X216Y711D01*
X264Y711D02*
X275Y711D01*
X336Y711D02*
X354Y711D01*
X547Y711D02*
X565Y711D01*
X626Y711D02*
X638Y711D01*
X686Y711D02*
X696Y711D01*
X739Y711D02*
X748Y711D01*
X154Y710D02*
X163Y710D01*
X205Y710D02*
X215Y710D01*
X262Y710D02*
X274Y710D01*
X334Y710D02*
X352Y710D01*
X550Y710D02*
X567Y710D01*
X628Y710D02*
X639Y710D01*
X687Y710D02*
X697Y710D01*
X740Y710D02*
X749Y710D01*
X153Y709D02*
X162Y709D01*
X204Y709D02*
X214Y709D01*
X261Y709D02*
X273Y709D01*
X332Y709D02*
X349Y709D01*
X552Y709D02*
X569Y709D01*
X629Y709D02*
X640Y709D01*
X688Y709D02*
X698Y709D01*
X741Y709D02*
X750Y709D01*
X152Y708D02*
X161Y708D01*
X203Y708D02*
X213Y708D01*
X260Y708D02*
X271Y708D01*
X330Y708D02*
X347Y708D01*
X554Y708D02*
X571Y708D01*
X630Y708D02*
X642Y708D01*
X689Y708D02*
X699Y708D01*
X741Y708D02*
X751Y708D01*
X151Y707D02*
X160Y707D01*
X202Y707D02*
X212Y707D01*
X259Y707D02*
X270Y707D01*
X328Y707D02*
X345Y707D01*
X556Y707D02*
X573Y707D01*
X632Y707D02*
X643Y707D01*
X690Y707D02*
X700Y707D01*
X742Y707D02*
X751Y707D01*
X151Y706D02*
X159Y706D01*
X201Y706D02*
X211Y706D01*
X258Y706D02*
X269Y706D01*
X326Y706D02*
X342Y706D01*
X559Y706D02*
X575Y706D01*
X633Y706D02*
X644Y706D01*
X691Y706D02*
X701Y706D01*
X743Y706D02*
X752Y706D01*
X150Y705D02*
X159Y705D01*
X201Y705D02*
X210Y705D01*
X256Y705D02*
X268Y705D01*
X325Y705D02*
X340Y705D01*
X561Y705D02*
X577Y705D01*
X634Y705D02*
X645Y705D01*
X692Y705D02*
X702Y705D01*
X744Y705D02*
X753Y705D01*
X149Y704D02*
X158Y704D01*
X200Y704D02*
X209Y704D01*
X255Y704D02*
X267Y704D01*
X323Y704D02*
X338Y704D01*
X563Y704D02*
X578Y704D01*
X635Y704D02*
X647Y704D01*
X693Y704D02*
X703Y704D01*
X745Y704D02*
X754Y704D01*
X148Y703D02*
X157Y703D01*
X199Y703D02*
X208Y703D01*
X254Y703D02*
X265Y703D01*
X321Y703D02*
X337Y703D01*
X565Y703D02*
X580Y703D01*
X636Y703D02*
X648Y703D01*
X694Y703D02*
X704Y703D01*
X745Y703D02*
X754Y703D01*
X148Y702D02*
X156Y702D01*
X198Y702D02*
X207Y702D01*
X253Y702D02*
X264Y702D01*
X319Y702D02*
X335Y702D01*
X567Y702D02*
X582Y702D01*
X638Y702D02*
X649Y702D01*
X695Y702D02*
X704Y702D01*
X746Y702D02*
X755Y702D01*
X147Y701D02*
X156Y701D01*
X197Y701D02*
X207Y701D01*
X252Y701D02*
X263Y701D01*
X318Y701D02*
X333Y701D01*
X569Y701D02*
X584Y701D01*
X639Y701D02*
X650Y701D01*
X696Y701D02*
X705Y701D01*
X747Y701D02*
X756Y701D01*
X146Y700D02*
X155Y700D01*
X196Y700D02*
X206Y700D01*
X251Y700D02*
X262Y700D01*
X316Y700D02*
X331Y700D01*
X570Y700D02*
X585Y700D01*
X640Y700D02*
X651Y700D01*
X697Y700D02*
X706Y700D01*
X748Y700D02*
X757Y700D01*
X145Y699D02*
X154Y699D01*
X195Y699D02*
X205Y699D01*
X250Y699D02*
X261Y699D01*
X314Y699D02*
X329Y699D01*
X572Y699D02*
X587Y699D01*
X641Y699D02*
X652Y699D01*
X698Y699D02*
X707Y699D01*
X749Y699D02*
X757Y699D01*
X145Y698D02*
X153Y698D01*
X194Y698D02*
X204Y698D01*
X249Y698D02*
X259Y698D01*
X313Y698D02*
X327Y698D01*
X434Y698D02*
X467Y698D01*
X574Y698D02*
X589Y698D01*
X642Y698D02*
X653Y698D01*
X698Y698D02*
X708Y698D01*
X749Y698D02*
X758Y698D01*
X1619Y698D02*
X1630Y698D01*
X144Y697D02*
X153Y697D01*
X194Y697D02*
X203Y697D01*
X247Y697D02*
X258Y697D01*
X311Y697D02*
X325Y697D01*
X424Y697D02*
X477Y697D01*
X576Y697D02*
X590Y697D01*
X644Y697D02*
X654Y697D01*
X699Y697D02*
X709Y697D01*
X750Y697D02*
X759Y697D01*
X1616Y697D02*
X1633Y697D01*
X143Y696D02*
X152Y696D01*
X193Y696D02*
X202Y696D01*
X246Y696D02*
X257Y696D01*
X310Y696D02*
X324Y696D01*
X417Y696D02*
X484Y696D01*
X578Y696D02*
X592Y696D01*
X645Y696D02*
X655Y696D01*
X700Y696D02*
X710Y696D01*
X751Y696D02*
X759Y696D01*
X1614Y696D02*
X1635Y696D01*
X143Y695D02*
X151Y695D01*
X192Y695D02*
X201Y695D01*
X245Y695D02*
X256Y695D01*
X308Y695D02*
X322Y695D01*
X411Y695D02*
X490Y695D01*
X579Y695D02*
X593Y695D01*
X646Y695D02*
X656Y695D01*
X701Y695D02*
X711Y695D01*
X751Y695D02*
X760Y695D01*
X1612Y695D02*
X1637Y695D01*
X142Y694D02*
X150Y694D01*
X191Y694D02*
X200Y694D01*
X244Y694D02*
X255Y694D01*
X307Y694D02*
X320Y694D01*
X406Y694D02*
X495Y694D01*
X581Y694D02*
X595Y694D01*
X647Y694D02*
X658Y694D01*
X702Y694D02*
X711Y694D01*
X752Y694D02*
X761Y694D01*
X1611Y694D02*
X1638Y694D01*
X141Y693D02*
X150Y693D01*
X190Y693D02*
X199Y693D01*
X243Y693D02*
X254Y693D01*
X305Y693D02*
X319Y693D01*
X401Y693D02*
X499Y693D01*
X583Y693D02*
X596Y693D01*
X648Y693D02*
X659Y693D01*
X703Y693D02*
X712Y693D01*
X753Y693D02*
X762Y693D01*
X1609Y693D02*
X1640Y693D01*
X141Y692D02*
X149Y692D01*
X189Y692D02*
X199Y692D01*
X242Y692D02*
X253Y692D01*
X304Y692D02*
X317Y692D01*
X397Y692D02*
X503Y692D01*
X584Y692D02*
X598Y692D01*
X649Y692D02*
X660Y692D01*
X704Y692D02*
X713Y692D01*
X754Y692D02*
X762Y692D01*
X1608Y692D02*
X1641Y692D01*
X140Y691D02*
X148Y691D01*
X189Y691D02*
X198Y691D01*
X241Y691D02*
X252Y691D01*
X302Y691D02*
X315Y691D01*
X394Y691D02*
X507Y691D01*
X586Y691D02*
X599Y691D01*
X650Y691D02*
X661Y691D01*
X705Y691D02*
X714Y691D01*
X754Y691D02*
X763Y691D01*
X1607Y691D02*
X1642Y691D01*
X139Y690D02*
X148Y690D01*
X188Y690D02*
X197Y690D01*
X240Y690D02*
X251Y690D01*
X301Y690D02*
X314Y690D01*
X390Y690D02*
X432Y690D01*
X469Y690D02*
X511Y690D01*
X587Y690D02*
X601Y690D01*
X651Y690D02*
X662Y690D01*
X706Y690D02*
X715Y690D01*
X755Y690D02*
X764Y690D01*
X1607Y690D02*
X1642Y690D01*
X139Y689D02*
X147Y689D01*
X187Y689D02*
X196Y689D01*
X239Y689D02*
X250Y689D01*
X300Y689D02*
X312Y689D01*
X387Y689D02*
X423Y689D01*
X478Y689D02*
X514Y689D01*
X589Y689D02*
X602Y689D01*
X652Y689D02*
X663Y689D01*
X706Y689D02*
X715Y689D01*
X756Y689D02*
X764Y689D01*
X1606Y689D02*
X1643Y689D01*
X138Y688D02*
X146Y688D01*
X186Y688D02*
X195Y688D01*
X238Y688D02*
X249Y688D01*
X298Y688D02*
X311Y688D01*
X383Y688D02*
X416Y688D01*
X485Y688D02*
X517Y688D01*
X591Y688D02*
X603Y688D01*
X653Y688D02*
X664Y688D01*
X707Y688D02*
X716Y688D01*
X756Y688D02*
X765Y688D01*
X1605Y688D02*
X1644Y688D01*
X137Y687D02*
X146Y687D01*
X185Y687D02*
X195Y687D01*
X237Y687D02*
X248Y687D01*
X297Y687D02*
X309Y687D01*
X380Y687D02*
X410Y687D01*
X491Y687D02*
X520Y687D01*
X592Y687D02*
X605Y687D01*
X655Y687D02*
X665Y687D01*
X708Y687D02*
X717Y687D01*
X757Y687D02*
X766Y687D01*
X1605Y687D02*
X1644Y687D01*
X137Y686D02*
X145Y686D01*
X185Y686D02*
X194Y686D01*
X236Y686D02*
X247Y686D01*
X295Y686D02*
X308Y686D01*
X377Y686D02*
X405Y686D01*
X495Y686D02*
X523Y686D01*
X594Y686D02*
X606Y686D01*
X655Y686D02*
X666Y686D01*
X709Y686D02*
X718Y686D01*
X758Y686D02*
X766Y686D01*
X1604Y686D02*
X1622Y686D01*
X1627Y686D02*
X1645Y686D01*
X136Y685D02*
X144Y685D01*
X184Y685D02*
X193Y685D01*
X235Y685D02*
X246Y685D01*
X294Y685D02*
X306Y685D01*
X375Y685D02*
X401Y685D01*
X500Y685D02*
X526Y685D01*
X595Y685D02*
X607Y685D01*
X656Y685D02*
X667Y685D01*
X710Y685D02*
X719Y685D01*
X759Y685D02*
X767Y685D01*
X1603Y685D02*
X1619Y685D01*
X1630Y685D02*
X1646Y685D01*
X135Y684D02*
X144Y684D01*
X183Y684D02*
X192Y684D01*
X235Y684D02*
X245Y684D01*
X293Y684D02*
X305Y684D01*
X372Y684D02*
X397Y684D01*
X504Y684D02*
X529Y684D01*
X596Y684D02*
X609Y684D01*
X657Y684D02*
X668Y684D01*
X710Y684D02*
X719Y684D01*
X759Y684D02*
X768Y684D01*
X1603Y684D02*
X1617Y684D01*
X1632Y684D02*
X1646Y684D01*
X135Y683D02*
X143Y683D01*
X182Y683D02*
X191Y683D01*
X234Y683D02*
X244Y683D01*
X292Y683D02*
X304Y683D01*
X370Y683D02*
X393Y683D01*
X508Y683D02*
X531Y683D01*
X598Y683D02*
X610Y683D01*
X658Y683D02*
X669Y683D01*
X711Y683D02*
X720Y683D01*
X760Y683D02*
X768Y683D01*
X1603Y683D02*
X1616Y683D01*
X1633Y683D02*
X1646Y683D01*
X134Y682D02*
X142Y682D01*
X182Y682D02*
X190Y682D01*
X233Y682D02*
X243Y682D01*
X290Y682D02*
X302Y682D01*
X367Y682D02*
X389Y682D01*
X511Y682D02*
X534Y682D01*
X599Y682D02*
X611Y682D01*
X659Y682D02*
X670Y682D01*
X712Y682D02*
X721Y682D01*
X761Y682D02*
X769Y682D01*
X1602Y682D02*
X1615Y682D01*
X1634Y682D02*
X1647Y682D01*
X133Y681D02*
X142Y681D01*
X181Y681D02*
X190Y681D01*
X232Y681D02*
X242Y681D01*
X289Y681D02*
X301Y681D01*
X365Y681D02*
X386Y681D01*
X514Y681D02*
X536Y681D01*
X601Y681D02*
X613Y681D01*
X660Y681D02*
X670Y681D01*
X713Y681D02*
X722Y681D01*
X761Y681D02*
X770Y681D01*
X1602Y681D02*
X1615Y681D01*
X1634Y681D02*
X1647Y681D01*
X133Y680D02*
X141Y680D01*
X180Y680D02*
X189Y680D01*
X231Y680D02*
X241Y680D01*
X288Y680D02*
X300Y680D01*
X362Y680D02*
X383Y680D01*
X518Y680D02*
X539Y680D01*
X602Y680D02*
X614Y680D01*
X661Y680D02*
X671Y680D01*
X713Y680D02*
X723Y680D01*
X762Y680D02*
X770Y680D01*
X1602Y680D02*
X1614Y680D01*
X1635Y680D02*
X1647Y680D01*
X132Y679D02*
X140Y679D01*
X180Y679D02*
X188Y679D01*
X230Y679D02*
X240Y679D01*
X287Y679D02*
X298Y679D01*
X360Y679D02*
X380Y679D01*
X521Y679D02*
X541Y679D01*
X603Y679D02*
X615Y679D01*
X662Y679D02*
X672Y679D01*
X714Y679D02*
X723Y679D01*
X763Y679D02*
X771Y679D01*
X1601Y679D02*
X1613Y679D01*
X1635Y679D02*
X1647Y679D01*
X131Y678D02*
X140Y678D01*
X179Y678D02*
X188Y678D01*
X229Y678D02*
X239Y678D01*
X285Y678D02*
X297Y678D01*
X358Y678D02*
X377Y678D01*
X523Y678D02*
X543Y678D01*
X605Y678D02*
X616Y678D01*
X663Y678D02*
X673Y678D01*
X715Y678D02*
X724Y678D01*
X763Y678D02*
X772Y678D01*
X1601Y678D02*
X1613Y678D01*
X1636Y678D02*
X1648Y678D01*
X131Y677D02*
X139Y677D01*
X178Y677D02*
X187Y677D01*
X228Y677D02*
X238Y677D01*
X284Y677D02*
X296Y677D01*
X356Y677D02*
X375Y677D01*
X526Y677D02*
X545Y677D01*
X606Y677D02*
X618Y677D01*
X664Y677D02*
X674Y677D01*
X716Y677D02*
X725Y677D01*
X764Y677D02*
X772Y677D01*
X1601Y677D02*
X1613Y677D01*
X1636Y677D02*
X1648Y677D01*
X130Y676D02*
X138Y676D01*
X177Y676D02*
X186Y676D01*
X227Y676D02*
X237Y676D01*
X283Y676D02*
X294Y676D01*
X354Y676D02*
X372Y676D01*
X529Y676D02*
X547Y676D01*
X607Y676D02*
X619Y676D01*
X665Y676D02*
X675Y676D01*
X717Y676D02*
X725Y676D01*
X764Y676D02*
X773Y676D01*
X1601Y676D02*
X1613Y676D01*
X1636Y676D02*
X1648Y676D01*
X130Y675D02*
X138Y675D01*
X177Y675D02*
X185Y675D01*
X226Y675D02*
X236Y675D01*
X282Y675D02*
X293Y675D01*
X352Y675D02*
X370Y675D01*
X531Y675D02*
X549Y675D01*
X608Y675D02*
X620Y675D01*
X666Y675D02*
X676Y675D01*
X717Y675D02*
X726Y675D01*
X765Y675D02*
X773Y675D01*
X1601Y675D02*
X1613Y675D01*
X1636Y675D02*
X1648Y675D01*
X129Y674D02*
X137Y674D01*
X176Y674D02*
X185Y674D01*
X226Y674D02*
X235Y674D01*
X281Y674D02*
X292Y674D01*
X350Y674D02*
X367Y674D01*
X534Y674D02*
X551Y674D01*
X610Y674D02*
X621Y674D01*
X667Y674D02*
X677Y674D01*
X718Y674D02*
X727Y674D01*
X766Y674D02*
X774Y674D01*
X1601Y674D02*
X1613Y674D01*
X1636Y674D02*
X1648Y674D01*
X129Y673D02*
X137Y673D01*
X175Y673D02*
X184Y673D01*
X225Y673D02*
X234Y673D01*
X280Y673D02*
X291Y673D01*
X348Y673D02*
X365Y673D01*
X536Y673D02*
X553Y673D01*
X611Y673D02*
X622Y673D01*
X668Y673D02*
X678Y673D01*
X719Y673D02*
X728Y673D01*
X766Y673D02*
X775Y673D01*
X1601Y673D02*
X1613Y673D01*
X1636Y673D02*
X1648Y673D01*
X128Y672D02*
X136Y672D01*
X174Y672D02*
X183Y672D01*
X224Y672D02*
X233Y672D01*
X279Y672D02*
X289Y672D01*
X346Y672D02*
X363Y672D01*
X538Y672D02*
X555Y672D01*
X612Y672D02*
X623Y672D01*
X669Y672D02*
X678Y672D01*
X720Y672D02*
X728Y672D01*
X767Y672D02*
X775Y672D01*
X1601Y672D02*
X1613Y672D01*
X1636Y672D02*
X1648Y672D01*
X127Y671D02*
X135Y671D01*
X174Y671D02*
X182Y671D01*
X223Y671D02*
X232Y671D01*
X277Y671D02*
X288Y671D01*
X344Y671D02*
X361Y671D01*
X540Y671D02*
X557Y671D01*
X613Y671D02*
X624Y671D01*
X670Y671D02*
X679Y671D01*
X720Y671D02*
X729Y671D01*
X768Y671D02*
X776Y671D01*
X1601Y671D02*
X1613Y671D01*
X1636Y671D02*
X1648Y671D01*
X127Y670D02*
X135Y670D01*
X173Y670D02*
X182Y670D01*
X222Y670D02*
X231Y670D01*
X276Y670D02*
X287Y670D01*
X343Y670D02*
X358Y670D01*
X543Y670D02*
X559Y670D01*
X615Y670D02*
X626Y670D01*
X671Y670D02*
X680Y670D01*
X721Y670D02*
X730Y670D01*
X768Y670D02*
X777Y670D01*
X1602Y670D02*
X1614Y670D01*
X1635Y670D02*
X1647Y670D01*
X126Y669D02*
X134Y669D01*
X173Y669D02*
X181Y669D01*
X221Y669D02*
X231Y669D01*
X275Y669D02*
X286Y669D01*
X341Y669D02*
X356Y669D01*
X545Y669D02*
X560Y669D01*
X616Y669D02*
X627Y669D01*
X672Y669D02*
X681Y669D01*
X722Y669D02*
X730Y669D01*
X769Y669D02*
X777Y669D01*
X1602Y669D02*
X1614Y669D01*
X1635Y669D02*
X1647Y669D01*
X126Y668D02*
X134Y668D01*
X172Y668D02*
X180Y668D01*
X221Y668D02*
X230Y668D01*
X274Y668D02*
X285Y668D01*
X339Y668D02*
X354Y668D01*
X547Y668D02*
X562Y668D01*
X617Y668D02*
X628Y668D01*
X672Y668D02*
X682Y668D01*
X722Y668D02*
X731Y668D01*
X770Y668D02*
X778Y668D01*
X1602Y668D02*
X1615Y668D01*
X1634Y668D02*
X1647Y668D01*
X125Y667D02*
X133Y667D01*
X171Y667D02*
X180Y667D01*
X220Y667D02*
X229Y667D01*
X273Y667D02*
X284Y667D01*
X337Y667D02*
X353Y667D01*
X549Y667D02*
X564Y667D01*
X618Y667D02*
X629Y667D01*
X673Y667D02*
X683Y667D01*
X723Y667D02*
X732Y667D01*
X770Y667D02*
X778Y667D01*
X1603Y667D02*
X1616Y667D01*
X1633Y667D02*
X1646Y667D01*
X124Y666D02*
X133Y666D01*
X171Y666D02*
X179Y666D01*
X219Y666D02*
X228Y666D01*
X272Y666D02*
X283Y666D01*
X336Y666D02*
X351Y666D01*
X551Y666D02*
X566Y666D01*
X619Y666D02*
X630Y666D01*
X674Y666D02*
X683Y666D01*
X724Y666D02*
X733Y666D01*
X771Y666D02*
X779Y666D01*
X1603Y666D02*
X1617Y666D01*
X1632Y666D02*
X1646Y666D01*
X124Y665D02*
X132Y665D01*
X170Y665D02*
X178Y665D01*
X218Y665D02*
X227Y665D01*
X271Y665D02*
X282Y665D01*
X334Y665D02*
X349Y665D01*
X553Y665D02*
X567Y665D01*
X620Y665D02*
X631Y665D01*
X675Y665D02*
X684Y665D01*
X725Y665D02*
X733Y665D01*
X771Y665D02*
X779Y665D01*
X1603Y665D02*
X1619Y665D01*
X1630Y665D02*
X1646Y665D01*
X123Y664D02*
X131Y664D01*
X169Y664D02*
X178Y664D01*
X217Y664D02*
X227Y664D01*
X270Y664D02*
X280Y664D01*
X333Y664D02*
X347Y664D01*
X554Y664D02*
X569Y664D01*
X621Y664D02*
X632Y664D01*
X676Y664D02*
X685Y664D01*
X725Y664D02*
X734Y664D01*
X772Y664D02*
X780Y664D01*
X1604Y664D02*
X1622Y664D01*
X1627Y664D02*
X1645Y664D01*
X123Y663D02*
X131Y663D01*
X169Y663D02*
X177Y663D01*
X217Y663D02*
X226Y663D01*
X269Y663D02*
X279Y663D01*
X331Y663D02*
X345Y663D01*
X556Y663D02*
X570Y663D01*
X623Y663D02*
X633Y663D01*
X677Y663D02*
X686Y663D01*
X726Y663D02*
X734Y663D01*
X772Y663D02*
X781Y663D01*
X1604Y663D02*
X1644Y663D01*
X122Y662D02*
X130Y662D01*
X168Y662D02*
X176Y662D01*
X216Y662D02*
X225Y662D01*
X268Y662D02*
X278Y662D01*
X330Y662D02*
X343Y662D01*
X558Y662D02*
X572Y662D01*
X624Y662D02*
X634Y662D01*
X678Y662D02*
X687Y662D01*
X727Y662D02*
X735Y662D01*
X773Y662D02*
X781Y662D01*
X1605Y662D02*
X1644Y662D01*
X122Y661D02*
X130Y661D01*
X167Y661D02*
X176Y661D01*
X215Y661D02*
X224Y661D01*
X267Y661D02*
X277Y661D01*
X328Y661D02*
X342Y661D01*
X559Y661D02*
X573Y661D01*
X625Y661D02*
X635Y661D01*
X678Y661D02*
X687Y661D01*
X727Y661D02*
X736Y661D01*
X774Y661D02*
X782Y661D01*
X1606Y661D02*
X1643Y661D01*
X121Y660D02*
X129Y660D01*
X167Y660D02*
X175Y660D01*
X214Y660D02*
X223Y660D01*
X266Y660D02*
X276Y660D01*
X327Y660D02*
X340Y660D01*
X561Y660D02*
X575Y660D01*
X626Y660D02*
X636Y660D01*
X679Y660D02*
X688Y660D01*
X728Y660D02*
X736Y660D01*
X774Y660D02*
X782Y660D01*
X1606Y660D02*
X1642Y660D01*
X121Y659D02*
X129Y659D01*
X166Y659D02*
X174Y659D01*
X214Y659D02*
X222Y659D01*
X265Y659D02*
X275Y659D01*
X325Y659D02*
X338Y659D01*
X441Y659D02*
X460Y659D01*
X563Y659D02*
X576Y659D01*
X627Y659D02*
X637Y659D01*
X680Y659D02*
X689Y659D01*
X729Y659D02*
X737Y659D01*
X775Y659D02*
X783Y659D01*
X1607Y659D02*
X1642Y659D01*
X120Y658D02*
X128Y658D01*
X165Y658D02*
X174Y658D01*
X213Y658D02*
X222Y658D01*
X264Y658D02*
X274Y658D01*
X324Y658D02*
X337Y658D01*
X429Y658D02*
X472Y658D01*
X564Y658D02*
X578Y658D01*
X628Y658D02*
X638Y658D01*
X681Y658D02*
X690Y658D01*
X729Y658D02*
X738Y658D01*
X775Y658D02*
X783Y658D01*
X1608Y658D02*
X1641Y658D01*
X120Y657D02*
X127Y657D01*
X165Y657D02*
X173Y657D01*
X212Y657D02*
X221Y657D01*
X263Y657D02*
X273Y657D01*
X322Y657D02*
X335Y657D01*
X422Y657D02*
X479Y657D01*
X566Y657D02*
X579Y657D01*
X629Y657D02*
X639Y657D01*
X682Y657D02*
X691Y657D01*
X730Y657D02*
X738Y657D01*
X776Y657D02*
X784Y657D01*
X1609Y657D02*
X1640Y657D01*
X119Y656D02*
X127Y656D01*
X164Y656D02*
X172Y656D01*
X211Y656D02*
X220Y656D01*
X262Y656D02*
X272Y656D01*
X321Y656D02*
X334Y656D01*
X416Y656D02*
X484Y656D01*
X568Y656D02*
X580Y656D01*
X630Y656D02*
X640Y656D01*
X682Y656D02*
X691Y656D01*
X731Y656D02*
X739Y656D01*
X776Y656D02*
X784Y656D01*
X1611Y656D02*
X1638Y656D01*
X119Y655D02*
X126Y655D01*
X164Y655D02*
X172Y655D01*
X211Y655D02*
X219Y655D01*
X261Y655D02*
X271Y655D01*
X320Y655D02*
X332Y655D01*
X412Y655D02*
X489Y655D01*
X569Y655D02*
X582Y655D01*
X631Y655D02*
X641Y655D01*
X683Y655D02*
X692Y655D01*
X731Y655D02*
X740Y655D01*
X777Y655D02*
X785Y655D01*
X1612Y655D02*
X1637Y655D01*
X118Y654D02*
X126Y654D01*
X163Y654D02*
X171Y654D01*
X210Y654D02*
X219Y654D01*
X260Y654D02*
X270Y654D01*
X318Y654D02*
X331Y654D01*
X407Y654D02*
X493Y654D01*
X571Y654D02*
X583Y654D01*
X632Y654D02*
X642Y654D01*
X684Y654D02*
X693Y654D01*
X732Y654D02*
X740Y654D01*
X778Y654D02*
X786Y654D01*
X1614Y654D02*
X1635Y654D01*
X118Y653D02*
X125Y653D01*
X162Y653D02*
X171Y653D01*
X209Y653D02*
X218Y653D01*
X260Y653D02*
X269Y653D01*
X317Y653D02*
X329Y653D01*
X404Y653D02*
X497Y653D01*
X572Y653D02*
X585Y653D01*
X633Y653D02*
X643Y653D01*
X685Y653D02*
X693Y653D01*
X732Y653D02*
X741Y653D01*
X778Y653D02*
X786Y653D01*
X1616Y653D02*
X1633Y653D01*
X117Y652D02*
X125Y652D01*
X162Y652D02*
X170Y652D01*
X209Y652D02*
X217Y652D01*
X259Y652D02*
X268Y652D01*
X316Y652D02*
X328Y652D01*
X400Y652D02*
X501Y652D01*
X574Y652D02*
X586Y652D01*
X634Y652D02*
X644Y652D01*
X685Y652D02*
X694Y652D01*
X733Y652D02*
X741Y652D01*
X779Y652D02*
X787Y652D01*
X1619Y652D02*
X1630Y652D01*
X116Y651D02*
X124Y651D01*
X161Y651D02*
X169Y651D01*
X208Y651D02*
X217Y651D01*
X258Y651D02*
X267Y651D01*
X315Y651D02*
X327Y651D01*
X397Y651D02*
X438Y651D01*
X463Y651D02*
X504Y651D01*
X575Y651D02*
X587Y651D01*
X635Y651D02*
X644Y651D01*
X686Y651D02*
X695Y651D01*
X734Y651D02*
X742Y651D01*
X779Y651D02*
X787Y651D01*
X116Y650D02*
X124Y650D01*
X161Y650D02*
X169Y650D01*
X207Y650D02*
X216Y650D01*
X257Y650D02*
X266Y650D01*
X313Y650D02*
X325Y650D01*
X394Y650D02*
X428Y650D01*
X473Y650D02*
X507Y650D01*
X576Y650D02*
X588Y650D01*
X636Y650D02*
X645Y650D01*
X687Y650D02*
X696Y650D01*
X734Y650D02*
X743Y650D01*
X780Y650D02*
X788Y650D01*
X115Y649D02*
X123Y649D01*
X160Y649D02*
X168Y649D01*
X206Y649D02*
X215Y649D01*
X256Y649D02*
X266Y649D01*
X312Y649D02*
X324Y649D01*
X391Y649D02*
X421Y649D01*
X480Y649D02*
X510Y649D01*
X578Y649D02*
X590Y649D01*
X637Y649D02*
X646Y649D01*
X688Y649D02*
X696Y649D01*
X735Y649D02*
X743Y649D01*
X780Y649D02*
X788Y649D01*
X115Y648D02*
X123Y648D01*
X159Y648D02*
X168Y648D01*
X206Y648D02*
X214Y648D01*
X255Y648D02*
X265Y648D01*
X311Y648D02*
X322Y648D01*
X388Y648D02*
X416Y648D01*
X485Y648D02*
X513Y648D01*
X579Y648D02*
X591Y648D01*
X638Y648D02*
X647Y648D01*
X688Y648D02*
X697Y648D01*
X736Y648D02*
X744Y648D01*
X781Y648D02*
X789Y648D01*
X114Y647D02*
X122Y647D01*
X159Y647D02*
X167Y647D01*
X205Y647D02*
X214Y647D01*
X254Y647D02*
X264Y647D01*
X310Y647D02*
X321Y647D01*
X385Y647D02*
X411Y647D01*
X490Y647D02*
X516Y647D01*
X580Y647D02*
X592Y647D01*
X638Y647D02*
X648Y647D01*
X689Y647D02*
X698Y647D01*
X736Y647D02*
X744Y647D01*
X781Y647D02*
X789Y647D01*
X114Y646D02*
X122Y646D01*
X158Y646D02*
X166Y646D01*
X204Y646D02*
X213Y646D01*
X253Y646D02*
X263Y646D01*
X308Y646D02*
X320Y646D01*
X383Y646D02*
X407Y646D01*
X494Y646D02*
X518Y646D01*
X582Y646D02*
X593Y646D01*
X639Y646D02*
X649Y646D01*
X690Y646D02*
X699Y646D01*
X737Y646D02*
X745Y646D01*
X782Y646D02*
X790Y646D01*
X113Y645D02*
X121Y645D01*
X158Y645D02*
X166Y645D01*
X204Y645D02*
X212Y645D01*
X253Y645D02*
X262Y645D01*
X307Y645D02*
X319Y645D01*
X380Y645D02*
X403Y645D01*
X498Y645D02*
X520Y645D01*
X583Y645D02*
X594Y645D01*
X640Y645D02*
X650Y645D01*
X691Y645D02*
X699Y645D01*
X737Y645D02*
X746Y645D01*
X782Y645D02*
X790Y645D01*
X113Y644D02*
X121Y644D01*
X157Y644D02*
X165Y644D01*
X203Y644D02*
X212Y644D01*
X252Y644D02*
X261Y644D01*
X306Y644D02*
X317Y644D01*
X378Y644D02*
X400Y644D01*
X501Y644D02*
X523Y644D01*
X584Y644D02*
X596Y644D01*
X641Y644D02*
X651Y644D01*
X691Y644D02*
X700Y644D01*
X738Y644D02*
X746Y644D01*
X783Y644D02*
X791Y644D01*
X113Y643D02*
X120Y643D01*
X157Y643D02*
X165Y643D01*
X202Y643D02*
X211Y643D01*
X251Y643D02*
X260Y643D01*
X305Y643D02*
X316Y643D01*
X376Y643D02*
X397Y643D01*
X504Y643D02*
X525Y643D01*
X586Y643D02*
X597Y643D01*
X642Y643D02*
X651Y643D01*
X692Y643D02*
X701Y643D01*
X739Y643D02*
X747Y643D01*
X783Y643D02*
X791Y643D01*
X112Y642D02*
X120Y642D01*
X156Y642D02*
X164Y642D01*
X202Y642D02*
X210Y642D01*
X250Y642D02*
X259Y642D01*
X304Y642D02*
X315Y642D01*
X374Y642D02*
X394Y642D01*
X507Y642D02*
X527Y642D01*
X587Y642D02*
X598Y642D01*
X643Y642D02*
X652Y642D01*
X693Y642D02*
X701Y642D01*
X739Y642D02*
X747Y642D01*
X784Y642D02*
X792Y642D01*
X112Y641D02*
X119Y641D01*
X156Y641D02*
X163Y641D01*
X201Y641D02*
X210Y641D01*
X249Y641D02*
X259Y641D01*
X303Y641D02*
X314Y641D01*
X372Y641D02*
X391Y641D01*
X510Y641D02*
X529Y641D01*
X588Y641D02*
X599Y641D01*
X644Y641D02*
X653Y641D01*
X693Y641D02*
X702Y641D01*
X740Y641D02*
X748Y641D01*
X784Y641D02*
X792Y641D01*
X111Y640D02*
X119Y640D01*
X155Y640D02*
X163Y640D01*
X201Y640D02*
X209Y640D01*
X249Y640D02*
X258Y640D01*
X302Y640D02*
X313Y640D01*
X370Y640D02*
X388Y640D01*
X513Y640D02*
X531Y640D01*
X589Y640D02*
X600Y640D01*
X645Y640D02*
X654Y640D01*
X694Y640D02*
X702Y640D01*
X740Y640D02*
X748Y640D01*
X785Y640D02*
X793Y640D01*
X111Y639D02*
X118Y639D01*
X155Y639D02*
X162Y639D01*
X200Y639D02*
X208Y639D01*
X248Y639D02*
X257Y639D01*
X301Y639D02*
X311Y639D01*
X368Y639D02*
X386Y639D01*
X515Y639D02*
X533Y639D01*
X590Y639D02*
X601Y639D01*
X646Y639D02*
X655Y639D01*
X695Y639D02*
X703Y639D01*
X741Y639D02*
X749Y639D01*
X785Y639D02*
X793Y639D01*
X110Y638D02*
X118Y638D01*
X154Y638D02*
X162Y638D01*
X199Y638D02*
X208Y638D01*
X247Y638D02*
X256Y638D01*
X300Y638D02*
X310Y638D01*
X366Y638D02*
X383Y638D01*
X518Y638D02*
X535Y638D01*
X592Y638D02*
X602Y638D01*
X646Y638D02*
X655Y638D01*
X695Y638D02*
X704Y638D01*
X741Y638D02*
X749Y638D01*
X786Y638D02*
X794Y638D01*
X110Y637D02*
X117Y637D01*
X153Y637D02*
X161Y637D01*
X199Y637D02*
X207Y637D01*
X246Y637D02*
X255Y637D01*
X299Y637D02*
X309Y637D01*
X364Y637D02*
X381Y637D01*
X520Y637D02*
X537Y637D01*
X593Y637D02*
X603Y637D01*
X647Y637D02*
X656Y637D01*
X696Y637D02*
X704Y637D01*
X742Y637D02*
X750Y637D01*
X786Y637D02*
X794Y637D01*
X109Y636D02*
X117Y636D01*
X153Y636D02*
X161Y636D01*
X198Y636D02*
X206Y636D01*
X246Y636D02*
X254Y636D01*
X298Y636D02*
X308Y636D01*
X362Y636D02*
X379Y636D01*
X522Y636D02*
X539Y636D01*
X594Y636D02*
X604Y636D01*
X648Y636D02*
X657Y636D01*
X697Y636D02*
X705Y636D01*
X743Y636D02*
X751Y636D01*
X787Y636D02*
X795Y636D01*
X109Y635D02*
X116Y635D01*
X152Y635D02*
X160Y635D01*
X197Y635D02*
X206Y635D01*
X245Y635D02*
X254Y635D01*
X297Y635D02*
X307Y635D01*
X361Y635D02*
X376Y635D01*
X525Y635D02*
X541Y635D01*
X595Y635D02*
X605Y635D01*
X649Y635D02*
X658Y635D01*
X697Y635D02*
X706Y635D01*
X743Y635D02*
X751Y635D01*
X787Y635D02*
X795Y635D01*
X108Y634D02*
X116Y634D01*
X152Y634D02*
X160Y634D01*
X197Y634D02*
X205Y634D01*
X244Y634D02*
X253Y634D01*
X296Y634D02*
X306Y634D01*
X359Y634D02*
X374Y634D01*
X527Y634D02*
X542Y634D01*
X596Y634D02*
X606Y634D01*
X650Y634D02*
X659Y634D01*
X698Y634D02*
X706Y634D01*
X744Y634D02*
X752Y634D01*
X788Y634D02*
X796Y634D01*
X108Y633D02*
X116Y633D01*
X151Y633D02*
X159Y633D01*
X196Y633D02*
X204Y633D01*
X243Y633D02*
X252Y633D01*
X295Y633D02*
X305Y633D01*
X357Y633D02*
X372Y633D01*
X529Y633D02*
X544Y633D01*
X597Y633D02*
X607Y633D01*
X650Y633D02*
X659Y633D01*
X699Y633D02*
X707Y633D01*
X744Y633D02*
X752Y633D01*
X788Y633D02*
X796Y633D01*
X107Y632D02*
X115Y632D01*
X151Y632D02*
X159Y632D01*
X196Y632D02*
X204Y632D01*
X243Y632D02*
X251Y632D01*
X294Y632D02*
X304Y632D01*
X356Y632D02*
X370Y632D01*
X531Y632D02*
X546Y632D01*
X598Y632D02*
X608Y632D01*
X651Y632D02*
X660Y632D01*
X699Y632D02*
X708Y632D01*
X745Y632D02*
X753Y632D01*
X789Y632D02*
X796Y632D01*
X107Y631D02*
X115Y631D01*
X150Y631D02*
X158Y631D01*
X195Y631D02*
X203Y631D01*
X242Y631D02*
X251Y631D01*
X293Y631D02*
X303Y631D01*
X354Y631D02*
X369Y631D01*
X533Y631D02*
X547Y631D01*
X599Y631D02*
X609Y631D01*
X652Y631D02*
X661Y631D01*
X700Y631D02*
X708Y631D01*
X745Y631D02*
X753Y631D01*
X789Y631D02*
X797Y631D01*
X107Y630D02*
X114Y630D01*
X150Y630D02*
X158Y630D01*
X194Y630D02*
X203Y630D01*
X241Y630D02*
X250Y630D01*
X292Y630D02*
X302Y630D01*
X352Y630D02*
X367Y630D01*
X535Y630D02*
X549Y630D01*
X600Y630D02*
X610Y630D01*
X653Y630D02*
X662Y630D01*
X701Y630D02*
X709Y630D01*
X746Y630D02*
X754Y630D01*
X790Y630D02*
X797Y630D01*
X106Y629D02*
X114Y629D01*
X149Y629D02*
X157Y629D01*
X194Y629D02*
X202Y629D01*
X240Y629D02*
X249Y629D01*
X291Y629D02*
X301Y629D01*
X351Y629D02*
X365Y629D01*
X536Y629D02*
X550Y629D01*
X601Y629D02*
X611Y629D01*
X654Y629D02*
X662Y629D01*
X701Y629D02*
X709Y629D01*
X746Y629D02*
X754Y629D01*
X790Y629D02*
X798Y629D01*
X106Y628D02*
X113Y628D01*
X149Y628D02*
X157Y628D01*
X193Y628D02*
X201Y628D01*
X240Y628D02*
X248Y628D01*
X290Y628D02*
X300Y628D01*
X349Y628D02*
X363Y628D01*
X538Y628D02*
X552Y628D01*
X602Y628D02*
X612Y628D01*
X654Y628D02*
X663Y628D01*
X702Y628D02*
X710Y628D01*
X747Y628D02*
X755Y628D01*
X791Y628D02*
X798Y628D01*
X105Y627D02*
X113Y627D01*
X148Y627D02*
X156Y627D01*
X193Y627D02*
X201Y627D01*
X239Y627D02*
X248Y627D01*
X289Y627D02*
X299Y627D01*
X348Y627D02*
X362Y627D01*
X540Y627D02*
X553Y627D01*
X603Y627D02*
X613Y627D01*
X655Y627D02*
X664Y627D01*
X702Y627D02*
X711Y627D01*
X747Y627D02*
X755Y627D01*
X791Y627D02*
X799Y627D01*
X105Y626D02*
X112Y626D01*
X148Y626D02*
X156Y626D01*
X192Y626D02*
X200Y626D01*
X238Y626D02*
X247Y626D01*
X288Y626D02*
X298Y626D01*
X347Y626D02*
X360Y626D01*
X541Y626D02*
X555Y626D01*
X604Y626D02*
X614Y626D01*
X656Y626D02*
X664Y626D01*
X703Y626D02*
X711Y626D01*
X748Y626D02*
X756Y626D01*
X791Y626D02*
X799Y626D01*
X105Y625D02*
X112Y625D01*
X147Y625D02*
X155Y625D01*
X192Y625D02*
X200Y625D01*
X238Y625D02*
X246Y625D01*
X287Y625D02*
X297Y625D01*
X345Y625D02*
X358Y625D01*
X543Y625D02*
X556Y625D01*
X605Y625D02*
X615Y625D01*
X656Y625D02*
X665Y625D01*
X704Y625D02*
X712Y625D01*
X748Y625D02*
X756Y625D01*
X792Y625D02*
X799Y625D01*
X104Y624D02*
X112Y624D01*
X147Y624D02*
X155Y624D01*
X191Y624D02*
X199Y624D01*
X237Y624D02*
X245Y624D01*
X286Y624D02*
X296Y624D01*
X344Y624D02*
X357Y624D01*
X545Y624D02*
X558Y624D01*
X606Y624D02*
X616Y624D01*
X657Y624D02*
X666Y624D01*
X704Y624D02*
X712Y624D01*
X749Y624D02*
X757Y624D01*
X792Y624D02*
X800Y624D01*
X104Y623D02*
X111Y623D01*
X147Y623D02*
X154Y623D01*
X190Y623D02*
X199Y623D01*
X236Y623D02*
X245Y623D01*
X285Y623D02*
X295Y623D01*
X343Y623D02*
X355Y623D01*
X546Y623D02*
X559Y623D01*
X607Y623D02*
X617Y623D01*
X658Y623D02*
X667Y623D01*
X705Y623D02*
X713Y623D01*
X749Y623D02*
X757Y623D01*
X793Y623D02*
X800Y623D01*
X103Y622D02*
X111Y622D01*
X146Y622D02*
X154Y622D01*
X190Y622D02*
X198Y622D01*
X236Y622D02*
X244Y622D01*
X285Y622D02*
X294Y622D01*
X341Y622D02*
X354Y622D01*
X548Y622D02*
X560Y622D01*
X608Y622D02*
X618Y622D01*
X659Y622D02*
X667Y622D01*
X705Y622D02*
X713Y622D01*
X750Y622D02*
X758Y622D01*
X793Y622D02*
X801Y622D01*
X103Y621D02*
X110Y621D01*
X146Y621D02*
X153Y621D01*
X189Y621D02*
X197Y621D01*
X235Y621D02*
X243Y621D01*
X284Y621D02*
X293Y621D01*
X340Y621D02*
X352Y621D01*
X549Y621D02*
X562Y621D01*
X609Y621D02*
X619Y621D01*
X659Y621D02*
X668Y621D01*
X706Y621D02*
X714Y621D01*
X750Y621D02*
X758Y621D01*
X794Y621D02*
X801Y621D01*
X103Y620D02*
X110Y620D01*
X145Y620D02*
X153Y620D01*
X189Y620D02*
X197Y620D01*
X234Y620D02*
X243Y620D01*
X283Y620D02*
X292Y620D01*
X339Y620D02*
X351Y620D01*
X551Y620D02*
X563Y620D01*
X610Y620D02*
X619Y620D01*
X660Y620D02*
X669Y620D01*
X706Y620D02*
X715Y620D01*
X751Y620D02*
X759Y620D01*
X794Y620D02*
X802Y620D01*
X1622Y620D02*
X1626Y620D01*
X102Y619D02*
X110Y619D01*
X145Y619D02*
X152Y619D01*
X188Y619D02*
X196Y619D01*
X234Y619D02*
X242Y619D01*
X282Y619D02*
X291Y619D01*
X338Y619D02*
X349Y619D01*
X552Y619D02*
X564Y619D01*
X611Y619D02*
X620Y619D01*
X661Y619D02*
X669Y619D01*
X707Y619D02*
X715Y619D01*
X751Y619D02*
X759Y619D01*
X794Y619D02*
X802Y619D01*
X1618Y619D02*
X1631Y619D01*
X102Y618D02*
X109Y618D01*
X144Y618D02*
X152Y618D01*
X188Y618D02*
X196Y618D01*
X233Y618D02*
X242Y618D01*
X281Y618D02*
X291Y618D01*
X336Y618D02*
X348Y618D01*
X554Y618D02*
X565Y618D01*
X612Y618D02*
X621Y618D01*
X661Y618D02*
X670Y618D01*
X708Y618D02*
X716Y618D01*
X752Y618D02*
X760Y618D01*
X795Y618D02*
X803Y618D01*
X1615Y618D02*
X1634Y618D01*
X101Y617D02*
X109Y617D01*
X144Y617D02*
X151Y617D01*
X187Y617D02*
X195Y617D01*
X232Y617D02*
X241Y617D01*
X281Y617D02*
X290Y617D01*
X335Y617D02*
X347Y617D01*
X555Y617D02*
X567Y617D01*
X613Y617D02*
X622Y617D01*
X662Y617D02*
X670Y617D01*
X708Y617D02*
X716Y617D01*
X752Y617D02*
X760Y617D01*
X795Y617D02*
X803Y617D01*
X1614Y617D02*
X1635Y617D01*
X101Y616D02*
X108Y616D01*
X143Y616D02*
X151Y616D01*
X187Y616D02*
X195Y616D01*
X232Y616D02*
X240Y616D01*
X280Y616D02*
X289Y616D01*
X334Y616D02*
X345Y616D01*
X556Y616D02*
X568Y616D01*
X613Y616D02*
X623Y616D01*
X663Y616D02*
X671Y616D01*
X709Y616D02*
X717Y616D01*
X753Y616D02*
X760Y616D01*
X796Y616D02*
X803Y616D01*
X1612Y616D02*
X1637Y616D01*
X101Y615D02*
X108Y615D01*
X143Y615D02*
X151Y615D01*
X186Y615D02*
X194Y615D01*
X231Y615D02*
X240Y615D01*
X279Y615D02*
X288Y615D01*
X333Y615D02*
X344Y615D01*
X558Y615D02*
X569Y615D01*
X614Y615D02*
X624Y615D01*
X663Y615D02*
X672Y615D01*
X709Y615D02*
X717Y615D01*
X753Y615D02*
X761Y615D01*
X796Y615D02*
X804Y615D01*
X1610Y615D02*
X1639Y615D01*
X100Y614D02*
X108Y614D01*
X143Y614D02*
X150Y614D01*
X186Y614D02*
X194Y614D01*
X231Y614D02*
X239Y614D01*
X278Y614D02*
X287Y614D01*
X332Y614D02*
X343Y614D01*
X559Y614D02*
X570Y614D01*
X615Y614D02*
X624Y614D01*
X664Y614D02*
X672Y614D01*
X710Y614D02*
X718Y614D01*
X754Y614D02*
X761Y614D01*
X797Y614D02*
X804Y614D01*
X1609Y614D02*
X1640Y614D01*
X100Y613D02*
X107Y613D01*
X142Y613D02*
X150Y613D01*
X185Y613D02*
X193Y613D01*
X230Y613D02*
X238Y613D01*
X277Y613D02*
X286Y613D01*
X331Y613D02*
X342Y613D01*
X560Y613D02*
X571Y613D01*
X616Y613D02*
X625Y613D01*
X665Y613D02*
X673Y613D01*
X710Y613D02*
X718Y613D01*
X754Y613D02*
X762Y613D01*
X797Y613D02*
X804Y613D01*
X1608Y613D02*
X1641Y613D01*
X99Y612D02*
X107Y612D01*
X142Y612D02*
X149Y612D01*
X185Y612D02*
X193Y612D01*
X230Y612D02*
X238Y612D01*
X277Y612D02*
X286Y612D01*
X329Y612D02*
X340Y612D01*
X561Y612D02*
X572Y612D01*
X617Y612D02*
X626Y612D01*
X665Y612D02*
X674Y612D01*
X711Y612D02*
X719Y612D01*
X755Y612D02*
X762Y612D01*
X797Y612D02*
X805Y612D01*
X1607Y612D02*
X1642Y612D01*
X99Y611D02*
X106Y611D01*
X141Y611D02*
X149Y611D01*
X184Y611D02*
X192Y611D01*
X229Y611D02*
X237Y611D01*
X276Y611D02*
X285Y611D01*
X328Y611D02*
X339Y611D01*
X563Y611D02*
X574Y611D01*
X618Y611D02*
X627Y611D01*
X666Y611D02*
X674Y611D01*
X711Y611D02*
X719Y611D01*
X755Y611D02*
X763Y611D01*
X798Y611D02*
X805Y611D01*
X1606Y611D02*
X1643Y611D01*
X99Y610D02*
X106Y610D01*
X141Y610D02*
X148Y610D01*
X184Y610D02*
X192Y610D01*
X228Y610D02*
X236Y610D01*
X275Y610D02*
X284Y610D01*
X327Y610D02*
X338Y610D01*
X564Y610D02*
X575Y610D01*
X618Y610D02*
X627Y610D01*
X667Y610D02*
X675Y610D01*
X712Y610D02*
X720Y610D01*
X756Y610D02*
X763Y610D01*
X798Y610D02*
X806Y610D01*
X1606Y610D02*
X1643Y610D01*
X98Y609D02*
X106Y609D01*
X140Y609D02*
X148Y609D01*
X183Y609D02*
X191Y609D01*
X228Y609D02*
X236Y609D01*
X274Y609D02*
X283Y609D01*
X326Y609D02*
X337Y609D01*
X565Y609D02*
X576Y609D01*
X619Y609D02*
X628Y609D01*
X667Y609D02*
X675Y609D01*
X712Y609D02*
X720Y609D01*
X756Y609D02*
X764Y609D01*
X799Y609D02*
X806Y609D01*
X1605Y609D02*
X1644Y609D01*
X98Y608D02*
X105Y608D01*
X140Y608D02*
X148Y608D01*
X183Y608D02*
X191Y608D01*
X227Y608D02*
X235Y608D01*
X274Y608D02*
X282Y608D01*
X325Y608D02*
X336Y608D01*
X566Y608D02*
X577Y608D01*
X620Y608D02*
X629Y608D01*
X668Y608D02*
X676Y608D01*
X713Y608D02*
X721Y608D01*
X756Y608D02*
X764Y608D01*
X799Y608D02*
X806Y608D01*
X1604Y608D02*
X1645Y608D01*
X98Y607D02*
X105Y607D01*
X140Y607D02*
X147Y607D01*
X183Y607D02*
X190Y607D01*
X227Y607D02*
X235Y607D01*
X273Y607D02*
X282Y607D01*
X324Y607D02*
X335Y607D01*
X567Y607D02*
X578Y607D01*
X621Y607D02*
X630Y607D01*
X669Y607D02*
X677Y607D01*
X713Y607D02*
X721Y607D01*
X757Y607D02*
X764Y607D01*
X799Y607D02*
X807Y607D01*
X1604Y607D02*
X1621Y607D01*
X1628Y607D02*
X1645Y607D01*
X97Y606D02*
X105Y606D01*
X139Y606D02*
X147Y606D01*
X182Y606D02*
X190Y606D01*
X226Y606D02*
X234Y606D01*
X272Y606D02*
X281Y606D01*
X323Y606D02*
X334Y606D01*
X568Y606D02*
X579Y606D01*
X622Y606D02*
X630Y606D01*
X669Y606D02*
X677Y606D01*
X714Y606D02*
X722Y606D01*
X757Y606D02*
X765Y606D01*
X800Y606D02*
X807Y606D01*
X1603Y606D02*
X1618Y606D01*
X1631Y606D02*
X1646Y606D01*
X97Y605D02*
X104Y605D01*
X139Y605D02*
X146Y605D01*
X182Y605D02*
X189Y605D01*
X225Y605D02*
X234Y605D01*
X272Y605D02*
X280Y605D01*
X322Y605D02*
X332Y605D01*
X569Y605D02*
X580Y605D01*
X622Y605D02*
X631Y605D01*
X670Y605D02*
X678Y605D01*
X714Y605D02*
X722Y605D01*
X758Y605D02*
X765Y605D01*
X800Y605D02*
X807Y605D01*
X1603Y605D02*
X1617Y605D01*
X1632Y605D02*
X1646Y605D01*
X97Y604D02*
X104Y604D01*
X139Y604D02*
X146Y604D01*
X181Y604D02*
X189Y604D01*
X225Y604D02*
X233Y604D01*
X271Y604D02*
X280Y604D01*
X321Y604D02*
X331Y604D01*
X571Y604D02*
X581Y604D01*
X623Y604D02*
X632Y604D01*
X670Y604D02*
X678Y604D01*
X715Y604D02*
X723Y604D01*
X758Y604D02*
X766Y604D01*
X800Y604D02*
X808Y604D01*
X1603Y604D02*
X1616Y604D01*
X1633Y604D02*
X1646Y604D01*
X96Y603D02*
X104Y603D01*
X138Y603D02*
X146Y603D01*
X181Y603D02*
X188Y603D01*
X224Y603D02*
X232Y603D01*
X270Y603D02*
X279Y603D01*
X320Y603D02*
X330Y603D01*
X572Y603D02*
X582Y603D01*
X624Y603D02*
X633Y603D01*
X671Y603D02*
X679Y603D01*
X715Y603D02*
X723Y603D01*
X759Y603D02*
X766Y603D01*
X801Y603D02*
X808Y603D01*
X1602Y603D02*
X1615Y603D01*
X1634Y603D02*
X1647Y603D01*
X96Y602D02*
X103Y602D01*
X138Y602D02*
X145Y602D01*
X180Y602D02*
X188Y602D01*
X224Y602D02*
X232Y602D01*
X270Y602D02*
X278Y602D01*
X319Y602D02*
X329Y602D01*
X573Y602D02*
X583Y602D01*
X625Y602D02*
X633Y602D01*
X671Y602D02*
X679Y602D01*
X716Y602D02*
X724Y602D01*
X759Y602D02*
X767Y602D01*
X801Y602D02*
X809Y602D01*
X1602Y602D02*
X1614Y602D01*
X1635Y602D02*
X1647Y602D01*
X96Y601D02*
X103Y601D01*
X137Y601D02*
X145Y601D01*
X180Y601D02*
X187Y601D01*
X223Y601D02*
X231Y601D01*
X269Y601D02*
X277Y601D01*
X319Y601D02*
X328Y601D01*
X574Y601D02*
X584Y601D01*
X625Y601D02*
X634Y601D01*
X672Y601D02*
X680Y601D01*
X716Y601D02*
X724Y601D01*
X759Y601D02*
X767Y601D01*
X802Y601D02*
X809Y601D01*
X1602Y601D02*
X1614Y601D01*
X1635Y601D02*
X1647Y601D01*
X95Y600D02*
X103Y600D01*
X137Y600D02*
X144Y600D01*
X179Y600D02*
X187Y600D01*
X223Y600D02*
X231Y600D01*
X268Y600D02*
X277Y600D01*
X318Y600D02*
X327Y600D01*
X575Y600D02*
X585Y600D01*
X626Y600D02*
X635Y600D01*
X673Y600D02*
X681Y600D01*
X717Y600D02*
X725Y600D01*
X760Y600D02*
X767Y600D01*
X802Y600D02*
X809Y600D01*
X1601Y600D02*
X1613Y600D01*
X1636Y600D02*
X1648Y600D01*
X95Y599D02*
X102Y599D01*
X137Y599D02*
X144Y599D01*
X179Y599D02*
X187Y599D01*
X222Y599D02*
X230Y599D01*
X268Y599D02*
X276Y599D01*
X317Y599D02*
X326Y599D01*
X576Y599D02*
X585Y599D01*
X627Y599D02*
X635Y599D01*
X673Y599D02*
X681Y599D01*
X717Y599D02*
X725Y599D01*
X760Y599D02*
X768Y599D01*
X802Y599D02*
X810Y599D01*
X1601Y599D02*
X1613Y599D01*
X1636Y599D02*
X1648Y599D01*
X95Y598D02*
X102Y598D01*
X136Y598D02*
X144Y598D01*
X178Y598D02*
X186Y598D01*
X222Y598D02*
X230Y598D01*
X267Y598D02*
X275Y598D01*
X316Y598D02*
X325Y598D01*
X577Y598D02*
X586Y598D01*
X627Y598D02*
X636Y598D01*
X674Y598D02*
X682Y598D01*
X718Y598D02*
X725Y598D01*
X761Y598D02*
X768Y598D01*
X803Y598D02*
X810Y598D01*
X1601Y598D02*
X1613Y598D01*
X1636Y598D02*
X1648Y598D01*
X94Y597D02*
X102Y597D01*
X136Y597D02*
X143Y597D01*
X178Y597D02*
X186Y597D01*
X221Y597D02*
X229Y597D01*
X266Y597D02*
X275Y597D01*
X315Y597D02*
X325Y597D01*
X578Y597D02*
X587Y597D01*
X628Y597D02*
X637Y597D01*
X674Y597D02*
X682Y597D01*
X718Y597D02*
X726Y597D01*
X761Y597D02*
X768Y597D01*
X803Y597D02*
X810Y597D01*
X1601Y597D02*
X1613Y597D01*
X1636Y597D02*
X1648Y597D01*
X94Y596D02*
X101Y596D01*
X135Y596D02*
X143Y596D01*
X178Y596D02*
X185Y596D01*
X221Y596D02*
X229Y596D01*
X266Y596D02*
X274Y596D01*
X314Y596D02*
X324Y596D01*
X579Y596D02*
X588Y596D01*
X629Y596D02*
X637Y596D01*
X675Y596D02*
X683Y596D01*
X719Y596D02*
X726Y596D01*
X761Y596D02*
X769Y596D01*
X803Y596D02*
X811Y596D01*
X1601Y596D02*
X1613Y596D01*
X1636Y596D02*
X1648Y596D01*
X94Y595D02*
X101Y595D01*
X135Y595D02*
X142Y595D01*
X177Y595D02*
X185Y595D01*
X220Y595D02*
X228Y595D01*
X265Y595D02*
X273Y595D01*
X313Y595D02*
X323Y595D01*
X579Y595D02*
X589Y595D01*
X629Y595D02*
X638Y595D01*
X675Y595D02*
X683Y595D01*
X719Y595D02*
X727Y595D01*
X762Y595D02*
X769Y595D01*
X804Y595D02*
X811Y595D01*
X1601Y595D02*
X1613Y595D01*
X1636Y595D02*
X1648Y595D01*
X93Y594D02*
X101Y594D01*
X135Y594D02*
X142Y594D01*
X177Y594D02*
X184Y594D01*
X220Y594D02*
X228Y594D01*
X265Y594D02*
X273Y594D01*
X313Y594D02*
X322Y594D01*
X580Y594D02*
X590Y594D01*
X630Y594D02*
X639Y594D01*
X676Y594D02*
X684Y594D01*
X720Y594D02*
X727Y594D01*
X762Y594D02*
X770Y594D01*
X804Y594D02*
X811Y594D01*
X1601Y594D02*
X1613Y594D01*
X1636Y594D02*
X1648Y594D01*
X93Y593D02*
X100Y593D01*
X134Y593D02*
X142Y593D01*
X176Y593D02*
X184Y593D01*
X219Y593D02*
X227Y593D01*
X264Y593D02*
X272Y593D01*
X312Y593D02*
X321Y593D01*
X581Y593D02*
X591Y593D01*
X631Y593D02*
X639Y593D01*
X676Y593D02*
X684Y593D01*
X720Y593D02*
X728Y593D01*
X763Y593D02*
X770Y593D01*
X804Y593D02*
X812Y593D01*
X1601Y593D02*
X1613Y593D01*
X1636Y593D02*
X1648Y593D01*
X93Y592D02*
X100Y592D01*
X134Y592D02*
X141Y592D01*
X176Y592D02*
X183Y592D01*
X219Y592D02*
X227Y592D01*
X263Y592D02*
X272Y592D01*
X311Y592D02*
X320Y592D01*
X582Y592D02*
X592Y592D01*
X631Y592D02*
X640Y592D01*
X677Y592D02*
X685Y592D01*
X720Y592D02*
X728Y592D01*
X763Y592D02*
X770Y592D01*
X805Y592D02*
X812Y592D01*
X1602Y592D02*
X1614Y592D01*
X1635Y592D02*
X1647Y592D01*
X92Y591D02*
X100Y591D01*
X134Y591D02*
X141Y591D01*
X176Y591D02*
X183Y591D01*
X218Y591D02*
X226Y591D01*
X263Y591D02*
X271Y591D01*
X310Y591D02*
X319Y591D01*
X583Y591D02*
X592Y591D01*
X632Y591D02*
X640Y591D01*
X677Y591D02*
X685Y591D01*
X721Y591D02*
X728Y591D01*
X763Y591D02*
X771Y591D01*
X805Y591D02*
X812Y591D01*
X1602Y591D02*
X1614Y591D01*
X1635Y591D02*
X1647Y591D01*
X92Y590D02*
X99Y590D01*
X133Y590D02*
X141Y590D01*
X175Y590D02*
X183Y590D01*
X218Y590D02*
X226Y590D01*
X262Y590D02*
X270Y590D01*
X309Y590D02*
X318Y590D01*
X584Y590D02*
X593Y590D01*
X633Y590D02*
X641Y590D01*
X678Y590D02*
X686Y590D01*
X721Y590D02*
X729Y590D01*
X764Y590D02*
X771Y590D01*
X805Y590D02*
X813Y590D01*
X1602Y590D02*
X1615Y590D01*
X1634Y590D02*
X1647Y590D01*
X92Y589D02*
X99Y589D01*
X133Y589D02*
X140Y589D01*
X175Y589D02*
X182Y589D01*
X218Y589D02*
X225Y589D01*
X262Y589D02*
X270Y589D01*
X309Y589D02*
X318Y589D01*
X585Y589D02*
X594Y589D01*
X633Y589D02*
X642Y589D01*
X678Y589D02*
X686Y589D01*
X722Y589D02*
X729Y589D01*
X764Y589D02*
X771Y589D01*
X806Y589D02*
X813Y589D01*
X1602Y589D02*
X1616Y589D01*
X1633Y589D02*
X1647Y589D01*
X92Y588D02*
X99Y588D01*
X133Y588D02*
X140Y588D01*
X174Y588D02*
X182Y588D01*
X217Y588D02*
X225Y588D01*
X261Y588D02*
X269Y588D01*
X308Y588D02*
X317Y588D01*
X586Y588D02*
X595Y588D01*
X634Y588D02*
X642Y588D01*
X679Y588D02*
X687Y588D01*
X722Y588D02*
X730Y588D01*
X764Y588D02*
X772Y588D01*
X806Y588D02*
X813Y588D01*
X1603Y588D02*
X1616Y588D01*
X1633Y588D02*
X1646Y588D01*
X91Y587D02*
X98Y587D01*
X132Y587D02*
X140Y587D01*
X174Y587D02*
X182Y587D01*
X217Y587D02*
X224Y587D01*
X261Y587D02*
X269Y587D01*
X307Y587D02*
X316Y587D01*
X586Y587D02*
X596Y587D01*
X635Y587D02*
X643Y587D01*
X679Y587D02*
X687Y587D01*
X723Y587D02*
X730Y587D01*
X765Y587D02*
X772Y587D01*
X806Y587D02*
X814Y587D01*
X1603Y587D02*
X1618Y587D01*
X1631Y587D02*
X1646Y587D01*
X91Y586D02*
X98Y586D01*
X132Y586D02*
X139Y586D01*
X174Y586D02*
X181Y586D01*
X216Y586D02*
X224Y586D01*
X260Y586D02*
X268Y586D01*
X306Y586D02*
X315Y586D01*
X587Y586D02*
X596Y586D01*
X635Y586D02*
X643Y586D01*
X680Y586D02*
X688Y586D01*
X723Y586D02*
X731Y586D01*
X765Y586D02*
X773Y586D01*
X807Y586D02*
X814Y586D01*
X1604Y586D02*
X1619Y586D01*
X1630Y586D02*
X1645Y586D01*
X91Y585D02*
X98Y585D01*
X132Y585D02*
X139Y585D01*
X173Y585D02*
X181Y585D01*
X216Y585D02*
X223Y585D01*
X259Y585D02*
X267Y585D01*
X306Y585D02*
X314Y585D01*
X588Y585D02*
X597Y585D01*
X636Y585D02*
X644Y585D01*
X680Y585D02*
X688Y585D01*
X724Y585D02*
X731Y585D01*
X766Y585D02*
X773Y585D01*
X807Y585D02*
X814Y585D01*
X1604Y585D02*
X1645Y585D01*
X90Y584D02*
X98Y584D01*
X131Y584D02*
X139Y584D01*
X173Y584D02*
X180Y584D01*
X215Y584D02*
X223Y584D01*
X259Y584D02*
X267Y584D01*
X305Y584D02*
X314Y584D01*
X589Y584D02*
X598Y584D01*
X636Y584D02*
X644Y584D01*
X681Y584D02*
X689Y584D01*
X724Y584D02*
X731Y584D01*
X766Y584D02*
X773Y584D01*
X807Y584D02*
X815Y584D01*
X1605Y584D02*
X1644Y584D01*
X90Y583D02*
X97Y583D01*
X131Y583D02*
X138Y583D01*
X173Y583D02*
X180Y583D01*
X215Y583D02*
X222Y583D01*
X258Y583D02*
X266Y583D01*
X304Y583D02*
X313Y583D01*
X590Y583D02*
X598Y583D01*
X637Y583D02*
X645Y583D01*
X681Y583D02*
X689Y583D01*
X724Y583D02*
X732Y583D01*
X766Y583D02*
X774Y583D01*
X808Y583D02*
X815Y583D01*
X1605Y583D02*
X1644Y583D01*
X90Y582D02*
X97Y582D01*
X131Y582D02*
X138Y582D01*
X172Y582D02*
X180Y582D01*
X214Y582D02*
X222Y582D01*
X258Y582D02*
X266Y582D01*
X304Y582D02*
X312Y582D01*
X590Y582D02*
X599Y582D01*
X638Y582D02*
X646Y582D01*
X682Y582D02*
X690Y582D01*
X725Y582D02*
X732Y582D01*
X767Y582D02*
X774Y582D01*
X808Y582D02*
X815Y582D01*
X1606Y582D02*
X1643Y582D01*
X90Y581D02*
X97Y581D01*
X130Y581D02*
X138Y581D01*
X172Y581D02*
X179Y581D01*
X214Y581D02*
X222Y581D01*
X257Y581D02*
X265Y581D01*
X303Y581D02*
X311Y581D01*
X591Y581D02*
X600Y581D01*
X638Y581D02*
X646Y581D01*
X682Y581D02*
X690Y581D01*
X725Y581D02*
X732Y581D01*
X767Y581D02*
X774Y581D01*
X808Y581D02*
X815Y581D01*
X1607Y581D02*
X1642Y581D01*
X89Y580D02*
X96Y580D01*
X130Y580D02*
X137Y580D01*
X172Y580D02*
X179Y580D01*
X214Y580D02*
X221Y580D01*
X257Y580D02*
X265Y580D01*
X302Y580D02*
X311Y580D01*
X592Y580D02*
X601Y580D01*
X639Y580D02*
X647Y580D01*
X683Y580D02*
X690Y580D01*
X725Y580D02*
X733Y580D01*
X767Y580D02*
X775Y580D01*
X808Y580D02*
X816Y580D01*
X1608Y580D02*
X1641Y580D01*
X89Y579D02*
X96Y579D01*
X130Y579D02*
X137Y579D01*
X171Y579D02*
X178Y579D01*
X213Y579D02*
X221Y579D01*
X256Y579D02*
X264Y579D01*
X302Y579D02*
X310Y579D01*
X593Y579D02*
X601Y579D01*
X639Y579D02*
X647Y579D01*
X683Y579D02*
X691Y579D01*
X726Y579D02*
X733Y579D01*
X768Y579D02*
X775Y579D01*
X809Y579D02*
X816Y579D01*
X1608Y579D02*
X1641Y579D01*
X89Y578D02*
X96Y578D01*
X130Y578D02*
X137Y578D01*
X171Y578D02*
X178Y578D01*
X213Y578D02*
X220Y578D01*
X256Y578D02*
X264Y578D01*
X301Y578D02*
X309Y578D01*
X593Y578D02*
X602Y578D01*
X640Y578D02*
X648Y578D01*
X684Y578D02*
X691Y578D01*
X726Y578D02*
X734Y578D01*
X768Y578D02*
X775Y578D01*
X809Y578D02*
X816Y578D01*
X1610Y578D02*
X1639Y578D01*
X88Y577D02*
X96Y577D01*
X129Y577D02*
X136Y577D01*
X171Y577D02*
X178Y577D01*
X212Y577D02*
X220Y577D01*
X255Y577D02*
X263Y577D01*
X300Y577D02*
X309Y577D01*
X594Y577D02*
X603Y577D01*
X640Y577D02*
X648Y577D01*
X684Y577D02*
X692Y577D01*
X727Y577D02*
X734Y577D01*
X768Y577D02*
X775Y577D01*
X809Y577D02*
X817Y577D01*
X1611Y577D02*
X1638Y577D01*
X88Y576D02*
X95Y576D01*
X129Y576D02*
X136Y576D01*
X170Y576D02*
X178Y576D01*
X212Y576D02*
X219Y576D01*
X255Y576D02*
X263Y576D01*
X300Y576D02*
X308Y576D01*
X595Y576D02*
X603Y576D01*
X641Y576D02*
X649Y576D01*
X685Y576D02*
X692Y576D01*
X727Y576D02*
X734Y576D01*
X769Y576D02*
X776Y576D01*
X810Y576D02*
X817Y576D01*
X1613Y576D02*
X1636Y576D01*
X88Y575D02*
X95Y575D01*
X129Y575D02*
X136Y575D01*
X170Y575D02*
X177Y575D01*
X212Y575D02*
X219Y575D01*
X254Y575D02*
X262Y575D01*
X299Y575D02*
X307Y575D01*
X596Y575D02*
X604Y575D01*
X641Y575D02*
X649Y575D01*
X685Y575D02*
X693Y575D01*
X727Y575D02*
X735Y575D01*
X769Y575D02*
X776Y575D01*
X810Y575D02*
X817Y575D01*
X1614Y575D02*
X1635Y575D01*
X88Y574D02*
X95Y574D01*
X128Y574D02*
X136Y574D01*
X170Y574D02*
X177Y574D01*
X211Y574D02*
X219Y574D01*
X254Y574D02*
X262Y574D01*
X298Y574D02*
X307Y574D01*
X596Y574D02*
X605Y574D01*
X642Y574D02*
X650Y574D01*
X685Y574D02*
X693Y574D01*
X728Y574D02*
X735Y574D01*
X769Y574D02*
X776Y574D01*
X810Y574D02*
X817Y574D01*
X1617Y574D02*
X1632Y574D01*
X87Y573D02*
X95Y573D01*
X128Y573D02*
X135Y573D01*
X169Y573D02*
X177Y573D01*
X211Y573D02*
X218Y573D01*
X253Y573D02*
X261Y573D01*
X298Y573D02*
X306Y573D01*
X597Y573D02*
X605Y573D01*
X642Y573D02*
X650Y573D01*
X686Y573D02*
X693Y573D01*
X728Y573D02*
X735Y573D01*
X769Y573D02*
X777Y573D01*
X811Y573D02*
X818Y573D01*
X1620Y573D02*
X1629Y573D01*
X87Y572D02*
X94Y572D01*
X128Y572D02*
X135Y572D01*
X169Y572D02*
X176Y572D01*
X210Y572D02*
X218Y572D01*
X253Y572D02*
X261Y572D01*
X297Y572D02*
X305Y572D01*
X598Y572D02*
X606Y572D01*
X643Y572D02*
X651Y572D01*
X686Y572D02*
X694Y572D01*
X728Y572D02*
X736Y572D01*
X770Y572D02*
X777Y572D01*
X811Y572D02*
X818Y572D01*
X87Y571D02*
X94Y571D01*
X128Y571D02*
X135Y571D01*
X169Y571D02*
X176Y571D01*
X210Y571D02*
X218Y571D01*
X253Y571D02*
X260Y571D01*
X297Y571D02*
X305Y571D01*
X598Y571D02*
X607Y571D01*
X643Y571D02*
X651Y571D01*
X687Y571D02*
X694Y571D01*
X729Y571D02*
X736Y571D01*
X770Y571D02*
X777Y571D01*
X811Y571D02*
X818Y571D01*
X87Y570D02*
X94Y570D01*
X127Y570D02*
X135Y570D01*
X168Y570D02*
X176Y570D01*
X210Y570D02*
X217Y570D01*
X252Y570D02*
X260Y570D01*
X296Y570D02*
X304Y570D01*
X599Y570D02*
X607Y570D01*
X644Y570D02*
X652Y570D01*
X687Y570D02*
X695Y570D01*
X729Y570D02*
X736Y570D01*
X770Y570D02*
X778Y570D01*
X811Y570D02*
X818Y570D01*
X87Y569D02*
X94Y569D01*
X127Y569D02*
X134Y569D01*
X168Y569D02*
X175Y569D01*
X209Y569D02*
X217Y569D01*
X252Y569D02*
X259Y569D01*
X296Y569D02*
X304Y569D01*
X600Y569D02*
X608Y569D01*
X645Y569D02*
X652Y569D01*
X688Y569D02*
X695Y569D01*
X729Y569D02*
X737Y569D01*
X771Y569D02*
X778Y569D01*
X812Y569D02*
X819Y569D01*
X86Y568D02*
X93Y568D01*
X127Y568D02*
X134Y568D01*
X168Y568D02*
X175Y568D01*
X209Y568D02*
X216Y568D01*
X251Y568D02*
X259Y568D01*
X295Y568D02*
X303Y568D01*
X600Y568D02*
X608Y568D01*
X645Y568D02*
X653Y568D01*
X688Y568D02*
X695Y568D01*
X730Y568D02*
X737Y568D01*
X771Y568D02*
X778Y568D01*
X812Y568D02*
X819Y568D01*
X86Y567D02*
X93Y567D01*
X127Y567D02*
X134Y567D01*
X167Y567D02*
X175Y567D01*
X209Y567D02*
X216Y567D01*
X251Y567D02*
X258Y567D01*
X294Y567D02*
X302Y567D01*
X601Y567D02*
X609Y567D01*
X646Y567D02*
X653Y567D01*
X688Y567D02*
X696Y567D01*
X730Y567D02*
X737Y567D01*
X771Y567D02*
X779Y567D01*
X812Y567D02*
X819Y567D01*
X86Y566D02*
X93Y566D01*
X126Y566D02*
X133Y566D01*
X167Y566D02*
X174Y566D01*
X208Y566D02*
X216Y566D01*
X250Y566D02*
X258Y566D01*
X294Y566D02*
X302Y566D01*
X601Y566D02*
X609Y566D01*
X646Y566D02*
X654Y566D01*
X689Y566D02*
X696Y566D01*
X730Y566D02*
X738Y566D01*
X772Y566D02*
X779Y566D01*
X812Y566D02*
X819Y566D01*
X86Y565D02*
X93Y565D01*
X126Y565D02*
X133Y565D01*
X167Y565D02*
X174Y565D01*
X208Y565D02*
X215Y565D01*
X250Y565D02*
X258Y565D01*
X293Y565D02*
X301Y565D01*
X602Y565D02*
X610Y565D01*
X646Y565D02*
X654Y565D01*
X689Y565D02*
X696Y565D01*
X731Y565D02*
X738Y565D01*
X772Y565D02*
X779Y565D01*
X813Y565D02*
X820Y565D01*
X85Y564D02*
X92Y564D01*
X126Y564D02*
X133Y564D01*
X167Y564D02*
X174Y564D01*
X208Y564D02*
X215Y564D01*
X250Y564D02*
X257Y564D01*
X293Y564D02*
X301Y564D01*
X603Y564D02*
X611Y564D01*
X647Y564D02*
X654Y564D01*
X689Y564D02*
X697Y564D01*
X731Y564D02*
X738Y564D01*
X772Y564D02*
X779Y564D01*
X813Y564D02*
X820Y564D01*
X85Y563D02*
X92Y563D01*
X125Y563D02*
X133Y563D01*
X166Y563D02*
X173Y563D01*
X207Y563D02*
X215Y563D01*
X249Y563D02*
X257Y563D01*
X292Y563D02*
X300Y563D01*
X603Y563D02*
X611Y563D01*
X647Y563D02*
X655Y563D01*
X690Y563D02*
X697Y563D01*
X731Y563D02*
X739Y563D01*
X772Y563D02*
X780Y563D01*
X813Y563D02*
X820Y563D01*
X85Y562D02*
X92Y562D01*
X125Y562D02*
X132Y562D01*
X166Y562D02*
X173Y562D01*
X207Y562D02*
X214Y562D01*
X249Y562D02*
X256Y562D01*
X292Y562D02*
X300Y562D01*
X604Y562D02*
X612Y562D01*
X648Y562D02*
X655Y562D01*
X690Y562D02*
X698Y562D01*
X732Y562D02*
X739Y562D01*
X773Y562D02*
X780Y562D01*
X813Y562D02*
X820Y562D01*
X85Y561D02*
X92Y561D01*
X125Y561D02*
X132Y561D01*
X166Y561D02*
X173Y561D01*
X207Y561D02*
X214Y561D01*
X248Y561D02*
X256Y561D01*
X291Y561D02*
X299Y561D01*
X604Y561D02*
X612Y561D01*
X648Y561D02*
X656Y561D01*
X691Y561D02*
X698Y561D01*
X732Y561D02*
X739Y561D01*
X773Y561D02*
X780Y561D01*
X814Y561D02*
X821Y561D01*
X85Y560D02*
X92Y560D01*
X125Y560D02*
X132Y560D01*
X165Y560D02*
X173Y560D01*
X206Y560D02*
X214Y560D01*
X248Y560D02*
X255Y560D01*
X291Y560D02*
X299Y560D01*
X605Y560D02*
X613Y560D01*
X649Y560D02*
X656Y560D01*
X691Y560D02*
X698Y560D01*
X732Y560D02*
X740Y560D01*
X773Y560D02*
X780Y560D01*
X814Y560D02*
X821Y560D01*
X84Y559D02*
X91Y559D01*
X125Y559D02*
X132Y559D01*
X165Y559D02*
X172Y559D01*
X206Y559D02*
X213Y559D01*
X248Y559D02*
X255Y559D01*
X290Y559D02*
X298Y559D01*
X605Y559D02*
X613Y559D01*
X649Y559D02*
X657Y559D01*
X691Y559D02*
X699Y559D01*
X733Y559D02*
X740Y559D01*
X774Y559D02*
X781Y559D01*
X814Y559D02*
X821Y559D01*
X84Y558D02*
X91Y558D01*
X124Y558D02*
X131Y558D01*
X165Y558D02*
X172Y558D01*
X206Y558D02*
X213Y558D01*
X247Y558D02*
X255Y558D01*
X290Y558D02*
X298Y558D01*
X606Y558D02*
X614Y558D01*
X650Y558D02*
X657Y558D01*
X692Y558D02*
X699Y558D01*
X733Y558D02*
X740Y558D01*
X774Y558D02*
X781Y558D01*
X814Y558D02*
X821Y558D01*
X84Y557D02*
X91Y557D01*
X124Y557D02*
X131Y557D01*
X165Y557D02*
X172Y557D01*
X205Y557D02*
X213Y557D01*
X247Y557D02*
X254Y557D01*
X289Y557D02*
X297Y557D01*
X606Y557D02*
X614Y557D01*
X650Y557D02*
X657Y557D01*
X692Y557D02*
X699Y557D01*
X733Y557D02*
X741Y557D01*
X774Y557D02*
X781Y557D01*
X815Y557D02*
X822Y557D01*
X84Y556D02*
X91Y556D01*
X124Y556D02*
X131Y556D01*
X164Y556D02*
X171Y556D01*
X205Y556D02*
X212Y556D01*
X246Y556D02*
X254Y556D01*
X289Y556D02*
X297Y556D01*
X607Y556D02*
X615Y556D01*
X650Y556D02*
X658Y556D01*
X692Y556D02*
X700Y556D01*
X734Y556D02*
X741Y556D01*
X774Y556D02*
X781Y556D01*
X815Y556D02*
X822Y556D01*
X83Y555D02*
X90Y555D01*
X124Y555D02*
X131Y555D01*
X164Y555D02*
X171Y555D01*
X205Y555D02*
X212Y555D01*
X246Y555D02*
X254Y555D01*
X288Y555D02*
X296Y555D01*
X608Y555D02*
X615Y555D01*
X651Y555D02*
X658Y555D01*
X693Y555D02*
X700Y555D01*
X734Y555D02*
X741Y555D01*
X775Y555D02*
X782Y555D01*
X815Y555D02*
X822Y555D01*
X83Y554D02*
X90Y554D01*
X123Y554D02*
X131Y554D01*
X164Y554D02*
X171Y554D01*
X205Y554D02*
X212Y554D01*
X246Y554D02*
X253Y554D01*
X288Y554D02*
X296Y554D01*
X608Y554D02*
X616Y554D01*
X651Y554D02*
X659Y554D01*
X693Y554D02*
X700Y554D01*
X734Y554D02*
X741Y554D01*
X775Y554D02*
X782Y554D01*
X815Y554D02*
X822Y554D01*
X83Y553D02*
X90Y553D01*
X123Y553D02*
X130Y553D01*
X164Y553D02*
X171Y553D01*
X204Y553D02*
X211Y553D01*
X245Y553D02*
X253Y553D01*
X288Y553D02*
X295Y553D01*
X609Y553D02*
X616Y553D01*
X652Y553D02*
X659Y553D01*
X693Y553D02*
X701Y553D01*
X734Y553D02*
X742Y553D01*
X775Y553D02*
X782Y553D01*
X815Y553D02*
X823Y553D01*
X83Y552D02*
X90Y552D01*
X123Y552D02*
X130Y552D01*
X163Y552D02*
X170Y552D01*
X204Y552D02*
X211Y552D01*
X245Y552D02*
X252Y552D01*
X287Y552D02*
X295Y552D01*
X609Y552D02*
X617Y552D01*
X652Y552D02*
X659Y552D01*
X694Y552D02*
X701Y552D01*
X735Y552D02*
X742Y552D01*
X775Y552D02*
X782Y552D01*
X816Y552D02*
X823Y552D01*
X83Y551D02*
X90Y551D01*
X123Y551D02*
X130Y551D01*
X163Y551D02*
X170Y551D01*
X204Y551D02*
X211Y551D01*
X245Y551D02*
X252Y551D01*
X287Y551D02*
X294Y551D01*
X610Y551D02*
X617Y551D01*
X652Y551D02*
X660Y551D01*
X694Y551D02*
X701Y551D01*
X735Y551D02*
X742Y551D01*
X776Y551D02*
X783Y551D01*
X816Y551D02*
X823Y551D01*
X83Y550D02*
X90Y550D01*
X123Y550D02*
X130Y550D01*
X163Y550D02*
X170Y550D01*
X203Y550D02*
X211Y550D01*
X244Y550D02*
X252Y550D01*
X286Y550D02*
X294Y550D01*
X610Y550D02*
X618Y550D01*
X653Y550D02*
X660Y550D01*
X694Y550D02*
X702Y550D01*
X735Y550D02*
X742Y550D01*
X776Y550D02*
X783Y550D01*
X816Y550D02*
X823Y550D01*
X82Y549D02*
X89Y549D01*
X122Y549D02*
X129Y549D01*
X163Y549D02*
X170Y549D01*
X203Y549D02*
X210Y549D01*
X244Y549D02*
X251Y549D01*
X286Y549D02*
X293Y549D01*
X610Y549D02*
X618Y549D01*
X653Y549D02*
X660Y549D01*
X695Y549D02*
X702Y549D01*
X735Y549D02*
X743Y549D01*
X776Y549D02*
X783Y549D01*
X816Y549D02*
X823Y549D01*
X82Y548D02*
X89Y548D01*
X122Y548D02*
X129Y548D01*
X162Y548D02*
X169Y548D01*
X203Y548D02*
X210Y548D01*
X244Y548D02*
X251Y548D01*
X285Y548D02*
X293Y548D01*
X611Y548D02*
X619Y548D01*
X653Y548D02*
X661Y548D01*
X695Y548D02*
X702Y548D01*
X736Y548D02*
X743Y548D01*
X776Y548D02*
X783Y548D01*
X816Y548D02*
X824Y548D01*
X82Y547D02*
X89Y547D01*
X122Y547D02*
X129Y547D01*
X162Y547D02*
X169Y547D01*
X203Y547D02*
X210Y547D01*
X243Y547D02*
X251Y547D01*
X285Y547D02*
X293Y547D01*
X611Y547D02*
X619Y547D01*
X654Y547D02*
X661Y547D01*
X695Y547D02*
X702Y547D01*
X736Y547D02*
X743Y547D01*
X777Y547D02*
X784Y547D01*
X817Y547D02*
X824Y547D01*
X82Y546D02*
X89Y546D01*
X122Y546D02*
X129Y546D01*
X162Y546D02*
X169Y546D01*
X202Y546D02*
X210Y546D01*
X243Y546D02*
X250Y546D01*
X285Y546D02*
X292Y546D01*
X612Y546D02*
X619Y546D01*
X654Y546D02*
X661Y546D01*
X696Y546D02*
X703Y546D01*
X736Y546D02*
X743Y546D01*
X777Y546D02*
X784Y546D01*
X817Y546D02*
X824Y546D01*
X82Y545D02*
X89Y545D01*
X122Y545D02*
X129Y545D01*
X162Y545D02*
X169Y545D01*
X202Y545D02*
X209Y545D01*
X243Y545D02*
X250Y545D01*
X284Y545D02*
X292Y545D01*
X612Y545D02*
X620Y545D01*
X655Y545D02*
X662Y545D01*
X696Y545D02*
X703Y545D01*
X737Y545D02*
X744Y545D01*
X777Y545D02*
X784Y545D01*
X817Y545D02*
X824Y545D01*
X82Y544D02*
X89Y544D01*
X121Y544D02*
X128Y544D01*
X162Y544D02*
X169Y544D01*
X202Y544D02*
X209Y544D01*
X243Y544D02*
X250Y544D01*
X284Y544D02*
X291Y544D01*
X613Y544D02*
X620Y544D01*
X655Y544D02*
X662Y544D01*
X696Y544D02*
X703Y544D01*
X737Y544D02*
X744Y544D01*
X777Y544D02*
X784Y544D01*
X817Y544D02*
X824Y544D01*
X81Y543D02*
X88Y543D01*
X121Y543D02*
X128Y543D01*
X161Y543D02*
X168Y543D01*
X202Y543D02*
X209Y543D01*
X242Y543D02*
X249Y543D01*
X284Y543D02*
X291Y543D01*
X613Y543D02*
X621Y543D01*
X655Y543D02*
X662Y543D01*
X696Y543D02*
X704Y543D01*
X737Y543D02*
X744Y543D01*
X777Y543D02*
X784Y543D01*
X817Y543D02*
X825Y543D01*
X81Y542D02*
X88Y542D01*
X121Y542D02*
X128Y542D01*
X161Y542D02*
X168Y542D01*
X201Y542D02*
X208Y542D01*
X242Y542D02*
X249Y542D01*
X283Y542D02*
X291Y542D01*
X614Y542D02*
X621Y542D01*
X656Y542D02*
X663Y542D01*
X697Y542D02*
X704Y542D01*
X737Y542D02*
X744Y542D01*
X778Y542D02*
X785Y542D01*
X818Y542D02*
X825Y542D01*
X81Y541D02*
X88Y541D01*
X121Y541D02*
X128Y541D01*
X161Y541D02*
X168Y541D01*
X201Y541D02*
X208Y541D01*
X242Y541D02*
X249Y541D01*
X283Y541D02*
X290Y541D01*
X614Y541D02*
X621Y541D01*
X656Y541D02*
X663Y541D01*
X697Y541D02*
X704Y541D01*
X738Y541D02*
X745Y541D01*
X778Y541D02*
X785Y541D01*
X818Y541D02*
X825Y541D01*
X1621Y541D02*
X1628Y541D01*
X81Y540D02*
X88Y540D01*
X121Y540D02*
X128Y540D01*
X161Y540D02*
X168Y540D01*
X201Y540D02*
X208Y540D01*
X241Y540D02*
X249Y540D01*
X283Y540D02*
X290Y540D01*
X614Y540D02*
X622Y540D01*
X656Y540D02*
X663Y540D01*
X697Y540D02*
X704Y540D01*
X738Y540D02*
X745Y540D01*
X778Y540D02*
X785Y540D01*
X818Y540D02*
X825Y540D01*
X1617Y540D02*
X1632Y540D01*
X81Y539D02*
X88Y539D01*
X121Y539D02*
X128Y539D01*
X160Y539D02*
X168Y539D01*
X201Y539D02*
X208Y539D01*
X241Y539D02*
X248Y539D01*
X282Y539D02*
X289Y539D01*
X615Y539D02*
X622Y539D01*
X657Y539D02*
X664Y539D01*
X697Y539D02*
X705Y539D01*
X738Y539D02*
X745Y539D01*
X778Y539D02*
X785Y539D01*
X818Y539D02*
X825Y539D01*
X1615Y539D02*
X1634Y539D01*
X81Y538D02*
X88Y538D01*
X120Y538D02*
X127Y538D01*
X160Y538D02*
X167Y538D01*
X201Y538D02*
X208Y538D01*
X241Y538D02*
X248Y538D01*
X282Y538D02*
X289Y538D01*
X615Y538D02*
X623Y538D01*
X657Y538D02*
X664Y538D01*
X698Y538D02*
X705Y538D01*
X738Y538D02*
X745Y538D01*
X778Y538D02*
X785Y538D01*
X819Y538D02*
X825Y538D01*
X1613Y538D02*
X1636Y538D01*
X80Y537D02*
X87Y537D01*
X120Y537D02*
X127Y537D01*
X160Y537D02*
X167Y537D01*
X200Y537D02*
X207Y537D01*
X241Y537D02*
X248Y537D01*
X282Y537D02*
X289Y537D01*
X616Y537D02*
X623Y537D01*
X657Y537D02*
X664Y537D01*
X698Y537D02*
X705Y537D01*
X738Y537D02*
X745Y537D01*
X779Y537D02*
X786Y537D01*
X819Y537D02*
X826Y537D01*
X1611Y537D02*
X1638Y537D01*
X80Y536D02*
X87Y536D01*
X120Y536D02*
X127Y536D01*
X160Y536D02*
X167Y536D01*
X200Y536D02*
X207Y536D01*
X240Y536D02*
X248Y536D01*
X281Y536D02*
X288Y536D01*
X616Y536D02*
X623Y536D01*
X657Y536D02*
X665Y536D01*
X698Y536D02*
X705Y536D01*
X739Y536D02*
X746Y536D01*
X779Y536D02*
X786Y536D01*
X819Y536D02*
X826Y536D01*
X1610Y536D02*
X1639Y536D01*
X80Y535D02*
X87Y535D01*
X120Y535D02*
X127Y535D01*
X160Y535D02*
X167Y535D01*
X200Y535D02*
X207Y535D01*
X240Y535D02*
X247Y535D01*
X281Y535D02*
X288Y535D01*
X616Y535D02*
X624Y535D01*
X658Y535D02*
X665Y535D01*
X699Y535D02*
X706Y535D01*
X739Y535D02*
X746Y535D01*
X779Y535D02*
X786Y535D01*
X819Y535D02*
X826Y535D01*
X1609Y535D02*
X1640Y535D01*
X80Y534D02*
X87Y534D01*
X120Y534D02*
X127Y534D01*
X160Y534D02*
X167Y534D01*
X200Y534D02*
X207Y534D01*
X240Y534D02*
X247Y534D01*
X281Y534D02*
X288Y534D01*
X617Y534D02*
X624Y534D01*
X658Y534D02*
X665Y534D01*
X699Y534D02*
X706Y534D01*
X739Y534D02*
X746Y534D01*
X779Y534D02*
X786Y534D01*
X819Y534D02*
X826Y534D01*
X1608Y534D02*
X1641Y534D01*
X80Y533D02*
X87Y533D01*
X120Y533D02*
X127Y533D01*
X159Y533D02*
X166Y533D01*
X199Y533D02*
X206Y533D01*
X240Y533D02*
X247Y533D01*
X280Y533D02*
X288Y533D01*
X617Y533D02*
X624Y533D01*
X658Y533D02*
X665Y533D01*
X699Y533D02*
X706Y533D01*
X739Y533D02*
X746Y533D01*
X779Y533D02*
X786Y533D01*
X819Y533D02*
X826Y533D01*
X1607Y533D02*
X1642Y533D01*
X80Y532D02*
X87Y532D01*
X119Y532D02*
X126Y532D01*
X159Y532D02*
X166Y532D01*
X199Y532D02*
X206Y532D01*
X239Y532D02*
X246Y532D01*
X280Y532D02*
X287Y532D01*
X617Y532D02*
X625Y532D01*
X659Y532D02*
X666Y532D01*
X699Y532D02*
X706Y532D01*
X739Y532D02*
X746Y532D01*
X780Y532D02*
X787Y532D01*
X819Y532D02*
X826Y532D01*
X1606Y532D02*
X1643Y532D01*
X80Y531D02*
X87Y531D01*
X119Y531D02*
X126Y531D01*
X159Y531D02*
X166Y531D01*
X199Y531D02*
X206Y531D01*
X239Y531D02*
X246Y531D01*
X280Y531D02*
X287Y531D01*
X618Y531D02*
X625Y531D01*
X659Y531D02*
X666Y531D01*
X700Y531D02*
X707Y531D01*
X740Y531D02*
X747Y531D01*
X780Y531D02*
X787Y531D01*
X820Y531D02*
X827Y531D01*
X1605Y531D02*
X1644Y531D01*
X80Y530D02*
X86Y530D01*
X119Y530D02*
X126Y530D01*
X159Y530D02*
X166Y530D01*
X199Y530D02*
X206Y530D01*
X239Y530D02*
X246Y530D01*
X279Y530D02*
X287Y530D01*
X618Y530D02*
X625Y530D01*
X659Y530D02*
X666Y530D01*
X700Y530D02*
X707Y530D01*
X740Y530D02*
X747Y530D01*
X780Y530D02*
X787Y530D01*
X820Y530D02*
X827Y530D01*
X1605Y530D02*
X1644Y530D01*
X79Y529D02*
X86Y529D01*
X119Y529D02*
X126Y529D01*
X159Y529D02*
X166Y529D01*
X199Y529D02*
X206Y529D01*
X239Y529D02*
X246Y529D01*
X279Y529D02*
X286Y529D01*
X618Y529D02*
X626Y529D01*
X659Y529D02*
X667Y529D01*
X700Y529D02*
X707Y529D01*
X740Y529D02*
X747Y529D01*
X780Y529D02*
X787Y529D01*
X820Y529D02*
X827Y529D01*
X1604Y529D02*
X1645Y529D01*
X79Y528D02*
X86Y528D01*
X119Y528D02*
X126Y528D01*
X159Y528D02*
X166Y528D01*
X199Y528D02*
X205Y528D01*
X239Y528D02*
X246Y528D01*
X279Y528D02*
X286Y528D01*
X619Y528D02*
X626Y528D01*
X660Y528D02*
X667Y528D01*
X700Y528D02*
X707Y528D01*
X740Y528D02*
X747Y528D01*
X780Y528D02*
X787Y528D01*
X820Y528D02*
X827Y528D01*
X1604Y528D02*
X1620Y528D01*
X1629Y528D02*
X1645Y528D01*
X79Y527D02*
X86Y527D01*
X119Y527D02*
X126Y527D01*
X158Y527D02*
X165Y527D01*
X198Y527D02*
X205Y527D01*
X238Y527D02*
X245Y527D01*
X279Y527D02*
X286Y527D01*
X619Y527D02*
X626Y527D01*
X660Y527D02*
X667Y527D01*
X700Y527D02*
X707Y527D01*
X740Y527D02*
X748Y527D01*
X780Y527D02*
X787Y527D01*
X820Y527D02*
X827Y527D01*
X1603Y527D02*
X1618Y527D01*
X1631Y527D02*
X1646Y527D01*
X79Y526D02*
X86Y526D01*
X119Y526D02*
X126Y526D01*
X158Y526D02*
X165Y526D01*
X198Y526D02*
X205Y526D01*
X238Y526D02*
X245Y526D01*
X278Y526D02*
X286Y526D01*
X619Y526D02*
X627Y526D01*
X660Y526D02*
X667Y526D01*
X701Y526D02*
X708Y526D01*
X741Y526D02*
X748Y526D01*
X781Y526D02*
X788Y526D01*
X820Y526D02*
X827Y526D01*
X1603Y526D02*
X1617Y526D01*
X1632Y526D02*
X1646Y526D01*
X79Y525D02*
X86Y525D01*
X119Y525D02*
X125Y525D01*
X158Y525D02*
X165Y525D01*
X198Y525D02*
X205Y525D01*
X238Y525D02*
X245Y525D01*
X278Y525D02*
X285Y525D01*
X620Y525D02*
X627Y525D01*
X661Y525D02*
X668Y525D01*
X701Y525D02*
X708Y525D01*
X741Y525D02*
X748Y525D01*
X781Y525D02*
X788Y525D01*
X820Y525D02*
X827Y525D01*
X1602Y525D02*
X1616Y525D01*
X1633Y525D02*
X1646Y525D01*
X79Y524D02*
X86Y524D01*
X118Y524D02*
X125Y524D01*
X158Y524D02*
X165Y524D01*
X198Y524D02*
X205Y524D01*
X238Y524D02*
X245Y524D01*
X278Y524D02*
X285Y524D01*
X620Y524D02*
X627Y524D01*
X661Y524D02*
X668Y524D01*
X701Y524D02*
X708Y524D01*
X741Y524D02*
X748Y524D01*
X781Y524D02*
X788Y524D01*
X821Y524D02*
X828Y524D01*
X1602Y524D02*
X1615Y524D01*
X1634Y524D02*
X1647Y524D01*
X79Y523D02*
X86Y523D01*
X118Y523D02*
X125Y523D01*
X158Y523D02*
X165Y523D01*
X198Y523D02*
X205Y523D01*
X238Y523D02*
X245Y523D01*
X278Y523D02*
X285Y523D01*
X620Y523D02*
X627Y523D01*
X661Y523D02*
X668Y523D01*
X701Y523D02*
X708Y523D01*
X741Y523D02*
X748Y523D01*
X781Y523D02*
X788Y523D01*
X821Y523D02*
X828Y523D01*
X1602Y523D02*
X1614Y523D01*
X1635Y523D02*
X1647Y523D01*
X79Y522D02*
X86Y522D01*
X118Y522D02*
X125Y522D01*
X158Y522D02*
X165Y522D01*
X198Y522D02*
X204Y522D01*
X237Y522D02*
X244Y522D01*
X277Y522D02*
X285Y522D01*
X621Y522D02*
X628Y522D01*
X661Y522D02*
X668Y522D01*
X701Y522D02*
X708Y522D01*
X741Y522D02*
X748Y522D01*
X781Y522D02*
X788Y522D01*
X821Y522D02*
X828Y522D01*
X1602Y522D02*
X1614Y522D01*
X1635Y522D02*
X1647Y522D01*
X78Y521D02*
X85Y521D01*
X118Y521D02*
X125Y521D01*
X158Y521D02*
X165Y521D01*
X197Y521D02*
X204Y521D01*
X237Y521D02*
X244Y521D01*
X277Y521D02*
X284Y521D01*
X621Y521D02*
X628Y521D01*
X661Y521D02*
X668Y521D01*
X702Y521D02*
X709Y521D01*
X742Y521D02*
X748Y521D01*
X781Y521D02*
X788Y521D01*
X821Y521D02*
X828Y521D01*
X1601Y521D02*
X1613Y521D01*
X1636Y521D02*
X1648Y521D01*
X78Y520D02*
X85Y520D01*
X118Y520D02*
X125Y520D01*
X158Y520D02*
X164Y520D01*
X197Y520D02*
X204Y520D01*
X237Y520D02*
X244Y520D01*
X277Y520D02*
X284Y520D01*
X621Y520D02*
X628Y520D01*
X662Y520D02*
X669Y520D01*
X702Y520D02*
X709Y520D01*
X742Y520D02*
X749Y520D01*
X781Y520D02*
X788Y520D01*
X821Y520D02*
X828Y520D01*
X1601Y520D02*
X1613Y520D01*
X1636Y520D02*
X1648Y520D01*
X78Y519D02*
X85Y519D01*
X118Y519D02*
X125Y519D01*
X157Y519D02*
X164Y519D01*
X197Y519D02*
X204Y519D01*
X237Y519D02*
X244Y519D01*
X277Y519D02*
X284Y519D01*
X621Y519D02*
X629Y519D01*
X662Y519D02*
X669Y519D01*
X702Y519D02*
X709Y519D01*
X742Y519D02*
X749Y519D01*
X782Y519D02*
X789Y519D01*
X821Y519D02*
X828Y519D01*
X1601Y519D02*
X1613Y519D01*
X1636Y519D02*
X1648Y519D01*
X78Y518D02*
X85Y518D01*
X118Y518D02*
X125Y518D01*
X157Y518D02*
X164Y518D01*
X197Y518D02*
X204Y518D01*
X237Y518D02*
X244Y518D01*
X277Y518D02*
X284Y518D01*
X622Y518D02*
X629Y518D01*
X662Y518D02*
X669Y518D01*
X702Y518D02*
X709Y518D01*
X742Y518D02*
X749Y518D01*
X782Y518D02*
X789Y518D01*
X822Y518D02*
X828Y518D01*
X1601Y518D02*
X1613Y518D01*
X1636Y518D02*
X1648Y518D01*
X78Y517D02*
X85Y517D01*
X118Y517D02*
X125Y517D01*
X157Y517D02*
X164Y517D01*
X197Y517D02*
X204Y517D01*
X237Y517D02*
X244Y517D01*
X276Y517D02*
X283Y517D01*
X622Y517D02*
X629Y517D01*
X662Y517D02*
X669Y517D01*
X702Y517D02*
X709Y517D01*
X742Y517D02*
X749Y517D01*
X782Y517D02*
X789Y517D01*
X822Y517D02*
X829Y517D01*
X1601Y517D02*
X1613Y517D01*
X1636Y517D02*
X1648Y517D01*
X78Y516D02*
X85Y516D01*
X118Y516D02*
X124Y516D01*
X157Y516D02*
X164Y516D01*
X197Y516D02*
X204Y516D01*
X236Y516D02*
X243Y516D01*
X276Y516D02*
X283Y516D01*
X622Y516D02*
X629Y516D01*
X662Y516D02*
X670Y516D01*
X702Y516D02*
X709Y516D01*
X742Y516D02*
X749Y516D01*
X782Y516D02*
X789Y516D01*
X822Y516D02*
X829Y516D01*
X1601Y516D02*
X1613Y516D01*
X1636Y516D02*
X1648Y516D01*
X78Y515D02*
X85Y515D01*
X117Y515D02*
X124Y515D01*
X157Y515D02*
X164Y515D01*
X197Y515D02*
X203Y515D01*
X236Y515D02*
X243Y515D01*
X276Y515D02*
X283Y515D01*
X622Y515D02*
X630Y515D01*
X663Y515D02*
X670Y515D01*
X703Y515D02*
X710Y515D01*
X742Y515D02*
X749Y515D01*
X782Y515D02*
X789Y515D01*
X822Y515D02*
X829Y515D01*
X1601Y515D02*
X1613Y515D01*
X1636Y515D02*
X1648Y515D01*
X78Y514D02*
X85Y514D01*
X117Y514D02*
X124Y514D01*
X157Y514D02*
X164Y514D01*
X196Y514D02*
X203Y514D01*
X236Y514D02*
X243Y514D01*
X276Y514D02*
X283Y514D01*
X623Y514D02*
X630Y514D01*
X663Y514D02*
X670Y514D01*
X703Y514D02*
X710Y514D01*
X743Y514D02*
X750Y514D01*
X782Y514D02*
X789Y514D01*
X822Y514D02*
X829Y514D01*
X1601Y514D02*
X1613Y514D01*
X1636Y514D02*
X1648Y514D01*
X78Y513D02*
X85Y513D01*
X117Y513D02*
X124Y513D01*
X157Y513D02*
X164Y513D01*
X196Y513D02*
X203Y513D01*
X236Y513D02*
X243Y513D01*
X276Y513D02*
X283Y513D01*
X623Y513D02*
X630Y513D01*
X663Y513D02*
X670Y513D01*
X703Y513D02*
X710Y513D01*
X743Y513D02*
X750Y513D01*
X782Y513D02*
X789Y513D01*
X822Y513D02*
X829Y513D01*
X1602Y513D02*
X1614Y513D01*
X1635Y513D02*
X1647Y513D01*
X78Y512D02*
X85Y512D01*
X117Y512D02*
X124Y512D01*
X157Y512D02*
X164Y512D01*
X196Y512D02*
X203Y512D01*
X236Y512D02*
X243Y512D01*
X276Y512D02*
X283Y512D01*
X623Y512D02*
X630Y512D01*
X663Y512D02*
X670Y512D01*
X703Y512D02*
X710Y512D01*
X743Y512D02*
X750Y512D01*
X783Y512D02*
X789Y512D01*
X822Y512D02*
X829Y512D01*
X1602Y512D02*
X1614Y512D01*
X1635Y512D02*
X1647Y512D01*
X78Y511D02*
X85Y511D01*
X117Y511D02*
X124Y511D01*
X157Y511D02*
X163Y511D01*
X196Y511D02*
X203Y511D01*
X236Y511D02*
X243Y511D01*
X275Y511D02*
X282Y511D01*
X623Y511D02*
X630Y511D01*
X663Y511D02*
X670Y511D01*
X703Y511D02*
X710Y511D01*
X743Y511D02*
X750Y511D01*
X783Y511D02*
X790Y511D01*
X822Y511D02*
X829Y511D01*
X1602Y511D02*
X1615Y511D01*
X1634Y511D02*
X1647Y511D01*
X78Y510D02*
X84Y510D01*
X117Y510D02*
X124Y510D01*
X156Y510D02*
X163Y510D01*
X196Y510D02*
X203Y510D01*
X236Y510D02*
X242Y510D01*
X275Y510D02*
X282Y510D01*
X624Y510D02*
X631Y510D01*
X664Y510D02*
X671Y510D01*
X703Y510D02*
X710Y510D01*
X743Y510D02*
X750Y510D01*
X783Y510D02*
X790Y510D01*
X822Y510D02*
X829Y510D01*
X1603Y510D02*
X1616Y510D01*
X1633Y510D02*
X1646Y510D01*
X78Y509D02*
X84Y509D01*
X117Y509D02*
X124Y509D01*
X156Y509D02*
X163Y509D01*
X196Y509D02*
X203Y509D01*
X235Y509D02*
X242Y509D01*
X275Y509D02*
X282Y509D01*
X624Y509D02*
X631Y509D01*
X664Y509D02*
X671Y509D01*
X704Y509D02*
X711Y509D01*
X743Y509D02*
X750Y509D01*
X783Y509D02*
X790Y509D01*
X822Y509D02*
X829Y509D01*
X1603Y509D02*
X1617Y509D01*
X1632Y509D02*
X1646Y509D01*
X77Y508D02*
X84Y508D01*
X117Y508D02*
X124Y508D01*
X156Y508D02*
X163Y508D01*
X196Y508D02*
X203Y508D01*
X235Y508D02*
X242Y508D01*
X275Y508D02*
X282Y508D01*
X624Y508D02*
X631Y508D01*
X664Y508D02*
X671Y508D01*
X704Y508D02*
X711Y508D01*
X743Y508D02*
X750Y508D01*
X783Y508D02*
X790Y508D01*
X822Y508D02*
X829Y508D01*
X1603Y508D02*
X1618Y508D01*
X1631Y508D02*
X1646Y508D01*
X77Y507D02*
X84Y507D01*
X117Y507D02*
X124Y507D01*
X156Y507D02*
X163Y507D01*
X196Y507D02*
X203Y507D01*
X235Y507D02*
X242Y507D01*
X275Y507D02*
X282Y507D01*
X624Y507D02*
X631Y507D01*
X664Y507D02*
X671Y507D01*
X704Y507D02*
X711Y507D01*
X744Y507D02*
X750Y507D01*
X783Y507D02*
X790Y507D01*
X823Y507D02*
X829Y507D01*
X1604Y507D02*
X1620Y507D01*
X1629Y507D02*
X1645Y507D01*
X77Y506D02*
X84Y506D01*
X117Y506D02*
X124Y506D01*
X156Y506D02*
X163Y506D01*
X196Y506D02*
X202Y506D01*
X235Y506D02*
X242Y506D01*
X275Y506D02*
X282Y506D01*
X624Y506D02*
X631Y506D01*
X664Y506D02*
X671Y506D01*
X704Y506D02*
X711Y506D01*
X744Y506D02*
X751Y506D01*
X783Y506D02*
X790Y506D01*
X823Y506D02*
X830Y506D01*
X1604Y506D02*
X1645Y506D01*
X77Y505D02*
X84Y505D01*
X117Y505D02*
X124Y505D01*
X156Y505D02*
X163Y505D01*
X195Y505D02*
X202Y505D01*
X235Y505D02*
X242Y505D01*
X275Y505D02*
X281Y505D01*
X625Y505D02*
X632Y505D01*
X664Y505D02*
X671Y505D01*
X704Y505D02*
X711Y505D01*
X744Y505D02*
X751Y505D01*
X783Y505D02*
X790Y505D01*
X823Y505D02*
X830Y505D01*
X1605Y505D02*
X1644Y505D01*
X77Y504D02*
X84Y504D01*
X117Y504D02*
X124Y504D01*
X156Y504D02*
X163Y504D01*
X195Y504D02*
X202Y504D01*
X235Y504D02*
X242Y504D01*
X274Y504D02*
X281Y504D01*
X625Y504D02*
X632Y504D01*
X665Y504D02*
X672Y504D01*
X704Y504D02*
X711Y504D01*
X744Y504D02*
X751Y504D01*
X783Y504D02*
X790Y504D01*
X823Y504D02*
X830Y504D01*
X1605Y504D02*
X1644Y504D01*
X77Y503D02*
X84Y503D01*
X117Y503D02*
X123Y503D01*
X156Y503D02*
X163Y503D01*
X195Y503D02*
X202Y503D01*
X235Y503D02*
X242Y503D01*
X274Y503D02*
X281Y503D01*
X625Y503D02*
X632Y503D01*
X665Y503D02*
X672Y503D01*
X704Y503D02*
X711Y503D01*
X744Y503D02*
X751Y503D01*
X783Y503D02*
X790Y503D01*
X823Y503D02*
X830Y503D01*
X1606Y503D02*
X1643Y503D01*
X77Y502D02*
X84Y502D01*
X117Y502D02*
X123Y502D01*
X156Y502D02*
X163Y502D01*
X195Y502D02*
X202Y502D01*
X235Y502D02*
X242Y502D01*
X274Y502D02*
X281Y502D01*
X625Y502D02*
X632Y502D01*
X665Y502D02*
X672Y502D01*
X704Y502D02*
X711Y502D01*
X744Y502D02*
X751Y502D01*
X784Y502D02*
X790Y502D01*
X823Y502D02*
X830Y502D01*
X1607Y502D02*
X1642Y502D01*
X77Y501D02*
X84Y501D01*
X116Y501D02*
X123Y501D01*
X156Y501D02*
X163Y501D01*
X195Y501D02*
X202Y501D01*
X235Y501D02*
X242Y501D01*
X274Y501D02*
X281Y501D01*
X625Y501D02*
X632Y501D01*
X665Y501D02*
X672Y501D01*
X705Y501D02*
X712Y501D01*
X744Y501D02*
X751Y501D01*
X784Y501D02*
X791Y501D01*
X823Y501D02*
X830Y501D01*
X1608Y501D02*
X1641Y501D01*
X77Y500D02*
X84Y500D01*
X116Y500D02*
X123Y500D01*
X156Y500D02*
X163Y500D01*
X195Y500D02*
X202Y500D01*
X235Y500D02*
X241Y500D01*
X274Y500D02*
X281Y500D01*
X625Y500D02*
X632Y500D01*
X665Y500D02*
X672Y500D01*
X705Y500D02*
X712Y500D01*
X744Y500D02*
X751Y500D01*
X784Y500D02*
X791Y500D01*
X823Y500D02*
X830Y500D01*
X1609Y500D02*
X1640Y500D01*
X77Y499D02*
X84Y499D01*
X116Y499D02*
X123Y499D01*
X156Y499D02*
X163Y499D01*
X195Y499D02*
X202Y499D01*
X234Y499D02*
X241Y499D01*
X274Y499D02*
X281Y499D01*
X626Y499D02*
X633Y499D01*
X665Y499D02*
X672Y499D01*
X705Y499D02*
X712Y499D01*
X744Y499D02*
X751Y499D01*
X784Y499D02*
X791Y499D01*
X823Y499D02*
X830Y499D01*
X1610Y499D02*
X1639Y499D01*
X77Y498D02*
X84Y498D01*
X116Y498D02*
X123Y498D01*
X156Y498D02*
X163Y498D01*
X195Y498D02*
X202Y498D01*
X234Y498D02*
X241Y498D01*
X274Y498D02*
X281Y498D01*
X626Y498D02*
X633Y498D01*
X665Y498D02*
X672Y498D01*
X705Y498D02*
X712Y498D01*
X744Y498D02*
X751Y498D01*
X784Y498D02*
X791Y498D01*
X823Y498D02*
X830Y498D01*
X1611Y498D02*
X1638Y498D01*
X77Y497D02*
X84Y497D01*
X116Y497D02*
X123Y497D01*
X156Y497D02*
X163Y497D01*
X195Y497D02*
X202Y497D01*
X234Y497D02*
X241Y497D01*
X274Y497D02*
X281Y497D01*
X626Y497D02*
X633Y497D01*
X665Y497D02*
X672Y497D01*
X705Y497D02*
X712Y497D01*
X745Y497D02*
X751Y497D01*
X784Y497D02*
X791Y497D01*
X823Y497D02*
X830Y497D01*
X1613Y497D02*
X1636Y497D01*
X77Y496D02*
X84Y496D01*
X116Y496D02*
X123Y496D01*
X156Y496D02*
X162Y496D01*
X195Y496D02*
X202Y496D01*
X234Y496D02*
X241Y496D01*
X274Y496D02*
X281Y496D01*
X626Y496D02*
X633Y496D01*
X666Y496D02*
X672Y496D01*
X705Y496D02*
X712Y496D01*
X745Y496D02*
X752Y496D01*
X784Y496D02*
X791Y496D01*
X824Y496D02*
X830Y496D01*
X1615Y496D02*
X1634Y496D01*
X77Y495D02*
X84Y495D01*
X116Y495D02*
X123Y495D01*
X156Y495D02*
X162Y495D01*
X195Y495D02*
X202Y495D01*
X234Y495D02*
X241Y495D01*
X274Y495D02*
X280Y495D01*
X626Y495D02*
X633Y495D01*
X666Y495D02*
X673Y495D01*
X705Y495D02*
X712Y495D01*
X745Y495D02*
X752Y495D01*
X784Y495D02*
X791Y495D01*
X824Y495D02*
X830Y495D01*
X1618Y495D02*
X1631Y495D01*
X77Y494D02*
X84Y494D01*
X116Y494D02*
X123Y494D01*
X155Y494D02*
X162Y494D01*
X195Y494D02*
X202Y494D01*
X234Y494D02*
X241Y494D01*
X274Y494D02*
X280Y494D01*
X626Y494D02*
X633Y494D01*
X666Y494D02*
X673Y494D01*
X705Y494D02*
X712Y494D01*
X745Y494D02*
X752Y494D01*
X784Y494D02*
X791Y494D01*
X824Y494D02*
X830Y494D01*
X1621Y494D02*
X1628Y494D01*
X77Y493D02*
X84Y493D01*
X116Y493D02*
X123Y493D01*
X155Y493D02*
X162Y493D01*
X195Y493D02*
X202Y493D01*
X234Y493D02*
X241Y493D01*
X274Y493D02*
X280Y493D01*
X626Y493D02*
X633Y493D01*
X666Y493D02*
X673Y493D01*
X705Y493D02*
X712Y493D01*
X745Y493D02*
X752Y493D01*
X784Y493D02*
X791Y493D01*
X824Y493D02*
X831Y493D01*
X77Y492D02*
X84Y492D01*
X116Y492D02*
X123Y492D01*
X155Y492D02*
X162Y492D01*
X195Y492D02*
X202Y492D01*
X234Y492D02*
X241Y492D01*
X274Y492D02*
X280Y492D01*
X626Y492D02*
X633Y492D01*
X666Y492D02*
X673Y492D01*
X706Y492D02*
X712Y492D01*
X745Y492D02*
X752Y492D01*
X784Y492D02*
X791Y492D01*
X824Y492D02*
X831Y492D01*
X77Y491D02*
X84Y491D01*
X116Y491D02*
X123Y491D01*
X155Y491D02*
X162Y491D01*
X195Y491D02*
X202Y491D01*
X234Y491D02*
X241Y491D01*
X273Y491D02*
X280Y491D01*
X627Y491D02*
X633Y491D01*
X666Y491D02*
X673Y491D01*
X706Y491D02*
X712Y491D01*
X745Y491D02*
X752Y491D01*
X784Y491D02*
X791Y491D01*
X824Y491D02*
X831Y491D01*
X77Y490D02*
X84Y490D01*
X116Y490D02*
X123Y490D01*
X155Y490D02*
X162Y490D01*
X195Y490D02*
X202Y490D01*
X234Y490D02*
X241Y490D01*
X273Y490D02*
X280Y490D01*
X627Y490D02*
X634Y490D01*
X666Y490D02*
X673Y490D01*
X706Y490D02*
X713Y490D01*
X745Y490D02*
X752Y490D01*
X784Y490D02*
X791Y490D01*
X824Y490D02*
X831Y490D01*
X77Y489D02*
X84Y489D01*
X116Y489D02*
X123Y489D01*
X155Y489D02*
X162Y489D01*
X195Y489D02*
X202Y489D01*
X234Y489D02*
X241Y489D01*
X273Y489D02*
X280Y489D01*
X627Y489D02*
X634Y489D01*
X666Y489D02*
X673Y489D01*
X706Y489D02*
X713Y489D01*
X745Y489D02*
X752Y489D01*
X784Y489D02*
X791Y489D01*
X824Y489D02*
X831Y489D01*
X77Y488D02*
X84Y488D01*
X116Y488D02*
X123Y488D01*
X155Y488D02*
X162Y488D01*
X195Y488D02*
X202Y488D01*
X234Y488D02*
X241Y488D01*
X273Y488D02*
X280Y488D01*
X627Y488D02*
X634Y488D01*
X666Y488D02*
X673Y488D01*
X706Y488D02*
X713Y488D01*
X745Y488D02*
X752Y488D01*
X784Y488D02*
X791Y488D01*
X824Y488D02*
X831Y488D01*
X77Y487D02*
X84Y487D01*
X116Y487D02*
X123Y487D01*
X155Y487D02*
X162Y487D01*
X195Y487D02*
X202Y487D01*
X234Y487D02*
X241Y487D01*
X273Y487D02*
X280Y487D01*
X627Y487D02*
X634Y487D01*
X666Y487D02*
X673Y487D01*
X706Y487D02*
X713Y487D01*
X745Y487D02*
X752Y487D01*
X785Y487D02*
X791Y487D01*
X824Y487D02*
X831Y487D01*
X77Y486D02*
X84Y486D01*
X116Y486D02*
X123Y486D01*
X155Y486D02*
X162Y486D01*
X195Y486D02*
X202Y486D01*
X234Y486D02*
X241Y486D01*
X273Y486D02*
X280Y486D01*
X627Y486D02*
X634Y486D01*
X666Y486D02*
X673Y486D01*
X706Y486D02*
X713Y486D01*
X745Y486D02*
X752Y486D01*
X785Y486D02*
X791Y486D01*
X824Y486D02*
X831Y486D01*
X77Y485D02*
X84Y485D01*
X116Y485D02*
X123Y485D01*
X155Y485D02*
X162Y485D01*
X195Y485D02*
X202Y485D01*
X234Y485D02*
X241Y485D01*
X273Y485D02*
X280Y485D01*
X627Y485D02*
X634Y485D01*
X666Y485D02*
X673Y485D01*
X706Y485D02*
X713Y485D01*
X745Y485D02*
X752Y485D01*
X785Y485D02*
X791Y485D01*
X824Y485D02*
X831Y485D01*
X77Y484D02*
X84Y484D01*
X116Y484D02*
X123Y484D01*
X155Y484D02*
X162Y484D01*
X195Y484D02*
X202Y484D01*
X234Y484D02*
X241Y484D01*
X273Y484D02*
X280Y484D01*
X627Y484D02*
X634Y484D01*
X667Y484D02*
X673Y484D01*
X706Y484D02*
X713Y484D01*
X745Y484D02*
X752Y484D01*
X785Y484D02*
X792Y484D01*
X824Y484D02*
X831Y484D01*
X77Y483D02*
X84Y483D01*
X116Y483D02*
X123Y483D01*
X155Y483D02*
X162Y483D01*
X195Y483D02*
X202Y483D01*
X234Y483D02*
X241Y483D01*
X273Y483D02*
X280Y483D01*
X627Y483D02*
X634Y483D01*
X667Y483D02*
X673Y483D01*
X706Y483D02*
X713Y483D01*
X745Y483D02*
X752Y483D01*
X785Y483D02*
X792Y483D01*
X824Y483D02*
X831Y483D01*
X77Y482D02*
X84Y482D01*
X116Y482D02*
X123Y482D01*
X155Y482D02*
X162Y482D01*
X195Y482D02*
X202Y482D01*
X234Y482D02*
X241Y482D01*
X273Y482D02*
X280Y482D01*
X627Y482D02*
X634Y482D01*
X667Y482D02*
X674Y482D01*
X706Y482D02*
X713Y482D01*
X745Y482D02*
X752Y482D01*
X785Y482D02*
X792Y482D01*
X824Y482D02*
X831Y482D01*
X77Y481D02*
X84Y481D01*
X116Y481D02*
X123Y481D01*
X155Y481D02*
X162Y481D01*
X195Y481D02*
X202Y481D01*
X234Y481D02*
X241Y481D01*
X273Y481D02*
X280Y481D01*
X627Y481D02*
X634Y481D01*
X667Y481D02*
X674Y481D01*
X706Y481D02*
X713Y481D01*
X745Y481D02*
X752Y481D01*
X785Y481D02*
X792Y481D01*
X824Y481D02*
X831Y481D01*
X77Y480D02*
X84Y480D01*
X116Y480D02*
X123Y480D01*
X155Y480D02*
X162Y480D01*
X195Y480D02*
X202Y480D01*
X234Y480D02*
X241Y480D01*
X273Y480D02*
X280Y480D01*
X627Y480D02*
X634Y480D01*
X667Y480D02*
X674Y480D01*
X706Y480D02*
X713Y480D01*
X745Y480D02*
X752Y480D01*
X785Y480D02*
X792Y480D01*
X824Y480D02*
X831Y480D01*
X77Y479D02*
X84Y479D01*
X116Y479D02*
X123Y479D01*
X155Y479D02*
X162Y479D01*
X195Y479D02*
X202Y479D01*
X234Y479D02*
X241Y479D01*
X273Y479D02*
X280Y479D01*
X627Y479D02*
X634Y479D01*
X667Y479D02*
X674Y479D01*
X706Y479D02*
X713Y479D01*
X746Y479D02*
X752Y479D01*
X785Y479D02*
X792Y479D01*
X824Y479D02*
X831Y479D01*
X77Y478D02*
X84Y478D01*
X116Y478D02*
X123Y478D01*
X155Y478D02*
X162Y478D01*
X195Y478D02*
X202Y478D01*
X234Y478D02*
X241Y478D01*
X273Y478D02*
X280Y478D01*
X628Y478D02*
X634Y478D01*
X667Y478D02*
X674Y478D01*
X706Y478D02*
X713Y478D01*
X746Y478D02*
X752Y478D01*
X785Y478D02*
X792Y478D01*
X824Y478D02*
X831Y478D01*
X77Y477D02*
X84Y477D01*
X116Y477D02*
X123Y477D01*
X155Y477D02*
X162Y477D01*
X195Y477D02*
X202Y477D01*
X234Y477D02*
X241Y477D01*
X273Y477D02*
X280Y477D01*
X628Y477D02*
X634Y477D01*
X667Y477D02*
X674Y477D01*
X706Y477D02*
X713Y477D01*
X746Y477D02*
X752Y477D01*
X785Y477D02*
X792Y477D01*
X824Y477D02*
X831Y477D01*
X77Y476D02*
X84Y476D01*
X116Y476D02*
X123Y476D01*
X155Y476D02*
X162Y476D01*
X195Y476D02*
X202Y476D01*
X234Y476D02*
X241Y476D01*
X274Y476D02*
X280Y476D01*
X628Y476D02*
X634Y476D01*
X667Y476D02*
X674Y476D01*
X706Y476D02*
X713Y476D01*
X746Y476D02*
X752Y476D01*
X785Y476D02*
X792Y476D01*
X824Y476D02*
X831Y476D01*
X77Y475D02*
X84Y475D01*
X116Y475D02*
X123Y475D01*
X156Y475D02*
X162Y475D01*
X195Y475D02*
X202Y475D01*
X234Y475D02*
X241Y475D01*
X274Y475D02*
X280Y475D01*
X628Y475D02*
X634Y475D01*
X667Y475D02*
X674Y475D01*
X706Y475D02*
X713Y475D01*
X746Y475D02*
X752Y475D01*
X785Y475D02*
X792Y475D01*
X824Y475D02*
X831Y475D01*
X77Y474D02*
X84Y474D01*
X116Y474D02*
X123Y474D01*
X156Y474D02*
X162Y474D01*
X195Y474D02*
X202Y474D01*
X234Y474D02*
X241Y474D01*
X274Y474D02*
X281Y474D01*
X628Y474D02*
X634Y474D01*
X667Y474D02*
X674Y474D01*
X706Y474D02*
X713Y474D01*
X746Y474D02*
X752Y474D01*
X785Y474D02*
X792Y474D01*
X824Y474D02*
X831Y474D01*
X77Y473D02*
X84Y473D01*
X116Y473D02*
X123Y473D01*
X156Y473D02*
X162Y473D01*
X195Y473D02*
X202Y473D01*
X234Y473D02*
X241Y473D01*
X274Y473D02*
X281Y473D01*
X628Y473D02*
X634Y473D01*
X667Y473D02*
X674Y473D01*
X706Y473D02*
X713Y473D01*
X746Y473D02*
X752Y473D01*
X785Y473D02*
X792Y473D01*
X824Y473D02*
X831Y473D01*
X77Y472D02*
X84Y472D01*
X116Y472D02*
X123Y472D01*
X156Y472D02*
X163Y472D01*
X195Y472D02*
X202Y472D01*
X234Y472D02*
X241Y472D01*
X274Y472D02*
X281Y472D01*
X628Y472D02*
X634Y472D01*
X667Y472D02*
X674Y472D01*
X706Y472D02*
X713Y472D01*
X746Y472D02*
X752Y472D01*
X785Y472D02*
X792Y472D01*
X824Y472D02*
X831Y472D01*
X77Y471D02*
X84Y471D01*
X116Y471D02*
X123Y471D01*
X156Y471D02*
X163Y471D01*
X195Y471D02*
X202Y471D01*
X234Y471D02*
X241Y471D01*
X274Y471D02*
X281Y471D01*
X628Y471D02*
X634Y471D01*
X667Y471D02*
X674Y471D01*
X706Y471D02*
X713Y471D01*
X746Y471D02*
X752Y471D01*
X785Y471D02*
X792Y471D01*
X824Y471D02*
X831Y471D01*
X77Y470D02*
X84Y470D01*
X116Y470D02*
X123Y470D01*
X156Y470D02*
X163Y470D01*
X195Y470D02*
X202Y470D01*
X235Y470D02*
X241Y470D01*
X274Y470D02*
X281Y470D01*
X628Y470D02*
X634Y470D01*
X667Y470D02*
X674Y470D01*
X706Y470D02*
X713Y470D01*
X746Y470D02*
X752Y470D01*
X785Y470D02*
X792Y470D01*
X824Y470D02*
X831Y470D01*
X77Y469D02*
X84Y469D01*
X116Y469D02*
X123Y469D01*
X156Y469D02*
X163Y469D01*
X195Y469D02*
X202Y469D01*
X235Y469D02*
X241Y469D01*
X274Y469D02*
X281Y469D01*
X628Y469D02*
X634Y469D01*
X667Y469D02*
X674Y469D01*
X706Y469D02*
X713Y469D01*
X746Y469D02*
X752Y469D01*
X785Y469D02*
X792Y469D01*
X824Y469D02*
X831Y469D01*
X77Y468D02*
X84Y468D01*
X116Y468D02*
X123Y468D01*
X156Y468D02*
X163Y468D01*
X195Y468D02*
X202Y468D01*
X235Y468D02*
X241Y468D01*
X274Y468D02*
X281Y468D01*
X628Y468D02*
X634Y468D01*
X667Y468D02*
X674Y468D01*
X706Y468D02*
X713Y468D01*
X746Y468D02*
X752Y468D01*
X785Y468D02*
X792Y468D01*
X824Y468D02*
X831Y468D01*
X77Y467D02*
X84Y467D01*
X117Y467D02*
X123Y467D01*
X156Y467D02*
X163Y467D01*
X195Y467D02*
X202Y467D01*
X235Y467D02*
X242Y467D01*
X274Y467D02*
X281Y467D01*
X628Y467D02*
X634Y467D01*
X667Y467D02*
X674Y467D01*
X706Y467D02*
X713Y467D01*
X746Y467D02*
X752Y467D01*
X785Y467D02*
X792Y467D01*
X824Y467D02*
X831Y467D01*
X77Y466D02*
X84Y466D01*
X117Y466D02*
X123Y466D01*
X156Y466D02*
X163Y466D01*
X195Y466D02*
X202Y466D01*
X235Y466D02*
X242Y466D01*
X274Y466D02*
X281Y466D01*
X627Y466D02*
X634Y466D01*
X667Y466D02*
X674Y466D01*
X706Y466D02*
X713Y466D01*
X746Y466D02*
X752Y466D01*
X785Y466D02*
X792Y466D01*
X824Y466D02*
X831Y466D01*
X77Y465D02*
X84Y465D01*
X117Y465D02*
X123Y465D01*
X156Y465D02*
X163Y465D01*
X195Y465D02*
X202Y465D01*
X235Y465D02*
X242Y465D01*
X274Y465D02*
X281Y465D01*
X627Y465D02*
X634Y465D01*
X667Y465D02*
X674Y465D01*
X706Y465D02*
X713Y465D01*
X745Y465D02*
X752Y465D01*
X785Y465D02*
X792Y465D01*
X824Y465D02*
X831Y465D01*
X77Y464D02*
X84Y464D01*
X117Y464D02*
X124Y464D01*
X156Y464D02*
X163Y464D01*
X195Y464D02*
X202Y464D01*
X235Y464D02*
X242Y464D01*
X275Y464D02*
X281Y464D01*
X627Y464D02*
X634Y464D01*
X667Y464D02*
X674Y464D01*
X706Y464D02*
X713Y464D01*
X745Y464D02*
X752Y464D01*
X785Y464D02*
X792Y464D01*
X824Y464D02*
X831Y464D01*
X77Y463D02*
X84Y463D01*
X117Y463D02*
X124Y463D01*
X156Y463D02*
X163Y463D01*
X196Y463D02*
X203Y463D01*
X235Y463D02*
X242Y463D01*
X275Y463D02*
X282Y463D01*
X627Y463D02*
X634Y463D01*
X667Y463D02*
X674Y463D01*
X706Y463D02*
X713Y463D01*
X745Y463D02*
X752Y463D01*
X785Y463D02*
X792Y463D01*
X824Y463D02*
X831Y463D01*
X77Y462D02*
X84Y462D01*
X117Y462D02*
X124Y462D01*
X156Y462D02*
X163Y462D01*
X196Y462D02*
X203Y462D01*
X235Y462D02*
X242Y462D01*
X275Y462D02*
X282Y462D01*
X627Y462D02*
X634Y462D01*
X667Y462D02*
X674Y462D01*
X706Y462D02*
X713Y462D01*
X745Y462D02*
X752Y462D01*
X785Y462D02*
X792Y462D01*
X824Y462D02*
X831Y462D01*
X1620Y462D02*
X1629Y462D01*
X77Y461D02*
X84Y461D01*
X117Y461D02*
X124Y461D01*
X156Y461D02*
X163Y461D01*
X196Y461D02*
X203Y461D01*
X235Y461D02*
X242Y461D01*
X275Y461D02*
X282Y461D01*
X627Y461D02*
X634Y461D01*
X667Y461D02*
X673Y461D01*
X706Y461D02*
X713Y461D01*
X745Y461D02*
X752Y461D01*
X785Y461D02*
X792Y461D01*
X824Y461D02*
X831Y461D01*
X1617Y461D02*
X1632Y461D01*
X77Y460D02*
X84Y460D01*
X117Y460D02*
X124Y460D01*
X156Y460D02*
X163Y460D01*
X196Y460D02*
X203Y460D01*
X235Y460D02*
X242Y460D01*
X275Y460D02*
X282Y460D01*
X627Y460D02*
X634Y460D01*
X667Y460D02*
X673Y460D01*
X706Y460D02*
X713Y460D01*
X745Y460D02*
X752Y460D01*
X785Y460D02*
X792Y460D01*
X824Y460D02*
X831Y460D01*
X1614Y460D02*
X1635Y460D01*
X77Y459D02*
X84Y459D01*
X117Y459D02*
X124Y459D01*
X156Y459D02*
X163Y459D01*
X196Y459D02*
X203Y459D01*
X236Y459D02*
X242Y459D01*
X275Y459D02*
X282Y459D01*
X627Y459D02*
X634Y459D01*
X666Y459D02*
X673Y459D01*
X706Y459D02*
X713Y459D01*
X745Y459D02*
X752Y459D01*
X785Y459D02*
X792Y459D01*
X824Y459D02*
X831Y459D01*
X1612Y459D02*
X1637Y459D01*
X78Y458D02*
X84Y458D01*
X117Y458D02*
X124Y458D01*
X157Y458D02*
X163Y458D01*
X196Y458D02*
X203Y458D01*
X236Y458D02*
X243Y458D01*
X275Y458D02*
X282Y458D01*
X627Y458D02*
X634Y458D01*
X666Y458D02*
X673Y458D01*
X706Y458D02*
X713Y458D01*
X745Y458D02*
X752Y458D01*
X785Y458D02*
X792Y458D01*
X824Y458D02*
X831Y458D01*
X1611Y458D02*
X1638Y458D01*
X78Y457D02*
X85Y457D01*
X117Y457D02*
X124Y457D01*
X157Y457D02*
X164Y457D01*
X196Y457D02*
X203Y457D01*
X236Y457D02*
X243Y457D01*
X276Y457D02*
X283Y457D01*
X627Y457D02*
X634Y457D01*
X666Y457D02*
X673Y457D01*
X706Y457D02*
X713Y457D01*
X745Y457D02*
X752Y457D01*
X785Y457D02*
X791Y457D01*
X824Y457D02*
X831Y457D01*
X1610Y457D02*
X1639Y457D01*
X78Y456D02*
X85Y456D01*
X117Y456D02*
X124Y456D01*
X157Y456D02*
X164Y456D01*
X196Y456D02*
X203Y456D01*
X236Y456D02*
X243Y456D01*
X276Y456D02*
X283Y456D01*
X627Y456D02*
X634Y456D01*
X666Y456D02*
X673Y456D01*
X706Y456D02*
X713Y456D01*
X745Y456D02*
X752Y456D01*
X785Y456D02*
X791Y456D01*
X824Y456D02*
X831Y456D01*
X1608Y456D02*
X1641Y456D01*
X78Y455D02*
X85Y455D01*
X117Y455D02*
X124Y455D01*
X157Y455D02*
X164Y455D01*
X196Y455D02*
X203Y455D01*
X236Y455D02*
X243Y455D01*
X276Y455D02*
X283Y455D01*
X627Y455D02*
X634Y455D01*
X666Y455D02*
X673Y455D01*
X706Y455D02*
X713Y455D01*
X745Y455D02*
X752Y455D01*
X784Y455D02*
X791Y455D01*
X824Y455D02*
X831Y455D01*
X1607Y455D02*
X1641Y455D01*
X78Y454D02*
X85Y454D01*
X117Y454D02*
X124Y454D01*
X157Y454D02*
X164Y454D01*
X197Y454D02*
X203Y454D01*
X236Y454D02*
X243Y454D01*
X276Y454D02*
X283Y454D01*
X627Y454D02*
X634Y454D01*
X666Y454D02*
X673Y454D01*
X706Y454D02*
X712Y454D01*
X745Y454D02*
X752Y454D01*
X784Y454D02*
X791Y454D01*
X824Y454D02*
X831Y454D01*
X1607Y454D02*
X1642Y454D01*
X78Y453D02*
X85Y453D01*
X118Y453D02*
X124Y453D01*
X157Y453D02*
X164Y453D01*
X197Y453D02*
X204Y453D01*
X236Y453D02*
X243Y453D01*
X276Y453D02*
X283Y453D01*
X627Y453D02*
X633Y453D01*
X666Y453D02*
X673Y453D01*
X706Y453D02*
X712Y453D01*
X745Y453D02*
X752Y453D01*
X784Y453D02*
X791Y453D01*
X824Y453D02*
X831Y453D01*
X1606Y453D02*
X1643Y453D01*
X78Y452D02*
X85Y452D01*
X118Y452D02*
X125Y452D01*
X157Y452D02*
X164Y452D01*
X197Y452D02*
X204Y452D01*
X237Y452D02*
X244Y452D01*
X276Y452D02*
X283Y452D01*
X627Y452D02*
X633Y452D01*
X666Y452D02*
X673Y452D01*
X706Y452D02*
X712Y452D01*
X745Y452D02*
X752Y452D01*
X784Y452D02*
X791Y452D01*
X824Y452D02*
X831Y452D01*
X1605Y452D02*
X1644Y452D01*
X78Y451D02*
X85Y451D01*
X118Y451D02*
X125Y451D01*
X157Y451D02*
X164Y451D01*
X197Y451D02*
X204Y451D01*
X237Y451D02*
X244Y451D01*
X277Y451D02*
X284Y451D01*
X626Y451D02*
X633Y451D01*
X666Y451D02*
X673Y451D01*
X705Y451D02*
X712Y451D01*
X745Y451D02*
X752Y451D01*
X784Y451D02*
X791Y451D01*
X824Y451D02*
X831Y451D01*
X1605Y451D02*
X1644Y451D01*
X78Y450D02*
X85Y450D01*
X118Y450D02*
X125Y450D01*
X157Y450D02*
X164Y450D01*
X197Y450D02*
X204Y450D01*
X237Y450D02*
X244Y450D01*
X277Y450D02*
X284Y450D01*
X626Y450D02*
X633Y450D01*
X666Y450D02*
X673Y450D01*
X705Y450D02*
X712Y450D01*
X745Y450D02*
X752Y450D01*
X784Y450D02*
X791Y450D01*
X824Y450D02*
X830Y450D01*
X1604Y450D02*
X1645Y450D01*
X78Y449D02*
X85Y449D01*
X118Y449D02*
X125Y449D01*
X157Y449D02*
X164Y449D01*
X197Y449D02*
X204Y449D01*
X237Y449D02*
X244Y449D01*
X277Y449D02*
X284Y449D01*
X626Y449D02*
X633Y449D01*
X666Y449D02*
X673Y449D01*
X705Y449D02*
X712Y449D01*
X745Y449D02*
X752Y449D01*
X784Y449D02*
X791Y449D01*
X823Y449D02*
X830Y449D01*
X1604Y449D02*
X1619Y449D01*
X1630Y449D02*
X1645Y449D01*
X79Y448D02*
X85Y448D01*
X118Y448D02*
X125Y448D01*
X158Y448D02*
X165Y448D01*
X197Y448D02*
X204Y448D01*
X237Y448D02*
X244Y448D01*
X277Y448D02*
X284Y448D01*
X626Y448D02*
X633Y448D01*
X666Y448D02*
X673Y448D01*
X705Y448D02*
X712Y448D01*
X745Y448D02*
X752Y448D01*
X784Y448D02*
X791Y448D01*
X823Y448D02*
X830Y448D01*
X1603Y448D02*
X1618Y448D01*
X1631Y448D02*
X1646Y448D01*
X79Y447D02*
X86Y447D01*
X118Y447D02*
X125Y447D01*
X158Y447D02*
X165Y447D01*
X198Y447D02*
X204Y447D01*
X237Y447D02*
X244Y447D01*
X278Y447D02*
X285Y447D01*
X626Y447D02*
X633Y447D01*
X665Y447D02*
X672Y447D01*
X705Y447D02*
X712Y447D01*
X745Y447D02*
X751Y447D01*
X784Y447D02*
X791Y447D01*
X823Y447D02*
X830Y447D01*
X1603Y447D02*
X1616Y447D01*
X1633Y447D02*
X1646Y447D01*
X79Y446D02*
X86Y446D01*
X118Y446D02*
X125Y446D01*
X158Y446D02*
X165Y446D01*
X198Y446D02*
X205Y446D01*
X238Y446D02*
X245Y446D01*
X278Y446D02*
X285Y446D01*
X626Y446D02*
X633Y446D01*
X665Y446D02*
X672Y446D01*
X705Y446D02*
X712Y446D01*
X744Y446D02*
X751Y446D01*
X784Y446D02*
X791Y446D01*
X823Y446D02*
X830Y446D01*
X1602Y446D02*
X1615Y446D01*
X1634Y446D02*
X1647Y446D01*
X79Y445D02*
X86Y445D01*
X118Y445D02*
X125Y445D01*
X158Y445D02*
X165Y445D01*
X198Y445D02*
X205Y445D01*
X238Y445D02*
X245Y445D01*
X278Y445D02*
X285Y445D01*
X626Y445D02*
X633Y445D01*
X665Y445D02*
X672Y445D01*
X705Y445D02*
X712Y445D01*
X744Y445D02*
X751Y445D01*
X784Y445D02*
X791Y445D01*
X823Y445D02*
X830Y445D01*
X1602Y445D02*
X1615Y445D01*
X1634Y445D02*
X1647Y445D01*
X79Y444D02*
X86Y444D01*
X118Y444D02*
X125Y444D01*
X158Y444D02*
X165Y444D01*
X198Y444D02*
X205Y444D01*
X238Y444D02*
X245Y444D01*
X278Y444D02*
X285Y444D01*
X625Y444D02*
X632Y444D01*
X665Y444D02*
X672Y444D01*
X705Y444D02*
X712Y444D01*
X744Y444D02*
X751Y444D01*
X784Y444D02*
X791Y444D01*
X823Y444D02*
X830Y444D01*
X1602Y444D02*
X1614Y444D01*
X1635Y444D02*
X1647Y444D01*
X79Y443D02*
X86Y443D01*
X119Y443D02*
X126Y443D01*
X158Y443D02*
X165Y443D01*
X198Y443D02*
X205Y443D01*
X238Y443D02*
X245Y443D01*
X278Y443D02*
X286Y443D01*
X625Y443D02*
X632Y443D01*
X665Y443D02*
X672Y443D01*
X705Y443D02*
X712Y443D01*
X744Y443D02*
X751Y443D01*
X784Y443D02*
X791Y443D01*
X823Y443D02*
X830Y443D01*
X1602Y443D02*
X1614Y443D01*
X1635Y443D02*
X1647Y443D01*
X79Y442D02*
X86Y442D01*
X119Y442D02*
X126Y442D01*
X159Y442D02*
X165Y442D01*
X198Y442D02*
X205Y442D01*
X238Y442D02*
X245Y442D01*
X279Y442D02*
X286Y442D01*
X625Y442D02*
X632Y442D01*
X665Y442D02*
X672Y442D01*
X704Y442D02*
X711Y442D01*
X744Y442D02*
X751Y442D01*
X784Y442D02*
X791Y442D01*
X823Y442D02*
X830Y442D01*
X1601Y442D02*
X1613Y442D01*
X1636Y442D02*
X1648Y442D01*
X79Y441D02*
X86Y441D01*
X119Y441D02*
X126Y441D01*
X159Y441D02*
X166Y441D01*
X198Y441D02*
X205Y441D01*
X239Y441D02*
X246Y441D01*
X279Y441D02*
X286Y441D01*
X625Y441D02*
X632Y441D01*
X665Y441D02*
X672Y441D01*
X704Y441D02*
X711Y441D01*
X744Y441D02*
X751Y441D01*
X784Y441D02*
X790Y441D01*
X823Y441D02*
X830Y441D01*
X1601Y441D02*
X1613Y441D01*
X1636Y441D02*
X1648Y441D01*
X79Y440D02*
X86Y440D01*
X119Y440D02*
X126Y440D01*
X159Y440D02*
X166Y440D01*
X199Y440D02*
X206Y440D01*
X239Y440D02*
X246Y440D01*
X279Y440D02*
X286Y440D01*
X625Y440D02*
X632Y440D01*
X665Y440D02*
X672Y440D01*
X704Y440D02*
X711Y440D01*
X744Y440D02*
X751Y440D01*
X783Y440D02*
X790Y440D01*
X823Y440D02*
X830Y440D01*
X1601Y440D02*
X1613Y440D01*
X1636Y440D02*
X1648Y440D01*
X79Y439D02*
X86Y439D01*
X119Y439D02*
X126Y439D01*
X159Y439D02*
X166Y439D01*
X199Y439D02*
X206Y439D01*
X239Y439D02*
X246Y439D01*
X280Y439D02*
X287Y439D01*
X625Y439D02*
X632Y439D01*
X664Y439D02*
X671Y439D01*
X704Y439D02*
X711Y439D01*
X744Y439D02*
X751Y439D01*
X783Y439D02*
X790Y439D01*
X823Y439D02*
X830Y439D01*
X1601Y439D02*
X1613Y439D01*
X1636Y439D02*
X1648Y439D01*
X80Y438D02*
X87Y438D01*
X119Y438D02*
X126Y438D01*
X159Y438D02*
X166Y438D01*
X199Y438D02*
X206Y438D01*
X239Y438D02*
X246Y438D01*
X280Y438D02*
X287Y438D01*
X624Y438D02*
X631Y438D01*
X664Y438D02*
X671Y438D01*
X704Y438D02*
X711Y438D01*
X744Y438D02*
X751Y438D01*
X783Y438D02*
X790Y438D01*
X823Y438D02*
X830Y438D01*
X1601Y438D02*
X1613Y438D01*
X1636Y438D02*
X1648Y438D01*
X80Y437D02*
X87Y437D01*
X120Y437D02*
X126Y437D01*
X159Y437D02*
X166Y437D01*
X199Y437D02*
X206Y437D01*
X239Y437D02*
X246Y437D01*
X280Y437D02*
X287Y437D01*
X624Y437D02*
X631Y437D01*
X664Y437D02*
X671Y437D01*
X704Y437D02*
X711Y437D01*
X743Y437D02*
X750Y437D01*
X783Y437D02*
X790Y437D01*
X823Y437D02*
X830Y437D01*
X1601Y437D02*
X1613Y437D01*
X1636Y437D02*
X1648Y437D01*
X80Y436D02*
X87Y436D01*
X120Y436D02*
X127Y436D01*
X159Y436D02*
X166Y436D01*
X199Y436D02*
X206Y436D01*
X240Y436D02*
X247Y436D01*
X280Y436D02*
X288Y436D01*
X624Y436D02*
X631Y436D01*
X664Y436D02*
X671Y436D01*
X704Y436D02*
X711Y436D01*
X743Y436D02*
X750Y436D01*
X783Y436D02*
X790Y436D01*
X823Y436D02*
X829Y436D01*
X1601Y436D02*
X1613Y436D01*
X1636Y436D02*
X1648Y436D01*
X80Y435D02*
X87Y435D01*
X120Y435D02*
X127Y435D01*
X160Y435D02*
X167Y435D01*
X200Y435D02*
X207Y435D01*
X240Y435D02*
X247Y435D01*
X281Y435D02*
X288Y435D01*
X624Y435D02*
X631Y435D01*
X664Y435D02*
X671Y435D01*
X704Y435D02*
X711Y435D01*
X743Y435D02*
X750Y435D01*
X783Y435D02*
X790Y435D01*
X822Y435D02*
X829Y435D01*
X1601Y435D02*
X1613Y435D01*
X1636Y435D02*
X1648Y435D01*
X80Y434D02*
X87Y434D01*
X120Y434D02*
X127Y434D01*
X160Y434D02*
X167Y434D01*
X200Y434D02*
X207Y434D01*
X240Y434D02*
X247Y434D01*
X281Y434D02*
X288Y434D01*
X624Y434D02*
X631Y434D01*
X664Y434D02*
X671Y434D01*
X703Y434D02*
X710Y434D01*
X743Y434D02*
X750Y434D01*
X783Y434D02*
X790Y434D01*
X822Y434D02*
X829Y434D01*
X1602Y434D02*
X1614Y434D01*
X1635Y434D02*
X1647Y434D01*
X80Y433D02*
X87Y433D01*
X120Y433D02*
X127Y433D01*
X160Y433D02*
X167Y433D01*
X200Y433D02*
X207Y433D01*
X240Y433D02*
X248Y433D01*
X281Y433D02*
X289Y433D01*
X623Y433D02*
X630Y433D01*
X664Y433D02*
X670Y433D01*
X703Y433D02*
X710Y433D01*
X743Y433D02*
X750Y433D01*
X783Y433D02*
X790Y433D01*
X822Y433D02*
X829Y433D01*
X1602Y433D02*
X1614Y433D01*
X1635Y433D02*
X1647Y433D01*
X80Y432D02*
X87Y432D01*
X120Y432D02*
X127Y432D01*
X160Y432D02*
X167Y432D01*
X200Y432D02*
X207Y432D01*
X241Y432D02*
X248Y432D01*
X282Y432D02*
X289Y432D01*
X623Y432D02*
X630Y432D01*
X663Y432D02*
X670Y432D01*
X703Y432D02*
X710Y432D01*
X743Y432D02*
X750Y432D01*
X783Y432D02*
X789Y432D01*
X822Y432D02*
X829Y432D01*
X1602Y432D02*
X1615Y432D01*
X1634Y432D02*
X1647Y432D01*
X81Y431D02*
X88Y431D01*
X120Y431D02*
X127Y431D01*
X160Y431D02*
X167Y431D01*
X200Y431D02*
X208Y431D01*
X241Y431D02*
X248Y431D01*
X282Y431D02*
X289Y431D01*
X623Y431D02*
X630Y431D01*
X663Y431D02*
X670Y431D01*
X703Y431D02*
X710Y431D01*
X743Y431D02*
X750Y431D01*
X782Y431D02*
X789Y431D01*
X822Y431D02*
X829Y431D01*
X1603Y431D02*
X1616Y431D01*
X1633Y431D02*
X1646Y431D01*
X81Y430D02*
X88Y430D01*
X121Y430D02*
X128Y430D01*
X161Y430D02*
X168Y430D01*
X201Y430D02*
X208Y430D01*
X241Y430D02*
X248Y430D01*
X282Y430D02*
X290Y430D01*
X623Y430D02*
X630Y430D01*
X663Y430D02*
X670Y430D01*
X703Y430D02*
X710Y430D01*
X743Y430D02*
X750Y430D01*
X782Y430D02*
X789Y430D01*
X822Y430D02*
X829Y430D01*
X1603Y430D02*
X1617Y430D01*
X1632Y430D02*
X1646Y430D01*
X81Y429D02*
X88Y429D01*
X121Y429D02*
X128Y429D01*
X161Y429D02*
X168Y429D01*
X201Y429D02*
X208Y429D01*
X241Y429D02*
X249Y429D01*
X283Y429D02*
X290Y429D01*
X623Y429D02*
X630Y429D01*
X663Y429D02*
X670Y429D01*
X703Y429D02*
X710Y429D01*
X743Y429D02*
X749Y429D01*
X782Y429D02*
X789Y429D01*
X822Y429D02*
X829Y429D01*
X1603Y429D02*
X1619Y429D01*
X1630Y429D02*
X1646Y429D01*
X81Y428D02*
X88Y428D01*
X121Y428D02*
X128Y428D01*
X161Y428D02*
X168Y428D01*
X201Y428D02*
X208Y428D01*
X242Y428D02*
X249Y428D01*
X283Y428D02*
X290Y428D01*
X622Y428D02*
X629Y428D01*
X663Y428D02*
X670Y428D01*
X703Y428D02*
X709Y428D01*
X742Y428D02*
X749Y428D01*
X782Y428D02*
X789Y428D01*
X822Y428D02*
X829Y428D01*
X1604Y428D02*
X1621Y428D01*
X1628Y428D02*
X1645Y428D01*
X81Y427D02*
X88Y427D01*
X121Y427D02*
X128Y427D01*
X161Y427D02*
X168Y427D01*
X201Y427D02*
X208Y427D01*
X242Y427D02*
X249Y427D01*
X283Y427D02*
X291Y427D01*
X622Y427D02*
X629Y427D01*
X662Y427D02*
X669Y427D01*
X702Y427D02*
X709Y427D01*
X742Y427D02*
X749Y427D01*
X782Y427D02*
X789Y427D01*
X822Y427D02*
X828Y427D01*
X1604Y427D02*
X1645Y427D01*
X81Y426D02*
X88Y426D01*
X121Y426D02*
X128Y426D01*
X161Y426D02*
X168Y426D01*
X202Y426D02*
X209Y426D01*
X242Y426D02*
X249Y426D01*
X284Y426D02*
X291Y426D01*
X622Y426D02*
X629Y426D01*
X662Y426D02*
X669Y426D01*
X702Y426D02*
X709Y426D01*
X742Y426D02*
X749Y426D01*
X782Y426D02*
X789Y426D01*
X821Y426D02*
X828Y426D01*
X1605Y426D02*
X1644Y426D01*
X82Y425D02*
X88Y425D01*
X121Y425D02*
X128Y425D01*
X162Y425D02*
X169Y425D01*
X202Y425D02*
X209Y425D01*
X243Y425D02*
X250Y425D01*
X284Y425D02*
X291Y425D01*
X621Y425D02*
X629Y425D01*
X662Y425D02*
X669Y425D01*
X702Y425D02*
X709Y425D01*
X742Y425D02*
X749Y425D01*
X782Y425D02*
X789Y425D01*
X821Y425D02*
X828Y425D01*
X1606Y425D02*
X1643Y425D01*
X82Y424D02*
X89Y424D01*
X122Y424D02*
X129Y424D01*
X162Y424D02*
X169Y424D01*
X202Y424D02*
X209Y424D01*
X243Y424D02*
X250Y424D01*
X284Y424D02*
X292Y424D01*
X621Y424D02*
X628Y424D01*
X662Y424D02*
X669Y424D01*
X702Y424D02*
X709Y424D01*
X742Y424D02*
X749Y424D01*
X782Y424D02*
X789Y424D01*
X821Y424D02*
X828Y424D01*
X1606Y424D02*
X1643Y424D01*
X82Y423D02*
X89Y423D01*
X122Y423D02*
X129Y423D01*
X162Y423D02*
X169Y423D01*
X202Y423D02*
X210Y423D01*
X243Y423D02*
X250Y423D01*
X285Y423D02*
X292Y423D01*
X621Y423D02*
X628Y423D01*
X661Y423D02*
X669Y423D01*
X702Y423D02*
X709Y423D01*
X742Y423D02*
X748Y423D01*
X781Y423D02*
X788Y423D01*
X821Y423D02*
X828Y423D01*
X1607Y423D02*
X1642Y423D01*
X82Y422D02*
X89Y422D01*
X122Y422D02*
X129Y422D01*
X162Y422D02*
X169Y422D01*
X203Y422D02*
X210Y422D01*
X243Y422D02*
X251Y422D01*
X285Y422D02*
X293Y422D01*
X621Y422D02*
X628Y422D01*
X661Y422D02*
X668Y422D01*
X701Y422D02*
X708Y422D01*
X741Y422D02*
X748Y422D01*
X781Y422D02*
X788Y422D01*
X821Y422D02*
X828Y422D01*
X1608Y422D02*
X1641Y422D01*
X82Y421D02*
X89Y421D01*
X122Y421D02*
X129Y421D01*
X162Y421D02*
X169Y421D01*
X203Y421D02*
X210Y421D01*
X244Y421D02*
X251Y421D01*
X286Y421D02*
X293Y421D01*
X620Y421D02*
X628Y421D01*
X661Y421D02*
X668Y421D01*
X701Y421D02*
X708Y421D01*
X741Y421D02*
X748Y421D01*
X781Y421D02*
X788Y421D01*
X821Y421D02*
X828Y421D01*
X1609Y421D02*
X1640Y421D01*
X82Y420D02*
X89Y420D01*
X122Y420D02*
X129Y420D01*
X163Y420D02*
X170Y420D01*
X203Y420D02*
X210Y420D01*
X244Y420D02*
X251Y420D01*
X286Y420D02*
X293Y420D01*
X620Y420D02*
X627Y420D01*
X661Y420D02*
X668Y420D01*
X701Y420D02*
X708Y420D01*
X741Y420D02*
X748Y420D01*
X781Y420D02*
X788Y420D01*
X821Y420D02*
X828Y420D01*
X1610Y420D02*
X1639Y420D01*
X83Y419D02*
X90Y419D01*
X123Y419D02*
X130Y419D01*
X163Y419D02*
X170Y419D01*
X203Y419D02*
X211Y419D01*
X244Y419D02*
X252Y419D01*
X286Y419D02*
X294Y419D01*
X620Y419D02*
X627Y419D01*
X661Y419D02*
X668Y419D01*
X701Y419D02*
X708Y419D01*
X741Y419D02*
X748Y419D01*
X781Y419D02*
X788Y419D01*
X821Y419D02*
X828Y419D01*
X1612Y419D02*
X1637Y419D01*
X83Y418D02*
X90Y418D01*
X123Y418D02*
X130Y418D01*
X163Y418D02*
X170Y418D01*
X204Y418D02*
X211Y418D01*
X245Y418D02*
X252Y418D01*
X287Y418D02*
X294Y418D01*
X619Y418D02*
X627Y418D01*
X660Y418D02*
X667Y418D01*
X701Y418D02*
X708Y418D01*
X741Y418D02*
X748Y418D01*
X781Y418D02*
X788Y418D01*
X820Y418D02*
X827Y418D01*
X1614Y418D02*
X1635Y418D01*
X83Y417D02*
X90Y417D01*
X123Y417D02*
X130Y417D01*
X163Y417D02*
X170Y417D01*
X204Y417D02*
X211Y417D01*
X245Y417D02*
X252Y417D01*
X287Y417D02*
X295Y417D01*
X619Y417D02*
X626Y417D01*
X660Y417D02*
X667Y417D01*
X700Y417D02*
X707Y417D01*
X741Y417D02*
X748Y417D01*
X780Y417D02*
X787Y417D01*
X820Y417D02*
X827Y417D01*
X1615Y417D02*
X1633Y417D01*
X83Y416D02*
X90Y416D01*
X123Y416D02*
X130Y416D01*
X164Y416D02*
X171Y416D01*
X204Y416D02*
X211Y416D01*
X245Y416D02*
X253Y416D01*
X288Y416D02*
X295Y416D01*
X619Y416D02*
X626Y416D01*
X660Y416D02*
X667Y416D01*
X700Y416D02*
X707Y416D01*
X740Y416D02*
X747Y416D01*
X780Y416D02*
X787Y416D01*
X820Y416D02*
X827Y416D01*
X1618Y416D02*
X1631Y416D01*
X83Y415D02*
X90Y415D01*
X123Y415D02*
X130Y415D01*
X164Y415D02*
X171Y415D01*
X204Y415D02*
X212Y415D01*
X246Y415D02*
X253Y415D01*
X288Y415D02*
X296Y415D01*
X619Y415D02*
X626Y415D01*
X659Y415D02*
X667Y415D01*
X700Y415D02*
X707Y415D01*
X740Y415D02*
X747Y415D01*
X780Y415D02*
X787Y415D01*
X820Y415D02*
X827Y415D01*
X1623Y415D02*
X1626Y415D01*
X84Y414D02*
X91Y414D01*
X124Y414D02*
X131Y414D01*
X164Y414D02*
X171Y414D01*
X205Y414D02*
X212Y414D01*
X246Y414D02*
X254Y414D01*
X289Y414D02*
X296Y414D01*
X618Y414D02*
X625Y414D01*
X659Y414D02*
X666Y414D01*
X700Y414D02*
X707Y414D01*
X740Y414D02*
X747Y414D01*
X780Y414D02*
X787Y414D01*
X820Y414D02*
X827Y414D01*
X84Y413D02*
X91Y413D01*
X124Y413D02*
X131Y413D01*
X164Y413D02*
X171Y413D01*
X205Y413D02*
X212Y413D01*
X246Y413D02*
X254Y413D01*
X289Y413D02*
X297Y413D01*
X618Y413D02*
X625Y413D01*
X659Y413D02*
X666Y413D01*
X700Y413D02*
X707Y413D01*
X740Y413D02*
X747Y413D01*
X780Y413D02*
X787Y413D01*
X820Y413D02*
X827Y413D01*
X84Y412D02*
X91Y412D01*
X124Y412D02*
X131Y412D01*
X165Y412D02*
X172Y412D01*
X205Y412D02*
X213Y412D01*
X247Y412D02*
X254Y412D01*
X289Y412D02*
X297Y412D01*
X618Y412D02*
X625Y412D01*
X659Y412D02*
X666Y412D01*
X699Y412D02*
X706Y412D01*
X740Y412D02*
X747Y412D01*
X780Y412D02*
X787Y412D01*
X819Y412D02*
X826Y412D01*
X84Y411D02*
X91Y411D01*
X124Y411D02*
X131Y411D01*
X165Y411D02*
X172Y411D01*
X206Y411D02*
X213Y411D01*
X247Y411D02*
X255Y411D01*
X290Y411D02*
X298Y411D01*
X617Y411D02*
X625Y411D01*
X658Y411D02*
X666Y411D01*
X699Y411D02*
X706Y411D01*
X739Y411D02*
X746Y411D01*
X779Y411D02*
X786Y411D01*
X819Y411D02*
X826Y411D01*
X84Y410D02*
X91Y410D01*
X124Y410D02*
X132Y410D01*
X165Y410D02*
X172Y410D01*
X206Y410D02*
X213Y410D01*
X248Y410D02*
X255Y410D01*
X290Y410D02*
X298Y410D01*
X617Y410D02*
X624Y410D01*
X658Y410D02*
X665Y410D01*
X699Y410D02*
X706Y410D01*
X739Y410D02*
X746Y410D01*
X779Y410D02*
X786Y410D01*
X819Y410D02*
X826Y410D01*
X85Y409D02*
X92Y409D01*
X125Y409D02*
X132Y409D01*
X165Y409D02*
X173Y409D01*
X206Y409D02*
X214Y409D01*
X248Y409D02*
X255Y409D01*
X291Y409D02*
X299Y409D01*
X616Y409D02*
X624Y409D01*
X658Y409D02*
X665Y409D01*
X699Y409D02*
X706Y409D01*
X739Y409D02*
X746Y409D01*
X779Y409D02*
X786Y409D01*
X819Y409D02*
X826Y409D01*
X85Y408D02*
X92Y408D01*
X125Y408D02*
X132Y408D01*
X166Y408D02*
X173Y408D01*
X207Y408D02*
X214Y408D01*
X248Y408D02*
X256Y408D01*
X291Y408D02*
X299Y408D01*
X616Y408D02*
X623Y408D01*
X658Y408D02*
X665Y408D01*
X698Y408D02*
X705Y408D01*
X739Y408D02*
X746Y408D01*
X779Y408D02*
X786Y408D01*
X819Y408D02*
X826Y408D01*
X85Y407D02*
X92Y407D01*
X125Y407D02*
X132Y407D01*
X166Y407D02*
X173Y407D01*
X207Y407D02*
X214Y407D01*
X249Y407D02*
X256Y407D01*
X292Y407D02*
X300Y407D01*
X616Y407D02*
X623Y407D01*
X657Y407D02*
X665Y407D01*
X698Y407D02*
X705Y407D01*
X738Y407D02*
X746Y407D01*
X779Y407D02*
X786Y407D01*
X819Y407D02*
X826Y407D01*
X85Y406D02*
X92Y406D01*
X126Y406D02*
X133Y406D01*
X166Y406D02*
X173Y406D01*
X207Y406D02*
X215Y406D01*
X249Y406D02*
X257Y406D01*
X292Y406D02*
X300Y406D01*
X615Y406D02*
X623Y406D01*
X657Y406D02*
X664Y406D01*
X698Y406D02*
X705Y406D01*
X738Y406D02*
X745Y406D01*
X779Y406D02*
X786Y406D01*
X818Y406D02*
X825Y406D01*
X85Y405D02*
X92Y405D01*
X126Y405D02*
X133Y405D01*
X166Y405D02*
X174Y405D01*
X208Y405D02*
X215Y405D01*
X250Y405D02*
X257Y405D01*
X293Y405D02*
X301Y405D01*
X615Y405D02*
X622Y405D01*
X657Y405D02*
X664Y405D01*
X698Y405D02*
X705Y405D01*
X738Y405D02*
X745Y405D01*
X778Y405D02*
X785Y405D01*
X818Y405D02*
X825Y405D01*
X86Y404D02*
X93Y404D01*
X126Y404D02*
X133Y404D01*
X167Y404D02*
X174Y404D01*
X208Y404D02*
X215Y404D01*
X250Y404D02*
X258Y404D01*
X294Y404D02*
X301Y404D01*
X615Y404D02*
X622Y404D01*
X656Y404D02*
X664Y404D01*
X697Y404D02*
X704Y404D01*
X738Y404D02*
X745Y404D01*
X778Y404D02*
X785Y404D01*
X818Y404D02*
X825Y404D01*
X86Y403D02*
X93Y403D01*
X126Y403D02*
X133Y403D01*
X167Y403D02*
X174Y403D01*
X208Y403D02*
X216Y403D01*
X250Y403D02*
X258Y403D01*
X294Y403D02*
X302Y403D01*
X614Y403D02*
X622Y403D01*
X656Y403D02*
X663Y403D01*
X697Y403D02*
X704Y403D01*
X738Y403D02*
X745Y403D01*
X778Y403D02*
X785Y403D01*
X818Y403D02*
X825Y403D01*
X86Y402D02*
X93Y402D01*
X127Y402D02*
X134Y402D01*
X167Y402D02*
X175Y402D01*
X209Y402D02*
X216Y402D01*
X251Y402D02*
X258Y402D01*
X295Y402D02*
X303Y402D01*
X614Y402D02*
X621Y402D01*
X656Y402D02*
X663Y402D01*
X697Y402D02*
X704Y402D01*
X737Y402D02*
X744Y402D01*
X778Y402D02*
X785Y402D01*
X818Y402D02*
X825Y402D01*
X86Y401D02*
X93Y401D01*
X127Y401D02*
X134Y401D01*
X168Y401D02*
X175Y401D01*
X209Y401D02*
X216Y401D01*
X251Y401D02*
X259Y401D01*
X295Y401D02*
X303Y401D01*
X613Y401D02*
X621Y401D01*
X655Y401D02*
X663Y401D01*
X696Y401D02*
X704Y401D01*
X737Y401D02*
X744Y401D01*
X777Y401D02*
X784Y401D01*
X818Y401D02*
X825Y401D01*
X86Y400D02*
X94Y400D01*
X127Y400D02*
X134Y400D01*
X168Y400D02*
X175Y400D01*
X209Y400D02*
X217Y400D01*
X252Y400D02*
X259Y400D01*
X296Y400D02*
X304Y400D01*
X613Y400D02*
X621Y400D01*
X655Y400D02*
X662Y400D01*
X696Y400D02*
X703Y400D01*
X737Y400D02*
X744Y400D01*
X777Y400D02*
X784Y400D01*
X817Y400D02*
X824Y400D01*
X87Y399D02*
X94Y399D01*
X127Y399D02*
X134Y399D01*
X168Y399D02*
X176Y399D01*
X210Y399D02*
X217Y399D01*
X252Y399D02*
X260Y399D01*
X296Y399D02*
X304Y399D01*
X613Y399D02*
X620Y399D01*
X655Y399D02*
X662Y399D01*
X696Y399D02*
X703Y399D01*
X737Y399D02*
X744Y399D01*
X777Y399D02*
X784Y399D01*
X817Y399D02*
X824Y399D01*
X87Y398D02*
X94Y398D01*
X128Y398D02*
X135Y398D01*
X169Y398D02*
X176Y398D01*
X210Y398D02*
X218Y398D01*
X253Y398D02*
X260Y398D01*
X297Y398D02*
X305Y398D01*
X612Y398D02*
X620Y398D01*
X654Y398D02*
X662Y398D01*
X696Y398D02*
X703Y398D01*
X736Y398D02*
X744Y398D01*
X777Y398D02*
X784Y398D01*
X817Y398D02*
X824Y398D01*
X87Y397D02*
X94Y397D01*
X128Y397D02*
X135Y397D01*
X169Y397D02*
X176Y397D01*
X211Y397D02*
X218Y397D01*
X253Y397D02*
X261Y397D01*
X298Y397D02*
X306Y397D01*
X612Y397D02*
X619Y397D01*
X654Y397D02*
X661Y397D01*
X695Y397D02*
X703Y397D01*
X736Y397D02*
X743Y397D01*
X777Y397D02*
X784Y397D01*
X817Y397D02*
X824Y397D01*
X87Y396D02*
X95Y396D01*
X128Y396D02*
X135Y396D01*
X169Y396D02*
X177Y396D01*
X211Y396D02*
X218Y396D01*
X254Y396D02*
X261Y396D01*
X298Y396D02*
X306Y396D01*
X611Y396D02*
X619Y396D01*
X654Y396D02*
X661Y396D01*
X695Y396D02*
X702Y396D01*
X736Y396D02*
X743Y396D01*
X776Y396D02*
X783Y396D01*
X817Y396D02*
X824Y396D01*
X88Y395D02*
X95Y395D01*
X128Y395D02*
X136Y395D01*
X170Y395D02*
X177Y395D01*
X211Y395D02*
X219Y395D01*
X254Y395D02*
X262Y395D01*
X299Y395D02*
X307Y395D01*
X611Y395D02*
X618Y395D01*
X653Y395D02*
X661Y395D01*
X695Y395D02*
X702Y395D01*
X736Y395D02*
X743Y395D01*
X776Y395D02*
X783Y395D01*
X816Y395D02*
X823Y395D01*
X88Y394D02*
X95Y394D01*
X129Y394D02*
X136Y394D01*
X170Y394D02*
X177Y394D01*
X212Y394D02*
X219Y394D01*
X254Y394D02*
X262Y394D01*
X299Y394D02*
X308Y394D01*
X610Y394D02*
X618Y394D01*
X653Y394D02*
X660Y394D01*
X694Y394D02*
X702Y394D01*
X735Y394D02*
X742Y394D01*
X776Y394D02*
X783Y394D01*
X816Y394D02*
X823Y394D01*
X88Y393D02*
X95Y393D01*
X129Y393D02*
X136Y393D01*
X170Y393D02*
X177Y393D01*
X212Y393D02*
X219Y393D01*
X255Y393D02*
X263Y393D01*
X300Y393D02*
X308Y393D01*
X610Y393D02*
X617Y393D01*
X652Y393D02*
X660Y393D01*
X694Y393D02*
X701Y393D01*
X735Y393D02*
X742Y393D01*
X776Y393D02*
X783Y393D01*
X816Y393D02*
X823Y393D01*
X89Y392D02*
X96Y392D01*
X129Y392D02*
X137Y392D01*
X171Y392D02*
X178Y392D01*
X212Y392D02*
X220Y392D01*
X255Y392D02*
X263Y392D01*
X301Y392D02*
X309Y392D01*
X609Y392D02*
X617Y392D01*
X652Y392D02*
X660Y392D01*
X694Y392D02*
X701Y392D01*
X735Y392D02*
X742Y392D01*
X775Y392D02*
X782Y392D01*
X816Y392D02*
X823Y392D01*
X89Y391D02*
X96Y391D01*
X130Y391D02*
X137Y391D01*
X171Y391D02*
X178Y391D01*
X213Y391D02*
X220Y391D01*
X256Y391D02*
X264Y391D01*
X301Y391D02*
X310Y391D01*
X609Y391D02*
X617Y391D01*
X652Y391D02*
X659Y391D01*
X693Y391D02*
X701Y391D01*
X734Y391D02*
X742Y391D01*
X775Y391D02*
X782Y391D01*
X815Y391D02*
X823Y391D01*
X89Y390D02*
X96Y390D01*
X130Y390D02*
X137Y390D01*
X171Y390D02*
X179Y390D01*
X213Y390D02*
X221Y390D01*
X256Y390D02*
X264Y390D01*
X302Y390D02*
X311Y390D01*
X608Y390D02*
X616Y390D01*
X651Y390D02*
X659Y390D01*
X693Y390D02*
X700Y390D01*
X734Y390D02*
X741Y390D01*
X775Y390D02*
X782Y390D01*
X815Y390D02*
X822Y390D01*
X89Y389D02*
X96Y389D01*
X130Y389D02*
X137Y389D01*
X172Y389D02*
X179Y389D01*
X214Y389D02*
X221Y389D01*
X257Y389D02*
X265Y389D01*
X303Y389D02*
X311Y389D01*
X608Y389D02*
X616Y389D01*
X651Y389D02*
X658Y389D01*
X693Y389D02*
X700Y389D01*
X734Y389D02*
X741Y389D01*
X775Y389D02*
X782Y389D01*
X815Y389D02*
X822Y389D01*
X90Y388D02*
X97Y388D01*
X131Y388D02*
X138Y388D01*
X172Y388D02*
X179Y388D01*
X214Y388D02*
X222Y388D01*
X258Y388D02*
X265Y388D01*
X303Y388D02*
X312Y388D01*
X607Y388D02*
X615Y388D01*
X651Y388D02*
X658Y388D01*
X692Y388D02*
X700Y388D01*
X734Y388D02*
X741Y388D01*
X774Y388D02*
X782Y388D01*
X815Y388D02*
X822Y388D01*
X90Y387D02*
X97Y387D01*
X131Y387D02*
X138Y387D01*
X172Y387D02*
X180Y387D01*
X215Y387D02*
X222Y387D01*
X258Y387D02*
X266Y387D01*
X304Y387D02*
X313Y387D01*
X607Y387D02*
X615Y387D01*
X650Y387D02*
X658Y387D01*
X692Y387D02*
X699Y387D01*
X733Y387D02*
X741Y387D01*
X774Y387D02*
X781Y387D01*
X815Y387D02*
X822Y387D01*
X90Y386D02*
X97Y386D01*
X131Y386D02*
X138Y386D01*
X173Y386D02*
X180Y386D01*
X215Y386D02*
X223Y386D01*
X259Y386D02*
X267Y386D01*
X305Y386D02*
X314Y386D01*
X606Y386D02*
X614Y386D01*
X650Y386D02*
X657Y386D01*
X692Y386D02*
X699Y386D01*
X733Y386D02*
X740Y386D01*
X774Y386D02*
X781Y386D01*
X814Y386D02*
X821Y386D01*
X90Y385D02*
X98Y385D01*
X131Y385D02*
X139Y385D01*
X173Y385D02*
X180Y385D01*
X215Y385D02*
X223Y385D01*
X259Y385D02*
X267Y385D01*
X305Y385D02*
X314Y385D01*
X606Y385D02*
X614Y385D01*
X649Y385D02*
X657Y385D01*
X691Y385D02*
X699Y385D01*
X733Y385D02*
X740Y385D01*
X774Y385D02*
X781Y385D01*
X814Y385D02*
X821Y385D01*
X91Y384D02*
X98Y384D01*
X132Y384D02*
X139Y384D01*
X173Y384D02*
X181Y384D01*
X216Y384D02*
X223Y384D01*
X260Y384D02*
X268Y384D01*
X306Y384D02*
X315Y384D01*
X605Y384D02*
X613Y384D01*
X649Y384D02*
X656Y384D01*
X691Y384D02*
X698Y384D01*
X733Y384D02*
X740Y384D01*
X773Y384D02*
X781Y384D01*
X814Y384D02*
X821Y384D01*
X91Y383D02*
X98Y383D01*
X132Y383D02*
X139Y383D01*
X174Y383D02*
X181Y383D01*
X216Y383D02*
X224Y383D01*
X260Y383D02*
X268Y383D01*
X307Y383D02*
X316Y383D01*
X605Y383D02*
X613Y383D01*
X648Y383D02*
X656Y383D01*
X691Y383D02*
X698Y383D01*
X732Y383D02*
X739Y383D01*
X773Y383D02*
X780Y383D01*
X814Y383D02*
X821Y383D01*
X1619Y383D02*
X1630Y383D01*
X91Y382D02*
X98Y382D01*
X132Y382D02*
X140Y382D01*
X174Y382D02*
X182Y382D01*
X217Y382D02*
X224Y382D01*
X261Y382D02*
X269Y382D01*
X308Y382D02*
X317Y382D01*
X604Y382D02*
X612Y382D01*
X648Y382D02*
X656Y382D01*
X690Y382D02*
X698Y382D01*
X732Y382D02*
X739Y382D01*
X773Y382D02*
X780Y382D01*
X813Y382D02*
X821Y382D01*
X1616Y382D02*
X1633Y382D01*
X92Y381D02*
X99Y381D01*
X133Y381D02*
X140Y381D01*
X175Y381D02*
X182Y381D01*
X217Y381D02*
X225Y381D01*
X261Y381D02*
X269Y381D01*
X308Y381D02*
X318Y381D01*
X604Y381D02*
X612Y381D01*
X648Y381D02*
X655Y381D01*
X690Y381D02*
X697Y381D01*
X732Y381D02*
X739Y381D01*
X773Y381D02*
X780Y381D01*
X813Y381D02*
X820Y381D01*
X1614Y381D02*
X1635Y381D01*
X92Y380D02*
X99Y380D01*
X133Y380D02*
X140Y380D01*
X175Y380D02*
X182Y380D01*
X218Y380D02*
X225Y380D01*
X262Y380D02*
X270Y380D01*
X309Y380D02*
X318Y380D01*
X603Y380D02*
X611Y380D01*
X647Y380D02*
X655Y380D01*
X690Y380D02*
X697Y380D01*
X731Y380D02*
X739Y380D01*
X772Y380D02*
X779Y380D01*
X813Y380D02*
X820Y380D01*
X1612Y380D02*
X1637Y380D01*
X92Y379D02*
X99Y379D01*
X133Y379D02*
X141Y379D01*
X175Y379D02*
X183Y379D01*
X218Y379D02*
X226Y379D01*
X262Y379D02*
X271Y379D01*
X310Y379D02*
X319Y379D01*
X602Y379D02*
X610Y379D01*
X647Y379D02*
X654Y379D01*
X689Y379D02*
X697Y379D01*
X731Y379D02*
X738Y379D01*
X772Y379D02*
X779Y379D01*
X813Y379D02*
X820Y379D01*
X1611Y379D02*
X1638Y379D01*
X92Y378D02*
X100Y378D01*
X134Y378D02*
X141Y378D01*
X176Y378D02*
X183Y378D01*
X219Y378D02*
X226Y378D01*
X263Y378D02*
X271Y378D01*
X311Y378D02*
X320Y378D01*
X602Y378D02*
X610Y378D01*
X646Y378D02*
X654Y378D01*
X689Y378D02*
X696Y378D01*
X731Y378D02*
X738Y378D01*
X772Y378D02*
X779Y378D01*
X813Y378D02*
X820Y378D01*
X1609Y378D02*
X1640Y378D01*
X93Y377D02*
X100Y377D01*
X134Y377D02*
X141Y377D01*
X176Y377D02*
X184Y377D01*
X219Y377D02*
X227Y377D01*
X264Y377D02*
X272Y377D01*
X312Y377D02*
X321Y377D01*
X601Y377D02*
X609Y377D01*
X646Y377D02*
X653Y377D01*
X688Y377D02*
X696Y377D01*
X730Y377D02*
X738Y377D01*
X771Y377D02*
X779Y377D01*
X812Y377D02*
X819Y377D01*
X1608Y377D02*
X1641Y377D01*
X93Y376D02*
X100Y376D01*
X134Y376D02*
X142Y376D01*
X176Y376D02*
X184Y376D01*
X220Y376D02*
X227Y376D01*
X264Y376D02*
X273Y376D01*
X312Y376D02*
X322Y376D01*
X601Y376D02*
X609Y376D01*
X645Y376D02*
X653Y376D01*
X688Y376D02*
X696Y376D01*
X730Y376D02*
X737Y376D01*
X771Y376D02*
X778Y376D01*
X812Y376D02*
X819Y376D01*
X1607Y376D02*
X1642Y376D01*
X93Y375D02*
X101Y375D01*
X135Y375D02*
X142Y375D01*
X177Y375D02*
X184Y375D01*
X220Y375D02*
X228Y375D01*
X265Y375D02*
X273Y375D01*
X313Y375D02*
X323Y375D01*
X600Y375D02*
X608Y375D01*
X645Y375D02*
X652Y375D01*
X688Y375D02*
X695Y375D01*
X730Y375D02*
X737Y375D01*
X771Y375D02*
X778Y375D01*
X812Y375D02*
X819Y375D01*
X1606Y375D02*
X1643Y375D01*
X94Y374D02*
X101Y374D01*
X135Y374D02*
X143Y374D01*
X177Y374D02*
X185Y374D01*
X221Y374D02*
X228Y374D01*
X265Y374D02*
X274Y374D01*
X314Y374D02*
X324Y374D01*
X599Y374D02*
X608Y374D01*
X644Y374D02*
X652Y374D01*
X687Y374D02*
X695Y374D01*
X729Y374D02*
X737Y374D01*
X771Y374D02*
X778Y374D01*
X811Y374D02*
X819Y374D01*
X1606Y374D02*
X1643Y374D01*
X94Y373D02*
X101Y373D01*
X136Y373D02*
X143Y373D01*
X178Y373D02*
X185Y373D01*
X221Y373D02*
X229Y373D01*
X266Y373D02*
X275Y373D01*
X315Y373D02*
X325Y373D01*
X599Y373D02*
X607Y373D01*
X644Y373D02*
X652Y373D01*
X687Y373D02*
X694Y373D01*
X729Y373D02*
X736Y373D01*
X770Y373D02*
X777Y373D01*
X811Y373D02*
X818Y373D01*
X1605Y373D02*
X1644Y373D01*
X94Y372D02*
X102Y372D01*
X136Y372D02*
X143Y372D01*
X178Y372D02*
X186Y372D01*
X222Y372D02*
X229Y372D01*
X267Y372D02*
X275Y372D01*
X316Y372D02*
X326Y372D01*
X598Y372D02*
X606Y372D01*
X643Y372D02*
X651Y372D01*
X687Y372D02*
X694Y372D01*
X729Y372D02*
X736Y372D01*
X770Y372D02*
X777Y372D01*
X811Y372D02*
X818Y372D01*
X1604Y372D02*
X1645Y372D01*
X95Y371D02*
X102Y371D01*
X136Y371D02*
X144Y371D01*
X179Y371D02*
X186Y371D01*
X222Y371D02*
X230Y371D01*
X267Y371D02*
X276Y371D01*
X317Y371D02*
X327Y371D01*
X598Y371D02*
X606Y371D01*
X643Y371D02*
X651Y371D01*
X686Y371D02*
X694Y371D01*
X728Y371D02*
X736Y371D01*
X770Y371D02*
X777Y371D01*
X811Y371D02*
X818Y371D01*
X1604Y371D02*
X1621Y371D01*
X1628Y371D02*
X1645Y371D01*
X95Y370D02*
X102Y370D01*
X137Y370D02*
X144Y370D01*
X179Y370D02*
X187Y370D01*
X223Y370D02*
X230Y370D01*
X268Y370D02*
X276Y370D01*
X318Y370D02*
X328Y370D01*
X597Y370D02*
X605Y370D01*
X642Y370D02*
X650Y370D01*
X686Y370D02*
X693Y370D01*
X728Y370D02*
X735Y370D01*
X769Y370D02*
X777Y370D01*
X810Y370D02*
X817Y370D01*
X1603Y370D02*
X1619Y370D01*
X1630Y370D02*
X1646Y370D01*
X95Y369D02*
X103Y369D01*
X137Y369D02*
X144Y369D01*
X179Y369D02*
X187Y369D01*
X223Y369D02*
X231Y369D01*
X269Y369D02*
X277Y369D01*
X319Y369D02*
X329Y369D01*
X596Y369D02*
X605Y369D01*
X642Y369D02*
X650Y369D01*
X685Y369D02*
X693Y369D01*
X728Y369D02*
X735Y369D01*
X769Y369D02*
X776Y369D01*
X810Y369D02*
X817Y369D01*
X1603Y369D02*
X1617Y369D01*
X1632Y369D02*
X1646Y369D01*
X96Y368D02*
X103Y368D01*
X137Y368D02*
X145Y368D01*
X180Y368D02*
X188Y368D01*
X224Y368D02*
X232Y368D01*
X269Y368D02*
X278Y368D01*
X320Y368D02*
X330Y368D01*
X596Y368D02*
X604Y368D01*
X641Y368D02*
X649Y368D01*
X685Y368D02*
X692Y368D01*
X727Y368D02*
X735Y368D01*
X769Y368D02*
X776Y368D01*
X810Y368D02*
X817Y368D01*
X1603Y368D02*
X1616Y368D01*
X1633Y368D02*
X1646Y368D01*
X96Y367D02*
X103Y367D01*
X138Y367D02*
X145Y367D01*
X180Y367D02*
X188Y367D01*
X224Y367D02*
X232Y367D01*
X270Y367D02*
X279Y367D01*
X321Y367D02*
X331Y367D01*
X595Y367D02*
X603Y367D01*
X641Y367D02*
X649Y367D01*
X684Y367D02*
X692Y367D01*
X727Y367D02*
X734Y367D01*
X768Y367D02*
X776Y367D01*
X809Y367D02*
X817Y367D01*
X1602Y367D02*
X1615Y367D01*
X1634Y367D02*
X1647Y367D01*
X96Y366D02*
X104Y366D01*
X138Y366D02*
X146Y366D01*
X181Y366D02*
X188Y366D01*
X225Y366D02*
X233Y366D01*
X271Y366D02*
X279Y366D01*
X321Y366D02*
X332Y366D01*
X594Y366D02*
X603Y366D01*
X640Y366D02*
X648Y366D01*
X684Y366D02*
X692Y366D01*
X726Y366D02*
X734Y366D01*
X768Y366D02*
X775Y366D01*
X809Y366D02*
X816Y366D01*
X1602Y366D02*
X1614Y366D01*
X1635Y366D02*
X1647Y366D01*
X97Y365D02*
X104Y365D01*
X139Y365D02*
X146Y365D01*
X181Y365D02*
X189Y365D01*
X225Y365D02*
X233Y365D01*
X271Y365D02*
X280Y365D01*
X323Y365D02*
X333Y365D01*
X593Y365D02*
X602Y365D01*
X640Y365D02*
X648Y365D01*
X683Y365D02*
X691Y365D01*
X726Y365D02*
X733Y365D01*
X768Y365D02*
X775Y365D01*
X809Y365D02*
X816Y365D01*
X1602Y365D02*
X1614Y365D01*
X1635Y365D02*
X1647Y365D01*
X97Y364D02*
X104Y364D01*
X139Y364D02*
X146Y364D01*
X182Y364D02*
X189Y364D01*
X226Y364D02*
X234Y364D01*
X272Y364D02*
X281Y364D01*
X324Y364D02*
X334Y364D01*
X593Y364D02*
X601Y364D01*
X639Y364D02*
X647Y364D01*
X683Y364D02*
X691Y364D01*
X726Y364D02*
X733Y364D01*
X767Y364D02*
X775Y364D01*
X809Y364D02*
X816Y364D01*
X1601Y364D02*
X1613Y364D01*
X1636Y364D02*
X1648Y364D01*
X97Y363D02*
X105Y363D01*
X139Y363D02*
X147Y363D01*
X182Y363D02*
X190Y363D01*
X226Y363D02*
X234Y363D01*
X273Y363D02*
X282Y363D01*
X325Y363D02*
X335Y363D01*
X592Y363D02*
X601Y363D01*
X639Y363D02*
X647Y363D01*
X683Y363D02*
X690Y363D01*
X725Y363D02*
X733Y363D01*
X767Y363D02*
X774Y363D01*
X808Y363D02*
X816Y363D01*
X1601Y363D02*
X1613Y363D01*
X1636Y363D02*
X1648Y363D01*
X98Y362D02*
X105Y362D01*
X140Y362D02*
X147Y362D01*
X183Y362D02*
X190Y362D01*
X227Y362D02*
X235Y362D01*
X274Y362D02*
X282Y362D01*
X326Y362D02*
X336Y362D01*
X591Y362D02*
X600Y362D01*
X638Y362D02*
X646Y362D01*
X682Y362D02*
X690Y362D01*
X725Y362D02*
X732Y362D01*
X767Y362D02*
X774Y362D01*
X808Y362D02*
X815Y362D01*
X1601Y362D02*
X1613Y362D01*
X1636Y362D02*
X1648Y362D01*
X98Y361D02*
X105Y361D01*
X140Y361D02*
X148Y361D01*
X183Y361D02*
X191Y361D01*
X227Y361D02*
X236Y361D01*
X274Y361D02*
X283Y361D01*
X327Y361D02*
X337Y361D01*
X591Y361D02*
X599Y361D01*
X637Y361D02*
X646Y361D01*
X682Y361D02*
X689Y361D01*
X724Y361D02*
X732Y361D01*
X766Y361D02*
X774Y361D01*
X808Y361D02*
X815Y361D01*
X1601Y361D02*
X1613Y361D01*
X1636Y361D02*
X1648Y361D01*
X98Y360D02*
X106Y360D01*
X141Y360D02*
X148Y360D01*
X184Y360D02*
X191Y360D01*
X228Y360D02*
X236Y360D01*
X275Y360D02*
X284Y360D01*
X328Y360D02*
X339Y360D01*
X590Y360D02*
X599Y360D01*
X637Y360D02*
X645Y360D01*
X681Y360D02*
X689Y360D01*
X724Y360D02*
X731Y360D01*
X766Y360D02*
X773Y360D01*
X807Y360D02*
X815Y360D01*
X1601Y360D02*
X1613Y360D01*
X1636Y360D02*
X1648Y360D01*
X99Y359D02*
X106Y359D01*
X141Y359D02*
X149Y359D01*
X184Y359D02*
X192Y359D01*
X229Y359D02*
X237Y359D01*
X276Y359D02*
X285Y359D01*
X329Y359D02*
X340Y359D01*
X589Y359D02*
X598Y359D01*
X636Y359D02*
X644Y359D01*
X681Y359D02*
X688Y359D01*
X724Y359D02*
X731Y359D01*
X766Y359D02*
X773Y359D01*
X807Y359D02*
X814Y359D01*
X1601Y359D02*
X1613Y359D01*
X1636Y359D02*
X1648Y359D01*
X99Y358D02*
X107Y358D01*
X141Y358D02*
X149Y358D01*
X185Y358D02*
X192Y358D01*
X229Y358D02*
X237Y358D01*
X277Y358D02*
X286Y358D01*
X330Y358D02*
X341Y358D01*
X588Y358D02*
X597Y358D01*
X636Y358D02*
X644Y358D01*
X680Y358D02*
X688Y358D01*
X723Y358D02*
X731Y358D01*
X765Y358D02*
X773Y358D01*
X807Y358D02*
X814Y358D01*
X1601Y358D02*
X1613Y358D01*
X1636Y358D02*
X1648Y358D01*
X100Y357D02*
X107Y357D01*
X142Y357D02*
X149Y357D01*
X185Y357D02*
X193Y357D01*
X230Y357D02*
X238Y357D01*
X277Y357D02*
X286Y357D01*
X331Y357D02*
X342Y357D01*
X587Y357D02*
X596Y357D01*
X635Y357D02*
X643Y357D01*
X680Y357D02*
X687Y357D01*
X723Y357D02*
X730Y357D01*
X765Y357D02*
X772Y357D01*
X806Y357D02*
X814Y357D01*
X1601Y357D02*
X1613Y357D01*
X1636Y357D02*
X1648Y357D01*
X100Y356D02*
X107Y356D01*
X142Y356D02*
X150Y356D01*
X186Y356D02*
X193Y356D01*
X230Y356D02*
X239Y356D01*
X278Y356D02*
X287Y356D01*
X332Y356D02*
X344Y356D01*
X587Y356D02*
X596Y356D01*
X635Y356D02*
X643Y356D01*
X679Y356D02*
X687Y356D01*
X722Y356D02*
X730Y356D01*
X765Y356D02*
X772Y356D01*
X806Y356D02*
X813Y356D01*
X1601Y356D02*
X1613Y356D01*
X1635Y356D02*
X1647Y356D01*
X100Y355D02*
X108Y355D01*
X143Y355D02*
X150Y355D01*
X186Y355D02*
X194Y355D01*
X231Y355D02*
X239Y355D01*
X279Y355D02*
X288Y355D01*
X333Y355D02*
X345Y355D01*
X586Y355D02*
X595Y355D01*
X634Y355D02*
X642Y355D01*
X679Y355D02*
X687Y355D01*
X722Y355D02*
X730Y355D01*
X764Y355D02*
X772Y355D01*
X806Y355D02*
X813Y355D01*
X1602Y355D02*
X1614Y355D01*
X1635Y355D02*
X1647Y355D01*
X101Y354D02*
X108Y354D01*
X143Y354D02*
X151Y354D01*
X187Y354D02*
X194Y354D01*
X232Y354D02*
X240Y354D01*
X280Y354D02*
X289Y354D01*
X335Y354D02*
X347Y354D01*
X585Y354D02*
X594Y354D01*
X633Y354D02*
X641Y354D01*
X678Y354D02*
X686Y354D01*
X722Y354D02*
X729Y354D01*
X764Y354D02*
X771Y354D01*
X805Y354D02*
X813Y354D01*
X1602Y354D02*
X1615Y354D01*
X1634Y354D02*
X1647Y354D01*
X101Y353D02*
X108Y353D01*
X144Y353D02*
X151Y353D01*
X187Y353D02*
X195Y353D01*
X232Y353D02*
X241Y353D01*
X280Y353D02*
X290Y353D01*
X336Y353D02*
X348Y353D01*
X584Y353D02*
X593Y353D01*
X633Y353D02*
X641Y353D01*
X678Y353D02*
X686Y353D01*
X721Y353D02*
X729Y353D01*
X764Y353D02*
X771Y353D01*
X805Y353D02*
X812Y353D01*
X1602Y353D02*
X1615Y353D01*
X1634Y353D02*
X1647Y353D01*
X101Y352D02*
X109Y352D01*
X144Y352D02*
X152Y352D01*
X188Y352D02*
X195Y352D01*
X233Y352D02*
X241Y352D01*
X281Y352D02*
X291Y352D01*
X337Y352D02*
X349Y352D01*
X583Y352D02*
X592Y352D01*
X632Y352D02*
X640Y352D01*
X677Y352D02*
X685Y352D01*
X721Y352D02*
X728Y352D01*
X763Y352D02*
X771Y352D01*
X805Y352D02*
X812Y352D01*
X1603Y352D02*
X1616Y352D01*
X1633Y352D02*
X1646Y352D01*
X102Y351D02*
X109Y351D01*
X144Y351D02*
X152Y351D01*
X188Y351D02*
X196Y351D01*
X233Y351D02*
X242Y351D01*
X282Y351D02*
X291Y351D01*
X338Y351D02*
X351Y351D01*
X582Y351D02*
X592Y351D01*
X631Y351D02*
X640Y351D01*
X677Y351D02*
X685Y351D01*
X720Y351D02*
X728Y351D01*
X763Y351D02*
X770Y351D01*
X804Y351D02*
X812Y351D01*
X1603Y351D02*
X1617Y351D01*
X1632Y351D02*
X1646Y351D01*
X102Y350D02*
X110Y350D01*
X145Y350D02*
X152Y350D01*
X189Y350D02*
X197Y350D01*
X234Y350D02*
X243Y350D01*
X283Y350D02*
X292Y350D01*
X340Y350D02*
X352Y350D01*
X582Y350D02*
X591Y350D01*
X631Y350D02*
X639Y350D01*
X676Y350D02*
X684Y350D01*
X720Y350D02*
X727Y350D01*
X762Y350D02*
X770Y350D01*
X804Y350D02*
X811Y350D01*
X1603Y350D02*
X1619Y350D01*
X1630Y350D02*
X1645Y350D01*
X103Y349D02*
X110Y349D01*
X145Y349D02*
X153Y349D01*
X189Y349D02*
X197Y349D01*
X235Y349D02*
X243Y349D01*
X284Y349D02*
X293Y349D01*
X341Y349D02*
X354Y349D01*
X581Y349D02*
X590Y349D01*
X630Y349D02*
X638Y349D01*
X676Y349D02*
X684Y349D01*
X719Y349D02*
X727Y349D01*
X762Y349D02*
X769Y349D01*
X804Y349D02*
X811Y349D01*
X1604Y349D02*
X1623Y349D01*
X1626Y349D02*
X1645Y349D01*
X103Y348D02*
X110Y348D01*
X146Y348D02*
X153Y348D01*
X190Y348D02*
X198Y348D01*
X235Y348D02*
X244Y348D01*
X285Y348D02*
X294Y348D01*
X342Y348D02*
X355Y348D01*
X437Y348D02*
X451Y348D01*
X580Y348D02*
X589Y348D01*
X629Y348D02*
X638Y348D01*
X675Y348D02*
X683Y348D01*
X719Y348D02*
X727Y348D01*
X762Y348D02*
X769Y348D01*
X803Y348D02*
X811Y348D01*
X1605Y348D02*
X1644Y348D01*
X103Y347D02*
X111Y347D01*
X146Y347D02*
X154Y347D01*
X190Y347D02*
X198Y347D01*
X236Y347D02*
X245Y347D01*
X285Y347D02*
X295Y347D01*
X344Y347D02*
X357Y347D01*
X437Y347D02*
X451Y347D01*
X579Y347D02*
X588Y347D01*
X629Y347D02*
X637Y347D01*
X675Y347D02*
X683Y347D01*
X718Y347D02*
X726Y347D01*
X761Y347D02*
X769Y347D01*
X803Y347D02*
X810Y347D01*
X1605Y347D02*
X1644Y347D01*
X104Y346D02*
X111Y346D01*
X147Y346D02*
X154Y346D01*
X191Y346D02*
X199Y346D01*
X237Y346D02*
X245Y346D01*
X286Y346D02*
X296Y346D01*
X345Y346D02*
X359Y346D01*
X437Y346D02*
X451Y346D01*
X578Y346D02*
X588Y346D01*
X628Y346D02*
X637Y346D01*
X674Y346D02*
X682Y346D01*
X718Y346D02*
X726Y346D01*
X761Y346D02*
X768Y346D01*
X803Y346D02*
X810Y346D01*
X1606Y346D02*
X1643Y346D01*
X104Y345D02*
X112Y345D01*
X147Y345D02*
X155Y345D01*
X191Y345D02*
X199Y345D01*
X237Y345D02*
X246Y345D01*
X287Y345D02*
X297Y345D01*
X347Y345D02*
X361Y345D01*
X437Y345D02*
X451Y345D01*
X577Y345D02*
X587Y345D01*
X627Y345D02*
X636Y345D01*
X674Y345D02*
X682Y345D01*
X718Y345D02*
X725Y345D01*
X760Y345D02*
X768Y345D01*
X802Y345D02*
X810Y345D01*
X1607Y345D02*
X1642Y345D01*
X105Y344D02*
X112Y344D01*
X148Y344D02*
X155Y344D01*
X192Y344D02*
X200Y344D01*
X238Y344D02*
X247Y344D01*
X288Y344D02*
X298Y344D01*
X348Y344D02*
X362Y344D01*
X437Y344D02*
X451Y344D01*
X576Y344D02*
X586Y344D01*
X627Y344D02*
X635Y344D01*
X673Y344D02*
X681Y344D01*
X717Y344D02*
X725Y344D01*
X760Y344D02*
X767Y344D01*
X802Y344D02*
X809Y344D01*
X1607Y344D02*
X1642Y344D01*
X105Y343D02*
X113Y343D01*
X148Y343D02*
X156Y343D01*
X192Y343D02*
X201Y343D01*
X239Y343D02*
X248Y343D01*
X289Y343D02*
X299Y343D01*
X350Y343D02*
X364Y343D01*
X437Y343D02*
X451Y343D01*
X575Y343D02*
X585Y343D01*
X626Y343D02*
X635Y343D01*
X672Y343D02*
X681Y343D01*
X717Y343D02*
X724Y343D01*
X760Y343D02*
X767Y343D01*
X802Y343D02*
X809Y343D01*
X1608Y343D02*
X1641Y343D01*
X105Y342D02*
X113Y342D01*
X149Y342D02*
X156Y342D01*
X193Y342D02*
X201Y342D01*
X239Y342D02*
X248Y342D01*
X290Y342D02*
X300Y342D01*
X351Y342D02*
X366Y342D01*
X437Y342D02*
X451Y342D01*
X574Y342D02*
X584Y342D01*
X625Y342D02*
X634Y342D01*
X672Y342D02*
X680Y342D01*
X716Y342D02*
X724Y342D01*
X759Y342D02*
X767Y342D01*
X801Y342D02*
X809Y342D01*
X1610Y342D02*
X1639Y342D01*
X106Y341D02*
X113Y341D01*
X149Y341D02*
X157Y341D01*
X194Y341D02*
X202Y341D01*
X240Y341D02*
X249Y341D01*
X291Y341D02*
X301Y341D01*
X353Y341D02*
X368Y341D01*
X437Y341D02*
X451Y341D01*
X573Y341D02*
X583Y341D01*
X625Y341D02*
X633Y341D01*
X671Y341D02*
X679Y341D01*
X716Y341D02*
X723Y341D01*
X759Y341D02*
X766Y341D01*
X801Y341D02*
X808Y341D01*
X1611Y341D02*
X1638Y341D01*
X106Y340D02*
X114Y340D01*
X150Y340D02*
X157Y340D01*
X194Y340D02*
X202Y340D01*
X241Y340D02*
X250Y340D01*
X292Y340D02*
X302Y340D01*
X354Y340D02*
X370Y340D01*
X437Y340D02*
X451Y340D01*
X572Y340D02*
X582Y340D01*
X624Y340D02*
X633Y340D01*
X671Y340D02*
X679Y340D01*
X715Y340D02*
X723Y340D01*
X758Y340D02*
X766Y340D01*
X801Y340D02*
X808Y340D01*
X1612Y340D02*
X1637Y340D01*
X107Y339D02*
X114Y339D01*
X150Y339D02*
X158Y339D01*
X195Y339D02*
X203Y339D01*
X242Y339D02*
X250Y339D01*
X293Y339D02*
X303Y339D01*
X356Y339D02*
X372Y339D01*
X437Y339D02*
X451Y339D01*
X571Y339D02*
X581Y339D01*
X623Y339D02*
X632Y339D01*
X670Y339D02*
X678Y339D01*
X715Y339D02*
X723Y339D01*
X758Y339D02*
X765Y339D01*
X800Y339D02*
X808Y339D01*
X1614Y339D02*
X1635Y339D01*
X107Y338D02*
X115Y338D01*
X151Y338D02*
X158Y338D01*
X195Y338D02*
X203Y338D01*
X242Y338D02*
X251Y338D01*
X294Y338D02*
X304Y338D01*
X358Y338D02*
X374Y338D01*
X437Y338D02*
X451Y338D01*
X570Y338D02*
X580Y338D01*
X622Y338D02*
X631Y338D01*
X670Y338D02*
X678Y338D01*
X714Y338D02*
X722Y338D01*
X758Y338D02*
X765Y338D01*
X800Y338D02*
X807Y338D01*
X1616Y338D02*
X1633Y338D01*
X108Y337D02*
X115Y337D01*
X151Y337D02*
X159Y337D01*
X196Y337D02*
X204Y337D01*
X243Y337D02*
X252Y337D01*
X295Y337D02*
X305Y337D01*
X360Y337D02*
X377Y337D01*
X437Y337D02*
X451Y337D01*
X569Y337D02*
X579Y337D01*
X622Y337D02*
X630Y337D01*
X669Y337D02*
X677Y337D01*
X714Y337D02*
X722Y337D01*
X757Y337D02*
X765Y337D01*
X800Y337D02*
X807Y337D01*
X1619Y337D02*
X1630Y337D01*
X108Y336D02*
X116Y336D01*
X152Y336D02*
X159Y336D01*
X196Y336D02*
X205Y336D01*
X244Y336D02*
X253Y336D01*
X296Y336D02*
X306Y336D01*
X362Y336D02*
X379Y336D01*
X437Y336D02*
X451Y336D01*
X568Y336D02*
X578Y336D01*
X621Y336D02*
X630Y336D01*
X668Y336D02*
X677Y336D01*
X713Y336D02*
X721Y336D01*
X757Y336D02*
X764Y336D01*
X799Y336D02*
X807Y336D01*
X109Y335D02*
X116Y335D01*
X152Y335D02*
X160Y335D01*
X197Y335D02*
X205Y335D01*
X245Y335D02*
X254Y335D01*
X297Y335D02*
X307Y335D01*
X363Y335D02*
X382Y335D01*
X437Y335D02*
X451Y335D01*
X567Y335D02*
X577Y335D01*
X620Y335D02*
X629Y335D01*
X668Y335D02*
X676Y335D01*
X713Y335D02*
X721Y335D01*
X756Y335D02*
X764Y335D01*
X799Y335D02*
X806Y335D01*
X109Y334D02*
X116Y334D01*
X153Y334D02*
X160Y334D01*
X198Y334D02*
X206Y334D01*
X245Y334D02*
X254Y334D01*
X298Y334D02*
X309Y334D01*
X365Y334D02*
X384Y334D01*
X437Y334D02*
X451Y334D01*
X566Y334D02*
X576Y334D01*
X619Y334D02*
X628Y334D01*
X667Y334D02*
X675Y334D01*
X712Y334D02*
X720Y334D01*
X756Y334D02*
X763Y334D01*
X798Y334D02*
X806Y334D01*
X109Y333D02*
X117Y333D01*
X153Y333D02*
X161Y333D01*
X198Y333D02*
X207Y333D01*
X246Y333D02*
X255Y333D01*
X299Y333D02*
X310Y333D01*
X367Y333D02*
X387Y333D01*
X437Y333D02*
X451Y333D01*
X565Y333D02*
X575Y333D01*
X619Y333D02*
X628Y333D01*
X667Y333D02*
X675Y333D01*
X712Y333D02*
X720Y333D01*
X755Y333D02*
X763Y333D01*
X798Y333D02*
X805Y333D01*
X110Y332D02*
X117Y332D01*
X154Y332D02*
X162Y332D01*
X199Y332D02*
X207Y332D01*
X247Y332D02*
X256Y332D01*
X300Y332D02*
X311Y332D01*
X369Y332D02*
X390Y332D01*
X437Y332D02*
X451Y332D01*
X564Y332D02*
X574Y332D01*
X618Y332D02*
X627Y332D01*
X666Y332D02*
X674Y332D01*
X711Y332D02*
X719Y332D01*
X755Y332D02*
X763Y332D01*
X798Y332D02*
X805Y332D01*
X110Y331D02*
X118Y331D01*
X154Y331D02*
X162Y331D01*
X200Y331D02*
X208Y331D01*
X248Y331D02*
X257Y331D01*
X301Y331D02*
X312Y331D01*
X372Y331D02*
X393Y331D01*
X437Y331D02*
X451Y331D01*
X562Y331D02*
X573Y331D01*
X617Y331D02*
X626Y331D01*
X665Y331D02*
X674Y331D01*
X711Y331D02*
X719Y331D01*
X754Y331D02*
X762Y331D01*
X797Y331D02*
X805Y331D01*
X111Y330D02*
X118Y330D01*
X155Y330D02*
X163Y330D01*
X200Y330D02*
X209Y330D01*
X248Y330D02*
X258Y330D01*
X302Y330D02*
X313Y330D01*
X374Y330D02*
X397Y330D01*
X437Y330D02*
X451Y330D01*
X561Y330D02*
X572Y330D01*
X616Y330D02*
X625Y330D01*
X665Y330D02*
X673Y330D01*
X710Y330D02*
X718Y330D01*
X754Y330D02*
X762Y330D01*
X797Y330D02*
X804Y330D01*
X111Y329D02*
X119Y329D01*
X155Y329D02*
X163Y329D01*
X201Y329D02*
X209Y329D01*
X249Y329D02*
X258Y329D01*
X303Y329D02*
X315Y329D01*
X376Y329D02*
X401Y329D01*
X437Y329D02*
X451Y329D01*
X560Y329D02*
X571Y329D01*
X615Y329D02*
X624Y329D01*
X664Y329D02*
X672Y329D01*
X710Y329D02*
X717Y329D01*
X753Y329D02*
X761Y329D01*
X796Y329D02*
X804Y329D01*
X112Y328D02*
X119Y328D01*
X156Y328D02*
X164Y328D01*
X202Y328D02*
X210Y328D01*
X250Y328D02*
X259Y328D01*
X305Y328D02*
X316Y328D01*
X379Y328D02*
X405Y328D01*
X437Y328D02*
X451Y328D01*
X559Y328D02*
X570Y328D01*
X615Y328D02*
X624Y328D01*
X663Y328D02*
X672Y328D01*
X709Y328D02*
X717Y328D01*
X753Y328D02*
X761Y328D01*
X796Y328D02*
X803Y328D01*
X112Y327D02*
X120Y327D01*
X156Y327D02*
X164Y327D01*
X202Y327D02*
X211Y327D01*
X251Y327D02*
X260Y327D01*
X306Y327D02*
X317Y327D01*
X382Y327D02*
X410Y327D01*
X437Y327D02*
X451Y327D01*
X558Y327D02*
X569Y327D01*
X614Y327D02*
X623Y327D01*
X663Y327D02*
X671Y327D01*
X709Y327D02*
X716Y327D01*
X753Y327D02*
X760Y327D01*
X796Y327D02*
X803Y327D01*
X113Y326D02*
X120Y326D01*
X157Y326D02*
X165Y326D01*
X203Y326D02*
X211Y326D01*
X252Y326D02*
X261Y326D01*
X307Y326D02*
X318Y326D01*
X384Y326D02*
X417Y326D01*
X437Y326D02*
X451Y326D01*
X556Y326D02*
X568Y326D01*
X613Y326D02*
X622Y326D01*
X662Y326D02*
X670Y326D01*
X708Y326D02*
X716Y326D01*
X752Y326D02*
X760Y326D01*
X795Y326D02*
X803Y326D01*
X113Y325D02*
X121Y325D01*
X157Y325D02*
X166Y325D01*
X203Y325D02*
X212Y325D01*
X253Y325D02*
X262Y325D01*
X308Y325D02*
X320Y325D01*
X387Y325D02*
X426Y325D01*
X437Y325D02*
X451Y325D01*
X555Y325D02*
X567Y325D01*
X612Y325D02*
X621Y325D01*
X661Y325D02*
X670Y325D01*
X707Y325D02*
X715Y325D01*
X752Y325D02*
X759Y325D01*
X795Y325D02*
X802Y325D01*
X114Y324D02*
X121Y324D01*
X158Y324D02*
X166Y324D01*
X204Y324D02*
X213Y324D01*
X253Y324D02*
X263Y324D01*
X309Y324D02*
X321Y324D01*
X390Y324D02*
X451Y324D01*
X554Y324D02*
X565Y324D01*
X611Y324D02*
X620Y324D01*
X661Y324D02*
X669Y324D01*
X707Y324D02*
X715Y324D01*
X751Y324D02*
X759Y324D01*
X794Y324D02*
X802Y324D01*
X114Y323D02*
X122Y323D01*
X159Y323D02*
X167Y323D01*
X205Y323D02*
X213Y323D01*
X254Y323D02*
X264Y323D01*
X310Y323D02*
X322Y323D01*
X394Y323D02*
X451Y323D01*
X552Y323D02*
X564Y323D01*
X610Y323D02*
X620Y323D01*
X660Y323D02*
X668Y323D01*
X706Y323D02*
X714Y323D01*
X751Y323D02*
X758Y323D01*
X794Y323D02*
X801Y323D01*
X115Y322D02*
X122Y322D01*
X159Y322D02*
X167Y322D01*
X205Y322D02*
X214Y322D01*
X255Y322D02*
X265Y322D01*
X312Y322D02*
X324Y322D01*
X397Y322D02*
X451Y322D01*
X551Y322D02*
X563Y322D01*
X609Y322D02*
X619Y322D01*
X659Y322D02*
X668Y322D01*
X706Y322D02*
X714Y322D01*
X750Y322D02*
X758Y322D01*
X794Y322D02*
X801Y322D01*
X115Y321D02*
X123Y321D01*
X160Y321D02*
X168Y321D01*
X206Y321D02*
X215Y321D01*
X256Y321D02*
X266Y321D01*
X313Y321D02*
X325Y321D01*
X401Y321D02*
X451Y321D01*
X550Y321D02*
X562Y321D01*
X608Y321D02*
X618Y321D01*
X659Y321D02*
X667Y321D01*
X705Y321D02*
X713Y321D01*
X750Y321D02*
X758Y321D01*
X793Y321D02*
X801Y321D01*
X116Y320D02*
X123Y320D01*
X160Y320D02*
X168Y320D01*
X207Y320D02*
X216Y320D01*
X257Y320D02*
X267Y320D01*
X314Y320D02*
X327Y320D01*
X406Y320D02*
X444Y320D01*
X548Y320D02*
X560Y320D01*
X608Y320D02*
X617Y320D01*
X658Y320D02*
X667Y320D01*
X705Y320D02*
X713Y320D01*
X749Y320D02*
X757Y320D01*
X793Y320D02*
X800Y320D01*
X116Y319D02*
X124Y319D01*
X161Y319D02*
X169Y319D01*
X208Y319D02*
X216Y319D01*
X258Y319D02*
X267Y319D01*
X315Y319D02*
X328Y319D01*
X411Y319D02*
X444Y319D01*
X547Y319D02*
X559Y319D01*
X607Y319D02*
X616Y319D01*
X657Y319D02*
X666Y319D01*
X704Y319D02*
X712Y319D01*
X749Y319D02*
X757Y319D01*
X792Y319D02*
X800Y319D01*
X117Y318D02*
X124Y318D01*
X161Y318D02*
X170Y318D01*
X208Y318D02*
X217Y318D01*
X259Y318D02*
X268Y318D01*
X317Y318D02*
X329Y318D01*
X418Y318D02*
X444Y318D01*
X545Y318D02*
X558Y318D01*
X606Y318D02*
X615Y318D01*
X657Y318D02*
X665Y318D01*
X703Y318D02*
X712Y318D01*
X748Y318D02*
X756Y318D01*
X792Y318D02*
X799Y318D01*
X117Y317D02*
X125Y317D01*
X162Y317D02*
X170Y317D01*
X209Y317D02*
X218Y317D01*
X260Y317D02*
X269Y317D01*
X318Y317D02*
X331Y317D01*
X429Y317D02*
X443Y317D01*
X544Y317D02*
X557Y317D01*
X605Y317D02*
X614Y317D01*
X656Y317D02*
X665Y317D01*
X703Y317D02*
X711Y317D01*
X748Y317D02*
X756Y317D01*
X791Y317D02*
X799Y317D01*
X118Y316D02*
X125Y316D01*
X163Y316D02*
X171Y316D01*
X210Y316D02*
X218Y316D01*
X260Y316D02*
X270Y316D01*
X320Y316D02*
X333Y316D01*
X542Y316D02*
X555Y316D01*
X604Y316D02*
X614Y316D01*
X655Y316D02*
X664Y316D01*
X702Y316D02*
X710Y316D01*
X747Y316D02*
X755Y316D01*
X791Y316D02*
X798Y316D01*
X118Y315D02*
X126Y315D01*
X163Y315D02*
X172Y315D01*
X210Y315D02*
X219Y315D01*
X261Y315D02*
X271Y315D01*
X321Y315D02*
X334Y315D01*
X541Y315D02*
X554Y315D01*
X603Y315D02*
X613Y315D01*
X654Y315D02*
X663Y315D01*
X702Y315D02*
X710Y315D01*
X747Y315D02*
X755Y315D01*
X790Y315D02*
X798Y315D01*
X119Y314D02*
X127Y314D01*
X164Y314D02*
X172Y314D01*
X211Y314D02*
X220Y314D01*
X262Y314D02*
X272Y314D01*
X322Y314D02*
X336Y314D01*
X539Y314D02*
X552Y314D01*
X602Y314D02*
X612Y314D01*
X654Y314D02*
X662Y314D01*
X701Y314D02*
X709Y314D01*
X746Y314D02*
X754Y314D01*
X790Y314D02*
X798Y314D01*
X119Y313D02*
X127Y313D01*
X164Y313D02*
X173Y313D01*
X212Y313D02*
X221Y313D01*
X263Y313D02*
X273Y313D01*
X324Y313D02*
X337Y313D01*
X538Y313D02*
X551Y313D01*
X601Y313D02*
X611Y313D01*
X653Y313D02*
X662Y313D01*
X700Y313D02*
X709Y313D01*
X746Y313D02*
X753Y313D01*
X789Y313D02*
X797Y313D01*
X120Y312D02*
X128Y312D01*
X165Y312D02*
X173Y312D01*
X213Y312D02*
X222Y312D01*
X264Y312D02*
X274Y312D01*
X325Y312D02*
X339Y312D01*
X536Y312D02*
X550Y312D01*
X600Y312D02*
X610Y312D01*
X652Y312D02*
X661Y312D01*
X700Y312D02*
X708Y312D01*
X745Y312D02*
X753Y312D01*
X789Y312D02*
X797Y312D01*
X120Y311D02*
X128Y311D01*
X166Y311D02*
X174Y311D01*
X213Y311D02*
X222Y311D01*
X265Y311D02*
X275Y311D01*
X327Y311D02*
X341Y311D01*
X534Y311D02*
X548Y311D01*
X599Y311D02*
X609Y311D01*
X651Y311D02*
X660Y311D01*
X699Y311D02*
X707Y311D01*
X745Y311D02*
X752Y311D01*
X789Y311D02*
X796Y311D01*
X121Y310D02*
X129Y310D01*
X166Y310D02*
X175Y310D01*
X214Y310D02*
X223Y310D01*
X266Y310D02*
X276Y310D01*
X328Y310D02*
X343Y310D01*
X533Y310D02*
X547Y310D01*
X598Y310D02*
X608Y310D01*
X651Y310D02*
X659Y310D01*
X699Y310D02*
X707Y310D01*
X744Y310D02*
X752Y310D01*
X788Y310D02*
X796Y310D01*
X121Y309D02*
X129Y309D01*
X167Y309D02*
X175Y309D01*
X215Y309D02*
X224Y309D01*
X267Y309D02*
X278Y309D01*
X330Y309D02*
X344Y309D01*
X531Y309D02*
X545Y309D01*
X597Y309D02*
X607Y309D01*
X650Y309D02*
X659Y309D01*
X698Y309D02*
X706Y309D01*
X744Y309D02*
X751Y309D01*
X788Y309D02*
X795Y309D01*
X122Y308D02*
X130Y308D01*
X168Y308D02*
X176Y308D01*
X216Y308D02*
X225Y308D01*
X268Y308D02*
X279Y308D01*
X331Y308D02*
X346Y308D01*
X529Y308D02*
X544Y308D01*
X596Y308D02*
X606Y308D01*
X649Y308D02*
X658Y308D01*
X697Y308D02*
X706Y308D01*
X743Y308D02*
X751Y308D01*
X787Y308D02*
X795Y308D01*
X122Y307D02*
X130Y307D01*
X168Y307D02*
X177Y307D01*
X217Y307D02*
X226Y307D01*
X269Y307D02*
X280Y307D01*
X333Y307D02*
X348Y307D01*
X527Y307D02*
X542Y307D01*
X595Y307D02*
X605Y307D01*
X648Y307D02*
X657Y307D01*
X697Y307D02*
X705Y307D01*
X742Y307D02*
X750Y307D01*
X787Y307D02*
X794Y307D01*
X123Y306D02*
X131Y306D01*
X169Y306D02*
X177Y306D01*
X217Y306D02*
X226Y306D01*
X270Y306D02*
X281Y306D01*
X335Y306D02*
X350Y306D01*
X525Y306D02*
X540Y306D01*
X594Y306D02*
X604Y306D01*
X647Y306D02*
X656Y306D01*
X696Y306D02*
X704Y306D01*
X742Y306D02*
X750Y306D01*
X786Y306D02*
X794Y306D01*
X124Y305D02*
X132Y305D01*
X170Y305D02*
X178Y305D01*
X218Y305D02*
X227Y305D01*
X271Y305D02*
X282Y305D01*
X336Y305D02*
X352Y305D01*
X523Y305D02*
X539Y305D01*
X592Y305D02*
X603Y305D01*
X647Y305D02*
X656Y305D01*
X695Y305D02*
X704Y305D01*
X741Y305D02*
X749Y305D01*
X786Y305D02*
X793Y305D01*
X1622Y305D02*
X1627Y305D01*
X124Y304D02*
X132Y304D01*
X170Y304D02*
X179Y304D01*
X219Y304D02*
X228Y304D01*
X272Y304D02*
X283Y304D01*
X338Y304D02*
X354Y304D01*
X521Y304D02*
X537Y304D01*
X591Y304D02*
X602Y304D01*
X646Y304D02*
X655Y304D01*
X695Y304D02*
X703Y304D01*
X741Y304D02*
X749Y304D01*
X785Y304D02*
X793Y304D01*
X1618Y304D02*
X1631Y304D01*
X125Y303D02*
X133Y303D01*
X171Y303D02*
X179Y303D01*
X220Y303D02*
X229Y303D01*
X273Y303D02*
X284Y303D01*
X340Y303D02*
X356Y303D01*
X519Y303D02*
X535Y303D01*
X590Y303D02*
X601Y303D01*
X645Y303D02*
X654Y303D01*
X694Y303D02*
X702Y303D01*
X740Y303D02*
X748Y303D01*
X785Y303D02*
X793Y303D01*
X1615Y303D02*
X1634Y303D01*
X125Y302D02*
X133Y302D01*
X171Y302D02*
X180Y302D01*
X221Y302D02*
X230Y302D01*
X275Y302D02*
X285Y302D01*
X342Y302D02*
X359Y302D01*
X517Y302D02*
X533Y302D01*
X589Y302D02*
X600Y302D01*
X644Y302D02*
X653Y302D01*
X693Y302D02*
X702Y302D01*
X740Y302D02*
X748Y302D01*
X784Y302D02*
X792Y302D01*
X1613Y302D02*
X1636Y302D01*
X126Y301D02*
X134Y301D01*
X172Y301D02*
X181Y301D01*
X221Y301D02*
X231Y301D01*
X276Y301D02*
X287Y301D01*
X344Y301D02*
X361Y301D01*
X514Y301D02*
X532Y301D01*
X588Y301D02*
X599Y301D01*
X643Y301D02*
X652Y301D01*
X693Y301D02*
X701Y301D01*
X739Y301D02*
X747Y301D01*
X784Y301D02*
X792Y301D01*
X1611Y301D02*
X1638Y301D01*
X126Y300D02*
X134Y300D01*
X173Y300D02*
X182Y300D01*
X222Y300D02*
X232Y300D01*
X277Y300D02*
X288Y300D01*
X346Y300D02*
X363Y300D01*
X512Y300D02*
X530Y300D01*
X587Y300D02*
X598Y300D01*
X642Y300D02*
X652Y300D01*
X692Y300D02*
X700Y300D01*
X738Y300D02*
X747Y300D01*
X783Y300D02*
X791Y300D01*
X1610Y300D02*
X1639Y300D01*
X127Y299D02*
X135Y299D01*
X174Y299D02*
X182Y299D01*
X223Y299D02*
X232Y299D01*
X278Y299D02*
X289Y299D01*
X348Y299D02*
X366Y299D01*
X510Y299D02*
X528Y299D01*
X586Y299D02*
X597Y299D01*
X642Y299D02*
X651Y299D01*
X691Y299D02*
X700Y299D01*
X738Y299D02*
X746Y299D01*
X783Y299D02*
X791Y299D01*
X1609Y299D02*
X1640Y299D01*
X128Y298D02*
X136Y298D01*
X174Y298D02*
X183Y298D01*
X224Y298D02*
X233Y298D01*
X279Y298D02*
X290Y298D01*
X350Y298D02*
X368Y298D01*
X507Y298D02*
X526Y298D01*
X584Y298D02*
X595Y298D01*
X641Y298D02*
X650Y298D01*
X691Y298D02*
X699Y298D01*
X737Y298D02*
X745Y298D01*
X782Y298D02*
X790Y298D01*
X1608Y298D02*
X1641Y298D01*
X128Y297D02*
X136Y297D01*
X175Y297D02*
X184Y297D01*
X225Y297D02*
X234Y297D01*
X280Y297D02*
X292Y297D01*
X352Y297D02*
X371Y297D01*
X505Y297D02*
X524Y297D01*
X583Y297D02*
X594Y297D01*
X640Y297D02*
X649Y297D01*
X690Y297D02*
X698Y297D01*
X737Y297D02*
X745Y297D01*
X782Y297D02*
X790Y297D01*
X1607Y297D02*
X1642Y297D01*
X129Y296D02*
X137Y296D01*
X176Y296D02*
X184Y296D01*
X226Y296D02*
X235Y296D01*
X281Y296D02*
X293Y296D01*
X354Y296D02*
X374Y296D01*
X502Y296D02*
X521Y296D01*
X582Y296D02*
X593Y296D01*
X639Y296D02*
X648Y296D01*
X689Y296D02*
X698Y296D01*
X736Y296D02*
X744Y296D01*
X781Y296D02*
X789Y296D01*
X1606Y296D02*
X1643Y296D01*
X129Y295D02*
X138Y295D01*
X176Y295D02*
X185Y295D01*
X227Y295D02*
X236Y295D01*
X283Y295D02*
X294Y295D01*
X356Y295D02*
X377Y295D01*
X499Y295D02*
X519Y295D01*
X581Y295D02*
X592Y295D01*
X638Y295D02*
X648Y295D01*
X688Y295D02*
X697Y295D01*
X736Y295D02*
X744Y295D01*
X781Y295D02*
X788Y295D01*
X1605Y295D02*
X1644Y295D01*
X130Y294D02*
X138Y294D01*
X177Y294D02*
X186Y294D01*
X227Y294D02*
X237Y294D01*
X284Y294D02*
X295Y294D01*
X358Y294D02*
X380Y294D01*
X496Y294D02*
X517Y294D01*
X579Y294D02*
X591Y294D01*
X637Y294D02*
X647Y294D01*
X688Y294D02*
X696Y294D01*
X735Y294D02*
X743Y294D01*
X780Y294D02*
X788Y294D01*
X1605Y294D02*
X1644Y294D01*
X131Y293D02*
X139Y293D01*
X178Y293D02*
X187Y293D01*
X228Y293D02*
X238Y293D01*
X285Y293D02*
X297Y293D01*
X361Y293D02*
X383Y293D01*
X492Y293D02*
X515Y293D01*
X578Y293D02*
X590Y293D01*
X636Y293D02*
X646Y293D01*
X687Y293D02*
X696Y293D01*
X734Y293D02*
X742Y293D01*
X780Y293D02*
X787Y293D01*
X1604Y293D02*
X1645Y293D01*
X131Y292D02*
X140Y292D01*
X179Y292D02*
X187Y292D01*
X229Y292D02*
X239Y292D01*
X286Y292D02*
X298Y292D01*
X363Y292D02*
X387Y292D01*
X489Y292D02*
X512Y292D01*
X577Y292D02*
X588Y292D01*
X635Y292D02*
X645Y292D01*
X686Y292D02*
X695Y292D01*
X734Y292D02*
X742Y292D01*
X779Y292D02*
X787Y292D01*
X1604Y292D02*
X1620Y292D01*
X1629Y292D02*
X1645Y292D01*
X132Y291D02*
X140Y291D01*
X179Y291D02*
X188Y291D01*
X230Y291D02*
X240Y291D01*
X287Y291D02*
X299Y291D01*
X366Y291D02*
X391Y291D01*
X485Y291D02*
X510Y291D01*
X575Y291D02*
X587Y291D01*
X634Y291D02*
X644Y291D01*
X685Y291D02*
X694Y291D01*
X733Y291D02*
X741Y291D01*
X779Y291D02*
X786Y291D01*
X1603Y291D02*
X1618Y291D01*
X1631Y291D02*
X1646Y291D01*
X132Y290D02*
X141Y290D01*
X180Y290D02*
X189Y290D01*
X231Y290D02*
X241Y290D01*
X289Y290D02*
X301Y290D01*
X368Y290D02*
X395Y290D01*
X481Y290D02*
X507Y290D01*
X574Y290D02*
X586Y290D01*
X633Y290D02*
X643Y290D01*
X685Y290D02*
X694Y290D01*
X733Y290D02*
X741Y290D01*
X778Y290D02*
X786Y290D01*
X1603Y290D02*
X1617Y290D01*
X1632Y290D02*
X1646Y290D01*
X133Y289D02*
X141Y289D01*
X181Y289D02*
X190Y289D01*
X232Y289D02*
X242Y289D01*
X290Y289D02*
X302Y289D01*
X371Y289D02*
X400Y289D01*
X476Y289D02*
X505Y289D01*
X573Y289D02*
X585Y289D01*
X632Y289D02*
X642Y289D01*
X684Y289D02*
X693Y289D01*
X732Y289D02*
X740Y289D01*
X777Y289D02*
X785Y289D01*
X1603Y289D02*
X1616Y289D01*
X1633Y289D02*
X1646Y289D01*
X134Y288D02*
X142Y288D01*
X181Y288D02*
X190Y288D01*
X233Y288D02*
X243Y288D01*
X291Y288D02*
X304Y288D01*
X374Y288D02*
X405Y288D01*
X471Y288D02*
X502Y288D01*
X571Y288D02*
X583Y288D01*
X631Y288D02*
X641Y288D01*
X683Y288D02*
X692Y288D01*
X731Y288D02*
X740Y288D01*
X777Y288D02*
X785Y288D01*
X1602Y288D02*
X1615Y288D01*
X1634Y288D02*
X1647Y288D01*
X134Y287D02*
X143Y287D01*
X182Y287D02*
X191Y287D01*
X234Y287D02*
X244Y287D01*
X293Y287D02*
X305Y287D01*
X377Y287D02*
X411Y287D01*
X464Y287D02*
X499Y287D01*
X570Y287D02*
X582Y287D01*
X630Y287D02*
X640Y287D01*
X683Y287D02*
X691Y287D01*
X731Y287D02*
X739Y287D01*
X776Y287D02*
X784Y287D01*
X1602Y287D02*
X1614Y287D01*
X1635Y287D02*
X1647Y287D01*
X135Y286D02*
X143Y286D01*
X183Y286D02*
X192Y286D01*
X235Y286D02*
X245Y286D01*
X294Y286D02*
X306Y286D01*
X380Y286D02*
X421Y286D01*
X455Y286D02*
X495Y286D01*
X568Y286D02*
X581Y286D01*
X629Y286D02*
X639Y286D01*
X682Y286D02*
X691Y286D01*
X730Y286D02*
X738Y286D01*
X776Y286D02*
X784Y286D01*
X1602Y286D02*
X1614Y286D01*
X1635Y286D02*
X1647Y286D01*
X136Y285D02*
X144Y285D01*
X184Y285D02*
X193Y285D01*
X236Y285D02*
X246Y285D01*
X295Y285D02*
X308Y285D01*
X383Y285D02*
X492Y285D01*
X567Y285D02*
X579Y285D01*
X628Y285D02*
X638Y285D01*
X681Y285D02*
X690Y285D01*
X729Y285D02*
X738Y285D01*
X775Y285D02*
X783Y285D01*
X1601Y285D02*
X1613Y285D01*
X1636Y285D02*
X1648Y285D01*
X136Y284D02*
X145Y284D01*
X185Y284D02*
X194Y284D01*
X237Y284D02*
X247Y284D01*
X297Y284D02*
X310Y284D01*
X387Y284D02*
X488Y284D01*
X565Y284D02*
X578Y284D01*
X627Y284D02*
X638Y284D01*
X680Y284D02*
X689Y284D01*
X729Y284D02*
X737Y284D01*
X775Y284D02*
X783Y284D01*
X1601Y284D02*
X1613Y284D01*
X1636Y284D02*
X1648Y284D01*
X137Y283D02*
X145Y283D01*
X185Y283D02*
X194Y283D01*
X238Y283D02*
X248Y283D01*
X298Y283D02*
X311Y283D01*
X391Y283D02*
X485Y283D01*
X564Y283D02*
X577Y283D01*
X626Y283D02*
X637Y283D01*
X679Y283D02*
X688Y283D01*
X728Y283D02*
X736Y283D01*
X774Y283D02*
X782Y283D01*
X1601Y283D02*
X1613Y283D01*
X1636Y283D02*
X1648Y283D01*
X138Y282D02*
X146Y282D01*
X186Y282D02*
X195Y282D01*
X239Y282D02*
X249Y282D01*
X299Y282D02*
X313Y282D01*
X396Y282D02*
X480Y282D01*
X562Y282D02*
X575Y282D01*
X625Y282D02*
X636Y282D01*
X679Y282D02*
X688Y282D01*
X727Y282D02*
X736Y282D01*
X774Y282D02*
X782Y282D01*
X1601Y282D02*
X1613Y282D01*
X1636Y282D02*
X1648Y282D01*
X138Y281D02*
X147Y281D01*
X187Y281D02*
X196Y281D01*
X240Y281D02*
X250Y281D01*
X301Y281D02*
X314Y281D01*
X400Y281D02*
X475Y281D01*
X561Y281D02*
X574Y281D01*
X624Y281D02*
X635Y281D01*
X678Y281D02*
X687Y281D01*
X727Y281D02*
X735Y281D01*
X773Y281D02*
X781Y281D01*
X1601Y281D02*
X1613Y281D01*
X1636Y281D02*
X1648Y281D01*
X139Y280D02*
X147Y280D01*
X188Y280D02*
X197Y280D01*
X241Y280D02*
X251Y280D01*
X302Y280D02*
X316Y280D01*
X406Y280D02*
X469Y280D01*
X559Y280D02*
X573Y280D01*
X623Y280D02*
X634Y280D01*
X677Y280D02*
X686Y280D01*
X726Y280D02*
X734Y280D01*
X772Y280D02*
X780Y280D01*
X1601Y280D02*
X1613Y280D01*
X1636Y280D02*
X1648Y280D01*
X140Y279D02*
X148Y279D01*
X189Y279D02*
X198Y279D01*
X242Y279D02*
X252Y279D01*
X304Y279D02*
X318Y279D01*
X413Y279D02*
X463Y279D01*
X557Y279D02*
X571Y279D01*
X622Y279D02*
X633Y279D01*
X676Y279D02*
X685Y279D01*
X725Y279D02*
X734Y279D01*
X772Y279D02*
X780Y279D01*
X1601Y279D02*
X1613Y279D01*
X1636Y279D02*
X1648Y279D01*
X140Y278D02*
X149Y278D01*
X189Y278D02*
X199Y278D01*
X243Y278D02*
X253Y278D01*
X305Y278D02*
X319Y278D01*
X422Y278D02*
X453Y278D01*
X556Y278D02*
X570Y278D01*
X621Y278D02*
X632Y278D01*
X675Y278D02*
X684Y278D01*
X725Y278D02*
X733Y278D01*
X771Y278D02*
X779Y278D01*
X1601Y278D02*
X1613Y278D01*
X1636Y278D02*
X1648Y278D01*
X141Y277D02*
X150Y277D01*
X190Y277D02*
X199Y277D01*
X244Y277D02*
X254Y277D01*
X307Y277D02*
X321Y277D01*
X554Y277D02*
X568Y277D01*
X620Y277D02*
X631Y277D01*
X674Y277D02*
X684Y277D01*
X724Y277D02*
X732Y277D01*
X771Y277D02*
X779Y277D01*
X1602Y277D02*
X1614Y277D01*
X1635Y277D02*
X1647Y277D01*
X142Y276D02*
X150Y276D01*
X191Y276D02*
X200Y276D01*
X245Y276D02*
X255Y276D01*
X308Y276D02*
X323Y276D01*
X552Y276D02*
X566Y276D01*
X619Y276D02*
X629Y276D01*
X674Y276D02*
X683Y276D01*
X723Y276D02*
X732Y276D01*
X770Y276D02*
X778Y276D01*
X1602Y276D02*
X1614Y276D01*
X1635Y276D02*
X1647Y276D01*
X142Y275D02*
X151Y275D01*
X192Y275D02*
X201Y275D01*
X246Y275D02*
X257Y275D01*
X310Y275D02*
X325Y275D01*
X550Y275D02*
X565Y275D01*
X618Y275D02*
X628Y275D01*
X673Y275D02*
X682Y275D01*
X723Y275D02*
X731Y275D01*
X769Y275D02*
X777Y275D01*
X1602Y275D02*
X1615Y275D01*
X1634Y275D02*
X1647Y275D01*
X143Y274D02*
X152Y274D01*
X193Y274D02*
X202Y274D01*
X247Y274D02*
X258Y274D01*
X312Y274D02*
X326Y274D01*
X549Y274D02*
X563Y274D01*
X617Y274D02*
X627Y274D01*
X672Y274D02*
X681Y274D01*
X722Y274D02*
X730Y274D01*
X769Y274D02*
X777Y274D01*
X1602Y274D02*
X1616Y274D01*
X1633Y274D02*
X1647Y274D01*
X144Y273D02*
X152Y273D01*
X193Y273D02*
X203Y273D01*
X248Y273D02*
X259Y273D01*
X313Y273D02*
X328Y273D01*
X547Y273D02*
X562Y273D01*
X616Y273D02*
X626Y273D01*
X671Y273D02*
X680Y273D01*
X721Y273D02*
X730Y273D01*
X768Y273D02*
X776Y273D01*
X1603Y273D02*
X1617Y273D01*
X1632Y273D02*
X1646Y273D01*
X145Y272D02*
X153Y272D01*
X194Y272D02*
X204Y272D01*
X249Y272D02*
X260Y272D01*
X315Y272D02*
X330Y272D01*
X545Y272D02*
X560Y272D01*
X614Y272D02*
X625Y272D01*
X670Y272D02*
X680Y272D01*
X720Y272D02*
X729Y272D01*
X768Y272D02*
X776Y272D01*
X1603Y272D02*
X1618Y272D01*
X1631Y272D02*
X1646Y272D01*
X145Y271D02*
X154Y271D01*
X195Y271D02*
X205Y271D01*
X250Y271D02*
X261Y271D01*
X317Y271D02*
X332Y271D01*
X543Y271D02*
X558Y271D01*
X613Y271D02*
X624Y271D01*
X669Y271D02*
X679Y271D01*
X720Y271D02*
X728Y271D01*
X767Y271D02*
X775Y271D01*
X1604Y271D02*
X1620Y271D01*
X1629Y271D02*
X1645Y271D01*
X146Y270D02*
X155Y270D01*
X196Y270D02*
X206Y270D01*
X251Y270D02*
X262Y270D01*
X318Y270D02*
X334Y270D01*
X541Y270D02*
X557Y270D01*
X612Y270D02*
X623Y270D01*
X668Y270D02*
X678Y270D01*
X719Y270D02*
X728Y270D01*
X766Y270D02*
X775Y270D01*
X1604Y270D02*
X1645Y270D01*
X147Y269D02*
X155Y269D01*
X197Y269D02*
X207Y269D01*
X252Y269D02*
X264Y269D01*
X320Y269D02*
X336Y269D01*
X539Y269D02*
X555Y269D01*
X611Y269D02*
X622Y269D01*
X667Y269D02*
X677Y269D01*
X718Y269D02*
X727Y269D01*
X766Y269D02*
X774Y269D01*
X1605Y269D02*
X1644Y269D01*
X147Y268D02*
X156Y268D01*
X198Y268D02*
X207Y268D01*
X254Y268D02*
X265Y268D01*
X322Y268D02*
X338Y268D01*
X537Y268D02*
X553Y268D01*
X610Y268D02*
X621Y268D01*
X667Y268D02*
X676Y268D01*
X717Y268D02*
X726Y268D01*
X765Y268D02*
X773Y268D01*
X1605Y268D02*
X1644Y268D01*
X148Y267D02*
X157Y267D01*
X199Y267D02*
X208Y267D01*
X255Y267D02*
X266Y267D01*
X324Y267D02*
X340Y267D01*
X535Y267D02*
X551Y267D01*
X608Y267D02*
X620Y267D01*
X666Y267D02*
X675Y267D01*
X717Y267D02*
X725Y267D01*
X764Y267D02*
X773Y267D01*
X1606Y267D02*
X1643Y267D01*
X149Y266D02*
X158Y266D01*
X200Y266D02*
X209Y266D01*
X256Y266D02*
X267Y266D01*
X326Y266D02*
X343Y266D01*
X532Y266D02*
X549Y266D01*
X607Y266D02*
X619Y266D01*
X665Y266D02*
X674Y266D01*
X716Y266D02*
X725Y266D01*
X764Y266D02*
X772Y266D01*
X1607Y266D02*
X1642Y266D01*
X150Y265D02*
X158Y265D01*
X201Y265D02*
X210Y265D01*
X257Y265D02*
X269Y265D01*
X328Y265D02*
X345Y265D01*
X530Y265D02*
X548Y265D01*
X606Y265D02*
X617Y265D01*
X664Y265D02*
X673Y265D01*
X715Y265D02*
X724Y265D01*
X763Y265D02*
X772Y265D01*
X1608Y265D02*
X1641Y265D01*
X150Y264D02*
X159Y264D01*
X201Y264D02*
X211Y264D01*
X258Y264D02*
X270Y264D01*
X330Y264D02*
X347Y264D01*
X528Y264D02*
X546Y264D01*
X605Y264D02*
X616Y264D01*
X663Y264D02*
X673Y264D01*
X714Y264D02*
X723Y264D01*
X762Y264D02*
X771Y264D01*
X1609Y264D02*
X1640Y264D01*
X151Y263D02*
X160Y263D01*
X202Y263D02*
X212Y263D01*
X260Y263D02*
X271Y263D01*
X332Y263D02*
X350Y263D01*
X526Y263D02*
X544Y263D01*
X604Y263D02*
X615Y263D01*
X662Y263D02*
X672Y263D01*
X714Y263D02*
X722Y263D01*
X762Y263D02*
X770Y263D01*
X1610Y263D02*
X1639Y263D01*
X152Y262D02*
X161Y262D01*
X203Y262D02*
X213Y262D01*
X261Y262D02*
X272Y262D01*
X334Y262D02*
X352Y262D01*
X523Y262D02*
X542Y262D01*
X602Y262D02*
X614Y262D01*
X661Y262D02*
X671Y262D01*
X713Y262D02*
X722Y262D01*
X761Y262D02*
X770Y262D01*
X1611Y262D02*
X1638Y262D01*
X153Y261D02*
X162Y261D01*
X204Y261D02*
X214Y261D01*
X262Y261D02*
X274Y261D01*
X336Y261D02*
X355Y261D01*
X520Y261D02*
X540Y261D01*
X601Y261D02*
X613Y261D01*
X660Y261D02*
X670Y261D01*
X712Y261D02*
X721Y261D01*
X760Y261D02*
X769Y261D01*
X1613Y261D02*
X1636Y261D01*
X153Y260D02*
X162Y260D01*
X205Y260D02*
X215Y260D01*
X263Y260D02*
X275Y260D01*
X338Y260D02*
X357Y260D01*
X518Y260D02*
X537Y260D01*
X600Y260D02*
X611Y260D01*
X659Y260D02*
X669Y260D01*
X711Y260D02*
X720Y260D01*
X760Y260D02*
X768Y260D01*
X1615Y260D02*
X1634Y260D01*
X154Y259D02*
X163Y259D01*
X206Y259D02*
X216Y259D01*
X264Y259D02*
X277Y259D01*
X340Y259D02*
X360Y259D01*
X515Y259D02*
X535Y259D01*
X598Y259D02*
X610Y259D01*
X658Y259D02*
X668Y259D01*
X711Y259D02*
X719Y259D01*
X759Y259D02*
X768Y259D01*
X1617Y259D02*
X1632Y259D01*
X155Y258D02*
X164Y258D01*
X207Y258D02*
X217Y258D01*
X266Y258D02*
X278Y258D01*
X342Y258D02*
X363Y258D01*
X512Y258D02*
X533Y258D01*
X597Y258D02*
X609Y258D01*
X657Y258D02*
X667Y258D01*
X710Y258D02*
X719Y258D01*
X758Y258D02*
X767Y258D01*
X1620Y258D02*
X1629Y258D01*
X156Y257D02*
X165Y257D01*
X208Y257D02*
X218Y257D01*
X267Y257D02*
X279Y257D01*
X345Y257D02*
X366Y257D01*
X509Y257D02*
X531Y257D01*
X595Y257D02*
X608Y257D01*
X656Y257D02*
X666Y257D01*
X709Y257D02*
X718Y257D01*
X758Y257D02*
X766Y257D01*
X157Y256D02*
X166Y256D01*
X209Y256D02*
X219Y256D01*
X268Y256D02*
X281Y256D01*
X347Y256D02*
X370Y256D01*
X506Y256D02*
X528Y256D01*
X594Y256D02*
X606Y256D01*
X655Y256D02*
X665Y256D01*
X708Y256D02*
X717Y256D01*
X757Y256D02*
X766Y256D01*
X157Y255D02*
X166Y255D01*
X210Y255D02*
X220Y255D01*
X270Y255D02*
X282Y255D01*
X350Y255D02*
X373Y255D01*
X503Y255D02*
X526Y255D01*
X593Y255D02*
X605Y255D01*
X654Y255D02*
X664Y255D01*
X707Y255D02*
X716Y255D01*
X757Y255D02*
X765Y255D01*
X158Y254D02*
X167Y254D01*
X211Y254D02*
X221Y254D01*
X271Y254D02*
X284Y254D01*
X352Y254D02*
X377Y254D01*
X499Y254D02*
X523Y254D01*
X591Y254D02*
X604Y254D01*
X653Y254D02*
X663Y254D01*
X706Y254D02*
X716Y254D01*
X756Y254D02*
X764Y254D01*
X159Y253D02*
X168Y253D01*
X212Y253D02*
X222Y253D01*
X272Y253D02*
X285Y253D01*
X355Y253D02*
X380Y253D01*
X495Y253D02*
X521Y253D01*
X590Y253D02*
X602Y253D01*
X652Y253D02*
X662Y253D01*
X706Y253D02*
X715Y253D01*
X755Y253D02*
X764Y253D01*
X160Y252D02*
X169Y252D01*
X213Y252D02*
X223Y252D01*
X274Y252D02*
X287Y252D01*
X357Y252D02*
X384Y252D01*
X491Y252D02*
X518Y252D01*
X588Y252D02*
X601Y252D01*
X651Y252D02*
X661Y252D01*
X705Y252D02*
X714Y252D01*
X754Y252D02*
X763Y252D01*
X161Y251D02*
X170Y251D01*
X214Y251D02*
X224Y251D01*
X275Y251D02*
X288Y251D01*
X360Y251D02*
X389Y251D01*
X486Y251D02*
X515Y251D01*
X587Y251D02*
X600Y251D01*
X650Y251D02*
X660Y251D01*
X704Y251D02*
X713Y251D01*
X754Y251D02*
X762Y251D01*
X161Y250D02*
X171Y250D01*
X215Y250D02*
X226Y250D01*
X277Y250D02*
X290Y250D01*
X364Y250D02*
X394Y250D01*
X482Y250D02*
X512Y250D01*
X585Y250D02*
X598Y250D01*
X649Y250D02*
X659Y250D01*
X703Y250D02*
X712Y250D01*
X753Y250D02*
X762Y250D01*
X162Y249D02*
X172Y249D01*
X216Y249D02*
X227Y249D01*
X278Y249D02*
X291Y249D01*
X367Y249D02*
X400Y249D01*
X476Y249D02*
X509Y249D01*
X584Y249D02*
X597Y249D01*
X648Y249D02*
X658Y249D01*
X702Y249D02*
X712Y249D01*
X752Y249D02*
X761Y249D01*
X163Y248D02*
X173Y248D01*
X217Y248D02*
X228Y248D01*
X279Y248D02*
X293Y248D01*
X370Y248D02*
X406Y248D01*
X469Y248D02*
X506Y248D01*
X582Y248D02*
X595Y248D01*
X647Y248D02*
X657Y248D01*
X701Y248D02*
X711Y248D01*
X752Y248D02*
X760Y248D01*
X164Y247D02*
X173Y247D01*
X218Y247D02*
X229Y247D01*
X281Y247D02*
X294Y247D01*
X373Y247D02*
X415Y247D01*
X460Y247D02*
X502Y247D01*
X581Y247D02*
X594Y247D01*
X646Y247D02*
X656Y247D01*
X701Y247D02*
X710Y247D01*
X751Y247D02*
X760Y247D01*
X165Y246D02*
X174Y246D01*
X219Y246D02*
X230Y246D01*
X282Y246D02*
X296Y246D01*
X377Y246D02*
X430Y246D01*
X445Y246D02*
X498Y246D01*
X579Y246D02*
X592Y246D01*
X644Y246D02*
X655Y246D01*
X700Y246D02*
X709Y246D01*
X750Y246D02*
X759Y246D01*
X166Y245D02*
X175Y245D01*
X220Y245D02*
X231Y245D01*
X284Y245D02*
X298Y245D01*
X381Y245D02*
X495Y245D01*
X577Y245D02*
X591Y245D01*
X643Y245D02*
X654Y245D01*
X699Y245D02*
X708Y245D01*
X749Y245D02*
X758Y245D01*
X167Y244D02*
X176Y244D01*
X221Y244D02*
X232Y244D01*
X286Y244D02*
X299Y244D01*
X385Y244D02*
X490Y244D01*
X575Y244D02*
X589Y244D01*
X642Y244D02*
X653Y244D01*
X698Y244D02*
X707Y244D01*
X749Y244D02*
X757Y244D01*
X167Y243D02*
X177Y243D01*
X223Y243D02*
X233Y243D01*
X287Y243D02*
X301Y243D01*
X390Y243D02*
X486Y243D01*
X574Y243D02*
X588Y243D01*
X641Y243D02*
X652Y243D01*
X697Y243D02*
X707Y243D01*
X748Y243D02*
X757Y243D01*
X168Y242D02*
X178Y242D01*
X224Y242D02*
X235Y242D01*
X289Y242D02*
X303Y242D01*
X395Y242D02*
X481Y242D01*
X572Y242D02*
X586Y242D01*
X640Y242D02*
X651Y242D01*
X696Y242D02*
X706Y242D01*
X747Y242D02*
X756Y242D01*
X169Y241D02*
X179Y241D01*
X225Y241D02*
X236Y241D01*
X290Y241D02*
X305Y241D01*
X401Y241D02*
X475Y241D01*
X570Y241D02*
X585Y241D01*
X639Y241D02*
X650Y241D01*
X695Y241D02*
X705Y241D01*
X746Y241D02*
X755Y241D01*
X170Y240D02*
X180Y240D01*
X226Y240D02*
X237Y240D01*
X292Y240D02*
X306Y240D01*
X407Y240D02*
X468Y240D01*
X568Y240D02*
X583Y240D01*
X638Y240D02*
X648Y240D01*
X694Y240D02*
X704Y240D01*
X746Y240D02*
X754Y240D01*
X171Y239D02*
X181Y239D01*
X227Y239D02*
X238Y239D01*
X293Y239D02*
X308Y239D01*
X417Y239D02*
X459Y239D01*
X567Y239D02*
X582Y239D01*
X636Y239D02*
X647Y239D01*
X693Y239D02*
X703Y239D01*
X745Y239D02*
X754Y239D01*
X172Y238D02*
X182Y238D01*
X228Y238D02*
X239Y238D01*
X295Y238D02*
X310Y238D01*
X565Y238D02*
X580Y238D01*
X635Y238D02*
X646Y238D01*
X692Y238D02*
X702Y238D01*
X744Y238D02*
X753Y238D01*
X173Y237D02*
X183Y237D01*
X229Y237D02*
X241Y237D01*
X297Y237D02*
X312Y237D01*
X563Y237D02*
X578Y237D01*
X634Y237D02*
X645Y237D01*
X691Y237D02*
X701Y237D01*
X743Y237D02*
X752Y237D01*
X174Y236D02*
X184Y236D01*
X230Y236D02*
X242Y236D01*
X299Y236D02*
X314Y236D01*
X561Y236D02*
X576Y236D01*
X633Y236D02*
X644Y236D01*
X691Y236D02*
X700Y236D01*
X743Y236D02*
X751Y236D01*
X175Y235D02*
X185Y235D01*
X232Y235D02*
X243Y235D01*
X300Y235D02*
X316Y235D01*
X559Y235D02*
X575Y235D01*
X631Y235D02*
X643Y235D01*
X690Y235D02*
X699Y235D01*
X742Y235D02*
X751Y235D01*
X176Y234D02*
X186Y234D01*
X233Y234D02*
X244Y234D01*
X302Y234D02*
X318Y234D01*
X557Y234D02*
X573Y234D01*
X630Y234D02*
X642Y234D01*
X689Y234D02*
X698Y234D01*
X741Y234D02*
X750Y234D01*
X176Y233D02*
X187Y233D01*
X234Y233D02*
X246Y233D01*
X304Y233D02*
X320Y233D01*
X555Y233D02*
X571Y233D01*
X629Y233D02*
X641Y233D01*
X688Y233D02*
X698Y233D01*
X740Y233D02*
X749Y233D01*
X177Y232D02*
X188Y232D01*
X235Y232D02*
X247Y232D01*
X306Y232D02*
X322Y232D01*
X553Y232D02*
X569Y232D01*
X628Y232D02*
X639Y232D01*
X687Y232D02*
X697Y232D01*
X739Y232D02*
X748Y232D01*
X178Y231D02*
X189Y231D01*
X237Y231D02*
X248Y231D01*
X308Y231D02*
X325Y231D01*
X551Y231D02*
X567Y231D01*
X626Y231D02*
X638Y231D01*
X686Y231D02*
X696Y231D01*
X738Y231D02*
X748Y231D01*
X179Y230D02*
X190Y230D01*
X238Y230D02*
X250Y230D01*
X310Y230D02*
X327Y230D01*
X548Y230D02*
X565Y230D01*
X625Y230D02*
X637Y230D01*
X685Y230D02*
X695Y230D01*
X738Y230D02*
X747Y230D01*
X180Y229D02*
X191Y229D01*
X239Y229D02*
X251Y229D01*
X312Y229D02*
X329Y229D01*
X546Y229D02*
X563Y229D01*
X624Y229D02*
X636Y229D01*
X684Y229D02*
X694Y229D01*
X737Y229D02*
X746Y229D01*
X181Y228D02*
X191Y228D01*
X240Y228D02*
X252Y228D01*
X314Y228D02*
X331Y228D01*
X544Y228D02*
X561Y228D01*
X622Y228D02*
X634Y228D01*
X683Y228D02*
X693Y228D01*
X736Y228D02*
X745Y228D01*
X182Y227D02*
X192Y227D01*
X241Y227D02*
X254Y227D01*
X316Y227D02*
X334Y227D01*
X542Y227D02*
X560Y227D01*
X621Y227D02*
X633Y227D01*
X682Y227D02*
X692Y227D01*
X735Y227D02*
X744Y227D01*
X183Y226D02*
X194Y226D01*
X243Y226D02*
X255Y226D01*
X318Y226D02*
X336Y226D01*
X539Y226D02*
X558Y226D01*
X620Y226D02*
X632Y226D01*
X681Y226D02*
X691Y226D01*
X734Y226D02*
X744Y226D01*
X1620Y226D02*
X1629Y226D01*
X184Y225D02*
X195Y225D01*
X244Y225D02*
X256Y225D01*
X320Y225D02*
X339Y225D01*
X536Y225D02*
X555Y225D01*
X618Y225D02*
X631Y225D01*
X680Y225D02*
X690Y225D01*
X733Y225D02*
X743Y225D01*
X1617Y225D02*
X1632Y225D01*
X185Y224D02*
X196Y224D01*
X246Y224D02*
X258Y224D01*
X322Y224D02*
X342Y224D01*
X534Y224D02*
X553Y224D01*
X617Y224D02*
X629Y224D01*
X679Y224D02*
X689Y224D01*
X733Y224D02*
X742Y224D01*
X1615Y224D02*
X1634Y224D01*
X186Y223D02*
X197Y223D01*
X247Y223D02*
X259Y223D01*
X324Y223D02*
X344Y223D01*
X531Y223D02*
X551Y223D01*
X615Y223D02*
X628Y223D01*
X678Y223D02*
X688Y223D01*
X732Y223D02*
X741Y223D01*
X1613Y223D02*
X1636Y223D01*
X187Y222D02*
X198Y222D01*
X248Y222D02*
X261Y222D01*
X327Y222D02*
X347Y222D01*
X528Y222D02*
X549Y222D01*
X614Y222D02*
X627Y222D01*
X677Y222D02*
X687Y222D01*
X731Y222D02*
X740Y222D01*
X1611Y222D02*
X1638Y222D01*
X188Y221D02*
X199Y221D01*
X250Y221D02*
X262Y221D01*
X329Y221D02*
X350Y221D01*
X525Y221D02*
X546Y221D01*
X613Y221D02*
X625Y221D01*
X675Y221D02*
X686Y221D01*
X730Y221D02*
X739Y221D01*
X1610Y221D02*
X1639Y221D01*
X189Y220D02*
X200Y220D01*
X251Y220D02*
X264Y220D01*
X331Y220D02*
X353Y220D01*
X522Y220D02*
X544Y220D01*
X611Y220D02*
X624Y220D01*
X674Y220D02*
X685Y220D01*
X729Y220D02*
X739Y220D01*
X1609Y220D02*
X1640Y220D01*
X191Y219D02*
X201Y219D01*
X252Y219D02*
X265Y219D01*
X334Y219D02*
X356Y219D01*
X519Y219D02*
X542Y219D01*
X610Y219D02*
X622Y219D01*
X673Y219D02*
X684Y219D01*
X728Y219D02*
X738Y219D01*
X1608Y219D02*
X1641Y219D01*
X192Y218D02*
X202Y218D01*
X254Y218D02*
X267Y218D01*
X336Y218D02*
X359Y218D01*
X516Y218D02*
X539Y218D01*
X608Y218D02*
X621Y218D01*
X672Y218D02*
X683Y218D01*
X727Y218D02*
X737Y218D01*
X1607Y218D02*
X1642Y218D01*
X193Y217D02*
X203Y217D01*
X255Y217D02*
X268Y217D01*
X339Y217D02*
X363Y217D01*
X513Y217D02*
X536Y217D01*
X607Y217D02*
X620Y217D01*
X671Y217D02*
X682Y217D01*
X727Y217D02*
X736Y217D01*
X1606Y217D02*
X1643Y217D01*
X194Y216D02*
X204Y216D01*
X257Y216D02*
X270Y216D01*
X341Y216D02*
X366Y216D01*
X509Y216D02*
X534Y216D01*
X605Y216D02*
X618Y216D01*
X670Y216D02*
X681Y216D01*
X726Y216D02*
X735Y216D01*
X1605Y216D02*
X1644Y216D01*
X195Y215D02*
X206Y215D01*
X258Y215D02*
X271Y215D01*
X344Y215D02*
X370Y215D01*
X505Y215D02*
X531Y215D01*
X603Y215D02*
X617Y215D01*
X669Y215D02*
X680Y215D01*
X725Y215D02*
X734Y215D01*
X1605Y215D02*
X1644Y215D01*
X196Y214D02*
X207Y214D01*
X260Y214D02*
X273Y214D01*
X347Y214D02*
X374Y214D01*
X501Y214D02*
X528Y214D01*
X602Y214D02*
X615Y214D01*
X668Y214D02*
X678Y214D01*
X724Y214D02*
X733Y214D01*
X1604Y214D02*
X1645Y214D01*
X197Y213D02*
X208Y213D01*
X261Y213D02*
X275Y213D01*
X350Y213D02*
X379Y213D01*
X497Y213D02*
X525Y213D01*
X600Y213D02*
X614Y213D01*
X666Y213D02*
X677Y213D01*
X723Y213D02*
X733Y213D01*
X1604Y213D02*
X1620Y213D01*
X1629Y213D02*
X1645Y213D01*
X198Y212D02*
X209Y212D01*
X263Y212D02*
X276Y212D01*
X353Y212D02*
X383Y212D01*
X492Y212D02*
X522Y212D01*
X599Y212D02*
X612Y212D01*
X665Y212D02*
X676Y212D01*
X722Y212D02*
X732Y212D01*
X1603Y212D02*
X1618Y212D01*
X1631Y212D02*
X1646Y212D01*
X199Y211D02*
X210Y211D01*
X264Y211D02*
X278Y211D01*
X356Y211D02*
X389Y211D01*
X487Y211D02*
X519Y211D01*
X597Y211D02*
X611Y211D01*
X664Y211D02*
X675Y211D01*
X721Y211D02*
X731Y211D01*
X1603Y211D02*
X1617Y211D01*
X1632Y211D02*
X1646Y211D01*
X200Y210D02*
X212Y210D01*
X266Y210D02*
X280Y210D01*
X360Y210D02*
X395Y210D01*
X481Y210D02*
X516Y210D01*
X595Y210D02*
X609Y210D01*
X663Y210D02*
X674Y210D01*
X720Y210D02*
X730Y210D01*
X1602Y210D02*
X1616Y210D01*
X1633Y210D02*
X1647Y210D01*
X201Y209D02*
X213Y209D01*
X267Y209D02*
X281Y209D01*
X363Y209D02*
X401Y209D01*
X475Y209D02*
X512Y209D01*
X594Y209D02*
X608Y209D01*
X662Y209D02*
X673Y209D01*
X719Y209D02*
X729Y209D01*
X1602Y209D02*
X1615Y209D01*
X1634Y209D02*
X1647Y209D01*
X203Y208D02*
X214Y208D01*
X269Y208D02*
X283Y208D01*
X367Y208D02*
X410Y208D01*
X466Y208D02*
X509Y208D01*
X592Y208D02*
X606Y208D01*
X661Y208D02*
X672Y208D01*
X718Y208D02*
X728Y208D01*
X1602Y208D02*
X1614Y208D01*
X1635Y208D02*
X1647Y208D01*
X204Y207D02*
X215Y207D01*
X270Y207D02*
X285Y207D01*
X371Y207D02*
X423Y207D01*
X453Y207D02*
X505Y207D01*
X590Y207D02*
X605Y207D01*
X659Y207D02*
X671Y207D01*
X717Y207D02*
X727Y207D01*
X1602Y207D02*
X1614Y207D01*
X1635Y207D02*
X1647Y207D01*
X205Y206D02*
X216Y206D01*
X272Y206D02*
X287Y206D01*
X375Y206D02*
X501Y206D01*
X588Y206D02*
X603Y206D01*
X658Y206D02*
X669Y206D01*
X716Y206D02*
X726Y206D01*
X1601Y206D02*
X1613Y206D01*
X1636Y206D02*
X1648Y206D01*
X206Y205D02*
X218Y205D01*
X274Y205D02*
X289Y205D01*
X380Y205D02*
X496Y205D01*
X587Y205D02*
X601Y205D01*
X657Y205D02*
X668Y205D01*
X715Y205D02*
X725Y205D01*
X1601Y205D02*
X1613Y205D01*
X1636Y205D02*
X1648Y205D01*
X207Y204D02*
X219Y204D01*
X275Y204D02*
X290Y204D01*
X384Y204D02*
X491Y204D01*
X585Y204D02*
X600Y204D01*
X656Y204D02*
X667Y204D01*
X714Y204D02*
X724Y204D01*
X1601Y204D02*
X1613Y204D01*
X1636Y204D02*
X1648Y204D01*
X209Y203D02*
X220Y203D01*
X277Y203D02*
X292Y203D01*
X390Y203D02*
X486Y203D01*
X583Y203D02*
X598Y203D01*
X654Y203D02*
X666Y203D01*
X713Y203D02*
X723Y203D01*
X1601Y203D02*
X1613Y203D01*
X1636Y203D02*
X1648Y203D01*
X210Y202D02*
X221Y202D01*
X279Y202D02*
X294Y202D01*
X396Y202D02*
X480Y202D01*
X581Y202D02*
X596Y202D01*
X653Y202D02*
X665Y202D01*
X712Y202D02*
X722Y202D01*
X1601Y202D02*
X1613Y202D01*
X1636Y202D02*
X1648Y202D01*
X211Y201D02*
X223Y201D01*
X281Y201D02*
X296Y201D01*
X402Y201D02*
X473Y201D01*
X579Y201D02*
X594Y201D01*
X652Y201D02*
X664Y201D01*
X711Y201D02*
X722Y201D01*
X1601Y201D02*
X1613Y201D01*
X1636Y201D02*
X1648Y201D01*
X212Y200D02*
X224Y200D01*
X282Y200D02*
X298Y200D01*
X412Y200D02*
X464Y200D01*
X577Y200D02*
X593Y200D01*
X651Y200D02*
X662Y200D01*
X710Y200D02*
X721Y200D01*
X1601Y200D02*
X1613Y200D01*
X1636Y200D02*
X1648Y200D01*
X214Y199D02*
X225Y199D01*
X284Y199D02*
X300Y199D01*
X426Y199D02*
X449Y199D01*
X575Y199D02*
X591Y199D01*
X649Y199D02*
X661Y199D01*
X709Y199D02*
X720Y199D01*
X1601Y199D02*
X1613Y199D01*
X1636Y199D02*
X1648Y199D01*
X215Y198D02*
X227Y198D01*
X286Y198D02*
X302Y198D01*
X573Y198D02*
X589Y198D01*
X648Y198D02*
X660Y198D01*
X708Y198D02*
X718Y198D01*
X1602Y198D02*
X1614Y198D01*
X1635Y198D02*
X1647Y198D01*
X216Y197D02*
X228Y197D01*
X288Y197D02*
X304Y197D01*
X571Y197D02*
X587Y197D01*
X647Y197D02*
X659Y197D01*
X707Y197D02*
X717Y197D01*
X1602Y197D02*
X1614Y197D01*
X1635Y197D02*
X1647Y197D01*
X217Y196D02*
X229Y196D01*
X290Y196D02*
X307Y196D01*
X569Y196D02*
X585Y196D01*
X645Y196D02*
X657Y196D01*
X706Y196D02*
X716Y196D01*
X1602Y196D02*
X1615Y196D01*
X1634Y196D02*
X1647Y196D01*
X219Y195D02*
X231Y195D01*
X292Y195D02*
X309Y195D01*
X566Y195D02*
X583Y195D01*
X644Y195D02*
X656Y195D01*
X705Y195D02*
X715Y195D01*
X1603Y195D02*
X1616Y195D01*
X1633Y195D02*
X1646Y195D01*
X220Y194D02*
X232Y194D01*
X294Y194D02*
X311Y194D01*
X564Y194D02*
X581Y194D01*
X643Y194D02*
X655Y194D01*
X704Y194D02*
X714Y194D01*
X1603Y194D02*
X1617Y194D01*
X1632Y194D02*
X1646Y194D01*
X221Y193D02*
X234Y193D01*
X296Y193D02*
X313Y193D01*
X562Y193D02*
X579Y193D01*
X641Y193D02*
X653Y193D01*
X703Y193D02*
X713Y193D01*
X1603Y193D02*
X1618Y193D01*
X1631Y193D02*
X1646Y193D01*
X223Y192D02*
X235Y192D01*
X297Y192D02*
X315Y192D01*
X560Y192D02*
X577Y192D01*
X640Y192D02*
X652Y192D01*
X702Y192D02*
X712Y192D01*
X1604Y192D02*
X1620Y192D01*
X1629Y192D02*
X1645Y192D01*
X224Y191D02*
X236Y191D01*
X300Y191D02*
X318Y191D01*
X557Y191D02*
X575Y191D01*
X638Y191D02*
X651Y191D01*
X701Y191D02*
X711Y191D01*
X1604Y191D02*
X1645Y191D01*
X225Y190D02*
X238Y190D01*
X302Y190D02*
X321Y190D01*
X555Y190D02*
X573Y190D01*
X637Y190D02*
X649Y190D01*
X700Y190D02*
X710Y190D01*
X1605Y190D02*
X1644Y190D01*
X227Y189D02*
X239Y189D01*
X304Y189D02*
X323Y189D01*
X552Y189D02*
X571Y189D01*
X636Y189D02*
X648Y189D01*
X699Y189D02*
X709Y189D01*
X1605Y189D02*
X1644Y189D01*
X228Y188D02*
X241Y188D01*
X306Y188D02*
X326Y188D01*
X550Y188D02*
X569Y188D01*
X634Y188D02*
X647Y188D01*
X698Y188D02*
X708Y188D01*
X1606Y188D02*
X1643Y188D01*
X229Y187D02*
X242Y187D01*
X308Y187D02*
X328Y187D01*
X547Y187D02*
X567Y187D01*
X633Y187D02*
X645Y187D01*
X696Y187D02*
X707Y187D01*
X1607Y187D02*
X1642Y187D01*
X231Y186D02*
X244Y186D01*
X311Y186D02*
X331Y186D01*
X544Y186D02*
X565Y186D01*
X631Y186D02*
X644Y186D01*
X695Y186D02*
X706Y186D01*
X1608Y186D02*
X1641Y186D01*
X232Y185D02*
X245Y185D01*
X313Y185D02*
X334Y185D01*
X542Y185D02*
X562Y185D01*
X630Y185D02*
X642Y185D01*
X694Y185D02*
X705Y185D01*
X1609Y185D02*
X1640Y185D01*
X234Y184D02*
X247Y184D01*
X315Y184D02*
X337Y184D01*
X539Y184D02*
X560Y184D01*
X628Y184D02*
X641Y184D01*
X693Y184D02*
X704Y184D01*
X1610Y184D02*
X1639Y184D01*
X235Y183D02*
X248Y183D01*
X318Y183D02*
X340Y183D01*
X536Y183D02*
X558Y183D01*
X626Y183D02*
X640Y183D01*
X692Y183D02*
X703Y183D01*
X1612Y183D02*
X1637Y183D01*
X237Y182D02*
X250Y182D01*
X320Y182D02*
X343Y182D01*
X533Y182D02*
X555Y182D01*
X625Y182D02*
X638Y182D01*
X691Y182D02*
X702Y182D01*
X1613Y182D02*
X1636Y182D01*
X238Y181D02*
X251Y181D01*
X323Y181D02*
X346Y181D01*
X530Y181D02*
X553Y181D01*
X623Y181D02*
X637Y181D01*
X690Y181D02*
X701Y181D01*
X1615Y181D02*
X1634Y181D01*
X240Y180D02*
X253Y180D01*
X325Y180D02*
X349Y180D01*
X526Y180D02*
X550Y180D01*
X622Y180D02*
X635Y180D01*
X689Y180D02*
X699Y180D01*
X1618Y180D02*
X1631Y180D01*
X241Y179D02*
X255Y179D01*
X328Y179D02*
X353Y179D01*
X523Y179D02*
X547Y179D01*
X620Y179D02*
X634Y179D01*
X687Y179D02*
X698Y179D01*
X1622Y179D02*
X1627Y179D01*
X243Y178D02*
X257Y178D01*
X331Y178D02*
X356Y178D01*
X519Y178D02*
X544Y178D01*
X619Y178D02*
X632Y178D01*
X686Y178D02*
X697Y178D01*
X244Y177D02*
X258Y177D01*
X334Y177D02*
X360Y177D01*
X515Y177D02*
X542Y177D01*
X617Y177D02*
X631Y177D01*
X685Y177D02*
X696Y177D01*
X246Y176D02*
X260Y176D01*
X337Y176D02*
X364Y176D01*
X511Y176D02*
X539Y176D01*
X615Y176D02*
X629Y176D01*
X684Y176D02*
X695Y176D01*
X247Y175D02*
X262Y175D01*
X340Y175D02*
X368Y175D01*
X507Y175D02*
X536Y175D01*
X613Y175D02*
X627Y175D01*
X682Y175D02*
X694Y175D01*
X249Y174D02*
X263Y174D01*
X343Y174D02*
X373Y174D01*
X502Y174D02*
X532Y174D01*
X612Y174D02*
X626Y174D01*
X681Y174D02*
X693Y174D01*
X251Y173D02*
X265Y173D01*
X346Y173D02*
X377Y173D01*
X498Y173D02*
X529Y173D01*
X610Y173D02*
X624Y173D01*
X680Y173D02*
X691Y173D01*
X252Y172D02*
X267Y172D01*
X349Y172D02*
X383Y172D01*
X493Y172D02*
X526Y172D01*
X608Y172D02*
X623Y172D01*
X679Y172D02*
X690Y172D01*
X254Y171D02*
X269Y171D01*
X353Y171D02*
X389Y171D01*
X486Y171D02*
X522Y171D01*
X606Y171D02*
X621Y171D01*
X677Y171D02*
X689Y171D01*
X256Y170D02*
X271Y170D01*
X357Y170D02*
X396Y170D01*
X480Y170D02*
X519Y170D01*
X605Y170D02*
X619Y170D01*
X676Y170D02*
X688Y170D01*
X257Y169D02*
X273Y169D01*
X360Y169D02*
X405Y169D01*
X471Y169D02*
X515Y169D01*
X603Y169D02*
X618Y169D01*
X675Y169D02*
X686Y169D01*
X259Y168D02*
X274Y168D01*
X365Y168D02*
X416Y168D01*
X461Y168D02*
X511Y168D01*
X601Y168D02*
X616Y168D01*
X674Y168D02*
X685Y168D01*
X261Y167D02*
X276Y167D01*
X369Y167D02*
X507Y167D01*
X599Y167D02*
X614Y167D01*
X672Y167D02*
X684Y167D01*
X262Y166D02*
X278Y166D01*
X374Y166D02*
X502Y166D01*
X597Y166D02*
X612Y166D01*
X671Y166D02*
X683Y166D01*
X264Y165D02*
X280Y165D01*
X378Y165D02*
X497Y165D01*
X595Y165D02*
X611Y165D01*
X670Y165D02*
X681Y165D01*
X266Y164D02*
X282Y164D01*
X384Y164D02*
X491Y164D01*
X593Y164D02*
X609Y164D01*
X668Y164D02*
X680Y164D01*
X268Y163D02*
X284Y163D01*
X390Y163D02*
X485Y163D01*
X591Y163D02*
X607Y163D01*
X667Y163D02*
X679Y163D01*
X270Y162D02*
X286Y162D01*
X397Y162D02*
X478Y162D01*
X589Y162D02*
X605Y162D01*
X665Y162D02*
X678Y162D01*
X272Y161D02*
X289Y161D01*
X406Y161D02*
X469Y161D01*
X587Y161D02*
X603Y161D01*
X664Y161D02*
X676Y161D01*
X274Y160D02*
X291Y160D01*
X419Y160D02*
X457Y160D01*
X585Y160D02*
X601Y160D01*
X663Y160D02*
X675Y160D01*
X276Y159D02*
X293Y159D01*
X582Y159D02*
X599Y159D01*
X661Y159D02*
X674Y159D01*
X278Y158D02*
X295Y158D01*
X580Y158D02*
X597Y158D01*
X660Y158D02*
X672Y158D01*
X280Y157D02*
X297Y157D01*
X578Y157D02*
X595Y157D01*
X658Y157D02*
X671Y157D01*
X282Y156D02*
X300Y156D01*
X575Y156D02*
X593Y156D01*
X657Y156D02*
X670Y156D01*
X284Y155D02*
X302Y155D01*
X573Y155D02*
X591Y155D01*
X656Y155D02*
X668Y155D01*
X286Y154D02*
X305Y154D01*
X571Y154D02*
X589Y154D01*
X654Y154D02*
X667Y154D01*
X288Y153D02*
X307Y153D01*
X568Y153D02*
X587Y153D01*
X653Y153D02*
X665Y153D01*
X290Y152D02*
X310Y152D01*
X566Y152D02*
X585Y152D01*
X651Y152D02*
X664Y152D01*
X293Y151D02*
X312Y151D01*
X563Y151D02*
X583Y151D01*
X649Y151D02*
X663Y151D01*
X295Y150D02*
X315Y150D01*
X560Y150D02*
X580Y150D01*
X648Y150D02*
X661Y150D01*
X297Y149D02*
X317Y149D01*
X558Y149D02*
X578Y149D01*
X646Y149D02*
X660Y149D01*
X299Y148D02*
X320Y148D01*
X555Y148D02*
X576Y148D01*
X645Y148D02*
X658Y148D01*
X302Y147D02*
X323Y147D01*
X552Y147D02*
X573Y147D01*
X643Y147D02*
X657Y147D01*
X304Y146D02*
X326Y146D01*
X549Y146D02*
X571Y146D01*
X642Y146D02*
X655Y146D01*
X307Y145D02*
X329Y145D01*
X546Y145D02*
X568Y145D01*
X640Y145D02*
X654Y145D01*
X309Y144D02*
X332Y144D01*
X543Y144D02*
X566Y144D01*
X638Y144D02*
X652Y144D01*
X312Y143D02*
X335Y143D01*
X540Y143D02*
X563Y143D01*
X637Y143D02*
X650Y143D01*
X315Y142D02*
X339Y142D01*
X537Y142D02*
X560Y142D01*
X635Y142D02*
X649Y142D01*
X317Y141D02*
X343Y141D01*
X533Y141D02*
X558Y141D01*
X633Y141D02*
X647Y141D01*
X320Y140D02*
X346Y140D01*
X529Y140D02*
X555Y140D01*
X631Y140D02*
X646Y140D01*
X323Y139D02*
X350Y139D01*
X525Y139D02*
X552Y139D01*
X630Y139D02*
X644Y139D01*
X326Y138D02*
X354Y138D01*
X522Y138D02*
X549Y138D01*
X628Y138D02*
X643Y138D01*
X329Y137D02*
X358Y137D01*
X518Y137D02*
X546Y137D01*
X626Y137D02*
X641Y137D01*
X332Y136D02*
X363Y136D01*
X513Y136D02*
X543Y136D01*
X624Y136D02*
X639Y136D01*
X336Y135D02*
X367Y135D01*
X508Y135D02*
X540Y135D01*
X622Y135D02*
X638Y135D01*
X339Y134D02*
X372Y134D01*
X503Y134D02*
X536Y134D01*
X621Y134D02*
X636Y134D01*
X343Y133D02*
X378Y133D01*
X498Y133D02*
X533Y133D01*
X619Y133D02*
X634Y133D01*
X346Y132D02*
X384Y132D01*
X491Y132D02*
X529Y132D01*
X617Y132D02*
X632Y132D01*
X350Y131D02*
X390Y131D01*
X485Y131D02*
X525Y131D01*
X615Y131D02*
X630Y131D01*
X354Y130D02*
X399Y130D01*
X476Y130D02*
X521Y130D01*
X613Y130D02*
X629Y130D01*
X359Y129D02*
X409Y129D01*
X466Y129D02*
X517Y129D01*
X611Y129D02*
X627Y129D01*
X363Y128D02*
X429Y128D01*
X447Y128D02*
X512Y128D01*
X609Y128D02*
X625Y128D01*
X368Y127D02*
X507Y127D01*
X607Y127D02*
X623Y127D01*
X373Y126D02*
X502Y126D01*
X605Y126D02*
X621Y126D01*
X379Y125D02*
X497Y125D01*
X603Y125D02*
X619Y125D01*
X385Y124D02*
X490Y124D01*
X601Y124D02*
X617Y124D01*
X392Y123D02*
X483Y123D01*
X598Y123D02*
X615Y123D01*
X401Y122D02*
X474Y122D01*
X596Y122D02*
X613Y122D01*
X412Y121D02*
X464Y121D01*
X594Y121D02*
X611Y121D01*
X591Y120D02*
X609Y120D01*
X589Y119D02*
X607Y119D01*
X587Y118D02*
X605Y118D01*
X584Y117D02*
X603Y117D01*
X582Y116D02*
X601Y116D01*
X579Y115D02*
X599Y115D01*
X577Y114D02*
X596Y114D01*
X574Y113D02*
X594Y113D01*
X571Y112D02*
X592Y112D01*
X568Y111D02*
X589Y111D01*
X566Y110D02*
X587Y110D01*
X563Y109D02*
X585Y109D01*
X560Y108D02*
X582Y108D01*
X556Y107D02*
X579Y107D01*
X553Y106D02*
X577Y106D01*
X550Y105D02*
X574Y105D01*
X547Y104D02*
X571Y104D01*
X543Y103D02*
X569Y103D01*
X540Y102D02*
X566Y102D01*
X536Y101D02*
X563Y101D01*
X532Y100D02*
X559Y100D01*
X528Y99D02*
X556Y99D01*
X524Y98D02*
X553Y98D01*
X519Y97D02*
X550Y97D01*
X514Y96D02*
X547Y96D01*
X509Y95D02*
X543Y95D01*
X503Y94D02*
X539Y94D01*
X497Y93D02*
X535Y93D01*
X490Y92D02*
X531Y92D01*
X482Y91D02*
X527Y91D01*
X471Y90D02*
X523Y90D01*
X456Y89D02*
X518Y89D01*
X444Y88D02*
X513Y88D01*
X444Y87D02*
X508Y87D01*
X445Y86D02*
X502Y86D01*
X445Y85D02*
X495Y85D01*
X437Y84D02*
X489Y84D01*
X437Y83D02*
X480Y83D01*
X437Y82D02*
X470Y82D01*
X437Y81D02*
X452Y81D01*
X437Y80D02*
X451Y80D01*
X437Y79D02*
X451Y79D01*
X437Y78D02*
X451Y78D01*
X437Y77D02*
X451Y77D01*
X437Y76D02*
X451Y76D01*
X437Y75D02*
X451Y75D01*
X437Y74D02*
X451Y74D01*
X437Y73D02*
X451Y73D01*
X437Y72D02*
X451Y72D01*
X437Y71D02*
X451Y71D01*
X437Y70D02*
X451Y70D01*
X437Y69D02*
X451Y69D01*
X437Y68D02*
X451Y68D01*
X437Y67D02*
X451Y67D01*
X437Y66D02*
X451Y66D01*
X437Y65D02*
X451Y65D01*
X437Y64D02*
X451Y64D01*
X437Y63D02*
X451Y63D01*
X437Y62D02*
X451Y62D01*
X437Y61D02*
X451Y61D01*
X437Y60D02*
X451Y60D01*
X437Y59D02*
X451Y59D01*
X437Y58D02*
X451Y58D01*
D02*
G04 End of Copper1*
M02*