G04 MADE WITH FRITZING*
G04 WWW.FRITZING.ORG*
G04 DOUBLE SIDED*
G04 HOLES PLATED*
G04 CONTOUR ON CENTER OF CONTOUR VECTOR*
%ASAXBY*%
%FSLAX23Y23*%
%MOIN*%
%OFA0B0*%
%SFA1.0B1.0*%
%ADD10C,0.007874*%
%ADD11R,0.001000X0.001000*%
%LNSILK1*%
G90*
G70*
G54D10*
X414Y70D02*
X408Y70D01*
D02*
X408Y70D02*
X403Y71D01*
D02*
X403Y71D02*
X397Y72D01*
D02*
X397Y72D02*
X391Y74D01*
D02*
X391Y74D02*
X386Y75D01*
D02*
X386Y75D02*
X380Y76D01*
D02*
X380Y76D02*
X375Y77D01*
D02*
X352Y83D02*
X347Y85D01*
D02*
X347Y85D02*
X342Y87D01*
D02*
X342Y87D02*
X336Y89D01*
D02*
X336Y89D02*
X331Y91D01*
D02*
X331Y91D02*
X326Y93D01*
D02*
X326Y93D02*
X320Y95D01*
D02*
X320Y95D02*
X315Y97D01*
D02*
X294Y106D02*
X289Y109D01*
D02*
X289Y109D02*
X283Y111D01*
D02*
X283Y111D02*
X278Y114D01*
D02*
X278Y114D02*
X274Y116D01*
D02*
X274Y116D02*
X269Y119D01*
D02*
X269Y119D02*
X264Y122D01*
D02*
X264Y122D02*
X259Y125D01*
D02*
X239Y137D02*
X234Y141D01*
D02*
X234Y141D02*
X230Y144D01*
D02*
X230Y144D02*
X225Y147D01*
D02*
X225Y147D02*
X221Y150D01*
D02*
X221Y150D02*
X216Y154D01*
D02*
X216Y154D02*
X212Y157D01*
D02*
X212Y157D02*
X207Y161D01*
D02*
X189Y176D02*
X185Y180D01*
D02*
X185Y180D02*
X181Y184D01*
D02*
X181Y184D02*
X177Y188D01*
D02*
X177Y188D02*
X173Y192D01*
D02*
X173Y192D02*
X169Y196D01*
D02*
X169Y196D02*
X165Y200D01*
D02*
X165Y200D02*
X162Y204D01*
D02*
X146Y222D02*
X143Y227D01*
D02*
X143Y227D02*
X139Y231D01*
D02*
X139Y231D02*
X136Y235D01*
D02*
X136Y235D02*
X133Y240D01*
D02*
X133Y240D02*
X129Y245D01*
D02*
X129Y245D02*
X126Y249D01*
D02*
X126Y249D02*
X123Y254D01*
D02*
X110Y274D02*
X107Y279D01*
D02*
X107Y279D02*
X105Y284D01*
D02*
X105Y284D02*
X102Y288D01*
D02*
X102Y288D02*
X99Y293D01*
D02*
X99Y293D02*
X97Y298D01*
D02*
X97Y298D02*
X94Y304D01*
D02*
X94Y304D02*
X92Y309D01*
D02*
X82Y330D02*
X80Y335D01*
D02*
X80Y335D02*
X78Y341D01*
D02*
X78Y341D02*
X76Y346D01*
D02*
X76Y346D02*
X74Y351D01*
D02*
X74Y351D02*
X73Y357D01*
D02*
X73Y357D02*
X71Y362D01*
D02*
X71Y362D02*
X69Y367D01*
D02*
X63Y390D02*
X62Y396D01*
D02*
X62Y396D02*
X61Y401D01*
D02*
X61Y401D02*
X59Y407D01*
D02*
X59Y407D02*
X58Y412D01*
D02*
X58Y412D02*
X57Y418D01*
D02*
X57Y418D02*
X57Y423D01*
D02*
X57Y423D02*
X56Y429D01*
D02*
X53Y452D02*
X52Y458D01*
D02*
X52Y458D02*
X52Y463D01*
D02*
X52Y463D02*
X52Y469D01*
D02*
X52Y469D02*
X51Y475D01*
D02*
X51Y475D02*
X51Y480D01*
D02*
X51Y480D02*
X51Y486D01*
D02*
X51Y486D02*
X51Y492D01*
D02*
X52Y515D02*
X52Y521D01*
D02*
X52Y521D02*
X53Y526D01*
D02*
X53Y526D02*
X53Y532D01*
D02*
X53Y532D02*
X54Y538D01*
D02*
X54Y538D02*
X54Y543D01*
D02*
X54Y543D02*
X55Y549D01*
D02*
X55Y549D02*
X56Y554D01*
D02*
X60Y578D02*
X61Y583D01*
D02*
X61Y583D02*
X63Y588D01*
D02*
X63Y588D02*
X64Y594D01*
D02*
X64Y594D02*
X65Y599D01*
D02*
X65Y599D02*
X67Y605D01*
D02*
X67Y605D02*
X69Y610D01*
D02*
X69Y610D02*
X70Y616D01*
D02*
X78Y638D02*
X80Y643D01*
D02*
X80Y643D02*
X82Y648D01*
D02*
X82Y648D02*
X84Y654D01*
D02*
X84Y654D02*
X86Y659D01*
D02*
X86Y659D02*
X88Y664D01*
D02*
X88Y664D02*
X91Y669D01*
D02*
X91Y669D02*
X93Y674D01*
D02*
X104Y695D02*
X107Y700D01*
D02*
X107Y700D02*
X109Y705D01*
D02*
X109Y705D02*
X112Y710D01*
D02*
X112Y710D02*
X115Y715D01*
D02*
X115Y715D02*
X118Y719D01*
D02*
X118Y719D02*
X121Y724D01*
D02*
X121Y724D02*
X124Y729D01*
D02*
X138Y748D02*
X142Y752D01*
D02*
X142Y752D02*
X145Y757D01*
D02*
X145Y757D02*
X149Y761D01*
D02*
X149Y761D02*
X152Y765D01*
D02*
X152Y765D02*
X156Y770D01*
D02*
X156Y770D02*
X160Y774D01*
D02*
X160Y774D02*
X164Y778D01*
D02*
X180Y795D02*
X184Y799D01*
D02*
X184Y799D02*
X188Y803D01*
D02*
X188Y803D02*
X192Y807D01*
D02*
X192Y807D02*
X197Y810D01*
D02*
X197Y810D02*
X201Y814D01*
D02*
X201Y814D02*
X205Y818D01*
D02*
X205Y818D02*
X209Y821D01*
D02*
X228Y835D02*
X233Y839D01*
D02*
X233Y839D02*
X237Y842D01*
D02*
X237Y842D02*
X242Y845D01*
D02*
X242Y845D02*
X247Y848D01*
D02*
X247Y848D02*
X252Y851D01*
D02*
X252Y851D02*
X256Y854D01*
D02*
X256Y854D02*
X261Y857D01*
D02*
X282Y868D02*
X287Y871D01*
D02*
X287Y871D02*
X292Y873D01*
D02*
X292Y873D02*
X297Y876D01*
D02*
X297Y876D02*
X302Y878D01*
D02*
X302Y878D02*
X307Y880D01*
D02*
X307Y880D02*
X313Y883D01*
D02*
X313Y883D02*
X318Y885D01*
D02*
X340Y893D02*
X345Y895D01*
D02*
X345Y895D02*
X351Y896D01*
D02*
X351Y896D02*
X356Y898D01*
D02*
X356Y898D02*
X361Y900D01*
D02*
X361Y900D02*
X367Y901D01*
D02*
X367Y901D02*
X372Y902D01*
D02*
X372Y902D02*
X378Y904D01*
D02*
X401Y909D02*
X406Y910D01*
D02*
X406Y910D02*
X412Y910D01*
D02*
X412Y910D02*
X417Y911D01*
D02*
X417Y911D02*
X423Y912D01*
D02*
X423Y912D02*
X429Y913D01*
D02*
X429Y913D02*
X434Y913D01*
D02*
X434Y913D02*
X440Y914D01*
D02*
X463Y915D02*
X469Y915D01*
D02*
X469Y915D02*
X475Y915D01*
D02*
X475Y915D02*
X480Y915D01*
D02*
X480Y915D02*
X486Y915D01*
D02*
X486Y915D02*
X492Y915D01*
D02*
X492Y915D02*
X497Y915D01*
D02*
X497Y915D02*
X503Y915D01*
D02*
X526Y912D02*
X532Y912D01*
D02*
X532Y912D02*
X537Y911D01*
D02*
X537Y911D02*
X543Y910D01*
D02*
X588Y900D02*
X594Y899D01*
D02*
X594Y899D02*
X599Y897D01*
D02*
X599Y897D02*
X604Y896D01*
D02*
X604Y896D02*
X610Y894D01*
D02*
X610Y894D02*
X615Y892D01*
D02*
X615Y892D02*
X620Y890D01*
D02*
X620Y890D02*
X626Y888D01*
D02*
X647Y879D02*
X653Y877D01*
D02*
X653Y877D02*
X658Y875D01*
D02*
X658Y875D02*
X663Y872D01*
D02*
X663Y872D02*
X668Y870D01*
D02*
X668Y870D02*
X673Y867D01*
D02*
X673Y867D02*
X678Y865D01*
D02*
X678Y865D02*
X683Y862D01*
D02*
X703Y850D02*
X708Y847D01*
D02*
X708Y847D02*
X712Y844D01*
D02*
X712Y844D02*
X717Y841D01*
D02*
X717Y841D02*
X722Y837D01*
D02*
X722Y837D02*
X726Y834D01*
D02*
X726Y834D02*
X731Y831D01*
D02*
X731Y831D02*
X735Y827D01*
D02*
X754Y813D02*
X758Y809D01*
D02*
X758Y809D02*
X762Y805D01*
D02*
X762Y805D02*
X766Y801D01*
D02*
X766Y801D02*
X770Y797D01*
D02*
X770Y797D02*
X774Y793D01*
D02*
X774Y793D02*
X778Y790D01*
D02*
X778Y790D02*
X782Y785D01*
D02*
X798Y768D02*
X802Y764D01*
D02*
X802Y764D02*
X805Y759D01*
D02*
X805Y759D02*
X809Y755D01*
D02*
X809Y755D02*
X812Y751D01*
D02*
X812Y751D02*
X816Y746D01*
D02*
X816Y746D02*
X819Y742D01*
D02*
X819Y742D02*
X822Y737D01*
D02*
X836Y718D02*
X839Y713D01*
D02*
X839Y713D02*
X842Y708D01*
D02*
X842Y708D02*
X844Y703D01*
D02*
X844Y703D02*
X847Y698D01*
D02*
X847Y698D02*
X850Y693D01*
D02*
X850Y693D02*
X853Y688D01*
D02*
X853Y688D02*
X855Y683D01*
D02*
X865Y662D02*
X868Y657D01*
D02*
X868Y657D02*
X870Y652D01*
D02*
X870Y652D02*
X872Y646D01*
D02*
X872Y646D02*
X874Y641D01*
D02*
X874Y641D02*
X876Y636D01*
D02*
X876Y636D02*
X878Y631D01*
D02*
X878Y631D02*
X880Y625D01*
D02*
X886Y603D02*
X888Y597D01*
D02*
X888Y597D02*
X889Y592D01*
D02*
X889Y592D02*
X891Y586D01*
D02*
X891Y586D02*
X892Y581D01*
D02*
X892Y581D02*
X893Y575D01*
D02*
X893Y575D02*
X894Y570D01*
D02*
X894Y570D02*
X895Y564D01*
D02*
X899Y541D02*
X899Y535D01*
D02*
X899Y535D02*
X900Y530D01*
D02*
X900Y530D02*
X900Y524D01*
D02*
X900Y524D02*
X901Y519D01*
D02*
X901Y519D02*
X901Y513D01*
D02*
X901Y513D02*
X901Y507D01*
D02*
X901Y507D02*
X901Y502D01*
D02*
X901Y478D02*
X901Y472D01*
D02*
X901Y472D02*
X901Y467D01*
D02*
X901Y467D02*
X901Y461D01*
D02*
X901Y461D02*
X900Y456D01*
D02*
X900Y456D02*
X900Y450D01*
D02*
X900Y450D02*
X899Y444D01*
D02*
X899Y444D02*
X898Y439D01*
D02*
X895Y415D02*
X894Y410D01*
D02*
X894Y410D02*
X893Y404D01*
D02*
X893Y404D02*
X892Y399D01*
D02*
X892Y399D02*
X890Y393D01*
D02*
X890Y393D02*
X889Y388D01*
D02*
X889Y388D02*
X888Y383D01*
D02*
X888Y383D02*
X886Y377D01*
D02*
X879Y355D02*
X878Y349D01*
D02*
X878Y349D02*
X876Y344D01*
D02*
X876Y344D02*
X874Y339D01*
D02*
X874Y339D02*
X872Y333D01*
D02*
X872Y333D02*
X870Y328D01*
D02*
X870Y328D02*
X867Y323D01*
D02*
X867Y323D02*
X865Y318D01*
D02*
X855Y297D02*
X852Y292D01*
D02*
X852Y292D02*
X850Y287D01*
D02*
X850Y287D02*
X847Y282D01*
D02*
X847Y282D02*
X844Y277D01*
D02*
X844Y277D02*
X841Y272D01*
D02*
X841Y272D02*
X838Y267D01*
D02*
X838Y267D02*
X835Y262D01*
D02*
X822Y243D02*
X819Y238D01*
D02*
X819Y238D02*
X816Y234D01*
D02*
X816Y234D02*
X812Y229D01*
D02*
X812Y229D02*
X809Y225D01*
D02*
X809Y225D02*
X805Y220D01*
D02*
X805Y220D02*
X802Y216D01*
D02*
X802Y216D02*
X798Y212D01*
D02*
X782Y194D02*
X778Y190D01*
D02*
X778Y190D02*
X774Y186D01*
D02*
X774Y186D02*
X770Y183D01*
D02*
X770Y183D02*
X766Y179D01*
D02*
X766Y179D02*
X762Y175D01*
D02*
X762Y175D02*
X757Y171D01*
D02*
X757Y171D02*
X753Y167D01*
D02*
X735Y153D02*
X730Y149D01*
D02*
X730Y149D02*
X726Y146D01*
D02*
X726Y146D02*
X721Y143D01*
D02*
X721Y143D02*
X717Y139D01*
D02*
X717Y139D02*
X712Y136D01*
D02*
X712Y136D02*
X707Y133D01*
D02*
X707Y133D02*
X703Y130D01*
D02*
X682Y118D02*
X677Y115D01*
D02*
X677Y115D02*
X672Y113D01*
D02*
X672Y113D02*
X667Y110D01*
D02*
X667Y110D02*
X662Y108D01*
D02*
X662Y108D02*
X657Y105D01*
D02*
X657Y105D02*
X652Y103D01*
D02*
X652Y103D02*
X647Y101D01*
D02*
X625Y92D02*
X620Y90D01*
D02*
X620Y90D02*
X614Y88D01*
D02*
X614Y88D02*
X609Y86D01*
D02*
X609Y86D02*
X604Y84D01*
D02*
X604Y84D02*
X598Y83D01*
D02*
X598Y83D02*
X593Y81D01*
D02*
X593Y81D02*
X588Y80D01*
D02*
X565Y74D02*
X559Y73D01*
D02*
X559Y73D02*
X554Y72D01*
D02*
X554Y72D02*
X548Y71D01*
D02*
X548Y71D02*
X543Y70D01*
D02*
X543Y70D02*
X537Y69D01*
D02*
X537Y69D02*
X531Y69D01*
D02*
X531Y69D02*
X526Y68D01*
G54D11*
X1Y984D02*
X984Y984D01*
X1Y983D02*
X984Y983D01*
X1Y982D02*
X984Y982D01*
X1Y981D02*
X984Y981D01*
X1Y980D02*
X984Y980D01*
X1Y979D02*
X984Y979D01*
X1Y978D02*
X984Y978D01*
X1Y977D02*
X984Y977D01*
X1Y976D02*
X8Y976D01*
X977Y976D02*
X984Y976D01*
X1Y975D02*
X8Y975D01*
X977Y975D02*
X984Y975D01*
X1Y974D02*
X8Y974D01*
X977Y974D02*
X984Y974D01*
X1Y973D02*
X8Y973D01*
X977Y973D02*
X984Y973D01*
X1Y972D02*
X8Y972D01*
X977Y972D02*
X984Y972D01*
X1Y971D02*
X8Y971D01*
X977Y971D02*
X984Y971D01*
X1Y970D02*
X8Y970D01*
X977Y970D02*
X984Y970D01*
X1Y969D02*
X8Y969D01*
X977Y969D02*
X984Y969D01*
X1Y968D02*
X8Y968D01*
X977Y968D02*
X984Y968D01*
X1Y967D02*
X8Y967D01*
X977Y967D02*
X984Y967D01*
X1Y966D02*
X8Y966D01*
X977Y966D02*
X984Y966D01*
X1Y965D02*
X8Y965D01*
X977Y965D02*
X984Y965D01*
X1Y964D02*
X8Y964D01*
X977Y964D02*
X984Y964D01*
X1Y963D02*
X8Y963D01*
X977Y963D02*
X984Y963D01*
X1Y962D02*
X8Y962D01*
X977Y962D02*
X984Y962D01*
X1Y961D02*
X8Y961D01*
X977Y961D02*
X984Y961D01*
X1Y960D02*
X8Y960D01*
X977Y960D02*
X984Y960D01*
X1Y959D02*
X8Y959D01*
X977Y959D02*
X984Y959D01*
X1Y958D02*
X8Y958D01*
X977Y958D02*
X984Y958D01*
X1Y957D02*
X8Y957D01*
X977Y957D02*
X984Y957D01*
X1Y956D02*
X8Y956D01*
X977Y956D02*
X984Y956D01*
X1Y955D02*
X8Y955D01*
X977Y955D02*
X984Y955D01*
X1Y954D02*
X8Y954D01*
X977Y954D02*
X984Y954D01*
X1Y953D02*
X8Y953D01*
X977Y953D02*
X984Y953D01*
X1Y952D02*
X8Y952D01*
X977Y952D02*
X984Y952D01*
X1Y951D02*
X8Y951D01*
X977Y951D02*
X984Y951D01*
X1Y950D02*
X8Y950D01*
X977Y950D02*
X984Y950D01*
X1Y949D02*
X8Y949D01*
X977Y949D02*
X984Y949D01*
X1Y948D02*
X8Y948D01*
X977Y948D02*
X984Y948D01*
X1Y947D02*
X8Y947D01*
X977Y947D02*
X984Y947D01*
X1Y946D02*
X8Y946D01*
X977Y946D02*
X984Y946D01*
X1Y945D02*
X8Y945D01*
X977Y945D02*
X984Y945D01*
X1Y944D02*
X8Y944D01*
X977Y944D02*
X984Y944D01*
X1Y943D02*
X8Y943D01*
X977Y943D02*
X984Y943D01*
X1Y942D02*
X8Y942D01*
X977Y942D02*
X984Y942D01*
X1Y941D02*
X8Y941D01*
X977Y941D02*
X984Y941D01*
X1Y940D02*
X8Y940D01*
X977Y940D02*
X984Y940D01*
X1Y939D02*
X8Y939D01*
X977Y939D02*
X984Y939D01*
X1Y938D02*
X8Y938D01*
X977Y938D02*
X984Y938D01*
X1Y937D02*
X8Y937D01*
X977Y937D02*
X984Y937D01*
X1Y936D02*
X8Y936D01*
X977Y936D02*
X984Y936D01*
X1Y935D02*
X8Y935D01*
X977Y935D02*
X984Y935D01*
X1Y934D02*
X8Y934D01*
X977Y934D02*
X984Y934D01*
X1Y933D02*
X8Y933D01*
X977Y933D02*
X984Y933D01*
X1Y932D02*
X8Y932D01*
X977Y932D02*
X984Y932D01*
X1Y931D02*
X8Y931D01*
X977Y931D02*
X984Y931D01*
X1Y930D02*
X8Y930D01*
X977Y930D02*
X984Y930D01*
X1Y929D02*
X8Y929D01*
X977Y929D02*
X984Y929D01*
X1Y928D02*
X8Y928D01*
X977Y928D02*
X984Y928D01*
X1Y927D02*
X8Y927D01*
X977Y927D02*
X984Y927D01*
X1Y926D02*
X8Y926D01*
X977Y926D02*
X984Y926D01*
X1Y925D02*
X8Y925D01*
X977Y925D02*
X984Y925D01*
X1Y924D02*
X8Y924D01*
X977Y924D02*
X984Y924D01*
X1Y923D02*
X8Y923D01*
X977Y923D02*
X984Y923D01*
X1Y922D02*
X8Y922D01*
X977Y922D02*
X984Y922D01*
X1Y921D02*
X8Y921D01*
X977Y921D02*
X984Y921D01*
X1Y920D02*
X8Y920D01*
X977Y920D02*
X984Y920D01*
X1Y919D02*
X8Y919D01*
X977Y919D02*
X984Y919D01*
X1Y918D02*
X8Y918D01*
X977Y918D02*
X984Y918D01*
X1Y917D02*
X8Y917D01*
X977Y917D02*
X984Y917D01*
X1Y916D02*
X8Y916D01*
X977Y916D02*
X984Y916D01*
X1Y915D02*
X8Y915D01*
X977Y915D02*
X984Y915D01*
X1Y914D02*
X8Y914D01*
X545Y914D02*
X545Y914D01*
X977Y914D02*
X984Y914D01*
X1Y913D02*
X8Y913D01*
X544Y913D02*
X551Y913D01*
X977Y913D02*
X984Y913D01*
X1Y912D02*
X8Y912D01*
X544Y912D02*
X556Y912D01*
X977Y912D02*
X984Y912D01*
X1Y911D02*
X8Y911D01*
X544Y911D02*
X561Y911D01*
X977Y911D02*
X984Y911D01*
X1Y910D02*
X8Y910D01*
X544Y910D02*
X548Y910D01*
X550Y910D02*
X565Y910D01*
X977Y910D02*
X984Y910D01*
X1Y909D02*
X8Y909D01*
X544Y909D02*
X566Y909D01*
X977Y909D02*
X984Y909D01*
X1Y908D02*
X8Y908D01*
X543Y908D02*
X565Y908D01*
X977Y908D02*
X984Y908D01*
X1Y907D02*
X8Y907D01*
X543Y907D02*
X557Y907D01*
X560Y907D02*
X565Y907D01*
X977Y907D02*
X984Y907D01*
X1Y906D02*
X8Y906D01*
X546Y906D02*
X552Y906D01*
X564Y906D02*
X565Y906D01*
X977Y906D02*
X984Y906D01*
X1Y905D02*
X8Y905D01*
X977Y905D02*
X984Y905D01*
X1Y904D02*
X8Y904D01*
X977Y904D02*
X984Y904D01*
X1Y903D02*
X8Y903D01*
X977Y903D02*
X984Y903D01*
X1Y902D02*
X8Y902D01*
X977Y902D02*
X984Y902D01*
X1Y901D02*
X8Y901D01*
X977Y901D02*
X984Y901D01*
X1Y900D02*
X8Y900D01*
X977Y900D02*
X984Y900D01*
X1Y899D02*
X8Y899D01*
X977Y899D02*
X984Y899D01*
X1Y898D02*
X8Y898D01*
X977Y898D02*
X984Y898D01*
X1Y897D02*
X8Y897D01*
X977Y897D02*
X984Y897D01*
X1Y896D02*
X8Y896D01*
X977Y896D02*
X984Y896D01*
X1Y895D02*
X8Y895D01*
X977Y895D02*
X984Y895D01*
X1Y894D02*
X8Y894D01*
X674Y894D02*
X675Y894D01*
X704Y894D02*
X714Y894D01*
X977Y894D02*
X984Y894D01*
X1Y893D02*
X8Y893D01*
X673Y893D02*
X676Y893D01*
X703Y893D02*
X714Y893D01*
X977Y893D02*
X984Y893D01*
X1Y892D02*
X8Y892D01*
X673Y892D02*
X676Y892D01*
X703Y892D02*
X714Y892D01*
X977Y892D02*
X984Y892D01*
X1Y891D02*
X8Y891D01*
X673Y891D02*
X676Y891D01*
X704Y891D02*
X714Y891D01*
X977Y891D02*
X984Y891D01*
X1Y890D02*
X8Y890D01*
X673Y890D02*
X676Y890D01*
X711Y890D02*
X714Y890D01*
X977Y890D02*
X984Y890D01*
X1Y889D02*
X8Y889D01*
X673Y889D02*
X676Y889D01*
X711Y889D02*
X714Y889D01*
X977Y889D02*
X984Y889D01*
X1Y888D02*
X8Y888D01*
X673Y888D02*
X676Y888D01*
X711Y888D02*
X714Y888D01*
X977Y888D02*
X984Y888D01*
X1Y887D02*
X8Y887D01*
X673Y887D02*
X676Y887D01*
X711Y887D02*
X714Y887D01*
X977Y887D02*
X984Y887D01*
X1Y886D02*
X8Y886D01*
X673Y886D02*
X676Y886D01*
X711Y886D02*
X714Y886D01*
X977Y886D02*
X984Y886D01*
X1Y885D02*
X8Y885D01*
X673Y885D02*
X676Y885D01*
X711Y885D02*
X714Y885D01*
X977Y885D02*
X984Y885D01*
X1Y884D02*
X8Y884D01*
X673Y884D02*
X676Y884D01*
X711Y884D02*
X714Y884D01*
X977Y884D02*
X984Y884D01*
X1Y883D02*
X8Y883D01*
X673Y883D02*
X676Y883D01*
X711Y883D02*
X714Y883D01*
X977Y883D02*
X984Y883D01*
X1Y882D02*
X8Y882D01*
X673Y882D02*
X676Y882D01*
X711Y882D02*
X714Y882D01*
X977Y882D02*
X984Y882D01*
X1Y881D02*
X8Y881D01*
X673Y881D02*
X676Y881D01*
X711Y881D02*
X714Y881D01*
X977Y881D02*
X984Y881D01*
X1Y880D02*
X8Y880D01*
X673Y880D02*
X676Y880D01*
X711Y880D02*
X714Y880D01*
X977Y880D02*
X984Y880D01*
X1Y879D02*
X8Y879D01*
X673Y879D02*
X676Y879D01*
X711Y879D02*
X714Y879D01*
X977Y879D02*
X984Y879D01*
X1Y878D02*
X8Y878D01*
X673Y878D02*
X676Y878D01*
X711Y878D02*
X714Y878D01*
X977Y878D02*
X984Y878D01*
X1Y877D02*
X8Y877D01*
X673Y877D02*
X676Y877D01*
X711Y877D02*
X714Y877D01*
X977Y877D02*
X984Y877D01*
X1Y876D02*
X8Y876D01*
X673Y876D02*
X676Y876D01*
X711Y876D02*
X714Y876D01*
X977Y876D02*
X984Y876D01*
X1Y875D02*
X8Y875D01*
X673Y875D02*
X676Y875D01*
X711Y875D02*
X714Y875D01*
X977Y875D02*
X984Y875D01*
X1Y874D02*
X8Y874D01*
X673Y874D02*
X676Y874D01*
X711Y874D02*
X714Y874D01*
X720Y874D02*
X722Y874D01*
X977Y874D02*
X984Y874D01*
X1Y873D02*
X8Y873D01*
X673Y873D02*
X676Y873D01*
X711Y873D02*
X714Y873D01*
X720Y873D02*
X723Y873D01*
X977Y873D02*
X984Y873D01*
X1Y872D02*
X8Y872D01*
X673Y872D02*
X676Y872D01*
X711Y872D02*
X714Y872D01*
X720Y872D02*
X723Y872D01*
X977Y872D02*
X984Y872D01*
X1Y871D02*
X8Y871D01*
X673Y871D02*
X676Y871D01*
X711Y871D02*
X714Y871D01*
X720Y871D02*
X723Y871D01*
X977Y871D02*
X984Y871D01*
X1Y870D02*
X8Y870D01*
X673Y870D02*
X676Y870D01*
X711Y870D02*
X714Y870D01*
X720Y870D02*
X723Y870D01*
X977Y870D02*
X984Y870D01*
X1Y869D02*
X8Y869D01*
X673Y869D02*
X676Y869D01*
X711Y869D02*
X714Y869D01*
X720Y869D02*
X723Y869D01*
X977Y869D02*
X984Y869D01*
X1Y868D02*
X8Y868D01*
X673Y868D02*
X676Y868D01*
X711Y868D02*
X714Y868D01*
X720Y868D02*
X723Y868D01*
X977Y868D02*
X984Y868D01*
X1Y867D02*
X8Y867D01*
X673Y867D02*
X676Y867D01*
X711Y867D02*
X714Y867D01*
X720Y867D02*
X723Y867D01*
X977Y867D02*
X984Y867D01*
X1Y866D02*
X8Y866D01*
X673Y866D02*
X691Y866D01*
X704Y866D02*
X723Y866D01*
X977Y866D02*
X984Y866D01*
X1Y865D02*
X8Y865D01*
X673Y865D02*
X692Y865D01*
X703Y865D02*
X723Y865D01*
X977Y865D02*
X984Y865D01*
X1Y864D02*
X8Y864D01*
X673Y864D02*
X693Y864D01*
X703Y864D02*
X723Y864D01*
X977Y864D02*
X984Y864D01*
X1Y863D02*
X8Y863D01*
X673Y863D02*
X692Y863D01*
X703Y863D02*
X722Y863D01*
X977Y863D02*
X984Y863D01*
X1Y862D02*
X8Y862D01*
X977Y862D02*
X984Y862D01*
X1Y861D02*
X8Y861D01*
X977Y861D02*
X984Y861D01*
X1Y860D02*
X8Y860D01*
X977Y860D02*
X984Y860D01*
X1Y859D02*
X8Y859D01*
X977Y859D02*
X984Y859D01*
X1Y858D02*
X8Y858D01*
X977Y858D02*
X984Y858D01*
X1Y857D02*
X8Y857D01*
X977Y857D02*
X984Y857D01*
X1Y856D02*
X8Y856D01*
X977Y856D02*
X984Y856D01*
X1Y855D02*
X8Y855D01*
X977Y855D02*
X984Y855D01*
X1Y854D02*
X8Y854D01*
X977Y854D02*
X984Y854D01*
X1Y853D02*
X8Y853D01*
X977Y853D02*
X984Y853D01*
X1Y852D02*
X8Y852D01*
X977Y852D02*
X984Y852D01*
X1Y851D02*
X8Y851D01*
X977Y851D02*
X984Y851D01*
X1Y850D02*
X8Y850D01*
X977Y850D02*
X984Y850D01*
X1Y849D02*
X8Y849D01*
X977Y849D02*
X984Y849D01*
X1Y848D02*
X8Y848D01*
X977Y848D02*
X984Y848D01*
X1Y847D02*
X8Y847D01*
X977Y847D02*
X984Y847D01*
X1Y846D02*
X8Y846D01*
X977Y846D02*
X984Y846D01*
X1Y845D02*
X8Y845D01*
X977Y845D02*
X984Y845D01*
X1Y844D02*
X8Y844D01*
X977Y844D02*
X984Y844D01*
X1Y843D02*
X8Y843D01*
X977Y843D02*
X984Y843D01*
X1Y842D02*
X8Y842D01*
X977Y842D02*
X984Y842D01*
X1Y841D02*
X8Y841D01*
X977Y841D02*
X984Y841D01*
X1Y840D02*
X8Y840D01*
X977Y840D02*
X984Y840D01*
X1Y839D02*
X8Y839D01*
X977Y839D02*
X984Y839D01*
X1Y838D02*
X8Y838D01*
X977Y838D02*
X984Y838D01*
X1Y837D02*
X8Y837D01*
X977Y837D02*
X984Y837D01*
X1Y836D02*
X8Y836D01*
X977Y836D02*
X984Y836D01*
X1Y835D02*
X8Y835D01*
X977Y835D02*
X984Y835D01*
X1Y834D02*
X8Y834D01*
X977Y834D02*
X984Y834D01*
X1Y833D02*
X8Y833D01*
X977Y833D02*
X984Y833D01*
X1Y832D02*
X8Y832D01*
X977Y832D02*
X984Y832D01*
X1Y831D02*
X8Y831D01*
X977Y831D02*
X984Y831D01*
X1Y830D02*
X8Y830D01*
X977Y830D02*
X984Y830D01*
X1Y829D02*
X8Y829D01*
X977Y829D02*
X984Y829D01*
X1Y828D02*
X8Y828D01*
X977Y828D02*
X984Y828D01*
X1Y827D02*
X8Y827D01*
X977Y827D02*
X984Y827D01*
X1Y826D02*
X8Y826D01*
X977Y826D02*
X984Y826D01*
X1Y825D02*
X8Y825D01*
X977Y825D02*
X984Y825D01*
X1Y824D02*
X8Y824D01*
X977Y824D02*
X984Y824D01*
X1Y823D02*
X8Y823D01*
X977Y823D02*
X984Y823D01*
X1Y822D02*
X8Y822D01*
X977Y822D02*
X984Y822D01*
X1Y821D02*
X8Y821D01*
X977Y821D02*
X984Y821D01*
X1Y820D02*
X8Y820D01*
X977Y820D02*
X984Y820D01*
X1Y819D02*
X8Y819D01*
X977Y819D02*
X984Y819D01*
X1Y818D02*
X8Y818D01*
X977Y818D02*
X984Y818D01*
X1Y817D02*
X8Y817D01*
X977Y817D02*
X984Y817D01*
X1Y816D02*
X8Y816D01*
X977Y816D02*
X984Y816D01*
X1Y815D02*
X8Y815D01*
X977Y815D02*
X984Y815D01*
X1Y814D02*
X8Y814D01*
X977Y814D02*
X984Y814D01*
X1Y813D02*
X8Y813D01*
X977Y813D02*
X984Y813D01*
X1Y812D02*
X8Y812D01*
X977Y812D02*
X984Y812D01*
X1Y811D02*
X8Y811D01*
X977Y811D02*
X984Y811D01*
X1Y810D02*
X8Y810D01*
X977Y810D02*
X984Y810D01*
X1Y809D02*
X8Y809D01*
X977Y809D02*
X984Y809D01*
X1Y808D02*
X8Y808D01*
X977Y808D02*
X984Y808D01*
X1Y807D02*
X8Y807D01*
X977Y807D02*
X984Y807D01*
X1Y806D02*
X8Y806D01*
X977Y806D02*
X984Y806D01*
X1Y805D02*
X8Y805D01*
X977Y805D02*
X984Y805D01*
X1Y804D02*
X8Y804D01*
X977Y804D02*
X984Y804D01*
X1Y803D02*
X8Y803D01*
X977Y803D02*
X984Y803D01*
X1Y802D02*
X8Y802D01*
X977Y802D02*
X984Y802D01*
X1Y801D02*
X8Y801D01*
X977Y801D02*
X984Y801D01*
X1Y800D02*
X8Y800D01*
X977Y800D02*
X984Y800D01*
X1Y799D02*
X8Y799D01*
X977Y799D02*
X984Y799D01*
X1Y798D02*
X8Y798D01*
X977Y798D02*
X984Y798D01*
X1Y797D02*
X8Y797D01*
X977Y797D02*
X984Y797D01*
X1Y796D02*
X8Y796D01*
X977Y796D02*
X984Y796D01*
X1Y795D02*
X8Y795D01*
X977Y795D02*
X984Y795D01*
X1Y794D02*
X8Y794D01*
X977Y794D02*
X984Y794D01*
X1Y793D02*
X8Y793D01*
X977Y793D02*
X984Y793D01*
X1Y792D02*
X8Y792D01*
X977Y792D02*
X984Y792D01*
X1Y791D02*
X8Y791D01*
X977Y791D02*
X984Y791D01*
X1Y790D02*
X8Y790D01*
X977Y790D02*
X984Y790D01*
X1Y789D02*
X8Y789D01*
X977Y789D02*
X984Y789D01*
X1Y788D02*
X8Y788D01*
X977Y788D02*
X984Y788D01*
X1Y787D02*
X8Y787D01*
X977Y787D02*
X984Y787D01*
X1Y786D02*
X8Y786D01*
X977Y786D02*
X984Y786D01*
X1Y785D02*
X8Y785D01*
X977Y785D02*
X984Y785D01*
X1Y784D02*
X8Y784D01*
X977Y784D02*
X984Y784D01*
X1Y783D02*
X8Y783D01*
X977Y783D02*
X984Y783D01*
X1Y782D02*
X8Y782D01*
X977Y782D02*
X984Y782D01*
X1Y781D02*
X8Y781D01*
X977Y781D02*
X984Y781D01*
X1Y780D02*
X8Y780D01*
X977Y780D02*
X984Y780D01*
X1Y779D02*
X8Y779D01*
X977Y779D02*
X984Y779D01*
X1Y778D02*
X8Y778D01*
X977Y778D02*
X984Y778D01*
X1Y777D02*
X8Y777D01*
X977Y777D02*
X984Y777D01*
X1Y776D02*
X8Y776D01*
X977Y776D02*
X984Y776D01*
X1Y775D02*
X8Y775D01*
X977Y775D02*
X984Y775D01*
X1Y774D02*
X8Y774D01*
X977Y774D02*
X984Y774D01*
X1Y773D02*
X8Y773D01*
X977Y773D02*
X984Y773D01*
X1Y772D02*
X8Y772D01*
X977Y772D02*
X984Y772D01*
X1Y771D02*
X8Y771D01*
X977Y771D02*
X984Y771D01*
X1Y770D02*
X8Y770D01*
X977Y770D02*
X984Y770D01*
X1Y769D02*
X8Y769D01*
X977Y769D02*
X984Y769D01*
X1Y768D02*
X8Y768D01*
X977Y768D02*
X984Y768D01*
X1Y767D02*
X8Y767D01*
X977Y767D02*
X984Y767D01*
X1Y766D02*
X8Y766D01*
X977Y766D02*
X984Y766D01*
X1Y765D02*
X8Y765D01*
X977Y765D02*
X984Y765D01*
X1Y764D02*
X8Y764D01*
X977Y764D02*
X984Y764D01*
X1Y763D02*
X8Y763D01*
X977Y763D02*
X984Y763D01*
X1Y762D02*
X8Y762D01*
X977Y762D02*
X984Y762D01*
X1Y761D02*
X8Y761D01*
X977Y761D02*
X984Y761D01*
X1Y760D02*
X8Y760D01*
X977Y760D02*
X984Y760D01*
X1Y759D02*
X8Y759D01*
X977Y759D02*
X984Y759D01*
X1Y758D02*
X8Y758D01*
X977Y758D02*
X984Y758D01*
X1Y757D02*
X8Y757D01*
X977Y757D02*
X984Y757D01*
X1Y756D02*
X8Y756D01*
X977Y756D02*
X984Y756D01*
X1Y755D02*
X8Y755D01*
X977Y755D02*
X984Y755D01*
X1Y754D02*
X8Y754D01*
X977Y754D02*
X984Y754D01*
X1Y753D02*
X8Y753D01*
X977Y753D02*
X984Y753D01*
X1Y752D02*
X8Y752D01*
X977Y752D02*
X984Y752D01*
X1Y751D02*
X8Y751D01*
X977Y751D02*
X984Y751D01*
X1Y750D02*
X8Y750D01*
X977Y750D02*
X984Y750D01*
X1Y749D02*
X8Y749D01*
X977Y749D02*
X984Y749D01*
X1Y748D02*
X8Y748D01*
X977Y748D02*
X984Y748D01*
X1Y747D02*
X8Y747D01*
X977Y747D02*
X984Y747D01*
X1Y746D02*
X8Y746D01*
X977Y746D02*
X984Y746D01*
X1Y745D02*
X8Y745D01*
X977Y745D02*
X984Y745D01*
X1Y744D02*
X8Y744D01*
X977Y744D02*
X984Y744D01*
X1Y743D02*
X8Y743D01*
X977Y743D02*
X984Y743D01*
X1Y742D02*
X8Y742D01*
X977Y742D02*
X984Y742D01*
X1Y741D02*
X8Y741D01*
X977Y741D02*
X984Y741D01*
X1Y740D02*
X8Y740D01*
X977Y740D02*
X984Y740D01*
X1Y739D02*
X8Y739D01*
X977Y739D02*
X984Y739D01*
X1Y738D02*
X8Y738D01*
X977Y738D02*
X984Y738D01*
X1Y737D02*
X8Y737D01*
X977Y737D02*
X984Y737D01*
X1Y736D02*
X8Y736D01*
X977Y736D02*
X984Y736D01*
X1Y735D02*
X8Y735D01*
X977Y735D02*
X984Y735D01*
X1Y734D02*
X8Y734D01*
X977Y734D02*
X984Y734D01*
X1Y733D02*
X8Y733D01*
X977Y733D02*
X984Y733D01*
X1Y732D02*
X8Y732D01*
X977Y732D02*
X984Y732D01*
X1Y731D02*
X8Y731D01*
X977Y731D02*
X984Y731D01*
X1Y730D02*
X8Y730D01*
X977Y730D02*
X984Y730D01*
X1Y729D02*
X8Y729D01*
X977Y729D02*
X984Y729D01*
X1Y728D02*
X8Y728D01*
X977Y728D02*
X984Y728D01*
X1Y727D02*
X8Y727D01*
X977Y727D02*
X984Y727D01*
X1Y726D02*
X8Y726D01*
X977Y726D02*
X984Y726D01*
X1Y725D02*
X8Y725D01*
X977Y725D02*
X984Y725D01*
X1Y724D02*
X8Y724D01*
X977Y724D02*
X984Y724D01*
X1Y723D02*
X8Y723D01*
X977Y723D02*
X984Y723D01*
X1Y722D02*
X8Y722D01*
X977Y722D02*
X984Y722D01*
X1Y721D02*
X8Y721D01*
X977Y721D02*
X984Y721D01*
X1Y720D02*
X8Y720D01*
X977Y720D02*
X984Y720D01*
X1Y719D02*
X8Y719D01*
X977Y719D02*
X984Y719D01*
X1Y718D02*
X8Y718D01*
X977Y718D02*
X984Y718D01*
X1Y717D02*
X8Y717D01*
X977Y717D02*
X984Y717D01*
X1Y716D02*
X8Y716D01*
X977Y716D02*
X984Y716D01*
X1Y715D02*
X8Y715D01*
X977Y715D02*
X984Y715D01*
X1Y714D02*
X8Y714D01*
X977Y714D02*
X984Y714D01*
X1Y713D02*
X8Y713D01*
X977Y713D02*
X984Y713D01*
X1Y712D02*
X8Y712D01*
X977Y712D02*
X984Y712D01*
X1Y711D02*
X8Y711D01*
X977Y711D02*
X984Y711D01*
X1Y710D02*
X8Y710D01*
X977Y710D02*
X984Y710D01*
X1Y709D02*
X8Y709D01*
X977Y709D02*
X984Y709D01*
X1Y708D02*
X8Y708D01*
X977Y708D02*
X984Y708D01*
X1Y707D02*
X8Y707D01*
X977Y707D02*
X984Y707D01*
X1Y706D02*
X8Y706D01*
X977Y706D02*
X984Y706D01*
X1Y705D02*
X8Y705D01*
X977Y705D02*
X984Y705D01*
X1Y704D02*
X8Y704D01*
X977Y704D02*
X984Y704D01*
X1Y703D02*
X8Y703D01*
X977Y703D02*
X984Y703D01*
X1Y702D02*
X8Y702D01*
X977Y702D02*
X984Y702D01*
X1Y701D02*
X8Y701D01*
X977Y701D02*
X984Y701D01*
X1Y700D02*
X8Y700D01*
X977Y700D02*
X984Y700D01*
X1Y699D02*
X8Y699D01*
X977Y699D02*
X984Y699D01*
X1Y698D02*
X8Y698D01*
X977Y698D02*
X984Y698D01*
X1Y697D02*
X8Y697D01*
X977Y697D02*
X984Y697D01*
X1Y696D02*
X8Y696D01*
X977Y696D02*
X984Y696D01*
X1Y695D02*
X8Y695D01*
X977Y695D02*
X984Y695D01*
X1Y694D02*
X8Y694D01*
X977Y694D02*
X984Y694D01*
X1Y693D02*
X8Y693D01*
X977Y693D02*
X984Y693D01*
X1Y692D02*
X8Y692D01*
X977Y692D02*
X984Y692D01*
X1Y691D02*
X8Y691D01*
X977Y691D02*
X984Y691D01*
X1Y690D02*
X8Y690D01*
X977Y690D02*
X984Y690D01*
X1Y689D02*
X8Y689D01*
X977Y689D02*
X984Y689D01*
X1Y688D02*
X8Y688D01*
X977Y688D02*
X984Y688D01*
X1Y687D02*
X8Y687D01*
X977Y687D02*
X984Y687D01*
X1Y686D02*
X8Y686D01*
X977Y686D02*
X984Y686D01*
X1Y685D02*
X8Y685D01*
X977Y685D02*
X984Y685D01*
X1Y684D02*
X8Y684D01*
X977Y684D02*
X984Y684D01*
X1Y683D02*
X8Y683D01*
X977Y683D02*
X984Y683D01*
X1Y682D02*
X8Y682D01*
X977Y682D02*
X984Y682D01*
X1Y681D02*
X8Y681D01*
X977Y681D02*
X984Y681D01*
X1Y680D02*
X8Y680D01*
X977Y680D02*
X984Y680D01*
X1Y679D02*
X8Y679D01*
X977Y679D02*
X984Y679D01*
X1Y678D02*
X8Y678D01*
X977Y678D02*
X984Y678D01*
X1Y677D02*
X8Y677D01*
X977Y677D02*
X984Y677D01*
X1Y676D02*
X8Y676D01*
X977Y676D02*
X984Y676D01*
X1Y675D02*
X8Y675D01*
X977Y675D02*
X984Y675D01*
X1Y674D02*
X8Y674D01*
X977Y674D02*
X984Y674D01*
X1Y673D02*
X8Y673D01*
X977Y673D02*
X984Y673D01*
X1Y672D02*
X8Y672D01*
X977Y672D02*
X984Y672D01*
X1Y671D02*
X8Y671D01*
X977Y671D02*
X984Y671D01*
X1Y670D02*
X8Y670D01*
X977Y670D02*
X984Y670D01*
X1Y669D02*
X8Y669D01*
X977Y669D02*
X984Y669D01*
X1Y668D02*
X8Y668D01*
X977Y668D02*
X984Y668D01*
X1Y667D02*
X8Y667D01*
X977Y667D02*
X984Y667D01*
X1Y666D02*
X8Y666D01*
X977Y666D02*
X984Y666D01*
X1Y665D02*
X8Y665D01*
X977Y665D02*
X984Y665D01*
X1Y664D02*
X8Y664D01*
X977Y664D02*
X984Y664D01*
X1Y663D02*
X8Y663D01*
X977Y663D02*
X984Y663D01*
X1Y662D02*
X8Y662D01*
X977Y662D02*
X984Y662D01*
X1Y661D02*
X8Y661D01*
X977Y661D02*
X984Y661D01*
X1Y660D02*
X8Y660D01*
X977Y660D02*
X984Y660D01*
X1Y659D02*
X8Y659D01*
X977Y659D02*
X984Y659D01*
X1Y658D02*
X8Y658D01*
X977Y658D02*
X984Y658D01*
X1Y657D02*
X8Y657D01*
X977Y657D02*
X984Y657D01*
X1Y656D02*
X8Y656D01*
X977Y656D02*
X984Y656D01*
X1Y655D02*
X8Y655D01*
X977Y655D02*
X984Y655D01*
X1Y654D02*
X8Y654D01*
X977Y654D02*
X984Y654D01*
X1Y653D02*
X8Y653D01*
X977Y653D02*
X984Y653D01*
X1Y652D02*
X8Y652D01*
X977Y652D02*
X984Y652D01*
X1Y651D02*
X8Y651D01*
X977Y651D02*
X984Y651D01*
X1Y650D02*
X8Y650D01*
X977Y650D02*
X984Y650D01*
X1Y649D02*
X8Y649D01*
X977Y649D02*
X984Y649D01*
X1Y648D02*
X8Y648D01*
X221Y648D02*
X222Y648D01*
X977Y648D02*
X984Y648D01*
X1Y647D02*
X8Y647D01*
X107Y647D02*
X108Y647D01*
X122Y647D02*
X123Y647D01*
X220Y647D02*
X223Y647D01*
X245Y647D02*
X247Y647D01*
X977Y647D02*
X984Y647D01*
X1Y646D02*
X8Y646D01*
X107Y646D02*
X110Y646D01*
X122Y646D02*
X126Y646D01*
X220Y646D02*
X222Y646D01*
X244Y646D02*
X247Y646D01*
X977Y646D02*
X984Y646D01*
X1Y645D02*
X8Y645D01*
X107Y645D02*
X110Y645D01*
X122Y645D02*
X125Y645D01*
X199Y645D02*
X199Y645D01*
X220Y645D02*
X222Y645D01*
X244Y645D02*
X246Y645D01*
X259Y645D02*
X259Y645D01*
X977Y645D02*
X984Y645D01*
X1Y644D02*
X8Y644D01*
X107Y644D02*
X109Y644D01*
X122Y644D02*
X125Y644D01*
X198Y644D02*
X200Y644D01*
X219Y644D02*
X221Y644D01*
X243Y644D02*
X245Y644D01*
X258Y644D02*
X260Y644D01*
X977Y644D02*
X984Y644D01*
X1Y643D02*
X8Y643D01*
X107Y643D02*
X109Y643D01*
X122Y643D02*
X125Y643D01*
X197Y643D02*
X201Y643D01*
X219Y643D02*
X221Y643D01*
X242Y643D02*
X245Y643D01*
X257Y643D02*
X261Y643D01*
X977Y643D02*
X984Y643D01*
X1Y642D02*
X8Y642D01*
X107Y642D02*
X109Y642D01*
X122Y642D02*
X125Y642D01*
X153Y642D02*
X176Y642D01*
X179Y642D02*
X179Y642D01*
X197Y642D02*
X202Y642D01*
X218Y642D02*
X220Y642D01*
X242Y642D02*
X262Y642D01*
X977Y642D02*
X984Y642D01*
X1Y641D02*
X8Y641D01*
X107Y641D02*
X109Y641D01*
X122Y641D02*
X125Y641D01*
X153Y641D02*
X175Y641D01*
X181Y641D02*
X181Y641D01*
X196Y641D02*
X203Y641D01*
X218Y641D02*
X220Y641D01*
X241Y641D02*
X244Y641D01*
X249Y641D02*
X251Y641D01*
X977Y641D02*
X984Y641D01*
X1Y640D02*
X8Y640D01*
X107Y640D02*
X109Y640D01*
X122Y640D02*
X125Y640D01*
X172Y640D02*
X175Y640D01*
X217Y640D02*
X219Y640D01*
X241Y640D02*
X243Y640D01*
X250Y640D02*
X253Y640D01*
X977Y640D02*
X984Y640D01*
X1Y639D02*
X8Y639D01*
X90Y639D02*
X131Y639D01*
X172Y639D02*
X174Y639D01*
X217Y639D02*
X219Y639D01*
X240Y639D02*
X242Y639D01*
X251Y639D02*
X255Y639D01*
X977Y639D02*
X984Y639D01*
X1Y638D02*
X8Y638D01*
X90Y638D02*
X131Y638D01*
X171Y638D02*
X174Y638D01*
X216Y638D02*
X218Y638D01*
X240Y638D02*
X241Y638D01*
X252Y638D02*
X256Y638D01*
X977Y638D02*
X984Y638D01*
X1Y637D02*
X8Y637D01*
X107Y637D02*
X109Y637D01*
X122Y637D02*
X125Y637D01*
X171Y637D02*
X173Y637D01*
X215Y637D02*
X217Y637D01*
X239Y637D02*
X240Y637D01*
X253Y637D02*
X257Y637D01*
X977Y637D02*
X984Y637D01*
X1Y636D02*
X8Y636D01*
X107Y636D02*
X109Y636D01*
X122Y636D02*
X125Y636D01*
X170Y636D02*
X173Y636D01*
X214Y636D02*
X216Y636D01*
X239Y636D02*
X239Y636D01*
X254Y636D02*
X257Y636D01*
X977Y636D02*
X984Y636D01*
X1Y635D02*
X8Y635D01*
X107Y635D02*
X109Y635D01*
X122Y635D02*
X125Y635D01*
X170Y635D02*
X173Y635D01*
X214Y635D02*
X215Y635D01*
X238Y635D02*
X239Y635D01*
X254Y635D02*
X258Y635D01*
X977Y635D02*
X984Y635D01*
X1Y634D02*
X8Y634D01*
X107Y634D02*
X109Y634D01*
X122Y634D02*
X125Y634D01*
X170Y634D02*
X172Y634D01*
X213Y634D02*
X214Y634D01*
X237Y634D02*
X238Y634D01*
X248Y634D02*
X249Y634D01*
X255Y634D02*
X257Y634D01*
X977Y634D02*
X984Y634D01*
X1Y633D02*
X8Y633D01*
X107Y633D02*
X109Y633D01*
X122Y633D02*
X125Y633D01*
X169Y633D02*
X172Y633D01*
X212Y633D02*
X213Y633D01*
X247Y633D02*
X250Y633D01*
X256Y633D02*
X257Y633D01*
X977Y633D02*
X984Y633D01*
X1Y632D02*
X8Y632D01*
X107Y632D02*
X109Y632D01*
X122Y632D02*
X124Y632D01*
X168Y632D02*
X171Y632D01*
X211Y632D02*
X212Y632D01*
X236Y632D02*
X251Y632D01*
X977Y632D02*
X984Y632D01*
X1Y631D02*
X8Y631D01*
X107Y631D02*
X107Y631D01*
X168Y631D02*
X171Y631D01*
X211Y631D02*
X211Y631D01*
X247Y631D02*
X252Y631D01*
X977Y631D02*
X984Y631D01*
X1Y630D02*
X8Y630D01*
X105Y630D02*
X106Y630D01*
X167Y630D02*
X170Y630D01*
X248Y630D02*
X250Y630D01*
X977Y630D02*
X984Y630D01*
X1Y629D02*
X8Y629D01*
X104Y629D02*
X107Y629D01*
X167Y629D02*
X170Y629D01*
X248Y629D02*
X250Y629D01*
X977Y629D02*
X984Y629D01*
X1Y628D02*
X8Y628D01*
X104Y628D02*
X108Y628D01*
X120Y628D02*
X120Y628D01*
X166Y628D02*
X169Y628D01*
X248Y628D02*
X250Y628D01*
X977Y628D02*
X984Y628D01*
X1Y627D02*
X8Y627D01*
X104Y627D02*
X107Y627D01*
X120Y627D02*
X122Y627D01*
X166Y627D02*
X168Y627D01*
X248Y627D02*
X250Y627D01*
X977Y627D02*
X984Y627D01*
X1Y626D02*
X8Y626D01*
X103Y626D02*
X106Y626D01*
X120Y626D02*
X124Y626D01*
X165Y626D02*
X168Y626D01*
X233Y626D02*
X250Y626D01*
X977Y626D02*
X984Y626D01*
X1Y625D02*
X8Y625D01*
X103Y625D02*
X105Y625D01*
X120Y625D02*
X123Y625D01*
X164Y625D02*
X167Y625D01*
X193Y625D02*
X193Y625D01*
X232Y625D02*
X250Y625D01*
X977Y625D02*
X984Y625D01*
X1Y624D02*
X8Y624D01*
X102Y624D02*
X105Y624D01*
X120Y624D02*
X122Y624D01*
X164Y624D02*
X167Y624D01*
X192Y624D02*
X195Y624D01*
X248Y624D02*
X250Y624D01*
X977Y624D02*
X984Y624D01*
X1Y623D02*
X8Y623D01*
X101Y623D02*
X104Y623D01*
X120Y623D02*
X122Y623D01*
X163Y623D02*
X167Y623D01*
X188Y623D02*
X196Y623D01*
X248Y623D02*
X250Y623D01*
X977Y623D02*
X984Y623D01*
X1Y622D02*
X8Y622D01*
X101Y622D02*
X103Y622D01*
X120Y622D02*
X122Y622D01*
X162Y622D02*
X167Y622D01*
X187Y622D02*
X196Y622D01*
X248Y622D02*
X250Y622D01*
X977Y622D02*
X984Y622D01*
X1Y621D02*
X8Y621D01*
X100Y621D02*
X103Y621D01*
X120Y621D02*
X122Y621D01*
X162Y621D02*
X164Y621D01*
X166Y621D02*
X167Y621D01*
X192Y621D02*
X195Y621D01*
X248Y621D02*
X250Y621D01*
X977Y621D02*
X984Y621D01*
X1Y620D02*
X8Y620D01*
X100Y620D02*
X104Y620D01*
X120Y620D02*
X122Y620D01*
X161Y620D02*
X163Y620D01*
X166Y620D02*
X166Y620D01*
X192Y620D02*
X195Y620D01*
X248Y620D02*
X250Y620D01*
X977Y620D02*
X984Y620D01*
X1Y619D02*
X8Y619D01*
X99Y619D02*
X105Y619D01*
X120Y619D02*
X122Y619D01*
X160Y619D02*
X163Y619D01*
X166Y619D02*
X166Y619D01*
X192Y619D02*
X195Y619D01*
X229Y619D02*
X254Y619D01*
X977Y619D02*
X984Y619D01*
X1Y618D02*
X8Y618D01*
X98Y618D02*
X104Y618D01*
X120Y618D02*
X122Y618D01*
X159Y618D02*
X162Y618D01*
X192Y618D02*
X195Y618D01*
X229Y618D02*
X252Y618D01*
X977Y618D02*
X984Y618D01*
X1Y617D02*
X8Y617D01*
X98Y617D02*
X103Y617D01*
X120Y617D02*
X122Y617D01*
X158Y617D02*
X161Y617D01*
X192Y617D02*
X195Y617D01*
X236Y617D02*
X238Y617D01*
X977Y617D02*
X984Y617D01*
X1Y616D02*
X8Y616D01*
X97Y616D02*
X99Y616D01*
X101Y616D02*
X103Y616D01*
X120Y616D02*
X122Y616D01*
X158Y616D02*
X160Y616D01*
X192Y616D02*
X195Y616D01*
X236Y616D02*
X238Y616D01*
X977Y616D02*
X984Y616D01*
X1Y615D02*
X8Y615D01*
X96Y615D02*
X98Y615D01*
X101Y615D02*
X103Y615D01*
X120Y615D02*
X123Y615D01*
X157Y615D02*
X159Y615D01*
X192Y615D02*
X195Y615D01*
X236Y615D02*
X238Y615D01*
X977Y615D02*
X984Y615D01*
X1Y614D02*
X8Y614D01*
X95Y614D02*
X97Y614D01*
X101Y614D02*
X103Y614D01*
X120Y614D02*
X122Y614D01*
X156Y614D02*
X158Y614D01*
X192Y614D02*
X195Y614D01*
X236Y614D02*
X238Y614D01*
X977Y614D02*
X984Y614D01*
X1Y613D02*
X8Y613D01*
X94Y613D02*
X96Y613D01*
X101Y613D02*
X103Y613D01*
X119Y613D02*
X122Y613D01*
X155Y613D02*
X157Y613D01*
X192Y613D02*
X195Y613D01*
X226Y613D02*
X227Y613D01*
X236Y613D02*
X239Y613D01*
X977Y613D02*
X984Y613D01*
X1Y612D02*
X8Y612D01*
X93Y612D02*
X95Y612D01*
X101Y612D02*
X103Y612D01*
X117Y612D02*
X121Y612D01*
X154Y612D02*
X155Y612D01*
X192Y612D02*
X195Y612D01*
X226Y612D02*
X228Y612D01*
X236Y612D02*
X240Y612D01*
X249Y612D02*
X249Y612D01*
X977Y612D02*
X984Y612D01*
X1Y611D02*
X8Y611D01*
X92Y611D02*
X94Y611D01*
X101Y611D02*
X103Y611D01*
X115Y611D02*
X121Y611D01*
X153Y611D02*
X154Y611D01*
X192Y611D02*
X195Y611D01*
X225Y611D02*
X229Y611D01*
X236Y611D02*
X238Y611D01*
X240Y611D02*
X241Y611D01*
X248Y611D02*
X248Y611D01*
X977Y611D02*
X984Y611D01*
X1Y610D02*
X8Y610D01*
X91Y610D02*
X93Y610D01*
X101Y610D02*
X103Y610D01*
X113Y610D02*
X117Y610D01*
X120Y610D02*
X121Y610D01*
X152Y610D02*
X153Y610D01*
X192Y610D02*
X195Y610D01*
X226Y610D02*
X229Y610D01*
X236Y610D02*
X238Y610D01*
X241Y610D02*
X242Y610D01*
X247Y610D02*
X248Y610D01*
X977Y610D02*
X984Y610D01*
X1Y609D02*
X8Y609D01*
X90Y609D02*
X91Y609D01*
X101Y609D02*
X103Y609D01*
X111Y609D02*
X114Y609D01*
X120Y609D02*
X120Y609D01*
X151Y609D02*
X152Y609D01*
X168Y609D02*
X168Y609D01*
X192Y609D02*
X195Y609D01*
X227Y609D02*
X229Y609D01*
X236Y609D02*
X238Y609D01*
X242Y609D02*
X243Y609D01*
X246Y609D02*
X247Y609D01*
X977Y609D02*
X984Y609D01*
X1Y608D02*
X8Y608D01*
X89Y608D02*
X90Y608D01*
X101Y608D02*
X103Y608D01*
X109Y608D02*
X112Y608D01*
X120Y608D02*
X120Y608D01*
X140Y608D02*
X140Y608D01*
X150Y608D02*
X150Y608D01*
X192Y608D02*
X195Y608D01*
X228Y608D02*
X228Y608D01*
X236Y608D02*
X238Y608D01*
X243Y608D02*
X247Y608D01*
X977Y608D02*
X984Y608D01*
X1Y607D02*
X8Y607D01*
X101Y607D02*
X103Y607D01*
X108Y607D02*
X109Y607D01*
X120Y607D02*
X120Y607D01*
X140Y607D02*
X140Y607D01*
X192Y607D02*
X195Y607D01*
X233Y607D02*
X234Y607D01*
X236Y607D02*
X238Y607D01*
X243Y607D02*
X246Y607D01*
X977Y607D02*
X984Y607D01*
X1Y606D02*
X8Y606D01*
X101Y606D02*
X103Y606D01*
X120Y606D02*
X121Y606D01*
X140Y606D02*
X140Y606D01*
X192Y606D02*
X195Y606D01*
X231Y606D02*
X232Y606D01*
X236Y606D02*
X238Y606D01*
X244Y606D02*
X246Y606D01*
X977Y606D02*
X984Y606D01*
X1Y605D02*
X8Y605D01*
X101Y605D02*
X103Y605D01*
X140Y605D02*
X140Y605D01*
X192Y605D02*
X195Y605D01*
X229Y605D02*
X231Y605D01*
X236Y605D02*
X238Y605D01*
X245Y605D02*
X245Y605D01*
X977Y605D02*
X984Y605D01*
X1Y604D02*
X8Y604D01*
X101Y604D02*
X103Y604D01*
X140Y604D02*
X140Y604D01*
X192Y604D02*
X195Y604D01*
X226Y604D02*
X229Y604D01*
X236Y604D02*
X238Y604D01*
X977Y604D02*
X984Y604D01*
X1Y603D02*
X8Y603D01*
X101Y603D02*
X104Y603D01*
X140Y603D02*
X140Y603D01*
X180Y603D02*
X195Y603D01*
X224Y603D02*
X227Y603D01*
X236Y603D02*
X238Y603D01*
X977Y603D02*
X984Y603D01*
X1Y602D02*
X8Y602D01*
X101Y602D02*
X104Y602D01*
X140Y602D02*
X141Y602D01*
X179Y602D02*
X195Y602D01*
X222Y602D02*
X225Y602D01*
X236Y602D02*
X238Y602D01*
X977Y602D02*
X984Y602D01*
X1Y601D02*
X8Y601D01*
X101Y601D02*
X104Y601D01*
X139Y601D02*
X141Y601D01*
X192Y601D02*
X195Y601D01*
X221Y601D02*
X223Y601D01*
X236Y601D02*
X238Y601D01*
X977Y601D02*
X984Y601D01*
X1Y600D02*
X8Y600D01*
X101Y600D02*
X104Y600D01*
X139Y600D02*
X142Y600D01*
X192Y600D02*
X195Y600D01*
X221Y600D02*
X222Y600D01*
X236Y600D02*
X238Y600D01*
X977Y600D02*
X984Y600D01*
X1Y599D02*
X8Y599D01*
X101Y599D02*
X104Y599D01*
X138Y599D02*
X143Y599D01*
X192Y599D02*
X195Y599D01*
X220Y599D02*
X220Y599D01*
X236Y599D02*
X238Y599D01*
X263Y599D02*
X264Y599D01*
X977Y599D02*
X984Y599D01*
X1Y598D02*
X8Y598D01*
X101Y598D02*
X104Y598D01*
X137Y598D02*
X142Y598D01*
X192Y598D02*
X195Y598D01*
X227Y598D02*
X238Y598D01*
X977Y598D02*
X984Y598D01*
X1Y597D02*
X8Y597D01*
X101Y597D02*
X104Y597D01*
X137Y597D02*
X142Y597D01*
X192Y597D02*
X195Y597D01*
X229Y597D02*
X238Y597D01*
X977Y597D02*
X984Y597D01*
X1Y596D02*
X8Y596D01*
X101Y596D02*
X104Y596D01*
X136Y596D02*
X140Y596D01*
X192Y596D02*
X193Y596D01*
X232Y596D02*
X237Y596D01*
X977Y596D02*
X984Y596D01*
X1Y595D02*
X8Y595D01*
X101Y595D02*
X103Y595D01*
X233Y595D02*
X236Y595D01*
X977Y595D02*
X984Y595D01*
X1Y594D02*
X8Y594D01*
X101Y594D02*
X101Y594D01*
X234Y594D02*
X235Y594D01*
X977Y594D02*
X984Y594D01*
X1Y593D02*
X8Y593D01*
X977Y593D02*
X984Y593D01*
X1Y592D02*
X8Y592D01*
X977Y592D02*
X984Y592D01*
X1Y591D02*
X8Y591D01*
X977Y591D02*
X984Y591D01*
X1Y590D02*
X8Y590D01*
X977Y590D02*
X984Y590D01*
X1Y589D02*
X8Y589D01*
X977Y589D02*
X984Y589D01*
X1Y588D02*
X8Y588D01*
X977Y588D02*
X984Y588D01*
X1Y587D02*
X8Y587D01*
X977Y587D02*
X984Y587D01*
X1Y586D02*
X8Y586D01*
X977Y586D02*
X984Y586D01*
X1Y585D02*
X8Y585D01*
X977Y585D02*
X984Y585D01*
X1Y584D02*
X8Y584D01*
X977Y584D02*
X984Y584D01*
X1Y583D02*
X8Y583D01*
X977Y583D02*
X984Y583D01*
X1Y582D02*
X8Y582D01*
X977Y582D02*
X984Y582D01*
X1Y581D02*
X8Y581D01*
X977Y581D02*
X984Y581D01*
X1Y580D02*
X8Y580D01*
X977Y580D02*
X984Y580D01*
X1Y579D02*
X8Y579D01*
X977Y579D02*
X984Y579D01*
X1Y578D02*
X8Y578D01*
X977Y578D02*
X984Y578D01*
X1Y577D02*
X8Y577D01*
X977Y577D02*
X984Y577D01*
X1Y576D02*
X8Y576D01*
X977Y576D02*
X984Y576D01*
X1Y575D02*
X8Y575D01*
X977Y575D02*
X984Y575D01*
X1Y574D02*
X8Y574D01*
X977Y574D02*
X984Y574D01*
X1Y573D02*
X8Y573D01*
X977Y573D02*
X984Y573D01*
X1Y572D02*
X8Y572D01*
X977Y572D02*
X984Y572D01*
X1Y571D02*
X8Y571D01*
X977Y571D02*
X984Y571D01*
X1Y570D02*
X8Y570D01*
X977Y570D02*
X984Y570D01*
X1Y569D02*
X8Y569D01*
X977Y569D02*
X984Y569D01*
X1Y568D02*
X8Y568D01*
X977Y568D02*
X984Y568D01*
X1Y567D02*
X8Y567D01*
X977Y567D02*
X984Y567D01*
X1Y566D02*
X8Y566D01*
X977Y566D02*
X984Y566D01*
X1Y565D02*
X8Y565D01*
X977Y565D02*
X984Y565D01*
X1Y564D02*
X8Y564D01*
X977Y564D02*
X984Y564D01*
X1Y563D02*
X8Y563D01*
X977Y563D02*
X984Y563D01*
X1Y562D02*
X8Y562D01*
X977Y562D02*
X984Y562D01*
X1Y561D02*
X8Y561D01*
X977Y561D02*
X984Y561D01*
X1Y560D02*
X8Y560D01*
X977Y560D02*
X984Y560D01*
X1Y559D02*
X8Y559D01*
X977Y559D02*
X984Y559D01*
X1Y558D02*
X8Y558D01*
X977Y558D02*
X984Y558D01*
X1Y557D02*
X8Y557D01*
X977Y557D02*
X984Y557D01*
X1Y556D02*
X8Y556D01*
X977Y556D02*
X984Y556D01*
X1Y555D02*
X8Y555D01*
X263Y555D02*
X268Y555D01*
X977Y555D02*
X984Y555D01*
X1Y554D02*
X8Y554D01*
X263Y554D02*
X268Y554D01*
X977Y554D02*
X984Y554D01*
X1Y553D02*
X8Y553D01*
X94Y553D02*
X99Y553D01*
X127Y553D02*
X147Y553D01*
X167Y553D02*
X179Y553D01*
X224Y553D02*
X228Y553D01*
X263Y553D02*
X268Y553D01*
X356Y553D02*
X365Y553D01*
X977Y553D02*
X984Y553D01*
X1Y552D02*
X8Y552D01*
X94Y552D02*
X99Y552D01*
X126Y552D02*
X147Y552D01*
X166Y552D02*
X180Y552D01*
X224Y552D02*
X227Y552D01*
X263Y552D02*
X268Y552D01*
X356Y552D02*
X366Y552D01*
X977Y552D02*
X984Y552D01*
X1Y551D02*
X8Y551D01*
X94Y551D02*
X100Y551D01*
X126Y551D02*
X147Y551D01*
X166Y551D02*
X180Y551D01*
X224Y551D02*
X227Y551D01*
X263Y551D02*
X268Y551D01*
X356Y551D02*
X366Y551D01*
X977Y551D02*
X984Y551D01*
X1Y550D02*
X8Y550D01*
X94Y550D02*
X100Y550D01*
X126Y550D02*
X147Y550D01*
X166Y550D02*
X179Y550D01*
X224Y550D02*
X227Y550D01*
X264Y550D02*
X267Y550D01*
X357Y550D02*
X366Y550D01*
X977Y550D02*
X984Y550D01*
X1Y549D02*
X8Y549D01*
X94Y549D02*
X101Y549D01*
X126Y549D02*
X130Y549D01*
X166Y549D02*
X168Y549D01*
X224Y549D02*
X227Y549D01*
X362Y549D02*
X366Y549D01*
X977Y549D02*
X984Y549D01*
X1Y548D02*
X8Y548D01*
X94Y548D02*
X101Y548D01*
X114Y548D02*
X114Y548D01*
X126Y548D02*
X130Y548D01*
X166Y548D02*
X167Y548D01*
X224Y548D02*
X227Y548D01*
X362Y548D02*
X366Y548D01*
X977Y548D02*
X984Y548D01*
X1Y547D02*
X8Y547D01*
X94Y547D02*
X102Y547D01*
X126Y547D02*
X130Y547D01*
X166Y547D02*
X167Y547D01*
X224Y547D02*
X226Y547D01*
X362Y547D02*
X366Y547D01*
X977Y547D02*
X984Y547D01*
X1Y546D02*
X8Y546D01*
X94Y546D02*
X102Y546D01*
X126Y546D02*
X130Y546D01*
X165Y546D02*
X166Y546D01*
X224Y546D02*
X226Y546D01*
X245Y546D02*
X245Y546D01*
X362Y546D02*
X366Y546D01*
X977Y546D02*
X984Y546D01*
X1Y545D02*
X8Y545D01*
X94Y545D02*
X102Y545D01*
X126Y545D02*
X130Y545D01*
X165Y545D02*
X166Y545D01*
X224Y545D02*
X226Y545D01*
X245Y545D02*
X245Y545D01*
X362Y545D02*
X366Y545D01*
X977Y545D02*
X984Y545D01*
X1Y544D02*
X8Y544D01*
X94Y544D02*
X97Y544D01*
X99Y544D02*
X103Y544D01*
X126Y544D02*
X130Y544D01*
X165Y544D02*
X165Y544D01*
X224Y544D02*
X226Y544D01*
X245Y544D02*
X245Y544D01*
X260Y544D02*
X266Y544D01*
X290Y544D02*
X291Y544D01*
X328Y544D02*
X336Y544D01*
X362Y544D02*
X366Y544D01*
X977Y544D02*
X984Y544D01*
X1Y543D02*
X8Y543D01*
X94Y543D02*
X97Y543D01*
X99Y543D02*
X103Y543D01*
X126Y543D02*
X130Y543D01*
X165Y543D02*
X165Y543D01*
X224Y543D02*
X226Y543D01*
X245Y543D02*
X245Y543D01*
X259Y543D02*
X266Y543D01*
X289Y543D02*
X292Y543D01*
X306Y543D02*
X306Y543D01*
X326Y543D02*
X338Y543D01*
X362Y543D02*
X366Y543D01*
X977Y543D02*
X984Y543D01*
X1Y542D02*
X8Y542D01*
X94Y542D02*
X97Y542D01*
X100Y542D02*
X104Y542D01*
X126Y542D02*
X142Y542D01*
X224Y542D02*
X225Y542D01*
X244Y542D02*
X245Y542D01*
X258Y542D02*
X265Y542D01*
X289Y542D02*
X293Y542D01*
X305Y542D02*
X306Y542D01*
X325Y542D02*
X339Y542D01*
X362Y542D02*
X366Y542D01*
X977Y542D02*
X984Y542D01*
X1Y541D02*
X8Y541D01*
X94Y541D02*
X97Y541D01*
X100Y541D02*
X104Y541D01*
X126Y541D02*
X143Y541D01*
X224Y541D02*
X225Y541D01*
X244Y541D02*
X245Y541D01*
X259Y541D02*
X265Y541D01*
X289Y541D02*
X294Y541D01*
X304Y541D02*
X306Y541D01*
X325Y541D02*
X340Y541D01*
X362Y541D02*
X366Y541D01*
X977Y541D02*
X984Y541D01*
X1Y540D02*
X8Y540D01*
X94Y540D02*
X97Y540D01*
X101Y540D02*
X105Y540D01*
X126Y540D02*
X143Y540D01*
X224Y540D02*
X225Y540D01*
X244Y540D02*
X245Y540D01*
X260Y540D02*
X265Y540D01*
X290Y540D02*
X295Y540D01*
X304Y540D02*
X305Y540D01*
X325Y540D02*
X341Y540D01*
X362Y540D02*
X366Y540D01*
X977Y540D02*
X984Y540D01*
X1Y539D02*
X8Y539D01*
X94Y539D02*
X97Y539D01*
X101Y539D02*
X105Y539D01*
X126Y539D02*
X143Y539D01*
X224Y539D02*
X225Y539D01*
X244Y539D02*
X245Y539D01*
X265Y539D02*
X265Y539D01*
X291Y539D02*
X296Y539D01*
X303Y539D02*
X305Y539D01*
X325Y539D02*
X327Y539D01*
X337Y539D02*
X342Y539D01*
X362Y539D02*
X366Y539D01*
X977Y539D02*
X984Y539D01*
X1Y538D02*
X8Y538D01*
X94Y538D02*
X97Y538D01*
X101Y538D02*
X105Y538D01*
X126Y538D02*
X141Y538D01*
X224Y538D02*
X225Y538D01*
X244Y538D02*
X245Y538D01*
X265Y538D02*
X265Y538D01*
X292Y538D02*
X297Y538D01*
X302Y538D02*
X305Y538D01*
X324Y538D02*
X326Y538D01*
X338Y538D02*
X342Y538D01*
X362Y538D02*
X366Y538D01*
X977Y538D02*
X984Y538D01*
X1Y537D02*
X8Y537D01*
X94Y537D02*
X97Y537D01*
X102Y537D02*
X105Y537D01*
X126Y537D02*
X130Y537D01*
X224Y537D02*
X225Y537D01*
X244Y537D02*
X245Y537D01*
X293Y537D02*
X297Y537D01*
X301Y537D02*
X305Y537D01*
X324Y537D02*
X325Y537D01*
X339Y537D02*
X342Y537D01*
X362Y537D02*
X366Y537D01*
X977Y537D02*
X984Y537D01*
X1Y536D02*
X8Y536D01*
X94Y536D02*
X97Y536D01*
X102Y536D02*
X105Y536D01*
X126Y536D02*
X130Y536D01*
X204Y536D02*
X212Y536D01*
X224Y536D02*
X224Y536D01*
X243Y536D02*
X244Y536D01*
X293Y536D02*
X298Y536D01*
X300Y536D02*
X305Y536D01*
X324Y536D02*
X325Y536D01*
X339Y536D02*
X342Y536D01*
X362Y536D02*
X366Y536D01*
X977Y536D02*
X984Y536D01*
X1Y535D02*
X8Y535D01*
X94Y535D02*
X97Y535D01*
X103Y535D02*
X105Y535D01*
X126Y535D02*
X130Y535D01*
X203Y535D02*
X212Y535D01*
X224Y535D02*
X224Y535D01*
X243Y535D02*
X243Y535D01*
X266Y535D02*
X267Y535D01*
X294Y535D02*
X304Y535D01*
X324Y535D02*
X325Y535D01*
X339Y535D02*
X342Y535D01*
X362Y535D02*
X366Y535D01*
X977Y535D02*
X984Y535D01*
X1Y534D02*
X8Y534D01*
X94Y534D02*
X97Y534D01*
X103Y534D02*
X105Y534D01*
X126Y534D02*
X130Y534D01*
X203Y534D02*
X212Y534D01*
X224Y534D02*
X224Y534D01*
X243Y534D02*
X243Y534D01*
X295Y534D02*
X303Y534D01*
X323Y534D02*
X325Y534D01*
X339Y534D02*
X342Y534D01*
X362Y534D02*
X366Y534D01*
X977Y534D02*
X984Y534D01*
X1Y533D02*
X8Y533D01*
X94Y533D02*
X97Y533D01*
X104Y533D02*
X105Y533D01*
X126Y533D02*
X130Y533D01*
X203Y533D02*
X212Y533D01*
X224Y533D02*
X224Y533D01*
X296Y533D02*
X303Y533D01*
X323Y533D02*
X342Y533D01*
X362Y533D02*
X366Y533D01*
X977Y533D02*
X984Y533D01*
X1Y532D02*
X8Y532D01*
X94Y532D02*
X97Y532D01*
X104Y532D02*
X105Y532D01*
X126Y532D02*
X130Y532D01*
X163Y532D02*
X164Y532D01*
X224Y532D02*
X224Y532D01*
X297Y532D02*
X302Y532D01*
X323Y532D02*
X342Y532D01*
X362Y532D02*
X366Y532D01*
X977Y532D02*
X984Y532D01*
X1Y531D02*
X8Y531D01*
X94Y531D02*
X97Y531D01*
X105Y531D02*
X105Y531D01*
X126Y531D02*
X130Y531D01*
X163Y531D02*
X164Y531D01*
X224Y531D02*
X224Y531D01*
X296Y531D02*
X302Y531D01*
X323Y531D02*
X342Y531D01*
X362Y531D02*
X366Y531D01*
X977Y531D02*
X984Y531D01*
X1Y530D02*
X8Y530D01*
X94Y530D02*
X97Y530D01*
X105Y530D02*
X105Y530D01*
X126Y530D02*
X130Y530D01*
X163Y530D02*
X165Y530D01*
X224Y530D02*
X227Y530D01*
X295Y530D02*
X303Y530D01*
X322Y530D02*
X342Y530D01*
X362Y530D02*
X366Y530D01*
X977Y530D02*
X984Y530D01*
X1Y529D02*
X8Y529D01*
X94Y529D02*
X97Y529D01*
X105Y529D02*
X105Y529D01*
X109Y529D02*
X109Y529D01*
X111Y529D02*
X111Y529D01*
X126Y529D02*
X130Y529D01*
X163Y529D02*
X165Y529D01*
X294Y529D02*
X303Y529D01*
X322Y529D02*
X325Y529D01*
X362Y529D02*
X366Y529D01*
X977Y529D02*
X984Y529D01*
X1Y528D02*
X8Y528D01*
X94Y528D02*
X97Y528D01*
X126Y528D02*
X130Y528D01*
X163Y528D02*
X166Y528D01*
X294Y528D02*
X303Y528D01*
X322Y528D02*
X325Y528D01*
X362Y528D02*
X366Y528D01*
X977Y528D02*
X984Y528D01*
X1Y527D02*
X8Y527D01*
X94Y527D02*
X97Y527D01*
X126Y527D02*
X130Y527D01*
X163Y527D02*
X166Y527D01*
X293Y527D02*
X298Y527D01*
X301Y527D02*
X305Y527D01*
X322Y527D02*
X325Y527D01*
X362Y527D02*
X366Y527D01*
X977Y527D02*
X984Y527D01*
X1Y526D02*
X8Y526D01*
X94Y526D02*
X97Y526D01*
X126Y526D02*
X130Y526D01*
X163Y526D02*
X167Y526D01*
X292Y526D02*
X297Y526D01*
X302Y526D02*
X302Y526D01*
X322Y526D02*
X325Y526D01*
X362Y526D02*
X366Y526D01*
X977Y526D02*
X984Y526D01*
X1Y525D02*
X8Y525D01*
X94Y525D02*
X97Y525D01*
X126Y525D02*
X130Y525D01*
X163Y525D02*
X167Y525D01*
X291Y525D02*
X296Y525D01*
X302Y525D02*
X302Y525D01*
X321Y525D02*
X326Y525D01*
X362Y525D02*
X366Y525D01*
X977Y525D02*
X984Y525D01*
X1Y524D02*
X8Y524D01*
X94Y524D02*
X97Y524D01*
X126Y524D02*
X130Y524D01*
X164Y524D02*
X168Y524D01*
X265Y524D02*
X265Y524D01*
X290Y524D02*
X295Y524D01*
X322Y524D02*
X327Y524D01*
X362Y524D02*
X366Y524D01*
X977Y524D02*
X984Y524D01*
X1Y523D02*
X8Y523D01*
X94Y523D02*
X97Y523D01*
X126Y523D02*
X130Y523D01*
X164Y523D02*
X179Y523D01*
X260Y523D02*
X262Y523D01*
X289Y523D02*
X294Y523D01*
X322Y523D02*
X341Y523D01*
X357Y523D02*
X371Y523D01*
X977Y523D02*
X984Y523D01*
X1Y522D02*
X8Y522D01*
X94Y522D02*
X97Y522D01*
X126Y522D02*
X130Y522D01*
X165Y522D02*
X180Y522D01*
X259Y522D02*
X262Y522D01*
X289Y522D02*
X294Y522D01*
X323Y522D02*
X342Y522D01*
X356Y522D02*
X372Y522D01*
X977Y522D02*
X984Y522D01*
X1Y521D02*
X8Y521D01*
X94Y521D02*
X97Y521D01*
X126Y521D02*
X130Y521D01*
X165Y521D02*
X180Y521D01*
X258Y521D02*
X262Y521D01*
X289Y521D02*
X293Y521D01*
X324Y521D02*
X342Y521D01*
X356Y521D02*
X373Y521D01*
X977Y521D02*
X984Y521D01*
X1Y520D02*
X8Y520D01*
X94Y520D02*
X97Y520D01*
X126Y520D02*
X129Y520D01*
X167Y520D02*
X180Y520D01*
X259Y520D02*
X262Y520D01*
X289Y520D02*
X292Y520D01*
X326Y520D02*
X342Y520D01*
X356Y520D02*
X372Y520D01*
X977Y520D02*
X984Y520D01*
X1Y519D02*
X8Y519D01*
X95Y519D02*
X96Y519D01*
X128Y519D02*
X128Y519D01*
X169Y519D02*
X179Y519D01*
X260Y519D02*
X262Y519D01*
X290Y519D02*
X291Y519D01*
X328Y519D02*
X341Y519D01*
X357Y519D02*
X371Y519D01*
X977Y519D02*
X984Y519D01*
X1Y518D02*
X8Y518D01*
X977Y518D02*
X984Y518D01*
X1Y517D02*
X8Y517D01*
X977Y517D02*
X984Y517D01*
X1Y516D02*
X8Y516D01*
X977Y516D02*
X984Y516D01*
X1Y515D02*
X8Y515D01*
X977Y515D02*
X984Y515D01*
X1Y514D02*
X8Y514D01*
X977Y514D02*
X984Y514D01*
X1Y513D02*
X8Y513D01*
X977Y513D02*
X984Y513D01*
X1Y512D02*
X8Y512D01*
X977Y512D02*
X984Y512D01*
X1Y511D02*
X8Y511D01*
X977Y511D02*
X984Y511D01*
X1Y510D02*
X8Y510D01*
X977Y510D02*
X984Y510D01*
X1Y509D02*
X8Y509D01*
X977Y509D02*
X984Y509D01*
X1Y508D02*
X8Y508D01*
X977Y508D02*
X984Y508D01*
X1Y507D02*
X8Y507D01*
X977Y507D02*
X984Y507D01*
X1Y506D02*
X8Y506D01*
X977Y506D02*
X984Y506D01*
X1Y505D02*
X8Y505D01*
X977Y505D02*
X984Y505D01*
X1Y504D02*
X8Y504D01*
X977Y504D02*
X984Y504D01*
X1Y503D02*
X8Y503D01*
X977Y503D02*
X984Y503D01*
X1Y502D02*
X8Y502D01*
X977Y502D02*
X984Y502D01*
X1Y501D02*
X8Y501D01*
X977Y501D02*
X984Y501D01*
X1Y500D02*
X8Y500D01*
X977Y500D02*
X984Y500D01*
X1Y499D02*
X8Y499D01*
X977Y499D02*
X984Y499D01*
X1Y498D02*
X8Y498D01*
X977Y498D02*
X984Y498D01*
X1Y497D02*
X8Y497D01*
X977Y497D02*
X984Y497D01*
X1Y496D02*
X8Y496D01*
X977Y496D02*
X984Y496D01*
X1Y495D02*
X8Y495D01*
X977Y495D02*
X984Y495D01*
X1Y494D02*
X8Y494D01*
X977Y494D02*
X984Y494D01*
X1Y493D02*
X8Y493D01*
X977Y493D02*
X984Y493D01*
X1Y492D02*
X8Y492D01*
X977Y492D02*
X984Y492D01*
X1Y491D02*
X8Y491D01*
X977Y491D02*
X984Y491D01*
X1Y490D02*
X8Y490D01*
X977Y490D02*
X984Y490D01*
X1Y489D02*
X8Y489D01*
X977Y489D02*
X984Y489D01*
X1Y488D02*
X8Y488D01*
X977Y488D02*
X984Y488D01*
X1Y487D02*
X8Y487D01*
X977Y487D02*
X984Y487D01*
X1Y486D02*
X8Y486D01*
X977Y486D02*
X984Y486D01*
X1Y485D02*
X8Y485D01*
X977Y485D02*
X984Y485D01*
X1Y484D02*
X8Y484D01*
X977Y484D02*
X984Y484D01*
X1Y483D02*
X8Y483D01*
X977Y483D02*
X984Y483D01*
X1Y482D02*
X8Y482D01*
X977Y482D02*
X984Y482D01*
X1Y481D02*
X8Y481D01*
X977Y481D02*
X984Y481D01*
X1Y480D02*
X8Y480D01*
X977Y480D02*
X984Y480D01*
X1Y479D02*
X8Y479D01*
X977Y479D02*
X984Y479D01*
X1Y478D02*
X8Y478D01*
X977Y478D02*
X984Y478D01*
X1Y477D02*
X8Y477D01*
X977Y477D02*
X984Y477D01*
X1Y476D02*
X8Y476D01*
X977Y476D02*
X984Y476D01*
X1Y475D02*
X8Y475D01*
X977Y475D02*
X984Y475D01*
X1Y474D02*
X8Y474D01*
X977Y474D02*
X984Y474D01*
X1Y473D02*
X8Y473D01*
X977Y473D02*
X984Y473D01*
X1Y472D02*
X8Y472D01*
X977Y472D02*
X984Y472D01*
X1Y471D02*
X8Y471D01*
X977Y471D02*
X984Y471D01*
X1Y470D02*
X8Y470D01*
X977Y470D02*
X984Y470D01*
X1Y469D02*
X8Y469D01*
X977Y469D02*
X984Y469D01*
X1Y468D02*
X8Y468D01*
X977Y468D02*
X984Y468D01*
X1Y467D02*
X8Y467D01*
X977Y467D02*
X984Y467D01*
X1Y466D02*
X8Y466D01*
X977Y466D02*
X984Y466D01*
X1Y465D02*
X8Y465D01*
X977Y465D02*
X984Y465D01*
X1Y464D02*
X8Y464D01*
X129Y464D02*
X144Y464D01*
X203Y464D02*
X203Y464D01*
X259Y464D02*
X263Y464D01*
X977Y464D02*
X984Y464D01*
X1Y463D02*
X8Y463D01*
X127Y463D02*
X144Y463D01*
X203Y463D02*
X203Y463D01*
X257Y463D02*
X263Y463D01*
X977Y463D02*
X984Y463D01*
X1Y462D02*
X8Y462D01*
X126Y462D02*
X144Y462D01*
X203Y462D02*
X203Y462D01*
X256Y462D02*
X263Y462D01*
X977Y462D02*
X984Y462D01*
X1Y461D02*
X8Y461D01*
X126Y461D02*
X145Y461D01*
X203Y461D02*
X203Y461D01*
X256Y461D02*
X264Y461D01*
X977Y461D02*
X984Y461D01*
X1Y460D02*
X8Y460D01*
X126Y460D02*
X145Y460D01*
X203Y460D02*
X203Y460D01*
X256Y460D02*
X264Y460D01*
X977Y460D02*
X984Y460D01*
X1Y459D02*
X8Y459D01*
X126Y459D02*
X129Y459D01*
X144Y459D02*
X145Y459D01*
X203Y459D02*
X203Y459D01*
X256Y459D02*
X259Y459D01*
X977Y459D02*
X984Y459D01*
X1Y458D02*
X8Y458D01*
X126Y458D02*
X129Y458D01*
X144Y458D02*
X145Y458D01*
X256Y458D02*
X259Y458D01*
X977Y458D02*
X984Y458D01*
X1Y457D02*
X8Y457D01*
X126Y457D02*
X129Y457D01*
X144Y457D02*
X145Y457D01*
X256Y457D02*
X259Y457D01*
X977Y457D02*
X984Y457D01*
X1Y456D02*
X8Y456D01*
X126Y456D02*
X129Y456D01*
X144Y456D02*
X145Y456D01*
X256Y456D02*
X259Y456D01*
X977Y456D02*
X984Y456D01*
X1Y455D02*
X8Y455D01*
X126Y455D02*
X129Y455D01*
X144Y455D02*
X145Y455D01*
X256Y455D02*
X259Y455D01*
X977Y455D02*
X984Y455D01*
X1Y454D02*
X8Y454D01*
X94Y454D02*
X96Y454D01*
X126Y454D02*
X129Y454D01*
X144Y454D02*
X145Y454D01*
X256Y454D02*
X259Y454D01*
X977Y454D02*
X984Y454D01*
X1Y453D02*
X8Y453D01*
X93Y453D02*
X97Y453D01*
X126Y453D02*
X129Y453D01*
X144Y453D02*
X145Y453D01*
X256Y453D02*
X259Y453D01*
X977Y453D02*
X984Y453D01*
X1Y452D02*
X8Y452D01*
X93Y452D02*
X97Y452D01*
X111Y452D02*
X111Y452D01*
X126Y452D02*
X129Y452D01*
X144Y452D02*
X146Y452D01*
X256Y452D02*
X259Y452D01*
X977Y452D02*
X984Y452D01*
X1Y451D02*
X8Y451D01*
X93Y451D02*
X97Y451D01*
X126Y451D02*
X129Y451D01*
X144Y451D02*
X146Y451D01*
X256Y451D02*
X259Y451D01*
X977Y451D02*
X984Y451D01*
X1Y450D02*
X8Y450D01*
X93Y450D02*
X97Y450D01*
X126Y450D02*
X129Y450D01*
X144Y450D02*
X146Y450D01*
X256Y450D02*
X259Y450D01*
X977Y450D02*
X984Y450D01*
X1Y449D02*
X8Y449D01*
X93Y449D02*
X97Y449D01*
X126Y449D02*
X129Y449D01*
X144Y449D02*
X146Y449D01*
X256Y449D02*
X259Y449D01*
X977Y449D02*
X984Y449D01*
X1Y448D02*
X8Y448D01*
X93Y448D02*
X97Y448D01*
X126Y448D02*
X129Y448D01*
X144Y448D02*
X146Y448D01*
X256Y448D02*
X259Y448D01*
X977Y448D02*
X984Y448D01*
X1Y447D02*
X8Y447D01*
X94Y447D02*
X98Y447D01*
X126Y447D02*
X129Y447D01*
X144Y447D02*
X146Y447D01*
X256Y447D02*
X259Y447D01*
X977Y447D02*
X984Y447D01*
X1Y446D02*
X8Y446D01*
X94Y446D02*
X98Y446D01*
X126Y446D02*
X129Y446D01*
X144Y446D02*
X147Y446D01*
X256Y446D02*
X259Y446D01*
X977Y446D02*
X984Y446D01*
X1Y445D02*
X8Y445D01*
X95Y445D02*
X99Y445D01*
X126Y445D02*
X129Y445D01*
X144Y445D02*
X147Y445D01*
X256Y445D02*
X259Y445D01*
X977Y445D02*
X984Y445D01*
X1Y444D02*
X8Y444D01*
X95Y444D02*
X99Y444D01*
X126Y444D02*
X129Y444D01*
X144Y444D02*
X147Y444D01*
X256Y444D02*
X259Y444D01*
X977Y444D02*
X984Y444D01*
X1Y443D02*
X8Y443D01*
X96Y443D02*
X100Y443D01*
X126Y443D02*
X129Y443D01*
X144Y443D02*
X147Y443D01*
X256Y443D02*
X259Y443D01*
X977Y443D02*
X984Y443D01*
X1Y442D02*
X8Y442D01*
X96Y442D02*
X100Y442D01*
X126Y442D02*
X129Y442D01*
X144Y442D02*
X147Y442D01*
X209Y442D02*
X212Y442D01*
X256Y442D02*
X259Y442D01*
X977Y442D02*
X984Y442D01*
X1Y441D02*
X8Y441D01*
X96Y441D02*
X100Y441D01*
X108Y441D02*
X108Y441D01*
X127Y441D02*
X129Y441D01*
X144Y441D02*
X147Y441D01*
X209Y441D02*
X212Y441D01*
X256Y441D02*
X259Y441D01*
X977Y441D02*
X984Y441D01*
X1Y440D02*
X8Y440D01*
X97Y440D02*
X101Y440D01*
X107Y440D02*
X108Y440D01*
X127Y440D02*
X129Y440D01*
X144Y440D02*
X147Y440D01*
X167Y440D02*
X173Y440D01*
X209Y440D02*
X212Y440D01*
X256Y440D02*
X259Y440D01*
X977Y440D02*
X984Y440D01*
X1Y439D02*
X8Y439D01*
X97Y439D02*
X101Y439D01*
X107Y439D02*
X108Y439D01*
X127Y439D02*
X129Y439D01*
X144Y439D02*
X147Y439D01*
X167Y439D02*
X173Y439D01*
X209Y439D02*
X212Y439D01*
X235Y439D02*
X235Y439D01*
X256Y439D02*
X259Y439D01*
X977Y439D02*
X984Y439D01*
X1Y438D02*
X8Y438D01*
X98Y438D02*
X102Y438D01*
X106Y438D02*
X108Y438D01*
X127Y438D02*
X129Y438D01*
X144Y438D02*
X147Y438D01*
X167Y438D02*
X173Y438D01*
X209Y438D02*
X212Y438D01*
X230Y438D02*
X231Y438D01*
X256Y438D02*
X259Y438D01*
X977Y438D02*
X984Y438D01*
X1Y437D02*
X8Y437D01*
X98Y437D02*
X102Y437D01*
X106Y437D02*
X108Y437D01*
X127Y437D02*
X129Y437D01*
X144Y437D02*
X147Y437D01*
X167Y437D02*
X173Y437D01*
X209Y437D02*
X212Y437D01*
X256Y437D02*
X259Y437D01*
X977Y437D02*
X984Y437D01*
X1Y436D02*
X8Y436D01*
X99Y436D02*
X103Y436D01*
X105Y436D02*
X108Y436D01*
X127Y436D02*
X129Y436D01*
X144Y436D02*
X147Y436D01*
X167Y436D02*
X173Y436D01*
X209Y436D02*
X212Y436D01*
X256Y436D02*
X259Y436D01*
X274Y436D02*
X274Y436D01*
X977Y436D02*
X984Y436D01*
X1Y435D02*
X8Y435D01*
X99Y435D02*
X103Y435D01*
X105Y435D02*
X108Y435D01*
X127Y435D02*
X129Y435D01*
X144Y435D02*
X147Y435D01*
X168Y435D02*
X173Y435D01*
X209Y435D02*
X212Y435D01*
X256Y435D02*
X259Y435D01*
X977Y435D02*
X984Y435D01*
X1Y434D02*
X8Y434D01*
X100Y434D02*
X109Y434D01*
X128Y434D02*
X130Y434D01*
X143Y434D02*
X147Y434D01*
X168Y434D02*
X173Y434D01*
X208Y434D02*
X212Y434D01*
X256Y434D02*
X260Y434D01*
X977Y434D02*
X984Y434D01*
X1Y433D02*
X8Y433D01*
X100Y433D02*
X108Y433D01*
X128Y433D02*
X147Y433D01*
X168Y433D02*
X172Y433D01*
X208Y433D02*
X212Y433D01*
X256Y433D02*
X270Y433D01*
X977Y433D02*
X984Y433D01*
X1Y432D02*
X8Y432D01*
X100Y432D02*
X108Y432D01*
X128Y432D02*
X147Y432D01*
X209Y432D02*
X212Y432D01*
X256Y432D02*
X271Y432D01*
X977Y432D02*
X984Y432D01*
X1Y431D02*
X8Y431D01*
X101Y431D02*
X107Y431D01*
X128Y431D02*
X146Y431D01*
X197Y431D02*
X197Y431D01*
X209Y431D02*
X212Y431D01*
X257Y431D02*
X271Y431D01*
X977Y431D02*
X984Y431D01*
X1Y430D02*
X8Y430D01*
X102Y430D02*
X107Y430D01*
X129Y430D02*
X145Y430D01*
X192Y430D02*
X193Y430D01*
X209Y430D02*
X211Y430D01*
X258Y430D02*
X271Y430D01*
X977Y430D02*
X984Y430D01*
X1Y429D02*
X8Y429D01*
X977Y429D02*
X984Y429D01*
X1Y428D02*
X8Y428D01*
X977Y428D02*
X984Y428D01*
X1Y427D02*
X8Y427D01*
X977Y427D02*
X984Y427D01*
X1Y426D02*
X8Y426D01*
X977Y426D02*
X984Y426D01*
X1Y425D02*
X8Y425D01*
X977Y425D02*
X984Y425D01*
X1Y424D02*
X8Y424D01*
X977Y424D02*
X984Y424D01*
X1Y423D02*
X8Y423D01*
X977Y423D02*
X984Y423D01*
X1Y422D02*
X8Y422D01*
X977Y422D02*
X984Y422D01*
X1Y421D02*
X8Y421D01*
X977Y421D02*
X984Y421D01*
X1Y420D02*
X8Y420D01*
X977Y420D02*
X984Y420D01*
X1Y419D02*
X8Y419D01*
X977Y419D02*
X984Y419D01*
X1Y418D02*
X8Y418D01*
X977Y418D02*
X984Y418D01*
X1Y417D02*
X8Y417D01*
X977Y417D02*
X984Y417D01*
X1Y416D02*
X8Y416D01*
X977Y416D02*
X984Y416D01*
X1Y415D02*
X8Y415D01*
X977Y415D02*
X984Y415D01*
X1Y414D02*
X8Y414D01*
X977Y414D02*
X984Y414D01*
X1Y413D02*
X8Y413D01*
X977Y413D02*
X984Y413D01*
X1Y412D02*
X8Y412D01*
X977Y412D02*
X984Y412D01*
X1Y411D02*
X8Y411D01*
X977Y411D02*
X984Y411D01*
X1Y410D02*
X8Y410D01*
X977Y410D02*
X984Y410D01*
X1Y409D02*
X8Y409D01*
X977Y409D02*
X984Y409D01*
X1Y408D02*
X8Y408D01*
X977Y408D02*
X984Y408D01*
X1Y407D02*
X8Y407D01*
X977Y407D02*
X984Y407D01*
X1Y406D02*
X8Y406D01*
X977Y406D02*
X984Y406D01*
X1Y405D02*
X8Y405D01*
X977Y405D02*
X984Y405D01*
X1Y404D02*
X8Y404D01*
X977Y404D02*
X984Y404D01*
X1Y403D02*
X8Y403D01*
X977Y403D02*
X984Y403D01*
X1Y402D02*
X8Y402D01*
X977Y402D02*
X984Y402D01*
X1Y401D02*
X8Y401D01*
X977Y401D02*
X984Y401D01*
X1Y400D02*
X8Y400D01*
X977Y400D02*
X984Y400D01*
X1Y399D02*
X8Y399D01*
X977Y399D02*
X984Y399D01*
X1Y398D02*
X8Y398D01*
X977Y398D02*
X984Y398D01*
X1Y397D02*
X8Y397D01*
X977Y397D02*
X984Y397D01*
X1Y396D02*
X8Y396D01*
X977Y396D02*
X984Y396D01*
X1Y395D02*
X8Y395D01*
X977Y395D02*
X984Y395D01*
X1Y394D02*
X8Y394D01*
X977Y394D02*
X984Y394D01*
X1Y393D02*
X8Y393D01*
X977Y393D02*
X984Y393D01*
X1Y392D02*
X8Y392D01*
X977Y392D02*
X984Y392D01*
X1Y391D02*
X8Y391D01*
X977Y391D02*
X984Y391D01*
X1Y390D02*
X8Y390D01*
X977Y390D02*
X984Y390D01*
X1Y389D02*
X8Y389D01*
X977Y389D02*
X984Y389D01*
X1Y388D02*
X8Y388D01*
X977Y388D02*
X984Y388D01*
X1Y387D02*
X8Y387D01*
X977Y387D02*
X984Y387D01*
X1Y386D02*
X8Y386D01*
X977Y386D02*
X984Y386D01*
X1Y385D02*
X8Y385D01*
X977Y385D02*
X984Y385D01*
X1Y384D02*
X8Y384D01*
X977Y384D02*
X984Y384D01*
X1Y383D02*
X8Y383D01*
X977Y383D02*
X984Y383D01*
X1Y382D02*
X8Y382D01*
X977Y382D02*
X984Y382D01*
X1Y381D02*
X8Y381D01*
X977Y381D02*
X984Y381D01*
X1Y380D02*
X8Y380D01*
X977Y380D02*
X984Y380D01*
X1Y379D02*
X8Y379D01*
X977Y379D02*
X984Y379D01*
X1Y378D02*
X8Y378D01*
X977Y378D02*
X984Y378D01*
X1Y377D02*
X8Y377D01*
X977Y377D02*
X984Y377D01*
X1Y376D02*
X8Y376D01*
X977Y376D02*
X984Y376D01*
X1Y375D02*
X8Y375D01*
X977Y375D02*
X984Y375D01*
X1Y374D02*
X8Y374D01*
X977Y374D02*
X984Y374D01*
X1Y373D02*
X8Y373D01*
X977Y373D02*
X984Y373D01*
X1Y372D02*
X8Y372D01*
X977Y372D02*
X984Y372D01*
X1Y371D02*
X8Y371D01*
X977Y371D02*
X984Y371D01*
X1Y370D02*
X8Y370D01*
X977Y370D02*
X984Y370D01*
X1Y369D02*
X8Y369D01*
X977Y369D02*
X984Y369D01*
X1Y368D02*
X8Y368D01*
X977Y368D02*
X984Y368D01*
X1Y367D02*
X8Y367D01*
X977Y367D02*
X984Y367D01*
X1Y366D02*
X8Y366D01*
X977Y366D02*
X984Y366D01*
X1Y365D02*
X8Y365D01*
X977Y365D02*
X984Y365D01*
X1Y364D02*
X8Y364D01*
X977Y364D02*
X984Y364D01*
X1Y363D02*
X8Y363D01*
X977Y363D02*
X984Y363D01*
X1Y362D02*
X8Y362D01*
X977Y362D02*
X984Y362D01*
X1Y361D02*
X8Y361D01*
X977Y361D02*
X984Y361D01*
X1Y360D02*
X8Y360D01*
X977Y360D02*
X984Y360D01*
X1Y359D02*
X8Y359D01*
X977Y359D02*
X984Y359D01*
X1Y358D02*
X8Y358D01*
X977Y358D02*
X984Y358D01*
X1Y357D02*
X8Y357D01*
X977Y357D02*
X984Y357D01*
X1Y356D02*
X8Y356D01*
X977Y356D02*
X984Y356D01*
X1Y355D02*
X8Y355D01*
X977Y355D02*
X984Y355D01*
X1Y354D02*
X8Y354D01*
X977Y354D02*
X984Y354D01*
X1Y353D02*
X8Y353D01*
X977Y353D02*
X984Y353D01*
X1Y352D02*
X8Y352D01*
X977Y352D02*
X984Y352D01*
X1Y351D02*
X8Y351D01*
X977Y351D02*
X984Y351D01*
X1Y350D02*
X8Y350D01*
X977Y350D02*
X984Y350D01*
X1Y349D02*
X8Y349D01*
X977Y349D02*
X984Y349D01*
X1Y348D02*
X8Y348D01*
X977Y348D02*
X984Y348D01*
X1Y347D02*
X8Y347D01*
X977Y347D02*
X984Y347D01*
X1Y346D02*
X8Y346D01*
X977Y346D02*
X984Y346D01*
X1Y345D02*
X8Y345D01*
X977Y345D02*
X984Y345D01*
X1Y344D02*
X8Y344D01*
X977Y344D02*
X984Y344D01*
X1Y343D02*
X8Y343D01*
X977Y343D02*
X984Y343D01*
X1Y342D02*
X8Y342D01*
X977Y342D02*
X984Y342D01*
X1Y341D02*
X8Y341D01*
X977Y341D02*
X984Y341D01*
X1Y340D02*
X8Y340D01*
X977Y340D02*
X984Y340D01*
X1Y339D02*
X8Y339D01*
X977Y339D02*
X984Y339D01*
X1Y338D02*
X8Y338D01*
X977Y338D02*
X984Y338D01*
X1Y337D02*
X8Y337D01*
X977Y337D02*
X984Y337D01*
X1Y336D02*
X8Y336D01*
X977Y336D02*
X984Y336D01*
X1Y335D02*
X8Y335D01*
X977Y335D02*
X984Y335D01*
X1Y334D02*
X8Y334D01*
X977Y334D02*
X984Y334D01*
X1Y333D02*
X8Y333D01*
X977Y333D02*
X984Y333D01*
X1Y332D02*
X8Y332D01*
X977Y332D02*
X984Y332D01*
X1Y331D02*
X8Y331D01*
X977Y331D02*
X984Y331D01*
X1Y330D02*
X8Y330D01*
X977Y330D02*
X984Y330D01*
X1Y329D02*
X8Y329D01*
X977Y329D02*
X984Y329D01*
X1Y328D02*
X8Y328D01*
X977Y328D02*
X984Y328D01*
X1Y327D02*
X8Y327D01*
X977Y327D02*
X984Y327D01*
X1Y326D02*
X8Y326D01*
X977Y326D02*
X984Y326D01*
X1Y325D02*
X8Y325D01*
X977Y325D02*
X984Y325D01*
X1Y324D02*
X8Y324D01*
X977Y324D02*
X984Y324D01*
X1Y323D02*
X8Y323D01*
X977Y323D02*
X984Y323D01*
X1Y322D02*
X8Y322D01*
X977Y322D02*
X984Y322D01*
X1Y321D02*
X8Y321D01*
X977Y321D02*
X984Y321D01*
X1Y320D02*
X8Y320D01*
X977Y320D02*
X984Y320D01*
X1Y319D02*
X8Y319D01*
X977Y319D02*
X984Y319D01*
X1Y318D02*
X8Y318D01*
X977Y318D02*
X984Y318D01*
X1Y317D02*
X8Y317D01*
X977Y317D02*
X984Y317D01*
X1Y316D02*
X8Y316D01*
X977Y316D02*
X984Y316D01*
X1Y315D02*
X8Y315D01*
X977Y315D02*
X984Y315D01*
X1Y314D02*
X8Y314D01*
X977Y314D02*
X984Y314D01*
X1Y313D02*
X8Y313D01*
X977Y313D02*
X984Y313D01*
X1Y312D02*
X8Y312D01*
X977Y312D02*
X984Y312D01*
X1Y311D02*
X8Y311D01*
X977Y311D02*
X984Y311D01*
X1Y310D02*
X8Y310D01*
X977Y310D02*
X984Y310D01*
X1Y309D02*
X8Y309D01*
X977Y309D02*
X984Y309D01*
X1Y308D02*
X8Y308D01*
X977Y308D02*
X984Y308D01*
X1Y307D02*
X8Y307D01*
X977Y307D02*
X984Y307D01*
X1Y306D02*
X8Y306D01*
X977Y306D02*
X984Y306D01*
X1Y305D02*
X8Y305D01*
X977Y305D02*
X984Y305D01*
X1Y304D02*
X8Y304D01*
X977Y304D02*
X984Y304D01*
X1Y303D02*
X8Y303D01*
X977Y303D02*
X984Y303D01*
X1Y302D02*
X8Y302D01*
X977Y302D02*
X984Y302D01*
X1Y301D02*
X8Y301D01*
X977Y301D02*
X984Y301D01*
X1Y300D02*
X8Y300D01*
X977Y300D02*
X984Y300D01*
X1Y299D02*
X8Y299D01*
X977Y299D02*
X984Y299D01*
X1Y298D02*
X8Y298D01*
X977Y298D02*
X984Y298D01*
X1Y297D02*
X8Y297D01*
X977Y297D02*
X984Y297D01*
X1Y296D02*
X8Y296D01*
X977Y296D02*
X984Y296D01*
X1Y295D02*
X8Y295D01*
X977Y295D02*
X984Y295D01*
X1Y294D02*
X8Y294D01*
X977Y294D02*
X984Y294D01*
X1Y293D02*
X8Y293D01*
X977Y293D02*
X984Y293D01*
X1Y292D02*
X8Y292D01*
X977Y292D02*
X984Y292D01*
X1Y291D02*
X8Y291D01*
X977Y291D02*
X984Y291D01*
X1Y290D02*
X8Y290D01*
X977Y290D02*
X984Y290D01*
X1Y289D02*
X8Y289D01*
X977Y289D02*
X984Y289D01*
X1Y288D02*
X8Y288D01*
X977Y288D02*
X984Y288D01*
X1Y287D02*
X8Y287D01*
X977Y287D02*
X984Y287D01*
X1Y286D02*
X8Y286D01*
X977Y286D02*
X984Y286D01*
X1Y285D02*
X8Y285D01*
X977Y285D02*
X984Y285D01*
X1Y284D02*
X8Y284D01*
X977Y284D02*
X984Y284D01*
X1Y283D02*
X8Y283D01*
X977Y283D02*
X984Y283D01*
X1Y282D02*
X8Y282D01*
X977Y282D02*
X984Y282D01*
X1Y281D02*
X8Y281D01*
X977Y281D02*
X984Y281D01*
X1Y280D02*
X8Y280D01*
X977Y280D02*
X984Y280D01*
X1Y279D02*
X8Y279D01*
X977Y279D02*
X984Y279D01*
X1Y278D02*
X8Y278D01*
X977Y278D02*
X984Y278D01*
X1Y277D02*
X8Y277D01*
X977Y277D02*
X984Y277D01*
X1Y276D02*
X8Y276D01*
X977Y276D02*
X984Y276D01*
X1Y275D02*
X8Y275D01*
X977Y275D02*
X984Y275D01*
X1Y274D02*
X8Y274D01*
X977Y274D02*
X984Y274D01*
X1Y273D02*
X8Y273D01*
X977Y273D02*
X984Y273D01*
X1Y272D02*
X8Y272D01*
X977Y272D02*
X984Y272D01*
X1Y271D02*
X8Y271D01*
X977Y271D02*
X984Y271D01*
X1Y270D02*
X8Y270D01*
X977Y270D02*
X984Y270D01*
X1Y269D02*
X8Y269D01*
X977Y269D02*
X984Y269D01*
X1Y268D02*
X8Y268D01*
X977Y268D02*
X984Y268D01*
X1Y267D02*
X8Y267D01*
X977Y267D02*
X984Y267D01*
X1Y266D02*
X8Y266D01*
X977Y266D02*
X984Y266D01*
X1Y265D02*
X8Y265D01*
X977Y265D02*
X984Y265D01*
X1Y264D02*
X8Y264D01*
X977Y264D02*
X984Y264D01*
X1Y263D02*
X8Y263D01*
X977Y263D02*
X984Y263D01*
X1Y262D02*
X8Y262D01*
X977Y262D02*
X984Y262D01*
X1Y261D02*
X8Y261D01*
X977Y261D02*
X984Y261D01*
X1Y260D02*
X8Y260D01*
X977Y260D02*
X984Y260D01*
X1Y259D02*
X8Y259D01*
X977Y259D02*
X984Y259D01*
X1Y258D02*
X8Y258D01*
X977Y258D02*
X984Y258D01*
X1Y257D02*
X8Y257D01*
X977Y257D02*
X984Y257D01*
X1Y256D02*
X8Y256D01*
X977Y256D02*
X984Y256D01*
X1Y255D02*
X8Y255D01*
X977Y255D02*
X984Y255D01*
X1Y254D02*
X8Y254D01*
X977Y254D02*
X984Y254D01*
X1Y253D02*
X8Y253D01*
X977Y253D02*
X984Y253D01*
X1Y252D02*
X8Y252D01*
X977Y252D02*
X984Y252D01*
X1Y251D02*
X8Y251D01*
X977Y251D02*
X984Y251D01*
X1Y250D02*
X8Y250D01*
X977Y250D02*
X984Y250D01*
X1Y249D02*
X8Y249D01*
X977Y249D02*
X984Y249D01*
X1Y248D02*
X8Y248D01*
X977Y248D02*
X984Y248D01*
X1Y247D02*
X8Y247D01*
X977Y247D02*
X984Y247D01*
X1Y246D02*
X8Y246D01*
X977Y246D02*
X984Y246D01*
X1Y245D02*
X8Y245D01*
X977Y245D02*
X984Y245D01*
X1Y244D02*
X8Y244D01*
X977Y244D02*
X984Y244D01*
X1Y243D02*
X8Y243D01*
X977Y243D02*
X984Y243D01*
X1Y242D02*
X8Y242D01*
X977Y242D02*
X984Y242D01*
X1Y241D02*
X8Y241D01*
X977Y241D02*
X984Y241D01*
X1Y240D02*
X8Y240D01*
X977Y240D02*
X984Y240D01*
X1Y239D02*
X8Y239D01*
X977Y239D02*
X984Y239D01*
X1Y238D02*
X8Y238D01*
X977Y238D02*
X984Y238D01*
X1Y237D02*
X8Y237D01*
X977Y237D02*
X984Y237D01*
X1Y236D02*
X8Y236D01*
X977Y236D02*
X984Y236D01*
X1Y235D02*
X8Y235D01*
X977Y235D02*
X984Y235D01*
X1Y234D02*
X8Y234D01*
X977Y234D02*
X984Y234D01*
X1Y233D02*
X8Y233D01*
X977Y233D02*
X984Y233D01*
X1Y232D02*
X8Y232D01*
X977Y232D02*
X984Y232D01*
X1Y231D02*
X8Y231D01*
X977Y231D02*
X984Y231D01*
X1Y230D02*
X8Y230D01*
X977Y230D02*
X984Y230D01*
X1Y229D02*
X8Y229D01*
X977Y229D02*
X984Y229D01*
X1Y228D02*
X8Y228D01*
X977Y228D02*
X984Y228D01*
X1Y227D02*
X8Y227D01*
X977Y227D02*
X984Y227D01*
X1Y226D02*
X8Y226D01*
X977Y226D02*
X984Y226D01*
X1Y225D02*
X8Y225D01*
X977Y225D02*
X984Y225D01*
X1Y224D02*
X8Y224D01*
X977Y224D02*
X984Y224D01*
X1Y223D02*
X8Y223D01*
X977Y223D02*
X984Y223D01*
X1Y222D02*
X8Y222D01*
X977Y222D02*
X984Y222D01*
X1Y221D02*
X8Y221D01*
X977Y221D02*
X984Y221D01*
X1Y220D02*
X8Y220D01*
X977Y220D02*
X984Y220D01*
X1Y219D02*
X8Y219D01*
X977Y219D02*
X984Y219D01*
X1Y218D02*
X8Y218D01*
X977Y218D02*
X984Y218D01*
X1Y217D02*
X8Y217D01*
X977Y217D02*
X984Y217D01*
X1Y216D02*
X8Y216D01*
X977Y216D02*
X984Y216D01*
X1Y215D02*
X8Y215D01*
X977Y215D02*
X984Y215D01*
X1Y214D02*
X8Y214D01*
X977Y214D02*
X984Y214D01*
X1Y213D02*
X8Y213D01*
X977Y213D02*
X984Y213D01*
X1Y212D02*
X8Y212D01*
X977Y212D02*
X984Y212D01*
X1Y211D02*
X8Y211D01*
X977Y211D02*
X984Y211D01*
X1Y210D02*
X8Y210D01*
X977Y210D02*
X984Y210D01*
X1Y209D02*
X8Y209D01*
X977Y209D02*
X984Y209D01*
X1Y208D02*
X8Y208D01*
X977Y208D02*
X984Y208D01*
X1Y207D02*
X8Y207D01*
X977Y207D02*
X984Y207D01*
X1Y206D02*
X8Y206D01*
X977Y206D02*
X984Y206D01*
X1Y205D02*
X8Y205D01*
X977Y205D02*
X984Y205D01*
X1Y204D02*
X8Y204D01*
X977Y204D02*
X984Y204D01*
X1Y203D02*
X8Y203D01*
X977Y203D02*
X984Y203D01*
X1Y202D02*
X8Y202D01*
X977Y202D02*
X984Y202D01*
X1Y201D02*
X8Y201D01*
X977Y201D02*
X984Y201D01*
X1Y200D02*
X8Y200D01*
X977Y200D02*
X984Y200D01*
X1Y199D02*
X8Y199D01*
X977Y199D02*
X984Y199D01*
X1Y198D02*
X8Y198D01*
X977Y198D02*
X984Y198D01*
X1Y197D02*
X8Y197D01*
X977Y197D02*
X984Y197D01*
X1Y196D02*
X8Y196D01*
X977Y196D02*
X984Y196D01*
X1Y195D02*
X8Y195D01*
X977Y195D02*
X984Y195D01*
X1Y194D02*
X8Y194D01*
X977Y194D02*
X984Y194D01*
X1Y193D02*
X8Y193D01*
X977Y193D02*
X984Y193D01*
X1Y192D02*
X8Y192D01*
X977Y192D02*
X984Y192D01*
X1Y191D02*
X8Y191D01*
X977Y191D02*
X984Y191D01*
X1Y190D02*
X8Y190D01*
X977Y190D02*
X984Y190D01*
X1Y189D02*
X8Y189D01*
X977Y189D02*
X984Y189D01*
X1Y188D02*
X8Y188D01*
X977Y188D02*
X984Y188D01*
X1Y187D02*
X8Y187D01*
X977Y187D02*
X984Y187D01*
X1Y186D02*
X8Y186D01*
X977Y186D02*
X984Y186D01*
X1Y185D02*
X8Y185D01*
X977Y185D02*
X984Y185D01*
X1Y184D02*
X8Y184D01*
X977Y184D02*
X984Y184D01*
X1Y183D02*
X8Y183D01*
X977Y183D02*
X984Y183D01*
X1Y182D02*
X8Y182D01*
X977Y182D02*
X984Y182D01*
X1Y181D02*
X8Y181D01*
X977Y181D02*
X984Y181D01*
X1Y180D02*
X8Y180D01*
X977Y180D02*
X984Y180D01*
X1Y179D02*
X8Y179D01*
X977Y179D02*
X984Y179D01*
X1Y178D02*
X8Y178D01*
X977Y178D02*
X984Y178D01*
X1Y177D02*
X8Y177D01*
X977Y177D02*
X984Y177D01*
X1Y176D02*
X8Y176D01*
X977Y176D02*
X984Y176D01*
X1Y175D02*
X8Y175D01*
X977Y175D02*
X984Y175D01*
X1Y174D02*
X8Y174D01*
X977Y174D02*
X984Y174D01*
X1Y173D02*
X8Y173D01*
X977Y173D02*
X984Y173D01*
X1Y172D02*
X8Y172D01*
X977Y172D02*
X984Y172D01*
X1Y171D02*
X8Y171D01*
X977Y171D02*
X984Y171D01*
X1Y170D02*
X8Y170D01*
X977Y170D02*
X984Y170D01*
X1Y169D02*
X8Y169D01*
X977Y169D02*
X984Y169D01*
X1Y168D02*
X8Y168D01*
X977Y168D02*
X984Y168D01*
X1Y167D02*
X8Y167D01*
X977Y167D02*
X984Y167D01*
X1Y166D02*
X8Y166D01*
X977Y166D02*
X984Y166D01*
X1Y165D02*
X8Y165D01*
X977Y165D02*
X984Y165D01*
X1Y164D02*
X8Y164D01*
X977Y164D02*
X984Y164D01*
X1Y163D02*
X8Y163D01*
X977Y163D02*
X984Y163D01*
X1Y162D02*
X8Y162D01*
X977Y162D02*
X984Y162D01*
X1Y161D02*
X8Y161D01*
X977Y161D02*
X984Y161D01*
X1Y160D02*
X8Y160D01*
X977Y160D02*
X984Y160D01*
X1Y159D02*
X8Y159D01*
X977Y159D02*
X984Y159D01*
X1Y158D02*
X8Y158D01*
X977Y158D02*
X984Y158D01*
X1Y157D02*
X8Y157D01*
X977Y157D02*
X984Y157D01*
X1Y156D02*
X8Y156D01*
X977Y156D02*
X984Y156D01*
X1Y155D02*
X8Y155D01*
X977Y155D02*
X984Y155D01*
X1Y154D02*
X8Y154D01*
X977Y154D02*
X984Y154D01*
X1Y153D02*
X8Y153D01*
X977Y153D02*
X984Y153D01*
X1Y152D02*
X8Y152D01*
X977Y152D02*
X984Y152D01*
X1Y151D02*
X8Y151D01*
X977Y151D02*
X984Y151D01*
X1Y150D02*
X8Y150D01*
X977Y150D02*
X984Y150D01*
X1Y149D02*
X8Y149D01*
X977Y149D02*
X984Y149D01*
X1Y148D02*
X8Y148D01*
X977Y148D02*
X984Y148D01*
X1Y147D02*
X8Y147D01*
X977Y147D02*
X984Y147D01*
X1Y146D02*
X8Y146D01*
X977Y146D02*
X984Y146D01*
X1Y145D02*
X8Y145D01*
X977Y145D02*
X984Y145D01*
X1Y144D02*
X8Y144D01*
X977Y144D02*
X984Y144D01*
X1Y143D02*
X8Y143D01*
X977Y143D02*
X984Y143D01*
X1Y142D02*
X8Y142D01*
X977Y142D02*
X984Y142D01*
X1Y141D02*
X8Y141D01*
X977Y141D02*
X984Y141D01*
X1Y140D02*
X8Y140D01*
X977Y140D02*
X984Y140D01*
X1Y139D02*
X8Y139D01*
X977Y139D02*
X984Y139D01*
X1Y138D02*
X8Y138D01*
X977Y138D02*
X984Y138D01*
X1Y137D02*
X8Y137D01*
X977Y137D02*
X984Y137D01*
X1Y136D02*
X8Y136D01*
X977Y136D02*
X984Y136D01*
X1Y135D02*
X8Y135D01*
X977Y135D02*
X984Y135D01*
X1Y134D02*
X8Y134D01*
X977Y134D02*
X984Y134D01*
X1Y133D02*
X8Y133D01*
X977Y133D02*
X984Y133D01*
X1Y132D02*
X8Y132D01*
X977Y132D02*
X984Y132D01*
X1Y131D02*
X8Y131D01*
X977Y131D02*
X984Y131D01*
X1Y130D02*
X8Y130D01*
X977Y130D02*
X984Y130D01*
X1Y129D02*
X8Y129D01*
X977Y129D02*
X984Y129D01*
X1Y128D02*
X8Y128D01*
X977Y128D02*
X984Y128D01*
X1Y127D02*
X8Y127D01*
X977Y127D02*
X984Y127D01*
X1Y126D02*
X8Y126D01*
X977Y126D02*
X984Y126D01*
X1Y125D02*
X8Y125D01*
X977Y125D02*
X984Y125D01*
X1Y124D02*
X8Y124D01*
X977Y124D02*
X984Y124D01*
X1Y123D02*
X8Y123D01*
X977Y123D02*
X984Y123D01*
X1Y122D02*
X8Y122D01*
X977Y122D02*
X984Y122D01*
X1Y121D02*
X8Y121D01*
X977Y121D02*
X984Y121D01*
X1Y120D02*
X8Y120D01*
X977Y120D02*
X984Y120D01*
X1Y119D02*
X8Y119D01*
X977Y119D02*
X984Y119D01*
X1Y118D02*
X8Y118D01*
X977Y118D02*
X984Y118D01*
X1Y117D02*
X8Y117D01*
X977Y117D02*
X984Y117D01*
X1Y116D02*
X8Y116D01*
X977Y116D02*
X984Y116D01*
X1Y115D02*
X8Y115D01*
X977Y115D02*
X984Y115D01*
X1Y114D02*
X8Y114D01*
X977Y114D02*
X984Y114D01*
X1Y113D02*
X8Y113D01*
X977Y113D02*
X984Y113D01*
X1Y112D02*
X8Y112D01*
X977Y112D02*
X984Y112D01*
X1Y111D02*
X8Y111D01*
X977Y111D02*
X984Y111D01*
X1Y110D02*
X8Y110D01*
X977Y110D02*
X984Y110D01*
X1Y109D02*
X8Y109D01*
X977Y109D02*
X984Y109D01*
X1Y108D02*
X8Y108D01*
X977Y108D02*
X984Y108D01*
X1Y107D02*
X8Y107D01*
X977Y107D02*
X984Y107D01*
X1Y106D02*
X8Y106D01*
X977Y106D02*
X984Y106D01*
X1Y105D02*
X8Y105D01*
X977Y105D02*
X984Y105D01*
X1Y104D02*
X8Y104D01*
X977Y104D02*
X984Y104D01*
X1Y103D02*
X8Y103D01*
X977Y103D02*
X984Y103D01*
X1Y102D02*
X8Y102D01*
X977Y102D02*
X984Y102D01*
X1Y101D02*
X8Y101D01*
X977Y101D02*
X984Y101D01*
X1Y100D02*
X8Y100D01*
X977Y100D02*
X984Y100D01*
X1Y99D02*
X8Y99D01*
X977Y99D02*
X984Y99D01*
X1Y98D02*
X8Y98D01*
X977Y98D02*
X984Y98D01*
X1Y97D02*
X8Y97D01*
X977Y97D02*
X984Y97D01*
X1Y96D02*
X8Y96D01*
X977Y96D02*
X984Y96D01*
X1Y95D02*
X8Y95D01*
X977Y95D02*
X984Y95D01*
X1Y94D02*
X8Y94D01*
X977Y94D02*
X984Y94D01*
X1Y93D02*
X8Y93D01*
X977Y93D02*
X984Y93D01*
X1Y92D02*
X8Y92D01*
X977Y92D02*
X984Y92D01*
X1Y91D02*
X8Y91D01*
X977Y91D02*
X984Y91D01*
X1Y90D02*
X8Y90D01*
X977Y90D02*
X984Y90D01*
X1Y89D02*
X8Y89D01*
X977Y89D02*
X984Y89D01*
X1Y88D02*
X8Y88D01*
X977Y88D02*
X984Y88D01*
X1Y87D02*
X8Y87D01*
X977Y87D02*
X984Y87D01*
X1Y86D02*
X8Y86D01*
X977Y86D02*
X984Y86D01*
X1Y85D02*
X8Y85D01*
X977Y85D02*
X984Y85D01*
X1Y84D02*
X8Y84D01*
X977Y84D02*
X984Y84D01*
X1Y83D02*
X8Y83D01*
X977Y83D02*
X984Y83D01*
X1Y82D02*
X8Y82D01*
X977Y82D02*
X984Y82D01*
X1Y81D02*
X8Y81D01*
X977Y81D02*
X984Y81D01*
X1Y80D02*
X8Y80D01*
X977Y80D02*
X984Y80D01*
X1Y79D02*
X8Y79D01*
X977Y79D02*
X984Y79D01*
X1Y78D02*
X8Y78D01*
X977Y78D02*
X984Y78D01*
X1Y77D02*
X8Y77D01*
X977Y77D02*
X984Y77D01*
X1Y76D02*
X8Y76D01*
X977Y76D02*
X984Y76D01*
X1Y75D02*
X8Y75D01*
X977Y75D02*
X984Y75D01*
X1Y74D02*
X8Y74D01*
X977Y74D02*
X984Y74D01*
X1Y73D02*
X8Y73D01*
X977Y73D02*
X984Y73D01*
X1Y72D02*
X8Y72D01*
X977Y72D02*
X984Y72D01*
X1Y71D02*
X8Y71D01*
X439Y71D02*
X439Y71D01*
X977Y71D02*
X984Y71D01*
X1Y70D02*
X8Y70D01*
X438Y70D02*
X440Y70D01*
X977Y70D02*
X984Y70D01*
X1Y69D02*
X8Y69D01*
X438Y69D02*
X440Y69D01*
X977Y69D02*
X984Y69D01*
X1Y68D02*
X8Y68D01*
X438Y68D02*
X440Y68D01*
X977Y68D02*
X984Y68D01*
X1Y67D02*
X8Y67D01*
X438Y67D02*
X440Y67D01*
X977Y67D02*
X984Y67D01*
X1Y66D02*
X8Y66D01*
X438Y66D02*
X440Y66D01*
X977Y66D02*
X984Y66D01*
X1Y65D02*
X8Y65D01*
X438Y65D02*
X440Y65D01*
X977Y65D02*
X984Y65D01*
X1Y64D02*
X8Y64D01*
X438Y64D02*
X440Y64D01*
X977Y64D02*
X984Y64D01*
X1Y63D02*
X8Y63D01*
X977Y63D02*
X984Y63D01*
X1Y62D02*
X8Y62D01*
X977Y62D02*
X984Y62D01*
X1Y61D02*
X8Y61D01*
X977Y61D02*
X984Y61D01*
X1Y60D02*
X8Y60D01*
X977Y60D02*
X984Y60D01*
X1Y59D02*
X8Y59D01*
X977Y59D02*
X984Y59D01*
X1Y58D02*
X8Y58D01*
X977Y58D02*
X984Y58D01*
X1Y57D02*
X8Y57D01*
X977Y57D02*
X984Y57D01*
X1Y56D02*
X8Y56D01*
X977Y56D02*
X984Y56D01*
X1Y55D02*
X8Y55D01*
X977Y55D02*
X984Y55D01*
X1Y54D02*
X8Y54D01*
X977Y54D02*
X984Y54D01*
X1Y53D02*
X8Y53D01*
X977Y53D02*
X984Y53D01*
X1Y52D02*
X8Y52D01*
X977Y52D02*
X984Y52D01*
X1Y51D02*
X8Y51D01*
X977Y51D02*
X984Y51D01*
X1Y50D02*
X8Y50D01*
X977Y50D02*
X984Y50D01*
X1Y49D02*
X8Y49D01*
X977Y49D02*
X984Y49D01*
X1Y48D02*
X8Y48D01*
X977Y48D02*
X984Y48D01*
X1Y47D02*
X8Y47D01*
X977Y47D02*
X984Y47D01*
X1Y46D02*
X8Y46D01*
X977Y46D02*
X984Y46D01*
X1Y45D02*
X8Y45D01*
X977Y45D02*
X984Y45D01*
X1Y44D02*
X8Y44D01*
X977Y44D02*
X984Y44D01*
X1Y43D02*
X8Y43D01*
X977Y43D02*
X984Y43D01*
X1Y42D02*
X8Y42D01*
X977Y42D02*
X984Y42D01*
X1Y41D02*
X8Y41D01*
X977Y41D02*
X984Y41D01*
X1Y40D02*
X8Y40D01*
X977Y40D02*
X984Y40D01*
X1Y39D02*
X8Y39D01*
X977Y39D02*
X984Y39D01*
X1Y38D02*
X8Y38D01*
X977Y38D02*
X984Y38D01*
X1Y37D02*
X8Y37D01*
X977Y37D02*
X984Y37D01*
X1Y36D02*
X8Y36D01*
X977Y36D02*
X984Y36D01*
X1Y35D02*
X8Y35D01*
X977Y35D02*
X984Y35D01*
X1Y34D02*
X8Y34D01*
X977Y34D02*
X984Y34D01*
X1Y33D02*
X8Y33D01*
X977Y33D02*
X984Y33D01*
X1Y32D02*
X8Y32D01*
X977Y32D02*
X984Y32D01*
X1Y31D02*
X8Y31D01*
X977Y31D02*
X984Y31D01*
X1Y30D02*
X8Y30D01*
X977Y30D02*
X984Y30D01*
X1Y29D02*
X8Y29D01*
X977Y29D02*
X984Y29D01*
X1Y28D02*
X8Y28D01*
X977Y28D02*
X984Y28D01*
X1Y27D02*
X8Y27D01*
X977Y27D02*
X984Y27D01*
X1Y26D02*
X8Y26D01*
X977Y26D02*
X984Y26D01*
X1Y25D02*
X8Y25D01*
X977Y25D02*
X984Y25D01*
X1Y24D02*
X8Y24D01*
X977Y24D02*
X984Y24D01*
X1Y23D02*
X8Y23D01*
X977Y23D02*
X984Y23D01*
X1Y22D02*
X8Y22D01*
X977Y22D02*
X984Y22D01*
X1Y21D02*
X8Y21D01*
X977Y21D02*
X984Y21D01*
X1Y20D02*
X8Y20D01*
X977Y20D02*
X984Y20D01*
X1Y19D02*
X8Y19D01*
X977Y19D02*
X984Y19D01*
X1Y18D02*
X8Y18D01*
X977Y18D02*
X984Y18D01*
X1Y17D02*
X8Y17D01*
X977Y17D02*
X984Y17D01*
X1Y16D02*
X8Y16D01*
X977Y16D02*
X984Y16D01*
X1Y15D02*
X8Y15D01*
X977Y15D02*
X984Y15D01*
X1Y14D02*
X8Y14D01*
X977Y14D02*
X984Y14D01*
X1Y13D02*
X8Y13D01*
X977Y13D02*
X984Y13D01*
X1Y12D02*
X8Y12D01*
X977Y12D02*
X984Y12D01*
X1Y11D02*
X8Y11D01*
X977Y11D02*
X984Y11D01*
X1Y10D02*
X8Y10D01*
X977Y10D02*
X984Y10D01*
X1Y9D02*
X8Y9D01*
X977Y9D02*
X984Y9D01*
X1Y8D02*
X984Y8D01*
X1Y7D02*
X984Y7D01*
X1Y6D02*
X984Y6D01*
X1Y5D02*
X984Y5D01*
X1Y4D02*
X984Y4D01*
X1Y3D02*
X984Y3D01*
X1Y2D02*
X984Y2D01*
X1Y1D02*
X984Y1D01*
D02*
G04 End of Silk1*
M02*