G04 MADE WITH FRITZING*
G04 WWW.FRITZING.ORG*
G04 DOUBLE SIDED*
G04 HOLES PLATED*
G04 CONTOUR ON CENTER OF CONTOUR VECTOR*
%ASAXBY*%
%FSLAX23Y23*%
%MOIN*%
%OFA0B0*%
%SFA1.0B1.0*%
%ADD10C,0.023622*%
%ADD11C,0.062992*%
%ADD12R,0.059055X0.031496*%
%ADD13R,0.047244X0.019685*%
%ADD14R,0.031496X0.059055*%
%ADD15R,0.019685X0.047244*%
%ADD16R,0.016535X0.023622*%
%ADD17R,0.019685X0.017716*%
%ADD18R,0.017716X0.019685*%
%ADD20C,0.008000*%
%ADD21C,0.024000*%
%ADD22C,0.000100*%
%ADD23R,0.001000X0.001000*%
%LNCOPPER0*%
G90*
G70*
G54D10*
X78Y885D03*
X566Y389D03*
X440Y530D03*
X493Y639D03*
X558Y890D03*
G54D11*
X476Y360D03*
X476Y69D03*
G54D12*
X943Y30D03*
X943Y203D03*
G54D13*
X825Y77D03*
X825Y117D03*
X825Y156D03*
G54D14*
X203Y943D03*
X30Y943D03*
G54D15*
X156Y825D03*
X117Y825D03*
X77Y825D03*
G54D16*
X337Y530D03*
X362Y530D03*
X388Y530D03*
X388Y455D03*
X362Y455D03*
X337Y455D03*
G54D17*
X440Y452D03*
X440Y487D03*
G54D18*
X400Y412D03*
X436Y412D03*
G54D20*
D02*
X716Y152D02*
X508Y403D01*
D02*
X508Y403D02*
X533Y427D01*
D02*
X807Y156D02*
X716Y152D01*
D02*
X457Y624D02*
X488Y637D01*
D02*
X558Y531D02*
X559Y528D01*
D02*
X500Y589D02*
X558Y531D01*
D02*
X444Y534D02*
X500Y589D01*
D02*
X435Y534D02*
X394Y572D01*
D02*
X602Y386D02*
X642Y423D01*
D02*
X642Y423D02*
X617Y450D01*
D02*
X572Y388D02*
X602Y386D01*
D02*
X364Y536D02*
X374Y562D01*
D02*
X334Y532D02*
X118Y751D01*
D02*
X339Y530D02*
X360Y530D01*
D02*
X558Y531D02*
X531Y558D01*
D02*
X559Y528D02*
X558Y531D01*
D02*
X426Y628D02*
X160Y822D01*
D02*
X81Y493D02*
X388Y493D01*
D02*
X388Y493D02*
X388Y523D01*
G54D21*
D02*
X24Y76D02*
X58Y21D01*
D02*
X23Y690D02*
X24Y76D01*
D02*
X58Y21D02*
X676Y18D01*
D02*
X118Y751D02*
X117Y807D01*
D02*
X676Y18D02*
X764Y118D01*
D02*
X764Y118D02*
X807Y117D01*
D02*
X118Y751D02*
X23Y690D01*
G54D20*
D02*
X803Y740D02*
X617Y556D01*
D02*
X77Y843D02*
X78Y879D01*
D02*
X498Y636D02*
X589Y575D01*
G54D21*
D02*
X875Y200D02*
X884Y80D01*
D02*
X884Y80D02*
X843Y78D01*
G54D20*
D02*
X399Y417D02*
X390Y448D01*
D02*
X444Y454D02*
X488Y474D01*
D02*
X440Y490D02*
X440Y524D01*
D02*
X436Y417D02*
X439Y448D01*
D02*
X365Y455D02*
X385Y455D01*
G54D22*
G36*
X482Y535D02*
X487Y540D01*
X504Y524D01*
X498Y518D01*
X482Y535D01*
G37*
D02*
G36*
X493Y546D02*
X498Y552D01*
X515Y535D01*
X509Y529D01*
X493Y546D01*
G37*
D02*
G36*
X504Y557D02*
X509Y563D01*
X526Y546D01*
X521Y540D01*
X504Y557D01*
G37*
D02*
G36*
X515Y568D02*
X521Y574D01*
X537Y557D01*
X532Y552D01*
X515Y568D01*
G37*
D02*
G36*
X526Y579D02*
X532Y585D01*
X548Y568D01*
X543Y563D01*
X526Y579D01*
G37*
D02*
G36*
X579Y568D02*
X596Y585D01*
X601Y579D01*
X585Y563D01*
X579Y568D01*
G37*
D02*
G36*
X590Y557D02*
X607Y574D01*
X612Y568D01*
X596Y552D01*
X590Y557D01*
G37*
D02*
G36*
X601Y546D02*
X618Y563D01*
X624Y557D01*
X607Y540D01*
X601Y546D01*
G37*
D02*
G36*
X612Y535D02*
X629Y552D01*
X635Y546D01*
X618Y529D01*
X612Y535D01*
G37*
D02*
G36*
X624Y524D02*
X640Y540D01*
X646Y535D01*
X629Y518D01*
X624Y524D01*
G37*
D02*
G36*
X624Y482D02*
X629Y488D01*
X646Y471D01*
X640Y465D01*
X624Y482D01*
G37*
D02*
G36*
X612Y471D02*
X618Y476D01*
X635Y460D01*
X629Y454D01*
X612Y471D01*
G37*
D02*
G36*
X601Y460D02*
X607Y465D01*
X624Y449D01*
X618Y443D01*
X601Y460D01*
G37*
D02*
G36*
X590Y449D02*
X596Y454D01*
X612Y437D01*
X607Y432D01*
X590Y449D01*
G37*
D02*
G36*
X579Y437D02*
X585Y443D01*
X601Y426D01*
X596Y421D01*
X579Y437D01*
G37*
D02*
G36*
X526Y426D02*
X543Y443D01*
X548Y437D01*
X532Y421D01*
X526Y426D01*
G37*
D02*
G36*
X515Y437D02*
X532Y454D01*
X537Y449D01*
X521Y432D01*
X515Y437D01*
G37*
D02*
G36*
X504Y449D02*
X521Y465D01*
X526Y460D01*
X509Y443D01*
X504Y449D01*
G37*
D02*
G36*
X493Y460D02*
X509Y476D01*
X515Y471D01*
X498Y454D01*
X493Y460D01*
G37*
D02*
G36*
X482Y471D02*
X498Y488D01*
X504Y482D01*
X487Y465D01*
X482Y471D01*
G37*
D02*
G36*
X518Y503D02*
X564Y549D01*
X610Y503D01*
X564Y457D01*
X518Y503D01*
G37*
D02*
G36*
X449Y648D02*
X471Y610D01*
X430Y587D01*
X408Y624D01*
X449Y648D01*
G37*
D02*
G36*
X391Y614D02*
X413Y577D01*
X372Y553D01*
X351Y591D01*
X391Y614D01*
G37*
D02*
G54D23*
X495Y952D02*
X522Y952D01*
X473Y951D02*
X543Y951D01*
X461Y950D02*
X554Y950D01*
X451Y949D02*
X564Y949D01*
X442Y948D02*
X571Y948D01*
X435Y947D02*
X578Y947D01*
X427Y946D02*
X584Y946D01*
X421Y945D02*
X590Y945D01*
X415Y944D02*
X595Y944D01*
X409Y943D02*
X600Y943D01*
X404Y942D02*
X605Y942D01*
X398Y941D02*
X609Y941D01*
X393Y940D02*
X614Y940D01*
X389Y939D02*
X618Y939D01*
X384Y938D02*
X622Y938D01*
X379Y937D02*
X625Y937D01*
X375Y936D02*
X629Y936D01*
X371Y935D02*
X632Y935D01*
X367Y934D02*
X636Y934D01*
X363Y933D02*
X639Y933D01*
X359Y932D02*
X642Y932D01*
X355Y931D02*
X645Y931D01*
X351Y930D02*
X648Y930D01*
X348Y929D02*
X651Y929D01*
X344Y928D02*
X493Y928D01*
X523Y928D02*
X654Y928D01*
X341Y927D02*
X472Y927D01*
X543Y927D02*
X656Y927D01*
X337Y926D02*
X460Y926D01*
X554Y926D02*
X659Y926D01*
X334Y925D02*
X450Y925D01*
X564Y925D02*
X662Y925D01*
X331Y924D02*
X442Y924D01*
X571Y924D02*
X664Y924D01*
X327Y923D02*
X434Y923D01*
X578Y923D02*
X667Y923D01*
X324Y922D02*
X427Y922D01*
X584Y922D02*
X669Y922D01*
X321Y921D02*
X421Y921D01*
X590Y921D02*
X672Y921D01*
X318Y920D02*
X415Y920D01*
X595Y920D02*
X674Y920D01*
X315Y919D02*
X410Y919D01*
X600Y919D02*
X676Y919D01*
X312Y918D02*
X404Y918D01*
X604Y918D02*
X679Y918D01*
X309Y917D02*
X399Y917D01*
X609Y917D02*
X681Y917D01*
X306Y916D02*
X394Y916D01*
X613Y916D02*
X683Y916D01*
X303Y915D02*
X390Y915D01*
X617Y915D02*
X685Y915D01*
X300Y914D02*
X385Y914D01*
X620Y914D02*
X687Y914D01*
X298Y913D02*
X381Y913D01*
X624Y913D02*
X689Y913D01*
X295Y912D02*
X377Y912D01*
X627Y912D02*
X691Y912D01*
X292Y911D02*
X372Y911D01*
X631Y911D02*
X694Y911D01*
X289Y910D02*
X368Y910D01*
X634Y910D02*
X696Y910D01*
X287Y909D02*
X365Y909D01*
X637Y909D02*
X698Y909D01*
X284Y908D02*
X361Y908D01*
X640Y908D02*
X699Y908D01*
X282Y907D02*
X357Y907D01*
X643Y907D02*
X701Y907D01*
X279Y906D02*
X353Y906D01*
X646Y906D02*
X703Y906D01*
X277Y905D02*
X350Y905D01*
X649Y905D02*
X705Y905D01*
X274Y904D02*
X346Y904D01*
X651Y904D02*
X707Y904D01*
X272Y903D02*
X343Y903D01*
X654Y903D02*
X709Y903D01*
X269Y902D02*
X340Y902D01*
X657Y902D02*
X711Y902D01*
X267Y901D02*
X336Y901D01*
X659Y901D02*
X712Y901D01*
X265Y900D02*
X333Y900D01*
X661Y900D02*
X714Y900D01*
X262Y899D02*
X330Y899D01*
X664Y899D02*
X716Y899D01*
X260Y898D02*
X327Y898D01*
X666Y898D02*
X717Y898D01*
X258Y897D02*
X324Y897D01*
X668Y897D02*
X719Y897D01*
X255Y896D02*
X321Y896D01*
X671Y896D02*
X721Y896D01*
X253Y895D02*
X318Y895D01*
X673Y895D02*
X722Y895D01*
X251Y894D02*
X315Y894D01*
X557Y894D02*
X560Y894D01*
X675Y894D02*
X724Y894D01*
X249Y893D02*
X312Y893D01*
X556Y893D02*
X564Y893D01*
X677Y893D02*
X726Y893D01*
X246Y892D02*
X309Y892D01*
X555Y892D02*
X568Y892D01*
X679Y892D02*
X727Y892D01*
X244Y891D02*
X306Y891D01*
X555Y891D02*
X573Y891D01*
X681Y891D02*
X729Y891D01*
X242Y890D02*
X304Y890D01*
X555Y890D02*
X577Y890D01*
X683Y890D02*
X730Y890D01*
X240Y889D02*
X301Y889D01*
X555Y889D02*
X581Y889D01*
X685Y889D02*
X732Y889D01*
X238Y888D02*
X298Y888D01*
X556Y888D02*
X584Y888D01*
X687Y888D02*
X733Y888D01*
X236Y887D02*
X296Y887D01*
X557Y887D02*
X588Y887D01*
X689Y887D02*
X735Y887D01*
X234Y886D02*
X293Y886D01*
X560Y886D02*
X592Y886D01*
X691Y886D02*
X736Y886D01*
X231Y885D02*
X290Y885D01*
X564Y885D02*
X595Y885D01*
X693Y885D02*
X738Y885D01*
X229Y884D02*
X288Y884D01*
X569Y884D02*
X598Y884D01*
X695Y884D02*
X739Y884D01*
X228Y883D02*
X285Y883D01*
X573Y883D02*
X602Y883D01*
X697Y883D02*
X740Y883D01*
X226Y882D02*
X283Y882D01*
X577Y882D02*
X605Y882D01*
X699Y882D02*
X742Y882D01*
X224Y881D02*
X280Y881D01*
X581Y881D02*
X608Y881D01*
X700Y881D02*
X743Y881D01*
X222Y880D02*
X278Y880D01*
X584Y880D02*
X611Y880D01*
X702Y880D02*
X745Y880D01*
X220Y879D02*
X276Y879D01*
X588Y879D02*
X613Y879D01*
X704Y879D02*
X746Y879D01*
X218Y878D02*
X273Y878D01*
X591Y878D02*
X616Y878D01*
X705Y878D02*
X747Y878D01*
X216Y877D02*
X271Y877D01*
X595Y877D02*
X619Y877D01*
X707Y877D02*
X749Y877D01*
X214Y876D02*
X268Y876D01*
X598Y876D02*
X622Y876D01*
X709Y876D02*
X750Y876D01*
X212Y875D02*
X266Y875D01*
X601Y875D02*
X624Y875D01*
X710Y875D02*
X751Y875D01*
X210Y874D02*
X264Y874D01*
X604Y874D02*
X627Y874D01*
X712Y874D02*
X753Y874D01*
X208Y873D02*
X261Y873D01*
X607Y873D02*
X629Y873D01*
X713Y873D02*
X754Y873D01*
X207Y872D02*
X259Y872D01*
X610Y872D02*
X632Y872D01*
X715Y872D02*
X755Y872D01*
X205Y871D02*
X257Y871D01*
X613Y871D02*
X634Y871D01*
X717Y871D02*
X756Y871D01*
X203Y870D02*
X255Y870D01*
X616Y870D02*
X637Y870D01*
X718Y870D02*
X758Y870D01*
X201Y869D02*
X253Y869D01*
X618Y869D02*
X639Y869D01*
X720Y869D02*
X759Y869D01*
X199Y868D02*
X251Y868D01*
X621Y868D02*
X641Y868D01*
X721Y868D02*
X760Y868D01*
X198Y867D02*
X248Y867D01*
X624Y867D02*
X643Y867D01*
X723Y867D02*
X761Y867D01*
X196Y866D02*
X246Y866D01*
X626Y866D02*
X646Y866D01*
X724Y866D02*
X763Y866D01*
X194Y865D02*
X244Y865D01*
X629Y865D02*
X648Y865D01*
X726Y865D02*
X764Y865D01*
X192Y864D02*
X242Y864D01*
X631Y864D02*
X650Y864D01*
X727Y864D02*
X765Y864D01*
X191Y863D02*
X240Y863D01*
X633Y863D02*
X652Y863D01*
X728Y863D02*
X766Y863D01*
X189Y862D02*
X238Y862D01*
X636Y862D02*
X654Y862D01*
X730Y862D02*
X767Y862D01*
X188Y861D02*
X236Y861D01*
X638Y861D02*
X656Y861D01*
X731Y861D02*
X769Y861D01*
X186Y860D02*
X234Y860D01*
X640Y860D02*
X658Y860D01*
X732Y860D02*
X770Y860D01*
X184Y859D02*
X232Y859D01*
X642Y859D02*
X660Y859D01*
X734Y859D02*
X771Y859D01*
X183Y858D02*
X230Y858D01*
X645Y858D02*
X662Y858D01*
X735Y858D02*
X772Y858D01*
X181Y857D02*
X228Y857D01*
X647Y857D02*
X664Y857D01*
X736Y857D02*
X773Y857D01*
X180Y856D02*
X226Y856D01*
X649Y856D02*
X666Y856D01*
X738Y856D02*
X774Y856D01*
X178Y855D02*
X224Y855D01*
X651Y855D02*
X668Y855D01*
X739Y855D02*
X775Y855D01*
X176Y854D02*
X222Y854D01*
X653Y854D02*
X670Y854D01*
X740Y854D02*
X776Y854D01*
X175Y853D02*
X221Y853D01*
X655Y853D02*
X672Y853D01*
X742Y853D02*
X778Y853D01*
X173Y852D02*
X219Y852D01*
X657Y852D02*
X673Y852D01*
X743Y852D02*
X779Y852D01*
X172Y851D02*
X217Y851D01*
X659Y851D02*
X675Y851D01*
X744Y851D02*
X780Y851D01*
X171Y850D02*
X215Y850D01*
X661Y850D02*
X677Y850D01*
X745Y850D02*
X781Y850D01*
X169Y849D02*
X213Y849D01*
X663Y849D02*
X678Y849D01*
X747Y849D02*
X782Y849D01*
X168Y848D02*
X212Y848D01*
X664Y848D02*
X680Y848D01*
X748Y848D02*
X783Y848D01*
X166Y847D02*
X210Y847D01*
X666Y847D02*
X682Y847D01*
X749Y847D02*
X784Y847D01*
X165Y846D02*
X208Y846D01*
X668Y846D02*
X684Y846D01*
X750Y846D02*
X785Y846D01*
X163Y845D02*
X206Y845D01*
X670Y845D02*
X685Y845D01*
X751Y845D02*
X786Y845D01*
X162Y844D02*
X205Y844D01*
X672Y844D02*
X687Y844D01*
X753Y844D02*
X787Y844D01*
X161Y843D02*
X203Y843D01*
X673Y843D02*
X688Y843D01*
X754Y843D02*
X788Y843D01*
X159Y842D02*
X201Y842D01*
X675Y842D02*
X690Y842D01*
X755Y842D02*
X789Y842D01*
X158Y841D02*
X200Y841D01*
X677Y841D02*
X692Y841D01*
X756Y841D02*
X790Y841D01*
X157Y840D02*
X198Y840D01*
X679Y840D02*
X693Y840D01*
X757Y840D02*
X791Y840D01*
X155Y839D02*
X196Y839D01*
X680Y839D02*
X695Y839D01*
X758Y839D02*
X792Y839D01*
X154Y838D02*
X195Y838D01*
X682Y838D02*
X696Y838D01*
X759Y838D02*
X793Y838D01*
X153Y837D02*
X193Y837D01*
X683Y837D02*
X698Y837D01*
X760Y837D02*
X794Y837D01*
X152Y836D02*
X192Y836D01*
X685Y836D02*
X699Y836D01*
X762Y836D02*
X795Y836D01*
X150Y835D02*
X190Y835D01*
X687Y835D02*
X701Y835D01*
X763Y835D02*
X796Y835D01*
X149Y834D02*
X188Y834D01*
X688Y834D02*
X702Y834D01*
X764Y834D02*
X796Y834D01*
X148Y833D02*
X187Y833D01*
X690Y833D02*
X704Y833D01*
X765Y833D02*
X797Y833D01*
X147Y832D02*
X186Y832D01*
X691Y832D02*
X705Y832D01*
X766Y832D02*
X798Y832D01*
X147Y831D02*
X184Y831D01*
X693Y831D02*
X706Y831D01*
X767Y831D02*
X799Y831D01*
X146Y830D02*
X183Y830D01*
X694Y830D02*
X708Y830D01*
X768Y830D02*
X800Y830D01*
X146Y829D02*
X181Y829D01*
X696Y829D02*
X709Y829D01*
X769Y829D02*
X801Y829D01*
X146Y828D02*
X180Y828D01*
X697Y828D02*
X711Y828D01*
X770Y828D02*
X802Y828D01*
X145Y827D02*
X178Y827D01*
X699Y827D02*
X712Y827D01*
X771Y827D02*
X803Y827D01*
X145Y826D02*
X177Y826D01*
X700Y826D02*
X713Y826D01*
X772Y826D02*
X804Y826D01*
X145Y825D02*
X176Y825D01*
X701Y825D02*
X715Y825D01*
X773Y825D02*
X805Y825D01*
X145Y824D02*
X174Y824D01*
X703Y824D02*
X716Y824D01*
X774Y824D02*
X806Y824D01*
X145Y823D02*
X173Y823D01*
X704Y823D02*
X717Y823D01*
X775Y823D02*
X806Y823D01*
X146Y822D02*
X172Y822D01*
X706Y822D02*
X718Y822D01*
X776Y822D02*
X807Y822D01*
X146Y821D02*
X170Y821D01*
X707Y821D02*
X720Y821D01*
X777Y821D02*
X808Y821D01*
X146Y820D02*
X169Y820D01*
X708Y820D02*
X721Y820D01*
X778Y820D02*
X809Y820D01*
X147Y819D02*
X168Y819D01*
X710Y819D02*
X722Y819D01*
X779Y819D02*
X810Y819D01*
X148Y818D02*
X167Y818D01*
X711Y818D02*
X723Y818D01*
X780Y818D02*
X811Y818D01*
X148Y817D02*
X165Y817D01*
X712Y817D02*
X725Y817D01*
X781Y817D02*
X812Y817D01*
X149Y816D02*
X164Y816D01*
X714Y816D02*
X726Y816D01*
X782Y816D02*
X812Y816D01*
X151Y815D02*
X163Y815D01*
X715Y815D02*
X727Y815D01*
X783Y815D02*
X813Y815D01*
X153Y814D02*
X161Y814D01*
X716Y814D02*
X728Y814D01*
X783Y814D02*
X814Y814D01*
X717Y813D02*
X730Y813D01*
X784Y813D02*
X815Y813D01*
X719Y812D02*
X731Y812D01*
X785Y812D02*
X816Y812D01*
X720Y811D02*
X732Y811D01*
X786Y811D02*
X816Y811D01*
X721Y810D02*
X733Y810D01*
X787Y810D02*
X817Y810D01*
X722Y809D02*
X734Y809D01*
X788Y809D02*
X818Y809D01*
X723Y808D02*
X735Y808D01*
X789Y808D02*
X819Y808D01*
X725Y807D02*
X737Y807D01*
X790Y807D02*
X820Y807D01*
X726Y806D02*
X738Y806D01*
X791Y806D02*
X820Y806D01*
X727Y805D02*
X739Y805D01*
X791Y805D02*
X821Y805D01*
X728Y804D02*
X740Y804D01*
X792Y804D02*
X822Y804D01*
X730Y803D02*
X741Y803D01*
X793Y803D02*
X823Y803D01*
X731Y802D02*
X742Y802D01*
X794Y802D02*
X823Y802D01*
X732Y801D02*
X743Y801D01*
X795Y801D02*
X824Y801D01*
X733Y800D02*
X744Y800D01*
X796Y800D02*
X825Y800D01*
X734Y799D02*
X746Y799D01*
X797Y799D02*
X826Y799D01*
X735Y798D02*
X747Y798D01*
X797Y798D02*
X827Y798D01*
X736Y797D02*
X748Y797D01*
X798Y797D02*
X827Y797D01*
X737Y796D02*
X749Y796D01*
X799Y796D02*
X828Y796D01*
X739Y795D02*
X750Y795D01*
X800Y795D02*
X829Y795D01*
X740Y794D02*
X751Y794D01*
X801Y794D02*
X829Y794D01*
X741Y793D02*
X752Y793D01*
X801Y793D02*
X830Y793D01*
X742Y792D02*
X753Y792D01*
X802Y792D02*
X831Y792D01*
X743Y791D02*
X754Y791D01*
X803Y791D02*
X832Y791D01*
X744Y790D02*
X755Y790D01*
X804Y790D02*
X832Y790D01*
X745Y789D02*
X756Y789D01*
X804Y789D02*
X833Y789D01*
X746Y788D02*
X757Y788D01*
X805Y788D02*
X834Y788D01*
X747Y787D02*
X758Y787D01*
X806Y787D02*
X834Y787D01*
X748Y786D02*
X759Y786D01*
X807Y786D02*
X835Y786D01*
X749Y785D02*
X760Y785D01*
X808Y785D02*
X836Y785D01*
X750Y784D02*
X761Y784D01*
X808Y784D02*
X837Y784D01*
X751Y783D02*
X762Y783D01*
X809Y783D02*
X837Y783D01*
X752Y782D02*
X763Y782D01*
X810Y782D02*
X838Y782D01*
X753Y781D02*
X764Y781D01*
X811Y781D02*
X839Y781D01*
X754Y780D02*
X765Y780D01*
X811Y780D02*
X839Y780D01*
X755Y779D02*
X766Y779D01*
X812Y779D02*
X840Y779D01*
X756Y778D02*
X767Y778D01*
X813Y778D02*
X840Y778D01*
X757Y777D02*
X768Y777D01*
X813Y777D02*
X841Y777D01*
X758Y776D02*
X769Y776D01*
X814Y776D02*
X842Y776D01*
X759Y775D02*
X770Y775D01*
X815Y775D02*
X842Y775D01*
X760Y774D02*
X771Y774D01*
X816Y774D02*
X843Y774D01*
X761Y773D02*
X772Y773D01*
X816Y773D02*
X844Y773D01*
X762Y772D02*
X773Y772D01*
X817Y772D02*
X844Y772D01*
X763Y771D02*
X774Y771D01*
X818Y771D02*
X845Y771D01*
X764Y770D02*
X775Y770D01*
X818Y770D02*
X846Y770D01*
X765Y769D02*
X776Y769D01*
X819Y769D02*
X846Y769D01*
X766Y768D02*
X777Y768D01*
X820Y768D02*
X847Y768D01*
X767Y767D02*
X778Y767D01*
X820Y767D02*
X848Y767D01*
X768Y766D02*
X779Y766D01*
X821Y766D02*
X848Y766D01*
X769Y765D02*
X780Y765D01*
X822Y765D02*
X849Y765D01*
X770Y764D02*
X781Y764D01*
X822Y764D02*
X849Y764D01*
X771Y763D02*
X782Y763D01*
X823Y763D02*
X850Y763D01*
X772Y762D02*
X783Y762D01*
X824Y762D02*
X851Y762D01*
X773Y761D02*
X784Y761D01*
X824Y761D02*
X851Y761D01*
X774Y760D02*
X785Y760D01*
X825Y760D02*
X852Y760D01*
X775Y759D02*
X786Y759D01*
X826Y759D02*
X852Y759D01*
X776Y758D02*
X787Y758D01*
X826Y758D02*
X853Y758D01*
X777Y757D02*
X788Y757D01*
X827Y757D02*
X854Y757D01*
X778Y756D02*
X789Y756D01*
X827Y756D02*
X854Y756D01*
X779Y755D02*
X790Y755D01*
X828Y755D02*
X855Y755D01*
X780Y754D02*
X791Y754D01*
X829Y754D02*
X855Y754D01*
X781Y753D02*
X792Y753D01*
X829Y753D02*
X856Y753D01*
X782Y752D02*
X793Y752D01*
X830Y752D02*
X857Y752D01*
X784Y751D02*
X794Y751D01*
X831Y751D02*
X857Y751D01*
X785Y750D02*
X796Y750D01*
X831Y750D02*
X858Y750D01*
X786Y749D02*
X797Y749D01*
X832Y749D02*
X858Y749D01*
X787Y748D02*
X798Y748D01*
X832Y748D02*
X859Y748D01*
X788Y747D02*
X799Y747D01*
X833Y747D02*
X859Y747D01*
X789Y746D02*
X801Y746D01*
X834Y746D02*
X860Y746D01*
X790Y745D02*
X803Y745D01*
X834Y745D02*
X860Y745D01*
X791Y744D02*
X805Y744D01*
X835Y744D02*
X861Y744D01*
X793Y743D02*
X806Y743D01*
X835Y743D02*
X862Y743D01*
X794Y742D02*
X807Y742D01*
X836Y742D02*
X862Y742D01*
X795Y741D02*
X807Y741D01*
X837Y741D02*
X863Y741D01*
X797Y740D02*
X807Y740D01*
X837Y740D02*
X863Y740D01*
X798Y739D02*
X807Y739D01*
X838Y739D02*
X864Y739D01*
X800Y738D02*
X806Y738D01*
X838Y738D02*
X864Y738D01*
X802Y737D02*
X805Y737D01*
X839Y737D02*
X865Y737D01*
X839Y736D02*
X865Y736D01*
X840Y735D02*
X866Y735D01*
X840Y734D02*
X866Y734D01*
X841Y733D02*
X867Y733D01*
X842Y732D02*
X867Y732D01*
X842Y731D02*
X868Y731D01*
X843Y730D02*
X868Y730D01*
X843Y729D02*
X869Y729D01*
X844Y728D02*
X869Y728D01*
X844Y727D02*
X870Y727D01*
X845Y726D02*
X870Y726D01*
X845Y725D02*
X871Y725D01*
X846Y724D02*
X871Y724D01*
X846Y723D02*
X872Y723D01*
X847Y722D02*
X872Y722D01*
X847Y721D02*
X873Y721D01*
X848Y720D02*
X873Y720D01*
X849Y719D02*
X874Y719D01*
X849Y718D02*
X874Y718D01*
X849Y717D02*
X875Y717D01*
X850Y716D02*
X875Y716D01*
X850Y715D02*
X876Y715D01*
X851Y714D02*
X876Y714D01*
X851Y713D02*
X877Y713D01*
X852Y712D02*
X877Y712D01*
X852Y711D02*
X878Y711D01*
X853Y710D02*
X878Y710D01*
X853Y709D02*
X879Y709D01*
X854Y708D02*
X879Y708D01*
X854Y707D02*
X880Y707D01*
X855Y706D02*
X880Y706D01*
X855Y705D02*
X880Y705D01*
X856Y704D02*
X881Y704D01*
X856Y703D02*
X881Y703D01*
X857Y702D02*
X882Y702D01*
X857Y701D02*
X882Y701D01*
X858Y700D02*
X883Y700D01*
X858Y699D02*
X883Y699D01*
X859Y698D02*
X883Y698D01*
X859Y697D02*
X884Y697D01*
X859Y696D02*
X884Y696D01*
X860Y695D02*
X885Y695D01*
X860Y694D02*
X885Y694D01*
X861Y693D02*
X886Y693D01*
X861Y692D02*
X886Y692D01*
X862Y691D02*
X887Y691D01*
X862Y690D02*
X887Y690D01*
X863Y689D02*
X887Y689D01*
X863Y688D02*
X888Y688D01*
X863Y687D02*
X888Y687D01*
X864Y686D02*
X889Y686D01*
X864Y685D02*
X889Y685D01*
X865Y684D02*
X889Y684D01*
X865Y683D02*
X890Y683D01*
X866Y682D02*
X890Y682D01*
X866Y681D02*
X891Y681D01*
X866Y680D02*
X891Y680D01*
X867Y679D02*
X891Y679D01*
X867Y678D02*
X892Y678D01*
X868Y677D02*
X892Y677D01*
X868Y676D02*
X893Y676D01*
X868Y675D02*
X893Y675D01*
X869Y674D02*
X893Y674D01*
X869Y673D02*
X894Y673D01*
X870Y672D02*
X894Y672D01*
X870Y671D02*
X895Y671D01*
X870Y670D02*
X895Y670D01*
X871Y669D02*
X895Y669D01*
X871Y668D02*
X896Y668D01*
X872Y667D02*
X896Y667D01*
X872Y666D02*
X896Y666D01*
X872Y665D02*
X897Y665D01*
X873Y664D02*
X897Y664D01*
X873Y663D02*
X897Y663D01*
X873Y662D02*
X898Y662D01*
X874Y661D02*
X898Y661D01*
X874Y660D02*
X899Y660D01*
X875Y659D02*
X899Y659D01*
X875Y658D02*
X899Y658D01*
X875Y657D02*
X900Y657D01*
X876Y656D02*
X900Y656D01*
X876Y655D02*
X900Y655D01*
X876Y654D02*
X901Y654D01*
X877Y653D02*
X901Y653D01*
X877Y652D02*
X901Y652D01*
X877Y651D02*
X902Y651D01*
X878Y650D02*
X902Y650D01*
X878Y649D02*
X902Y649D01*
X879Y648D02*
X903Y648D01*
X879Y647D02*
X903Y647D01*
X879Y646D02*
X904Y646D01*
X880Y645D02*
X904Y645D01*
X880Y644D02*
X904Y644D01*
X880Y643D02*
X904Y643D01*
X881Y642D02*
X905Y642D01*
X881Y641D02*
X905Y641D01*
X881Y640D02*
X905Y640D01*
X882Y639D02*
X906Y639D01*
X882Y638D02*
X906Y638D01*
X882Y637D02*
X906Y637D01*
X883Y636D02*
X907Y636D01*
X883Y635D02*
X907Y635D01*
X883Y634D02*
X907Y634D01*
X884Y633D02*
X908Y633D01*
X884Y632D02*
X908Y632D01*
X884Y631D02*
X908Y631D01*
X885Y630D02*
X909Y630D01*
X885Y629D02*
X909Y629D01*
X885Y628D02*
X909Y628D01*
X885Y627D02*
X910Y627D01*
X886Y626D02*
X910Y626D01*
X886Y625D02*
X910Y625D01*
X886Y624D02*
X911Y624D01*
X887Y623D02*
X911Y623D01*
X887Y622D02*
X911Y622D01*
X887Y621D02*
X911Y621D01*
X888Y620D02*
X912Y620D01*
X888Y619D02*
X912Y619D01*
X888Y618D02*
X912Y618D01*
X889Y617D02*
X913Y617D01*
X889Y616D02*
X913Y616D01*
X889Y615D02*
X913Y615D01*
X890Y614D02*
X913Y614D01*
X890Y613D02*
X914Y613D01*
X890Y612D02*
X914Y612D01*
X890Y611D02*
X914Y611D01*
X891Y610D02*
X915Y610D01*
X891Y609D02*
X915Y609D01*
X891Y608D02*
X915Y608D01*
X891Y607D02*
X915Y607D01*
X892Y606D02*
X916Y606D01*
X892Y605D02*
X916Y605D01*
X892Y604D02*
X916Y604D01*
X893Y603D02*
X916Y603D01*
X893Y602D02*
X917Y602D01*
X893Y601D02*
X917Y601D01*
X893Y600D02*
X917Y600D01*
X894Y599D02*
X918Y599D01*
X894Y598D02*
X918Y598D01*
X894Y597D02*
X918Y597D01*
X895Y596D02*
X918Y596D01*
X895Y595D02*
X919Y595D01*
X895Y594D02*
X919Y594D01*
X895Y593D02*
X919Y593D01*
X896Y592D02*
X919Y592D01*
X896Y591D02*
X920Y591D01*
X896Y590D02*
X920Y590D01*
X896Y589D02*
X920Y589D01*
X897Y588D02*
X920Y588D01*
X897Y587D02*
X921Y587D01*
X897Y586D02*
X921Y586D01*
X897Y585D02*
X921Y585D01*
X898Y584D02*
X921Y584D01*
X898Y583D02*
X922Y583D01*
X898Y582D02*
X922Y582D01*
X898Y581D02*
X922Y581D01*
X899Y580D02*
X922Y580D01*
X899Y579D02*
X923Y579D01*
X899Y578D02*
X923Y578D01*
X899Y577D02*
X923Y577D01*
X900Y576D02*
X923Y576D01*
X900Y575D02*
X924Y575D01*
X900Y574D02*
X924Y574D01*
X900Y573D02*
X924Y573D01*
X901Y572D02*
X924Y572D01*
X901Y571D02*
X924Y571D01*
X901Y570D02*
X925Y570D01*
X901Y569D02*
X925Y569D01*
X902Y568D02*
X925Y568D01*
X902Y567D02*
X925Y567D01*
X902Y566D02*
X925Y566D01*
X902Y565D02*
X926Y565D01*
X902Y564D02*
X926Y564D01*
X903Y563D02*
X926Y563D01*
X903Y562D02*
X926Y562D01*
X903Y561D02*
X926Y561D01*
X903Y560D02*
X926Y560D01*
X903Y559D02*
X926Y559D01*
X903Y558D02*
X927Y558D01*
X904Y557D02*
X927Y557D01*
X904Y556D02*
X927Y556D01*
X904Y555D02*
X927Y555D01*
X904Y554D02*
X927Y554D01*
X904Y553D02*
X927Y553D01*
X904Y552D02*
X927Y552D01*
X904Y551D02*
X927Y551D01*
X904Y550D02*
X928Y550D01*
X905Y549D02*
X928Y549D01*
X905Y548D02*
X928Y548D01*
X905Y547D02*
X928Y547D01*
X905Y546D02*
X928Y546D01*
X905Y545D02*
X928Y545D01*
X905Y544D02*
X928Y544D01*
X905Y543D02*
X928Y543D01*
X905Y542D02*
X928Y542D01*
X905Y541D02*
X928Y541D01*
X905Y540D02*
X928Y540D01*
X905Y539D02*
X929Y539D01*
X906Y538D02*
X929Y538D01*
X906Y537D02*
X929Y537D01*
X906Y536D02*
X929Y536D01*
X906Y535D02*
X929Y535D01*
X906Y534D02*
X929Y534D01*
X906Y533D02*
X929Y533D01*
X906Y532D02*
X929Y532D01*
X906Y531D02*
X929Y531D01*
X906Y530D02*
X929Y530D01*
X906Y529D02*
X929Y529D01*
X906Y528D02*
X929Y528D01*
X906Y527D02*
X929Y527D01*
X906Y526D02*
X929Y526D01*
X906Y525D02*
X929Y525D01*
X906Y524D02*
X929Y524D01*
X906Y523D02*
X929Y523D01*
X907Y522D02*
X930Y522D01*
X907Y521D02*
X930Y521D01*
X907Y520D02*
X930Y520D01*
X907Y519D02*
X930Y519D01*
X907Y518D02*
X930Y518D01*
X907Y517D02*
X930Y517D01*
X907Y516D02*
X930Y516D01*
X907Y515D02*
X930Y515D01*
X907Y514D02*
X930Y514D01*
X907Y513D02*
X930Y513D01*
X907Y512D02*
X930Y512D01*
X907Y511D02*
X930Y511D01*
X907Y510D02*
X930Y510D01*
X907Y509D02*
X930Y509D01*
X907Y508D02*
X930Y508D01*
X907Y507D02*
X930Y507D01*
X907Y506D02*
X930Y506D01*
X907Y505D02*
X930Y505D01*
X907Y504D02*
X930Y504D01*
X907Y503D02*
X930Y503D01*
X907Y502D02*
X930Y502D01*
X907Y501D02*
X930Y501D01*
X907Y500D02*
X930Y500D01*
X907Y499D02*
X930Y499D01*
X907Y498D02*
X930Y498D01*
X80Y497D02*
X83Y497D01*
X907Y497D02*
X930Y497D01*
X79Y496D02*
X84Y496D01*
X907Y496D02*
X930Y496D01*
X78Y495D02*
X85Y495D01*
X907Y495D02*
X930Y495D01*
X78Y494D02*
X85Y494D01*
X907Y494D02*
X930Y494D01*
X78Y493D02*
X85Y493D01*
X907Y493D02*
X930Y493D01*
X78Y492D02*
X85Y492D01*
X907Y492D02*
X930Y492D01*
X78Y491D02*
X85Y491D01*
X907Y491D02*
X930Y491D01*
X78Y490D02*
X85Y490D01*
X907Y490D02*
X930Y490D01*
X78Y489D02*
X85Y489D01*
X907Y489D02*
X930Y489D01*
X78Y488D02*
X85Y488D01*
X907Y488D02*
X930Y488D01*
X78Y487D02*
X85Y487D01*
X907Y487D02*
X930Y487D01*
X79Y486D02*
X86Y486D01*
X907Y486D02*
X930Y486D01*
X79Y485D02*
X86Y485D01*
X907Y485D02*
X930Y485D01*
X79Y484D02*
X86Y484D01*
X907Y484D02*
X930Y484D01*
X79Y483D02*
X86Y483D01*
X907Y483D02*
X930Y483D01*
X79Y482D02*
X86Y482D01*
X907Y482D02*
X930Y482D01*
X79Y481D02*
X86Y481D01*
X907Y481D02*
X930Y481D01*
X79Y480D02*
X86Y480D01*
X907Y480D02*
X930Y480D01*
X79Y479D02*
X86Y479D01*
X907Y479D02*
X930Y479D01*
X79Y478D02*
X86Y478D01*
X907Y478D02*
X930Y478D01*
X79Y477D02*
X86Y477D01*
X907Y477D02*
X930Y477D01*
X79Y476D02*
X86Y476D01*
X907Y476D02*
X930Y476D01*
X79Y475D02*
X86Y475D01*
X907Y475D02*
X930Y475D01*
X79Y474D02*
X87Y474D01*
X907Y474D02*
X930Y474D01*
X80Y473D02*
X87Y473D01*
X907Y473D02*
X930Y473D01*
X80Y472D02*
X87Y472D01*
X907Y472D02*
X930Y472D01*
X80Y471D02*
X87Y471D01*
X907Y471D02*
X930Y471D01*
X80Y470D02*
X87Y470D01*
X906Y470D02*
X929Y470D01*
X80Y469D02*
X87Y469D01*
X906Y469D02*
X929Y469D01*
X80Y468D02*
X87Y468D01*
X906Y468D02*
X929Y468D01*
X80Y467D02*
X87Y467D01*
X906Y467D02*
X929Y467D01*
X80Y466D02*
X87Y466D01*
X906Y466D02*
X929Y466D01*
X80Y465D02*
X87Y465D01*
X906Y465D02*
X929Y465D01*
X80Y464D02*
X87Y464D01*
X906Y464D02*
X929Y464D01*
X81Y463D02*
X88Y463D01*
X906Y463D02*
X929Y463D01*
X81Y462D02*
X88Y462D01*
X906Y462D02*
X929Y462D01*
X81Y461D02*
X88Y461D01*
X906Y461D02*
X929Y461D01*
X81Y460D02*
X88Y460D01*
X906Y460D02*
X929Y460D01*
X81Y459D02*
X88Y459D01*
X337Y459D02*
X337Y459D01*
X906Y459D02*
X929Y459D01*
X81Y458D02*
X88Y458D01*
X335Y458D02*
X339Y458D01*
X906Y458D02*
X929Y458D01*
X81Y457D02*
X88Y457D01*
X334Y457D02*
X340Y457D01*
X906Y457D02*
X929Y457D01*
X81Y456D02*
X88Y456D01*
X334Y456D02*
X340Y456D01*
X906Y456D02*
X929Y456D01*
X81Y455D02*
X88Y455D01*
X334Y455D02*
X341Y455D01*
X906Y455D02*
X929Y455D01*
X81Y454D02*
X88Y454D01*
X334Y454D02*
X341Y454D01*
X906Y454D02*
X929Y454D01*
X82Y453D02*
X89Y453D01*
X334Y453D02*
X341Y453D01*
X906Y453D02*
X929Y453D01*
X82Y452D02*
X89Y452D01*
X334Y452D02*
X341Y452D01*
X906Y452D02*
X929Y452D01*
X82Y451D02*
X89Y451D01*
X334Y451D02*
X341Y451D01*
X906Y451D02*
X929Y451D01*
X82Y450D02*
X89Y450D01*
X334Y450D02*
X341Y450D01*
X906Y450D02*
X929Y450D01*
X82Y449D02*
X89Y449D01*
X334Y449D02*
X341Y449D01*
X905Y449D02*
X929Y449D01*
X82Y448D02*
X89Y448D01*
X334Y448D02*
X341Y448D01*
X905Y448D02*
X928Y448D01*
X82Y447D02*
X89Y447D01*
X334Y447D02*
X341Y447D01*
X905Y447D02*
X928Y447D01*
X82Y446D02*
X89Y446D01*
X334Y446D02*
X341Y446D01*
X905Y446D02*
X928Y446D01*
X82Y445D02*
X90Y445D01*
X334Y445D02*
X341Y445D01*
X905Y445D02*
X928Y445D01*
X83Y444D02*
X90Y444D01*
X334Y444D02*
X341Y444D01*
X905Y444D02*
X928Y444D01*
X83Y443D02*
X90Y443D01*
X334Y443D02*
X341Y443D01*
X905Y443D02*
X928Y443D01*
X83Y442D02*
X90Y442D01*
X334Y442D02*
X341Y442D01*
X905Y442D02*
X928Y442D01*
X83Y441D02*
X90Y441D01*
X334Y441D02*
X341Y441D01*
X905Y441D02*
X928Y441D01*
X83Y440D02*
X90Y440D01*
X334Y440D02*
X341Y440D01*
X905Y440D02*
X928Y440D01*
X83Y439D02*
X90Y439D01*
X334Y439D02*
X341Y439D01*
X905Y439D02*
X928Y439D01*
X83Y438D02*
X90Y438D01*
X334Y438D02*
X341Y438D01*
X905Y438D02*
X928Y438D01*
X84Y437D02*
X91Y437D01*
X334Y437D02*
X341Y437D01*
X905Y437D02*
X928Y437D01*
X84Y436D02*
X91Y436D01*
X334Y436D02*
X341Y436D01*
X905Y436D02*
X928Y436D01*
X84Y435D02*
X91Y435D01*
X335Y435D02*
X342Y435D01*
X905Y435D02*
X928Y435D01*
X84Y434D02*
X91Y434D01*
X335Y434D02*
X342Y434D01*
X904Y434D02*
X927Y434D01*
X84Y433D02*
X91Y433D01*
X335Y433D02*
X342Y433D01*
X904Y433D02*
X927Y433D01*
X84Y432D02*
X91Y432D01*
X335Y432D02*
X342Y432D01*
X904Y432D02*
X927Y432D01*
X84Y431D02*
X91Y431D01*
X335Y431D02*
X342Y431D01*
X904Y431D02*
X927Y431D01*
X84Y430D02*
X91Y430D01*
X335Y430D02*
X342Y430D01*
X904Y430D02*
X927Y430D01*
X85Y429D02*
X92Y429D01*
X335Y429D02*
X342Y429D01*
X904Y429D02*
X927Y429D01*
X85Y428D02*
X92Y428D01*
X335Y428D02*
X342Y428D01*
X904Y428D02*
X927Y428D01*
X85Y427D02*
X92Y427D01*
X335Y427D02*
X343Y427D01*
X904Y427D02*
X927Y427D01*
X85Y426D02*
X92Y426D01*
X336Y426D02*
X343Y426D01*
X904Y426D02*
X927Y426D01*
X85Y425D02*
X92Y425D01*
X336Y425D02*
X343Y425D01*
X904Y425D02*
X927Y425D01*
X85Y424D02*
X92Y424D01*
X336Y424D02*
X343Y424D01*
X904Y424D02*
X927Y424D01*
X85Y423D02*
X92Y423D01*
X336Y423D02*
X343Y423D01*
X903Y423D02*
X927Y423D01*
X86Y422D02*
X93Y422D01*
X336Y422D02*
X343Y422D01*
X903Y422D02*
X926Y422D01*
X86Y421D02*
X93Y421D01*
X336Y421D02*
X344Y421D01*
X903Y421D02*
X926Y421D01*
X86Y420D02*
X93Y420D01*
X337Y420D02*
X344Y420D01*
X903Y420D02*
X926Y420D01*
X86Y419D02*
X93Y419D01*
X337Y419D02*
X344Y419D01*
X903Y419D02*
X926Y419D01*
X86Y418D02*
X93Y418D01*
X337Y418D02*
X344Y418D01*
X903Y418D02*
X926Y418D01*
X86Y417D02*
X93Y417D01*
X337Y417D02*
X344Y417D01*
X903Y417D02*
X926Y417D01*
X87Y416D02*
X94Y416D01*
X338Y416D02*
X345Y416D01*
X903Y416D02*
X926Y416D01*
X87Y415D02*
X94Y415D01*
X338Y415D02*
X346Y415D01*
X903Y415D02*
X926Y415D01*
X87Y414D02*
X94Y414D01*
X338Y414D02*
X347Y414D01*
X903Y414D02*
X926Y414D01*
X87Y413D02*
X94Y413D01*
X338Y413D02*
X348Y413D01*
X903Y413D02*
X926Y413D01*
X87Y412D02*
X94Y412D01*
X339Y412D02*
X350Y412D01*
X902Y412D02*
X926Y412D01*
X87Y411D02*
X94Y411D01*
X340Y411D02*
X351Y411D01*
X902Y411D02*
X925Y411D01*
X87Y410D02*
X94Y410D01*
X341Y410D02*
X352Y410D01*
X902Y410D02*
X925Y410D01*
X88Y409D02*
X95Y409D01*
X342Y409D02*
X353Y409D01*
X902Y409D02*
X925Y409D01*
X88Y408D02*
X95Y408D01*
X343Y408D02*
X354Y408D01*
X902Y408D02*
X925Y408D01*
X88Y407D02*
X95Y407D01*
X344Y407D02*
X355Y407D01*
X902Y407D02*
X925Y407D01*
X88Y406D02*
X95Y406D01*
X345Y406D02*
X356Y406D01*
X902Y406D02*
X925Y406D01*
X88Y405D02*
X95Y405D01*
X346Y405D02*
X358Y405D01*
X902Y405D02*
X925Y405D01*
X88Y404D02*
X95Y404D01*
X347Y404D02*
X359Y404D01*
X902Y404D02*
X925Y404D01*
X89Y403D02*
X96Y403D01*
X349Y403D02*
X360Y403D01*
X901Y403D02*
X925Y403D01*
X89Y402D02*
X96Y402D01*
X350Y402D02*
X362Y402D01*
X901Y402D02*
X924Y402D01*
X89Y401D02*
X96Y401D01*
X351Y401D02*
X363Y401D01*
X901Y401D02*
X924Y401D01*
X89Y400D02*
X96Y400D01*
X352Y400D02*
X364Y400D01*
X901Y400D02*
X924Y400D01*
X89Y399D02*
X96Y399D01*
X353Y399D02*
X366Y399D01*
X901Y399D02*
X924Y399D01*
X90Y398D02*
X97Y398D01*
X355Y398D02*
X367Y398D01*
X901Y398D02*
X924Y398D01*
X90Y397D02*
X97Y397D01*
X356Y397D02*
X369Y397D01*
X901Y397D02*
X924Y397D01*
X90Y396D02*
X97Y396D01*
X357Y396D02*
X371Y396D01*
X901Y396D02*
X924Y396D01*
X90Y395D02*
X97Y395D01*
X359Y395D02*
X372Y395D01*
X901Y395D02*
X924Y395D01*
X90Y394D02*
X97Y394D01*
X360Y394D02*
X374Y394D01*
X900Y394D02*
X924Y394D01*
X90Y393D02*
X97Y393D01*
X362Y393D02*
X376Y393D01*
X900Y393D02*
X923Y393D01*
X91Y392D02*
X98Y392D01*
X363Y392D02*
X377Y392D01*
X900Y392D02*
X923Y392D01*
X91Y391D02*
X98Y391D01*
X365Y391D02*
X379Y391D01*
X900Y391D02*
X923Y391D01*
X91Y390D02*
X98Y390D01*
X366Y390D02*
X381Y390D01*
X900Y390D02*
X923Y390D01*
X91Y389D02*
X98Y389D01*
X368Y389D02*
X383Y389D01*
X900Y389D02*
X923Y389D01*
X91Y388D02*
X98Y388D01*
X370Y388D02*
X385Y388D01*
X900Y388D02*
X923Y388D01*
X92Y387D02*
X99Y387D01*
X371Y387D02*
X387Y387D01*
X900Y387D02*
X923Y387D01*
X92Y386D02*
X99Y386D01*
X373Y386D02*
X390Y386D01*
X899Y386D02*
X923Y386D01*
X92Y385D02*
X99Y385D01*
X375Y385D02*
X392Y385D01*
X899Y385D02*
X922Y385D01*
X92Y384D02*
X99Y384D01*
X377Y384D02*
X394Y384D01*
X899Y384D02*
X922Y384D01*
X92Y383D02*
X99Y383D01*
X379Y383D02*
X397Y383D01*
X899Y383D02*
X922Y383D01*
X93Y382D02*
X100Y382D01*
X381Y382D02*
X399Y382D01*
X899Y382D02*
X922Y382D01*
X93Y381D02*
X100Y381D01*
X383Y381D02*
X402Y381D01*
X899Y381D02*
X922Y381D01*
X93Y380D02*
X100Y380D01*
X385Y380D02*
X405Y380D01*
X899Y380D02*
X922Y380D01*
X93Y379D02*
X100Y379D01*
X387Y379D02*
X408Y379D01*
X899Y379D02*
X922Y379D01*
X93Y378D02*
X100Y378D01*
X389Y378D02*
X411Y378D01*
X898Y378D02*
X922Y378D01*
X94Y377D02*
X101Y377D01*
X392Y377D02*
X414Y377D01*
X898Y377D02*
X921Y377D01*
X94Y376D02*
X101Y376D01*
X394Y376D02*
X418Y376D01*
X898Y376D02*
X921Y376D01*
X94Y375D02*
X101Y375D01*
X397Y375D02*
X421Y375D01*
X898Y375D02*
X921Y375D01*
X94Y374D02*
X101Y374D01*
X399Y374D02*
X425Y374D01*
X898Y374D02*
X921Y374D01*
X94Y373D02*
X102Y373D01*
X402Y373D02*
X429Y373D01*
X898Y373D02*
X921Y373D01*
X95Y372D02*
X102Y372D01*
X405Y372D02*
X434Y372D01*
X898Y372D02*
X921Y372D01*
X95Y371D02*
X102Y371D01*
X408Y371D02*
X438Y371D01*
X897Y371D02*
X921Y371D01*
X95Y370D02*
X102Y370D01*
X411Y370D02*
X443Y370D01*
X897Y370D02*
X921Y370D01*
X95Y369D02*
X102Y369D01*
X414Y369D02*
X448Y369D01*
X897Y369D02*
X920Y369D01*
X96Y368D02*
X103Y368D01*
X418Y368D02*
X454Y368D01*
X897Y368D02*
X920Y368D01*
X96Y367D02*
X103Y367D01*
X422Y367D02*
X460Y367D01*
X897Y367D02*
X920Y367D01*
X96Y366D02*
X103Y366D01*
X425Y366D02*
X467Y366D01*
X897Y366D02*
X920Y366D01*
X96Y365D02*
X103Y365D01*
X430Y365D02*
X474Y365D01*
X897Y365D02*
X920Y365D01*
X96Y364D02*
X104Y364D01*
X434Y364D02*
X478Y364D01*
X896Y364D02*
X920Y364D01*
X97Y363D02*
X104Y363D01*
X438Y363D02*
X479Y363D01*
X896Y363D02*
X920Y363D01*
X97Y362D02*
X104Y362D01*
X443Y362D02*
X480Y362D01*
X896Y362D02*
X919Y362D01*
X97Y361D02*
X104Y361D01*
X448Y361D02*
X480Y361D01*
X896Y361D02*
X919Y361D01*
X97Y360D02*
X105Y360D01*
X454Y360D02*
X480Y360D01*
X896Y360D02*
X919Y360D01*
X98Y359D02*
X105Y359D01*
X460Y359D02*
X480Y359D01*
X896Y359D02*
X919Y359D01*
X98Y358D02*
X105Y358D01*
X467Y358D02*
X479Y358D01*
X896Y358D02*
X919Y358D01*
X98Y357D02*
X105Y357D01*
X474Y357D02*
X478Y357D01*
X895Y357D02*
X919Y357D01*
X98Y356D02*
X105Y356D01*
X895Y356D02*
X919Y356D01*
X99Y355D02*
X106Y355D01*
X895Y355D02*
X918Y355D01*
X99Y354D02*
X106Y354D01*
X895Y354D02*
X918Y354D01*
X99Y353D02*
X106Y353D01*
X895Y353D02*
X918Y353D01*
X99Y352D02*
X106Y352D01*
X895Y352D02*
X918Y352D01*
X100Y351D02*
X107Y351D01*
X895Y351D02*
X918Y351D01*
X100Y350D02*
X107Y350D01*
X894Y350D02*
X918Y350D01*
X100Y349D02*
X107Y349D01*
X894Y349D02*
X917Y349D01*
X100Y348D02*
X108Y348D01*
X894Y348D02*
X917Y348D01*
X101Y347D02*
X108Y347D01*
X894Y347D02*
X917Y347D01*
X101Y346D02*
X108Y346D01*
X894Y346D02*
X917Y346D01*
X101Y345D02*
X108Y345D01*
X894Y345D02*
X917Y345D01*
X101Y344D02*
X109Y344D01*
X893Y344D02*
X917Y344D01*
X102Y343D02*
X109Y343D01*
X893Y343D02*
X917Y343D01*
X102Y342D02*
X109Y342D01*
X893Y342D02*
X916Y342D01*
X102Y341D02*
X109Y341D01*
X893Y341D02*
X916Y341D01*
X103Y340D02*
X110Y340D01*
X893Y340D02*
X916Y340D01*
X103Y339D02*
X110Y339D01*
X893Y339D02*
X916Y339D01*
X103Y338D02*
X110Y338D01*
X892Y338D02*
X916Y338D01*
X103Y337D02*
X110Y337D01*
X892Y337D02*
X916Y337D01*
X104Y336D02*
X111Y336D01*
X892Y336D02*
X915Y336D01*
X104Y335D02*
X111Y335D01*
X892Y335D02*
X915Y335D01*
X104Y334D02*
X111Y334D01*
X892Y334D02*
X915Y334D01*
X104Y333D02*
X112Y333D01*
X892Y333D02*
X915Y333D01*
X105Y332D02*
X112Y332D01*
X891Y332D02*
X915Y332D01*
X105Y331D02*
X112Y331D01*
X891Y331D02*
X915Y331D01*
X105Y330D02*
X113Y330D01*
X891Y330D02*
X914Y330D01*
X106Y329D02*
X113Y329D01*
X891Y329D02*
X914Y329D01*
X106Y328D02*
X113Y328D01*
X891Y328D02*
X914Y328D01*
X106Y327D02*
X113Y327D01*
X891Y327D02*
X914Y327D01*
X107Y326D02*
X114Y326D01*
X890Y326D02*
X914Y326D01*
X107Y325D02*
X114Y325D01*
X890Y325D02*
X914Y325D01*
X107Y324D02*
X114Y324D01*
X890Y324D02*
X913Y324D01*
X107Y323D02*
X115Y323D01*
X890Y323D02*
X913Y323D01*
X108Y322D02*
X115Y322D01*
X890Y322D02*
X913Y322D01*
X108Y321D02*
X115Y321D01*
X890Y321D02*
X913Y321D01*
X108Y320D02*
X116Y320D01*
X889Y320D02*
X913Y320D01*
X109Y319D02*
X116Y319D01*
X889Y319D02*
X913Y319D01*
X109Y318D02*
X116Y318D01*
X889Y318D02*
X912Y318D01*
X109Y317D02*
X116Y317D01*
X889Y317D02*
X912Y317D01*
X110Y316D02*
X117Y316D01*
X889Y316D02*
X912Y316D01*
X110Y315D02*
X117Y315D01*
X888Y315D02*
X912Y315D01*
X110Y314D02*
X117Y314D01*
X888Y314D02*
X912Y314D01*
X111Y313D02*
X118Y313D01*
X888Y313D02*
X911Y313D01*
X111Y312D02*
X118Y312D01*
X888Y312D02*
X911Y312D01*
X111Y311D02*
X118Y311D01*
X888Y311D02*
X911Y311D01*
X112Y310D02*
X119Y310D01*
X888Y310D02*
X911Y310D01*
X112Y309D02*
X119Y309D01*
X887Y309D02*
X911Y309D01*
X112Y308D02*
X120Y308D01*
X887Y308D02*
X911Y308D01*
X113Y307D02*
X120Y307D01*
X887Y307D02*
X910Y307D01*
X113Y306D02*
X120Y306D01*
X887Y306D02*
X910Y306D01*
X113Y305D02*
X121Y305D01*
X887Y305D02*
X910Y305D01*
X114Y304D02*
X121Y304D01*
X886Y304D02*
X910Y304D01*
X114Y303D02*
X121Y303D01*
X886Y303D02*
X910Y303D01*
X114Y302D02*
X122Y302D01*
X886Y302D02*
X909Y302D01*
X115Y301D02*
X122Y301D01*
X886Y301D02*
X909Y301D01*
X115Y300D02*
X122Y300D01*
X886Y300D02*
X909Y300D01*
X115Y299D02*
X123Y299D01*
X885Y299D02*
X909Y299D01*
X116Y298D02*
X123Y298D01*
X885Y298D02*
X909Y298D01*
X116Y297D02*
X123Y297D01*
X885Y297D02*
X908Y297D01*
X116Y296D02*
X124Y296D01*
X885Y296D02*
X908Y296D01*
X117Y295D02*
X124Y295D01*
X885Y295D02*
X908Y295D01*
X117Y294D02*
X125Y294D01*
X884Y294D02*
X908Y294D01*
X118Y293D02*
X125Y293D01*
X884Y293D02*
X908Y293D01*
X118Y292D02*
X125Y292D01*
X884Y292D02*
X908Y292D01*
X118Y291D02*
X126Y291D01*
X884Y291D02*
X907Y291D01*
X119Y290D02*
X126Y290D01*
X884Y290D02*
X907Y290D01*
X119Y289D02*
X126Y289D01*
X883Y289D02*
X907Y289D01*
X119Y288D02*
X127Y288D01*
X883Y288D02*
X907Y288D01*
X120Y287D02*
X127Y287D01*
X883Y287D02*
X907Y287D01*
X120Y286D02*
X128Y286D01*
X883Y286D02*
X906Y286D01*
X121Y285D02*
X128Y285D01*
X883Y285D02*
X906Y285D01*
X121Y284D02*
X128Y284D01*
X882Y284D02*
X906Y284D01*
X121Y283D02*
X129Y283D01*
X882Y283D02*
X906Y283D01*
X122Y282D02*
X129Y282D01*
X882Y282D02*
X906Y282D01*
X122Y281D02*
X130Y281D01*
X882Y281D02*
X905Y281D01*
X123Y280D02*
X130Y280D01*
X882Y280D02*
X905Y280D01*
X123Y279D02*
X130Y279D01*
X881Y279D02*
X905Y279D01*
X123Y278D02*
X131Y278D01*
X881Y278D02*
X905Y278D01*
X124Y277D02*
X131Y277D01*
X881Y277D02*
X904Y277D01*
X124Y276D02*
X132Y276D01*
X881Y276D02*
X904Y276D01*
X125Y275D02*
X132Y275D01*
X881Y275D02*
X904Y275D01*
X125Y274D02*
X132Y274D01*
X880Y274D02*
X904Y274D01*
X126Y273D02*
X133Y273D01*
X880Y273D02*
X904Y273D01*
X126Y272D02*
X133Y272D01*
X880Y272D02*
X903Y272D01*
X126Y271D02*
X134Y271D01*
X880Y271D02*
X903Y271D01*
X127Y270D02*
X134Y270D01*
X880Y270D02*
X903Y270D01*
X127Y269D02*
X135Y269D01*
X879Y269D02*
X903Y269D01*
X128Y268D02*
X135Y268D01*
X879Y268D02*
X903Y268D01*
X128Y267D02*
X136Y267D01*
X879Y267D02*
X902Y267D01*
X128Y266D02*
X136Y266D01*
X879Y266D02*
X902Y266D01*
X129Y265D02*
X136Y265D01*
X878Y265D02*
X902Y265D01*
X129Y264D02*
X137Y264D01*
X878Y264D02*
X902Y264D01*
X130Y263D02*
X137Y263D01*
X878Y263D02*
X902Y263D01*
X130Y262D02*
X138Y262D01*
X878Y262D02*
X901Y262D01*
X131Y261D02*
X138Y261D01*
X878Y261D02*
X901Y261D01*
X131Y260D02*
X139Y260D01*
X877Y260D02*
X901Y260D01*
X132Y259D02*
X139Y259D01*
X877Y259D02*
X901Y259D01*
X132Y258D02*
X140Y258D01*
X877Y258D02*
X900Y258D01*
X133Y257D02*
X140Y257D01*
X877Y257D02*
X900Y257D01*
X133Y256D02*
X141Y256D01*
X876Y256D02*
X900Y256D01*
X134Y255D02*
X141Y255D01*
X876Y255D02*
X900Y255D01*
X134Y254D02*
X142Y254D01*
X876Y254D02*
X900Y254D01*
X134Y253D02*
X142Y253D01*
X876Y253D02*
X899Y253D01*
X135Y252D02*
X143Y252D01*
X876Y252D02*
X899Y252D01*
X135Y251D02*
X143Y251D01*
X875Y251D02*
X899Y251D01*
X136Y250D02*
X144Y250D01*
X875Y250D02*
X899Y250D01*
X136Y249D02*
X144Y249D01*
X875Y249D02*
X899Y249D01*
X137Y248D02*
X145Y248D01*
X875Y248D02*
X898Y248D01*
X137Y247D02*
X145Y247D01*
X874Y247D02*
X898Y247D01*
X138Y246D02*
X146Y246D01*
X874Y246D02*
X898Y246D01*
X138Y245D02*
X146Y245D01*
X874Y245D02*
X898Y245D01*
X139Y244D02*
X147Y244D01*
X874Y244D02*
X897Y244D01*
X139Y243D02*
X147Y243D01*
X874Y243D02*
X897Y243D01*
X140Y242D02*
X148Y242D01*
X873Y242D02*
X897Y242D01*
X140Y241D02*
X148Y241D01*
X873Y241D02*
X897Y241D01*
X141Y240D02*
X149Y240D01*
X873Y240D02*
X896Y240D01*
X141Y239D02*
X149Y239D01*
X873Y239D02*
X896Y239D01*
X142Y238D02*
X150Y238D01*
X872Y238D02*
X896Y238D01*
X143Y237D02*
X150Y237D01*
X872Y237D02*
X896Y237D01*
X143Y236D02*
X151Y236D01*
X872Y236D02*
X896Y236D01*
X144Y235D02*
X151Y235D01*
X872Y235D02*
X895Y235D01*
X144Y234D02*
X152Y234D01*
X871Y234D02*
X895Y234D01*
X145Y233D02*
X152Y233D01*
X871Y233D02*
X895Y233D01*
X145Y232D02*
X153Y232D01*
X871Y232D02*
X895Y232D01*
X146Y231D02*
X154Y231D01*
X871Y231D02*
X894Y231D01*
X146Y230D02*
X154Y230D01*
X871Y230D02*
X894Y230D01*
X147Y229D02*
X155Y229D01*
X870Y229D02*
X894Y229D01*
X147Y228D02*
X155Y228D01*
X870Y228D02*
X894Y228D01*
X148Y227D02*
X156Y227D01*
X870Y227D02*
X893Y227D01*
X149Y226D02*
X157Y226D01*
X870Y226D02*
X893Y226D01*
X149Y225D02*
X157Y225D01*
X869Y225D02*
X893Y225D01*
X150Y224D02*
X158Y224D01*
X869Y224D02*
X893Y224D01*
X150Y223D02*
X158Y223D01*
X869Y223D02*
X893Y223D01*
X151Y222D02*
X159Y222D01*
X869Y222D02*
X892Y222D01*
X152Y221D02*
X159Y221D01*
X868Y221D02*
X892Y221D01*
X152Y220D02*
X160Y220D01*
X868Y220D02*
X892Y220D01*
X153Y219D02*
X161Y219D01*
X868Y219D02*
X892Y219D01*
X153Y218D02*
X161Y218D01*
X868Y218D02*
X891Y218D01*
X154Y217D02*
X162Y217D01*
X867Y217D02*
X891Y217D01*
X155Y216D02*
X163Y216D01*
X867Y216D02*
X891Y216D01*
X155Y215D02*
X163Y215D01*
X867Y215D02*
X891Y215D01*
X156Y214D02*
X164Y214D01*
X867Y214D02*
X890Y214D01*
X156Y213D02*
X165Y213D01*
X866Y213D02*
X890Y213D01*
X157Y212D02*
X165Y212D01*
X866Y212D02*
X890Y212D01*
X158Y211D02*
X166Y211D01*
X866Y211D02*
X890Y211D01*
X158Y210D02*
X166Y210D01*
X866Y210D02*
X889Y210D01*
X159Y209D02*
X167Y209D01*
X865Y209D02*
X889Y209D01*
X160Y208D02*
X168Y208D01*
X865Y208D02*
X889Y208D01*
X160Y207D02*
X168Y207D01*
X865Y207D02*
X889Y207D01*
X161Y206D02*
X169Y206D01*
X865Y206D02*
X888Y206D01*
X162Y205D02*
X170Y205D01*
X864Y205D02*
X888Y205D01*
X162Y204D02*
X171Y204D01*
X864Y204D02*
X888Y204D01*
X163Y203D02*
X171Y203D01*
X864Y203D02*
X888Y203D01*
X164Y202D02*
X172Y202D01*
X864Y202D02*
X887Y202D01*
X164Y201D02*
X173Y201D01*
X864Y201D02*
X887Y201D01*
X165Y200D02*
X173Y200D01*
X864Y200D02*
X887Y200D01*
X166Y199D02*
X174Y199D01*
X864Y199D02*
X887Y199D01*
X166Y198D02*
X175Y198D01*
X864Y198D02*
X886Y198D01*
X167Y197D02*
X175Y197D01*
X864Y197D02*
X886Y197D01*
X168Y196D02*
X176Y196D01*
X864Y196D02*
X886Y196D01*
X168Y195D02*
X177Y195D01*
X865Y195D02*
X885Y195D01*
X169Y194D02*
X178Y194D01*
X865Y194D02*
X885Y194D01*
X170Y193D02*
X178Y193D01*
X866Y193D02*
X884Y193D01*
X171Y192D02*
X179Y192D01*
X867Y192D02*
X883Y192D01*
X171Y191D02*
X180Y191D01*
X868Y191D02*
X882Y191D01*
X172Y190D02*
X181Y190D01*
X869Y190D02*
X881Y190D01*
X173Y189D02*
X181Y189D01*
X871Y189D02*
X879Y189D01*
X174Y188D02*
X182Y188D01*
X174Y187D02*
X183Y187D01*
X175Y186D02*
X184Y186D01*
X176Y185D02*
X185Y185D01*
X177Y184D02*
X185Y184D01*
X177Y183D02*
X186Y183D01*
X178Y182D02*
X187Y182D01*
X179Y181D02*
X188Y181D01*
X180Y180D02*
X189Y180D01*
X181Y179D02*
X189Y179D01*
X181Y178D02*
X190Y178D01*
X182Y177D02*
X191Y177D01*
X183Y176D02*
X192Y176D01*
X184Y175D02*
X193Y175D01*
X185Y174D02*
X194Y174D01*
X185Y173D02*
X195Y173D01*
X186Y172D02*
X195Y172D01*
X187Y171D02*
X196Y171D01*
X188Y170D02*
X197Y170D01*
X189Y169D02*
X198Y169D01*
X190Y168D02*
X199Y168D01*
X191Y167D02*
X200Y167D01*
X191Y166D02*
X201Y166D01*
X192Y165D02*
X202Y165D01*
X193Y164D02*
X203Y164D01*
X194Y163D02*
X204Y163D01*
X195Y162D02*
X205Y162D01*
X196Y161D02*
X206Y161D01*
X197Y160D02*
X207Y160D01*
X198Y159D02*
X208Y159D01*
X199Y158D02*
X209Y158D01*
X200Y157D02*
X210Y157D01*
X201Y156D02*
X211Y156D01*
X202Y155D02*
X212Y155D01*
X203Y154D02*
X213Y154D01*
X204Y153D02*
X214Y153D01*
X205Y152D02*
X215Y152D01*
X206Y151D02*
X216Y151D01*
X207Y150D02*
X217Y150D01*
X208Y149D02*
X218Y149D01*
X209Y148D02*
X219Y148D01*
X210Y147D02*
X220Y147D01*
X211Y146D02*
X221Y146D01*
X212Y145D02*
X222Y145D01*
X213Y144D02*
X224Y144D01*
X214Y143D02*
X225Y143D01*
X215Y142D02*
X226Y142D01*
X216Y141D02*
X227Y141D01*
X217Y140D02*
X228Y140D01*
X218Y139D02*
X230Y139D01*
X220Y138D02*
X231Y138D01*
X221Y137D02*
X232Y137D01*
X222Y136D02*
X233Y136D01*
X223Y135D02*
X234Y135D01*
X224Y134D02*
X236Y134D01*
X225Y133D02*
X237Y133D01*
X227Y132D02*
X238Y132D01*
X228Y131D02*
X240Y131D01*
X229Y130D02*
X241Y130D01*
X230Y129D02*
X242Y129D01*
X232Y128D02*
X244Y128D01*
X233Y127D02*
X245Y127D01*
X234Y126D02*
X246Y126D01*
X235Y125D02*
X248Y125D01*
X237Y124D02*
X249Y124D01*
X238Y123D02*
X251Y123D01*
X240Y122D02*
X252Y122D01*
X241Y121D02*
X254Y121D01*
X242Y120D02*
X255Y120D01*
X244Y119D02*
X257Y119D01*
X245Y118D02*
X258Y118D01*
X246Y117D02*
X260Y117D01*
X248Y116D02*
X262Y116D01*
X249Y115D02*
X263Y115D01*
X251Y114D02*
X265Y114D01*
X252Y113D02*
X266Y113D01*
X254Y112D02*
X268Y112D01*
X255Y111D02*
X270Y111D01*
X257Y110D02*
X272Y110D01*
X259Y109D02*
X273Y109D01*
X260Y108D02*
X275Y108D01*
X262Y107D02*
X277Y107D01*
X264Y106D02*
X279Y106D01*
X265Y105D02*
X281Y105D01*
X267Y104D02*
X283Y104D01*
X269Y103D02*
X285Y103D01*
X271Y102D02*
X287Y102D01*
X272Y101D02*
X289Y101D01*
X274Y100D02*
X291Y100D01*
X276Y99D02*
X293Y99D01*
X278Y98D02*
X295Y98D01*
X280Y97D02*
X297Y97D01*
X282Y96D02*
X300Y96D01*
X284Y95D02*
X302Y95D01*
X286Y94D02*
X304Y94D01*
X288Y93D02*
X307Y93D01*
X290Y92D02*
X309Y92D01*
X292Y91D02*
X312Y91D01*
X294Y90D02*
X314Y90D01*
X297Y89D02*
X317Y89D01*
X299Y88D02*
X320Y88D01*
X301Y87D02*
X323Y87D01*
X304Y86D02*
X326Y86D01*
X306Y85D02*
X329Y85D01*
X309Y84D02*
X332Y84D01*
X311Y83D02*
X335Y83D01*
X314Y82D02*
X339Y82D01*
X317Y81D02*
X343Y81D01*
X320Y80D02*
X347Y80D01*
X323Y79D02*
X351Y79D01*
X326Y78D02*
X355Y78D01*
X329Y77D02*
X359Y77D01*
X332Y76D02*
X364Y76D01*
X335Y75D02*
X370Y75D01*
X339Y74D02*
X376Y74D01*
X343Y73D02*
X383Y73D01*
X475Y73D02*
X478Y73D01*
X347Y72D02*
X390Y72D01*
X467Y72D02*
X479Y72D01*
X351Y71D02*
X400Y71D01*
X459Y71D02*
X480Y71D01*
X355Y70D02*
X416Y70D01*
X444Y70D02*
X480Y70D01*
X359Y69D02*
X480Y69D01*
X365Y68D02*
X480Y68D01*
X370Y67D02*
X479Y67D01*
X376Y66D02*
X478Y66D01*
X383Y65D02*
X474Y65D01*
X391Y64D02*
X467Y64D01*
X401Y63D02*
X458Y63D01*
X418Y62D02*
X442Y62D01*
D02*
G04 End of Copper0*
M02*