G04 MADE WITH FRITZING*
G04 WWW.FRITZING.ORG*
G04 DOUBLE SIDED*
G04 HOLES PLATED*
G04 CONTOUR ON CENTER OF CONTOUR VECTOR*
%ASAXBY*%
%FSLAX23Y23*%
%MOIN*%
%OFA0B0*%
%SFA1.0B1.0*%
%ADD10C,0.004724*%
%ADD11R,0.001000X0.001000*%
%LNSILK0*%
G90*
G70*
G54D10*
X480Y503D02*
X486Y509D01*
D02*
X480Y503D02*
X486Y497D01*
D02*
X564Y586D02*
X558Y580D01*
D02*
X564Y586D02*
X570Y580D01*
D02*
X564Y419D02*
X570Y425D01*
D02*
X564Y419D02*
X558Y425D01*
D02*
X647Y503D02*
X641Y497D01*
D02*
X647Y503D02*
X641Y509D01*
G54D11*
X1Y984D02*
X984Y984D01*
X1Y983D02*
X984Y983D01*
X1Y982D02*
X984Y982D01*
X1Y981D02*
X984Y981D01*
X1Y980D02*
X984Y980D01*
X1Y979D02*
X984Y979D01*
X1Y978D02*
X984Y978D01*
X1Y977D02*
X9Y977D01*
X52Y977D02*
X183Y977D01*
X225Y977D02*
X984Y977D01*
X1Y976D02*
X8Y976D01*
X977Y976D02*
X984Y976D01*
X1Y975D02*
X8Y975D01*
X977Y975D02*
X984Y975D01*
X1Y974D02*
X8Y974D01*
X977Y974D02*
X984Y974D01*
X1Y973D02*
X8Y973D01*
X977Y973D02*
X984Y973D01*
X1Y972D02*
X8Y972D01*
X977Y972D02*
X984Y972D01*
X1Y971D02*
X8Y971D01*
X977Y971D02*
X984Y971D01*
X1Y970D02*
X8Y970D01*
X977Y970D02*
X984Y970D01*
X1Y969D02*
X8Y969D01*
X977Y969D02*
X984Y969D01*
X1Y968D02*
X8Y968D01*
X977Y968D02*
X984Y968D01*
X1Y967D02*
X8Y967D01*
X977Y967D02*
X984Y967D01*
X1Y966D02*
X8Y966D01*
X977Y966D02*
X984Y966D01*
X1Y965D02*
X8Y965D01*
X977Y965D02*
X984Y965D01*
X1Y964D02*
X8Y964D01*
X977Y964D02*
X984Y964D01*
X1Y963D02*
X8Y963D01*
X253Y963D02*
X266Y963D01*
X278Y963D02*
X288Y963D01*
X977Y963D02*
X984Y963D01*
X1Y962D02*
X8Y962D01*
X253Y962D02*
X266Y962D01*
X277Y962D02*
X288Y962D01*
X977Y962D02*
X984Y962D01*
X1Y961D02*
X8Y961D01*
X253Y961D02*
X266Y961D01*
X277Y961D02*
X288Y961D01*
X977Y961D02*
X984Y961D01*
X1Y960D02*
X8Y960D01*
X253Y960D02*
X266Y960D01*
X278Y960D02*
X288Y960D01*
X977Y960D02*
X984Y960D01*
X1Y959D02*
X8Y959D01*
X259Y959D02*
X263Y959D01*
X285Y959D02*
X288Y959D01*
X977Y959D02*
X984Y959D01*
X1Y958D02*
X8Y958D01*
X259Y958D02*
X263Y958D01*
X285Y958D02*
X288Y958D01*
X977Y958D02*
X984Y958D01*
X1Y957D02*
X8Y957D01*
X259Y957D02*
X263Y957D01*
X285Y957D02*
X288Y957D01*
X977Y957D02*
X984Y957D01*
X1Y956D02*
X8Y956D01*
X259Y956D02*
X263Y956D01*
X285Y956D02*
X288Y956D01*
X977Y956D02*
X984Y956D01*
X1Y955D02*
X8Y955D01*
X259Y955D02*
X263Y955D01*
X285Y955D02*
X288Y955D01*
X977Y955D02*
X984Y955D01*
X1Y954D02*
X8Y954D01*
X259Y954D02*
X263Y954D01*
X285Y954D02*
X288Y954D01*
X977Y954D02*
X984Y954D01*
X1Y953D02*
X8Y953D01*
X259Y953D02*
X263Y953D01*
X285Y953D02*
X288Y953D01*
X977Y953D02*
X984Y953D01*
X1Y952D02*
X8Y952D01*
X259Y952D02*
X263Y952D01*
X285Y952D02*
X288Y952D01*
X977Y952D02*
X984Y952D01*
X1Y951D02*
X8Y951D01*
X259Y951D02*
X263Y951D01*
X285Y951D02*
X288Y951D01*
X977Y951D02*
X984Y951D01*
X1Y950D02*
X8Y950D01*
X259Y950D02*
X263Y950D01*
X285Y950D02*
X288Y950D01*
X977Y950D02*
X984Y950D01*
X1Y949D02*
X8Y949D01*
X259Y949D02*
X263Y949D01*
X285Y949D02*
X288Y949D01*
X977Y949D02*
X984Y949D01*
X1Y948D02*
X8Y948D01*
X259Y948D02*
X263Y948D01*
X285Y948D02*
X288Y948D01*
X977Y948D02*
X984Y948D01*
X1Y947D02*
X8Y947D01*
X259Y947D02*
X263Y947D01*
X285Y947D02*
X288Y947D01*
X977Y947D02*
X984Y947D01*
X1Y946D02*
X8Y946D01*
X259Y946D02*
X263Y946D01*
X285Y946D02*
X288Y946D01*
X977Y946D02*
X984Y946D01*
X1Y945D02*
X8Y945D01*
X259Y945D02*
X263Y945D01*
X285Y945D02*
X288Y945D01*
X977Y945D02*
X984Y945D01*
X1Y944D02*
X8Y944D01*
X248Y944D02*
X249Y944D01*
X259Y944D02*
X263Y944D01*
X285Y944D02*
X288Y944D01*
X977Y944D02*
X984Y944D01*
X1Y943D02*
X8Y943D01*
X247Y943D02*
X250Y943D01*
X259Y943D02*
X263Y943D01*
X285Y943D02*
X288Y943D01*
X294Y943D02*
X296Y943D01*
X977Y943D02*
X984Y943D01*
X1Y942D02*
X8Y942D01*
X247Y942D02*
X250Y942D01*
X259Y942D02*
X263Y942D01*
X285Y942D02*
X288Y942D01*
X294Y942D02*
X297Y942D01*
X977Y942D02*
X984Y942D01*
X1Y941D02*
X8Y941D01*
X247Y941D02*
X250Y941D01*
X259Y941D02*
X263Y941D01*
X285Y941D02*
X288Y941D01*
X293Y941D02*
X297Y941D01*
X977Y941D02*
X984Y941D01*
X1Y940D02*
X8Y940D01*
X247Y940D02*
X250Y940D01*
X259Y940D02*
X263Y940D01*
X285Y940D02*
X288Y940D01*
X293Y940D02*
X297Y940D01*
X977Y940D02*
X984Y940D01*
X1Y939D02*
X8Y939D01*
X247Y939D02*
X250Y939D01*
X259Y939D02*
X263Y939D01*
X285Y939D02*
X288Y939D01*
X293Y939D02*
X297Y939D01*
X977Y939D02*
X984Y939D01*
X1Y938D02*
X8Y938D01*
X247Y938D02*
X250Y938D01*
X259Y938D02*
X263Y938D01*
X285Y938D02*
X288Y938D01*
X293Y938D02*
X297Y938D01*
X977Y938D02*
X984Y938D01*
X1Y937D02*
X8Y937D01*
X247Y937D02*
X250Y937D01*
X259Y937D02*
X262Y937D01*
X285Y937D02*
X288Y937D01*
X293Y937D02*
X297Y937D01*
X977Y937D02*
X984Y937D01*
X1Y936D02*
X8Y936D01*
X247Y936D02*
X251Y936D01*
X259Y936D02*
X262Y936D01*
X285Y936D02*
X288Y936D01*
X293Y936D02*
X297Y936D01*
X977Y936D02*
X984Y936D01*
X1Y935D02*
X8Y935D01*
X247Y935D02*
X262Y935D01*
X278Y935D02*
X297Y935D01*
X977Y935D02*
X984Y935D01*
X1Y934D02*
X8Y934D01*
X248Y934D02*
X261Y934D01*
X277Y934D02*
X297Y934D01*
X977Y934D02*
X984Y934D01*
X1Y933D02*
X8Y933D01*
X248Y933D02*
X261Y933D01*
X277Y933D02*
X297Y933D01*
X977Y933D02*
X984Y933D01*
X1Y932D02*
X8Y932D01*
X250Y932D02*
X259Y932D01*
X277Y932D02*
X296Y932D01*
X977Y932D02*
X984Y932D01*
X1Y931D02*
X8Y931D01*
X977Y931D02*
X984Y931D01*
X1Y930D02*
X8Y930D01*
X977Y930D02*
X984Y930D01*
X1Y929D02*
X8Y929D01*
X977Y929D02*
X984Y929D01*
X1Y928D02*
X8Y928D01*
X977Y928D02*
X984Y928D01*
X1Y927D02*
X8Y927D01*
X977Y927D02*
X984Y927D01*
X1Y926D02*
X8Y926D01*
X977Y926D02*
X984Y926D01*
X1Y925D02*
X8Y925D01*
X977Y925D02*
X984Y925D01*
X1Y924D02*
X8Y924D01*
X977Y924D02*
X984Y924D01*
X1Y923D02*
X8Y923D01*
X977Y923D02*
X984Y923D01*
X1Y922D02*
X8Y922D01*
X977Y922D02*
X984Y922D01*
X1Y921D02*
X8Y921D01*
X977Y921D02*
X984Y921D01*
X1Y920D02*
X8Y920D01*
X977Y920D02*
X984Y920D01*
X1Y919D02*
X8Y919D01*
X977Y919D02*
X984Y919D01*
X1Y918D02*
X8Y918D01*
X977Y918D02*
X984Y918D01*
X1Y917D02*
X8Y917D01*
X977Y917D02*
X984Y917D01*
X1Y916D02*
X8Y916D01*
X977Y916D02*
X984Y916D01*
X1Y915D02*
X8Y915D01*
X977Y915D02*
X984Y915D01*
X1Y914D02*
X8Y914D01*
X977Y914D02*
X984Y914D01*
X1Y913D02*
X8Y913D01*
X977Y913D02*
X984Y913D01*
X1Y912D02*
X8Y912D01*
X977Y912D02*
X984Y912D01*
X1Y911D02*
X8Y911D01*
X977Y911D02*
X984Y911D01*
X1Y910D02*
X7Y910D01*
X977Y910D02*
X984Y910D01*
X1Y909D02*
X6Y909D01*
X977Y909D02*
X984Y909D01*
X1Y908D02*
X5Y908D01*
X977Y908D02*
X984Y908D01*
X1Y907D02*
X5Y907D01*
X977Y907D02*
X984Y907D01*
X1Y906D02*
X5Y906D01*
X977Y906D02*
X984Y906D01*
X1Y905D02*
X4Y905D01*
X977Y905D02*
X984Y905D01*
X1Y904D02*
X4Y904D01*
X977Y904D02*
X984Y904D01*
X1Y903D02*
X4Y903D01*
X977Y903D02*
X984Y903D01*
X1Y902D02*
X4Y902D01*
X977Y902D02*
X984Y902D01*
X1Y901D02*
X4Y901D01*
X977Y901D02*
X984Y901D01*
X1Y900D02*
X4Y900D01*
X977Y900D02*
X984Y900D01*
X1Y899D02*
X4Y899D01*
X977Y899D02*
X984Y899D01*
X1Y898D02*
X4Y898D01*
X977Y898D02*
X984Y898D01*
X1Y897D02*
X4Y897D01*
X977Y897D02*
X984Y897D01*
X1Y896D02*
X4Y896D01*
X977Y896D02*
X984Y896D01*
X1Y895D02*
X4Y895D01*
X977Y895D02*
X984Y895D01*
X1Y894D02*
X4Y894D01*
X977Y894D02*
X984Y894D01*
X1Y893D02*
X4Y893D01*
X977Y893D02*
X984Y893D01*
X1Y892D02*
X4Y892D01*
X977Y892D02*
X984Y892D01*
X1Y891D02*
X4Y891D01*
X977Y891D02*
X984Y891D01*
X1Y890D02*
X4Y890D01*
X977Y890D02*
X984Y890D01*
X1Y889D02*
X4Y889D01*
X977Y889D02*
X984Y889D01*
X1Y888D02*
X4Y888D01*
X977Y888D02*
X984Y888D01*
X1Y887D02*
X4Y887D01*
X977Y887D02*
X984Y887D01*
X1Y886D02*
X4Y886D01*
X977Y886D02*
X984Y886D01*
X1Y885D02*
X4Y885D01*
X977Y885D02*
X984Y885D01*
X1Y884D02*
X4Y884D01*
X977Y884D02*
X984Y884D01*
X1Y883D02*
X4Y883D01*
X977Y883D02*
X984Y883D01*
X1Y882D02*
X4Y882D01*
X977Y882D02*
X984Y882D01*
X1Y881D02*
X4Y881D01*
X977Y881D02*
X984Y881D01*
X1Y880D02*
X4Y880D01*
X977Y880D02*
X984Y880D01*
X1Y879D02*
X4Y879D01*
X977Y879D02*
X984Y879D01*
X1Y878D02*
X4Y878D01*
X977Y878D02*
X984Y878D01*
X1Y877D02*
X4Y877D01*
X977Y877D02*
X984Y877D01*
X1Y876D02*
X4Y876D01*
X977Y876D02*
X984Y876D01*
X1Y875D02*
X4Y875D01*
X977Y875D02*
X984Y875D01*
X1Y874D02*
X4Y874D01*
X977Y874D02*
X984Y874D01*
X1Y873D02*
X4Y873D01*
X977Y873D02*
X984Y873D01*
X1Y872D02*
X4Y872D01*
X977Y872D02*
X984Y872D01*
X1Y871D02*
X4Y871D01*
X977Y871D02*
X984Y871D01*
X1Y870D02*
X4Y870D01*
X977Y870D02*
X984Y870D01*
X1Y869D02*
X4Y869D01*
X977Y869D02*
X984Y869D01*
X1Y868D02*
X4Y868D01*
X977Y868D02*
X984Y868D01*
X1Y867D02*
X4Y867D01*
X977Y867D02*
X984Y867D01*
X1Y866D02*
X4Y866D01*
X977Y866D02*
X984Y866D01*
X1Y865D02*
X4Y865D01*
X977Y865D02*
X984Y865D01*
X1Y864D02*
X4Y864D01*
X977Y864D02*
X984Y864D01*
X1Y863D02*
X4Y863D01*
X977Y863D02*
X984Y863D01*
X1Y862D02*
X4Y862D01*
X977Y862D02*
X984Y862D01*
X1Y861D02*
X4Y861D01*
X977Y861D02*
X984Y861D01*
X1Y860D02*
X4Y860D01*
X977Y860D02*
X984Y860D01*
X1Y859D02*
X4Y859D01*
X977Y859D02*
X984Y859D01*
X1Y858D02*
X4Y858D01*
X977Y858D02*
X984Y858D01*
X1Y857D02*
X4Y857D01*
X977Y857D02*
X984Y857D01*
X1Y856D02*
X4Y856D01*
X977Y856D02*
X984Y856D01*
X1Y855D02*
X4Y855D01*
X977Y855D02*
X984Y855D01*
X1Y854D02*
X4Y854D01*
X977Y854D02*
X984Y854D01*
X1Y853D02*
X4Y853D01*
X977Y853D02*
X984Y853D01*
X1Y852D02*
X4Y852D01*
X977Y852D02*
X984Y852D01*
X1Y851D02*
X4Y851D01*
X977Y851D02*
X984Y851D01*
X1Y850D02*
X4Y850D01*
X977Y850D02*
X984Y850D01*
X1Y849D02*
X4Y849D01*
X977Y849D02*
X984Y849D01*
X1Y848D02*
X4Y848D01*
X977Y848D02*
X984Y848D01*
X1Y847D02*
X4Y847D01*
X977Y847D02*
X984Y847D01*
X1Y846D02*
X4Y846D01*
X977Y846D02*
X984Y846D01*
X1Y845D02*
X4Y845D01*
X977Y845D02*
X984Y845D01*
X1Y844D02*
X4Y844D01*
X977Y844D02*
X984Y844D01*
X1Y843D02*
X4Y843D01*
X977Y843D02*
X984Y843D01*
X1Y842D02*
X4Y842D01*
X977Y842D02*
X984Y842D01*
X1Y841D02*
X4Y841D01*
X977Y841D02*
X984Y841D01*
X1Y840D02*
X4Y840D01*
X977Y840D02*
X984Y840D01*
X1Y839D02*
X5Y839D01*
X977Y839D02*
X984Y839D01*
X1Y838D02*
X5Y838D01*
X977Y838D02*
X984Y838D01*
X1Y837D02*
X5Y837D01*
X977Y837D02*
X984Y837D01*
X1Y836D02*
X6Y836D01*
X977Y836D02*
X984Y836D01*
X1Y835D02*
X7Y835D01*
X977Y835D02*
X984Y835D01*
X1Y834D02*
X8Y834D01*
X977Y834D02*
X984Y834D01*
X1Y833D02*
X8Y833D01*
X977Y833D02*
X984Y833D01*
X1Y832D02*
X8Y832D01*
X977Y832D02*
X984Y832D01*
X1Y831D02*
X8Y831D01*
X977Y831D02*
X984Y831D01*
X1Y830D02*
X8Y830D01*
X977Y830D02*
X984Y830D01*
X1Y829D02*
X8Y829D01*
X977Y829D02*
X984Y829D01*
X1Y828D02*
X8Y828D01*
X977Y828D02*
X984Y828D01*
X1Y827D02*
X8Y827D01*
X977Y827D02*
X984Y827D01*
X1Y826D02*
X8Y826D01*
X977Y826D02*
X984Y826D01*
X1Y825D02*
X8Y825D01*
X977Y825D02*
X984Y825D01*
X1Y824D02*
X8Y824D01*
X977Y824D02*
X984Y824D01*
X1Y823D02*
X8Y823D01*
X977Y823D02*
X984Y823D01*
X1Y822D02*
X8Y822D01*
X977Y822D02*
X984Y822D01*
X1Y821D02*
X8Y821D01*
X977Y821D02*
X984Y821D01*
X1Y820D02*
X8Y820D01*
X977Y820D02*
X984Y820D01*
X1Y819D02*
X8Y819D01*
X977Y819D02*
X984Y819D01*
X1Y818D02*
X8Y818D01*
X977Y818D02*
X984Y818D01*
X1Y817D02*
X8Y817D01*
X977Y817D02*
X984Y817D01*
X1Y816D02*
X8Y816D01*
X977Y816D02*
X984Y816D01*
X1Y815D02*
X8Y815D01*
X977Y815D02*
X984Y815D01*
X1Y814D02*
X8Y814D01*
X977Y814D02*
X984Y814D01*
X1Y813D02*
X8Y813D01*
X977Y813D02*
X984Y813D01*
X1Y812D02*
X8Y812D01*
X977Y812D02*
X984Y812D01*
X1Y811D02*
X8Y811D01*
X977Y811D02*
X984Y811D01*
X1Y810D02*
X8Y810D01*
X977Y810D02*
X984Y810D01*
X1Y809D02*
X8Y809D01*
X977Y809D02*
X984Y809D01*
X1Y808D02*
X8Y808D01*
X977Y808D02*
X984Y808D01*
X1Y807D02*
X8Y807D01*
X977Y807D02*
X984Y807D01*
X1Y806D02*
X8Y806D01*
X977Y806D02*
X984Y806D01*
X1Y805D02*
X8Y805D01*
X977Y805D02*
X984Y805D01*
X1Y804D02*
X8Y804D01*
X977Y804D02*
X984Y804D01*
X1Y803D02*
X8Y803D01*
X977Y803D02*
X984Y803D01*
X1Y802D02*
X8Y802D01*
X977Y802D02*
X984Y802D01*
X1Y801D02*
X8Y801D01*
X977Y801D02*
X984Y801D01*
X1Y800D02*
X8Y800D01*
X977Y800D02*
X984Y800D01*
X1Y799D02*
X8Y799D01*
X977Y799D02*
X984Y799D01*
X1Y798D02*
X8Y798D01*
X977Y798D02*
X984Y798D01*
X1Y797D02*
X8Y797D01*
X977Y797D02*
X984Y797D01*
X1Y796D02*
X8Y796D01*
X977Y796D02*
X984Y796D01*
X1Y795D02*
X8Y795D01*
X977Y795D02*
X984Y795D01*
X1Y794D02*
X8Y794D01*
X977Y794D02*
X984Y794D01*
X1Y793D02*
X8Y793D01*
X977Y793D02*
X984Y793D01*
X1Y792D02*
X8Y792D01*
X977Y792D02*
X984Y792D01*
X1Y791D02*
X8Y791D01*
X977Y791D02*
X984Y791D01*
X1Y790D02*
X8Y790D01*
X977Y790D02*
X984Y790D01*
X1Y789D02*
X8Y789D01*
X977Y789D02*
X984Y789D01*
X1Y788D02*
X8Y788D01*
X977Y788D02*
X984Y788D01*
X1Y787D02*
X8Y787D01*
X977Y787D02*
X984Y787D01*
X1Y786D02*
X8Y786D01*
X977Y786D02*
X984Y786D01*
X1Y785D02*
X8Y785D01*
X977Y785D02*
X984Y785D01*
X1Y784D02*
X8Y784D01*
X977Y784D02*
X984Y784D01*
X1Y783D02*
X8Y783D01*
X977Y783D02*
X984Y783D01*
X1Y782D02*
X8Y782D01*
X977Y782D02*
X984Y782D01*
X1Y781D02*
X8Y781D01*
X977Y781D02*
X984Y781D01*
X1Y780D02*
X8Y780D01*
X977Y780D02*
X984Y780D01*
X1Y779D02*
X8Y779D01*
X977Y779D02*
X984Y779D01*
X1Y778D02*
X8Y778D01*
X977Y778D02*
X984Y778D01*
X1Y777D02*
X8Y777D01*
X977Y777D02*
X984Y777D01*
X1Y776D02*
X8Y776D01*
X977Y776D02*
X984Y776D01*
X1Y775D02*
X8Y775D01*
X977Y775D02*
X984Y775D01*
X1Y774D02*
X8Y774D01*
X977Y774D02*
X984Y774D01*
X1Y773D02*
X8Y773D01*
X977Y773D02*
X984Y773D01*
X1Y772D02*
X8Y772D01*
X977Y772D02*
X984Y772D01*
X1Y771D02*
X8Y771D01*
X977Y771D02*
X984Y771D01*
X1Y770D02*
X8Y770D01*
X977Y770D02*
X984Y770D01*
X1Y769D02*
X8Y769D01*
X977Y769D02*
X984Y769D01*
X1Y768D02*
X8Y768D01*
X977Y768D02*
X984Y768D01*
X1Y767D02*
X8Y767D01*
X977Y767D02*
X984Y767D01*
X1Y766D02*
X8Y766D01*
X977Y766D02*
X984Y766D01*
X1Y765D02*
X8Y765D01*
X977Y765D02*
X984Y765D01*
X1Y764D02*
X8Y764D01*
X977Y764D02*
X984Y764D01*
X1Y763D02*
X8Y763D01*
X977Y763D02*
X984Y763D01*
X1Y762D02*
X8Y762D01*
X977Y762D02*
X984Y762D01*
X1Y761D02*
X8Y761D01*
X977Y761D02*
X984Y761D01*
X1Y760D02*
X8Y760D01*
X977Y760D02*
X984Y760D01*
X1Y759D02*
X8Y759D01*
X977Y759D02*
X984Y759D01*
X1Y758D02*
X8Y758D01*
X977Y758D02*
X984Y758D01*
X1Y757D02*
X8Y757D01*
X977Y757D02*
X984Y757D01*
X1Y756D02*
X8Y756D01*
X977Y756D02*
X984Y756D01*
X1Y755D02*
X8Y755D01*
X977Y755D02*
X984Y755D01*
X1Y754D02*
X8Y754D01*
X977Y754D02*
X984Y754D01*
X1Y753D02*
X8Y753D01*
X977Y753D02*
X984Y753D01*
X1Y752D02*
X8Y752D01*
X977Y752D02*
X984Y752D01*
X1Y751D02*
X8Y751D01*
X977Y751D02*
X984Y751D01*
X1Y750D02*
X8Y750D01*
X977Y750D02*
X984Y750D01*
X1Y749D02*
X8Y749D01*
X977Y749D02*
X984Y749D01*
X1Y748D02*
X8Y748D01*
X977Y748D02*
X984Y748D01*
X1Y747D02*
X8Y747D01*
X977Y747D02*
X984Y747D01*
X1Y746D02*
X8Y746D01*
X977Y746D02*
X984Y746D01*
X1Y745D02*
X8Y745D01*
X977Y745D02*
X984Y745D01*
X1Y744D02*
X8Y744D01*
X977Y744D02*
X984Y744D01*
X1Y743D02*
X8Y743D01*
X977Y743D02*
X984Y743D01*
X1Y742D02*
X8Y742D01*
X977Y742D02*
X984Y742D01*
X1Y741D02*
X8Y741D01*
X977Y741D02*
X984Y741D01*
X1Y740D02*
X8Y740D01*
X977Y740D02*
X984Y740D01*
X1Y739D02*
X8Y739D01*
X977Y739D02*
X984Y739D01*
X1Y738D02*
X8Y738D01*
X977Y738D02*
X984Y738D01*
X1Y737D02*
X8Y737D01*
X977Y737D02*
X984Y737D01*
X1Y736D02*
X8Y736D01*
X977Y736D02*
X984Y736D01*
X1Y735D02*
X8Y735D01*
X977Y735D02*
X984Y735D01*
X1Y734D02*
X8Y734D01*
X977Y734D02*
X984Y734D01*
X1Y733D02*
X8Y733D01*
X977Y733D02*
X984Y733D01*
X1Y732D02*
X8Y732D01*
X977Y732D02*
X984Y732D01*
X1Y731D02*
X8Y731D01*
X977Y731D02*
X984Y731D01*
X1Y730D02*
X8Y730D01*
X977Y730D02*
X984Y730D01*
X1Y729D02*
X8Y729D01*
X977Y729D02*
X984Y729D01*
X1Y728D02*
X8Y728D01*
X977Y728D02*
X984Y728D01*
X1Y727D02*
X8Y727D01*
X977Y727D02*
X984Y727D01*
X1Y726D02*
X8Y726D01*
X977Y726D02*
X984Y726D01*
X1Y725D02*
X8Y725D01*
X977Y725D02*
X984Y725D01*
X1Y724D02*
X8Y724D01*
X977Y724D02*
X984Y724D01*
X1Y723D02*
X8Y723D01*
X977Y723D02*
X984Y723D01*
X1Y722D02*
X8Y722D01*
X977Y722D02*
X984Y722D01*
X1Y721D02*
X8Y721D01*
X977Y721D02*
X984Y721D01*
X1Y720D02*
X8Y720D01*
X977Y720D02*
X984Y720D01*
X1Y719D02*
X8Y719D01*
X977Y719D02*
X984Y719D01*
X1Y718D02*
X8Y718D01*
X977Y718D02*
X984Y718D01*
X1Y717D02*
X8Y717D01*
X977Y717D02*
X984Y717D01*
X1Y716D02*
X8Y716D01*
X977Y716D02*
X984Y716D01*
X1Y715D02*
X8Y715D01*
X977Y715D02*
X984Y715D01*
X1Y714D02*
X8Y714D01*
X977Y714D02*
X984Y714D01*
X1Y713D02*
X8Y713D01*
X977Y713D02*
X984Y713D01*
X1Y712D02*
X8Y712D01*
X977Y712D02*
X984Y712D01*
X1Y711D02*
X8Y711D01*
X977Y711D02*
X984Y711D01*
X1Y710D02*
X8Y710D01*
X977Y710D02*
X984Y710D01*
X1Y709D02*
X8Y709D01*
X977Y709D02*
X984Y709D01*
X1Y708D02*
X8Y708D01*
X977Y708D02*
X984Y708D01*
X1Y707D02*
X8Y707D01*
X977Y707D02*
X984Y707D01*
X1Y706D02*
X8Y706D01*
X977Y706D02*
X984Y706D01*
X1Y705D02*
X8Y705D01*
X977Y705D02*
X984Y705D01*
X1Y704D02*
X8Y704D01*
X977Y704D02*
X984Y704D01*
X1Y703D02*
X8Y703D01*
X977Y703D02*
X984Y703D01*
X1Y702D02*
X8Y702D01*
X977Y702D02*
X984Y702D01*
X1Y701D02*
X8Y701D01*
X977Y701D02*
X984Y701D01*
X1Y700D02*
X8Y700D01*
X977Y700D02*
X984Y700D01*
X1Y699D02*
X8Y699D01*
X977Y699D02*
X984Y699D01*
X1Y698D02*
X8Y698D01*
X977Y698D02*
X984Y698D01*
X1Y697D02*
X8Y697D01*
X977Y697D02*
X984Y697D01*
X1Y696D02*
X8Y696D01*
X977Y696D02*
X984Y696D01*
X1Y695D02*
X8Y695D01*
X977Y695D02*
X984Y695D01*
X1Y694D02*
X8Y694D01*
X977Y694D02*
X984Y694D01*
X1Y693D02*
X8Y693D01*
X977Y693D02*
X984Y693D01*
X1Y692D02*
X8Y692D01*
X977Y692D02*
X984Y692D01*
X1Y691D02*
X8Y691D01*
X977Y691D02*
X984Y691D01*
X1Y690D02*
X8Y690D01*
X977Y690D02*
X984Y690D01*
X1Y689D02*
X8Y689D01*
X977Y689D02*
X984Y689D01*
X1Y688D02*
X8Y688D01*
X977Y688D02*
X984Y688D01*
X1Y687D02*
X8Y687D01*
X977Y687D02*
X984Y687D01*
X1Y686D02*
X8Y686D01*
X977Y686D02*
X984Y686D01*
X1Y685D02*
X8Y685D01*
X977Y685D02*
X984Y685D01*
X1Y684D02*
X8Y684D01*
X977Y684D02*
X984Y684D01*
X1Y683D02*
X8Y683D01*
X977Y683D02*
X984Y683D01*
X1Y682D02*
X8Y682D01*
X977Y682D02*
X984Y682D01*
X1Y681D02*
X8Y681D01*
X977Y681D02*
X984Y681D01*
X1Y680D02*
X8Y680D01*
X977Y680D02*
X984Y680D01*
X1Y679D02*
X8Y679D01*
X977Y679D02*
X984Y679D01*
X1Y678D02*
X8Y678D01*
X977Y678D02*
X984Y678D01*
X1Y677D02*
X8Y677D01*
X977Y677D02*
X984Y677D01*
X1Y676D02*
X8Y676D01*
X977Y676D02*
X984Y676D01*
X1Y675D02*
X8Y675D01*
X977Y675D02*
X984Y675D01*
X1Y674D02*
X8Y674D01*
X977Y674D02*
X984Y674D01*
X1Y673D02*
X8Y673D01*
X977Y673D02*
X984Y673D01*
X1Y672D02*
X8Y672D01*
X977Y672D02*
X984Y672D01*
X1Y671D02*
X8Y671D01*
X977Y671D02*
X984Y671D01*
X1Y670D02*
X8Y670D01*
X977Y670D02*
X984Y670D01*
X1Y669D02*
X8Y669D01*
X977Y669D02*
X984Y669D01*
X1Y668D02*
X8Y668D01*
X977Y668D02*
X984Y668D01*
X1Y667D02*
X8Y667D01*
X977Y667D02*
X984Y667D01*
X1Y666D02*
X8Y666D01*
X977Y666D02*
X984Y666D01*
X1Y665D02*
X8Y665D01*
X977Y665D02*
X984Y665D01*
X1Y664D02*
X8Y664D01*
X977Y664D02*
X984Y664D01*
X1Y663D02*
X8Y663D01*
X977Y663D02*
X984Y663D01*
X1Y662D02*
X8Y662D01*
X977Y662D02*
X984Y662D01*
X1Y661D02*
X8Y661D01*
X387Y661D02*
X391Y661D01*
X977Y661D02*
X984Y661D01*
X1Y660D02*
X8Y660D01*
X385Y660D02*
X393Y660D01*
X977Y660D02*
X984Y660D01*
X1Y659D02*
X8Y659D01*
X384Y659D02*
X394Y659D01*
X977Y659D02*
X984Y659D01*
X1Y658D02*
X8Y658D01*
X382Y658D02*
X396Y658D01*
X451Y658D02*
X453Y658D01*
X977Y658D02*
X984Y658D01*
X1Y657D02*
X8Y657D01*
X380Y657D02*
X388Y657D01*
X390Y657D02*
X397Y657D01*
X450Y657D02*
X453Y657D01*
X977Y657D02*
X984Y657D01*
X1Y656D02*
X8Y656D01*
X379Y656D02*
X386Y656D01*
X392Y656D02*
X399Y656D01*
X448Y656D02*
X454Y656D01*
X977Y656D02*
X984Y656D01*
X1Y655D02*
X8Y655D01*
X379Y655D02*
X384Y655D01*
X394Y655D02*
X400Y655D01*
X446Y655D02*
X455Y655D01*
X977Y655D02*
X984Y655D01*
X1Y654D02*
X8Y654D01*
X379Y654D02*
X383Y654D01*
X395Y654D02*
X401Y654D01*
X444Y654D02*
X449Y654D01*
X453Y654D02*
X455Y654D01*
X977Y654D02*
X984Y654D01*
X1Y653D02*
X8Y653D01*
X380Y653D02*
X381Y653D01*
X397Y653D02*
X402Y653D01*
X443Y653D02*
X447Y653D01*
X453Y653D02*
X456Y653D01*
X977Y653D02*
X984Y653D01*
X1Y652D02*
X8Y652D01*
X398Y652D02*
X403Y652D01*
X441Y652D02*
X446Y652D01*
X454Y652D02*
X456Y652D01*
X977Y652D02*
X984Y652D01*
X1Y651D02*
X8Y651D01*
X399Y651D02*
X403Y651D01*
X439Y651D02*
X444Y651D01*
X454Y651D02*
X457Y651D01*
X977Y651D02*
X984Y651D01*
X1Y650D02*
X8Y650D01*
X368Y650D02*
X369Y650D01*
X400Y650D02*
X404Y650D01*
X437Y650D02*
X442Y650D01*
X455Y650D02*
X457Y650D01*
X977Y650D02*
X984Y650D01*
X1Y649D02*
X8Y649D01*
X366Y649D02*
X370Y649D01*
X401Y649D02*
X404Y649D01*
X436Y649D02*
X441Y649D01*
X456Y649D02*
X458Y649D01*
X977Y649D02*
X984Y649D01*
X1Y648D02*
X8Y648D01*
X365Y648D02*
X370Y648D01*
X401Y648D02*
X404Y648D01*
X434Y648D02*
X439Y648D01*
X456Y648D02*
X459Y648D01*
X977Y648D02*
X984Y648D01*
X1Y647D02*
X8Y647D01*
X363Y647D02*
X370Y647D01*
X401Y647D02*
X404Y647D01*
X432Y647D02*
X437Y647D01*
X457Y647D02*
X459Y647D01*
X977Y647D02*
X984Y647D01*
X1Y646D02*
X8Y646D01*
X361Y646D02*
X369Y646D01*
X401Y646D02*
X404Y646D01*
X431Y646D02*
X435Y646D01*
X457Y646D02*
X460Y646D01*
X977Y646D02*
X984Y646D01*
X1Y645D02*
X8Y645D01*
X359Y645D02*
X367Y645D01*
X401Y645D02*
X405Y645D01*
X429Y645D02*
X434Y645D01*
X458Y645D02*
X460Y645D01*
X977Y645D02*
X984Y645D01*
X1Y644D02*
X8Y644D01*
X358Y644D02*
X365Y644D01*
X401Y644D02*
X405Y644D01*
X427Y644D02*
X432Y644D01*
X459Y644D02*
X461Y644D01*
X977Y644D02*
X984Y644D01*
X1Y643D02*
X8Y643D01*
X356Y643D02*
X363Y643D01*
X401Y643D02*
X405Y643D01*
X425Y643D02*
X430Y643D01*
X459Y643D02*
X461Y643D01*
X977Y643D02*
X984Y643D01*
X1Y642D02*
X8Y642D01*
X355Y642D02*
X362Y642D01*
X401Y642D02*
X405Y642D01*
X424Y642D02*
X428Y642D01*
X460Y642D02*
X462Y642D01*
X977Y642D02*
X984Y642D01*
X1Y641D02*
X8Y641D01*
X354Y641D02*
X360Y641D01*
X401Y641D02*
X405Y641D01*
X422Y641D02*
X427Y641D01*
X460Y641D02*
X463Y641D01*
X977Y641D02*
X984Y641D01*
X1Y640D02*
X8Y640D01*
X354Y640D02*
X358Y640D01*
X401Y640D02*
X405Y640D01*
X420Y640D02*
X425Y640D01*
X461Y640D02*
X463Y640D01*
X977Y640D02*
X984Y640D01*
X1Y639D02*
X8Y639D01*
X353Y639D02*
X357Y639D01*
X402Y639D02*
X405Y639D01*
X418Y639D02*
X423Y639D01*
X461Y639D02*
X464Y639D01*
X977Y639D02*
X984Y639D01*
X1Y638D02*
X8Y638D01*
X354Y638D02*
X357Y638D01*
X402Y638D02*
X405Y638D01*
X417Y638D02*
X421Y638D01*
X462Y638D02*
X464Y638D01*
X977Y638D02*
X984Y638D01*
X1Y637D02*
X8Y637D01*
X354Y637D02*
X358Y637D01*
X375Y637D02*
X375Y637D01*
X401Y637D02*
X405Y637D01*
X415Y637D02*
X420Y637D01*
X463Y637D02*
X465Y637D01*
X977Y637D02*
X984Y637D01*
X1Y636D02*
X8Y636D01*
X354Y636D02*
X358Y636D01*
X372Y636D02*
X377Y636D01*
X400Y636D02*
X405Y636D01*
X413Y636D02*
X418Y636D01*
X463Y636D02*
X465Y636D01*
X977Y636D02*
X984Y636D01*
X1Y635D02*
X8Y635D01*
X355Y635D02*
X359Y635D01*
X370Y635D02*
X378Y635D01*
X399Y635D02*
X404Y635D01*
X412Y635D02*
X416Y635D01*
X464Y635D02*
X466Y635D01*
X977Y635D02*
X984Y635D01*
X1Y634D02*
X8Y634D01*
X356Y634D02*
X359Y634D01*
X369Y634D02*
X379Y634D01*
X397Y634D02*
X403Y634D01*
X410Y634D02*
X415Y634D01*
X464Y634D02*
X467Y634D01*
X977Y634D02*
X984Y634D01*
X1Y633D02*
X8Y633D01*
X356Y633D02*
X360Y633D01*
X367Y633D02*
X379Y633D01*
X395Y633D02*
X402Y633D01*
X408Y633D02*
X413Y633D01*
X465Y633D02*
X467Y633D01*
X977Y633D02*
X984Y633D01*
X1Y632D02*
X8Y632D01*
X357Y632D02*
X361Y632D01*
X365Y632D02*
X373Y632D01*
X376Y632D02*
X380Y632D01*
X394Y632D02*
X401Y632D01*
X406Y632D02*
X411Y632D01*
X465Y632D02*
X468Y632D01*
X977Y632D02*
X984Y632D01*
X1Y631D02*
X8Y631D01*
X357Y631D02*
X361Y631D01*
X364Y631D02*
X371Y631D01*
X376Y631D02*
X380Y631D01*
X393Y631D02*
X399Y631D01*
X405Y631D02*
X409Y631D01*
X466Y631D02*
X468Y631D01*
X977Y631D02*
X984Y631D01*
X1Y630D02*
X8Y630D01*
X358Y630D02*
X369Y630D01*
X377Y630D02*
X381Y630D01*
X393Y630D02*
X397Y630D01*
X403Y630D02*
X408Y630D01*
X467Y630D02*
X469Y630D01*
X977Y630D02*
X984Y630D01*
X1Y629D02*
X8Y629D01*
X359Y629D02*
X367Y629D01*
X378Y629D02*
X381Y629D01*
X393Y629D02*
X396Y629D01*
X401Y629D02*
X406Y629D01*
X467Y629D02*
X470Y629D01*
X977Y629D02*
X984Y629D01*
X1Y628D02*
X8Y628D01*
X359Y628D02*
X366Y628D01*
X378Y628D02*
X382Y628D01*
X399Y628D02*
X404Y628D01*
X468Y628D02*
X470Y628D01*
X977Y628D02*
X984Y628D01*
X1Y627D02*
X8Y627D01*
X360Y627D02*
X364Y627D01*
X379Y627D02*
X383Y627D01*
X398Y627D02*
X402Y627D01*
X468Y627D02*
X471Y627D01*
X977Y627D02*
X984Y627D01*
X1Y626D02*
X8Y626D01*
X379Y626D02*
X383Y626D01*
X396Y626D02*
X402Y626D01*
X469Y626D02*
X471Y626D01*
X977Y626D02*
X984Y626D01*
X1Y625D02*
X8Y625D01*
X380Y625D02*
X384Y625D01*
X394Y625D02*
X401Y625D01*
X470Y625D02*
X472Y625D01*
X977Y625D02*
X984Y625D01*
X1Y624D02*
X8Y624D01*
X380Y624D02*
X384Y624D01*
X392Y624D02*
X399Y624D01*
X470Y624D02*
X472Y624D01*
X977Y624D02*
X984Y624D01*
X1Y623D02*
X8Y623D01*
X378Y623D02*
X385Y623D01*
X391Y623D02*
X398Y623D01*
X471Y623D02*
X473Y623D01*
X977Y623D02*
X984Y623D01*
X1Y622D02*
X8Y622D01*
X376Y622D02*
X384Y622D01*
X389Y622D02*
X396Y622D01*
X471Y622D02*
X474Y622D01*
X977Y622D02*
X984Y622D01*
X1Y621D02*
X8Y621D01*
X374Y621D02*
X382Y621D01*
X387Y621D02*
X392Y621D01*
X472Y621D02*
X474Y621D01*
X977Y621D02*
X984Y621D01*
X1Y620D02*
X8Y620D01*
X373Y620D02*
X380Y620D01*
X386Y620D02*
X390Y620D01*
X472Y620D02*
X475Y620D01*
X977Y620D02*
X984Y620D01*
X1Y619D02*
X8Y619D01*
X371Y619D02*
X378Y619D01*
X384Y619D02*
X389Y619D01*
X473Y619D02*
X475Y619D01*
X977Y619D02*
X984Y619D01*
X1Y618D02*
X8Y618D01*
X369Y618D02*
X377Y618D01*
X382Y618D02*
X387Y618D01*
X474Y618D02*
X476Y618D01*
X977Y618D02*
X984Y618D01*
X1Y617D02*
X8Y617D01*
X368Y617D02*
X375Y617D01*
X380Y617D02*
X385Y617D01*
X474Y617D02*
X476Y617D01*
X977Y617D02*
X984Y617D01*
X1Y616D02*
X8Y616D01*
X367Y616D02*
X373Y616D01*
X379Y616D02*
X383Y616D01*
X475Y616D02*
X477Y616D01*
X977Y616D02*
X984Y616D01*
X1Y615D02*
X8Y615D01*
X367Y615D02*
X372Y615D01*
X377Y615D02*
X382Y615D01*
X475Y615D02*
X478Y615D01*
X977Y615D02*
X984Y615D01*
X1Y614D02*
X8Y614D01*
X367Y614D02*
X370Y614D01*
X375Y614D02*
X380Y614D01*
X476Y614D02*
X478Y614D01*
X977Y614D02*
X984Y614D01*
X1Y613D02*
X8Y613D01*
X373Y613D02*
X378Y613D01*
X476Y613D02*
X479Y613D01*
X977Y613D02*
X984Y613D01*
X1Y612D02*
X8Y612D01*
X372Y612D02*
X376Y612D01*
X477Y612D02*
X479Y612D01*
X977Y612D02*
X984Y612D01*
X1Y611D02*
X8Y611D01*
X370Y611D02*
X375Y611D01*
X478Y611D02*
X480Y611D01*
X977Y611D02*
X984Y611D01*
X1Y610D02*
X8Y610D01*
X368Y610D02*
X373Y610D01*
X478Y610D02*
X480Y610D01*
X977Y610D02*
X984Y610D01*
X1Y609D02*
X8Y609D01*
X366Y609D02*
X371Y609D01*
X478Y609D02*
X481Y609D01*
X977Y609D02*
X984Y609D01*
X1Y608D02*
X8Y608D01*
X365Y608D02*
X370Y608D01*
X477Y608D02*
X481Y608D01*
X977Y608D02*
X984Y608D01*
X1Y607D02*
X8Y607D01*
X363Y607D02*
X368Y607D01*
X475Y607D02*
X480Y607D01*
X977Y607D02*
X984Y607D01*
X1Y606D02*
X8Y606D01*
X361Y606D02*
X366Y606D01*
X474Y606D02*
X478Y606D01*
X977Y606D02*
X984Y606D01*
X1Y605D02*
X8Y605D01*
X360Y605D02*
X364Y605D01*
X472Y605D02*
X477Y605D01*
X977Y605D02*
X984Y605D01*
X1Y604D02*
X8Y604D01*
X358Y604D02*
X363Y604D01*
X470Y604D02*
X475Y604D01*
X977Y604D02*
X984Y604D01*
X1Y603D02*
X8Y603D01*
X356Y603D02*
X361Y603D01*
X468Y603D02*
X473Y603D01*
X977Y603D02*
X984Y603D01*
X1Y602D02*
X8Y602D01*
X354Y602D02*
X359Y602D01*
X467Y602D02*
X471Y602D01*
X977Y602D02*
X984Y602D01*
X1Y601D02*
X8Y601D01*
X353Y601D02*
X357Y601D01*
X465Y601D02*
X470Y601D01*
X977Y601D02*
X984Y601D01*
X1Y600D02*
X8Y600D01*
X351Y600D02*
X356Y600D01*
X463Y600D02*
X468Y600D01*
X977Y600D02*
X984Y600D01*
X1Y599D02*
X8Y599D01*
X349Y599D02*
X354Y599D01*
X462Y599D02*
X466Y599D01*
X977Y599D02*
X984Y599D01*
X1Y598D02*
X8Y598D01*
X347Y598D02*
X352Y598D01*
X460Y598D02*
X465Y598D01*
X977Y598D02*
X984Y598D01*
X1Y597D02*
X8Y597D01*
X346Y597D02*
X350Y597D01*
X458Y597D02*
X463Y597D01*
X977Y597D02*
X984Y597D01*
X1Y596D02*
X8Y596D01*
X344Y596D02*
X349Y596D01*
X456Y596D02*
X461Y596D01*
X977Y596D02*
X984Y596D01*
X1Y595D02*
X8Y595D01*
X342Y595D02*
X347Y595D01*
X455Y595D02*
X459Y595D01*
X977Y595D02*
X984Y595D01*
X1Y594D02*
X8Y594D01*
X341Y594D02*
X345Y594D01*
X453Y594D02*
X458Y594D01*
X977Y594D02*
X984Y594D01*
X1Y593D02*
X8Y593D01*
X341Y593D02*
X344Y593D01*
X451Y593D02*
X456Y593D01*
X977Y593D02*
X984Y593D01*
X1Y592D02*
X8Y592D01*
X342Y592D02*
X344Y592D01*
X449Y592D02*
X454Y592D01*
X977Y592D02*
X984Y592D01*
X1Y591D02*
X8Y591D01*
X342Y591D02*
X345Y591D01*
X448Y591D02*
X452Y591D01*
X977Y591D02*
X984Y591D01*
X1Y590D02*
X8Y590D01*
X343Y590D02*
X345Y590D01*
X446Y590D02*
X451Y590D01*
X977Y590D02*
X984Y590D01*
X1Y589D02*
X8Y589D01*
X344Y589D02*
X346Y589D01*
X444Y589D02*
X449Y589D01*
X977Y589D02*
X984Y589D01*
X1Y588D02*
X8Y588D01*
X344Y588D02*
X347Y588D01*
X442Y588D02*
X447Y588D01*
X977Y588D02*
X984Y588D01*
X1Y587D02*
X8Y587D01*
X345Y587D02*
X347Y587D01*
X441Y587D02*
X445Y587D01*
X977Y587D02*
X984Y587D01*
X1Y586D02*
X8Y586D01*
X345Y586D02*
X348Y586D01*
X439Y586D02*
X444Y586D01*
X977Y586D02*
X984Y586D01*
X1Y585D02*
X8Y585D01*
X346Y585D02*
X348Y585D01*
X437Y585D02*
X442Y585D01*
X977Y585D02*
X984Y585D01*
X1Y584D02*
X8Y584D01*
X347Y584D02*
X349Y584D01*
X436Y584D02*
X440Y584D01*
X977Y584D02*
X984Y584D01*
X1Y583D02*
X8Y583D01*
X347Y583D02*
X349Y583D01*
X434Y583D02*
X439Y583D01*
X977Y583D02*
X984Y583D01*
X1Y582D02*
X8Y582D01*
X348Y582D02*
X350Y582D01*
X432Y582D02*
X437Y582D01*
X977Y582D02*
X984Y582D01*
X1Y581D02*
X8Y581D01*
X348Y581D02*
X351Y581D01*
X428Y581D02*
X428Y581D01*
X430Y581D02*
X435Y581D01*
X977Y581D02*
X984Y581D01*
X1Y580D02*
X8Y580D01*
X349Y580D02*
X351Y580D01*
X426Y580D02*
X433Y580D01*
X977Y580D02*
X984Y580D01*
X1Y579D02*
X8Y579D01*
X349Y579D02*
X352Y579D01*
X425Y579D02*
X432Y579D01*
X977Y579D02*
X984Y579D01*
X1Y578D02*
X8Y578D01*
X350Y578D02*
X352Y578D01*
X423Y578D02*
X430Y578D01*
X977Y578D02*
X984Y578D01*
X1Y577D02*
X8Y577D01*
X351Y577D02*
X353Y577D01*
X421Y577D02*
X428Y577D01*
X977Y577D02*
X984Y577D01*
X1Y576D02*
X8Y576D01*
X351Y576D02*
X353Y576D01*
X421Y576D02*
X426Y576D01*
X977Y576D02*
X984Y576D01*
X1Y575D02*
X8Y575D01*
X352Y575D02*
X354Y575D01*
X420Y575D02*
X425Y575D01*
X977Y575D02*
X984Y575D01*
X1Y574D02*
X8Y574D01*
X352Y574D02*
X355Y574D01*
X418Y574D02*
X423Y574D01*
X977Y574D02*
X984Y574D01*
X1Y573D02*
X8Y573D01*
X353Y573D02*
X355Y573D01*
X416Y573D02*
X421Y573D01*
X977Y573D02*
X984Y573D01*
X1Y572D02*
X8Y572D01*
X353Y572D02*
X356Y572D01*
X415Y572D02*
X419Y572D01*
X977Y572D02*
X984Y572D01*
X1Y571D02*
X8Y571D01*
X354Y571D02*
X356Y571D01*
X413Y571D02*
X418Y571D01*
X977Y571D02*
X984Y571D01*
X1Y570D02*
X8Y570D01*
X355Y570D02*
X357Y570D01*
X411Y570D02*
X416Y570D01*
X977Y570D02*
X984Y570D01*
X1Y569D02*
X8Y569D01*
X355Y569D02*
X357Y569D01*
X410Y569D02*
X414Y569D01*
X977Y569D02*
X984Y569D01*
X1Y568D02*
X8Y568D01*
X356Y568D02*
X358Y568D01*
X408Y568D02*
X413Y568D01*
X977Y568D02*
X984Y568D01*
X1Y567D02*
X8Y567D01*
X356Y567D02*
X359Y567D01*
X406Y567D02*
X411Y567D01*
X977Y567D02*
X984Y567D01*
X1Y566D02*
X8Y566D01*
X357Y566D02*
X359Y566D01*
X404Y566D02*
X409Y566D01*
X977Y566D02*
X984Y566D01*
X1Y565D02*
X8Y565D01*
X357Y565D02*
X360Y565D01*
X403Y565D02*
X407Y565D01*
X977Y565D02*
X984Y565D01*
X1Y564D02*
X8Y564D01*
X358Y564D02*
X360Y564D01*
X401Y564D02*
X406Y564D01*
X977Y564D02*
X984Y564D01*
X1Y563D02*
X8Y563D01*
X359Y563D02*
X361Y563D01*
X399Y563D02*
X404Y563D01*
X977Y563D02*
X984Y563D01*
X1Y562D02*
X8Y562D01*
X359Y562D02*
X362Y562D01*
X397Y562D02*
X402Y562D01*
X977Y562D02*
X984Y562D01*
X1Y561D02*
X8Y561D01*
X360Y561D02*
X362Y561D01*
X396Y561D02*
X400Y561D01*
X977Y561D02*
X984Y561D01*
X1Y560D02*
X8Y560D01*
X360Y560D02*
X363Y560D01*
X394Y560D02*
X399Y560D01*
X977Y560D02*
X984Y560D01*
X1Y559D02*
X8Y559D01*
X361Y559D02*
X363Y559D01*
X392Y559D02*
X397Y559D01*
X977Y559D02*
X984Y559D01*
X1Y558D02*
X8Y558D01*
X362Y558D02*
X364Y558D01*
X391Y558D02*
X395Y558D01*
X977Y558D02*
X984Y558D01*
X1Y557D02*
X8Y557D01*
X362Y557D02*
X364Y557D01*
X389Y557D02*
X394Y557D01*
X977Y557D02*
X984Y557D01*
X1Y556D02*
X8Y556D01*
X363Y556D02*
X365Y556D01*
X387Y556D02*
X392Y556D01*
X977Y556D02*
X984Y556D01*
X1Y555D02*
X8Y555D01*
X363Y555D02*
X366Y555D01*
X385Y555D02*
X390Y555D01*
X977Y555D02*
X984Y555D01*
X1Y554D02*
X8Y554D01*
X364Y554D02*
X366Y554D01*
X384Y554D02*
X388Y554D01*
X977Y554D02*
X984Y554D01*
X1Y553D02*
X8Y553D01*
X364Y553D02*
X367Y553D01*
X382Y553D02*
X387Y553D01*
X977Y553D02*
X984Y553D01*
X1Y552D02*
X8Y552D01*
X365Y552D02*
X367Y552D01*
X380Y552D02*
X385Y552D01*
X977Y552D02*
X984Y552D01*
X1Y551D02*
X8Y551D01*
X366Y551D02*
X368Y551D01*
X378Y551D02*
X383Y551D01*
X977Y551D02*
X984Y551D01*
X1Y550D02*
X8Y550D01*
X366Y550D02*
X368Y550D01*
X377Y550D02*
X381Y550D01*
X977Y550D02*
X984Y550D01*
X1Y549D02*
X8Y549D01*
X367Y549D02*
X369Y549D01*
X375Y549D02*
X380Y549D01*
X977Y549D02*
X984Y549D01*
X1Y548D02*
X8Y548D01*
X367Y548D02*
X370Y548D01*
X373Y548D02*
X378Y548D01*
X977Y548D02*
X984Y548D01*
X1Y547D02*
X8Y547D01*
X368Y547D02*
X376Y547D01*
X977Y547D02*
X984Y547D01*
X1Y546D02*
X8Y546D01*
X977Y546D02*
X984Y546D01*
X1Y545D02*
X8Y545D01*
X977Y545D02*
X984Y545D01*
X1Y544D02*
X8Y544D01*
X977Y544D02*
X984Y544D01*
X1Y543D02*
X8Y543D01*
X977Y543D02*
X984Y543D01*
X1Y542D02*
X8Y542D01*
X977Y542D02*
X984Y542D01*
X1Y541D02*
X8Y541D01*
X319Y541D02*
X322Y541D01*
X977Y541D02*
X984Y541D01*
X1Y540D02*
X8Y540D01*
X318Y540D02*
X323Y540D01*
X977Y540D02*
X984Y540D01*
X1Y539D02*
X8Y539D01*
X318Y539D02*
X323Y539D01*
X977Y539D02*
X984Y539D01*
X1Y538D02*
X8Y538D01*
X318Y538D02*
X323Y538D01*
X977Y538D02*
X984Y538D01*
X1Y537D02*
X8Y537D01*
X318Y537D02*
X323Y537D01*
X977Y537D02*
X984Y537D01*
X1Y536D02*
X8Y536D01*
X318Y536D02*
X323Y536D01*
X977Y536D02*
X984Y536D01*
X1Y535D02*
X8Y535D01*
X319Y535D02*
X323Y535D01*
X977Y535D02*
X984Y535D01*
X1Y534D02*
X8Y534D01*
X320Y534D02*
X321Y534D01*
X977Y534D02*
X984Y534D01*
X1Y533D02*
X8Y533D01*
X977Y533D02*
X984Y533D01*
X1Y532D02*
X8Y532D01*
X977Y532D02*
X984Y532D01*
X1Y531D02*
X8Y531D01*
X977Y531D02*
X984Y531D01*
X1Y530D02*
X8Y530D01*
X977Y530D02*
X984Y530D01*
X1Y529D02*
X8Y529D01*
X478Y529D02*
X481Y529D01*
X977Y529D02*
X984Y529D01*
X1Y528D02*
X8Y528D01*
X476Y528D02*
X482Y528D01*
X977Y528D02*
X984Y528D01*
X1Y527D02*
X8Y527D01*
X474Y527D02*
X483Y527D01*
X977Y527D02*
X984Y527D01*
X1Y526D02*
X8Y526D01*
X473Y526D02*
X484Y526D01*
X977Y526D02*
X984Y526D01*
X1Y525D02*
X8Y525D01*
X473Y525D02*
X485Y525D01*
X977Y525D02*
X984Y525D01*
X1Y524D02*
X8Y524D01*
X472Y524D02*
X486Y524D01*
X977Y524D02*
X984Y524D01*
X1Y523D02*
X8Y523D01*
X472Y523D02*
X487Y523D01*
X977Y523D02*
X984Y523D01*
X1Y522D02*
X8Y522D01*
X472Y522D02*
X488Y522D01*
X977Y522D02*
X984Y522D01*
X1Y521D02*
X8Y521D01*
X472Y521D02*
X488Y521D01*
X977Y521D02*
X984Y521D01*
X1Y520D02*
X8Y520D01*
X472Y520D02*
X488Y520D01*
X977Y520D02*
X984Y520D01*
X1Y519D02*
X8Y519D01*
X472Y519D02*
X488Y519D01*
X977Y519D02*
X984Y519D01*
X1Y518D02*
X8Y518D01*
X472Y518D02*
X487Y518D01*
X977Y518D02*
X984Y518D01*
X1Y517D02*
X8Y517D01*
X472Y517D02*
X487Y517D01*
X977Y517D02*
X984Y517D01*
X1Y516D02*
X8Y516D01*
X473Y516D02*
X486Y516D01*
X977Y516D02*
X984Y516D01*
X1Y515D02*
X8Y515D01*
X474Y515D02*
X486Y515D01*
X977Y515D02*
X984Y515D01*
X1Y514D02*
X8Y514D01*
X267Y514D02*
X280Y514D01*
X298Y514D02*
X315Y514D01*
X475Y514D02*
X485Y514D01*
X977Y514D02*
X984Y514D01*
X1Y513D02*
X8Y513D01*
X267Y513D02*
X281Y513D01*
X298Y513D02*
X316Y513D01*
X325Y513D02*
X401Y513D01*
X476Y513D02*
X483Y513D01*
X977Y513D02*
X984Y513D01*
X1Y512D02*
X8Y512D01*
X267Y512D02*
X282Y512D01*
X298Y512D02*
X317Y512D01*
X325Y512D02*
X326Y512D01*
X399Y512D02*
X401Y512D01*
X977Y512D02*
X984Y512D01*
X1Y511D02*
X8Y511D01*
X268Y511D02*
X283Y511D01*
X299Y511D02*
X317Y511D01*
X325Y511D02*
X326Y511D01*
X399Y511D02*
X401Y511D01*
X977Y511D02*
X984Y511D01*
X1Y510D02*
X8Y510D01*
X271Y510D02*
X274Y510D01*
X279Y510D02*
X283Y510D01*
X314Y510D02*
X317Y510D01*
X325Y510D02*
X326Y510D01*
X399Y510D02*
X401Y510D01*
X977Y510D02*
X984Y510D01*
X1Y509D02*
X8Y509D01*
X271Y509D02*
X274Y509D01*
X280Y509D02*
X284Y509D01*
X314Y509D02*
X317Y509D01*
X325Y509D02*
X326Y509D01*
X399Y509D02*
X401Y509D01*
X977Y509D02*
X984Y509D01*
X1Y508D02*
X8Y508D01*
X271Y508D02*
X274Y508D01*
X280Y508D02*
X284Y508D01*
X314Y508D02*
X317Y508D01*
X325Y508D02*
X326Y508D01*
X399Y508D02*
X401Y508D01*
X977Y508D02*
X984Y508D01*
X1Y507D02*
X8Y507D01*
X271Y507D02*
X274Y507D01*
X281Y507D02*
X285Y507D01*
X314Y507D02*
X317Y507D01*
X325Y507D02*
X326Y507D01*
X399Y507D02*
X401Y507D01*
X977Y507D02*
X984Y507D01*
X1Y506D02*
X8Y506D01*
X271Y506D02*
X274Y506D01*
X281Y506D02*
X285Y506D01*
X314Y506D02*
X317Y506D01*
X325Y506D02*
X326Y506D01*
X399Y506D02*
X401Y506D01*
X977Y506D02*
X984Y506D01*
X1Y505D02*
X8Y505D01*
X271Y505D02*
X274Y505D01*
X282Y505D02*
X286Y505D01*
X314Y505D02*
X317Y505D01*
X325Y505D02*
X326Y505D01*
X399Y505D02*
X401Y505D01*
X977Y505D02*
X984Y505D01*
X1Y504D02*
X8Y504D01*
X271Y504D02*
X274Y504D01*
X282Y504D02*
X286Y504D01*
X314Y504D02*
X317Y504D01*
X325Y504D02*
X326Y504D01*
X399Y504D02*
X401Y504D01*
X977Y504D02*
X984Y504D01*
X1Y503D02*
X8Y503D01*
X271Y503D02*
X274Y503D01*
X283Y503D02*
X287Y503D01*
X314Y503D02*
X317Y503D01*
X325Y503D02*
X326Y503D01*
X399Y503D02*
X401Y503D01*
X977Y503D02*
X984Y503D01*
X1Y502D02*
X8Y502D01*
X271Y502D02*
X274Y502D01*
X283Y502D02*
X287Y502D01*
X314Y502D02*
X317Y502D01*
X325Y502D02*
X326Y502D01*
X399Y502D02*
X401Y502D01*
X977Y502D02*
X984Y502D01*
X1Y501D02*
X8Y501D01*
X271Y501D02*
X274Y501D01*
X284Y501D02*
X287Y501D01*
X313Y501D02*
X317Y501D01*
X325Y501D02*
X326Y501D01*
X399Y501D02*
X401Y501D01*
X977Y501D02*
X984Y501D01*
X1Y500D02*
X8Y500D01*
X271Y500D02*
X274Y500D01*
X284Y500D02*
X288Y500D01*
X302Y500D02*
X316Y500D01*
X325Y500D02*
X326Y500D01*
X399Y500D02*
X401Y500D01*
X977Y500D02*
X984Y500D01*
X1Y499D02*
X8Y499D01*
X271Y499D02*
X274Y499D01*
X284Y499D02*
X288Y499D01*
X302Y499D02*
X316Y499D01*
X325Y499D02*
X326Y499D01*
X399Y499D02*
X401Y499D01*
X977Y499D02*
X984Y499D01*
X1Y498D02*
X8Y498D01*
X271Y498D02*
X274Y498D01*
X284Y498D02*
X288Y498D01*
X302Y498D02*
X316Y498D01*
X325Y498D02*
X326Y498D01*
X399Y498D02*
X401Y498D01*
X429Y498D02*
X429Y498D01*
X451Y498D02*
X451Y498D01*
X977Y498D02*
X984Y498D01*
X1Y497D02*
X8Y497D01*
X271Y497D02*
X274Y497D01*
X284Y497D02*
X288Y497D01*
X302Y497D02*
X317Y497D01*
X325Y497D02*
X326Y497D01*
X399Y497D02*
X401Y497D01*
X429Y497D02*
X429Y497D01*
X451Y497D02*
X451Y497D01*
X977Y497D02*
X984Y497D01*
X1Y496D02*
X8Y496D01*
X271Y496D02*
X274Y496D01*
X284Y496D02*
X287Y496D01*
X313Y496D02*
X317Y496D01*
X325Y496D02*
X326Y496D01*
X399Y496D02*
X401Y496D01*
X429Y496D02*
X429Y496D01*
X451Y496D02*
X451Y496D01*
X977Y496D02*
X984Y496D01*
X1Y495D02*
X8Y495D01*
X271Y495D02*
X274Y495D01*
X283Y495D02*
X287Y495D01*
X314Y495D02*
X317Y495D01*
X325Y495D02*
X326Y495D01*
X399Y495D02*
X401Y495D01*
X429Y495D02*
X429Y495D01*
X451Y495D02*
X451Y495D01*
X977Y495D02*
X984Y495D01*
X1Y494D02*
X8Y494D01*
X271Y494D02*
X274Y494D01*
X283Y494D02*
X287Y494D01*
X314Y494D02*
X317Y494D01*
X325Y494D02*
X326Y494D01*
X399Y494D02*
X401Y494D01*
X429Y494D02*
X429Y494D01*
X451Y494D02*
X451Y494D01*
X977Y494D02*
X984Y494D01*
X1Y493D02*
X8Y493D01*
X271Y493D02*
X274Y493D01*
X282Y493D02*
X286Y493D01*
X314Y493D02*
X317Y493D01*
X325Y493D02*
X326Y493D01*
X399Y493D02*
X401Y493D01*
X429Y493D02*
X429Y493D01*
X451Y493D02*
X451Y493D01*
X977Y493D02*
X984Y493D01*
X1Y492D02*
X8Y492D01*
X271Y492D02*
X274Y492D01*
X282Y492D02*
X286Y492D01*
X314Y492D02*
X317Y492D01*
X325Y492D02*
X326Y492D01*
X399Y492D02*
X401Y492D01*
X429Y492D02*
X429Y492D01*
X451Y492D02*
X451Y492D01*
X977Y492D02*
X984Y492D01*
X1Y491D02*
X8Y491D01*
X271Y491D02*
X274Y491D01*
X281Y491D02*
X285Y491D01*
X314Y491D02*
X317Y491D01*
X325Y491D02*
X326Y491D01*
X399Y491D02*
X401Y491D01*
X429Y491D02*
X429Y491D01*
X451Y491D02*
X451Y491D01*
X977Y491D02*
X984Y491D01*
X1Y490D02*
X8Y490D01*
X271Y490D02*
X274Y490D01*
X281Y490D02*
X285Y490D01*
X314Y490D02*
X317Y490D01*
X325Y490D02*
X326Y490D01*
X399Y490D02*
X401Y490D01*
X429Y490D02*
X429Y490D01*
X451Y490D02*
X451Y490D01*
X977Y490D02*
X984Y490D01*
X1Y489D02*
X8Y489D01*
X271Y489D02*
X274Y489D01*
X280Y489D02*
X284Y489D01*
X314Y489D02*
X317Y489D01*
X325Y489D02*
X326Y489D01*
X399Y489D02*
X401Y489D01*
X429Y489D02*
X429Y489D01*
X451Y489D02*
X451Y489D01*
X977Y489D02*
X984Y489D01*
X1Y488D02*
X8Y488D01*
X271Y488D02*
X274Y488D01*
X280Y488D02*
X284Y488D01*
X314Y488D02*
X317Y488D01*
X325Y488D02*
X326Y488D01*
X399Y488D02*
X401Y488D01*
X429Y488D02*
X429Y488D01*
X451Y488D02*
X451Y488D01*
X977Y488D02*
X984Y488D01*
X1Y487D02*
X8Y487D01*
X271Y487D02*
X274Y487D01*
X279Y487D02*
X283Y487D01*
X314Y487D02*
X317Y487D01*
X325Y487D02*
X326Y487D01*
X399Y487D02*
X401Y487D01*
X429Y487D02*
X429Y487D01*
X451Y487D02*
X451Y487D01*
X977Y487D02*
X984Y487D01*
X1Y486D02*
X8Y486D01*
X267Y486D02*
X282Y486D01*
X298Y486D02*
X317Y486D01*
X325Y486D02*
X326Y486D01*
X399Y486D02*
X401Y486D01*
X429Y486D02*
X429Y486D01*
X451Y486D02*
X451Y486D01*
X977Y486D02*
X984Y486D01*
X1Y485D02*
X8Y485D01*
X267Y485D02*
X282Y485D01*
X298Y485D02*
X317Y485D01*
X325Y485D02*
X326Y485D01*
X399Y485D02*
X401Y485D01*
X429Y485D02*
X429Y485D01*
X451Y485D02*
X451Y485D01*
X977Y485D02*
X984Y485D01*
X1Y484D02*
X8Y484D01*
X267Y484D02*
X281Y484D01*
X298Y484D02*
X316Y484D01*
X325Y484D02*
X326Y484D01*
X399Y484D02*
X401Y484D01*
X429Y484D02*
X429Y484D01*
X451Y484D02*
X451Y484D01*
X977Y484D02*
X984Y484D01*
X1Y483D02*
X8Y483D01*
X267Y483D02*
X279Y483D01*
X298Y483D02*
X315Y483D01*
X325Y483D02*
X326Y483D01*
X399Y483D02*
X401Y483D01*
X429Y483D02*
X429Y483D01*
X451Y483D02*
X451Y483D01*
X977Y483D02*
X984Y483D01*
X1Y482D02*
X8Y482D01*
X325Y482D02*
X326Y482D01*
X399Y482D02*
X401Y482D01*
X429Y482D02*
X429Y482D01*
X451Y482D02*
X451Y482D01*
X977Y482D02*
X984Y482D01*
X1Y481D02*
X8Y481D01*
X325Y481D02*
X326Y481D01*
X399Y481D02*
X401Y481D01*
X429Y481D02*
X429Y481D01*
X451Y481D02*
X451Y481D01*
X977Y481D02*
X984Y481D01*
X1Y480D02*
X8Y480D01*
X325Y480D02*
X326Y480D01*
X399Y480D02*
X401Y480D01*
X429Y480D02*
X429Y480D01*
X451Y480D02*
X451Y480D01*
X977Y480D02*
X984Y480D01*
X1Y479D02*
X8Y479D01*
X325Y479D02*
X326Y479D01*
X399Y479D02*
X401Y479D01*
X429Y479D02*
X429Y479D01*
X451Y479D02*
X451Y479D01*
X977Y479D02*
X984Y479D01*
X1Y478D02*
X8Y478D01*
X325Y478D02*
X326Y478D01*
X399Y478D02*
X401Y478D01*
X429Y478D02*
X429Y478D01*
X451Y478D02*
X451Y478D01*
X977Y478D02*
X984Y478D01*
X1Y477D02*
X8Y477D01*
X325Y477D02*
X326Y477D01*
X399Y477D02*
X401Y477D01*
X429Y477D02*
X429Y477D01*
X451Y477D02*
X451Y477D01*
X977Y477D02*
X984Y477D01*
X1Y476D02*
X8Y476D01*
X325Y476D02*
X326Y476D01*
X399Y476D02*
X401Y476D01*
X429Y476D02*
X429Y476D01*
X451Y476D02*
X451Y476D01*
X977Y476D02*
X984Y476D01*
X1Y475D02*
X8Y475D01*
X325Y475D02*
X326Y475D01*
X399Y475D02*
X401Y475D01*
X429Y475D02*
X429Y475D01*
X451Y475D02*
X451Y475D01*
X977Y475D02*
X984Y475D01*
X1Y474D02*
X8Y474D01*
X325Y474D02*
X326Y474D01*
X399Y474D02*
X401Y474D01*
X429Y474D02*
X429Y474D01*
X451Y474D02*
X451Y474D01*
X977Y474D02*
X984Y474D01*
X1Y473D02*
X8Y473D01*
X325Y473D02*
X326Y473D01*
X399Y473D02*
X401Y473D01*
X429Y473D02*
X429Y473D01*
X451Y473D02*
X451Y473D01*
X977Y473D02*
X984Y473D01*
X1Y472D02*
X8Y472D01*
X325Y472D02*
X401Y472D01*
X429Y472D02*
X429Y472D01*
X451Y472D02*
X451Y472D01*
X977Y472D02*
X984Y472D01*
X1Y471D02*
X8Y471D01*
X429Y471D02*
X429Y471D01*
X451Y471D02*
X451Y471D01*
X977Y471D02*
X984Y471D01*
X1Y470D02*
X8Y470D01*
X429Y470D02*
X429Y470D01*
X451Y470D02*
X451Y470D01*
X457Y470D02*
X466Y470D01*
X977Y470D02*
X984Y470D01*
X1Y469D02*
X8Y469D01*
X429Y469D02*
X429Y469D01*
X451Y469D02*
X451Y469D01*
X456Y469D02*
X467Y469D01*
X977Y469D02*
X984Y469D01*
X1Y468D02*
X8Y468D01*
X429Y468D02*
X429Y468D01*
X451Y468D02*
X451Y468D01*
X456Y468D02*
X467Y468D01*
X977Y468D02*
X984Y468D01*
X1Y467D02*
X8Y467D01*
X429Y467D02*
X429Y467D01*
X451Y467D02*
X451Y467D01*
X456Y467D02*
X467Y467D01*
X977Y467D02*
X984Y467D01*
X1Y466D02*
X8Y466D01*
X429Y466D02*
X429Y466D01*
X451Y466D02*
X451Y466D01*
X456Y466D02*
X465Y466D01*
X977Y466D02*
X984Y466D01*
X1Y465D02*
X8Y465D01*
X429Y465D02*
X429Y465D01*
X451Y465D02*
X451Y465D01*
X456Y465D02*
X459Y465D01*
X977Y465D02*
X984Y465D01*
X1Y464D02*
X8Y464D01*
X429Y464D02*
X429Y464D01*
X451Y464D02*
X451Y464D01*
X456Y464D02*
X459Y464D01*
X977Y464D02*
X984Y464D01*
X1Y463D02*
X8Y463D01*
X429Y463D02*
X429Y463D01*
X451Y463D02*
X451Y463D01*
X456Y463D02*
X459Y463D01*
X977Y463D02*
X984Y463D01*
X1Y462D02*
X8Y462D01*
X429Y462D02*
X429Y462D01*
X451Y462D02*
X451Y462D01*
X456Y462D02*
X459Y462D01*
X977Y462D02*
X984Y462D01*
X1Y461D02*
X8Y461D01*
X429Y461D02*
X429Y461D01*
X451Y461D02*
X451Y461D01*
X456Y461D02*
X485Y461D01*
X977Y461D02*
X984Y461D01*
X1Y460D02*
X8Y460D01*
X429Y460D02*
X429Y460D01*
X451Y460D02*
X451Y460D01*
X456Y460D02*
X486Y460D01*
X977Y460D02*
X984Y460D01*
X1Y459D02*
X8Y459D01*
X429Y459D02*
X429Y459D01*
X451Y459D02*
X451Y459D01*
X456Y459D02*
X487Y459D01*
X977Y459D02*
X984Y459D01*
X1Y458D02*
X8Y458D01*
X429Y458D02*
X429Y458D01*
X451Y458D02*
X451Y458D01*
X456Y458D02*
X487Y458D01*
X977Y458D02*
X984Y458D01*
X1Y457D02*
X8Y457D01*
X429Y457D02*
X429Y457D01*
X451Y457D02*
X451Y457D01*
X456Y457D02*
X459Y457D01*
X484Y457D02*
X487Y457D01*
X977Y457D02*
X984Y457D01*
X1Y456D02*
X8Y456D01*
X429Y456D02*
X429Y456D01*
X451Y456D02*
X451Y456D01*
X456Y456D02*
X459Y456D01*
X484Y456D02*
X487Y456D01*
X977Y456D02*
X984Y456D01*
X1Y455D02*
X8Y455D01*
X429Y455D02*
X429Y455D01*
X451Y455D02*
X451Y455D01*
X456Y455D02*
X459Y455D01*
X484Y455D02*
X487Y455D01*
X977Y455D02*
X984Y455D01*
X1Y454D02*
X8Y454D01*
X429Y454D02*
X429Y454D01*
X451Y454D02*
X451Y454D01*
X456Y454D02*
X459Y454D01*
X484Y454D02*
X487Y454D01*
X977Y454D02*
X984Y454D01*
X1Y453D02*
X8Y453D01*
X429Y453D02*
X429Y453D01*
X451Y453D02*
X451Y453D01*
X456Y453D02*
X459Y453D01*
X484Y453D02*
X487Y453D01*
X977Y453D02*
X984Y453D01*
X1Y452D02*
X8Y452D01*
X429Y452D02*
X429Y452D01*
X451Y452D02*
X451Y452D01*
X456Y452D02*
X459Y452D01*
X484Y452D02*
X487Y452D01*
X977Y452D02*
X984Y452D01*
X1Y451D02*
X8Y451D01*
X429Y451D02*
X429Y451D01*
X451Y451D02*
X451Y451D01*
X456Y451D02*
X459Y451D01*
X484Y451D02*
X487Y451D01*
X977Y451D02*
X984Y451D01*
X1Y450D02*
X8Y450D01*
X429Y450D02*
X429Y450D01*
X451Y450D02*
X451Y450D01*
X456Y450D02*
X458Y450D01*
X485Y450D02*
X486Y450D01*
X977Y450D02*
X984Y450D01*
X1Y449D02*
X8Y449D01*
X429Y449D02*
X429Y449D01*
X451Y449D02*
X451Y449D01*
X977Y449D02*
X984Y449D01*
X1Y448D02*
X8Y448D01*
X429Y448D02*
X429Y448D01*
X451Y448D02*
X451Y448D01*
X977Y448D02*
X984Y448D01*
X1Y447D02*
X8Y447D01*
X429Y447D02*
X429Y447D01*
X451Y447D02*
X451Y447D01*
X977Y447D02*
X984Y447D01*
X1Y446D02*
X8Y446D01*
X429Y446D02*
X429Y446D01*
X451Y446D02*
X451Y446D01*
X977Y446D02*
X984Y446D01*
X1Y445D02*
X8Y445D01*
X429Y445D02*
X429Y445D01*
X451Y445D02*
X451Y445D01*
X977Y445D02*
X984Y445D01*
X1Y444D02*
X8Y444D01*
X429Y444D02*
X429Y444D01*
X451Y444D02*
X451Y444D01*
X977Y444D02*
X984Y444D01*
X1Y443D02*
X8Y443D01*
X429Y443D02*
X429Y443D01*
X451Y443D02*
X451Y443D01*
X977Y443D02*
X984Y443D01*
X1Y442D02*
X8Y442D01*
X429Y442D02*
X429Y442D01*
X451Y442D02*
X451Y442D01*
X977Y442D02*
X984Y442D01*
X1Y441D02*
X8Y441D01*
X977Y441D02*
X984Y441D01*
X1Y440D02*
X8Y440D01*
X457Y440D02*
X457Y440D01*
X977Y440D02*
X984Y440D01*
X1Y439D02*
X8Y439D01*
X456Y439D02*
X458Y439D01*
X484Y439D02*
X487Y439D01*
X977Y439D02*
X984Y439D01*
X1Y438D02*
X8Y438D01*
X456Y438D02*
X459Y438D01*
X484Y438D02*
X487Y438D01*
X977Y438D02*
X984Y438D01*
X1Y437D02*
X8Y437D01*
X456Y437D02*
X459Y437D01*
X484Y437D02*
X487Y437D01*
X977Y437D02*
X984Y437D01*
X1Y436D02*
X8Y436D01*
X456Y436D02*
X459Y436D01*
X484Y436D02*
X487Y436D01*
X977Y436D02*
X984Y436D01*
X1Y435D02*
X8Y435D01*
X456Y435D02*
X459Y435D01*
X484Y435D02*
X487Y435D01*
X977Y435D02*
X984Y435D01*
X1Y434D02*
X8Y434D01*
X456Y434D02*
X459Y434D01*
X484Y434D02*
X487Y434D01*
X977Y434D02*
X984Y434D01*
X1Y433D02*
X8Y433D01*
X456Y433D02*
X459Y433D01*
X484Y433D02*
X487Y433D01*
X977Y433D02*
X984Y433D01*
X1Y432D02*
X8Y432D01*
X456Y432D02*
X459Y432D01*
X484Y432D02*
X487Y432D01*
X977Y432D02*
X984Y432D01*
X1Y431D02*
X8Y431D01*
X456Y431D02*
X459Y431D01*
X484Y431D02*
X487Y431D01*
X646Y431D02*
X649Y431D01*
X977Y431D02*
X984Y431D01*
X1Y430D02*
X8Y430D01*
X456Y430D02*
X459Y430D01*
X484Y430D02*
X487Y430D01*
X644Y430D02*
X651Y430D01*
X977Y430D02*
X984Y430D01*
X1Y429D02*
X8Y429D01*
X456Y429D02*
X459Y429D01*
X483Y429D02*
X487Y429D01*
X643Y429D02*
X652Y429D01*
X977Y429D02*
X984Y429D01*
X1Y428D02*
X8Y428D01*
X456Y428D02*
X461Y428D01*
X482Y428D02*
X487Y428D01*
X642Y428D02*
X653Y428D01*
X977Y428D02*
X984Y428D01*
X1Y427D02*
X8Y427D01*
X457Y427D02*
X463Y427D01*
X480Y427D02*
X486Y427D01*
X641Y427D02*
X646Y427D01*
X648Y427D02*
X654Y427D01*
X977Y427D02*
X984Y427D01*
X1Y426D02*
X8Y426D01*
X457Y426D02*
X465Y426D01*
X478Y426D02*
X485Y426D01*
X640Y426D02*
X645Y426D01*
X650Y426D02*
X655Y426D01*
X977Y426D02*
X984Y426D01*
X1Y425D02*
X8Y425D01*
X458Y425D02*
X467Y425D01*
X476Y425D02*
X484Y425D01*
X639Y425D02*
X644Y425D01*
X651Y425D02*
X656Y425D01*
X977Y425D02*
X984Y425D01*
X1Y424D02*
X8Y424D01*
X390Y424D02*
X446Y424D01*
X460Y424D02*
X469Y424D01*
X474Y424D02*
X482Y424D01*
X638Y424D02*
X643Y424D01*
X652Y424D02*
X657Y424D01*
X977Y424D02*
X984Y424D01*
X1Y423D02*
X8Y423D01*
X462Y423D02*
X480Y423D01*
X637Y423D02*
X642Y423D01*
X653Y423D02*
X657Y423D01*
X977Y423D02*
X984Y423D01*
X1Y422D02*
X8Y422D01*
X464Y422D02*
X478Y422D01*
X636Y422D02*
X641Y422D01*
X654Y422D02*
X658Y422D01*
X977Y422D02*
X984Y422D01*
X1Y421D02*
X8Y421D01*
X466Y421D02*
X476Y421D01*
X635Y421D02*
X640Y421D01*
X655Y421D02*
X658Y421D01*
X977Y421D02*
X984Y421D01*
X1Y420D02*
X8Y420D01*
X469Y420D02*
X474Y420D01*
X634Y420D02*
X639Y420D01*
X655Y420D02*
X659Y420D01*
X977Y420D02*
X984Y420D01*
X1Y419D02*
X8Y419D01*
X633Y419D02*
X638Y419D01*
X655Y419D02*
X659Y419D01*
X977Y419D02*
X984Y419D01*
X1Y418D02*
X8Y418D01*
X632Y418D02*
X637Y418D01*
X655Y418D02*
X658Y418D01*
X977Y418D02*
X984Y418D01*
X1Y417D02*
X8Y417D01*
X631Y417D02*
X636Y417D01*
X654Y417D02*
X658Y417D01*
X977Y417D02*
X984Y417D01*
X1Y416D02*
X8Y416D01*
X630Y416D02*
X635Y416D01*
X653Y416D02*
X658Y416D01*
X977Y416D02*
X984Y416D01*
X1Y415D02*
X8Y415D01*
X629Y415D02*
X634Y415D01*
X652Y415D02*
X657Y415D01*
X977Y415D02*
X984Y415D01*
X1Y414D02*
X8Y414D01*
X628Y414D02*
X633Y414D01*
X651Y414D02*
X656Y414D01*
X977Y414D02*
X984Y414D01*
X1Y413D02*
X8Y413D01*
X627Y413D02*
X632Y413D01*
X650Y413D02*
X655Y413D01*
X977Y413D02*
X984Y413D01*
X1Y412D02*
X8Y412D01*
X626Y412D02*
X631Y412D01*
X649Y412D02*
X654Y412D01*
X977Y412D02*
X984Y412D01*
X1Y411D02*
X8Y411D01*
X626Y411D02*
X630Y411D01*
X648Y411D02*
X653Y411D01*
X667Y411D02*
X670Y411D01*
X977Y411D02*
X984Y411D01*
X1Y410D02*
X8Y410D01*
X626Y410D02*
X629Y410D01*
X647Y410D02*
X652Y410D01*
X667Y410D02*
X671Y410D01*
X977Y410D02*
X984Y410D01*
X1Y409D02*
X8Y409D01*
X627Y409D02*
X627Y409D01*
X646Y409D02*
X651Y409D01*
X667Y409D02*
X672Y409D01*
X977Y409D02*
X984Y409D01*
X1Y408D02*
X8Y408D01*
X645Y408D02*
X650Y408D01*
X668Y408D02*
X673Y408D01*
X977Y408D02*
X984Y408D01*
X1Y407D02*
X8Y407D01*
X644Y407D02*
X649Y407D01*
X669Y407D02*
X674Y407D01*
X977Y407D02*
X984Y407D01*
X1Y406D02*
X8Y406D01*
X643Y406D02*
X648Y406D01*
X670Y406D02*
X675Y406D01*
X977Y406D02*
X984Y406D01*
X1Y405D02*
X8Y405D01*
X642Y405D02*
X647Y405D01*
X671Y405D02*
X676Y405D01*
X977Y405D02*
X984Y405D01*
X1Y404D02*
X8Y404D01*
X641Y404D02*
X646Y404D01*
X671Y404D02*
X677Y404D01*
X977Y404D02*
X984Y404D01*
X1Y403D02*
X8Y403D01*
X640Y403D02*
X645Y403D01*
X671Y403D02*
X678Y403D01*
X977Y403D02*
X984Y403D01*
X1Y402D02*
X8Y402D01*
X639Y402D02*
X644Y402D01*
X670Y402D02*
X679Y402D01*
X977Y402D02*
X984Y402D01*
X1Y401D02*
X8Y401D01*
X391Y401D02*
X446Y401D01*
X638Y401D02*
X643Y401D01*
X669Y401D02*
X680Y401D01*
X977Y401D02*
X984Y401D01*
X1Y400D02*
X8Y400D01*
X637Y400D02*
X642Y400D01*
X668Y400D02*
X673Y400D01*
X676Y400D02*
X681Y400D01*
X977Y400D02*
X984Y400D01*
X1Y399D02*
X8Y399D01*
X637Y399D02*
X641Y399D01*
X667Y399D02*
X672Y399D01*
X677Y399D02*
X681Y399D01*
X977Y399D02*
X984Y399D01*
X1Y398D02*
X8Y398D01*
X638Y398D02*
X640Y398D01*
X666Y398D02*
X671Y398D01*
X677Y398D02*
X682Y398D01*
X977Y398D02*
X984Y398D01*
X1Y397D02*
X8Y397D01*
X665Y397D02*
X670Y397D01*
X677Y397D02*
X681Y397D01*
X977Y397D02*
X984Y397D01*
X1Y396D02*
X8Y396D01*
X403Y396D02*
X419Y396D01*
X664Y396D02*
X669Y396D01*
X676Y396D02*
X681Y396D01*
X977Y396D02*
X984Y396D01*
X1Y395D02*
X8Y395D01*
X371Y395D02*
X374Y395D01*
X388Y395D02*
X391Y395D01*
X402Y395D02*
X421Y395D01*
X663Y395D02*
X668Y395D01*
X675Y395D02*
X680Y395D01*
X977Y395D02*
X984Y395D01*
X1Y394D02*
X8Y394D01*
X371Y394D02*
X374Y394D01*
X387Y394D02*
X391Y394D01*
X401Y394D02*
X421Y394D01*
X662Y394D02*
X667Y394D01*
X674Y394D02*
X679Y394D01*
X977Y394D02*
X984Y394D01*
X1Y393D02*
X8Y393D01*
X371Y393D02*
X374Y393D01*
X387Y393D02*
X391Y393D01*
X401Y393D02*
X421Y393D01*
X661Y393D02*
X666Y393D01*
X673Y393D02*
X678Y393D01*
X977Y393D02*
X984Y393D01*
X1Y392D02*
X8Y392D01*
X371Y392D02*
X374Y392D01*
X386Y392D02*
X390Y392D01*
X403Y392D02*
X421Y392D01*
X660Y392D02*
X665Y392D01*
X673Y392D02*
X677Y392D01*
X977Y392D02*
X984Y392D01*
X1Y391D02*
X8Y391D01*
X371Y391D02*
X374Y391D01*
X386Y391D02*
X389Y391D01*
X409Y391D02*
X413Y391D01*
X418Y391D02*
X421Y391D01*
X647Y391D02*
X650Y391D01*
X659Y391D02*
X664Y391D01*
X673Y391D02*
X676Y391D01*
X977Y391D02*
X984Y391D01*
X1Y390D02*
X8Y390D01*
X371Y390D02*
X374Y390D01*
X385Y390D02*
X389Y390D01*
X409Y390D02*
X413Y390D01*
X418Y390D02*
X421Y390D01*
X647Y390D02*
X651Y390D01*
X658Y390D02*
X663Y390D01*
X977Y390D02*
X984Y390D01*
X1Y389D02*
X8Y389D01*
X371Y389D02*
X374Y389D01*
X384Y389D02*
X388Y389D01*
X409Y389D02*
X413Y389D01*
X418Y389D02*
X421Y389D01*
X647Y389D02*
X652Y389D01*
X657Y389D02*
X662Y389D01*
X977Y389D02*
X984Y389D01*
X1Y388D02*
X8Y388D01*
X371Y388D02*
X374Y388D01*
X384Y388D02*
X388Y388D01*
X409Y388D02*
X413Y388D01*
X418Y388D02*
X421Y388D01*
X648Y388D02*
X653Y388D01*
X656Y388D02*
X661Y388D01*
X977Y388D02*
X984Y388D01*
X1Y387D02*
X8Y387D01*
X371Y387D02*
X374Y387D01*
X383Y387D02*
X387Y387D01*
X409Y387D02*
X413Y387D01*
X418Y387D02*
X421Y387D01*
X649Y387D02*
X660Y387D01*
X977Y387D02*
X984Y387D01*
X1Y386D02*
X8Y386D01*
X371Y386D02*
X374Y386D01*
X383Y386D02*
X387Y386D01*
X409Y386D02*
X413Y386D01*
X418Y386D02*
X421Y386D01*
X650Y386D02*
X659Y386D01*
X977Y386D02*
X984Y386D01*
X1Y385D02*
X8Y385D01*
X371Y385D02*
X374Y385D01*
X382Y385D02*
X386Y385D01*
X409Y385D02*
X413Y385D01*
X418Y385D02*
X421Y385D01*
X651Y385D02*
X658Y385D01*
X977Y385D02*
X984Y385D01*
X1Y384D02*
X8Y384D01*
X371Y384D02*
X374Y384D01*
X381Y384D02*
X385Y384D01*
X409Y384D02*
X413Y384D01*
X418Y384D02*
X420Y384D01*
X652Y384D02*
X657Y384D01*
X977Y384D02*
X984Y384D01*
X1Y383D02*
X8Y383D01*
X371Y383D02*
X374Y383D01*
X381Y383D02*
X385Y383D01*
X409Y383D02*
X413Y383D01*
X653Y383D02*
X656Y383D01*
X977Y383D02*
X984Y383D01*
X1Y382D02*
X8Y382D01*
X371Y382D02*
X374Y382D01*
X380Y382D02*
X384Y382D01*
X409Y382D02*
X413Y382D01*
X654Y382D02*
X655Y382D01*
X977Y382D02*
X984Y382D01*
X1Y381D02*
X8Y381D01*
X371Y381D02*
X374Y381D01*
X380Y381D02*
X384Y381D01*
X409Y381D02*
X413Y381D01*
X977Y381D02*
X984Y381D01*
X1Y380D02*
X8Y380D01*
X371Y380D02*
X374Y380D01*
X379Y380D02*
X383Y380D01*
X409Y380D02*
X413Y380D01*
X977Y380D02*
X984Y380D01*
X1Y379D02*
X8Y379D01*
X371Y379D02*
X374Y379D01*
X379Y379D02*
X382Y379D01*
X409Y379D02*
X413Y379D01*
X977Y379D02*
X984Y379D01*
X1Y378D02*
X8Y378D01*
X371Y378D02*
X387Y378D01*
X409Y378D02*
X413Y378D01*
X977Y378D02*
X984Y378D01*
X1Y377D02*
X8Y377D01*
X371Y377D02*
X388Y377D01*
X409Y377D02*
X413Y377D01*
X977Y377D02*
X984Y377D01*
X1Y376D02*
X8Y376D01*
X371Y376D02*
X389Y376D01*
X409Y376D02*
X413Y376D01*
X977Y376D02*
X984Y376D01*
X1Y375D02*
X8Y375D01*
X371Y375D02*
X390Y375D01*
X409Y375D02*
X413Y375D01*
X977Y375D02*
X984Y375D01*
X1Y374D02*
X8Y374D01*
X371Y374D02*
X375Y374D01*
X386Y374D02*
X391Y374D01*
X409Y374D02*
X413Y374D01*
X977Y374D02*
X984Y374D01*
X1Y373D02*
X8Y373D01*
X371Y373D02*
X374Y373D01*
X387Y373D02*
X391Y373D01*
X409Y373D02*
X413Y373D01*
X977Y373D02*
X984Y373D01*
X1Y372D02*
X8Y372D01*
X371Y372D02*
X374Y372D01*
X388Y372D02*
X391Y372D01*
X409Y372D02*
X413Y372D01*
X977Y372D02*
X984Y372D01*
X1Y371D02*
X8Y371D01*
X371Y371D02*
X374Y371D01*
X388Y371D02*
X391Y371D01*
X409Y371D02*
X413Y371D01*
X977Y371D02*
X984Y371D01*
X1Y370D02*
X8Y370D01*
X371Y370D02*
X374Y370D01*
X388Y370D02*
X391Y370D01*
X409Y370D02*
X413Y370D01*
X977Y370D02*
X984Y370D01*
X1Y369D02*
X8Y369D01*
X371Y369D02*
X374Y369D01*
X387Y369D02*
X391Y369D01*
X409Y369D02*
X413Y369D01*
X977Y369D02*
X984Y369D01*
X1Y368D02*
X8Y368D01*
X371Y368D02*
X375Y368D01*
X386Y368D02*
X391Y368D01*
X409Y368D02*
X413Y368D01*
X977Y368D02*
X984Y368D01*
X1Y367D02*
X8Y367D01*
X371Y367D02*
X390Y367D01*
X402Y367D02*
X413Y367D01*
X977Y367D02*
X984Y367D01*
X1Y366D02*
X8Y366D01*
X371Y366D02*
X389Y366D01*
X401Y366D02*
X413Y366D01*
X977Y366D02*
X984Y366D01*
X1Y365D02*
X8Y365D01*
X371Y365D02*
X388Y365D01*
X401Y365D02*
X413Y365D01*
X977Y365D02*
X984Y365D01*
X1Y364D02*
X8Y364D01*
X371Y364D02*
X387Y364D01*
X402Y364D02*
X412Y364D01*
X977Y364D02*
X984Y364D01*
X1Y363D02*
X8Y363D01*
X977Y363D02*
X984Y363D01*
X1Y362D02*
X8Y362D01*
X977Y362D02*
X984Y362D01*
X1Y361D02*
X8Y361D01*
X977Y361D02*
X984Y361D01*
X1Y360D02*
X8Y360D01*
X977Y360D02*
X984Y360D01*
X1Y359D02*
X8Y359D01*
X977Y359D02*
X984Y359D01*
X1Y358D02*
X8Y358D01*
X977Y358D02*
X984Y358D01*
X1Y357D02*
X8Y357D01*
X977Y357D02*
X984Y357D01*
X1Y356D02*
X8Y356D01*
X977Y356D02*
X984Y356D01*
X1Y355D02*
X8Y355D01*
X977Y355D02*
X984Y355D01*
X1Y354D02*
X8Y354D01*
X977Y354D02*
X984Y354D01*
X1Y353D02*
X8Y353D01*
X977Y353D02*
X984Y353D01*
X1Y352D02*
X8Y352D01*
X977Y352D02*
X984Y352D01*
X1Y351D02*
X8Y351D01*
X977Y351D02*
X984Y351D01*
X1Y350D02*
X8Y350D01*
X977Y350D02*
X984Y350D01*
X1Y349D02*
X8Y349D01*
X977Y349D02*
X984Y349D01*
X1Y348D02*
X8Y348D01*
X977Y348D02*
X984Y348D01*
X1Y347D02*
X8Y347D01*
X977Y347D02*
X984Y347D01*
X1Y346D02*
X8Y346D01*
X977Y346D02*
X984Y346D01*
X1Y345D02*
X8Y345D01*
X977Y345D02*
X984Y345D01*
X1Y344D02*
X8Y344D01*
X977Y344D02*
X984Y344D01*
X1Y343D02*
X8Y343D01*
X977Y343D02*
X984Y343D01*
X1Y342D02*
X8Y342D01*
X977Y342D02*
X984Y342D01*
X1Y341D02*
X8Y341D01*
X977Y341D02*
X984Y341D01*
X1Y340D02*
X8Y340D01*
X977Y340D02*
X984Y340D01*
X1Y339D02*
X8Y339D01*
X977Y339D02*
X984Y339D01*
X1Y338D02*
X8Y338D01*
X977Y338D02*
X984Y338D01*
X1Y337D02*
X8Y337D01*
X977Y337D02*
X984Y337D01*
X1Y336D02*
X8Y336D01*
X977Y336D02*
X984Y336D01*
X1Y335D02*
X8Y335D01*
X977Y335D02*
X984Y335D01*
X1Y334D02*
X8Y334D01*
X977Y334D02*
X984Y334D01*
X1Y333D02*
X8Y333D01*
X977Y333D02*
X984Y333D01*
X1Y332D02*
X8Y332D01*
X977Y332D02*
X984Y332D01*
X1Y331D02*
X8Y331D01*
X977Y331D02*
X984Y331D01*
X1Y330D02*
X8Y330D01*
X977Y330D02*
X984Y330D01*
X1Y329D02*
X8Y329D01*
X977Y329D02*
X984Y329D01*
X1Y328D02*
X8Y328D01*
X977Y328D02*
X984Y328D01*
X1Y327D02*
X8Y327D01*
X977Y327D02*
X984Y327D01*
X1Y326D02*
X8Y326D01*
X977Y326D02*
X984Y326D01*
X1Y325D02*
X8Y325D01*
X977Y325D02*
X984Y325D01*
X1Y324D02*
X8Y324D01*
X977Y324D02*
X984Y324D01*
X1Y323D02*
X8Y323D01*
X977Y323D02*
X984Y323D01*
X1Y322D02*
X8Y322D01*
X977Y322D02*
X984Y322D01*
X1Y321D02*
X8Y321D01*
X977Y321D02*
X984Y321D01*
X1Y320D02*
X8Y320D01*
X977Y320D02*
X984Y320D01*
X1Y319D02*
X8Y319D01*
X977Y319D02*
X984Y319D01*
X1Y318D02*
X8Y318D01*
X977Y318D02*
X984Y318D01*
X1Y317D02*
X8Y317D01*
X977Y317D02*
X984Y317D01*
X1Y316D02*
X8Y316D01*
X977Y316D02*
X984Y316D01*
X1Y315D02*
X8Y315D01*
X977Y315D02*
X984Y315D01*
X1Y314D02*
X8Y314D01*
X977Y314D02*
X984Y314D01*
X1Y313D02*
X8Y313D01*
X977Y313D02*
X984Y313D01*
X1Y312D02*
X8Y312D01*
X977Y312D02*
X984Y312D01*
X1Y311D02*
X8Y311D01*
X977Y311D02*
X984Y311D01*
X1Y310D02*
X8Y310D01*
X977Y310D02*
X984Y310D01*
X1Y309D02*
X8Y309D01*
X977Y309D02*
X984Y309D01*
X1Y308D02*
X8Y308D01*
X977Y308D02*
X984Y308D01*
X1Y307D02*
X8Y307D01*
X977Y307D02*
X984Y307D01*
X1Y306D02*
X8Y306D01*
X977Y306D02*
X984Y306D01*
X1Y305D02*
X8Y305D01*
X977Y305D02*
X984Y305D01*
X1Y304D02*
X8Y304D01*
X977Y304D02*
X984Y304D01*
X1Y303D02*
X8Y303D01*
X977Y303D02*
X984Y303D01*
X1Y302D02*
X8Y302D01*
X977Y302D02*
X984Y302D01*
X1Y301D02*
X8Y301D01*
X977Y301D02*
X984Y301D01*
X1Y300D02*
X8Y300D01*
X977Y300D02*
X984Y300D01*
X1Y299D02*
X8Y299D01*
X977Y299D02*
X984Y299D01*
X1Y298D02*
X8Y298D01*
X977Y298D02*
X984Y298D01*
X1Y297D02*
X8Y297D01*
X977Y297D02*
X984Y297D01*
X1Y296D02*
X8Y296D01*
X977Y296D02*
X984Y296D01*
X1Y295D02*
X8Y295D01*
X977Y295D02*
X984Y295D01*
X1Y294D02*
X8Y294D01*
X977Y294D02*
X984Y294D01*
X1Y293D02*
X8Y293D01*
X977Y293D02*
X984Y293D01*
X1Y292D02*
X8Y292D01*
X929Y292D02*
X935Y292D01*
X977Y292D02*
X984Y292D01*
X1Y291D02*
X8Y291D01*
X927Y291D02*
X936Y291D01*
X977Y291D02*
X984Y291D01*
X1Y290D02*
X8Y290D01*
X926Y290D02*
X936Y290D01*
X977Y290D02*
X984Y290D01*
X1Y289D02*
X8Y289D01*
X925Y289D02*
X936Y289D01*
X977Y289D02*
X984Y289D01*
X1Y288D02*
X8Y288D01*
X925Y288D02*
X935Y288D01*
X977Y288D02*
X984Y288D01*
X1Y287D02*
X8Y287D01*
X924Y287D02*
X928Y287D01*
X977Y287D02*
X984Y287D01*
X1Y286D02*
X8Y286D01*
X924Y286D02*
X928Y286D01*
X953Y286D02*
X955Y286D01*
X977Y286D02*
X984Y286D01*
X1Y285D02*
X8Y285D01*
X924Y285D02*
X928Y285D01*
X953Y285D02*
X956Y285D01*
X977Y285D02*
X984Y285D01*
X1Y284D02*
X8Y284D01*
X924Y284D02*
X928Y284D01*
X953Y284D02*
X956Y284D01*
X977Y284D02*
X984Y284D01*
X1Y283D02*
X8Y283D01*
X924Y283D02*
X928Y283D01*
X953Y283D02*
X956Y283D01*
X977Y283D02*
X984Y283D01*
X1Y282D02*
X8Y282D01*
X924Y282D02*
X928Y282D01*
X953Y282D02*
X956Y282D01*
X977Y282D02*
X984Y282D01*
X1Y281D02*
X8Y281D01*
X924Y281D02*
X928Y281D01*
X953Y281D02*
X956Y281D01*
X977Y281D02*
X984Y281D01*
X1Y280D02*
X8Y280D01*
X925Y280D02*
X929Y280D01*
X952Y280D02*
X956Y280D01*
X977Y280D02*
X984Y280D01*
X1Y279D02*
X8Y279D01*
X925Y279D02*
X956Y279D01*
X977Y279D02*
X984Y279D01*
X1Y278D02*
X8Y278D01*
X926Y278D02*
X956Y278D01*
X977Y278D02*
X984Y278D01*
X1Y277D02*
X8Y277D01*
X927Y277D02*
X956Y277D01*
X977Y277D02*
X984Y277D01*
X1Y276D02*
X8Y276D01*
X929Y276D02*
X956Y276D01*
X977Y276D02*
X984Y276D01*
X1Y275D02*
X8Y275D01*
X953Y275D02*
X956Y275D01*
X977Y275D02*
X984Y275D01*
X1Y274D02*
X8Y274D01*
X953Y274D02*
X956Y274D01*
X977Y274D02*
X984Y274D01*
X1Y273D02*
X8Y273D01*
X953Y273D02*
X956Y273D01*
X977Y273D02*
X984Y273D01*
X1Y272D02*
X8Y272D01*
X954Y272D02*
X955Y272D01*
X977Y272D02*
X984Y272D01*
X1Y271D02*
X8Y271D01*
X977Y271D02*
X984Y271D01*
X1Y270D02*
X8Y270D01*
X977Y270D02*
X984Y270D01*
X1Y269D02*
X8Y269D01*
X977Y269D02*
X984Y269D01*
X1Y268D02*
X8Y268D01*
X977Y268D02*
X984Y268D01*
X1Y267D02*
X8Y267D01*
X977Y267D02*
X984Y267D01*
X1Y266D02*
X8Y266D01*
X977Y266D02*
X984Y266D01*
X1Y265D02*
X8Y265D01*
X977Y265D02*
X984Y265D01*
X1Y264D02*
X8Y264D01*
X977Y264D02*
X984Y264D01*
X1Y263D02*
X8Y263D01*
X977Y263D02*
X984Y263D01*
X1Y262D02*
X8Y262D01*
X925Y262D02*
X938Y262D01*
X954Y262D02*
X954Y262D01*
X977Y262D02*
X984Y262D01*
X1Y261D02*
X8Y261D01*
X924Y261D02*
X940Y261D01*
X953Y261D02*
X956Y261D01*
X977Y261D02*
X984Y261D01*
X1Y260D02*
X8Y260D01*
X924Y260D02*
X941Y260D01*
X953Y260D02*
X956Y260D01*
X977Y260D02*
X984Y260D01*
X1Y259D02*
X8Y259D01*
X924Y259D02*
X941Y259D01*
X953Y259D02*
X956Y259D01*
X977Y259D02*
X984Y259D01*
X1Y258D02*
X8Y258D01*
X924Y258D02*
X942Y258D01*
X953Y258D02*
X956Y258D01*
X977Y258D02*
X984Y258D01*
X1Y257D02*
X8Y257D01*
X924Y257D02*
X928Y257D01*
X938Y257D02*
X942Y257D01*
X953Y257D02*
X956Y257D01*
X977Y257D02*
X984Y257D01*
X1Y256D02*
X8Y256D01*
X924Y256D02*
X928Y256D01*
X938Y256D02*
X942Y256D01*
X953Y256D02*
X956Y256D01*
X977Y256D02*
X984Y256D01*
X1Y255D02*
X8Y255D01*
X924Y255D02*
X928Y255D01*
X938Y255D02*
X942Y255D01*
X953Y255D02*
X956Y255D01*
X977Y255D02*
X984Y255D01*
X1Y254D02*
X8Y254D01*
X924Y254D02*
X928Y254D01*
X938Y254D02*
X942Y254D01*
X953Y254D02*
X956Y254D01*
X977Y254D02*
X984Y254D01*
X1Y253D02*
X8Y253D01*
X924Y253D02*
X928Y253D01*
X938Y253D02*
X942Y253D01*
X953Y253D02*
X956Y253D01*
X977Y253D02*
X984Y253D01*
X1Y252D02*
X8Y252D01*
X924Y252D02*
X928Y252D01*
X938Y252D02*
X942Y252D01*
X953Y252D02*
X956Y252D01*
X977Y252D02*
X984Y252D01*
X1Y251D02*
X8Y251D01*
X924Y251D02*
X928Y251D01*
X938Y251D02*
X942Y251D01*
X953Y251D02*
X956Y251D01*
X977Y251D02*
X984Y251D01*
X1Y250D02*
X8Y250D01*
X924Y250D02*
X928Y250D01*
X938Y250D02*
X942Y250D01*
X953Y250D02*
X956Y250D01*
X977Y250D02*
X984Y250D01*
X1Y249D02*
X8Y249D01*
X924Y249D02*
X928Y249D01*
X938Y249D02*
X942Y249D01*
X953Y249D02*
X956Y249D01*
X977Y249D02*
X984Y249D01*
X1Y248D02*
X8Y248D01*
X924Y248D02*
X928Y248D01*
X938Y248D02*
X942Y248D01*
X953Y248D02*
X956Y248D01*
X977Y248D02*
X984Y248D01*
X1Y247D02*
X8Y247D01*
X924Y247D02*
X928Y247D01*
X938Y247D02*
X942Y247D01*
X953Y247D02*
X956Y247D01*
X977Y247D02*
X984Y247D01*
X1Y246D02*
X8Y246D01*
X924Y246D02*
X928Y246D01*
X938Y246D02*
X942Y246D01*
X953Y246D02*
X956Y246D01*
X977Y246D02*
X984Y246D01*
X1Y245D02*
X8Y245D01*
X924Y245D02*
X928Y245D01*
X939Y245D02*
X956Y245D01*
X977Y245D02*
X984Y245D01*
X1Y244D02*
X8Y244D01*
X924Y244D02*
X928Y244D01*
X939Y244D02*
X955Y244D01*
X977Y244D02*
X984Y244D01*
X1Y243D02*
X8Y243D01*
X924Y243D02*
X927Y243D01*
X940Y243D02*
X955Y243D01*
X977Y243D02*
X984Y243D01*
X1Y242D02*
X8Y242D01*
X925Y242D02*
X927Y242D01*
X941Y242D02*
X954Y242D01*
X977Y242D02*
X984Y242D01*
X1Y241D02*
X8Y241D01*
X977Y241D02*
X984Y241D01*
X1Y240D02*
X8Y240D01*
X977Y240D02*
X984Y240D01*
X1Y239D02*
X8Y239D01*
X977Y239D02*
X984Y239D01*
X1Y238D02*
X8Y238D01*
X977Y238D02*
X984Y238D01*
X1Y237D02*
X8Y237D01*
X977Y237D02*
X984Y237D01*
X1Y236D02*
X8Y236D01*
X977Y236D02*
X984Y236D01*
X1Y235D02*
X8Y235D01*
X977Y235D02*
X984Y235D01*
X1Y234D02*
X8Y234D01*
X977Y234D02*
X984Y234D01*
X1Y233D02*
X8Y233D01*
X977Y233D02*
X984Y233D01*
X1Y232D02*
X8Y232D01*
X977Y232D02*
X984Y232D01*
X1Y231D02*
X8Y231D01*
X977Y231D02*
X984Y231D01*
X1Y230D02*
X8Y230D01*
X977Y230D02*
X984Y230D01*
X1Y229D02*
X8Y229D01*
X977Y229D02*
X984Y229D01*
X1Y228D02*
X8Y228D01*
X977Y228D02*
X984Y228D01*
X1Y227D02*
X8Y227D01*
X977Y227D02*
X984Y227D01*
X1Y226D02*
X8Y226D01*
X977Y226D02*
X984Y226D01*
X1Y225D02*
X8Y225D01*
X977Y225D02*
X984Y225D01*
X1Y224D02*
X8Y224D01*
X978Y224D02*
X984Y224D01*
X1Y223D02*
X8Y223D01*
X978Y223D02*
X984Y223D01*
X1Y222D02*
X8Y222D01*
X978Y222D02*
X984Y222D01*
X1Y221D02*
X8Y221D01*
X978Y221D02*
X984Y221D01*
X1Y220D02*
X8Y220D01*
X978Y220D02*
X984Y220D01*
X1Y219D02*
X8Y219D01*
X978Y219D02*
X984Y219D01*
X1Y218D02*
X8Y218D01*
X978Y218D02*
X984Y218D01*
X1Y217D02*
X8Y217D01*
X978Y217D02*
X984Y217D01*
X1Y216D02*
X8Y216D01*
X978Y216D02*
X984Y216D01*
X1Y215D02*
X8Y215D01*
X978Y215D02*
X984Y215D01*
X1Y214D02*
X8Y214D01*
X978Y214D02*
X984Y214D01*
X1Y213D02*
X8Y213D01*
X978Y213D02*
X984Y213D01*
X1Y212D02*
X8Y212D01*
X978Y212D02*
X984Y212D01*
X1Y211D02*
X8Y211D01*
X978Y211D02*
X984Y211D01*
X1Y210D02*
X8Y210D01*
X978Y210D02*
X984Y210D01*
X1Y209D02*
X8Y209D01*
X978Y209D02*
X984Y209D01*
X1Y208D02*
X8Y208D01*
X978Y208D02*
X984Y208D01*
X1Y207D02*
X8Y207D01*
X978Y207D02*
X984Y207D01*
X1Y206D02*
X8Y206D01*
X978Y206D02*
X984Y206D01*
X1Y205D02*
X8Y205D01*
X978Y205D02*
X984Y205D01*
X1Y204D02*
X8Y204D01*
X978Y204D02*
X984Y204D01*
X1Y203D02*
X8Y203D01*
X978Y203D02*
X984Y203D01*
X1Y202D02*
X8Y202D01*
X978Y202D02*
X984Y202D01*
X1Y201D02*
X8Y201D01*
X978Y201D02*
X984Y201D01*
X1Y200D02*
X8Y200D01*
X978Y200D02*
X984Y200D01*
X1Y199D02*
X8Y199D01*
X978Y199D02*
X984Y199D01*
X1Y198D02*
X8Y198D01*
X978Y198D02*
X984Y198D01*
X1Y197D02*
X8Y197D01*
X978Y197D02*
X984Y197D01*
X1Y196D02*
X8Y196D01*
X978Y196D02*
X984Y196D01*
X1Y195D02*
X8Y195D01*
X978Y195D02*
X984Y195D01*
X1Y194D02*
X8Y194D01*
X978Y194D02*
X984Y194D01*
X1Y193D02*
X8Y193D01*
X978Y193D02*
X984Y193D01*
X1Y192D02*
X8Y192D01*
X978Y192D02*
X984Y192D01*
X1Y191D02*
X8Y191D01*
X978Y191D02*
X984Y191D01*
X1Y190D02*
X8Y190D01*
X978Y190D02*
X984Y190D01*
X1Y189D02*
X8Y189D01*
X978Y189D02*
X984Y189D01*
X1Y188D02*
X8Y188D01*
X978Y188D02*
X984Y188D01*
X1Y187D02*
X8Y187D01*
X978Y187D02*
X984Y187D01*
X1Y186D02*
X8Y186D01*
X978Y186D02*
X984Y186D01*
X1Y185D02*
X8Y185D01*
X978Y185D02*
X984Y185D01*
X1Y184D02*
X8Y184D01*
X978Y184D02*
X984Y184D01*
X1Y183D02*
X8Y183D01*
X977Y183D02*
X984Y183D01*
X1Y182D02*
X8Y182D01*
X977Y182D02*
X984Y182D01*
X1Y181D02*
X8Y181D01*
X977Y181D02*
X984Y181D01*
X1Y180D02*
X8Y180D01*
X977Y180D02*
X984Y180D01*
X1Y179D02*
X8Y179D01*
X977Y179D02*
X984Y179D01*
X1Y178D02*
X8Y178D01*
X977Y178D02*
X984Y178D01*
X1Y177D02*
X8Y177D01*
X977Y177D02*
X984Y177D01*
X1Y176D02*
X8Y176D01*
X977Y176D02*
X984Y176D01*
X1Y175D02*
X8Y175D01*
X977Y175D02*
X984Y175D01*
X1Y174D02*
X8Y174D01*
X977Y174D02*
X984Y174D01*
X1Y173D02*
X8Y173D01*
X977Y173D02*
X984Y173D01*
X1Y172D02*
X8Y172D01*
X977Y172D02*
X984Y172D01*
X1Y171D02*
X8Y171D01*
X977Y171D02*
X984Y171D01*
X1Y170D02*
X8Y170D01*
X977Y170D02*
X984Y170D01*
X1Y169D02*
X8Y169D01*
X977Y169D02*
X984Y169D01*
X1Y168D02*
X8Y168D01*
X977Y168D02*
X984Y168D01*
X1Y167D02*
X8Y167D01*
X977Y167D02*
X984Y167D01*
X1Y166D02*
X8Y166D01*
X977Y166D02*
X984Y166D01*
X1Y165D02*
X8Y165D01*
X977Y165D02*
X984Y165D01*
X1Y164D02*
X8Y164D01*
X977Y164D02*
X984Y164D01*
X1Y163D02*
X8Y163D01*
X977Y163D02*
X984Y163D01*
X1Y162D02*
X8Y162D01*
X977Y162D02*
X984Y162D01*
X1Y161D02*
X8Y161D01*
X977Y161D02*
X984Y161D01*
X1Y160D02*
X8Y160D01*
X977Y160D02*
X984Y160D01*
X1Y159D02*
X8Y159D01*
X977Y159D02*
X984Y159D01*
X1Y158D02*
X8Y158D01*
X977Y158D02*
X984Y158D01*
X1Y157D02*
X8Y157D01*
X977Y157D02*
X984Y157D01*
X1Y156D02*
X8Y156D01*
X977Y156D02*
X984Y156D01*
X1Y155D02*
X8Y155D01*
X977Y155D02*
X984Y155D01*
X1Y154D02*
X8Y154D01*
X977Y154D02*
X984Y154D01*
X1Y153D02*
X8Y153D01*
X977Y153D02*
X984Y153D01*
X1Y152D02*
X8Y152D01*
X977Y152D02*
X984Y152D01*
X1Y151D02*
X8Y151D01*
X977Y151D02*
X984Y151D01*
X1Y150D02*
X8Y150D01*
X977Y150D02*
X984Y150D01*
X1Y149D02*
X8Y149D01*
X977Y149D02*
X984Y149D01*
X1Y148D02*
X8Y148D01*
X977Y148D02*
X984Y148D01*
X1Y147D02*
X8Y147D01*
X977Y147D02*
X984Y147D01*
X1Y146D02*
X8Y146D01*
X977Y146D02*
X984Y146D01*
X1Y145D02*
X8Y145D01*
X977Y145D02*
X984Y145D01*
X1Y144D02*
X8Y144D01*
X977Y144D02*
X984Y144D01*
X1Y143D02*
X8Y143D01*
X977Y143D02*
X984Y143D01*
X1Y142D02*
X8Y142D01*
X977Y142D02*
X984Y142D01*
X1Y141D02*
X8Y141D01*
X977Y141D02*
X984Y141D01*
X1Y140D02*
X8Y140D01*
X977Y140D02*
X984Y140D01*
X1Y139D02*
X8Y139D01*
X977Y139D02*
X984Y139D01*
X1Y138D02*
X8Y138D01*
X977Y138D02*
X984Y138D01*
X1Y137D02*
X8Y137D01*
X977Y137D02*
X984Y137D01*
X1Y136D02*
X8Y136D01*
X977Y136D02*
X984Y136D01*
X1Y135D02*
X8Y135D01*
X977Y135D02*
X984Y135D01*
X1Y134D02*
X8Y134D01*
X977Y134D02*
X984Y134D01*
X1Y133D02*
X8Y133D01*
X977Y133D02*
X984Y133D01*
X1Y132D02*
X8Y132D01*
X977Y132D02*
X984Y132D01*
X1Y131D02*
X8Y131D01*
X977Y131D02*
X984Y131D01*
X1Y130D02*
X8Y130D01*
X977Y130D02*
X984Y130D01*
X1Y129D02*
X8Y129D01*
X977Y129D02*
X984Y129D01*
X1Y128D02*
X8Y128D01*
X977Y128D02*
X984Y128D01*
X1Y127D02*
X8Y127D01*
X977Y127D02*
X984Y127D01*
X1Y126D02*
X8Y126D01*
X977Y126D02*
X984Y126D01*
X1Y125D02*
X8Y125D01*
X977Y125D02*
X984Y125D01*
X1Y124D02*
X8Y124D01*
X977Y124D02*
X984Y124D01*
X1Y123D02*
X8Y123D01*
X977Y123D02*
X984Y123D01*
X1Y122D02*
X8Y122D01*
X977Y122D02*
X984Y122D01*
X1Y121D02*
X8Y121D01*
X977Y121D02*
X984Y121D01*
X1Y120D02*
X8Y120D01*
X977Y120D02*
X984Y120D01*
X1Y119D02*
X8Y119D01*
X977Y119D02*
X984Y119D01*
X1Y118D02*
X8Y118D01*
X977Y118D02*
X984Y118D01*
X1Y117D02*
X8Y117D01*
X977Y117D02*
X984Y117D01*
X1Y116D02*
X8Y116D01*
X977Y116D02*
X984Y116D01*
X1Y115D02*
X8Y115D01*
X977Y115D02*
X984Y115D01*
X1Y114D02*
X8Y114D01*
X977Y114D02*
X984Y114D01*
X1Y113D02*
X8Y113D01*
X977Y113D02*
X984Y113D01*
X1Y112D02*
X8Y112D01*
X977Y112D02*
X984Y112D01*
X1Y111D02*
X8Y111D01*
X977Y111D02*
X984Y111D01*
X1Y110D02*
X8Y110D01*
X977Y110D02*
X984Y110D01*
X1Y109D02*
X8Y109D01*
X977Y109D02*
X984Y109D01*
X1Y108D02*
X8Y108D01*
X977Y108D02*
X984Y108D01*
X1Y107D02*
X8Y107D01*
X977Y107D02*
X984Y107D01*
X1Y106D02*
X8Y106D01*
X977Y106D02*
X984Y106D01*
X1Y105D02*
X8Y105D01*
X977Y105D02*
X984Y105D01*
X1Y104D02*
X8Y104D01*
X977Y104D02*
X984Y104D01*
X1Y103D02*
X8Y103D01*
X977Y103D02*
X984Y103D01*
X1Y102D02*
X8Y102D01*
X977Y102D02*
X984Y102D01*
X1Y101D02*
X8Y101D01*
X977Y101D02*
X984Y101D01*
X1Y100D02*
X8Y100D01*
X977Y100D02*
X984Y100D01*
X1Y99D02*
X8Y99D01*
X977Y99D02*
X984Y99D01*
X1Y98D02*
X8Y98D01*
X977Y98D02*
X984Y98D01*
X1Y97D02*
X8Y97D01*
X977Y97D02*
X984Y97D01*
X1Y96D02*
X8Y96D01*
X977Y96D02*
X984Y96D01*
X1Y95D02*
X8Y95D01*
X977Y95D02*
X984Y95D01*
X1Y94D02*
X8Y94D01*
X977Y94D02*
X984Y94D01*
X1Y93D02*
X8Y93D01*
X977Y93D02*
X984Y93D01*
X1Y92D02*
X8Y92D01*
X977Y92D02*
X984Y92D01*
X1Y91D02*
X8Y91D01*
X977Y91D02*
X984Y91D01*
X1Y90D02*
X8Y90D01*
X977Y90D02*
X984Y90D01*
X1Y89D02*
X8Y89D01*
X977Y89D02*
X984Y89D01*
X1Y88D02*
X8Y88D01*
X977Y88D02*
X984Y88D01*
X1Y87D02*
X8Y87D01*
X977Y87D02*
X984Y87D01*
X1Y86D02*
X8Y86D01*
X977Y86D02*
X984Y86D01*
X1Y85D02*
X8Y85D01*
X977Y85D02*
X984Y85D01*
X1Y84D02*
X8Y84D01*
X977Y84D02*
X984Y84D01*
X1Y83D02*
X8Y83D01*
X977Y83D02*
X984Y83D01*
X1Y82D02*
X8Y82D01*
X977Y82D02*
X984Y82D01*
X1Y81D02*
X8Y81D01*
X977Y81D02*
X984Y81D01*
X1Y80D02*
X8Y80D01*
X977Y80D02*
X984Y80D01*
X1Y79D02*
X8Y79D01*
X977Y79D02*
X984Y79D01*
X1Y78D02*
X8Y78D01*
X977Y78D02*
X984Y78D01*
X1Y77D02*
X8Y77D01*
X977Y77D02*
X984Y77D01*
X1Y76D02*
X8Y76D01*
X977Y76D02*
X984Y76D01*
X1Y75D02*
X8Y75D01*
X977Y75D02*
X984Y75D01*
X1Y74D02*
X8Y74D01*
X977Y74D02*
X984Y74D01*
X1Y73D02*
X8Y73D01*
X977Y73D02*
X984Y73D01*
X1Y72D02*
X8Y72D01*
X977Y72D02*
X984Y72D01*
X1Y71D02*
X8Y71D01*
X977Y71D02*
X984Y71D01*
X1Y70D02*
X8Y70D01*
X977Y70D02*
X984Y70D01*
X1Y69D02*
X8Y69D01*
X977Y69D02*
X984Y69D01*
X1Y68D02*
X8Y68D01*
X977Y68D02*
X984Y68D01*
X1Y67D02*
X8Y67D01*
X977Y67D02*
X984Y67D01*
X1Y66D02*
X8Y66D01*
X977Y66D02*
X984Y66D01*
X1Y65D02*
X8Y65D01*
X977Y65D02*
X984Y65D01*
X1Y64D02*
X8Y64D01*
X977Y64D02*
X984Y64D01*
X1Y63D02*
X8Y63D01*
X977Y63D02*
X984Y63D01*
X1Y62D02*
X8Y62D01*
X977Y62D02*
X984Y62D01*
X1Y61D02*
X8Y61D01*
X977Y61D02*
X984Y61D01*
X1Y60D02*
X8Y60D01*
X977Y60D02*
X984Y60D01*
X1Y59D02*
X8Y59D01*
X977Y59D02*
X984Y59D01*
X1Y58D02*
X8Y58D01*
X977Y58D02*
X984Y58D01*
X1Y57D02*
X8Y57D01*
X977Y57D02*
X984Y57D01*
X1Y56D02*
X8Y56D01*
X977Y56D02*
X984Y56D01*
X1Y55D02*
X8Y55D01*
X977Y55D02*
X984Y55D01*
X1Y54D02*
X8Y54D01*
X977Y54D02*
X984Y54D01*
X1Y53D02*
X8Y53D01*
X977Y53D02*
X984Y53D01*
X1Y52D02*
X8Y52D01*
X977Y52D02*
X984Y52D01*
X1Y51D02*
X8Y51D01*
X978Y51D02*
X984Y51D01*
X1Y50D02*
X8Y50D01*
X978Y50D02*
X984Y50D01*
X1Y49D02*
X8Y49D01*
X978Y49D02*
X984Y49D01*
X1Y48D02*
X8Y48D01*
X978Y48D02*
X984Y48D01*
X1Y47D02*
X8Y47D01*
X978Y47D02*
X984Y47D01*
X1Y46D02*
X8Y46D01*
X978Y46D02*
X984Y46D01*
X1Y45D02*
X8Y45D01*
X978Y45D02*
X984Y45D01*
X1Y44D02*
X8Y44D01*
X978Y44D02*
X984Y44D01*
X1Y43D02*
X8Y43D01*
X978Y43D02*
X984Y43D01*
X1Y42D02*
X8Y42D01*
X978Y42D02*
X984Y42D01*
X1Y41D02*
X8Y41D01*
X978Y41D02*
X984Y41D01*
X1Y40D02*
X8Y40D01*
X978Y40D02*
X984Y40D01*
X1Y39D02*
X8Y39D01*
X978Y39D02*
X984Y39D01*
X1Y38D02*
X8Y38D01*
X978Y38D02*
X984Y38D01*
X1Y37D02*
X8Y37D01*
X978Y37D02*
X984Y37D01*
X1Y36D02*
X8Y36D01*
X978Y36D02*
X984Y36D01*
X1Y35D02*
X8Y35D01*
X978Y35D02*
X984Y35D01*
X1Y34D02*
X8Y34D01*
X978Y34D02*
X984Y34D01*
X1Y33D02*
X8Y33D01*
X978Y33D02*
X984Y33D01*
X1Y32D02*
X8Y32D01*
X978Y32D02*
X984Y32D01*
X1Y31D02*
X8Y31D01*
X978Y31D02*
X984Y31D01*
X1Y30D02*
X8Y30D01*
X978Y30D02*
X984Y30D01*
X1Y29D02*
X8Y29D01*
X978Y29D02*
X984Y29D01*
X1Y28D02*
X8Y28D01*
X978Y28D02*
X984Y28D01*
X1Y27D02*
X8Y27D01*
X978Y27D02*
X984Y27D01*
X1Y26D02*
X8Y26D01*
X978Y26D02*
X984Y26D01*
X1Y25D02*
X8Y25D01*
X978Y25D02*
X984Y25D01*
X1Y24D02*
X8Y24D01*
X978Y24D02*
X984Y24D01*
X1Y23D02*
X8Y23D01*
X978Y23D02*
X984Y23D01*
X1Y22D02*
X8Y22D01*
X978Y22D02*
X984Y22D01*
X1Y21D02*
X8Y21D01*
X978Y21D02*
X984Y21D01*
X1Y20D02*
X8Y20D01*
X978Y20D02*
X984Y20D01*
X1Y19D02*
X8Y19D01*
X978Y19D02*
X984Y19D01*
X1Y18D02*
X8Y18D01*
X978Y18D02*
X984Y18D01*
X1Y17D02*
X8Y17D01*
X978Y17D02*
X984Y17D01*
X1Y16D02*
X8Y16D01*
X978Y16D02*
X984Y16D01*
X1Y15D02*
X8Y15D01*
X978Y15D02*
X984Y15D01*
X1Y14D02*
X8Y14D01*
X978Y14D02*
X984Y14D01*
X1Y13D02*
X8Y13D01*
X978Y13D02*
X984Y13D01*
X1Y12D02*
X8Y12D01*
X978Y12D02*
X984Y12D01*
X1Y11D02*
X8Y11D01*
X978Y11D02*
X984Y11D01*
X1Y10D02*
X8Y10D01*
X978Y10D02*
X984Y10D01*
X1Y9D02*
X8Y9D01*
X977Y9D02*
X984Y9D01*
X1Y8D02*
X834Y8D01*
X911Y8D02*
X984Y8D01*
X1Y7D02*
X835Y7D01*
X910Y7D02*
X984Y7D01*
X1Y6D02*
X836Y6D01*
X909Y6D02*
X984Y6D01*
X1Y5D02*
X839Y5D01*
X906Y5D02*
X984Y5D01*
X1Y4D02*
X984Y4D01*
X1Y3D02*
X984Y3D01*
X1Y2D02*
X984Y2D01*
X1Y1D02*
X984Y1D01*
D02*
G04 End of Silk0*
M02*