G04 MADE WITH FRITZING*
G04 WWW.FRITZING.ORG*
G04 DOUBLE SIDED*
G04 HOLES PLATED*
G04 CONTOUR ON CENTER OF CONTOUR VECTOR*
%ASAXBY*%
%FSLAX23Y23*%
%MOIN*%
%OFA0B0*%
%SFA1.0B1.0*%
%ADD10C,0.033622*%
%ADD11C,0.096614*%
%ADD12C,0.072992*%
%ADD13R,0.069055X0.041496*%
%ADD14R,0.057244X0.029685*%
%ADD15R,0.041496X0.069055*%
%ADD16R,0.029685X0.057244*%
%ADD17R,0.026535X0.033622*%
%ADD18R,0.024352X0.022383*%
%ADD19R,0.022383X0.024352*%
%ADD21C,0.000100*%
%ADD22C,0.010000*%
%LNMASK0*%
G90*
G70*
G54D10*
X78Y885D03*
X566Y389D03*
X440Y530D03*
X493Y639D03*
X558Y890D03*
G54D11*
X118Y118D03*
X866Y866D03*
G54D12*
X476Y360D03*
X476Y69D03*
G54D13*
X943Y30D03*
X943Y203D03*
G54D14*
X825Y77D03*
X825Y117D03*
X825Y156D03*
G54D15*
X203Y943D03*
X30Y943D03*
G54D16*
X156Y825D03*
X117Y825D03*
X77Y825D03*
G54D17*
X337Y530D03*
X362Y530D03*
X388Y530D03*
X388Y455D03*
X362Y455D03*
X337Y455D03*
G54D18*
X440Y452D03*
X440Y487D03*
G54D19*
X400Y412D03*
X436Y412D03*
G54D21*
G36*
X482Y535D02*
X487Y540D01*
X504Y524D01*
X498Y518D01*
X482Y535D01*
G37*
G54D22*
X482Y535D02*
X487Y540D01*
X504Y524D01*
X498Y518D01*
X482Y535D01*
D02*
G54D21*
G36*
X493Y546D02*
X498Y552D01*
X515Y535D01*
X509Y529D01*
X493Y546D01*
G37*
G54D22*
X493Y546D02*
X498Y552D01*
X515Y535D01*
X509Y529D01*
X493Y546D01*
D02*
G54D21*
G36*
X504Y557D02*
X509Y563D01*
X526Y546D01*
X521Y540D01*
X504Y557D01*
G37*
G54D22*
X504Y557D02*
X509Y563D01*
X526Y546D01*
X521Y540D01*
X504Y557D01*
D02*
G54D21*
G36*
X515Y568D02*
X521Y574D01*
X537Y557D01*
X532Y552D01*
X515Y568D01*
G37*
G54D22*
X515Y568D02*
X521Y574D01*
X537Y557D01*
X532Y552D01*
X515Y568D01*
D02*
G54D21*
G36*
X526Y579D02*
X532Y585D01*
X548Y568D01*
X543Y563D01*
X526Y579D01*
G37*
G54D22*
X526Y579D02*
X532Y585D01*
X548Y568D01*
X543Y563D01*
X526Y579D01*
D02*
G54D21*
G36*
X579Y568D02*
X596Y585D01*
X601Y579D01*
X585Y563D01*
X579Y568D01*
G37*
G54D22*
X579Y568D02*
X596Y585D01*
X601Y579D01*
X585Y563D01*
X579Y568D01*
D02*
G54D21*
G36*
X590Y557D02*
X607Y574D01*
X612Y568D01*
X596Y552D01*
X590Y557D01*
G37*
G54D22*
X590Y557D02*
X607Y574D01*
X612Y568D01*
X596Y552D01*
X590Y557D01*
D02*
G54D21*
G36*
X601Y546D02*
X618Y563D01*
X624Y557D01*
X607Y540D01*
X601Y546D01*
G37*
G54D22*
X601Y546D02*
X618Y563D01*
X624Y557D01*
X607Y540D01*
X601Y546D01*
D02*
G54D21*
G36*
X612Y535D02*
X629Y552D01*
X635Y546D01*
X618Y529D01*
X612Y535D01*
G37*
G54D22*
X612Y535D02*
X629Y552D01*
X635Y546D01*
X618Y529D01*
X612Y535D01*
D02*
G54D21*
G36*
X624Y524D02*
X640Y540D01*
X646Y535D01*
X629Y518D01*
X624Y524D01*
G37*
G54D22*
X624Y524D02*
X640Y540D01*
X646Y535D01*
X629Y518D01*
X624Y524D01*
D02*
G54D21*
G36*
X624Y482D02*
X629Y488D01*
X646Y471D01*
X640Y465D01*
X624Y482D01*
G37*
G54D22*
X624Y482D02*
X629Y488D01*
X646Y471D01*
X640Y465D01*
X624Y482D01*
D02*
G54D21*
G36*
X612Y471D02*
X618Y476D01*
X635Y460D01*
X629Y454D01*
X612Y471D01*
G37*
G54D22*
X612Y471D02*
X618Y476D01*
X635Y460D01*
X629Y454D01*
X612Y471D01*
D02*
G54D21*
G36*
X601Y460D02*
X607Y465D01*
X624Y449D01*
X618Y443D01*
X601Y460D01*
G37*
G54D22*
X601Y460D02*
X607Y465D01*
X624Y449D01*
X618Y443D01*
X601Y460D01*
D02*
G54D21*
G36*
X590Y449D02*
X596Y454D01*
X612Y437D01*
X607Y432D01*
X590Y449D01*
G37*
G54D22*
X590Y449D02*
X596Y454D01*
X612Y437D01*
X607Y432D01*
X590Y449D01*
D02*
G54D21*
G36*
X579Y437D02*
X585Y443D01*
X601Y426D01*
X596Y421D01*
X579Y437D01*
G37*
G54D22*
X579Y437D02*
X585Y443D01*
X601Y426D01*
X596Y421D01*
X579Y437D01*
D02*
G54D21*
G36*
X526Y426D02*
X543Y443D01*
X548Y437D01*
X532Y421D01*
X526Y426D01*
G37*
G54D22*
X526Y426D02*
X543Y443D01*
X548Y437D01*
X532Y421D01*
X526Y426D01*
D02*
G54D21*
G36*
X515Y437D02*
X532Y454D01*
X537Y449D01*
X521Y432D01*
X515Y437D01*
G37*
G54D22*
X515Y437D02*
X532Y454D01*
X537Y449D01*
X521Y432D01*
X515Y437D01*
D02*
G54D21*
G36*
X504Y449D02*
X521Y465D01*
X526Y460D01*
X509Y443D01*
X504Y449D01*
G37*
G54D22*
X504Y449D02*
X521Y465D01*
X526Y460D01*
X509Y443D01*
X504Y449D01*
D02*
G54D21*
G36*
X493Y460D02*
X509Y476D01*
X515Y471D01*
X498Y454D01*
X493Y460D01*
G37*
G54D22*
X493Y460D02*
X509Y476D01*
X515Y471D01*
X498Y454D01*
X493Y460D01*
D02*
G54D21*
G36*
X482Y471D02*
X498Y488D01*
X504Y482D01*
X487Y465D01*
X482Y471D01*
G37*
G54D22*
X482Y471D02*
X498Y488D01*
X504Y482D01*
X487Y465D01*
X482Y471D01*
D02*
G54D21*
G36*
X518Y503D02*
X564Y549D01*
X610Y503D01*
X564Y457D01*
X518Y503D01*
G37*
G54D22*
X518Y503D02*
X564Y549D01*
X610Y503D01*
X564Y457D01*
X518Y503D01*
D02*
G54D21*
G36*
X449Y648D02*
X471Y610D01*
X430Y587D01*
X408Y624D01*
X449Y648D01*
G37*
G54D22*
X449Y648D02*
X471Y610D01*
X430Y587D01*
X408Y624D01*
X449Y648D01*
D02*
G54D21*
G36*
X391Y614D02*
X413Y577D01*
X372Y553D01*
X351Y591D01*
X391Y614D01*
G37*
G54D22*
X391Y614D02*
X413Y577D01*
X372Y553D01*
X351Y591D01*
X391Y614D01*
D02*
G04 End of Mask0*
M02*